<?xml version="1.0" encoding="utf-8"?>
<!-- Generator: Adobe Illustrator 22.1.0, SVG Export Plug-In . SVG Version: 6.00 Build 0)  -->
<svg version="1.1" id="panda_1_" xmlns="http://www.w3.org/2000/svg" xmlns:xlink="http://www.w3.org/1999/xlink" x="0px" y="0px"
	 viewBox="0 0 22.3 28.4" style="enable-background:new 0 0 22.3 28.4;" xml:space="preserve">
<style type="text/css">
	.st0{fill:#0C0C0C;}
	.st1{fill:#DDDDDD;}
	.st2{fill:#F4F3F2;}
	.st3{fill:#FFFFFF;}
</style>
<g id="panda">
	<g id="Body">
		<g id="legs">
			<path id="left_leg" class="st0" d="M16.9,26.5c0.1,0.3,0.2,0.5,0.3,0.8c0.6,1,1.5,1.4,2.1,0.8s0.6-1.9,0.1-2.9
				c-0.1-0.1-0.1-0.2-0.2-0.4C18.8,25.7,17.9,26.3,16.9,26.5z"/>
			<path id="right_leg" class="st0" d="M3.8,24.6c-0.1,0.2-0.3,0.3-0.4,0.5c-0.6,1-0.5,2.3,0.1,2.9c0.6,0.6,1.6,0.2,2.1-0.8
				c0.1-0.2,0.2-0.5,0.3-0.8C4.9,26.2,4.1,25.5,3.8,24.6z"/>
		</g>
		<path id="body" class="st1" d="M16.6,16c-3,1.8-6.8,1.9-9.9,0.1c-0.4,0-0.9,0-1.3-0.1c-0.4-0.1-1.1,0.3-1.8,0.8v6.8
			c0,0.3,0.1,0.7,0.2,1c0.3,0.9,1.1,1.7,2.1,1.9c0.2,0,0.4,0.1,0.6,0.1h10c0.1,0,0.3,0,0.4,0c1-0.1,1.9-0.8,2.3-1.7
			c0.2-0.4,0.2-0.7,0.2-1.1v-6.5c-0.6-0.5-1.3-1-1.6-1.2C17.4,16,17,16,16.6,16z"/>
		<g id="hands">
			<path id="right_hand" class="st0" d="M5.4,16c0.4,0.1,0.8,0.1,1.3,0.1c-1.3-0.7-2.4-1.8-3.2-3.1H3.3c0,0-3.1,0.9-3.2,4.3
				c-0.1,2.3,2,0.6,3.7-0.5C4.4,16.3,5,15.9,5.4,16z"/>
			<path id="left_hand" class="st0" d="M19.8,13.1C19.7,13,19.7,13,19.6,13c-0.8,1.3-1.8,2.3-3.1,3.1c0.4,0,0.8,0,1.2,0.1
				c0.4,0.2,1,0.7,1.6,1.2c0.8,0.7,1.7,1.4,2.1,1.5C22.4,18.9,22.9,15.9,19.8,13.1z"/>
		</g>
	</g>
	<g id="Head">
		<g id="ear">
			<path id="left_ear" class="st0" d="M6.3,1.7L5.6,0.9c-0.9-1-2.4-1.1-3.4-0.2C2.1,0.7,2,0.8,2,0.9L1.8,1c-1,1.1-1,2.8,0,3.9l0.9,1
				C3.5,4.2,4.7,2.7,6.3,1.7z"/>
			<path id="right_ear" class="st0" d="M20.1,5.7L20.8,5c1-1.1,1-2.8,0-3.9l-0.1-0.2c-0.9-1-2.4-1.1-3.4-0.2
				c-0.1,0.1-0.1,0.1-0.2,0.2l-0.6,0.7C18.1,2.5,19.4,4,20.1,5.7z"/>
		</g>
		<g id="face">
			<path id="face_1_" class="st2" d="M6.7,16.1c3.1,1.7,6.9,1.7,9.9-0.1c1.3-0.8,2.3-1.8,3.1-3.1c1.3-2.2,1.5-4.9,0.5-7.2
				c-0.7-1.7-2-3.2-3.7-4.1c-3.1-1.8-7-1.8-10.1,0.1C4.7,2.7,3.5,4.2,2.8,6c-0.9,2.3-0.6,4.9,0.7,7C4.3,14.3,5.4,15.4,6.7,16.1z
				 M15.8,4.6c1.7,0,3,1.5,3,3.3s-1.4,3.3-3,3.3s-3-1.5-3-3.3S14.2,4.6,15.8,4.6z M10.4,7.9c0,1.8-1.4,3.3-3,3.3s-3-1.5-3-3.3
				s1.4-3.3,3-3.3S10.4,6,10.4,7.9z"/>
		</g>
		<g id="right_eye">
			<g id="white_1_">
				<ellipse class="st3" cx="7.4" cy="8" rx="2.1" ry="2.2"/>
			</g>
			<path id="right_eye_1_" class="st0" d="M4.4,7.9c0,1.8,1.4,3.3,3,3.3s3-1.5,3-3.3S9,4.6,7.4,4.6S4.4,6,4.4,7.9z M7.2,9.7
				c-0.9,0-1.7-0.8-1.7-1.9c0-0.6,0.3-1.2,0.7-1.5l0.6,0.5c-0.2,0.3-0.4,0.6-0.4,1c0,0.7,0.5,1.3,1.2,1.3c0.4,0,0.8-0.2,1.1-0.6l0,0
				C8.6,9.3,8,9.7,7.2,9.7L7.2,9.7z"/>
		</g>
		<g id="left_eye">
			<g id="white">
				<ellipse class="st3" cx="16.1" cy="8.1" rx="2.1" ry="2.2"/>
			</g>
			<path id="left_eye_1_" class="st0" d="M15.8,11.2c1.7,0,3-1.5,3-3.3s-1.4-3.3-3-3.3s-3,1.5-3,3.3S14.2,11.2,15.8,11.2z M17.7,7.9
				c0,1-0.8,1.9-1.7,1.9c-0.8,0-1.5-0.6-1.7-1.4l0,0c0.1,0.5,0.6,0.9,1.2,0.9c0.7,0,1.3-0.6,1.2-1.3c0-0.5-0.2-0.9-0.6-1.2
				c0.2-0.2,0.4-0.4,0.5-0.6C17.3,6.4,17.7,7.1,17.7,7.9z"/>
		</g>
		<g id="mouth">
			<g>
				<path class="st0" d="M11,11.3c0.1,0.2,0.3,0.3,0.5,0.3s0.4-0.1,0.5-0.3C12.1,10.9,11,10.9,11,11.3z"/>
			</g>
			<g>
				<path class="st0" d="M9,14.2L8.8,14c0.1-0.1,1.5-1.5,2.6-1.7v-1h0.3v1.2h-0.1C10.6,12.7,9,14.2,9,14.2z"/>
			</g>
			<g>
				<path class="st0" d="M14,14.2c-1.6-1.5-2.5-1.7-2.5-1.7l0.1-0.3c0,0,0.9,0.2,2.6,1.8L14,14.2z"/>
			</g>
		</g>
	</g>
</g>
</svg>
