<?xml version="1.0" encoding="utf-8"?>
<!-- Generator: Adobe Illustrator 22.1.0, SVG Export Plug-In . SVG Version: 6.00 Build 0)  -->
<svg version="1.1" id="LIon" xmlns="http://www.w3.org/2000/svg" xmlns:xlink="http://www.w3.org/1999/xlink" x="0px" y="0px"
	 viewBox="0 0 26.5 33" style="enable-background:new 0 0 26.5 33;" xml:space="preserve">
<style type="text/css">
	.st0{fill:#BA6A00;}
	.st1{fill:#4F3E2C;}
	.st2{fill:#FCC575;}
	.st3{fill:#EFA818;}
	.st4{fill:#FFFFFF;}
	.st5{fill:#0C0C0C;}
</style>
<title>LionFront</title>
<g id="Lion">
	<g id="tail">
		<path class="st0" d="M4,26.2c0.6,0.4,1.4,0.5,2.1,0.3c1.1-0.2,2.2,0,3.1,0.6c-0.3-0.4-0.5-0.8-0.7-1.3c-0.9-0.3-1.8-0.4-2.7-0.2
			c-0.5,0.1-1,0.1-1.4-0.2c-0.7-0.6-1.1-1.3-1.3-2.2c-0.3,0.1-0.6,0.1-0.9,0.1C2.5,24.5,3.1,25.5,4,26.2z"/>
		<path class="st1" d="M3.8,22.4c-0.2-1.2-1.8-1.1-1-2.8c0,0-2.1,1.3-1.8,2.8c0.1,0.6,0.7,1,1.3,1c0.3,0,0.6,0,0.9-0.1
			C3.6,23.2,3.9,22.9,3.8,22.4z M1.9,22.7L1.9,22.7c-0.7-0.5-0.1-1.6-0.1-1.7l0.1,0.1C1.9,21.1,1.2,22.1,1.9,22.7L1.9,22.7z
			 M2.4,22.9c-0.4-0.4-0.5-1.1-0.2-1.6l0.1,0.1C2,21.9,2,22.5,2.4,22.9L2.4,22.9z M3,23.1c-0.4-0.3-0.5-0.8-0.3-1.2l0.1,0.1
			C2.8,21.9,2.5,22.4,3,23.1L3,23.1z"/>
		<path class="st2" d="M1.8,21c0,0-0.7,1.1,0,1.7l0.1-0.1C1.2,22.1,1.9,21.1,1.8,21L1.8,21z"/>
		<path class="st2" d="M2.3,21.4L2.3,21.4c-0.4,0.4-0.4,1.1,0.1,1.5l0.1-0.1C2,22.5,2,21.9,2.3,21.4z"/>
		<path class="st2" d="M2.8,21.9L2.8,21.9c-0.3,0.4-0.2,0.9,0.2,1.2L3.1,23C2.5,22.4,2.8,21.9,2.8,21.9z"/>
	</g>
	<path id="Bpdy" class="st3" d="M23.6,20.8c-0.1,0-0.1-0.1-0.2-0.1c0,0-0.1,0-0.1-0.1c-0.5-0.1-1,0-1.4,0.4c-0.1,0-0.1,0.1-0.1,0.1
		l-2.7-2.8c0,0-0.1,0-0.1,0c2-1.4,3.3-3.6,3.3-6.1c0-1.4-0.4-2.8-1.2-3.9c0.2-0.8,0-1.7-0.5-2.3c-0.6-0.4-1.4-0.4-2-0.1
		c-2.9-1.8-6.6-1.8-9.6,0C8.4,5.6,7.6,5.6,7,6C6.5,6.6,6.3,7.5,6.5,8.2c-0.8,1.2-1.3,2.6-1.3,4c0,2.5,1.3,4.7,3.3,6.1l-2.6,2.7
		c0-0.1-0.1-0.1-0.1-0.1c-0.4-0.4-0.9-0.5-1.4-0.4c0,0-0.1,0-0.1,0.1c-0.1,0-0.1,0.1-0.2,0.1c-0.3,0.3-0.2,0.9,0.1,1.2
		c0,0.5,0.2,0.9,0.6,1.2c0.1,0.1,0.2,0.2,0.3,0.2c-0.1,0.2-0.1,0.5,0.1,0.7c0.3,0.4,1.1,0.3,1.7-0.1c0.4-0.3,0.6-0.7,0.7-1.1l0.9-1
		c-0.3,0.8-0.4,1.7-0.4,2.7c0,2.2,0.2,4.1,1.8,5.1v1.9c-0.1,0-0.1,0-0.2,0c-0.7,0-1.4,0.2-1.4,0.5c0,0.2,0.4,0.4,0.9,0.5
		c0.4,0.2,0.8,0.3,1.2,0.3c0.1,0,0.2,0,0.4,0c0.1,0.1,0.3,0.2,0.5,0.2c0.5,0.1,0.9-0.2,1.1-0.7c0.1-0.3,0-0.5-0.2-0.7v-1.3
		c0.2,0,0.5,0,0.7,0h2c0.2,0,0.5,0,0.7,0v1.4c-0.2,0.1-0.3,0.4-0.2,0.7c0.2,0.4,0.6,0.7,1.1,0.7c0.2,0,0.4-0.1,0.5-0.2
		c0.1,0,0.2,0,0.4,0c0.4,0,0.9-0.1,1.2-0.3c0.5-0.1,0.9-0.3,0.9-0.5c0-0.3-0.6-0.5-1.4-0.5c-0.1,0-0.1,0-0.2,0v-1.9l0,0
		c1.7-1,1.8-2.9,1.8-5.1c0-0.9-0.1-1.7-0.4-2.5l0.8,0.8c0.1,0.5,0.3,0.9,0.7,1.1c0.6,0.5,1.4,0.5,1.7,0.1c0.1-0.2,0.2-0.5,0.1-0.7
		c0.1-0.1,0.2-0.1,0.3-0.2c0.4-0.3,0.6-0.8,0.6-1.2C23.9,21.6,23.9,21.1,23.6,20.8z"/>
	<path id="stmach" class="st2" d="M12.9,20.8H15c1.8,0,3.2,1.7,3.2,3.8s-1.4,3.8-3.2,3.8h-2.1c-1.8,0-3.2-1.7-3.2-3.8
		S11.1,20.8,12.9,20.8z"/>
	<path id="hair" class="st0" d="M7.1,19.2c0,0-0.8-0.5,0,3c0.2,0.8,0.3,1.4,0.4,1.7c0.1-0.8,0.3-2.9,1.1-3.3c0.2-0.1,0.4-0.1,0.6,0
		c0.9,0.3,0.7,1.2,1.2,1.8c0.3,0.4,1.1,1.5,1.6,1.3c0.7-0.2,1.8,1.2,1.8,1.2c0-0.8,1.8-0.9,2.2-1.1c0.5-0.4,0.9-1,1.2-1.5
		c0.5-0.6,0.3-1.4,1.2-1.8c0.4-0.1,0.8,0,1,0.4c0.4,0.9,0.7,1.9,0.7,2.9c0.1-0.4,0.2-0.9,0.4-1.7c0.8-3.5,0-3,0-3
		c1-1.2,2.8,1.8,2.8,1.8c0.1-0.1,0.2-0.3,0.3-0.4c1.1-2.2-0.9-3.5,0.7-3.4c1,0.1,1.9,0.7,2.3,1.7c-0.2-3.2-3.4-4.6-2.8-5
		s2.8,1.3,2.8,1.3c0-3.1-3.7-3.2-2.9-4s2.1,0,2.1,0c-0.1-1.2-2.6-1.4-2.6-2.7s1.4-1.1,1.4-1.1c0-1.9-2.5-1.2-2.5-1.2
		c-0.1-2.3,1.9-1.8,1.9-1.8c-1-1.8-4.6-0.8-4.6-0.8c-0.4-0.6,1.1-1,1.1-1c-1-0.6-2.4-0.6-3.4,0c-0.5-0.4-0.6-1.1-0.2-1.6
		c0.1-0.2,0.3-0.3,0.5-0.3c-1.6-1-3.3,0.7-3.5,1c-0.3-0.3-1.9-2-3.5-1c0.6,0.2,0.9,0.9,0.7,1.5c-0.1,0.2-0.2,0.3-0.3,0.5
		c-1-0.6-2.4-0.6-3.4,0c0,0,1.5,0.5,1.1,1c0,0-3.6-1-4.6,0.8c0,0,2-0.5,1.9,1.8c0,0-2.5-0.7-2.5,1.2c0,0,1.4-0.2,1.4,1.1
		S2,9.7,1.9,10.9c0,0,1.3-0.9,2.1,0s-2.9,1-2.9,4c0,0,2.1-1.7,2.8-1.3s-2.5,1.8-2.8,5c0.4-0.9,1.3-1.6,2.3-1.7
		c1.7-0.1-0.6,1.4,0.9,3.9c0,0,0.1-0.1,0.1-0.2C5,20,6.4,18.2,7.1,19.2z M20.5,6C21.3,6.7,21,8.4,21,8.4S19.8,6.3,18.3,6
		C18.3,6,19.7,5.4,20.5,6z M7,6c0.8-0.7,2.2,0,2.2,0C7.8,6.3,6.6,8.4,6.6,8.4S6.2,6.7,7,6z M13.8,6c4.1,0,7.5,2.9,7.5,6.5
		s-3.3,6.4-7.5,6.4S6.4,16,6.4,12.5S9.7,6,13.8,6z"/>
	<g id="left-eyes">
		<ellipse class="st4" cx="10.7" cy="11.8" rx="1.6" ry="2.6"/>
		<ellipse transform="matrix(0.99 -0.1412 0.1412 0.99 -1.6296 1.5513)" cx="10.1" cy="12.3" rx="1" ry="2.3"/>
		<path class="st1" d="M9.1,12.1L9.1,12.1c0.7-0.1,1.4-0.4,2-0.8c0.4-0.2,0.7-0.5,1-0.9l0,0l0,0c-0.1-0.3-0.2-0.6-0.4-0.8
			c0,0,0,0,0-0.1c0,0-0.1-0.1-0.1-0.1c0,0-0.1-0.1-0.1-0.1c0,0,0,0-0.1,0c-0.1-0.1-0.2-0.2-0.3-0.2c0,0-0.1,0-0.1,0c0,0,0,0-0.1,0
			c0,0-0.1,0-0.1,0l0,0c0,0-0.1,0-0.1,0l0,0c0,0-0.1,0-0.1,0l0,0c0,0-0.1,0-0.1,0C9.9,9.2,9.6,9.5,9.5,9.8l0,0
			c0,0.1-0.1,0.1-0.1,0.2l0,0c0,0.1-0.1,0.1-0.1,0.2l0,0c0,0,0,0.1,0,0.1c0,0.1,0,0.1,0,0.2c0,0,0,0.1,0,0.1c0,0.1,0,0.1,0,0.2l0,0
			c0,0.1,0,0.1,0,0.2l0,0c0,0.3,0,0.5,0,0.8C9.1,12,9.1,12.1,9.1,12.1z"/>
	</g>
	<g id="right-eyes">
		<path class="st4" d="M18.9,12c0-1.5-0.7-2.6-1.6-2.6c-0.6,0-1,0.5-1.3,1.2c0.1-0.2,0.3-0.3,0.5-0.4c0.6-0.1,1.2,0.9,1.3,2.2
			c0.2,0.8,0.1,1.6-0.4,2.3C18.3,14.6,18.9,13.4,18.9,12z"/>
		<path d="M17.8,12.4c-0.2-1.3-0.8-2.3-1.3-2.2c-0.2,0.1-0.4,0.2-0.5,0.4c-0.3,0.7-0.4,1.4-0.2,2.1c0.2,1.3,0.8,2.3,1.3,2.2
			c0.1,0,0.2-0.1,0.3-0.2C17.9,14,18,13.2,17.8,12.4z"/>
		<path class="st1" d="M19,12.4L19,12.4c-0.7-0.1-1.4-0.4-2-0.8c-0.4-0.2-0.7-0.5-1-0.8l0,0l0,0c0.1-0.3,0.2-0.6,0.4-0.8
			c0,0,0,0,0-0.1c0,0,0.1-0.1,0.1-0.1c0,0,0.1-0.1,0.1-0.1c0,0,0,0,0.1,0c0.1-0.1,0.2-0.2,0.3-0.2c0,0,0.1,0,0.1,0c0,0,0,0,0.1,0
			c0,0,0.1,0,0.1,0l0,0c0,0,0.1,0,0.1,0l0,0c0,0,0.1,0,0.1,0l0,0c0,0,0.1,0,0.1,0c0.3,0.2,0.6,0.4,0.8,0.8l0,0
			c0,0.1,0.1,0.1,0.1,0.2l0,0c0,0.1,0.1,0.1,0.1,0.2l0,0c0,0,0,0.1,0,0.1c0,0.1,0,0.1,0,0.2c0,0,0,0.1,0,0.1c0,0.1,0,0.1,0,0.2l0,0
			c0,0.1,0,0.1,0,0.2l0,0c0,0.3,0,0.5,0,0.8C19,12.3,19,12.4,19,12.4z"/>
	</g>
	<g id="mouth">
		<path class="st0" d="M10.5,14.1c-1.3,1.6,0,3.7,3.4,1.8c3.4,1.9,4.6-0.2,3.4-1.8c-0.1-0.1-0.1-0.2-0.2-0.3c0,0-0.1-0.1-0.1-0.1
			c-0.2-0.2-0.5-0.4-0.8-0.5c-0.7-0.2-1.6,0-2.1,0.5c0.2,0,0.4,0.1,0.4,0.3c-0.1,0.1-0.3,0.2-0.5,0.2c-0.2,0-0.4-0.1-0.5-0.2
			c0-0.1,0.2-0.2,0.4-0.2c-0.5-0.5-1.2-0.7-1.9-0.5c-0.4,0.1-0.8,0.3-1.1,0.7C10.6,13.9,10.6,14,10.5,14.1z"/>
		<path class="st5" d="M13.4,13.9c0.1,0.1,0.3,0.2,0.5,0.2c0.2,0,0.4-0.1,0.5-0.2c0-0.1-0.2-0.2-0.4-0.3c-0.1,0-0.2,0-0.3,0
			C13.6,13.7,13.4,13.8,13.4,13.9z"/>
	</g>
</g>
</svg>
