<?xml version="1.0" encoding="utf-8"?>
<!-- Generator: Adobe Illustrator 22.1.0, SVG Export Plug-In . SVG Version: 6.00 Build 0)  -->
<svg version="1.1" id="Layer_1" xmlns="http://www.w3.org/2000/svg" xmlns:xlink="http://www.w3.org/1999/xlink" x="0px" y="0px"
	 viewBox="0 0 20.3 26.3" style="enable-background:new 0 0 20.3 26.3;" xml:space="preserve">
<style type="text/css">
	.st0{fill:#F4D3E9;}
	.st1{fill:#898785;}
	.st2{fill:#E5E5E5;}
	.st3{fill:#F4F3F2;}
	.st4{fill:#232323;}
	.st5{fill:#FFFFFF;}
</style>
<title>Penguin_Front1</title>
<g id="Layer_12">
	<path id="right_leg" class="st0" d="M4.7,22.7c-0.1-0.1-0.3-0.3-0.4-0.4c-0.9,0.5-1.4,1.5-1.4,2.5c0.1,0.9,0.9,1.7,1.8,1.6
		c0.2,0,0.4-0.1,0.6-0.2c0.9-0.3,1.6-0.9,2-1.8C6.4,24.1,5.5,23.5,4.7,22.7L4.7,22.7z"/>
	<path id="left_leg" class="st0" d="M17.3,22.4c-0.1,0.1-0.2,0.2-0.3,0.3v0c-0.7,0.7-1.5,1.3-2.5,1.7c0.4,0.9,1.3,1.5,2.2,1.6
		c1.1,0.1,2.1-0.6,2.2-1.7c0-0.1,0-0.3,0-0.4c-0.1-0.9-0.6-1.6-1.3-2.1c0,0.1-0.1,0.1-0.1,0.2C17.5,22.1,17.4,22.3,17.3,22.4z"/>
	<path id="left_hand" class="st1" d="M18.8,11c-0.3-0.2-0.6-0.3-1-0.4c-0.2,0.4-0.5,0.8-0.8,1.2v10.9l0,0v0c0.1-0.1,0.2-0.2,0.3-0.3
		c0.1-0.1,0.2-0.2,0.3-0.4c0.4-0.6,0.8-1.3,1-2c0.3-0.8,0.5-1.7,0.6-2.6v0c0-0.1,0-0.2,0-0.3c0-0.1,0-0.3,0-0.4c0-0.1,0-0.2,0-0.4
		c0-0.5-0.1-1.1-0.2-1.6c0.5,0,0.9-0.4,1.1-0.8C20.4,12.7,19.9,11.6,18.8,11z"/>
	<path id="right_hnad" class="st1" d="M4.7,22.7L4.7,22.7L4.7,22.7V12c-0.2-0.2-0.4-0.5-0.5-0.7c0,0,0,0.1-0.1,0.1
		c-0.4-0.4-0.8-0.6-1.3-0.7c-1-0.4-2.1,0.1-2.4,1.1c0,0.1,0,0.1,0,0.2c0,1.1,0.8,2.2,1.9,2.3c0.2,0,0.3,0.1,0.5,0.1h0
		c-0.1,0.2-0.1,0.4-0.2,0.7c0,0.1,0,0.1,0,0.2c0,0.1,0,0.1,0,0.2c0,0.1,0,0.2,0,0.3l0,0.1c0,0.1,0,0.2,0,0.3l0,0c0,0.1,0,0.2,0,0.3
		c0,0.1,0,0.3,0,0.4c0,0.1,0,0.3,0,0.4c0,0.1,0,0.2,0,0.2c0,0,0,0.1,0,0.1c0.1,1.8,0.8,3.4,1.8,4.8c0,0,0,0,0.1,0.1
		C4.4,22.4,4.6,22.6,4.7,22.7z"/>
	<path id="body" class="st2" d="M20.3,12.7L20.3,12.7c0-0.1-0.1-0.3-0.1-0.4c-0.3-1.2-1.4-1.9-2.6-1.8c-0.1,0-0.1,0-0.2,0.1
		c-0.8,0.4-1.2,1.2-1.1,2c-1.5,1.4-3.4,2.1-5.4,2.1c-2.3,0-4.5-1-6.1-2.8c-0.2-0.6-0.6-1.1-1.3-1.4c-0.5-0.2-1.1-0.3-1.6-0.2
		c0,0-1.6,0.4-1.9,1.4c-0.3,1.1,0.8,1.9,1.1,2v0c0.1,0.1,0.3,0.1,0.4,0.2c1.1,0.5,2.4,0.2,3.1-0.8c0,0,0-0.1,0.1-0.1v9.5
		c0.7,0.8,1.6,1.3,2.6,1.7c1.2,0.4,2.4,0.7,3.6,0.7c1.2,0,2.5-0.2,3.6-0.7c0.9-0.4,1.8-1,2.5-1.7v-8.5c0.1,0.1,0.1,0.2,0.2,0.2
		c0,0,1.3,0.9,2.2,0.4C20.2,14.4,20.5,13.5,20.3,12.7z"/>
	<g id="head">
		<path id="face" class="st3" d="M4.7,12c1.5,1.8,3.8,2.9,6.1,2.8c2.4,0,4.7-1.1,6.2-3c0.3-0.4,0.5-0.8,0.8-1.2
			c0.5-0.9,0.7-1.8,0.8-2.8c-0.1-0.2-1-3.3-3.7-3.4c-2.5-0.1-2.9,2.4-3,2.9c0.5,0.2,0.9,0.6,0.9,1c0,0.6-0.9,1.2-2,1.2s-2-0.5-2-1.2
			c0-0.4,0.3-0.7,0.6-0.9l0,0c0,0-0.1-3.2-2.9-3.1C4,4.6,3.1,7.8,3.1,7.8c0.1,1.2,0.5,2.4,1.1,3.4C4.3,11.5,4.5,11.7,4.7,12z
			 M15.2,5.9C15.7,6,16.1,6.5,16,7c0,0.5-0.4,0.8-0.9,0.8c0,0,0,0-0.1,0c-0.5-0.1-0.9-0.6-0.8-1.1C14.3,6.3,14.7,5.9,15.2,5.9
			C15.2,5.9,15.2,5.9,15.2,5.9z M6.9,5.9C7.4,6,7.8,6.5,7.7,7c0,0.5-0.4,0.8-0.9,0.8c0,0,0,0-0.1,0C6.3,7.7,5.9,7.3,6,6.8
			C6,6.3,6.4,5.9,6.9,5.9C6.9,5.9,6.9,5.9,6.9,5.9L6.9,5.9z"/>
		<path id="hair" class="st1" d="M6.7,4.5c2.7-0.1,2.9,3.1,2.9,3.1l0,0c0.4-0.2,0.9-0.3,1.3-0.3c0.4,0,0.7,0.1,1.1,0.2
			c0.1-0.5,0.4-3,3-2.9c2.7,0.1,3.7,3.2,3.7,3.4l0,0c0,0,0,0,0-0.1c0-0.1,0-0.3,0-0.4c0-0.1,0-0.1,0-0.2c0-0.1,0-0.1,0-0.2
			c0-1-0.3-2-0.8-2.8c-0.6-1.1-1.5-2-2.5-2.7c-0.5-0.4-1.2-0.7-1.8-1C12.6,0.1,11.6,0,10.7,0C9.1,0,7.5,0.5,6.3,1.4l0,0
			C5.5,2,4.9,2.6,4.3,3.3c-0.8,1-1.2,2.3-1.3,3.6c0,0.3,0,0.6,0,0.9v0l0,0C3.1,7.8,4,4.6,6.7,4.5z"/>
		<g id="right_eye">
			<path class="st4" d="M6.8,7.8c0.5,0.1,0.9-0.3,1-0.7c0,0,0,0,0-0.1c0.1-0.5-0.3-1-0.8-1.1C6.5,5.9,6,6.2,6,6.7c0,0,0,0,0,0.1
				C5.9,7.3,6.3,7.7,6.8,7.8z M6.8,6.3c0.2,0,0.3,0.2,0.3,0.4c0,0.2-0.2,0.3-0.3,0.3c0,0,0,0,0,0C6.6,7,6.4,6.8,6.4,6.6
				C6.5,6.5,6.6,6.3,6.8,6.3C6.8,6.3,6.8,6.3,6.8,6.3L6.8,6.3z"/>
			<path class="st5" d="M6.8,7.1c0.2,0,0.3-0.1,0.4-0.3c0,0,0,0,0,0c0-0.2-0.1-0.4-0.3-0.4c-0.2,0-0.3,0.1-0.4,0.3c0,0,0,0,0,0
				C6.4,6.8,6.6,7,6.8,7.1z"/>
		</g>
		<g id="left_eye">
			<path class="st4" d="M15.1,7.8c0.5,0.1,0.9-0.3,1-0.7c0,0,0,0,0-0.1c0.1-0.5-0.3-1-0.8-1.1c-0.5-0.1-0.9,0.3-1,0.7c0,0,0,0,0,0.1
				C14.2,7.3,14.6,7.7,15.1,7.8z M15.1,6.3c0.2,0,0.3,0.2,0.3,0.4c0,0.2-0.2,0.3-0.3,0.3c0,0,0,0,0,0c-0.2,0-0.3-0.2-0.3-0.4
				C14.7,6.5,14.9,6.3,15.1,6.3C15.1,6.3,15.1,6.3,15.1,6.3L15.1,6.3z"/>
			<path class="st5" d="M15,7.1c0.2,0,0.3-0.1,0.4-0.3c0,0,0,0,0,0c0-0.2-0.1-0.4-0.3-0.4c-0.2,0-0.3,0.1-0.4,0.3c0,0,0,0,0,0
				C14.7,6.8,14.8,7,15,7.1z"/>
		</g>
		<path id="mouth" class="st0" d="M9.5,7.5C9.2,7.7,8.9,8,8.9,8.4c0,0.6,0.9,1.2,2,1.2s2-0.5,2-1.2c0-0.4-0.3-0.8-0.9-1
			c-0.3-0.1-0.7-0.2-1.1-0.2C10.4,7.2,9.9,7.3,9.5,7.5z"/>
	</g>
</g>
</svg>
