<?xml version="1.0" encoding="utf-8"?>
<!-- Generator: Adobe Illustrator 22.1.0, SVG Export Plug-In . SVG Version: 6.00 Build 0)  -->
<svg version="1.1" id="Layer_1" xmlns="http://www.w3.org/2000/svg" xmlns:xlink="http://www.w3.org/1999/xlink" x="0px" y="0px"
	 viewBox="0 0 2059 1548.3" style="enable-background:new 0 0 2059 1548.3;" xml:space="preserve">
<style type="text/css">
	.st0{fill:#F2DF91;}
	.st1{fill:#B4F79F;}
	.st2{fill:#684A16;}
	.st3{fill:#9B7A37;}
	.st4{fill:#57AF2E;stroke:#00B90D;stroke-linejoin:round;}
	.st5{fill:#FFFFFF;}
	.st6{fill:#F4E49F;}
	.st7{fill:none;stroke:#00B90D;stroke-linecap:round;stroke-linejoin:round;}
</style>
<title>Farm</title>
<g id="Layer_1-2">
	<rect x="3" y="496.7" class="st0" width="2064.2" height="571.4"/>
	<rect x="3" y="953.1" class="st1" width="2060.2" height="713.4"/>
	<rect x="3" y="1.8" class="st1" width="2060.2" height="517.1"/>
	<g>
		<path class="st2" d="M85.4,925.9c-30.5,0-59.5,0.4-85.4,1.2v25.3c26,0.8,54.9,1.2,85.4,1.2H2065V926L85.4,925.9L85.4,925.9z"/>
		<path class="st2" d="M85.4,1002.1c-30.5,0-59.5,0.4-85.4,1.2v25.2c26,0.8,54.9,1.2,85.4,1.2H2065v-27.6L85.4,1002.1z"/>
		<path class="st3" d="M127.6,890.5h-4.4c-9.3,0.1-16.7,7.6-16.7,16.9v166.8h37.6V907.4C144.3,898.2,136.9,890.6,127.6,890.5z"/>
		<path class="st3" d="M234.3,890.5H230c-9.2,0.1-16.7,7.6-16.6,16.9v166.8H251V907.4C251,898.2,243.6,890.6,234.3,890.5z"/>
		<path class="st3" d="M341,890.5h-4.4c-9.2,0.1-16.7,7.6-16.6,16.9v166.8h37.6V907.4C357.7,898.2,350.3,890.6,341,890.5z"/>
		<path class="st3" d="M1302.4,890.5h-4.4c-9.2,0.1-16.7,7.6-16.6,16.9v166.8h37.6V907.4C1319.1,898.2,1311.7,890.6,1302.4,890.5z"
			/>
		<path class="st3" d="M1409.1,890.5h-4.4c-9.2,0.1-16.7,7.6-16.6,16.9v166.8h37.6V907.4C1425.7,898.2,1418.3,890.6,1409.1,890.5z"
			/>
		<path class="st3" d="M1515.8,890.5h-4.4c-9.2,0.1-16.7,7.6-16.6,16.9v166.8h37.6V907.4C1532.4,898.2,1525,890.6,1515.8,890.5z"/>
		<path class="st3" d="M1622.4,890.5h-4.4c-9.2,0.1-16.6,7.6-16.6,16.9v166.8h37.6V907.4C1639.1,898.1,1631.7,890.6,1622.4,890.5z"
			/>
		<path class="st3" d="M448.1,890.5h-4.4c-9.2,0.1-16.7,7.6-16.6,16.9v166.8h37.6V907.4C464.8,898.2,457.4,890.6,448.1,890.5z"/>
		<path class="st3" d="M554.8,890.5h-4.4c-9.2,0.1-16.7,7.6-16.6,16.9v166.8h37.6V907.4C571.4,898.2,564,890.6,554.8,890.5z"/>
		<path class="st3" d="M661.5,890.5h-4.4c-9.2,0.1-16.7,7.6-16.6,16.9v166.8h37.6V907.4C678.1,898.2,670.7,890.6,661.5,890.5z"/>
		<path class="st3" d="M768.1,890.5h-4.4c-9.2,0.1-16.7,7.6-16.6,16.9v166.8h37.6V907.4C784.8,898.2,777.4,890.6,768.1,890.5z"/>
		<path class="st3" d="M875.3,890.5h-4.4c-9.2,0.1-16.7,7.6-16.6,16.9v166.8h37.6V907.4C891.9,898.2,884.5,890.6,875.3,890.5z"/>
		<path class="st3" d="M981.9,890.5h-4.4c-9.2,0.1-16.7,7.6-16.6,16.9v166.8h37.6V907.4C998.6,898.2,991.2,890.6,981.9,890.5z"/>
		<path class="st3" d="M1088.6,890.5h-4.4c-9.2,0.1-16.7,7.6-16.6,16.9v166.8h37.6V907.4C1105.3,898.2,1097.8,890.6,1088.6,890.5z"
			/>
		<path class="st3" d="M1195.3,890.5h-4.4c-9.2,0.1-16.7,7.6-16.6,16.9v166.8h37.6V907.4C1211.9,898.2,1204.5,890.6,1195.3,890.5z"
			/>
		<path class="st3" d="M1729.6,890.5h-4.4c-9.2,0.1-16.7,7.6-16.6,16.9v166.8h37.6V907.4C1746.2,898.2,1738.8,890.6,1729.6,890.5z"
			/>
		<path class="st3" d="M1836.2,890.5h-4.4c-9.2,0.1-16.7,7.6-16.6,16.9v166.8h37.6V907.4C1852.9,898.2,1845.4,890.6,1836.2,890.5z"
			/>
		<path class="st3" d="M1942.9,890.5h-4.4c-9.2,0.1-16.7,7.6-16.6,16.9v166.8h37.6V907.4C1959.6,898.2,1952.1,890.6,1942.9,890.5z"
			/>
		<path class="st3" d="M2049.6,890.5h-4.4c-9.2,0.1-16.7,7.6-16.6,16.9v166.8h37.6V907.4C2066.3,898.1,2058.8,890.6,2049.6,890.5z"
			/>
		<path class="st3" d="M21,890.5h-4.4C7.4,890.6,0,898.2,0,907.4v166.8h37.6V907.4C37.7,898.2,30.2,890.6,21,890.5z"/>
	</g>
	<path class="st3" d="M1410,544h4.4c9.2,0,16.8-22.4,16.8-49.7V2.8h-38v491.5C1393.2,521.6,1400.8,544,1410,544z"/>
	<path class="st3" d="M767.7,968.5h-4.4c-9.3,0-16.9,23.9-16.9,53.1v525.3h38.2v-525.3C784.6,992.4,777,968.5,767.7,968.5z"/>
	<path class="st3" d="M1409.5,968.5h-4.4c-9.3,0-16.9,23.9-16.9,53.1v525.3h38.2v-525.3C1426.4,992.4,1418.8,968.5,1409.5,968.5z"/>
	<path class="st3" d="M661.7,542h4.4c9.3,0,16.9-22.3,16.9-49.6V1.8h-38.2v490.6C644.8,519.7,652.4,542,661.7,542z"/>
	<g>
		<path class="st4" d="M1978.4,132c0,0-0.8-26.7,5.1-21.7C1989.5,115.3,1978.4,132,1978.4,132z"/>
		<path class="st4" d="M1976.9,130.3c0,0-19.2-22-19.5-12.5S1976.9,130.3,1976.9,130.3z"/>
		<path class="st5" d="M1961.3,100c-7.4-2.2-16.2-6-16.4-9.4c-0.6-10,26.8,1.4,27,4.3C1972,97.9,1971,102.9,1961.3,100z"/>
		<path class="st5" d="M1963.2,91c0.1-7.7,1.3-17.2,4.4-18.4c9.4-3.4,6.2,26.2,3.4,27.2C1968.2,100.8,1963.1,101.1,1963.2,91z"/>
		<path class="st5" d="M1972.3,89c7.4-2.1,16.9-3.7,18.9-1c6,8-23.3,13.4-25,11S1962.5,91.8,1972.3,89z"/>
		<path class="st5" d="M1976.1,97.4c5.8,5.2,12.1,12.3,10.8,15.5c-3.7,9.3-23.7-12.7-22.6-15.4C1965.5,94.8,1968.6,90.7,1976.1,97.4
			z"/>
		<path class="st5" d="M1969.5,104.7c-5.2,5.7-12.5,11.9-15.6,10.6c-9.3-3.8,13-23.5,15.7-22.4
			C1972.2,94.1,1976.3,97.3,1969.5,104.7z"/>
		<circle class="st6" cx="1968.6" cy="97" r="7.3"/>
		<path class="st7" d="M1968.3,103.2c0,0,5.7,25.2,10.4,30"/>
	</g>
	<g>
		<path class="st7" d="M1506.3,59.8c0,0,5.7,25.2,10.4,30"/>
		<path class="st4" d="M1516.3,88.5c0,0-0.8-26.7,5.1-21.7C1527.4,71.8,1516.3,88.5,1516.3,88.5z"/>
		<path class="st4" d="M1514.8,86.9c0,0-19.2-22-19.5-12.5C1495,84,1514.8,86.9,1514.8,86.9z"/>
		<path class="st5" d="M1499.2,56.6c-7.4-2.2-16.2-6-16.4-9.4c-0.6-10,26.8,1.4,27,4.3S1508.9,59.5,1499.2,56.6z"/>
		<path class="st5" d="M1501.1,47.6c0.1-7.7,1.3-17.2,4.4-18.4c9.4-3.4,6.2,26.2,3.4,27.2S1501,57.7,1501.1,47.6z"/>
		<path class="st5" d="M1510.2,45.6c7.4-2.1,16.9-3.7,18.9-1c6,8-23.3,13.4-25,11S1500.5,48.4,1510.2,45.6z"/>
		<path class="st5" d="M1514.1,54c5.8,5.2,12.1,12.3,10.8,15.5c-3.7,9.3-23.7-12.7-22.6-15.4C1503.4,51.4,1506.5,47.3,1514.1,54z"/>
		<path class="st5" d="M1507.4,61.3c-5.2,5.7-12.5,11.9-15.6,10.6c-9.3-3.8,13-23.5,15.7-22.4C1510.2,50.7,1514.3,53.8,1507.4,61.3z
			"/>
		<circle class="st6" cx="1506.5" cy="53.5" r="7.3"/>
	</g>
	<g>
		<path class="st7" d="M1695.9,310.7c0,0,5.7,25.2,10.4,30"/>
		<path class="st4" d="M1705.9,339.4c0,0-0.8-26.7,5.1-21.7C1717,322.7,1705.9,339.4,1705.9,339.4z"/>
		<path class="st4" d="M1704.4,337.8c0,0-19.2-22-19.5-12.5C1684.7,334.8,1704.4,337.8,1704.4,337.8z"/>
		<path class="st5" d="M1688.9,307.5c-7.4-2.2-16.2-6-16.4-9.4c-0.6-10,26.8,1.4,27,4.3C1699.6,305.4,1698.6,310.4,1688.9,307.5z"/>
		<path class="st5" d="M1690.7,298.5c0.1-7.7,1.3-17.2,4.4-18.4c9.4-3.4,6.2,26.2,3.4,27.2S1690.6,308.6,1690.7,298.5z"/>
		<path class="st5" d="M1699.8,296.5c7.4-2.1,16.9-3.7,18.9-1c6,8-23.3,13.4-25,11C1691.9,304.1,1690.1,299.3,1699.8,296.5z"/>
		<path class="st5" d="M1703.7,304.9c5.8,5.2,12.1,12.3,10.8,15.5c-3.7,9.3-23.7-12.7-22.6-15.4S1696.1,298.2,1703.7,304.9z"/>
		<path class="st5" d="M1697,312.2c-5.2,5.7-12.5,11.9-15.6,10.6c-9.3-3.8,13-23.5,15.7-22.4C1699.8,301.6,1703.9,304.8,1697,312.2z
			"/>
		<circle class="st6" cx="1696.1" cy="304.5" r="7.3"/>
	</g>
	<g>
		<path class="st7" d="M1306.2,260.8c0,0,5.7,25.2,10.4,30"/>
		<path class="st4" d="M1316.3,289.6c0,0-0.8-26.7,5.1-21.7C1327.3,272.8,1316.3,289.6,1316.3,289.6z"/>
		<path class="st4" d="M1314.8,287.9c0,0-19.2-22-19.5-12.5S1314.8,287.9,1314.8,287.9z"/>
		<path class="st5" d="M1299.2,257.6c-7.4-2.2-16.2-6-16.4-9.4c-0.6-10,26.8,1.4,27,4.3C1309.9,255.5,1308.9,260.5,1299.2,257.6z"/>
		<path class="st5" d="M1301.1,248.6c0.1-7.7,1.3-17.2,4.4-18.4c9.4-3.4,6.2,26.2,3.4,27.2S1301,258.7,1301.1,248.6z"/>
		<path class="st5" d="M1310.2,246.6c7.4-2.1,16.9-3.7,18.9-1c6,8-23.3,13.4-25,11C1302.3,254.2,1300.4,249.4,1310.2,246.6z"/>
		<path class="st5" d="M1314,255c5.8,5.2,12.1,12.3,10.8,15.5c-3.7,9.3-23.7-12.7-22.6-15.4S1306.5,248.3,1314,255z"/>
		<path class="st5" d="M1307.4,262.3c-5.2,5.7-12.5,11.9-15.6,10.6c-9.3-3.8,13-23.5,15.7-22.4
			C1310.1,251.7,1314.2,254.9,1307.4,262.3z"/>
		<circle class="st6" cx="1306.5" cy="254.6" r="7.3"/>
	</g>
	<g>
		<path class="st7" d="M766.2,91.9c0,0,5.7,25.2,10.4,30"/>
		<path class="st4" d="M776.2,120.7c0,0-0.8-26.7,5.1-21.7C787.3,103.9,776.2,120.7,776.2,120.7z"/>
		<path class="st4" d="M774.7,119c0,0-19.2-22-19.5-12.5S774.7,119,774.7,119z"/>
		<path class="st5" d="M759.2,88.7c-7.4-2.2-16.2-6-16.4-9.4c-0.6-10,26.8,1.4,27,4.3C769.9,86.6,768.9,91.6,759.2,88.7z"/>
		<path class="st5" d="M761,79.7c0.1-7.7,1.3-17.2,4.4-18.4c9.4-3.4,6.2,26.2,3.4,27.2C766.1,89.5,760.9,89.8,761,79.7z"/>
		<path class="st5" d="M770.1,77.7c7.4-2.1,16.9-3.7,18.9-1c6,8-23.3,13.4-25,11C762.3,85.3,760.4,80.5,770.1,77.7z"/>
		<path class="st5" d="M774,86.1c5.8,5.2,12.1,12.3,10.8,15.5c-3.7,9.3-23.7-12.7-22.6-15.4C763.4,83.5,766.5,79.4,774,86.1z"/>
		<path class="st5" d="M767.3,93.4c-5.2,5.7-12.5,11.9-15.6,10.6c-9.3-3.8,13-23.5,15.7-22.4S774.2,86,767.3,93.4z"/>
		<circle class="st6" cx="766.5" cy="85.7" r="7.3"/>
	</g>
	<g>
		<path class="st7" d="M1091.4,30.8c0,0,5.7,25.2,10.4,30"/>
		<path class="st4" d="M1101.4,59.6c0,0-0.8-26.7,5.1-21.7C1112.5,42.9,1101.4,59.6,1101.4,59.6z"/>
		<path class="st4" d="M1099.9,58c0,0-19.2-22-19.5-12.5S1099.9,58,1099.9,58z"/>
		<path class="st5" d="M1084.4,27.7c-7.4-2.2-16.2-6-16.4-9.4c-0.6-10,26.8,1.4,27,4.3S1094,30.6,1084.4,27.7z"/>
		<path class="st5" d="M1086.2,18.6c0.1-7.7,1.3-17.2,4.4-18.4c9.4-3.4,6.2,26.2,3.4,27.2S1086.1,28.8,1086.2,18.6z"/>
		<path class="st5" d="M1095.3,16.6c7.4-2.1,16.9-3.7,18.9-1c6,8-23.3,13.4-25,11S1085.6,19.4,1095.3,16.6z"/>
		<path class="st5" d="M1099.2,25.1c5.8,5.2,12.1,12.3,10.8,15.5c-3.7,9.3-23.7-12.7-22.6-15.4S1091.7,18.3,1099.2,25.1z"/>
		<path class="st5" d="M1092.5,32.4c-5.2,5.7-12.5,11.9-15.6,10.6c-9.3-3.8,13-23.5,15.7-22.4C1095.3,21.8,1099.4,24.9,1092.5,32.4z
			"/>
		<circle class="st6" cx="1091.7" cy="24.6" r="7.3"/>
	</g>
	<g>
		<path class="st7" d="M937.4,374.3c0,0,5.7,25.2,10.4,30"/>
		<path class="st4" d="M947.4,403.1c0,0-0.8-26.7,5.1-21.7C958.5,386.4,947.4,403.1,947.4,403.1z"/>
		<path class="st4" d="M945.9,401.4c0,0-19.2-22-19.4-12.5C926.2,398.5,945.9,401.4,945.9,401.4z"/>
		<path class="st5" d="M930.3,371.1c-7.4-2.2-16.2-6-16.4-9.4c-0.6-10,26.8,1.4,27,4.3C941.1,369,940,374,930.3,371.1z"/>
		<path class="st5" d="M932.2,362.1c0.1-7.7,1.3-17.2,4.4-18.4c9.4-3.4,6.2,26.2,3.4,27.2S932.1,372.2,932.2,362.1z"/>
		<path class="st5" d="M941.3,360.1c7.4-2.1,16.9-3.7,18.9-1c6,8-23.3,13.4-25,11C933.4,367.7,931.6,362.9,941.3,360.1z"/>
		<path class="st5" d="M945.2,368.5c5.8,5.2,12.1,12.3,10.8,15.5c-3.7,9.3-23.7-12.7-22.6-15.4C934.5,365.9,937.6,361.8,945.2,368.5
			z"/>
		<path class="st5" d="M938.5,375.8c-5.2,5.7-12.5,11.9-15.6,10.6c-9.3-3.8,13-23.5,15.7-22.4S945.4,368.4,938.5,375.8z"/>
		<circle class="st6" cx="937.6" cy="368.1" r="7.3"/>
	</g>
	<g>
		<path class="st7" d="M446.2,312.8c0,0,5.7,25.2,10.4,30"/>
		<path class="st4" d="M456.2,341.6c0,0-0.8-26.7,5.1-21.7C467.3,324.9,456.2,341.6,456.2,341.6z"/>
		<path class="st4" d="M454.7,340c0,0-19.1-22.1-19.4-12.5C434.9,337,454.7,340,454.7,340z"/>
		<path class="st5" d="M439.2,309.7c-7.4-2.2-16.2-6-16.4-9.4c-0.6-10,26.8,1.4,27,4.3C449.9,307.5,448.9,312.6,439.2,309.7z"/>
		<path class="st5" d="M441,300.6c0.1-7.7,1.3-17.2,4.4-18.4c9.4-3.4,6.2,26.2,3.4,27.2C446.1,310.4,440.9,310.8,441,300.6z"/>
		<path class="st5" d="M450.1,298.6c7.4-2.1,16.9-3.7,18.9-1c6,8-23.3,13.4-25,11S440.4,301.4,450.1,298.6z"/>
		<path class="st5" d="M454,307.1c5.8,5.2,12.1,12.3,10.8,15.5c-3.7,9.3-23.7-12.7-22.6-15.4S446.5,300.3,454,307.1z"/>
		<path class="st5" d="M447.3,314.3c-5.2,5.7-12.5,11.9-15.6,10.6c-9.3-3.8,13-23.5,15.7-22.4C450.1,303.7,454.2,306.9,447.3,314.3z
			"/>
		<circle class="st6" cx="446.5" cy="306.6" r="7.3"/>
	</g>
	<g>
		<path class="st7" d="M120.1,66.6c0,0-5.7,25.2-10.4,29.9"/>
		<path class="st4" d="M110,95.4c0,0,0.8-26.7-5.1-21.7S110,95.4,110,95.4z"/>
		<path class="st4" d="M111.5,93.8c0,0,19.2-22,19.5-12.5S111.5,93.8,111.5,93.8z"/>
		<path class="st5" d="M127.1,63.5c7.4-2.2,16.2-6,16.4-9.4c0.6-10-26.8,1.4-27,4.3S117.4,66.4,127.1,63.5z"/>
		<path class="st5" d="M125.3,54.4c-0.1-7.7-1.3-17.2-4.4-18.4c-9.4-3.4-6.2,26.2-3.4,27.2C120.2,64.2,125.3,64.6,125.3,54.4z"/>
		<path class="st5" d="M116.1,52.4c-7.4-2.1-16.9-3.7-18.9-1c-6,8,23.3,13.4,25,11S125.9,55.2,116.1,52.4z"/>
		<path class="st5" d="M112.3,60.9c-5.8,5.2-12.1,12.3-10.8,15.5c3.7,9.3,23.7-12.7,22.6-15.4C122.9,58.2,119.8,54.1,112.3,60.9z"/>
		<path class="st5" d="M118.9,68.2c5.2,5.7,12.5,11.9,15.6,10.6c9.3-3.8-13-23.5-15.7-22.4C116.2,57.6,112.1,60.7,118.9,68.2z"/>
		<circle class="st6" cx="119.8" cy="60.4" r="7.3"/>
	</g>
	<g>
		<path class="st7" d="M562.4,75.4c0,0,5.7,25.2,10.4,30"/>
		<path class="st4" d="M572.4,104.2c0,0-0.8-26.7,5.1-21.7C583.5,87.5,572.4,104.2,572.4,104.2z"/>
		<path class="st4" d="M570.9,102.6c0,0-19.2-22-19.5-12.5C551.2,99.6,570.9,102.6,570.9,102.6z"/>
		<path class="st5" d="M555.4,72.2c-7.4-2.2-16.2-6-16.4-9.4c-0.6-10,26.8,1.4,27,4.3C566.1,70.1,565.1,75.1,555.4,72.2z"/>
		<path class="st5" d="M557.2,63.2c0.1-7.7,1.3-17.2,4.4-18.4C571,41.4,567.8,71,565,72C562.3,73,557.2,73.3,557.2,63.2z"/>
		<path class="st5" d="M566.3,61.2c7.4-2.1,16.9-3.7,18.9-1c6,8-23.3,13.4-25,11C558.5,68.8,556.6,64,566.3,61.2z"/>
		<path class="st5" d="M570.2,69.7C576,74.9,582.3,82,581,85.2c-3.7,9.3-23.7-12.7-22.6-15.4C559.6,67,562.7,62.9,570.2,69.7z"/>
		<path class="st5" d="M563.6,76.9c-5.3,5.7-12.5,11.9-15.6,10.6c-9.3-3.8,13-23.5,15.7-22.4C566.3,66.3,570.4,69.5,563.6,76.9z"/>
		<circle class="st6" cx="562.7" cy="69.2" r="7.3"/>
	</g>
	<g>
		<path class="st7" d="M510.2,1213.4c0,0,5.7,25.2,10.4,30"/>
		<path class="st4" d="M520.3,1242.2c0,0-0.8-26.7,5.1-21.7C531.3,1225.5,520.3,1242.2,520.3,1242.2z"/>
		<path class="st4" d="M518.7,1240.5c0,0-19.2-22-19.5-12.5C499,1237.5,518.7,1240.5,518.7,1240.5z"/>
		<path class="st5" d="M503.2,1210.2c-7.4-2.2-16.2-6-16.4-9.4c-0.6-10,26.8,1.4,27,4.3C513.9,1208.1,512.9,1213.2,503.2,1210.2z"/>
		<path class="st5" d="M505,1201.2c0.1-7.7,1.3-17.2,4.4-18.4c9.4-3.4,6.2,26.2,3.4,27.2C510.1,1211,505,1211.3,505,1201.2z"/>
		<path class="st5" d="M514.1,1199.2c7.4-2.1,16.9-3.7,18.9-1c6,8-23.3,13.4-25,11C506.3,1206.8,504.4,1202,514.1,1199.2z"/>
		<path class="st5" d="M518.1,1207.6c5.8,5.2,12.1,12.3,10.8,15.5c-3.7,9.3-23.7-12.7-22.6-15.4
			C507.4,1205,510.5,1200.9,518.1,1207.6z"/>
		<path class="st5" d="M511.4,1214.9c-5.2,5.7-12.5,11.9-15.6,10.6c-9.3-3.8,13-23.5,15.7-22.4
			C514.1,1204.3,518.2,1207.5,511.4,1214.9z"/>
		<circle class="st6" cx="510.5" cy="1207.2" r="7.3"/>
	</g>
	<g>
		<path class="st7" d="M386.6,1510.2c0,0,5.7,25.2,10.4,30"/>
		<path class="st4" d="M396.6,1538.9c0,0-0.8-26.7,5.1-21.7C407.7,1522.2,396.6,1538.9,396.6,1538.9z"/>
		<path class="st4" d="M395.1,1537.3c0,0-19.2-22-19.5-12.5C375.3,1534.3,395.1,1537.3,395.1,1537.3z"/>
		<path class="st5" d="M379.5,1507c-7.4-2.2-16.2-6-16.4-9.4c-0.6-10,26.8,1.4,27,4.3C390.3,1504.9,389.2,1509.9,379.5,1507z"/>
		<path class="st5" d="M381.4,1498c0.1-7.7,1.3-17.2,4.4-18.4c9.4-3.4,6.2,26.2,3.4,27.2S381.3,1508.1,381.4,1498z"/>
		<path class="st5" d="M390.5,1496c7.4-2.1,16.9-3.7,18.9-1c6,8-23.3,13.4-25,11C382.6,1503.6,380.8,1498.8,390.5,1496z"/>
		<path class="st5" d="M394.4,1504.4c5.8,5.2,12.1,12.3,10.8,15.5c-3.7,9.3-23.7-12.7-22.6-15.4
			C383.8,1501.8,386.8,1497.6,394.4,1504.4z"/>
		<path class="st5" d="M387.7,1511.7c-5.2,5.7-12.5,11.9-15.6,10.6c-9.3-3.8,13-23.5,15.7-22.4
			C390.5,1501.1,394.6,1504.2,387.7,1511.7z"/>
		<circle class="st6" cx="386.8" cy="1503.9" r="7.3"/>
	</g>
	<g>
		<path class="st7" d="M117,1382.2c0,0-5.7,25.2-10.4,30"/>
		<path class="st4" d="M106.9,1411c0,0,0.8-26.7-5.1-21.7C95.8,1394.3,106.9,1411,106.9,1411z"/>
		<path class="st4" d="M108.4,1409.3c0,0,19.2-22,19.5-12.5S108.4,1409.3,108.4,1409.3z"/>
		<path class="st5" d="M124,1379c7.4-2.2,16.2-6,16.4-9.4c0.6-10-26.8,1.4-27,4.3C113.2,1376.9,114.3,1381.9,124,1379z"/>
		<path class="st5" d="M122.1,1370c-0.1-7.7-1.3-17.2-4.4-18.4c-9.4-3.4-6.2,26.2-3.4,27.2C117.1,1379.8,122.2,1380.2,122.1,1370z"
			/>
		<path class="st5" d="M113,1368c-7.4-2.1-16.9-3.7-18.9-1c-6,8,23.3,13.4,25,11C120.9,1375.6,122.7,1370.8,113,1368z"/>
		<path class="st5" d="M109.2,1376.4c-5.8,5.2-12.1,12.3-10.8,15.5c3.7,9.3,23.7-12.7,22.6-15.4
			C119.8,1373.8,116.7,1369.7,109.2,1376.4z"/>
		<path class="st5" d="M115.8,1383.7c5.2,5.7,12.5,11.9,15.6,10.6c9.3-3.8-13-23.5-15.7-22.4C113,1373.1,109,1376.3,115.8,1383.7z"
			/>
		<circle class="st6" cx="116.7" cy="1376" r="7.3"/>
	</g>
	<g>
		<path class="st7" d="M189.7,1138.6c0,0,5.7,25.2,10.4,30"/>
		<path class="st4" d="M199.8,1167.4c0,0-0.8-26.7,5.1-21.7C210.9,1150.7,199.8,1167.4,199.8,1167.4z"/>
		<path class="st4" d="M198.3,1165.8c0,0-19.2-22-19.5-12.5C178.6,1162.7,198.3,1165.8,198.3,1165.8z"/>
		<path class="st5" d="M182.7,1135.4c-7.4-2.2-16.2-6-16.4-9.4c-0.6-10,26.8,1.4,27,4.3C193.5,1133.3,192.4,1138.3,182.7,1135.4z"/>
		<path class="st5" d="M184.6,1126.4c0.1-7.7,1.3-17.2,4.4-18.4c9.4-3.4,6.2,26.2,3.4,27.2C189.6,1136.2,184.5,1136.5,184.6,1126.4z
			"/>
		<path class="st5" d="M193.7,1124.4c7.4-2.1,16.9-3.7,18.9-1c6,8-23.3,13.4-25,11C185.8,1132,183.9,1127.2,193.7,1124.4z"/>
		<path class="st5" d="M197.5,1132.8c5.8,5.2,12.1,12.3,10.8,15.5c-3.7,9.3-23.7-12.7-22.6-15.4
			C186.9,1130.2,190,1126.1,197.5,1132.8z"/>
		<path class="st5" d="M190.9,1140.1c-5.2,5.7-12.5,11.9-15.6,10.6c-9.3-3.8,13-23.5,15.7-22.4
			C193.7,1129.5,197.7,1132.7,190.9,1140.1z"/>
		<circle class="st6" cx="190" cy="1132.4" r="7.3"/>
	</g>
	<g>
		<path class="st7" d="M830.7,1248.4c0,0,5.7,25.2,10.4,30"/>
		<path class="st4" d="M840.7,1277.1c0,0-0.8-26.7,5.1-21.7C851.8,1260.4,840.7,1277.1,840.7,1277.1z"/>
		<path class="st4" d="M839.2,1275.5c0,0-19.2-22-19.5-12.5C819.5,1272.6,839.2,1275.5,839.2,1275.5z"/>
		<path class="st5" d="M823.7,1245.2c-7.4-2.2-16.2-6-16.4-9.4c-0.6-10,26.8,1.4,27,4.3C834.4,1243,833.4,1248.1,823.7,1245.2z"/>
		<path class="st5" d="M825.5,1236.1c0.1-7.7,1.3-17.2,4.4-18.4c9.4-3.4,6.2,26.2,3.4,27.2S825.4,1246.3,825.5,1236.1z"/>
		<path class="st5" d="M834.6,1234.1c7.4-2.1,16.9-3.7,18.9-1c6,8-23.3,13.4-25,11C826.8,1241.8,824.9,1237,834.6,1234.1z"/>
		<path class="st5" d="M838.5,1242.6c5.8,5.2,12.1,12.3,10.8,15.5c-3.7,9.3-23.7-12.7-22.6-15.4
			C827.9,1239.9,831,1235.8,838.5,1242.6z"/>
		<path class="st5" d="M831.8,1249.9c-5.2,5.7-12.5,11.9-15.6,10.6c-9.3-3.8,13-23.5,15.7-22.4S838.7,1242.4,831.8,1249.9z"/>
		<circle class="st6" cx="831" cy="1242.1" r="7.3"/>
	</g>
	<g>
		<path class="st7" d="M1300.2,1493.7c0,0,5.7,25.2,10.4,30"/>
		<path class="st4" d="M1310.2,1522.5c0,0-0.8-26.7,5.1-21.7C1321.3,1505.8,1310.2,1522.5,1310.2,1522.5z"/>
		<path class="st4" d="M1308.7,1520.8c0,0-19.2-22-19.5-12.5S1308.7,1520.8,1308.7,1520.8z"/>
		<path class="st5" d="M1293.1,1490.5c-7.4-2.2-16.2-6-16.4-9.4c-0.6-10,26.8,1.4,27,4.3C1303.9,1488.4,1302.8,1493.4,1293.1,1490.5
			z"/>
		<path class="st5" d="M1295,1481.5c0.1-7.7,1.3-17.2,4.4-18.4c9.4-3.4,6.2,26.2,3.4,27.2C1300,1491.3,1294.9,1491.6,1295,1481.5z"
			/>
		<path class="st5" d="M1304.1,1479.5c7.4-2.1,16.9-3.7,18.9-1c6,8-23.3,13.4-25,11C1296.2,1487.1,1294.4,1482.3,1304.1,1479.5z"/>
		<path class="st5" d="M1308,1487.9c5.8,5.2,12.1,12.3,10.8,15.5c-3.7,9.3-23.7-12.7-22.6-15.4S1300.4,1481.2,1308,1487.9z"/>
		<path class="st5" d="M1301.3,1495.2c-5.2,5.7-12.5,11.9-15.6,10.6c-9.3-3.8,13-23.5,15.7-22.4
			C1304.1,1484.6,1308.2,1487.8,1301.3,1495.2z"/>
		<circle class="st6" cx="1300.4" cy="1487.5" r="7.3"/>
	</g>
	<g>
		<path class="st7" d="M1018.6,1490.2c0,0-5.7,25.2-10.4,30"/>
		<path class="st4" d="M1008.6,1519c0,0,0.8-26.7-5.1-21.7S1008.6,1519,1008.6,1519z"/>
		<path class="st4" d="M1010.1,1517.4c0,0,19.2-22,19.5-12.5C1029.8,1514.4,1010.1,1517.4,1010.1,1517.4z"/>
		<path class="st5" d="M1025.7,1487.1c7.4-2.2,16.2-6,16.4-9.4c0.6-10-26.8,1.4-27,4.3C1014.9,1484.9,1015.9,1490,1025.7,1487.1z"/>
		<path class="st5" d="M1023.8,1478c-0.1-7.7-1.3-17.2-4.4-18.4c-9.4-3.4-6.2,26.2-3.4,27.2S1023.9,1488.2,1023.8,1478z"/>
		<path class="st5" d="M1014.7,1476c-7.4-2.1-16.9-3.7-18.9-1c-6,8,23.3,13.4,25,11C1022.5,1483.6,1024.4,1478.9,1014.7,1476z"/>
		<path class="st5" d="M1010.8,1484.5c-5.8,5.2-12.1,12.3-10.8,15.5c3.7,9.3,23.7-12.7,22.6-15.4
			C1021.4,1481.8,1018.3,1477.7,1010.8,1484.5z"/>
		<path class="st5" d="M1017.5,1491.8c5.2,5.7,12.5,11.9,15.6,10.6c9.3-3.8-13-23.5-15.7-22.4
			C1014.7,1481.2,1010.6,1484.3,1017.5,1491.8z"/>
		<circle class="st6" cx="1018.3" cy="1484" r="7.3"/>
	</g>
	<g>
		<path class="st7" d="M1253.1,1183c0,0,5.7,25.2,10.4,30"/>
		<path class="st4" d="M1263.2,1211.8c0,0-0.8-26.7,5.1-21.7C1274.3,1195.1,1263.2,1211.8,1263.2,1211.8z"/>
		<path class="st4" d="M1261.7,1210.2c0,0-19.2-22-19.5-12.5C1241.9,1207.2,1261.7,1210.2,1261.7,1210.2z"/>
		<path class="st5" d="M1246.1,1179.8c-7.4-2.2-16.2-6-16.4-9.4c-0.6-10,26.8,1.4,27,4.3C1256.8,1177.7,1255.8,1182.7,1246.1,1179.8
			z"/>
		<path class="st5" d="M1248,1170.8c0.1-7.7,1.3-17.2,4.4-18.4c9.4-3.4,6.2,26.2,3.4,27.2C1253,1180.6,1247.9,1180.9,1248,1170.8z"
			/>
		<path class="st5" d="M1257.1,1168.8c7.4-2.1,16.9-3.7,18.9-1c6,8-23.3,13.4-25,11C1249.2,1176.4,1247.4,1171.6,1257.1,1168.8z"/>
		<path class="st5" d="M1260.9,1177.2c5.8,5.2,12.1,12.3,10.8,15.5c-3.7,9.3-23.7-12.7-22.6-15.4
			C1250.3,1174.6,1253.4,1170.5,1260.9,1177.2z"/>
		<path class="st5" d="M1254.3,1184.5c-5.2,5.7-12.5,11.9-15.6,10.6c-9.3-3.8,13-23.5,15.7-22.4
			C1257.1,1173.9,1261.1,1177.1,1254.3,1184.5z"/>
		<circle class="st6" cx="1253.4" cy="1176.8" r="7.3"/>
	</g>
	<g>
		<path class="st7" d="M2031.8,1410.9c0,0,5.7,25.2,10.4,30"/>
		<path class="st4" d="M2041.8,1439.6c0,0-0.8-26.7,5.1-21.7C2052.9,1422.9,2041.8,1439.6,2041.8,1439.6z"/>
		<path class="st4" d="M2040.3,1438c0,0-19.2-22-19.5-12.5C2020.6,1435,2040.3,1438,2040.3,1438z"/>
		<path class="st5" d="M2024.8,1407.7c-7.4-2.2-16.2-6-16.4-9.4c-0.6-10,26.8,1.4,27,4.3C2035.5,1405.5,2034.4,1410.6,2024.8,1407.7
			z"/>
		<path class="st5" d="M2026.6,1398.7c0.1-7.7,1.3-17.2,4.4-18.4c9.4-3.4,6.2,26.2,3.4,27.2
			C2031.7,1408.5,2026.5,1408.8,2026.6,1398.7z"/>
		<path class="st5" d="M2035.7,1396.7c7.4-2.1,16.9-3.7,18.9-1c6,8-23.3,13.4-25,11C2027.8,1404.3,2026,1399.5,2035.7,1396.7z"/>
		<path class="st5" d="M2039.6,1405.1c5.8,5.2,12.1,12.3,10.8,15.5c-3.7,9.3-23.7-12.7-22.6-15.4
			C2029,1402.5,2032,1398.3,2039.6,1405.1z"/>
		<path class="st5" d="M2032.9,1412.3c-5.2,5.7-12.5,11.9-15.6,10.6c-9.3-3.8,13-23.5,15.7-22.4
			C2035.7,1401.7,2039.8,1404.9,2032.9,1412.3z"/>
		<circle class="st6" cx="2032.1" cy="1404.6" r="7.3"/>
	</g>
	<g>
		<path class="st7" d="M1513.5,1252.2c0,0,5.7,25.2,10.4,30"/>
		<path class="st4" d="M1523.5,1281c0,0-0.8-26.7,5.1-21.7C1534.6,1264.3,1523.5,1281,1523.5,1281z"/>
		<path class="st4" d="M1522,1279.4c0,0-19.2-22-19.5-12.5S1522,1279.4,1522,1279.4z"/>
		<path class="st5" d="M1506.5,1249.1c-7.4-2.2-16.2-6-16.4-9.4c-0.6-10,26.8,1.4,27,4.3C1517.2,1246.9,1516.2,1252,1506.5,1249.1z"
			/>
		<path class="st5" d="M1508.3,1240c0.1-7.7,1.3-17.2,4.4-18.4c9.4-3.4,6.2,26.2,3.4,27.2C1513.4,1249.8,1508.2,1250.2,1508.3,1240z
			"/>
		<path class="st5" d="M1517.4,1238c7.4-2.1,16.9-3.7,18.9-1c6,8-23.3,13.4-25,11C1509.6,1245.7,1507.7,1240.8,1517.4,1238z"/>
		<path class="st5" d="M1521.3,1246.5c5.8,5.2,12.1,12.3,10.8,15.5c-3.7,9.3-23.7-12.7-22.6-15.4
			C1510.7,1243.8,1513.8,1239.7,1521.3,1246.5z"/>
		<path class="st5" d="M1514.6,1253.8c-5.2,5.7-12.5,11.9-15.6,10.6c-9.3-3.8,13-23.5,15.7-22.4
			C1517.4,1243.2,1521.5,1246.3,1514.6,1253.8z"/>
		<circle class="st6" cx="1513.8" cy="1246" r="7.3"/>
	</g>
	<g>
		<path class="st7" d="M1715.1,1494.1c0,0,5.7,25.2,10.4,30"/>
		<path class="st4" d="M1725.2,1522.9c0,0-0.8-26.7,5.1-21.7C1736.3,1506.2,1725.2,1522.9,1725.2,1522.9z"/>
		<path class="st4" d="M1723.7,1521.3c0,0-19.2-22-19.5-12.5S1723.7,1521.3,1723.7,1521.3z"/>
		<path class="st5" d="M1708.1,1491c-7.4-2.2-16.2-6-16.4-9.4c-0.6-10,26.8,1.4,27,4.3C1718.8,1488.8,1717.8,1493.8,1708.1,1491z"/>
		<path class="st5" d="M1710,1481.9c0.1-7.7,1.3-17.2,4.4-18.4c9.4-3.4,6.2,26.2,3.4,27.2S1709.9,1492.1,1710,1481.9z"/>
		<path class="st5" d="M1719.1,1479.9c7.4-2.1,16.9-3.7,18.9-1c6,8-23.3,13.4-25,11C1711.2,1487.5,1709.3,1482.8,1719.1,1479.9z"/>
		<path class="st5" d="M1722.9,1488.4c5.8,5.2,12.1,12.3,10.8,15.5c-3.7,9.3-23.7-12.7-22.6-15.4
			C1712.3,1485.7,1715.4,1481.6,1722.9,1488.4z"/>
		<path class="st5" d="M1716.3,1495.7c-5.2,5.7-12.5,11.9-15.6,10.6c-9.3-3.8,13-23.5,15.7-22.4
			C1719.1,1485,1723.2,1488.2,1716.3,1495.7z"/>
		<circle class="st6" cx="1715.4" cy="1487.9" r="7.3"/>
	</g>
	<g>
		<path class="st7" d="M1898.3,1179.8c0,0,5.7,25.2,10.4,30"/>
		<path class="st4" d="M1908.4,1208.6c0,0-0.8-26.7,5.1-21.7S1908.4,1208.6,1908.4,1208.6z"/>
		<path class="st4" d="M1906.9,1206.9c0,0-19.2-22-19.5-12.5S1906.9,1206.9,1906.9,1206.9z"/>
		<path class="st5" d="M1891.3,1176.6c-7.4-2.2-16.2-6-16.4-9.4c-0.6-10,26.8,1.4,27,4.3C1902,1174.5,1901,1179.5,1891.3,1176.6z"/>
		<path class="st5" d="M1893.2,1167.6c0.1-7.7,1.3-17.2,4.4-18.4c9.4-3.4,6.2,26.2,3.4,27.2S1893.1,1177.7,1893.2,1167.6z"/>
		<path class="st5" d="M1902.2,1165.6c7.4-2.1,16.9-3.7,18.9-1c6,8-23.3,13.4-25,11S1892.5,1168.4,1902.2,1165.6z"/>
		<path class="st5" d="M1906.1,1174c5.8,5.2,12.1,12.3,10.8,15.5c-3.7,9.3-23.7-12.7-22.6-15.4
			C1895.5,1171.4,1898.6,1167.3,1906.1,1174z"/>
		<path class="st5" d="M1899.5,1181.3c-5.2,5.7-12.5,11.9-15.6,10.6c-9.3-3.8,13-23.5,15.7-22.4
			C1902.2,1170.7,1906.3,1173.9,1899.5,1181.3z"/>
		<circle class="st6" cx="1898.6" cy="1173.6" r="7.3"/>
	</g>
	<g>
		<path class="st7" d="M182.6,389.7c0,0,5.7,25.2,10.4,30"/>
		<path class="st4" d="M192.6,418.5c0,0-0.8-26.7,5.1-21.7C203.7,401.8,192.6,418.5,192.6,418.5z"/>
		<path class="st4" d="M191.1,416.9c0,0-19.2-22-19.5-12.5C171.4,413.9,191.1,416.9,191.1,416.9z"/>
		<path class="st5" d="M175.6,386.5c-7.4-2.2-16.2-6-16.4-9.4c-0.6-10,26.8,1.4,27,4.3C186.3,384.4,185.3,389.5,175.6,386.5z"/>
		<path class="st5" d="M177.4,377.5c0.1-7.7,1.3-17.2,4.4-18.4c9.4-3.4,6.2,26.2,3.4,27.2S177.3,387.6,177.4,377.5z"/>
		<path class="st5" d="M186.5,375.5c7.4-2.1,16.9-3.7,18.9-1c6,8-23.3,13.4-25,11S176.8,378.3,186.5,375.5z"/>
		<path class="st5" d="M190.4,383.9c5.8,5.2,12.1,12.3,10.8,15.5c-3.7,9.3-23.7-12.7-22.6-15.4C179.8,381.3,182.9,377.2,190.4,383.9
			z"/>
		<path class="st5" d="M183.7,391.2c-5.2,5.7-12.5,11.9-15.6,10.6c-9.3-3.8,13-23.5,15.7-22.4C186.5,380.6,190.6,383.8,183.7,391.2z
			"/>
		<circle class="st6" cx="182.9" cy="383.5" r="7.3"/>
	</g>
	<g>
		<path class="st2" d="M90.4,429.5c-30.5,0-59.5,0.4-85.4,1.2V456c26,0.8,54.9,1.2,85.4,1.2H2070v-27.6H90.4V429.5z"/>
		<path class="st2" d="M90.4,505.7c-30.5,0-59.5,0.4-85.4,1.2v25.2c26,0.8,54.9,1.2,85.4,1.2H2070v-27.6L90.4,505.7L90.4,505.7z"/>
		<path class="st3" d="M26,394.1h-4.4C12.4,394.2,5,401.8,5,411v166.8h37.6V411C42.7,401.8,35.3,394.2,26,394.1z"/>
		<path class="st3" d="M132.7,394.1h-4.4c-9.3,0.1-16.7,7.6-16.7,16.9v166.8h37.6V411C149.3,401.8,141.9,394.2,132.7,394.1z"/>
		<path class="st3" d="M239.3,394.1H235c-9.2,0.1-16.7,7.6-16.6,16.9v166.8H256V411C256,401.8,248.6,394.2,239.3,394.1z"/>
		<path class="st3" d="M346,394.1h-4.4c-9.2,0.1-16.7,7.6-16.6,16.9v166.8h37.6V411C362.7,401.8,355.3,394.2,346,394.1z"/>
		<path class="st3" d="M1307.4,394.1h-4.4c-9.2,0.1-16.7,7.6-16.6,16.9v166.8h37.6V411C1324.1,401.8,1316.7,394.2,1307.4,394.1z"/>
		<path class="st3" d="M1414.1,394.1h-4.4c-9.2,0.1-16.7,7.6-16.6,16.9v166.8h37.6V411C1430.8,401.8,1423.3,394.2,1414.1,394.1z"/>
		<path class="st3" d="M1520.8,394.1h-4.4c-9.2,0.1-16.7,7.6-16.6,16.9v166.8h37.6V411C1537.4,401.8,1530,394.2,1520.8,394.1z"/>
		<path class="st3" d="M1627.4,394.1h-4.4c-9.2,0.1-16.6,7.6-16.6,16.9v166.8h37.6V411C1644.1,401.7,1636.7,394.2,1627.4,394.1z"/>
		<path class="st3" d="M453.2,394.1h-4.4c-9.2,0.1-16.7,7.6-16.6,16.9v166.8h37.6V411C469.8,401.8,462.4,394.2,453.2,394.1z"/>
		<path class="st3" d="M559.8,394.1h-4.4c-9.2,0.1-16.7,7.6-16.6,16.9v166.8h37.6V411C576.4,401.8,569,394.2,559.8,394.1z"/>
		<path class="st3" d="M666.5,394.1h-4.4c-9.2,0.1-16.7,7.6-16.6,16.9v166.8h37.6V411C683.2,401.8,675.7,394.2,666.5,394.1z"/>
		<path class="st3" d="M773.2,394.1h-4.4c-9.2,0.1-16.7,7.6-16.6,16.9v166.8h37.6V411C789.8,401.8,782.4,394.2,773.2,394.1z"/>
		<path class="st3" d="M880.3,394.1h-4.4c-9.2,0.1-16.7,7.6-16.6,16.9v166.8h37.6V411C897,401.8,889.5,394.2,880.3,394.1z"/>
		<path class="st3" d="M987,394.1h-4.4c-9.2,0.1-16.7,7.6-16.6,16.9v166.8h37.6V411C1003.6,401.8,996.2,394.2,987,394.1z"/>
		<path class="st3" d="M1093.6,394.1h-4.4c-9.2,0.1-16.7,7.6-16.6,16.9v166.8h37.6V411C1110.3,401.8,1102.9,394.2,1093.6,394.1z"/>
		<path class="st3" d="M1200.3,394.1h-4.4c-9.2,0.1-16.7,7.6-16.6,16.9v166.8h37.6V411C1217,401.8,1209.5,394.2,1200.3,394.1z"/>
		<path class="st3" d="M1734.6,394.1h-4.4c-9.2,0.1-16.7,7.6-16.6,16.9v166.8h37.6V411C1751.3,401.8,1743.8,394.2,1734.6,394.1z"/>
		<path class="st3" d="M1841.3,394.1h-4.4c-9.2,0.1-16.7,7.6-16.6,16.9v166.8h37.6V411C1857.9,401.8,1850.5,394.2,1841.3,394.1z"/>
		<path class="st3" d="M1947.9,394.1h-4.4c-9.2,0.1-16.7,7.6-16.6,16.9v166.8h37.6V411C1964.6,401.8,1957.2,394.2,1947.9,394.1z"/>
		<path class="st3" d="M2054.6,394.1h-4.4c-9.2,0.1-16.7,7.6-16.6,16.9v166.8h37.6V411C2071.3,401.7,2063.8,394.2,2054.6,394.1z"/>
	</g>
	<g>
		<path class="st7" d="M659.2,1412.6c0,0,5.7,25.2,10.4,29.9"/>
		<path class="st4" d="M669.2,1441.4c0,0-0.8-26.7,5.1-21.7C680.3,1424.7,669.2,1441.4,669.2,1441.4z"/>
		<path class="st4" d="M667.7,1439.7c0,0-19.2-22-19.5-12.5S667.7,1439.7,667.7,1439.7z"/>
		<path class="st5" d="M652.2,1409.4c-7.4-2.2-16.2-6-16.4-9.4c-0.6-10,26.8,1.4,27,4.3C662.9,1407.3,661.9,1412.3,652.2,1409.4z"/>
		<path class="st5" d="M654,1400.4c0.1-7.7,1.3-17.2,4.4-18.4c9.4-3.4,6.2,26.2,3.4,27.2C659.1,1410.2,653.9,1410.5,654,1400.4z"/>
		<path class="st5" d="M663.1,1398.4c7.4-2.1,16.9-3.7,18.9-1c6,8-23.3,13.4-25,11S653.4,1401.2,663.1,1398.4z"/>
		<path class="st5" d="M667,1406.8c5.8,5.2,12.1,12.3,10.8,15.5c-3.7,9.3-23.7-12.7-22.6-15.4C656.4,1404.2,659.5,1400.1,667,1406.8
			z"/>
		<path class="st5" d="M660.4,1414.1c-5.2,5.7-12.5,11.9-15.6,10.6c-9.3-3.8,13-23.5,15.7-22.4S667.2,1406.7,660.4,1414.1z"/>
		<circle class="st6" cx="659.5" cy="1406.4" r="7.3"/>
	</g>
</g>
</svg>
