<svg xmlns="http://www.w3.org/2000/svg" viewBox="0 0 470.0856 155.9106"><defs><style>.cls-1{fill:#7cd882;}.cls-2{fill:#afefb1;}.cls-3{fill:#fff;}</style></defs><title>baby_1</title><g id="Layer_2" data-name="Layer 2"><g id="Layer_1-2" data-name="Layer 1"><circle class="cls-1" cx="77.9553" cy="77.9553" r="77.9553"/><circle class="cls-1" cx="290.7275" cy="77.9553" r="77.9553"/><circle class="cls-2" cx="181.8498" cy="84.6349" r="62.624"/><circle class="cls-2" cx="407.4616" cy="84.6349" r="62.624"/><path class="cls-3" d="M98.954,76.7839q10.23,6.0513,10.23,16.17a21.3132,21.3132,0,0,1-1.7051,8.415,22.6481,22.6481,0,0,1-5.06,7.3154,23.457,23.457,0,0,1-8.855,5.2246,37.47,37.47,0,0,1-12.43,1.9253h-25.52q-6.71,0-9.625-3.41-2.9158-3.408-2.915-12.21v-46.53a15.6033,15.6033,0,0,1,1.32-6.6,10.4706,10.4706,0,0,1,4.2349-4.62,13.2694,13.2694,0,0,1,6.9849-1.76h25.19q10.9988.1113,18.3154,5.9951a18.55,18.55,0,0,1,7.3149,15.125,24.5425,24.5425,0,0,1-.4951,5.2251,14.4657,14.4657,0,0,1-1.4849,4.0151,14.1033,14.1033,0,0,1-2.31,3.08A24.4566,24.4566,0,0,1,98.954,76.7839Zm-14.96-14.96q0-4.62-3.5752-6.3247T68.4838,53.7941v16.83a37.5476,37.5476,0,0,0,8.415-.77,10.5645,10.5645,0,0,0,5.17-2.6953A7.2122,7.2122,0,0,0,83.9941,61.8239Zm1.43,29.37a7.857,7.857,0,0,0-1.87-5.61,10.5,10.5,0,0,0-5.39-2.8052,44.4852,44.4852,0,0,0-9.68-.8252v19.03q8.58,0,12.76-2.145T85.4237,91.194Z"/><path class="cls-3" d="M192.1034,109.4279h-18.26v5.83q0,5.61-2.97,8.25t-10.23,2.64a12.5063,12.5063,0,0,1-5.06-.88,8.5235,8.5235,0,0,1-3.4648-2.97,15.2234,15.2234,0,0,1-2.2-6.105,91.2456,91.2456,0,0,1-1.1-9.68q-.3867-5.6646-.3853-14.3555a56.8475,56.8475,0,0,1,1.5952-13.9146,38.4386,38.4386,0,0,1,4.29-10.7251,40.4668,40.4668,0,0,1,6.105-7.7549,26.5511,26.5511,0,0,1,7.4248-5.2251,42.8775,42.8775,0,0,1,7.81-2.8052,31.9018,31.9018,0,0,1,7.645-.9351,33.7013,33.7013,0,0,1,9.13,1.2651,32.3138,32.3138,0,0,1,9.13,4.3447,33.3337,33.3337,0,0,1,8.085,7.645,37.4206,37.4206,0,0,1,5.665,11.8252,56.0671,56.0671,0,0,1,2.2,16.28q0,14.52-1.0449,21.5054-1.0466,6.9866-3.52,9.7349-2.4749,2.751-7.645,2.75-7.26,0-10.23-2.64t-2.97-8.25Zm-9.02-40.7q-4.7307,0-6.9849,2.75-2.2559,2.751-2.2549,9.79v12.98h18.26v-13.2a20.7494,20.7494,0,0,0-1.1-7.4248,7.0808,7.0808,0,0,0-3.0249-3.85A10.1983,10.1983,0,0,0,183.0834,68.7282Z"/><path class="cls-3" d="M317.8378,76.7839q10.23,6.0513,10.23,16.17a21.3132,21.3132,0,0,1-1.7051,8.415,22.6481,22.6481,0,0,1-5.06,7.3154,23.457,23.457,0,0,1-8.855,5.2246,37.47,37.47,0,0,1-12.43,1.9253h-25.52q-6.71,0-9.625-3.41-2.9158-3.408-2.915-12.21v-46.53a15.6033,15.6033,0,0,1,1.32-6.6,10.4706,10.4706,0,0,1,4.2349-4.62,13.2694,13.2694,0,0,1,6.9849-1.76h25.19q10.9988.1113,18.3154,5.9951a18.55,18.55,0,0,1,7.3149,15.125,24.5425,24.5425,0,0,1-.4951,5.2251,14.4657,14.4657,0,0,1-1.4849,4.0151,14.1033,14.1033,0,0,1-2.31,3.08A24.4566,24.4566,0,0,1,317.8378,76.7839Zm-14.96-14.96q0-4.62-3.5752-6.3247t-11.9351-1.7051v16.83a37.5476,37.5476,0,0,0,8.415-.77,10.5645,10.5645,0,0,0,5.17-2.6953A7.2122,7.2122,0,0,0,302.8778,61.8239Zm1.43,29.37a7.857,7.857,0,0,0-1.87-5.61,10.5,10.5,0,0,0-5.39-2.8052,44.4852,44.4852,0,0,0-9.68-.8252v19.03q8.58,0,12.76-2.145T304.3075,91.194Z"/><path class="cls-3" d="M420.142,109.6481q0,8.91-3.19,12.7051t-9.79,3.7949q-6.3809,0-9.35-3.4648t-3.08-12.2651l-.11-17.82-16.94-19.8q-4.62-5.28-4.62-9.13a11.392,11.392,0,0,1,4.62-9.57q4.3982-3.3,7.81-3.3,4.7285,0,8.47,4.29l13.42,15.62,11.22-13.09q5.61-6.7083,11.99-6.71a9.9657,9.9657,0,0,1,7.37,2.64q4.5088,4.5117,4.51,8.69a9.6272,9.6272,0,0,1-1.54,4.895,55.1411,55.1411,0,0,1-4.95,6.6553l-15.84,19.36Z"/></g></g></svg>