<svg xmlns="http://www.w3.org/2000/svg" viewBox="0 0 206.72 218.94"><defs><style>.cls-1,.cls-4{fill:none;}.cls-2{fill:#ffce55;}.cls-3{fill:#fff;}.cls-4{stroke:#fff;stroke-linecap:round;stroke-linejoin:round;stroke-width:0;}.cls-5{fill:#f6b7c2;}</style></defs><title>BAFlogo</title><g id="Layer_2" data-name="Layer 2"><g id="Layer_1-2" data-name="Layer 1"><path class="cls-1" d="M57.82,33l3.93-2.19a3.73,3.73,0,0,0-3.63-6.51l-3.93,2.19Z"/><path class="cls-1" d="M54.94,21.46A2.89,2.89,0,0,0,56,17.53a2.83,2.83,0,0,0-3.87-1.1l-2.7,1.51,2.81,5Z"/><path class="cls-1" d="M126.39,19.09a3.73,3.73,0,0,0-3-4.33L119,13.92l-1.38,7.32,4.42.84A3.73,3.73,0,0,0,126.39,19.09Z"/><path class="cls-1" d="M89.65,203.92a4.34,4.34,0,0,0-3.52,1,5.27,5.27,0,0,0-1.86,3.49,5.4,5.4,0,0,0,.85,3.86,4.54,4.54,0,0,0,3.12,1.85,4.65,4.65,0,0,0,3.51-.93,5.42,5.42,0,0,0,1.9-3.48,5.29,5.29,0,0,0-.88-3.87A4.45,4.45,0,0,0,89.65,203.92Z"/><polygon class="cls-1" points="87.49 7.89 85.88 16 91.64 15.05 87.49 7.89"/><path class="cls-1" d="M126.13,8.23a2.83,2.83,0,0,0-2.27-3.32l-3-.57L119.75,10l3,.57A2.89,2.89,0,0,0,126.13,8.23Z"/><path class="cls-1" d="M160.12,188.42a4.45,4.45,0,0,0-3.6.67,4.34,4.34,0,0,0-1.93,3.11,5.27,5.27,0,0,0,1,3.83,5.4,5.4,0,0,0,3.22,2.29,4.53,4.53,0,0,0,3.56-.73,4.65,4.65,0,0,0,2-3,5.42,5.42,0,0,0-.93-3.85A5.29,5.29,0,0,0,160.12,188.42Z"/><polygon class="cls-1" points="13.52 151.47 19.52 145.78 11.26 146.1 13.52 151.47"/><path class="cls-2" d="M182.64,109.76a78.76,78.76,0,1,0-78.76,78.76A78.85,78.85,0,0,0,182.64,109.76Zm-78.76,63.76a63.76,63.76,0,1,1,63.76-63.76A63.83,63.83,0,0,1,103.88,173.52Z"/><path d="M55.31,36.67a2,2,0,0,0,2.69.76s0,0,.08-.08a0,0,0,0,0,0,0l5.56-3.1A7.71,7.71,0,0,0,60.3,19.83a6.84,6.84,0,0,0-10.11-6.89l-4.34,2.42,0,0-.09.05A2,2,0,0,0,45,18.12Zm7.85-11a3.73,3.73,0,0,1-1.41,5.07L57.82,33l-3.63-6.51,3.93-2.19A3.72,3.72,0,0,1,63.16,25.69Zm-11-9.27A2.83,2.83,0,0,1,56,17.53a2.89,2.89,0,0,1-1.06,3.93L52.24,23l-2.81-5Z"/><path d="M81.81,26.61a2.09,2.09,0,0,0,.69,0,2,2,0,0,0,1.64-1.55l1-4.91,8.63-1.44L96.25,23a2,2,0,0,0,2.67.72A2,2,0,0,0,99.67,21L88.35,1.4A2,2,0,0,0,86.26.47,2,2,0,0,0,84.58,2L80.21,24.25A2,2,0,0,0,81.81,26.61ZM87.49,7.89,91.64,15l-5.75,1Z"/><path d="M114.9,24.79s0,0,.11,0a0,0,0,0,0,0,0L121.31,26a7.71,7.71,0,0,0,6.64-13.25A6.84,6.84,0,0,0,124.6,1L119.72.06h0l-.11,0a2,2,0,0,0-2.31,1.58l-3.94,20.87A2,2,0,0,0,114.9,24.79Zm5.92-20.46,3,.57a2.83,2.83,0,0,1,2.27,3.32,2.89,2.89,0,0,1-3.34,2.34l-3-.57ZM119,13.92l4.42.84A3.73,3.73,0,0,1,122,22.08l-4.42-.84Z"/><path d="M146.64,35.7a2,2,0,0,0,2.7-.75l4.77-8.47,11.4-5.19a2,2,0,0,0-1.66-3.58L154.34,22l-1.23-10.36a1.92,1.92,0,0,0-2.17-1.72,1.89,1.89,0,0,0-1.69,2.19l1.4,12.4L145.89,33A2,2,0,0,0,146.64,35.7Z"/><path d="M26.45,142.87a2,2,0,0,0-1.9-1.27l-22.62.89A2,2,0,0,0,0,144.59a2.1,2.1,0,0,0,.17.67,2,2,0,0,0,1.89,1.24l5-.19,3.39,8.06-3.63,3.44a2,2,0,0,0-.08,2.77,2,2,0,0,0,2.85.09L26,145.11A2,2,0,0,0,26.45,142.87Zm-12.93,8.61-2.26-5.37,8.26-.31Z"/><path d="M31.62,165.61a7.18,7.18,0,0,0-3.22-2.33,2,2,0,0,0-.2-2.08,1.9,1.9,0,0,0-2.68-.33l-4.4,3.43-6.79,5.28a1.9,1.9,0,0,0-.33,2.68,2,2,0,0,0,2.39.55.71.71,0,0,0,.33-.16l6.79-5.28a3.6,3.6,0,0,1,5.08.61,3.7,3.7,0,0,1-.57,5.19l-6.79,5.28a1.94,1.94,0,0,0-.33,2.68,1.89,1.89,0,0,0,2.66.31l6.79-5.28A7.54,7.54,0,0,0,31.62,165.61Z"/><path d="M43.58,178.39a1.92,1.92,0,0,0-2.77.19L31.5,189.1a1.94,1.94,0,0,0,.17,2.75,1.91,1.91,0,0,0,2.74-.17l9.31-10.51A1.9,1.9,0,0,0,43.58,178.39Z"/><path d="M48,176.28l.5-.57a1.91,1.91,0,0,0-.17-2.75,1.94,1.94,0,0,0-2.74.17l-.5.57a2,2,0,0,0,.14,2.77A1.94,1.94,0,0,0,48,176.28Z"/><path d="M67.28,193.62a7.42,7.42,0,0,0-6.17-.33,7.47,7.47,0,0,0-3.92-4.77,7.58,7.58,0,0,0-3.93-.77A1.83,1.83,0,0,0,52.21,186a1.91,1.91,0,0,0-2.58.88l-2.52,5,0,0-3.85,7.62a2,2,0,0,0,.54,2.37c.1,0,.18.13.31.19a2.1,2.1,0,0,0,2.13-.22l.08-.16c.1,0,.13-.1.19-.14l0-.1c0-.06.11-.14.15-.21l3.85-7.62a3.67,3.67,0,0,1,6.6,3.22l0,.1-3.85,7.62a2,2,0,0,0,.88,2.58,1.92,1.92,0,0,0,2.56-.84l3.85-7.62,0-.1a3.74,3.74,0,0,1,5-1.53,3.69,3.69,0,0,1,1.57,5l-3.85,7.62a2,2,0,0,0,.88,2.58,1.92,1.92,0,0,0,2.56-.84l3.85-7.62A7.52,7.52,0,0,0,67.28,193.62Z"/><path d="M96.78,201a2,2,0,0,0-2.07,1.31,8.18,8.18,0,0,0-11-.39,9.08,9.08,0,0,0-3.29,5.94A9.21,9.21,0,0,0,82,214.49a8.36,8.36,0,0,0,5.7,3.44,8.18,8.18,0,0,0,5-.88,2,2,0,0,0,1.64,1.79,1.92,1.92,0,0,0,2.15-1.63l1-7,1-7A1.93,1.93,0,0,0,96.78,201Zm-3.13,8.69a5.42,5.42,0,0,1-1.9,3.48,4.65,4.65,0,0,1-3.51.93,4.54,4.54,0,0,1-3.12-1.85,5.4,5.4,0,0,1-.85-3.86,5.27,5.27,0,0,1,1.86-3.49,4.34,4.34,0,0,1,3.52-1,4.45,4.45,0,0,1,3.11,1.92A5.29,5.29,0,0,1,93.65,209.71Z"/><path d="M109.1,193.77a2,2,0,0,0-1.88,2.07l1,21.22a2,2,0,0,0,4-.19l-1-21.22A2,2,0,0,0,109.1,193.77Z"/><path d="M141.52,196.87l-7.87,2.91-2.28-6.18,9.15-3.38a2,2,0,0,0-1.38-3.75l-10.94,4-.07,0h0a2,2,0,0,0-1.17,2.54L134.28,213a2,2,0,0,0,2.54,1.17,2,2,0,0,0,1.21-2.55l-3-8.1,7.87-2.91a2,2,0,0,0-1.38-3.75Z"/><path d="M166.52,188.53l-4-5.86a1.93,1.93,0,0,0-2.67-.53,2,2,0,0,0-.65,2.36,8.17,8.17,0,0,0-8.38,7.07,9.08,9.08,0,0,0,1.55,6.61A9.21,9.21,0,0,0,158,202a8.36,8.36,0,0,0,6.53-1.28,8.17,8.17,0,0,0,3.08-4A2,2,0,0,0,170,197a1.92,1.92,0,0,0,.5-2.65Zm-2.22,6a4.65,4.65,0,0,1-2,3,4.53,4.53,0,0,1-3.56.73,5.4,5.4,0,0,1-3.22-2.29,5.27,5.27,0,0,1-1-3.83,4.34,4.34,0,0,1,1.93-3.11,4.45,4.45,0,0,1,3.6-.67,5.29,5.29,0,0,1,3.25,2.27A5.42,5.42,0,0,1,164.3,194.54Z"/><path d="M176.9,178.93a11,11,0,0,1-1.2-3.14,5.43,5.43,0,0,1-.13-2.39,3.44,3.44,0,0,1,1-2,1.92,1.92,0,0,0-.09-2.7,1.87,1.87,0,0,0-2.67.11,7.9,7.9,0,0,0-2.07,4.27,4.74,4.74,0,0,0,0,1l-.18-.17a1.93,1.93,0,0,0-2.72.17,1.89,1.89,0,0,0,.06,2.67l10.36,9.69a1.92,1.92,0,0,0,2.7-.09,2,2,0,0,0,0-2.75Z"/><path d="M205.67,146.43,198,142.62a7.52,7.52,0,0,0-10.11,3.32,7.42,7.42,0,0,0-.3,6.17,7.47,7.47,0,0,0-4.75,3.95,7.57,7.57,0,0,0-.75,3.93,1.83,1.83,0,0,0-1.74,1.06,1.9,1.9,0,0,0,.89,2.58l5,2.49,0,0,7.63,3.81a2,2,0,0,0,2.37-.55c0-.1.13-.18.19-.31a2.1,2.1,0,0,0-.23-2.12l-.16-.08c0-.1-.1-.13-.15-.19l-.1,0c-.06,0-.15-.11-.21-.15L188,162.69a3.67,3.67,0,0,1,3.18-6.62l.1,0,7.63,3.81a2,2,0,0,0,2.58-.89,1.92,1.92,0,0,0-.85-2.56L193,152.67l-.1,0a3.74,3.74,0,0,1-1.55-5,3.69,3.69,0,0,1,4.94-1.6l7.63,3.81a2,2,0,0,0,2.58-.89A1.92,1.92,0,0,0,205.67,146.43Z"/><path class="cls-3" d="M103.88,46a63.76,63.76,0,1,0,63.76,63.76A63.83,63.83,0,0,0,103.88,46ZM87.28,65.63C87.77,70,91.35,73.81,93.8,76a26.44,26.44,0,0,0-7.13,4.73C75.35,72,86.53,59,87.28,65.63Zm3.66,40.9c0,3.63-1.47,6.57-3.28,6.57s-3.28-2.94-3.28-6.57S85.84,100,87.66,100,90.94,102.9,90.94,106.53ZM53.09,77.14c9.63-5.88,29.7,3.68,29.7,3.68a9.31,9.31,0,0,1,2.79.92c-4.26,4.3-7.51,10-10,16a24.07,24.07,0,0,1-4.34.2C63.71,97.56,43.45,83,53.09,77.14Zm87.12,65a19,19,0,0,1-19,19H86.52a19,19,0,0,1-19-19v-2.52a18.77,18.77,0,0,1,.68-4.92,19,19,0,0,1,18.29-14h34.73a19,19,0,0,1,18.29,14,18.77,18.77,0,0,1,.68,4.93Zm-23.74-35.6c0-3.63,1.47-6.57,3.28-6.57s3.28,2.94,3.28,6.57-1.47,6.57-3.28,6.57S116.46,110.16,116.46,106.53Zm20.05-8.6a24.06,24.06,0,0,1-4.33-.2h0l0,.11,1.7,4.53,0,0h0c-29.72-1.85-32.67-28.27-32.68-28.42h0a20.42,20.42,0,0,1,5,0,27,27,0,0,1,8,2.1c-.58-.27-1.18-.51-1.79-.73,2.38-2.22,5.38-5.73,5.83-9.69.72-6.35,11.15,5.44,1.74,14.1A26.58,26.58,0,0,0,117.57,78a32.19,32.19,0,0,1,3.13,2.38c.46.4.83.74,1.08,1l.42.41h0a9.3,9.3,0,0,1,2.78-.91s20.07-9.56,29.7-3.68S144,97.56,136.52,97.93Z"/><path d="M75.58,97.73c2.48-6,5.73-11.68,10-16a9.31,9.31,0,0,0-2.79-.92s-20.07-9.56-29.7-3.68S63.71,97.56,71.24,97.93A24.07,24.07,0,0,0,75.58,97.73Z"/><path d="M154.68,77.14C145,71.26,125,80.82,125,80.82a9.3,9.3,0,0,0-2.78.91h0l-.42-.41c-.25-.24-.62-.58-1.08-1A32.19,32.19,0,0,0,117.57,78c-.48-.31-1-.63-1.46-.91s-.89-.51-1.36-.74l-.27-.14-.27-.12a27,27,0,0,0-8-2.1,20.42,20.42,0,0,0-5,0h0c0,.16,3,26.57,32.68,28.42h0l0,0-1.7-4.53,0-.11h0a24.06,24.06,0,0,0,4.33.2C144,97.56,164.31,83,154.68,77.14Z"/><path class="cls-2" d="M114.75,76.31c.47.23.92.48,1.36.74s1,.6,1.46.91A26.58,26.58,0,0,1,120,79.73c9.41-8.65-1-20.45-1.74-14.1-.45,4-3.45,7.48-5.83,9.69.61.22,1.21.46,1.79.73l.27.12Z"/><path class="cls-2" d="M86.67,80.68A26.44,26.44,0,0,1,93.8,76c-2.45-2.15-6-6-6.52-10.32C86.53,59,75.35,72,86.67,80.68Z"/><path class="cls-4" d="M117.57,78c-.48-.31-1-.63-1.46-.91"/><path d="M84.37,106.53c0,3.63,1.47,6.57,3.28,6.57s3.28-2.94,3.28-6.57S89.47,100,87.66,100,84.37,102.9,84.37,106.53Zm1.93,1.41c-.34,0-.62-.5-.62-1.12s.28-1.12.62-1.12.62.5.62,1.12S86.65,107.94,86.3,107.94Z"/><ellipse class="cls-3" cx="86.3" cy="106.82" rx="0.62" ry="1.12"/><path d="M123,106.53c0-3.63-1.47-6.57-3.28-6.57s-3.28,2.94-3.28,6.57,1.47,6.57,3.28,6.57S123,110.16,123,106.53Zm-4.63,1.41c-.34,0-.62-.5-.62-1.12s.28-1.12.62-1.12.62.5.62,1.12S118.74,107.94,118.4,107.94Z"/><ellipse class="cls-3" cx="118.4" cy="106.82" rx="0.62" ry="1.12"/><path class="cls-5" d="M121.24,120.65H86.52a19,19,0,0,0-18.29,14,18.77,18.77,0,0,0-.68,4.92v2.52a19,19,0,0,0,19,19h34.73a19,19,0,0,0,19-19v-2.52a18.77,18.77,0,0,0-.68-4.93A19,19,0,0,0,121.24,120.65ZM82.12,138.54c-1,.57-2.6-.38-3.6-2.11s-1-3.61,0-4.18,2.6.38,3.6,2.11S83.1,138,82.12,138.54Zm47.13-2.11c-1,1.74-2.62,2.68-3.6,2.11s-1-2.44,0-4.18,2.62-2.68,3.6-2.11S130.25,134.69,129.25,136.43Z"/><ellipse class="cls-3" cx="127.46" cy="135.4" rx="3.63" ry="2.06" transform="translate(-53.53 178.08) rotate(-60)"/><ellipse class="cls-3" cx="80.3" cy="135.4" rx="2.06" ry="3.63" transform="translate(-56.94 58.29) rotate(-30)"/></g></g></svg>