<svg xmlns="http://www.w3.org/2000/svg" viewBox="0 0 658.9641 756.0248"><defs><style>.cls-1{fill:#b4f79f;}.cls-2{fill:#7b6227;}.cls-3{fill:#4f3c24;}.cls-4{isolation:isolate;}.cls-5{fill:#fdbc1f;}.cls-6{fill:#f6d07b;}.cls-7{fill:none;stroke-linecap:round;}.cls-7,.cls-8{stroke:#21b14b;stroke-linejoin:round;stroke-width:0.3302px;}.cls-8{fill:#57ad46;}.cls-9{fill:#fff;}.cls-10{fill:#f3e39d;}</style></defs><title>exitSign_NEW</title><g id="Layer_2" data-name="Layer 2"><g id="Layer_1-2" data-name="Layer 1"><g id="Layer_2-2" data-name="Layer 2"><g id="bg"><ellipse class="cls-1" cx="324.6688" cy="666.6296" rx="287.0055" ry="89.3952"/><rect class="cls-2" x="13.0295" width="624.5661" height="98.9412"/><path class="cls-3" d="M274.2148,260.1543h95.2194V630.0459a49.9854,49.9854,0,0,1-49.9854,49.9854H299.2075a24.9927,24.9927,0,0,1-24.9927-24.9927V260.1543Z"/><path class="cls-2" d="M264.04,260.1543h95.22v382.388a37.4891,37.4891,0,0,1-37.4891,37.4891H301.53a37.4891,37.4891,0,0,1-37.4891-37.4891V260.1543Z"/><rect class="cls-3" x="263.8753" y="-2.6583" width="98.9412" height="624.5661" transform="translate(-3.4594 615.7091) rotate(-88.6717)"/><rect class="cls-2" x="267.2667" y="-171.5429" width="98.9412" height="624.5661" transform="translate(157.7887 448.7428) rotate(-86.6611)"/><rect class="cls-2" x="289.3111" y="-52.1287" width="98.9412" height="624.5661" transform="translate(59.3377 583.2092) rotate(-86.6611)"/><rect class="cls-2" x="7.8456" y="219.6583" width="624.5661" height="98.9412" transform="translate(-5.2888 6.4195) rotate(-1.1395)"/><rect class="cls-3" x="15.0895" y="138.0847" width="624.5661" height="98.9412" transform="translate(-3.6651 6.5475) rotate(-1.1395)"/><rect class="cls-3" x="294.8593" y="-237.2056" width="98.9412" height="624.5661" transform="translate(249.3255 414.4503) rotate(-86.6611)"/><rect class="cls-2" x="25.2639" y="100.9799" width="624.5661" height="98.9412" transform="translate(-2.9252 6.7425) rotate(-1.1395)"/><g class="cls-4"><g class="cls-4"><path class="cls-5" d="M129.7157,252.105v-120.06a11.0325,11.0325,0,0,1,11.1919-11.1914h66.5415a11.29,11.29,0,0,1,11.1924,11.1914,11.47,11.47,0,0,1-11.1924,11.3955h-55.146V180.68h47.4136a11.2939,11.2939,0,0,1,0,22.5869H152.3031v37.4424h55.146a11.2944,11.2944,0,0,1,0,22.5879H141.5185c-.4072,0-.4072-.2031-.4072-.2031l-.2036.2031A11.1593,11.1593,0,0,1,129.7157,252.105Z"/></g><g class="cls-4"><path class="cls-5" d="M352.33,140.1851l-38.6636,52.501L352.33,245.5933c3.459,4.8838,2.6455,12.0068-2.4424,15.4658a11.4441,11.4441,0,0,1-6.5117,2.2383,11.6633,11.6633,0,0,1-9.1572-4.6807l-34.186-47.0059-34.39,47.0059a11.5839,11.5839,0,0,1-8.9536,4.6807,10.518,10.518,0,0,1-6.5117-2.2383,11.0955,11.0955,0,0,1-2.645-15.4658l38.6631-52.9072-38.6631-52.501a11.0631,11.0631,0,0,1,2.645-15.4648,10.5548,10.5548,0,0,1,15.4653,2.4414l34.39,46.8027,34.186-46.8027a10.8071,10.8071,0,0,1,15.6689-2.4414C354.9755,128.1792,355.789,135.0981,352.33,140.1851Z"/></g><g class="cls-4"><path class="cls-5" d="M388.5478,132.0454A11.0327,11.0327,0,0,1,399.74,120.854a11.3328,11.3328,0,0,1,11.3955,11.1914v120.06A11.3336,11.3336,0,0,1,399.74,263.2974a11.0335,11.0335,0,0,1-11.1924-11.1924Z"/><path class="cls-5" d="M536.28,143.4409H503.9247V252.105a11.0333,11.0333,0,0,1-11.1914,11.1924,11.1594,11.1594,0,0,1-11.1924-11.1924V143.4409H449.39a11.3336,11.3336,0,0,1-11.1924-11.3955A11.0327,11.0327,0,0,1,449.39,120.854H536.28a11.1584,11.1584,0,0,1,11.1914,11.1914A11.4689,11.4689,0,0,1,536.28,143.4409Z"/></g></g><g class="cls-4"><g class="cls-4"><path class="cls-6" d="M121.247,252.105v-120.06a11.0325,11.0325,0,0,1,11.1919-11.1914H198.98a11.29,11.29,0,0,1,11.1924,11.1914A11.47,11.47,0,0,1,198.98,143.4409h-55.146V180.68H191.248a11.2939,11.2939,0,0,1,0,22.5869H143.8344v37.4424H198.98a11.2944,11.2944,0,0,1,0,22.5879H133.05c-.4072,0-.4072-.2031-.4072-.2031l-.2036.2031A11.1593,11.1593,0,0,1,121.247,252.105Z"/></g><g class="cls-4"><path class="cls-6" d="M343.8613,140.1851l-38.6636,52.501,38.6636,52.9072c3.459,4.8838,2.6455,12.0068-2.4424,15.4658a11.4441,11.4441,0,0,1-6.5117,2.2383,11.6624,11.6624,0,0,1-9.1567-4.6807l-34.1865-47.0059-34.39,47.0059a11.5839,11.5839,0,0,1-8.9536,4.6807,10.518,10.518,0,0,1-6.5117-2.2383,11.0955,11.0955,0,0,1-2.645-15.4658l38.6631-52.9072-38.6631-52.501a11.0631,11.0631,0,0,1,2.645-15.4648,10.5548,10.5548,0,0,1,15.4653,2.4414l34.39,46.8027L325.75,127.1616a10.8066,10.8066,0,0,1,15.6685-2.4414C346.5068,128.1792,347.32,135.0981,343.8613,140.1851Z"/></g><g class="cls-4"><path class="cls-6" d="M380.079,132.0454a11.0327,11.0327,0,0,1,11.1924-11.1914,11.3328,11.3328,0,0,1,11.3955,11.1914v120.06a11.3336,11.3336,0,0,1-11.3955,11.1924A11.0335,11.0335,0,0,1,380.079,252.105Z"/><path class="cls-6" d="M527.8114,143.4409H495.456V252.105a11.0333,11.0333,0,0,1-11.1914,11.1924,11.1594,11.1594,0,0,1-11.1924-11.1924V143.4409H440.9208a11.3336,11.3336,0,0,1-11.1924-11.3955,11.0327,11.0327,0,0,1,11.1924-11.1914h86.8906a11.1584,11.1584,0,0,1,11.1914,11.1914A11.4689,11.4689,0,0,1,527.8114,143.4409Z"/></g></g><path class="cls-7" d="M203.6985,611.1863s1.88,8.2758,3.4174,9.8381"/><path class="cls-8" d="M206.9938,620.6338s-.27-8.7751,1.6845-7.1281S206.9938,620.6338,206.9938,620.6338Z"/><path class="cls-8" d="M206.5,620.1s-6.2925-7.2286-6.39-4.104S206.5,620.1,206.5,620.1Z"/><path class="cls-9" d="M201.3913,610.1495c-2.43-.7282-5.3127-1.98-5.3834-3.0777-.2114-3.2837,8.8108.4521,8.86,1.4144S204.5758,611.1038,201.3913,610.1495Z"/><path class="cls-9" d="M202,607.1847c.0211-2.5367.4182-5.6541,1.4529-6.0285,3.0942-1.12,2.025,8.5869,1.1147,8.903S201.9724,610.509,202,607.1847Z"/><path class="cls-9" d="M204.989,606.5272c2.4369-.7045,5.5379-1.2146,6.1923-.33,1.9568,2.6454-7.65,4.3938-8.2134,3.6119S201.7953,607.4505,204.989,606.5272Z"/><path class="cls-9" d="M206.2622,609.2984c1.8887,1.6935,3.9643,4.0532,3.5608,5.0768-1.2068,3.0612-7.78-4.16-7.415-5.0521S203.787,607.0791,206.2622,609.2984Z"/><path class="cls-9" d="M204.0746,611.69c-1.719,1.8655-4.1066,3.9089-5.1247,3.4915-3.0445-1.2482,4.2655-7.7227,5.1523-7.3457S206.3273,609.2457,204.0746,611.69Z"/><circle class="cls-10" cx="203.7882" cy="609.1471" r="2.3816"/><path class="cls-7" d="M134.5773,675.0848s1.88,8.2758,3.4174,9.8381"/><path class="cls-8" d="M137.8727,684.5323s-.27-8.7751,1.6845-7.1281S137.8727,684.5323,137.8727,684.5323Z"/><path class="cls-8" d="M137.3788,683.9981s-6.2925-7.2286-6.39-4.104S137.3788,683.9981,137.3788,683.9981Z"/><path class="cls-9" d="M132.27,674.0479c-2.43-.7282-5.3127-1.98-5.3834-3.0777-.2114-3.2837,8.8108.4521,8.86,1.4144S135.4547,675.0022,132.27,674.0479Z"/><path class="cls-9" d="M132.8789,671.0831c.0211-2.5367.4182-5.6541,1.4529-6.0285,3.0942-1.12,2.025,8.5869,1.1147,8.903S132.8513,674.4074,132.8789,671.0831Z"/><path class="cls-9" d="M135.8678,670.4257c2.4369-.7045,5.5379-1.2146,6.1923-.33,1.9568,2.6454-7.65,4.3938-8.2134,3.6119S132.6742,671.349,135.8678,670.4257Z"/><path class="cls-9" d="M137.141,673.1968c1.8887,1.6935,3.9643,4.0532,3.5608,5.0768-1.2068,3.0612-7.78-4.16-7.415-5.0521S134.6658,670.9775,137.141,673.1968Z"/><path class="cls-9" d="M134.9535,675.5889c-1.719,1.8655-4.1066,3.9089-5.1247,3.4915-3.0445-1.2482,4.2655-7.7227,5.1523-7.3457S137.2062,673.1441,134.9535,675.5889Z"/><circle class="cls-10" cx="134.667" cy="673.0455" r="2.3816"/><path class="cls-7" d="M381.6068,678.7517s1.8795,8.2758,3.4174,9.8381"/><path class="cls-8" d="M384.9022,688.1993s-.27-8.7751,1.6845-7.1281S384.9022,688.1993,384.9022,688.1993Z"/><path class="cls-8" d="M384.4083,687.6651s-6.2925-7.2286-6.39-4.104S384.4083,687.6651,384.4083,687.6651Z"/><path class="cls-9" d="M379.3,677.7149c-2.43-.7282-5.3127-1.98-5.3834-3.0777-.2114-3.2837,8.8108.4521,8.86,1.4144S382.4842,678.6692,379.3,677.7149Z"/><path class="cls-9" d="M379.9084,674.75c.0211-2.5367.4182-5.6541,1.4529-6.0285,3.0942-1.12,2.025,8.5869,1.1147,8.903S379.8808,678.0744,379.9084,674.75Z"/><path class="cls-9" d="M382.8973,674.0927c2.4369-.7045,5.5379-1.2146,6.1923-.33,1.9568,2.6454-7.65,4.3938-8.2134,3.6119S379.7037,675.016,382.8973,674.0927Z"/><path class="cls-9" d="M384.1705,676.8638c1.8887,1.6935,3.9643,4.0532,3.5608,5.0768-1.2068,3.0612-7.78-4.16-7.415-5.0521S381.6954,674.6445,384.1705,676.8638Z"/><path class="cls-9" d="M381.983,679.2559c-1.719,1.8655-4.1066,3.9089-5.1247,3.4915-3.0445-1.2482,4.2655-7.7227,5.1523-7.3457S384.2357,676.8111,381.983,679.2559Z"/><circle class="cls-10" cx="381.6965" cy="676.7125" r="2.3816"/><path class="cls-7" d="M466.3224,610.3521s1.8795,8.2758,3.4174,9.8381"/><path class="cls-8" d="M469.6178,619.8s-.27-8.7751,1.6845-7.1281S469.6178,619.8,469.6178,619.8Z"/><path class="cls-8" d="M469.1239,619.2655s-6.2925-7.2286-6.39-4.104S469.1239,619.2655,469.1239,619.2655Z"/><path class="cls-9" d="M464.0153,609.3153c-2.43-.7282-5.3127-1.98-5.3834-3.0777-.2114-3.2837,8.8108.4521,8.86,1.4144S467.2,610.27,464.0153,609.3153Z"/><path class="cls-9" d="M464.624,606.35c.0211-2.5367.4182-5.6541,1.4529-6.0285,3.0942-1.12,2.025,8.5869,1.1147,8.903S464.5964,609.6748,464.624,606.35Z"/><path class="cls-9" d="M467.6129,605.6931c2.4369-.7045,5.5379-1.2146,6.1923-.33,1.9568,2.6454-7.65,4.3938-8.2134,3.6119S464.4193,606.6164,467.6129,605.6931Z"/><path class="cls-9" d="M468.8861,608.4642c1.8887,1.6935,3.9643,4.0532,3.5608,5.0768-1.2068,3.0612-7.78-4.16-7.415-5.0521S466.411,606.2449,468.8861,608.4642Z"/><path class="cls-9" d="M466.6986,610.8563c-1.719,1.8655-4.1066,3.9089-5.1247,3.4915-3.0445-1.2482,4.2655-7.7227,5.1523-7.3457S468.9513,608.4115,466.6986,610.8563Z"/><circle class="cls-10" cx="466.4121" cy="608.3129" r="2.3816"/><path class="cls-7" d="M499.307,722.38s1.8795,8.2758,3.4174,9.8381"/><path class="cls-8" d="M502.6023,731.8272s-.27-8.7751,1.6845-7.1281S502.6023,731.8272,502.6023,731.8272Z"/><path class="cls-8" d="M502.1085,731.2931s-6.2925-7.2286-6.39-4.104S502.1085,731.2931,502.1085,731.2931Z"/><path class="cls-9" d="M497,721.3429c-2.43-.7282-5.3127-1.98-5.3834-3.0777-.2114-3.2837,8.8108.4521,8.86,1.4144S500.1843,722.2972,497,721.3429Z"/><path class="cls-9" d="M497.6085,718.3781c.0211-2.5367.4182-5.6541,1.4529-6.0285,3.0942-1.12,2.025,8.5869,1.1147,8.903S497.5809,721.7024,497.6085,718.3781Z"/><path class="cls-9" d="M500.5975,717.7206c2.4369-.7045,5.5379-1.2146,6.1923-.33,1.9568,2.6454-7.65,4.3938-8.2134,3.6119S497.4038,718.6439,500.5975,717.7206Z"/><path class="cls-9" d="M501.8707,720.4918c1.8887,1.6935,3.9643,4.0532,3.5608,5.0768-1.2068,3.0612-7.78-4.16-7.415-5.0521S499.3955,718.2725,501.8707,720.4918Z"/><path class="cls-9" d="M499.6831,722.8839c-1.719,1.8655-4.1066,3.9089-5.1247,3.4915-3.0445-1.2482,4.2655-7.7227,5.1523-7.3457S501.9358,720.4391,499.6831,722.8839Z"/><circle class="cls-10" cx="499.3967" cy="720.3405" r="2.3816"/><path class="cls-7" d="M560.9892,625.2467s1.88,8.2758,3.4174,9.8381"/><path class="cls-8" d="M564.2845,634.6942s-.27-8.7751,1.6845-7.1281S564.2845,634.6942,564.2845,634.6942Z"/><path class="cls-8" d="M563.7906,634.16s-6.2925-7.2286-6.39-4.104S563.7906,634.16,563.7906,634.16Z"/><path class="cls-9" d="M558.6821,624.21c-2.43-.7282-5.3127-1.98-5.3834-3.0777-.2114-3.2837,8.8108.4521,8.86,1.4144S561.8665,625.1642,558.6821,624.21Z"/><path class="cls-9" d="M559.2907,621.2451c.0211-2.5367.4182-5.6541,1.4529-6.0285,3.0942-1.12,2.025,8.5869,1.1147,8.903S559.2631,624.5694,559.2907,621.2451Z"/><path class="cls-9" d="M562.28,620.5876c2.4369-.7045,5.5379-1.2146,6.1923-.33,1.9568,2.6454-7.65,4.3938-8.2134,3.6119S559.086,621.5109,562.28,620.5876Z"/><path class="cls-9" d="M563.5528,623.3588c1.8887,1.6935,3.9643,4.0532,3.5608,5.0768-1.2068,3.0612-7.78-4.16-7.415-5.0521S561.0777,621.14,563.5528,623.3588Z"/><path class="cls-9" d="M561.3653,625.7509c-1.719,1.8655-4.1066,3.9089-5.1247,3.4915-3.0445-1.2482,4.2655-7.7227,5.1523-7.3457S563.618,623.3061,561.3653,625.7509Z"/><circle class="cls-10" cx="561.0788" cy="623.2075" r="2.3816"/><path class="cls-7" d="M288.3424,725.6046s1.8795,8.2758,3.4174,9.8381"/><path class="cls-8" d="M291.6377,735.0521s-.27-8.7751,1.6845-7.1281S291.6377,735.0521,291.6377,735.0521Z"/><path class="cls-8" d="M291.1438,734.518s-6.2925-7.2286-6.39-4.104S291.1438,734.518,291.1438,734.518Z"/><path class="cls-9" d="M286.0352,724.5678c-2.43-.7282-5.3127-1.98-5.3834-3.0777-.2114-3.2837,8.8108.4521,8.86,1.4144S289.22,725.5221,286.0352,724.5678Z"/><path class="cls-9" d="M286.6439,721.603c.0211-2.5367.4182-5.6541,1.4529-6.0285,3.0942-1.12,2.025,8.5869,1.1147,8.903S286.6163,724.9273,286.6439,721.603Z"/><path class="cls-9" d="M289.6328,720.9456c2.4369-.7045,5.5379-1.2146,6.1923-.33,1.9568,2.6454-7.65,4.3938-8.2134,3.6119S286.4392,721.8689,289.6328,720.9456Z"/><path class="cls-9" d="M290.906,723.7167c1.8887,1.6935,3.9643,4.0532,3.5608,5.0768-1.2068,3.0612-7.78-4.16-7.415-5.0521S288.4309,721.4974,290.906,723.7167Z"/><path class="cls-9" d="M288.7185,726.1088c-1.719,1.8655-4.1066,3.9089-5.1247,3.4915-3.0445-1.2482,4.2655-7.7227,5.1523-7.3457S290.9712,723.664,288.7185,726.1088Z"/><circle class="cls-10" cx="288.432" cy="723.5654" r="2.3816"/><path class="cls-1" d="M249.7785,580.3116s5.58-28.2662,3.3474-32.535c0,0,15.5822,31.7415,24.239,27.1246s17.5174-14.428,11.0672-27.1246c0,0,15.48,22.5571,21.2515,29.4578,14.0678-26.9723,27.1246-13.19,27.1246-13.19s-21.93-5.4467-5.1941,16.2675,36.3585-20.4155,24.8161-30.2265a55.91,55.91,0,0,1,13.0041,28.2322c2.5781,17.36,34.32,15.7037,44.7078,28.94S349.9752,709.37,311.65,699.5588,214.69,674.0211,249.7785,580.3116Z"/></g></g></g></g></svg>