<?xml version="1.0" encoding="utf-8"?>
<!-- Generator: Adobe Illustrator 22.1.0, SVG Export Plug-In . SVG Version: 6.00 Build 0)  -->
<svg version="1.1" id="Layer_1" xmlns="http://www.w3.org/2000/svg" xmlns:xlink="http://www.w3.org/1999/xlink" x="0px" y="0px"
	 viewBox="0 0 199.1 75.6" style="enable-background:new 0 0 199.1 75.6;" xml:space="preserve">
<style type="text/css">
	.st0{fill:#FFB05C;}
	.st1{fill:#F4AEF4;}
	.st2{fill:#FFD4DD;}
	.st3{fill:#3797F7;}
	.st4{fill:#72D67E;}
	.st5{fill:#FFE566;}
	.st6{fill:#FF8095;}
	.st7{fill:#A7EDF9;}
	.st8{fill:url(#SVGID_1_);}
	.st9{fill:#78C449;}
	.st10{enable-background:new    ;}
	.st11{fill:#FFFFFF;}
	.st12{fill:none;stroke:#9ADB9A;stroke-width:0.75;stroke-miterlimit:10;}
	.st13{fill:url(#SVGID_2_);}
	.st14{fill:#A8EA53;}
	.st15{fill:url(#SVGID_3_);}
	.st16{fill:url(#SVGID_4_);}
	.st17{fill:#F4BE84;}
</style>
<g>
	<circle class="st0" cx="20.4" cy="56.2" r="14.5"/>
	<circle class="st1" cx="7.2" cy="32.2" r="4.5"/>
	<circle class="st2" cx="21.9" cy="11.6" r="6.5"/>
	<circle class="st3" cx="67.6" cy="28.9" r="16.5"/>
	<circle class="st4" cx="88.7" cy="9.4" r="6.5"/>
	<circle class="st5" cx="103.9" cy="26.5" r="12.8"/>
	<circle class="st6" cx="111.6" cy="52.5" r="15.3"/>
	<circle class="st0" cx="136.7" cy="5.3" r="4.3"/>
	<circle class="st5" cx="144.5" cy="57.4" r="13.8"/>
	<circle class="st6" cx="188" cy="63.9" r="4.3"/>
	<ellipse class="st2" cx="183.6" cy="43.2" rx="13.8" ry="13.8"/>
	<circle class="st7" cx="151.4" cy="31.8" r="16.3"/>
	<ellipse class="st3" cx="178.3" cy="18.7" rx="5.5" ry="5.5"/>
	<g>
		
			<radialGradient id="SVGID_1_" cx="46.9" cy="-455.8" r="30.7" gradientTransform="matrix(1 0 0 -1 0 -414)" gradientUnits="userSpaceOnUse">
			<stop  offset="0.8262" style="stop-color:#325436;stop-opacity:0.7"/>
			<stop  offset="0.9767" style="stop-color:#325436;stop-opacity:9.386593e-02"/>
			<stop  offset="1" style="stop-color:#325436;stop-opacity:0"/>
		</radialGradient>
		<circle class="st8" cx="46.9" cy="41.8" r="30.7"/>
		<circle class="st9" cx="45.6" cy="39.7" r="30.7"/>
		<g class="st10">
			<path class="st11" d="M57.5,39c3.4,2,5.1,4.7,5.1,8.1c0,1.5-0.3,2.9-0.9,4.2c-0.6,1.3-1.4,2.6-2.5,3.7c-1.1,1.1-2.6,2-4.4,2.6
				c-1.8,0.6-3.9,1-6.2,1H35.7c-2.2,0-3.9-0.6-4.8-1.7c-1-1.1-1.5-3.2-1.5-6.1V27.4c0-1.3,0.2-2.4,0.7-3.3c0.4-1,1.2-1.7,2.1-2.3
				c1-0.6,2.1-0.9,3.5-0.9h12.7c3.7,0,6.8,1,9.2,3c2.5,2,3.7,4.5,3.7,7.6c0,1-0.1,1.9-0.2,2.6c-0.2,0.8-0.4,1.4-0.7,2
				s-0.7,1.1-1.2,1.5C58.6,38.1,58.1,38.6,57.5,39z M50,31.5c0-1.5-0.6-2.6-1.8-3.2s-3.2-0.9-6-0.9v8.5c1.7,0,3.1-0.1,4.2-0.4
				c1.1-0.3,2-0.7,2.6-1.4C49.6,33.5,50,32.6,50,31.5z M50.7,46.3c0-1.2-0.3-2.2-0.9-2.8c-0.6-0.7-1.5-1.1-2.7-1.4
				c-1.2-0.3-2.8-0.4-4.9-0.4v9.6c2.9,0,5-0.4,6.4-1.1C50,49.4,50.7,48.1,50.7,46.3z"/>
		</g>
		<g class="st10">
			<path class="st12" d="M57.5,39c3.4,2,5.1,4.7,5.1,8.1c0,1.5-0.3,2.9-0.9,4.2c-0.6,1.3-1.4,2.6-2.5,3.7c-1.1,1.1-2.6,2-4.4,2.6
				c-1.8,0.6-3.9,1-6.2,1H35.7c-2.2,0-3.9-0.6-4.8-1.7c-1-1.1-1.5-3.2-1.5-6.1V27.4c0-1.3,0.2-2.4,0.7-3.3c0.4-1,1.2-1.7,2.1-2.3
				c1-0.6,2.1-0.9,3.5-0.9h12.7c3.7,0,6.8,1,9.2,3c2.5,2,3.7,4.5,3.7,7.6c0,1-0.1,1.9-0.2,2.6c-0.2,0.8-0.4,1.4-0.7,2
				s-0.7,1.1-1.2,1.5C58.6,38.1,58.1,38.6,57.5,39z M50,31.5c0-1.5-0.6-2.6-1.8-3.2s-3.2-0.9-6-0.9v8.5c1.7,0,3.1-0.1,4.2-0.4
				c1.1-0.3,2-0.7,2.6-1.4C49.6,33.5,50,32.6,50,31.5z M50.7,46.3c0-1.2-0.3-2.2-0.9-2.8c-0.6-0.7-1.5-1.1-2.7-1.4
				c-1.2-0.3-2.8-0.4-4.9-0.4v9.6c2.9,0,5-0.4,6.4-1.1C50,49.4,50.7,48.1,50.7,46.3z"/>
		</g>
	</g>
	<g>
		
			<radialGradient id="SVGID_2_" cx="88.1644" cy="-462.5" r="22.7066" gradientTransform="matrix(1 0 0 -1 0 -414)" gradientUnits="userSpaceOnUse">
			<stop  offset="0.8262" style="stop-color:#325436;stop-opacity:0.7"/>
			<stop  offset="0.9767" style="stop-color:#325436;stop-opacity:9.386593e-02"/>
			<stop  offset="1" style="stop-color:#325436;stop-opacity:0"/>
		</radialGradient>
		<circle class="st13" cx="88.1" cy="48.5" r="22.7"/>
		<circle class="st14" cx="87.2" cy="46.9" r="22.7"/>
		<g class="st10">
			<path class="st11" d="M90.6,53.2H84v2.1c0,1.4-0.4,2.4-1.1,3s-2,1-3.7,1c-0.7,0-1.4-0.1-1.8-0.3c-0.5-0.2-0.9-0.6-1.3-1.1
				s-0.6-1.2-0.8-2.2c-0.2-1-0.3-2.2-0.4-3.5s-0.1-3.1-0.1-5.2c0-1.8,0.2-3.5,0.6-5.1c0.4-1.5,0.9-2.8,1.6-3.9
				c0.7-1.1,1.4-2,2.2-2.8c0.8-0.8,1.7-1.5,2.7-1.9c1-0.5,1.9-0.8,2.8-1s1.9-0.3,2.8-0.3c1.1,0,2.2,0.2,3.3,0.5
				c1.1,0.3,2.2,0.8,3.3,1.6c1.1,0.7,2.1,1.7,2.9,2.8s1.5,2.5,2.1,4.3s0.8,3.7,0.8,5.9c0,3.5-0.1,6.1-0.4,7.8s-0.7,2.9-1.3,3.5
				c-0.6,0.7-1.5,1-2.8,1c-1.8,0-3-0.3-3.7-1s-1.1-1.6-1.1-3V53.2z M87.3,38.4c-1.2,0-2,0.3-2.5,1C84.2,40,84,41.2,84,42.9v4.7h6.7
				v-4.8c0-1.1-0.1-2-0.4-2.7s-0.6-1.1-1.1-1.4C88.7,38.5,88.1,38.4,87.3,38.4z"/>
		</g>
		<g class="st10">
			<path class="st12" d="M90.6,53.2H84v2.1c0,1.4-0.4,2.4-1.1,3s-2,1-3.7,1c-0.7,0-1.4-0.1-1.8-0.3c-0.5-0.2-0.9-0.6-1.3-1.1
				s-0.6-1.2-0.8-2.2c-0.2-1-0.3-2.2-0.4-3.5s-0.1-3.1-0.1-5.2c0-1.8,0.2-3.5,0.6-5.1c0.4-1.5,0.9-2.8,1.6-3.9
				c0.7-1.1,1.4-2,2.2-2.8c0.8-0.8,1.7-1.5,2.7-1.9c1-0.5,1.9-0.8,2.8-1s1.9-0.3,2.8-0.3c1.1,0,2.2,0.2,3.3,0.5
				c1.1,0.3,2.2,0.8,3.3,1.6c1.1,0.7,2.1,1.7,2.9,2.8s1.5,2.5,2.1,4.3s0.8,3.7,0.8,5.9c0,3.5-0.1,6.1-0.4,7.8s-0.7,2.9-1.3,3.5
				c-0.6,0.7-1.5,1-2.8,1c-1.8,0-3-0.3-3.7-1s-1.1-1.6-1.1-3V53.2z M87.3,38.4c-1.2,0-2,0.3-2.5,1C84.2,40,84,41.2,84,42.9v4.7h6.7
				v-4.8c0-1.1-0.1-2-0.4-2.7s-0.6-1.1-1.1-1.4C88.7,38.5,88.1,38.4,87.3,38.4z"/>
		</g>
	</g>
	<g>
		
			<radialGradient id="SVGID_3_" cx="128.7" cy="-454.2" r="24.9737" gradientTransform="matrix(1 0 0 -1 0 -414)" gradientUnits="userSpaceOnUse">
			<stop  offset="0.8262" style="stop-color:#325436;stop-opacity:0.7"/>
			<stop  offset="0.9767" style="stop-color:#325436;stop-opacity:9.386593e-02"/>
			<stop  offset="1" style="stop-color:#325436;stop-opacity:0"/>
		</radialGradient>
		<circle class="st15" cx="128.7" cy="40.2" r="25"/>
		<circle class="st9" cx="127.7" cy="38.5" r="24.9"/>
		<g class="st10">
			<path class="st11" d="M138.2,38.5c2.8,1.7,4.2,3.9,4.2,6.7c0,1.2-0.2,2.4-0.7,3.5s-1.2,2.1-2.1,3c-0.9,0.9-2.1,1.6-3.6,2.2
				c-1.5,0.5-3.2,0.8-5.1,0.8h-10.5c-1.8,0-3.2-0.5-4-1.4s-1.2-2.6-1.2-5V29c0-1,0.2-1.9,0.5-2.7c0.4-0.8,0.9-1.4,1.7-1.9
				c0.8-0.5,1.8-0.7,2.9-0.7h10.4c3,0,5.5,0.9,7.5,2.5s3,3.7,3,6.2c0,0.8-0.1,1.5-0.2,2.2c-0.1,0.6-0.3,1.2-0.6,1.7s-0.6,0.9-1,1.3
				S138.8,38.1,138.2,38.5z M132.1,32.3c0-1.3-0.5-2.1-1.5-2.6S128,29,125.7,29v7c1.4,0,2.6-0.1,3.5-0.3c0.9-0.2,1.6-0.6,2.1-1.1
				C131.8,34,132.1,33.3,132.1,32.3z M132.7,44.4c0-1-0.3-1.8-0.8-2.3s-1.3-0.9-2.2-1.2c-1-0.2-2.3-0.3-4-0.3v7.8
				c2.4,0,4.1-0.3,5.3-0.9C132.1,47,132.7,45.9,132.7,44.4z"/>
		</g>
		<g class="st10">
			<path class="st12" d="M138.2,38.5c2.8,1.7,4.2,3.9,4.2,6.7c0,1.2-0.2,2.4-0.7,3.5s-1.2,2.1-2.1,3c-0.9,0.9-2.1,1.6-3.6,2.2
				c-1.5,0.5-3.2,0.8-5.1,0.8h-10.5c-1.8,0-3.2-0.5-4-1.4s-1.2-2.6-1.2-5V29c0-1,0.2-1.9,0.5-2.7c0.4-0.8,0.9-1.4,1.7-1.9
				c0.8-0.5,1.8-0.7,2.9-0.7h10.4c3,0,5.5,0.9,7.5,2.5s3,3.7,3,6.2c0,0.8-0.1,1.5-0.2,2.2c-0.1,0.6-0.3,1.2-0.6,1.7s-0.6,0.9-1,1.3
				S138.8,38.1,138.2,38.5z M132.1,32.3c0-1.3-0.5-2.1-1.5-2.6S128,29,125.7,29v7c1.4,0,2.6-0.1,3.5-0.3c0.9-0.2,1.6-0.6,2.1-1.1
				C131.8,34,132.1,33.3,132.1,32.3z M132.7,44.4c0-1-0.3-1.8-0.8-2.3s-1.3-0.9-2.2-1.2c-1-0.2-2.3-0.3-4-0.3v7.8
				c2.4,0,4.1-0.3,5.3-0.9C132.1,47,132.7,45.9,132.7,44.4z"/>
		</g>
	</g>
	<g>
		
			<radialGradient id="SVGID_4_" cx="165.6" cy="-467.3582" r="20.5791" gradientTransform="matrix(1 0 0 -1 0 -414)" gradientUnits="userSpaceOnUse">
			<stop  offset="0.8262" style="stop-color:#325436;stop-opacity:0.7"/>
			<stop  offset="0.9767" style="stop-color:#325436;stop-opacity:9.386593e-02"/>
			<stop  offset="1" style="stop-color:#325436;stop-opacity:0"/>
		</radialGradient>
		<circle class="st16" cx="165.6" cy="53.4" r="20.6"/>
		<circle class="st14" cx="164.2" cy="52.4" r="20.5"/>
		<g class="st10">
			<path class="st11" d="M167.9,58.5c0,1.8-0.3,3.1-1,3.8c-0.6,0.8-1.6,1.1-2.9,1.1c-1.3,0-2.2-0.3-2.8-1s-0.9-1.9-0.9-3.7v-5.4
				l-5.1-6c-0.9-1.1-1.4-2-1.4-2.7c0-1.2,0.5-2.2,1.4-2.9s1.7-1,2.3-1c0.9,0,1.8,0.4,2.5,1.3l4,4.7l3.4-3.9c1.1-1.3,2.3-2,3.6-2
				c0.9,0,1.7,0.3,2.2,0.8c0.9,0.9,1.4,1.8,1.4,2.6c0,0.5-0.2,1-0.5,1.5s-0.8,1.2-1.5,2l-4.8,5.8v5H167.9z"/>
		</g>
		<g class="st10">
			<path class="st12" d="M167.9,58.5c0,1.8-0.3,3.1-1,3.8c-0.6,0.8-1.6,1.1-2.9,1.1c-1.3,0-2.2-0.3-2.8-1s-0.9-1.9-0.9-3.7v-5.4
				l-5.1-6c-0.9-1.1-1.4-2-1.4-2.7c0-1.2,0.5-2.2,1.4-2.9s1.7-1,2.3-1c0.9,0,1.8,0.4,2.5,1.3l4,4.7l3.4-3.9c1.1-1.3,2.3-2,3.6-2
				c0.9,0,1.7,0.3,2.2,0.8c0.9,0.9,1.4,1.8,1.4,2.6c0,0.5-0.2,1-0.5,1.5s-0.8,1.2-1.5,2l-4.8,5.8v5H167.9z"/>
		</g>
	</g>
</g>
<rect x="-46.4" y="18.4" class="st17" width="33.8" height="21.1"/>
</svg>
