<svg xmlns="http://www.w3.org/2000/svg" viewBox="0 0 288.5626 250.9972"><defs><style>.cls-1{fill:#f7c5c3;}.cls-2{fill:#d24d64;}.cls-11,.cls-3,.cls-8{fill:none;stroke-linecap:round;stroke-linejoin:round;}.cls-3{stroke:#f7c5c3;stroke-width:2.9299px;}.cls-4{fill:#f3a3ac;}.cls-5{fill:#f1909b;}.cls-6{fill:#fff;}.cls-7{fill:#fadce0;}.cls-8{stroke:#f79086;stroke-width:1.9532px;}.cls-9{fill:#af354f;}.cls-10{fill:#231f20;}.cls-11{stroke:#231f20;}</style></defs><title>pigCry</title><g id="Layer_2" data-name="Layer 2"><g id="Pig"><path class="cls-1" d="M171.4922,205.0356c-3.7729,8.8034,8.1412,38.3114,8.1412,38.3114h15.3246s8.8329-31.6179,6.2256-38.3114C198.11,197.1444,177.2389,191.6266,171.4922,205.0356Z"/><path class="cls-2" d="M177.2364,236.9434h19.4065s-3.1091,14.2392-6.135,14.05-3.5682-4.728-3.5682-4.728-.5924,4.5426-2.8619,4.73S177.2364,236.9434,177.2364,236.9434Z"/><path class="cls-3" d="M246.2321,187.5358c.75-8.8823,2.0785-13.5334,15.3672-20.1777s8.3054-21.2619,0-20.5974.6644,18.9363,17.6075,7.9732,1.3289-17.1618,1.3289-17.1618"/><path class="cls-1" d="M201.6649,225.6239,92.1017,232.6383a48.9745,48.9745,0,0,1-48.8309-48.8309V139.62a27.4257,27.4257,0,0,1,27.3453-27.3453H175.8091a72.8417,72.8417,0,0,1,72.6282,72.6282h0C248.4372,211.1572,227.92,225.6239,201.6649,225.6239Z"/><path class="cls-4" d="M174.91,112.4052S159.7131,186.3112,44.2831,140.68c0,0,111.3022,79.7864,144.0143-27.3231C188.2973,113.3567,176.4276,111.5032,174.91,112.4052Z"/><path class="cls-1" d="M218.2645,205.0356c-3.7729,8.8034,8.1412,38.3114,8.1412,38.3114H241.73s8.8329-31.6179,6.2256-38.3114C244.8819,197.1444,224.0112,191.6266,218.2645,205.0356Z"/><path class="cls-2" d="M224.0087,236.9434h19.4065s-3.1091,14.2392-6.135,14.05-3.5682-4.728-3.5682-4.728-.5924,4.5426-2.8619,4.73S224.0087,236.9434,224.0087,236.9434Z"/><path class="cls-1" d="M43.7778,200.4264C37.5842,207.7322,40.3,239.4385,40.3,239.4385l14.6478,4.5039s17.7353-27.6255,17.21-34.79C71.5389,200.7065,53.2116,189.2986,43.7778,200.4264Z"/><path class="cls-2" d="M39.8907,232.6132,58.44,238.3168s-7.1567,12.6966-9.9934,11.6265-2.021-5.5679-2.021-5.5679-1.9013,4.1679-4.1256,3.68S39.8907,232.6132,39.8907,232.6132Z"/><path class="cls-1" d="M88.4954,205.0356c-3.7729,8.8034,8.1412,38.3114,8.1412,38.3114h15.3246s8.8329-31.6179,6.2256-38.3114C115.1128,197.1444,94.2421,191.6266,88.4954,205.0356Z"/><path class="cls-2" d="M94.24,236.9434h19.4065s-3.1091,14.2392-6.135,14.05-3.5682-4.728-3.5682-4.728-.5924,4.5426-2.8619,4.73S94.24,236.9434,94.24,236.9434Z"/><path class="cls-1" d="M41.1707,23.6229c19.2342-37.4561,114.393-30.37,129.578,21.2589s16.9849,133.3763-111.3561,97.1835C-22.2723,119.0353,41.1707,23.6229,41.1707,23.6229Z"/><path class="cls-5" d="M51.8581,4.5468C36.9354,2.1769-16.739,26.5078,5.1965,51.6734c37.3247,42.8209,37.4-20.7471,46.2286-26.1928C66.1893,16.374,71.5145,7.6685,51.8581,4.5468Z"/><path class="cls-5" d="M168.85,25.4993c15.2141,2.73,58.8843,44.2927,29.2266,61.2262-50.4646,28.8135-29.1527-32.6251-35.85-40.8563C151.0255,32.1046,148.8093,21.9028,168.85,25.4993Z"/><path class="cls-6" d="M70.5441,67.7811c-1.012,2.3889-3.581,3.89-5.738,3.3522s-3.0852-2.91-2.0732-5.2986,3.581-3.89,5.738-3.3522S71.5561,65.3923,70.5441,67.7811Z"/><path class="cls-7" d="M43.7278,95.2409C35.0467,130.88,76.8945,132.6474,87.21,120.5558c5.06-5.931,5.5079,5.4876,12.7369,9.8915,2.8023,1.7072,34.8987,21.9654,41.19-16.7823S53.5048,55.1033,43.7278,95.2409Z"/><path class="cls-2" d="M105.5954,101.4547c-7.6637,4.72-6.8484,16.5811,4.7295,16.5263S114.97,95.6811,105.5954,101.4547Z"/><path class="cls-2" d="M80.439,96.4891c6.8326,5.8586,4.1749,17.4472-7.2523,15.5849S72.0809,89.3223,80.439,96.4891Z"/><path class="cls-8" d="M78.0092,137.2533c2.2517-3.678,10.8505-8.9609,18.5588,1.4776"/><path class="cls-4" d="M43.7332,112.1577s20.1238,23.1323,44.622,4.89c5.4451-3.4458,10.9178,6.4862,13.7555,9.5266s18.0736,11.4523,34.3735,1.2669c0,0-4.9,13.2245-24.0289,8.235-19.8164-5.1689-15.8093-13.9211-21.4927-14.1638-7.3444-.3136-20.8262,12.7186-39.8552.2982C42.5509,115.4261,43.7332,112.1577,43.7332,112.1577Z"/><path class="cls-4" d="M54.4835,195.8232s25.9612,3.6235,12.5585,27.7723C67.042,223.5955,87.7571,195.8232,54.4835,195.8232Z"/><path class="cls-4" d="M233.712,196.9182s-18.6415-2.4857-12.6285,31.1159C221.0834,228.0341,203.5117,187.4853,233.712,196.9182Z"/><path class="cls-4" d="M102.4075,196.9182c-10.2333.7492-18.5305,2.0233-9.944,34.8009,0,0-14.3447-31.5821-4.7065-34.8009S102.4075,196.9182,102.4075,196.9182Z"/><polygon class="cls-4" points="174.117 227.388 178.678 227.096 179.683 236.943 177.236 236.943 174.117 227.388"/><path class="cls-9" d="M179.6829,236.9434,182.6,249.7621a55.9688,55.9688,0,0,1-5.3633-12.8187Z"/><path class="cls-2" d="M9.403,56.2146C11.5351,48.87,32.9406,26.774,50.9676,25.8209c-7.3085,11.8965-9.9718,46.97-29.0662,39.5554C14.968,62.439,9.403,56.2146,9.403,56.2146Z"/><path class="cls-2" d="M162.2258,45.8692a6.5551,6.5551,0,0,1,.58.3514c6.7827,4.5337,34.6829,35.139,28.6657,43.9628-6.6938,2.63-31.1333,16.8728-28.0888-26.3428Z"/><path class="cls-10" d="M75.43,51.65A35.6785,35.6785,0,0,1,56.983,62.9463C57.2255,69.93,62.4,75.5133,68.7653,75.5133c6.52,0,11.8054-5.8536,11.8054-13.0743A13.4939,13.4939,0,0,0,75.43,51.65Z"/><path class="cls-11" d="M53.7027,64.1206s16.4639-4.0843,24.2131-14.8974"/><path class="cls-6" d="M70.5441,67.7811c-1.012,2.3889-3.581,3.89-5.738,3.3522s-3.0852-2.91-2.0732-5.2986,3.581-3.89,5.738-3.3522S71.5561,65.3923,70.5441,67.7811Z"/><path class="cls-10" d="M118.5548,59.9641A35.6785,35.6785,0,0,0,137.0013,71.26c-.2425,6.9837-5.4169,12.5671-11.7823,12.5671-6.52,0-11.8054-5.8536-11.8054-13.0743A13.4939,13.4939,0,0,1,118.5548,59.9641Z"/><path class="cls-11" d="M140.2816,72.4344S123.8177,68.35,116.0685,57.537"/><path class="cls-6" d="M125.3038,75.4226c-1.012,2.3889-3.581,3.89-5.738,3.3522s-3.0852-2.91-2.0732-5.2986,3.581-3.89,5.738-3.3522S126.3158,73.0337,125.3038,75.4226Z"/></g></g></svg>