<svg xmlns="http://www.w3.org/2000/svg" viewBox="0 0 101.8479 167.0935"><defs><style>.cls-1,.cls-3{fill:none;}.cls-1,.cls-2,.cls-3{stroke:#8e8e8e;stroke-linecap:round;stroke-linejoin:round;}.cls-1{stroke-width:8px;}.cls-2{fill:#fff;}.cls-2,.cls-3{stroke-width:10px;}</style></defs><title>clickNew</title><g id="Layer_2" data-name="Layer 2"><g id="Layer_1-2" data-name="Layer 1"><line class="cls-1" x1="51.988" y1="4" x2="51.988" y2="30.1357"/><line class="cls-1" x1="97.8479" y1="10.0254" x2="86.8876" y2="33.7519"/><line class="cls-1" x1="4" y1="12.1039" x2="17.0884" y2="34.7263"/><path class="cls-2" d="M86.7685,74.926h0a8.7078,8.7078,0,0,0-8.6823,8.6823v6.046h-.924v-6.046A8.7078,8.7078,0,0,0,68.48,74.926h0a8.7078,8.7078,0,0,0-8.6823,8.6823v6.046h-.924v-6.046a8.7078,8.7078,0,0,0-8.6823-8.6823h0a8.7078,8.7078,0,0,0-8.6823,8.6823V60.7623A9.8514,9.8514,0,0,0,31.6862,50.94H30.1779a9.8514,9.8514,0,0,0-9.8225,9.8225V95.0162a11.8651,11.8651,0,0,0-11.83,11.83V124.73a11.8651,11.8651,0,0,0,11.83,11.83c.1085,0,.2136-.0134.3214-.0164a30.0017,30.0017,0,0,0,29.5728,25.55H65.5566a29.98,29.98,0,0,0,29.8887-29.6769c0-.0366.0056-.0721.0056-.1088v-48.7A8.7078,8.7078,0,0,0,86.7685,74.926Z"/><line class="cls-3" x1="20.3554" y1="95.0162" x2="20.3554" y2="121.6285"/><line class="cls-3" x1="41.5087" y1="83.6083" x2="41.5087" y2="89.808"/></g></g></svg>