<?xml version="1.0" encoding="utf-8"?>
<!-- Generator: Adobe Illustrator 22.1.0, SVG Export Plug-In . SVG Version: 6.00 Build 0)  -->
<svg version="1.1" id="Layer_1" xmlns="http://www.w3.org/2000/svg" xmlns:xlink="http://www.w3.org/1999/xlink" x="0px" y="0px"
	 viewBox="0 0 672.9 479.7" style="enable-background:new 0 0 672.9 479.7;" xml:space="preserve">
<style type="text/css">
	.st0{fill:#F2DF91;}
	.st1{fill:#B4F79F;}
	.st2{fill:none;stroke:#00B90D;stroke-linecap:round;stroke-linejoin:round;}
	.st3{fill:#57AF2E;stroke:#00B90D;stroke-linejoin:round;}
	.st4{fill:#FFFFFF;}
	.st5{fill:#F4E49F;}
	.st6{fill:#684A16;}
	.st7{fill:#9B7A37;}
	.st8{enable-background:new    ;}
	.st9{fill:#494848;}
	.st10{fill:#565556;}
	.st11{fill:#DBD5D7;}
	.st12{fill:#231F20;stroke:#000000;stroke-width:1.2737;stroke-miterlimit:10;}
	.st13{stroke:#000000;stroke-width:0.5;stroke-miterlimit:10;}
	.st14{fill:#FFCE55;}
	.st15{fill:#FFB3C9;}
	.st16{fill:#F4D3E9;}
	.st17{fill:#898785;}
	.st18{fill:#E5E5E5;}
	.st19{fill:#232323;}
	.st20{fill:#F4F3F2;}
</style>
<title>Farm</title>
<g id="Layer_1-2">
	<rect x="-384.9" y="87" class="st0" width="1366" height="171.4"/>
	<g>
		<rect x="-384.9" y="247.5" class="st1" width="1365" height="309.2"/>
		<g>
			<path class="st2" d="M-56,351.6c0,0,3.9,17.1,7.1,20.3"/>
			<path class="st3" d="M-49.2,371.1c0,0-0.6-18.1,3.5-14.7S-49.2,371.1-49.2,371.1z"/>
			<path class="st3" d="M-50.2,370c0,0-13-15-13.2-8.5S-50.2,370-50.2,370z"/>
			<path class="st4" d="M-60.8,349.4c-5-1.5-11-4.1-11.1-6.4c-0.4-6.8,18.2,0.9,18.3,2.9C-53.5,348-54.2,351.4-60.8,349.4z"/>
			<path class="st4" d="M-59.5,343.3c0-5.2,0.9-11.7,3-12.5c6.4-2.3,4.2,17.8,2.3,18.4C-56.1,350-59.5,350.2-59.5,343.3z"/>
			<path class="st4" d="M-53.3,342c5-1.5,11.5-2.5,12.8-0.7c4.1,5.5-15.8,9.1-17,7.5S-59.9,343.9-53.3,342z"/>
			<path class="st4" d="M-50.7,347.7c3.9,3.5,8.2,8.4,7.4,10.5c-2.5,6.3-16.1-8.6-15.3-10.4C-57.9,345.9-55.8,343.1-50.7,347.7z"/>
			<path class="st4" d="M-55.2,352.6c-3.6,3.9-8.5,8.1-10.6,7.2c-6.3-2.6,8.8-16,10.7-15.2S-50.5,347.6-55.2,352.6z"/>
			<circle class="st5" cx="-55.8" cy="347.4" r="4.9"/>
		</g>
		<g>
			<path class="st2" d="M-139.9,553.1c0,0,3.9,17.1,7.1,20.3"/>
			<path class="st3" d="M-133.1,572.6c0,0-0.6-18.1,3.5-14.7C-125.6,561.3-133.1,572.6-133.1,572.6z"/>
			<path class="st3" d="M-134.1,571.5c0,0-13-15-13.2-8.5S-134.1,571.5-134.1,571.5z"/>
			<path class="st4" d="M-144.7,550.9c-5-1.5-11-4.1-11.1-6.4c-0.4-6.8,18.2,0.9,18.3,2.9C-137.4,549.5-138.1,552.9-144.7,550.9z"/>
			<path class="st4" d="M-143.4,544.8c0-5.2,0.9-11.7,3-12.5c6.4-2.3,4.2,17.8,2.3,18.4S-143.5,551.7-143.4,544.8z"/>
			<path class="st4" d="M-137.3,543.5c5-1.5,11.5-2.5,12.8-0.7c4.1,5.5-15.8,9.1-17,7.5S-143.9,545.4-137.3,543.5z"/>
			<path class="st4" d="M-134.6,549.2c3.9,3.5,8.2,8.4,7.4,10.5c-2.5,6.3-16.1-8.6-15.3-10.4C-141.8,547.4-139.7,544.6-134.6,549.2z
				"/>
			<path class="st4" d="M-139.2,554.1c-3.6,3.9-8.5,8.1-10.6,7.2c-6.3-2.6,8.8-16,10.7-15.2C-137.3,546.9-134.5,549.1-139.2,554.1z"
				/>
			<circle class="st5" cx="-139.7" cy="548.9" r="4.9"/>
		</g>
		<g>
			<path class="st2" d="M-323,466.2c0,0-3.9,17.1-7.1,20.3"/>
			<path class="st3" d="M-329.8,485.7c0,0,0.6-18.1-3.5-14.7C-337.3,474.4-329.8,485.7-329.8,485.7z"/>
			<path class="st3" d="M-328.8,484.6c0,0,13-15,13.2-8.5C-315.4,482.6-328.8,484.6-328.8,484.6z"/>
			<path class="st4" d="M-318.2,464.1c5-1.5,11-4.1,11.1-6.4c0.4-6.8-18.2,0.9-18.3,2.9S-324.8,466-318.2,464.1z"/>
			<path class="st4" d="M-319.5,457.9c0-5.2-0.9-11.7-3-12.5c-6.4-2.3-4.2,17.8-2.3,18.4C-322.9,464.6-319.4,464.8-319.5,457.9z"/>
			<path class="st4" d="M-325.7,456.6c-5-1.5-11.5-2.5-12.8-0.7c-4.1,5.5,15.8,9.1,17,7.5S-319.1,458.5-325.7,456.6z"/>
			<path class="st4" d="M-328.3,462.3c-3.9,3.5-8.2,8.4-7.4,10.5c2.5,6.3,16.1-8.6,15.3-10.4C-321.1,460.5-323.2,457.7-328.3,462.3z
				"/>
			<path class="st4" d="M-323.8,467.3c3.6,3.9,8.5,8.1,10.6,7.2c6.3-2.6-8.8-16-10.7-15.2S-328.4,462.2-323.8,467.3z"/>
			<ellipse class="st5" cx="-323.1" cy="462" rx="4.9" ry="4.9"/>
		</g>
		<g>
			<path class="st2" d="M-273.6,300.8c0,0,3.9,17.1,7.1,20.3"/>
			<path class="st3" d="M-266.8,320.4c0,0-0.6-18.1,3.5-14.7C-259.2,309-266.8,320.4-266.8,320.4z"/>
			<path class="st3" d="M-267.8,319.3c0,0-13-14.9-13.2-8.5C-281.2,317.2-267.8,319.3-267.8,319.3z"/>
			<path class="st4" d="M-278.3,298.7c-5-1.5-11-4.1-11.1-6.4c-0.4-6.8,18.2,0.9,18.3,2.9C-271.1,297.2-271.8,300.6-278.3,298.7z"/>
			<path class="st4" d="M-277.1,292.5c0-5.2,0.9-11.7,3-12.5c6.4-2.3,4.2,17.8,2.3,18.4C-273.7,299.2-277.1,299.4-277.1,292.5z"/>
			<path class="st4" d="M-270.9,291.2c5-1.5,11.5-2.5,12.8-0.7c4.1,5.5-15.8,9.1-17,7.5C-276.2,296.4-277.5,293.1-270.9,291.2z"/>
			<path class="st4" d="M-268.3,296.9c3.9,3.5,8.2,8.4,7.4,10.5c-2.5,6.3-16.1-8.6-15.3-10.4C-275.5,295.1-273.4,292.3-268.3,296.9z
				"/>
			<path class="st4" d="M-272.8,301.9c-3.6,3.9-8.5,8.1-10.6,7.2c-6.3-2.6,8.8-16,10.7-15.2C-270.9,294.7-268.1,296.8-272.8,301.9z"
				/>
			<circle class="st5" cx="-273.4" cy="296.6" r="4.9"/>
		</g>
		<g>
			<path class="st2" d="M161.6,375.4c0,0,3.9,17.1,7.1,20.3"/>
			<path class="st3" d="M168.4,394.9c0,0-0.6-18.1,3.5-14.7C175.9,383.5,168.4,394.9,168.4,394.9z"/>
			<path class="st3" d="M167.4,393.8c0,0-13-15-13.2-8.5S167.4,393.8,167.4,393.8z"/>
			<path class="st4" d="M156.8,373.2c-5-1.5-11-4.1-11.1-6.4c-0.4-6.8,18.2,0.9,18.3,2.9S163.4,375.2,156.8,373.2z"/>
			<path class="st4" d="M158.1,367c0-5.2,0.9-11.7,3-12.5c6.4-2.3,4.2,17.8,2.3,18.4S158,373.9,158.1,367z"/>
			<path class="st4" d="M164.3,365.7c5-1.5,11.5-2.5,12.8-0.7c4.1,5.5-15.8,9.1-17,7.5S157.7,367.6,164.3,365.7z"/>
			<path class="st4" d="M166.9,371.4c3.9,3.5,8.2,8.4,7.4,10.5c-2.5,6.3-16.1-8.6-15.3-10.4S161.8,366.8,166.9,371.4z"/>
			<path class="st4" d="M162.4,376.4c-3.6,3.9-8.5,8.1-10.6,7.2c-6.3-2.6,8.8-16,10.7-15.2C164.3,369.2,167,371.3,162.4,376.4z"/>
			<circle class="st5" cx="161.8" cy="371.1" r="4.9"/>
		</g>
		<g>
			<path class="st2" d="M480.3,541.9c0,0,3.9,17.1,7.1,20.3"/>
			<path class="st3" d="M487.2,561.4c0,0-0.6-18.1,3.5-14.7C494.7,550.1,487.2,561.4,487.2,561.4z"/>
			<path class="st3" d="M486.2,560.3c0,0-13-15-13.2-8.5S486.2,560.3,486.2,560.3z"/>
			<path class="st4" d="M475.6,539.8c-5-1.5-11-4.1-11.1-6.4c-0.4-6.8,18.2,0.9,18.3,2.9S482.2,541.7,475.6,539.8z"/>
			<path class="st4" d="M476.8,533.6c0-5.2,0.9-11.7,3-12.5c6.4-2.3,4.2,17.8,2.3,18.4S476.8,540.5,476.8,533.6z"/>
			<path class="st4" d="M483,532.3c5-1.5,11.5-2.5,12.8-0.7c4.1,5.5-15.8,9.1-17,7.5S476.4,534.2,483,532.3z"/>
			<path class="st4" d="M485.7,538c3.9,3.5,8.2,8.4,7.4,10.5c-2.5,6.3-16.1-8.6-15.3-10.4C478.4,536.2,480.5,533.4,485.7,538z"/>
			<path class="st4" d="M481.1,542.9c-3.6,3.9-8.5,8.1-10.6,7.2c-6.3-2.6,8.8-16,10.7-15.2C483,535.7,485.8,537.9,481.1,542.9z"/>
			<circle class="st5" cx="480.5" cy="537.7" r="4.9"/>
		</g>
		<g>
			<path class="st2" d="M288.1,564.5c0,0-3.9,17.1-7.1,20.3"/>
			<path class="st3" d="M281.3,584.1c0,0,0.6-18.1-3.5-14.7C273.8,572.7,281.3,584.1,281.3,584.1z"/>
			<path class="st3" d="M282.3,583c0,0,13-15,13.2-8.5S282.3,583,282.3,583z"/>
			<path class="st4" d="M292.9,562.4c5-1.5,11-4.1,11.1-6.4c0.4-6.8-18.2,0.9-18.3,2.9S286.3,564.4,292.9,562.4z"/>
			<path class="st4" d="M291.6,556.3c0-5.2-0.9-11.7-3-12.5c-6.4-2.3-4.2,17.8-2.3,18.4S291.7,563.1,291.6,556.3z"/>
			<path class="st4" d="M285.4,554.9c-5-1.5-11.5-2.5-12.8-0.7c-4.1,5.5,15.8,9.1,17,7.5S292,556.8,285.4,554.9z"/>
			<path class="st4" d="M282.8,560.6c-3.9,3.5-8.2,8.4-7.4,10.5c2.5,6.3,16.1-8.6,15.3-10.4C290,558.8,287.9,556,282.8,560.6z"/>
			<path class="st4" d="M287.3,565.6c3.6,3.9,8.5,8.1,10.6,7.2c6.3-2.6-8.8-16-10.7-15.2C285.4,558.4,282.6,560.5,287.3,565.6z"/>
			<circle class="st5" cx="287.9" cy="560.3" r="4.9"/>
		</g>
		<g>
			<path class="st2" d="M448.4,331c0,0,3.9,17.1,7.1,20.3"/>
			<path class="st3" d="M455.2,350.5c0,0-0.6-18.1,3.5-14.7C462.8,339.1,455.2,350.5,455.2,350.5z"/>
			<path class="st3" d="M454.2,349.4c0,0-13-15-13.2-8.5S454.2,349.4,454.2,349.4z"/>
			<path class="st4" d="M443.6,328.8c-5-1.5-11-4.1-11.1-6.4c-0.4-6.8,18.2,0.9,18.3,2.9C450.9,327.4,450.2,330.8,443.6,328.8z"/>
			<path class="st4" d="M444.9,322.7c0-5.2,0.9-11.7,3-12.5c6.4-2.3,4.2,17.8,2.3,18.4C448.3,329.3,444.8,329.6,444.9,322.7z"/>
			<path class="st4" d="M451.1,321.3c5-1.5,11.5-2.5,12.8-0.7c4.1,5.5-15.8,9.1-17,7.5S444.5,323.2,451.1,321.3z"/>
			<path class="st4" d="M453.7,327c3.9,3.5,8.2,8.4,7.4,10.5c-2.5,6.3-16.1-8.6-15.3-10.4S448.6,322.5,453.7,327z"/>
			<path class="st4" d="M449.2,332c-3.6,3.9-8.5,8.1-10.6,7.2c-6.3-2.6,8.8-16,10.7-15.2C451.1,324.8,453.9,326.9,449.2,332z"/>
			<circle class="st5" cx="448.6" cy="326.7" r="4.9"/>
		</g>
		<g>
			<path class="st2" d="M977.1,485.7c0,0,3.9,17.1,7.1,20.3"/>
			<path class="st3" d="M983.9,505.2c0,0-0.6-18.1,3.5-14.7C991.4,493.9,983.9,505.2,983.9,505.2z"/>
			<path class="st3" d="M982.9,504.1c0,0-13-15-13.2-8.5S982.9,504.1,982.9,504.1z"/>
			<path class="st4" d="M972.3,483.5c-5-1.5-11-4.1-11.1-6.4c-0.4-6.8,18.2,0.9,18.3,2.9C979.6,482.1,978.9,485.5,972.3,483.5z"/>
			<path class="st4" d="M973.6,477.4c0-5.2,0.9-11.7,3-12.5c6.4-2.3,4.2,17.8,2.3,18.4C977,484,973.5,484.3,973.6,477.4z"/>
			<path class="st4" d="M979.8,476c5-1.5,11.5-2.5,12.8-0.7c4.1,5.5-15.8,9.1-17,7.5S973.1,477.9,979.8,476z"/>
			<path class="st4" d="M982.4,481.8c3.9,3.5,8.2,8.4,7.4,10.5c-2.5,6.3-16.1-8.6-15.3-10.4S977.2,477.2,982.4,481.8z"/>
			<path class="st4" d="M977.9,486.7c-3.6,3.9-8.5,8.1-10.6,7.2c-6.3-2.6,8.8-16,10.7-15.2S982.5,481.6,977.9,486.7z"/>
			<circle class="st5" cx="977.3" cy="481.4" r="4.9"/>
		</g>
		<g>
			<path class="st2" d="M625.2,378c0,0,3.9,17.1,7.1,20.3"/>
			<path class="st3" d="M632,397.5c0,0-0.6-18.1,3.5-14.7C639.5,386.2,632,397.5,632,397.5z"/>
			<path class="st3" d="M631,396.4c0,0-13-15-13.2-8.5S631,396.4,631,396.4z"/>
			<path class="st4" d="M620.4,375.8c-5-1.5-11-4.1-11.1-6.4c-0.4-6.8,18.2,0.9,18.3,2.9C627.7,374.4,627,377.8,620.4,375.8z"/>
			<path class="st4" d="M621.7,369.7c0-5.2,0.9-11.7,3-12.5c6.4-2.3,4.2,17.8,2.3,18.4S621.6,376.6,621.7,369.7z"/>
			<path class="st4" d="M627.9,368.3c5-1.5,11.5-2.5,12.8-0.7c4.1,5.5-15.8,9.1-17,7.5S621.3,370.2,627.9,368.3z"/>
			<path class="st4" d="M630.5,374.1c3.9,3.5,8.2,8.4,7.4,10.5c-2.5,6.3-16.1-8.6-15.3-10.4S625.4,369.5,630.5,374.1z"/>
			<path class="st4" d="M626,379c-3.6,3.9-8.5,8.1-10.6,7.2c-6.3-2.6,8.8-16,10.7-15.2C627.9,371.8,630.6,374,626,379z"/>
			<circle class="st5" cx="625.4" cy="373.7" r="4.9"/>
		</g>
		<g>
			<path class="st2" d="M762.1,542.2c0,0,3.9,17.1,7.1,20.3"/>
			<path class="st3" d="M768.9,561.7c0,0-0.6-18.1,3.5-14.7C776.5,550.4,768.9,561.7,768.9,561.7z"/>
			<path class="st3" d="M767.9,560.6c0,0-13-15-13.2-8.5S767.9,560.6,767.9,560.6z"/>
			<path class="st4" d="M757.3,540.1c-5-1.5-11-4.1-11.1-6.4c-0.4-6.8,18.2,0.9,18.3,2.9S763.9,542,757.3,540.1z"/>
			<path class="st4" d="M758.6,533.9c0-5.2,0.9-11.7,3-12.5c6.4-2.3,4.2,17.8,2.3,18.4C762,540.6,758.5,540.8,758.6,533.9z"/>
			<path class="st4" d="M764.8,532.6c5-1.5,11.5-2.5,12.8-0.7c4.1,5.5-15.8,9.1-17,7.5C759.4,537.7,758.2,534.5,764.8,532.6z"/>
			<path class="st4" d="M767.4,538.3c3.9,3.5,8.2,8.4,7.4,10.5c-2.5,6.3-16.1-8.6-15.3-10.4C760.2,536.5,762.3,533.7,767.4,538.3z"
				/>
			<path class="st4" d="M762.9,543.2c-3.6,3.9-8.5,8.1-10.6,7.2c-6.3-2.6,8.8-16,10.7-15.2C764.8,536,767.6,538.2,762.9,543.2z"/>
			<circle class="st5" cx="762.3" cy="538" r="4.9"/>
		</g>
		<g>
			<path class="st2" d="M886.5,328.8c0,0,3.9,17.1,7.1,20.3"/>
			<path class="st3" d="M893.3,348.3c0,0-0.6-18.1,3.5-14.7C900.8,337,893.3,348.3,893.3,348.3z"/>
			<path class="st3" d="M892.3,347.2c0,0-13-15-13.2-8.5S892.3,347.2,892.3,347.2z"/>
			<path class="st4" d="M881.7,326.6c-5-1.5-11-4.1-11.1-6.4c-0.4-6.8,18.2,0.9,18.3,2.9C889,325.2,888.3,328.6,881.7,326.6z"/>
			<path class="st4" d="M883,320.5c0-5.2,0.9-11.7,3-12.5c6.4-2.3,4.2,17.8,2.3,18.4C886.4,327.2,882.9,327.4,883,320.5z"/>
			<path class="st4" d="M889.1,319.2c5-1.5,11.5-2.5,12.8-0.7c4.1,5.5-15.8,9.1-17,7.5S882.5,321.1,889.1,319.2z"/>
			<path class="st4" d="M891.8,324.9c3.9,3.5,8.2,8.4,7.4,10.5c-2.5,6.3-16.1-8.6-15.3-10.4S886.7,320.3,891.8,324.9z"/>
			<path class="st4" d="M887.2,329.8c-3.6,3.9-8.5,8.1-10.6,7.2c-6.3-2.6,8.8-16,10.7-15.2C889.1,322.6,891.9,324.8,887.2,329.8z"/>
			<circle class="st5" cx="886.7" cy="324.6" r="4.9"/>
		</g>
		<g>
			<path class="st2" d="M45.2,486.8c0,0,3.9,17.1,7.1,20.3"/>
			<path class="st3" d="M52,506.4c0,0-0.6-18.1,3.5-14.7C59.5,495,52,506.4,52,506.4z"/>
			<path class="st3" d="M51,505.3c0,0-13-15-13.2-8.5S51,505.3,51,505.3z"/>
			<path class="st4" d="M40.4,484.7c-5-1.5-11-4.1-11.1-6.4c-0.4-6.8,18.2,0.9,18.3,2.9C47.7,483.2,47,486.7,40.4,484.7z"/>
			<path class="st4" d="M41.7,478.6c0-5.2,0.9-11.7,3-12.5c6.4-2.3,4.2,17.8,2.3,18.4S41.6,485.4,41.7,478.6z"/>
			<path class="st4" d="M47.8,477.2c5-1.5,11.5-2.5,12.8-0.7c4.1,5.5-15.8,9.1-17,7.5C42.5,482.4,41.2,479.1,47.8,477.2z"/>
			<path class="st4" d="M50.5,482.9c3.9,3.5,8.2,8.4,7.4,10.5c-2.5,6.3-16.1-8.6-15.3-10.4C43.3,481.1,45.4,478.3,50.5,482.9z"/>
			<path class="st4" d="M46,487.9c-3.6,3.9-8.5,8.1-10.6,7.2c-6.3-2.6,8.8-16,10.7-15.2S50.6,482.8,46,487.9z"/>
			<circle class="st5" cx="45.4" cy="482.6" r="4.9"/>
		</g>
		<g>
			<path class="st6" d="M-341,245.3c-20.3,0-39.6,0.2-56.9,0.6v13.8c17.3,0.4,36.5,0.6,56.9,0.6H977.2v-15.1L-341,245.3L-341,245.3z
				"/>
			<path class="st6" d="M-341,286.9c-20.3,0-39.6,0.2-56.9,0.6v13.8c17.3,0.4,36.5,0.6,56.9,0.6H977.2v-15.1L-341,286.9z"/>
			<path class="st7" d="M-312.9,226h-2.9c-6.2,0-11.1,4.2-11.1,9.2v91h25v-91C-301.8,230.2-306.8,226-312.9,226z"/>
			<path class="st7" d="M-241.9,226h-2.9c-6.2,0.1-11.1,4.2-11.1,9.2v91h25v-91C-230.8,230.1-235.7,226-241.9,226z"/>
			<path class="st7" d="M-170.8,226h-2.9c-6.2,0.1-11.1,4.2-11.1,9.2v91h25v-91C-159.7,230.1-164.7,226-170.8,226z"/>
			<path class="st7" d="M469.4,226h-2.9c-6.2,0.1-11.1,4.2-11.1,9.2v91h25v-91C480.5,230.1,475.5,226,469.4,226z"/>
			<path class="st7" d="M540.4,226h-2.9c-6.2,0.1-11.1,4.2-11.1,9.2v91h25v-91C551.5,230.1,546.6,226,540.4,226z"/>
			<path class="st7" d="M611.4,226h-2.9c-6.2,0.1-11.1,4.2-11.1,9.2v91h25v-91C622.5,230.1,617.6,226,611.4,226z"/>
			<path class="st7" d="M682.5,226h-2.9c-6.1,0.1-11.1,4.2-11,9.2v91h25v-91C693.6,230.1,688.6,226,682.5,226z"/>
			<path class="st7" d="M-99.5,226h-2.9c-6.2,0.1-11.1,4.2-11.1,9.2v91h25v-91C-88.4,230.2-93.3,226-99.5,226z"/>
			<path class="st7" d="M-28.5,226h-2.9c-6.2,0.1-11.1,4.2-11.1,9.2v91h25v-91C-17.4,230.2-22.3,226-28.5,226z"/>
			<path class="st7" d="M42.6,226h-2.9c-6.2,0.1-11.1,4.2-11.1,9.2v91h25v-91C53.7,230.1,48.7,226,42.6,226z"/>
			<path class="st7" d="M113.6,226h-2.9c-6.2,0.1-11.1,4.2-11.1,9.2v91h25v-91C124.7,230.1,119.7,226,113.6,226z"/>
			<path class="st7" d="M184.9,226H182c-6.2,0.1-11.1,4.2-11.1,9.2v91h25v-91C196,230.1,191.1,226,184.9,226z"/>
			<path class="st7" d="M256,226h-2.9c-6.2,0.1-11.1,4.2-11.1,9.2v91h25v-91C267.1,230.1,262.1,226,256,226z"/>
			<path class="st7" d="M327,226h-2.9c-6.2,0.1-11.1,4.2-11.1,9.2v91h25v-91C338.1,230.1,333.1,226,327,226z"/>
			<path class="st7" d="M398,226h-2.9c-6.2,0.1-11.1,4.2-11.1,9.2v91h25v-91C409.1,230.1,404.2,226,398,226z"/>
			<path class="st7" d="M753.8,226h-2.9c-6.2,0.1-11.1,4.2-11.1,9.2v91h25v-91C764.9,230.2,760,226,753.8,226z"/>
			<path class="st7" d="M824.8,226h-2.9c-6.2,0.1-11.1,4.2-11.1,9.2v91h25v-91C835.9,230.2,831,226,824.8,226z"/>
			<path class="st7" d="M895.9,226H893c-6.2,0.1-11.1,4.2-11.1,9.2v91h25v-91C907,230.1,902,226,895.9,226z"/>
			<path class="st7" d="M966.9,226H964c-6.2,0.1-11.1,4.2-11.1,9.2v91H978v-91C978,230.1,973.1,226,966.9,226z"/>
			<path class="st7" d="M-383.9,226h-2.9c-6.2,0.1-11.1,4.2-11.1,9.2v91h25v-91C-372.8,230.1-377.8,226-383.9,226z"/>
			<path class="st7" d="M113.3,226h-2.9c-6.2,0-11.3,13.8-11.3,30.7v303.5h25.5V256.7C124.6,239.8,119.5,226,113.3,226z"/>
			<path class="st7" d="M540.7,226h-2.9c-6.2,0-11.3,13.8-11.3,30.7v303.5H552V256.7C552,239.8,546.9,226,540.7,226z"/>
		</g>
	</g>
	<g>
		<rect x="-384.9" y="-211.3" class="st1" width="1366" height="301.7"/>
		<g>
			<path class="st2" d="M941.2-184.6c0,0,3.9,17.1,7.1,20.3"/>
			<path class="st3" d="M948-165c0,0-0.6-18.1,3.5-14.7C955.6-176.4,948-165,948-165z"/>
			<path class="st3" d="M947-166.1c0,0-13-15-13.2-8.5S947-166.1,947-166.1z"/>
			<path class="st4" d="M936.4-186.7c-5-1.5-11-4.1-11.1-6.4c-0.4-6.8,18.2,0.9,18.3,2.9S943-184.7,936.4-186.7z"/>
			<path class="st4" d="M937.7-192.8c0-5.2,0.9-11.7,3-12.5c6.4-2.3,4.2,17.8,2.3,18.4C941.1-186.2,937.7-186,937.7-192.8z"/>
			<path class="st4" d="M943.9-194.2c5-1.5,11.5-2.5,12.8-0.7c4.1,5.5-15.8,9.1-17,7.5C938.6-189,937.3-192.3,943.9-194.2z"/>
			<path class="st4" d="M946.5-188.5c3.9,3.5,8.2,8.4,7.4,10.5c-2.5,6.3-16.1-8.6-15.3-10.4S941.4-193.1,946.5-188.5z"/>
			<path class="st4" d="M942-183.5c-3.6,3.9-8.5,8.1-10.6,7.2c-6.3-2.6,8.8-16,10.7-15.2C943.9-190.7,946.7-188.6,942-183.5z"/>
			<circle class="st5" cx="941.4" cy="-188.8" r="4.9"/>
		</g>
		<g>
			<path class="st2" d="M605.8-185.2c0,0,3.9,17.1,7.1,20.3"/>
			<path class="st3" d="M612.7-165.6c0,0-0.6-18.1,3.5-14.7S612.7-165.6,612.7-165.6z"/>
			<path class="st3" d="M611.6-166.7c0,0-13-15-13.2-8.5S611.6-166.7,611.6-166.7z"/>
			<path class="st4" d="M601.1-187.3c-5-1.5-11-4.1-11.1-6.4c-0.4-6.8,18.2,0.9,18.3,2.9S607.7-185.3,601.1-187.3z"/>
			<path class="st4" d="M602.3-193.5c0-5.2,0.9-11.7,3-12.5c6.4-2.3,4.2,17.8,2.3,18.4C605.8-186.8,602.3-186.6,602.3-193.5z"/>
			<path class="st4" d="M608.5-194.8c5-1.5,11.5-2.5,12.8-0.7c4.1,5.5-15.8,9.1-17,7.5S601.9-192.9,608.5-194.8z"/>
			<path class="st4" d="M611.1-189.1c3.9,3.5,8.2,8.4,7.4,10.5c-2.5,6.3-16.1-8.6-15.3-10.4C604-190.8,606-193.6,611.1-189.1z"/>
			<path class="st4" d="M606.6-184.1c-3.6,3.9-8.5,8.1-10.6,7.2c-6.3-2.6,8.8-16,10.7-15.2S611.3-189.2,606.6-184.1z"/>
			<circle class="st5" cx="606" cy="-189.4" r="4.9"/>
		</g>
		<g>
			<path class="st2" d="M744.9-84.9c0,0,3.9,17.1,7.1,20.3"/>
			<path class="st3" d="M751.7-65.4c0,0-0.6-18.1,3.5-14.7C759.2-76.8,751.7-65.4,751.7-65.4z"/>
			<path class="st3" d="M750.7-66.5c0,0-13-15-13.2-8.5S750.7-66.5,750.7-66.5z"/>
			<path class="st4" d="M740.1-87.1c-5-1.5-11-4.1-11.1-6.4c-0.4-6.8,18.2,0.9,18.3,2.9S746.7-85.1,740.1-87.1z"/>
			<path class="st4" d="M741.4-93.2c0-5.2,0.9-11.7,3-12.5c6.4-2.3,4.2,17.8,2.3,18.4C744.8-86.6,741.3-86.3,741.4-93.2z"/>
			<path class="st4" d="M747.6-94.6c5-1.5,11.5-2.5,12.8-0.7c4.1,5.5-15.8,9.1-17,7.5S741-92.7,747.6-94.6z"/>
			<path class="st4" d="M750.2-88.8c3.9,3.5,8.2,8.4,7.4,10.5c-2.5,6.3-16.1-8.6-15.3-10.4S745.1-93.4,750.2-88.8z"/>
			<path class="st4" d="M745.7-83.9c-3.6,3.9-8.5,8.1-10.6,7.2c-6.3-2.6,8.8-16,10.7-15.2C747.6-91.1,750.3-88.9,745.7-83.9z"/>
			<circle class="st5" cx="745.1" cy="-89.2" r="4.9"/>
		</g>
		<g>
			<path class="st2" d="M480.3-118.8c0,0,3.9,17.1,7.1,20.3"/>
			<path class="st3" d="M487.2-99.3c0,0-0.6-18.1,3.5-14.7C494.7-110.6,487.2-99.3,487.2-99.3z"/>
			<path class="st3" d="M486.1-100.4c0,0-13-15-13.2-8.5S486.1-100.4,486.1-100.4z"/>
			<path class="st4" d="M475.6-121c-5-1.5-11-4.1-11.1-6.4c-0.4-6.8,18.2,0.9,18.3,2.9C482.9-122.4,482.2-119,475.6-121z"/>
			<path class="st4" d="M476.8-127.1c0-5.2,0.9-11.7,3-12.5c6.4-2.3,4.2,17.8,2.3,18.4S476.8-120.2,476.8-127.1z"/>
			<path class="st4" d="M483-128.5c5-1.5,11.5-2.5,12.8-0.7c4.1,5.5-15.8,9.1-17,7.5C477.7-123.3,476.4-126.6,483-128.5z"/>
			<path class="st4" d="M485.6-122.7c3.9,3.5,8.2,8.4,7.4,10.5c-2.5,6.3-16.1-8.6-15.3-10.4C478.4-124.5,480.5-127.3,485.6-122.7z"
				/>
			<path class="st4" d="M481.1-117.8c-3.6,3.9-8.5,8.1-10.6,7.2c-6.3-2.6,8.8-16,10.7-15.2C483-125,485.8-122.8,481.1-117.8z"/>
			<circle class="st5" cx="480.5" cy="-123" r="4.9"/>
		</g>
		<g>
			<path class="st2" d="M109.6-181.9c0,0,3.9,17.1,7.1,20.3"/>
			<path class="st3" d="M116.4-162.4c0,0-0.6-18.1,3.5-14.7C123.9-173.7,116.4-162.4,116.4-162.4z"/>
			<path class="st3" d="M115.4-163.5c0,0-13-15-13.2-8.5S115.4-163.5,115.4-163.5z"/>
			<path class="st4" d="M104.8-184.1c-5-1.5-11-4.1-11.1-6.4c-0.4-6.8,18.2,0.9,18.3,2.9C112.1-185.5,111.4-182.1,104.8-184.1z"/>
			<path class="st4" d="M106-190.2c0-5.2,0.9-11.7,3-12.5c6.4-2.3,4.2,17.8,2.3,18.4C109.5-183.6,106-183.3,106-190.2z"/>
			<path class="st4" d="M112.2-191.6c5-1.5,11.5-2.5,12.8-0.7c4.1,5.5-15.8,9.1-17,7.5C106.9-186.4,105.6-189.7,112.2-191.6z"/>
			<path class="st4" d="M114.9-185.8c3.9,3.5,8.2,8.4,7.4,10.5c-2.5,6.3-16.1-8.6-15.3-10.4C107.6-187.6,109.7-190.4,114.9-185.8z"
				/>
			<path class="st4" d="M110.3-180.9c-3.6,3.9-8.5,8.1-10.6,7.2c-6.3-2.6,8.8-16,10.7-15.2S115-185.9,110.3-180.9z"/>
			<circle class="st5" cx="109.7" cy="-186.2" r="4.9"/>
		</g>
		<g>
			<path class="st2" d="M342.7-185.2c0,0,3.9,17.1,7.1,20.3"/>
			<path class="st3" d="M349.5-165.7c0,0-0.6-18.1,3.5-14.7S349.5-165.7,349.5-165.7z"/>
			<path class="st3" d="M348.5-166.8c0,0-13-15-13.2-8.5S348.5-166.8,348.5-166.8z"/>
			<path class="st4" d="M338-187.4c-5-1.5-11-4.1-11.1-6.4c-0.4-6.8,18.2,0.9,18.3,2.9C345.2-188.8,344.5-185.4,338-187.4z"/>
			<path class="st4" d="M339.2-193.5c0-5.2,0.9-11.7,3-12.5c6.4-2.3,4.2,17.8,2.3,18.4C342.6-186.8,339.2-186.6,339.2-193.5z"/>
			<path class="st4" d="M345.4-194.9c5-1.5,11.5-2.5,12.8-0.7c4.1,5.5-15.8,9.1-17,7.5C340.1-189.7,338.8-192.9,345.4-194.9z"/>
			<path class="st4" d="M348-189.1c3.9,3.5,8.2,8.4,7.4,10.5c-2.5,6.3-16.1-8.6-15.3-10.4C340.9-190.8,342.9-193.7,348-189.1z"/>
			<path class="st4" d="M343.5-184.2c-3.6,3.9-8.5,8.1-10.6,7.2c-6.3-2.6,8.8-16,10.7-15.2S348.2-189.2,343.5-184.2z"/>
			<circle class="st5" cx="342.9" cy="-189.4" r="4.9"/>
		</g>
		<g>
			<path class="st2" d="M229.9-41.8c0,0,3.9,17.1,7.1,20.3"/>
			<path class="st3" d="M236.7-22.2c0,0-0.6-18.1,3.5-14.7C244.2-33.6,236.7-22.2,236.7-22.2z"/>
			<path class="st3" d="M235.7-23.3c0,0-13-15-13.2-8.5S235.7-23.3,235.7-23.3z"/>
			<path class="st4" d="M225.1-43.9c-5-1.5-11-4.1-11.1-6.4c-0.4-6.8,18.2,0.9,18.3,2.9S231.7-41.9,225.1-43.9z"/>
			<path class="st4" d="M226.4-50c0-5.2,0.9-11.7,3-12.5c6.4-2.3,4.2,17.8,2.3,18.4C229.8-43.3,226.3-43.2,226.4-50z"/>
			<path class="st4" d="M232.6-51.4c5-1.5,11.5-2.5,12.8-0.7c4.1,5.5-15.8,9.1-17,7.5S226-49.5,232.6-51.4z"/>
			<path class="st4" d="M235.2-45.7c3.9,3.5,8.2,8.4,7.4,10.5c-2.5,6.3-16.1-8.6-15.3-10.4C228-47.5,230.1-50.2,235.2-45.7z"/>
			<path class="st4" d="M230.7-40.7c-3.6,3.9-8.5,8.1-10.6,7.2c-6.3-2.6,8.8-16,10.7-15.2C232.6-47.9,235.3-45.8,230.7-40.7z"/>
			<circle class="st5" cx="230.1" cy="-46" r="4.9"/>
		</g>
		<g>
			<path class="st2" d="M-103.6-83.5c0,0,3.9,17.1,7.1,20.3"/>
			<path class="st3" d="M-96.8-63.9c0,0-0.6-18.1,3.5-14.7C-89.2-75.3-96.8-63.9-96.8-63.9z"/>
			<path class="st3" d="M-97.8-65c0,0-13-15-13.2-8.5C-111.2-67.1-97.8-65-97.8-65z"/>
			<path class="st4" d="M-108.4-85.6c-5-1.5-11-4.1-11.1-6.4c-0.4-6.8,18.2,0.9,18.3,2.9S-101.8-83.7-108.4-85.6z"/>
			<path class="st4" d="M-107.1-91.8c0-5.2,0.9-11.7,3-12.5c6.4-2.3,4.2,17.8,2.3,18.4C-103.7-85.1-107.2-84.9-107.1-91.8z"/>
			<path class="st4" d="M-100.9-93.1c5-1.5,11.5-2.5,12.8-0.7c4.1,5.5-15.8,9.1-17,7.5S-107.5-91.2-100.9-93.1z"/>
			<path class="st4" d="M-98.3-87.4c3.9,3.5,8.2,8.4,7.4,10.5c-2.5,6.3-16.1-8.6-15.3-10.4C-105.5-89.2-103.4-92-98.3-87.4z"/>
			<path class="st4" d="M-102.8-82.4c-3.6,3.9-8.5,8.1-10.6,7.2c-6.3-2.6,8.8-16,10.7-15.2S-98.1-87.5-102.8-82.4z"/>
			<circle class="st5" cx="-103.4" cy="-87.7" r="4.9"/>
		</g>
		<g>
			<path class="st2" d="M-342.5-175.4c0,0-3.9,17.1-7.1,20.3"/>
			<path class="st3" d="M-349.3-155.8c0,0,0.6-18.1-3.5-14.7C-356.9-167.2-349.3-155.8-349.3-155.8z"/>
			<path class="st3" d="M-348.3-156.9c0,0,13-15,13.2-8.5C-334.9-158.9-348.3-156.9-348.3-156.9z"/>
			<path class="st4" d="M-337.8-177.5c5-1.5,11-4.1,11.1-6.4c0.4-6.8-18.2,0.9-18.3,2.9C-345.1-179-344.3-175.5-337.8-177.5z"/>
			<path class="st4" d="M-339-183.6c0-5.2-0.9-11.7-3-12.5c-6.4-2.3-4.2,17.8-2.3,18.4C-342.4-177.1-339-176.8-339-183.6z"/>
			<path class="st4" d="M-345.2-185c-5-1.5-11.5-2.5-12.8-0.7c-4.1,5.5,15.8,9.1,17,7.5C-339.9-179.8-338.6-183.1-345.2-185z"/>
			<path class="st4" d="M-347.8-179.3c-3.9,3.5-8.2,8.4-7.4,10.5c2.5,6.3,16.1-8.6,15.3-10.4C-340.7-181-342.7-183.8-347.8-179.3z"
				/>
			<path class="st4" d="M-343.3-174.3c3.6,3.9,8.5,8.1,10.6,7.2c6.3-2.6-8.8-16-10.7-15.2C-345.3-181.5-348-179.4-343.3-174.3z"/>
			<circle class="st5" cx="-342.7" cy="-179.6" r="4.9"/>
		</g>
		<g>
			<path class="st2" d="M-5.1-191c0,0,3.9,17.1,7.1,20.3"/>
			<path class="st3" d="M1.7-171.5c0,0-0.6-18.1,3.5-14.7C9.3-182.8,1.7-171.5,1.7-171.5z"/>
			<path class="st3" d="M0.7-172.6c0,0-13-15-13.2-8.5S0.7-172.6,0.7-172.6z"/>
			<path class="st4" d="M-9.8-193.2c-5-1.5-11-4.1-11.1-6.4c-0.4-6.8,18.2,0.9,18.3,2.9C-2.6-194.7-3.3-191.2-9.8-193.2z"/>
			<path class="st4" d="M-8.6-199.3c0-5.2,0.9-11.7,3-12.5c6.4-2.3,4.2,17.8,2.3,18.4C-5.2-192.7-8.6-192.5-8.6-199.3z"/>
			<path class="st4" d="M-2.4-200.7c5-1.5,11.5-2.5,12.8-0.7c4.1,5.5-15.8,9.1-17,7.5C-7.7-195.5-9-198.8-2.4-200.7z"/>
			<path class="st4" d="M0.2-195c3.9,3.5,8.2,8.4,7.4,10.5c-2.5,6.3-16.1-8.6-15.3-10.4C-7-196.7-4.9-199.5,0.2-195z"/>
			<path class="st4" d="M-4.3-190c-3.6,3.9-8.5,8.1-10.6,7.2c-6.3-2.6,8.8-16,10.7-15.2S0.3-195.1-4.3-190z"/>
			<circle class="st5" cx="-4.9" cy="-195.3" r="4.9"/>
		</g>
		<g>
			<path class="st2" d="M-282.5-31.3c0,0,3.9,17.1,7.1,20.3"/>
			<path class="st3" d="M-275.7-11.8c0,0-0.6-18.1,3.5-14.7C-268.2-23.1-275.7-11.8-275.7-11.8z"/>
			<path class="st3" d="M-276.8-12.9c0,0-13-15-13.2-8.5C-290.2-14.8-276.8-12.9-276.8-12.9z"/>
			<path class="st4" d="M-287.3-33.4c-5-1.5-11-4.1-11.1-6.4c-0.4-6.8,18.2,0.9,18.3,2.9C-280-34.9-280.7-31.5-287.3-33.4z"/>
			<path class="st4" d="M-286.1-39.6c0-5.2,0.9-11.7,3-12.5c6.4-2.3,4.2,17.8,2.3,18.4C-282.6-32.9-286.1-32.7-286.1-39.6z"/>
			<path class="st4" d="M-279.9-40.9c5-1.5,11.5-2.5,12.8-0.7c4.1,5.5-15.8,9.1-17,7.5C-285.3-35.7-286.5-39-279.9-40.9z"/>
			<path class="st4" d="M-277.2-35.2c3.9,3.5,8.2,8.4,7.4,10.5c-2.5,6.3-16.1-8.6-15.3-10.4C-284.3-36.9-282.4-39.8-277.2-35.2z"/>
			<path class="st4" d="M-281.8-30.2c-3.6,3.9-8.5,8.1-10.6,7.2c-6.3-2.6,8.8-16,10.7-15.2C-279.9-37.4-277.1-35.3-281.8-30.2z"/>
			<circle class="st5" cx="-282.4" cy="-35.5" r="4.9"/>
		</g>
		<g>
			<path class="st7" d="M538.8,73.3h2.9c6.2,0,11.2-12,11.2-26.6v-262.6h-25.3V46.8C527.6,61.4,532.6,73.3,538.8,73.3z"/>
			<path class="st7" d="M40.9,72.3h2.9C50,72.3,55,60.4,55,45.8v-262.3H29.6V45.7C29.6,60.3,34.7,72.3,40.9,72.3z"/>
			<g>
				<path class="st6" d="M-339.2,18.2c-20.3,0-39.6,0.2-56.8,0.6v13.3c17.3,0.4,36.5,0.6,56.8,0.6H978V18.1L-339.2,18.2L-339.2,18.2
					z"/>
				<path class="st6" d="M-339.2,58.4c-20.3,0-39.6,0.2-56.8,0.6v13.3c17.3,0.4,36.5,0.6,56.8,0.6H978V58.3H-339.2V58.4z"/>
				<path class="st7" d="M-382.1-0.5h-2.9c-6.1,0-11.1,4-11.1,8.9v88h25v-88C-371,3.5-376-0.5-382.1-0.5z"/>
				<path class="st7" d="M-311.1-0.5h-2.9c-6.2,0-11.1,4-11.1,8.9v88h25v-88C-300.1,3.5-305-0.5-311.1-0.5z"/>
				<path class="st7" d="M-240.2-0.5h-2.9c-6.1,0-11.1,4-11.1,8.9v88h25v-88C-229.1,3.5-234-0.5-240.2-0.5z"/>
				<path class="st7" d="M-169.2-0.5h-2.9c-6.1,0-11.1,4-11.1,8.9v88h25v-88C-158.1,3.5-163-0.5-169.2-0.5z"/>
				<path class="st7" d="M470.5-0.5h-2.9c-6.1,0-11.1,4-11.1,8.9v88h25v-88C481.6,3.5,476.7-0.5,470.5-0.5z"/>
				<path class="st7" d="M541.5-0.5h-2.9c-6.1,0-11.1,4-11.1,8.9v88h25v-88C552.6,3.5,547.6-0.5,541.5-0.5z"/>
				<path class="st7" d="M612.5-0.5h-2.9c-6.1,0-11.1,4-11.1,8.9v88h25v-88C623.6,3.5,618.6-0.5,612.5-0.5z"/>
				<path class="st7" d="M683.4-0.5h-2.9c-6.1,0.1-11.1,4-11,8.9v88h25v-88C694.6,3.5,689.6-0.5,683.4-0.5z"/>
				<path class="st7" d="M-97.9-0.5h-2.9c-6.1,0-11.1,4-11.1,8.9v88h25v-88C-86.8,3.5-91.7-0.5-97.9-0.5z"/>
				<path class="st7" d="M-26.9-0.5h-2.9c-6.1,0-11.1,4-11.1,8.9v88h25v-88C-15.9,3.5-20.8-0.5-26.9-0.5z"/>
				<path class="st7" d="M44.1-0.5h-2.9c-6.1,0-11.1,4-11.1,8.9v88h25v-88C55.1,3.5,50.2-0.5,44.1-0.5z"/>
				<path class="st7" d="M115-0.5h-2.9c-6.1,0-11.1,4-11.1,8.9v88h25v-88C126.1,3.5,121.2-0.5,115-0.5z"/>
				<path class="st7" d="M186.3-0.5h-2.9c-6.1,0-11.1,4-11.1,8.9v88h25v-88C197.4,3.5,192.5-0.5,186.3-0.5z"/>
				<path class="st7" d="M257.3-0.5h-2.9c-6.1,0-11.1,4-11.1,8.9v88h25v-88C268.4,3.5,263.4-0.5,257.3-0.5z"/>
				<path class="st7" d="M328.3-0.5h-2.9c-6.1,0-11.1,4-11.1,8.9v88h25v-88C339.3,3.5,334.4-0.5,328.3-0.5z"/>
				<path class="st7" d="M399.2-0.5h-2.9c-6.1,0-11.1,4-11.1,8.9v88h25v-88C410.3,3.5,405.4-0.5,399.2-0.5z"/>
				<path class="st7" d="M754.7-0.5h-2.9c-6.1,0-11.1,4-11.1,8.9v88h25v-88C765.8,3.5,760.9-0.5,754.7-0.5z"/>
				<path class="st7" d="M825.7-0.5h-2.9c-6.1,0-11.1,4-11.1,8.9v88h25v-88C836.8,3.5,831.8-0.5,825.7-0.5z"/>
				<path class="st7" d="M896.7-0.5h-2.9c-6.1,0-11.1,4-11.1,8.9v88h25v-88C907.8,3.5,902.8-0.5,896.7-0.5z"/>
				<path class="st7" d="M967.6-0.5h-2.9c-6.1,0-11.1,4-11.1,8.9v88h25v-88C978.8,3.5,973.8-0.5,967.6-0.5z"/>
			</g>
		</g>
	</g>
</g>
<text transform="matrix(1 0 0 1 2091.4868 84.5984)" class="st9" style="font-family:'Quicksand-Bold'; font-size:40px;">EXIT</text>
<g id="Cow">
	<g>
		<path class="st10" d="M393.1,382.5c0-3.4-2.8-6.2-6.2-6.2h-14c-3.4,0-6.2,2.8-6.2,6.2l0,0c0,0.7,0.1,1.4,0.4,2.1
			c1.1,6,6.3,31.5,15.1,31.6c9.1,0.1,10.6-27.9,10.8-32.3C393.1,383.4,393.1,382.9,393.1,382.5L393.1,382.5z"/>
		<path class="st11" d="M350.1,396.3c0.9-3.3-1-6.7-4.2-7.7l-13.4-3.9c-3.3-0.9-6.7,1-7.7,4.2l0,0c-0.2,0.7-0.3,1.4-0.2,2.1
			c-0.6,6.1-2.6,32,5.8,34.5c8.7,2.7,17.9-23.9,19.3-28.1C349.8,397.2,350,396.8,350.1,396.3L350.1,396.3z"/>
		<path class="st11" d="M407.9,392.2c0-3.4-2.8-6.2-6.2-6.2h-14c-3.4,0-6.2,2.8-6.2,6.2l0,0c0,0.7,0.1,1.4,0.4,2.1
			c1.1,6,6.3,31.5,15.1,31.6c9.1,0.1,10.6-27.9,10.8-32.3C407.8,393.1,407.9,392.6,407.9,392.2z"/>
	</g>
	<g>
		<path class="st4" d="M301.8,325h65.3c21.9,0,39.7,17.8,39.7,39.7v31.7c0,5.3-4.3,9.5-9.5,9.5l0,0h-95.4c-5.3,0-9.5-4.3-9.5-9.5
			l0,0v-61.9C292.3,329.3,296.6,325,301.8,325z"/>
		<path d="M349.6,325c0,0,10.6,45.6-30.6,46.4s-3.2-46.4-3.2-46.4H349.6z"/>
		<path d="M367.1,324.9c0,0-3.8,45.9,39.7,56v-14.3c0,0,1.5-15-8.9-27C387.5,327.6,376,324.9,367.1,324.9z"/>
	</g>
	<path class="st10" d="M304.8,395.2c0.7-3.3-1.4-6.6-4.8-7.4l-13.7-2.9c-3.3-0.7-6.6,1.4-7.4,4.8l0,0c-0.1,0.7-0.2,1.4-0.1,2.1
		c-0.2,6.1-0.4,32.1,8.1,34.1c8.9,2.1,16.2-25.1,17.3-29.3C304.6,396.1,304.7,395.7,304.8,395.2L304.8,395.2z"/>
	<g>
		<path class="st12" d="M415.4,293.3c0,0-3.7,11.3,3,9.9C425.2,301.7,419.7,295.5,415.4,293.3z"/>
		<path class="st13" d="M392.2,335h-0.9c0-0.3,0.3-8.6,6.1-14c3.4-3.1,7.9-4.6,13.4-4.4c5.4,0.2,8.8-0.9,10.1-3.3
			c2.2-3.9-2-10.1-2-10.1l0.7-0.5c0.2,0.3,4.5,6.7,2.1,11c-1.5,2.7-5.1,3.9-10.9,3.7c-5.3-0.2-9.6,1.2-12.8,4.2
			C392.6,326.7,392.2,334.9,392.2,335z"/>
	</g>
	<g>
		<path d="M253.4,291.5c0,0-24.2-11.5-35.8-4.4s12.8,24.6,21.9,25.1c1.8,0.1,3.5,0,5.2-0.2c3-7.3,6.9-14.1,12.1-19.3
			C255.7,292,254.6,291.7,253.4,291.5z"/>
		<path d="M318.3,312c9.1-0.4,33.5-17.9,21.9-24.9c-11.6-7.1-35.8,4.4-35.8,4.4c-1.2,0.2-2.3,0.6-3.4,1.1l0,0c0,0-0.2-0.2-0.5-0.5
			s-0.8-0.7-1.3-1.2c-1.7-1.5-3.6-2.8-5.5-4c-0.5-0.3-1.1-0.6-1.6-0.9c-0.1-0.1-0.2-0.1-0.3-0.2c-0.1,0-0.2-0.1-0.3-0.1
			c-3.1-1.3-6.3-2.2-9.6-2.5c-2-0.2-4-0.2-6,0l0,0c0,0.2,3.6,31.9,39.4,34.1l0,0v-0.1l-2-5.4v-0.1l0,0
			C314.8,312,316.5,312,318.3,312z"/>
		<path class="st14" d="M258.9,273.1c-0.9-8-14.4,7.7-0.7,18.2c2.5-2.4,5.4-4.3,8.6-5.7C263.8,283,259.5,278.4,258.9,273.1z"/>
		<path class="st4" d="M315.2,317.5c-35.9-2.2-39.4-34.1-39.4-34.3c-3.1,0.3-6.1,1.1-9,2.4c-3.2,1.4-6.1,3.3-8.6,5.7
			c-0.5,0.4-0.9,0.8-1.3,1.3c-5.1,5.2-9.1,12-12.1,19.3c-5.1,12.6-8.2,25.9-9.1,39.5c0.1,1.2,0,5,0.2,5.2
			c2.7-10,11.7-16.9,22.1-16.9h41.9c10.3,0,19.4,7,22.1,16.9 M259.3,330.4c-2.2,0-4-3.5-4-7.9s1.8-7.9,4-7.9s4,3.5,4,7.9
			S261.5,330.4,259.3,330.4z M298,314.6c2.2,0,4,3.5,4,7.9s-1.8,7.9-4,7.9s-4-3.5-4-7.9S295.9,314.6,298,314.6z"/>
		<g>
			<path d="M259.3,314.6c-2.2,0-4,3.5-4,7.9s1.8,7.9,4,7.9s4-3.5,4-7.9S261.5,314.6,259.3,314.6z M257.7,324.2
				c-0.4,0-0.7-0.6-0.7-1.4c0-0.7,0.3-1.4,0.7-1.4s0.7,0.6,0.7,1.4C258.4,323.6,258.1,324.2,257.7,324.2z"/>
			<ellipse class="st4" cx="257.7" cy="322.8" rx="0.7" ry="1.4"/>
		</g>
		<g>
			<path d="M298,330.4c2.2,0,4-3.5,4-7.9s-1.8-7.9-4-7.9s-4,3.5-4,7.9S295.9,330.4,298,330.4z M295.7,322.8c0-0.7,0.3-1.4,0.7-1.4
				s0.7,0.6,0.7,1.4c0,0.7-0.3,1.4-0.7,1.4C296,324.2,295.7,323.6,295.7,322.8z"/>
			<ellipse class="st4" cx="296.4" cy="322.8" rx="0.7" ry="1.4"/>
		</g>
		<path class="st15" d="M299.8,339.5h-41.9c-10.3,0-19.4,7-22.1,16.9c-0.5,1.9-0.8,3.9-0.8,5.9v3c0,12.6,10.3,22.9,22.9,22.9h41.9
			c12.6,0,22.9-10.3,22.9-22.9v-3c0-2-0.3-4-0.8-6C319.2,346.5,310.2,339.6,299.8,339.5z M305.2,356.1c1.2-2.1,3.2-3.2,4.4-2.6
			c1.2,0.7,1.2,2.9,0,5s-3.2,3.2-4.4,2.6S304,358.2,305.2,356.1z M248.2,353.5c1.2-0.7,3.1,0.5,4.4,2.6c1.2,2.1,1.2,4.4,0,5
			s-3.1-0.5-4.4-2.6C247.1,356.5,247,354.2,248.2,353.5z"/>
		<ellipse transform="matrix(0.5 -0.866 0.866 0.5 -155.7495 444.799)" class="st4" cx="307.3" cy="357.3" rx="4.4" ry="2.5"/>
		<ellipse transform="matrix(0.866 -0.5 0.5 0.866 -145.1122 173.0658)" class="st4" cx="250.4" cy="357.3" rx="2.5" ry="4.4"/>
		<path class="st14" d="M291.7,285.8c0.1,0.1,0.2,0.1,0.3,0.2c0.6,0.3,1.1,0.6,1.6,0.9c1.6,1,3.2,2.1,4.7,3.2
			c11.4-10.4-1.2-24.7-2.1-17c-0.5,4.8-4.2,9-7.1,11.7c0.7,0.3,1.5,0.5,2.2,0.9C291.5,285.8,291.6,285.8,291.7,285.8z"/>
	</g>
</g>
<g>
	<title>Penguin_Front1</title>
	<g id="Layer_12">
		<g id="legs">
			<path id="right_2_" class="st16" d="M283.8,196.9c-5.8,3.2-9.1,9.7-9.1,16.2c0.6,5.8,5.8,11,11.7,10.4c1.3,0,2.6-0.6,3.9-1.3
				c5.8-1.9,10.4-5.8,13-11.7L283.8,196.9z"/>
			<path id="left_2_" class="st16" d="M350.6,210.5c2.6,5.8,8.4,9.7,14.3,10.4c7.1,0.6,13.6-3.9,14.3-11c0-0.6,0-1.9,0-2.6
				c-0.6-5.8-3.9-10.4-8.4-13.6L350.6,210.5z"/>
		</g>
		<g id="body">
			<path id="left_hand" class="st17" d="M377.8,123.6c-1.9-1.3-3.9-1.9-6.5-2.6c-1.3,2.6-3.2,5.2-5.2,7.8v70.7l0,0l0,0
				c0.6-0.6,1.3-1.3,1.9-1.9s1.3-1.3,1.9-2.6c2.6-3.9,5.2-8.4,6.5-13c1.9-5.2,3.2-11,3.9-16.9l0,0c0-0.6,0-1.3,0-1.9s0-1.9,0-2.6
				c0-0.6,0-1.3,0-2.6c0-3.2-0.6-7.1-1.3-10.4c3.2,0,5.8-2.6,7.1-5.2C388.2,134.6,384.3,127.5,377.8,123.6z"/>
			<path id="belly_1_" class="st18" d="M286.4,129.4v70l0,0c4.5,5.2,10.4,8.4,16.9,11c7.8,2.6,15.6,3.9,24,3.9
				c7.8,0,16.2-1.3,23.3-4.5c5.8-2.6,11.7-6.5,16.2-11l0,0v-70L286.4,129.4z"/>
			<path id="right_hand" class="st17" d="M287.1,199.5L287.1,199.5L287.1,199.5v-69.4c-1.3-1.3-2.6-3.2-3.2-4.5c0,0,0,0.6-0.6,0.6
				c-2.6-2.6-5.2-3.9-8.4-4.5c-6.5-2.6-13.6,0.6-15.6,7.1c0,0.6,0,0.6,0,1.3c0,7.1,5.2,14.3,12.3,14.9c1.3,0,1.9,0.6,3.2,0.6l0,0
				c-0.6,1.3-0.6,2.6-1.3,4.5c0,0.6,0,0.6,0,1.3c0,0.6,0,0.6,0,1.3c0,0.6,0,1.3,0,1.9v0.6c0,0.6,0,1.3,0,1.9l0,0c0,0.6,0,1.3,0,1.9
				c0,0.6,0,1.9,0,2.6c0,0.6,0,1.9,0,2.6c0,0.6,0,1.3,0,1.3v0.6c0.6,11.7,5.2,22,11.7,31.1c0,0,0,0,0.6,0.6
				C285.8,197.5,286.4,198.8,287.1,199.5z"/>
			<path id="righthand" class="st18" d="M268.3,120.4c3.2-0.6,7.1,0,10.4,1.3c6.5,1.9,10.4,9.1,8.4,16.2c0,0.6-0.6,1.3-0.6,1.3
				c-4.5,6.5-13,9.1-20.1,5.2c-1.3-0.6-1.9-1.3-2.6-1.3l0,0c-1.9-1.3-9.1-6.5-7.1-13C258.5,123.6,268.3,120.4,268.3,120.4z"/>
			<path id="lefthand" class="st18" d="M368.1,146.3c-2.6-1.9-4.5-5.2-5.8-8.4c-2.6-6.5,0-13.6,6.5-16.2c0.6,0,0.6-0.6,1.3-0.6
				c7.8-0.6,14.9,3.9,16.9,11.7c0,0.6,0.6,1.9,0.6,2.6l0,0c1.3,5.2-0.6,11-5.2,13.6C376.5,152.1,368.1,146.3,368.1,146.3z"/>
		</g>
		<g id="face">
			<g id="right_eye_1_">
				<circle class="st4" cx="300" cy="95.7" r="3.2"/>
				<path id="right_eye" class="st19" d="M300,102.9c3.2,0.6,5.8-1.9,6.5-4.5c0,0,0,0,0-0.6c0.6-3.2-1.9-6.5-5.2-7.1
					c-3.2,0-6.5,1.9-6.5,5.2c0,0,0,0,0,0.6C294.2,99.6,296.8,102.2,300,102.9z M300,93.1c1.3,0,1.9,1.3,1.9,2.6
					c0,1.3-1.3,1.9-1.9,1.9l0,0c-1.3,0-2.6-1.3-2.6-2.6C298.1,94.4,298.7,93.1,300,93.1L300,93.1L300,93.1z"/>
			</g>
			<g id="left_eye_1_">
				<circle id="hightlight" class="st4" cx="353.8" cy="96.4" r="3.2"/>
				<path id="left_eye" class="st19" d="M353.8,102.9c3.2,0.6,5.8-1.9,6.5-4.5c0,0,0,0,0-0.6c0.6-3.2-1.9-6.5-5.2-7.1
					s-5.8,1.9-6.5,4.5c0,0,0,0,0,0.6C348,99.6,350.6,102.2,353.8,102.9z M353.8,93.1c1.3,0,1.9,1.3,1.9,2.6c0,1.3-1.3,1.9-1.9,1.9
					l0,0c-1.3,0-1.9-1.3-1.9-2.6C351.3,94.4,352.6,93.1,353.8,93.1L353.8,93.1L353.8,93.1z"/>
			</g>
			<path id="mouth" class="st16" d="M317.5,100.9c-1.9,1.3-3.9,3.2-3.9,5.8c0,3.9,5.8,7.8,13,7.8s13-3.2,13-7.8
				c0-2.6-1.9-5.2-5.8-6.5c-1.9-0.6-4.5-1.3-7.1-1.3C323.4,99,320.1,99.6,317.5,100.9z"/>
			<path id="face_1_" class="st20" d="M286.4,130.1c9.7,11.7,24.6,18.8,39.5,18.2c15.6,0,30.5-7.1,40.2-19.5
				c1.9-2.6,3.2-5.2,5.2-7.8c3.2-5.8,4.5-11.7,5.2-18.2c-0.6-1.3-6.5-21.4-24-22c-16.2-0.6-18.8,15.6-19.5,18.8
				c3.2,1.3,5.8,3.9,5.8,6.5c0,3.9-5.8,7.8-13,7.8s-13-3.2-13-7.8c0-2.6,1.9-4.5,3.9-5.8l0,0c0,0-0.6-20.7-18.8-20.1
				c-16.2,1.9-22,22.7-22,22.7c0.6,7.8,3.2,15.6,7.1,22C283.8,126.8,285.1,128.1,286.4,130.1z M354.5,90.5c3.2,0.6,5.8,3.9,5.2,7.1
				c0,3.2-2.6,5.2-5.8,5.2c0,0,0,0-0.6,0c-3.2-0.6-5.8-3.9-5.2-7.1C348.7,93.1,351.3,90.5,354.5,90.5L354.5,90.5z M300.7,90.5
				c3.2,0.6,5.8,3.9,5.2,7.1c0,3.2-2.6,5.2-5.8,5.2c0,0,0,0-0.6,0c-2.6-0.6-5.2-3.2-4.5-6.5C294.8,93.1,297.4,90.5,300.7,90.5
				L300.7,90.5L300.7,90.5z"/>
			<path id="hair" class="st17" d="M299.4,81.5c17.5-0.6,18.8,20.1,18.8,20.1l0,0c2.6-1.3,5.8-1.9,8.4-1.9c2.6,0,4.5,0.6,7.1,1.3
				c0.6-3.2,2.6-19.5,19.5-18.8c17.5,0.6,24,20.7,24,22l0,0c0,0,0,0,0-0.6c0-0.6,0-1.9,0-2.6c0-0.6,0-0.6,0-1.3s0-0.6,0-1.3
				c0-6.5-1.9-13-5.2-18.2c-3.9-7.1-9.7-13-16.2-17.5c-3.2-2.6-7.8-4.5-11.7-6.5c-6.5-3.2-13-3.9-18.8-3.9
				c-10.4,0-20.7,3.2-28.5,9.1l0,0c-5.2,3.9-9.1,7.8-13,12.3c-5.2,6.5-7.8,14.9-8.4,23.3c0,1.9,0,3.9,0,5.8l0,0l0,0
				C276,102.9,281.9,82.1,299.4,81.5z"/>
		</g>
	</g>
</g>
</svg>
