<?xml version="1.0" encoding="utf-8"?>
<!-- Generator: Adobe Illustrator 22.1.0, SVG Export Plug-In . SVG Version: 6.00 Build 0)  -->
<svg version="1.1" id="Layer_1" xmlns="http://www.w3.org/2000/svg" xmlns:xlink="http://www.w3.org/1999/xlink" x="0px" y="0px"
	 viewBox="0 0 672.9 479.7" style="enable-background:new 0 0 672.9 479.7;" xml:space="preserve">
<style type="text/css">
	.st0{fill:#F2DF91;}
	.st1{fill:#B4F79F;}
	.st2{fill:none;stroke:#00B90D;stroke-linecap:round;stroke-linejoin:round;}
	.st3{fill:#57AF2E;stroke:#00B90D;stroke-linejoin:round;}
	.st4{fill:#FFFFFF;}
	.st5{fill:#F4E49F;}
	.st6{fill:#684A16;}
	.st7{fill:#9B7A37;}
	.st8{enable-background:new    ;}
	.st9{fill:#494848;}
	.st10{fill:#7B6227;}
	.st11{fill:#4F3C24;}
	.st12{fill:#FDBC1F;}
	.st13{font-family:'Quicksand-Bold';}
	.st14{font-size:37.9514px;}
	.st15{fill:#F6D07B;}
	.st16{fill:none;stroke:#21B14B;stroke-width:0.3302;stroke-linecap:round;stroke-linejoin:round;}
	.st17{fill:#57AD46;stroke:#21B14B;stroke-width:0.3302;stroke-linejoin:round;}
	.st18{fill:#F3E39D;}
	.st19{fill:#F4D3E9;}
	.st20{fill:#898785;}
	.st21{fill:#E5E5E5;}
	.st22{fill:#232323;}
	.st23{fill:#F4F3F2;}
	.st24{fill:none;}
	.st25{fill:#545352;}
</style>
<title>Farm</title>
<g id="Layer_1-2">
	<rect x="-238.1" y="173" class="st0" width="1366" height="171.4"/>
	<g>
		<rect x="-238.1" y="333.5" class="st1" width="1365" height="309.2"/>
		<g>
			<path class="st2" d="M90.8,437.6c0,0,3.9,17.1,7.1,20.3"/>
			<path class="st3" d="M97.6,457.1c0,0-0.6-18.1,3.5-14.7S97.6,457.1,97.6,457.1z"/>
			<path class="st3" d="M96.6,456c0,0-13-15-13.2-8.5C83.2,454,96.6,456,96.6,456z"/>
			<path class="st4" d="M86,435.4c-5-1.5-11-4.1-11.1-6.4c-0.4-6.8,18.2,0.9,18.3,2.9C93.3,434,92.6,437.4,86,435.4z"/>
			<path class="st4" d="M87.3,429.3c0-5.2,0.9-11.7,3-12.5c6.4-2.3,4.2,17.8,2.3,18.4C90.7,436,87.3,436.2,87.3,429.3z"/>
			<path class="st4" d="M93.5,428c5-1.5,11.5-2.5,12.8-0.7c4.1,5.5-15.8,9.1-17,7.5C88.1,433.2,86.9,429.9,93.5,428z"/>
			<path class="st4" d="M96.1,433.7c3.9,3.5,8.2,8.4,7.4,10.5c-2.5,6.3-16.1-8.6-15.3-10.4C88.9,431.9,91,429.1,96.1,433.7z"/>
			<path class="st4" d="M91.6,438.6c-3.6,3.9-8.5,8.1-10.6,7.2c-6.3-2.6,8.8-16,10.7-15.2S96.3,433.6,91.6,438.6z"/>
			<circle class="st5" cx="91" cy="433.4" r="4.9"/>
		</g>
		<g>
			<path class="st2" d="M6.9,639.1c0,0,3.9,17.1,7.1,20.3"/>
			<path class="st3" d="M13.7,658.6c0,0-0.6-18.1,3.5-14.7C21.2,647.3,13.7,658.6,13.7,658.6z"/>
			<path class="st3" d="M12.7,657.5c0,0-13-15-13.2-8.5S12.7,657.5,12.7,657.5z"/>
			<path class="st4" d="M2.1,636.9c-5-1.5-11-4.1-11.1-6.4c-0.4-6.8,18.2,0.9,18.3,2.9C9.4,635.5,8.7,638.9,2.1,636.9z"/>
			<path class="st4" d="M3.4,630.8c0-5.2,0.9-11.7,3-12.5c6.4-2.3,4.2,17.8,2.3,18.4S3.3,637.7,3.4,630.8z"/>
			<path class="st4" d="M9.5,629.5c5-1.5,11.5-2.5,12.8-0.7c4.1,5.5-15.8,9.1-17,7.5S2.9,631.4,9.5,629.5z"/>
			<path class="st4" d="M12.2,635.2c3.9,3.5,8.2,8.4,7.4,10.5c-2.5,6.3-16.1-8.6-15.3-10.4C5,633.4,7.1,630.6,12.2,635.2z"/>
			<path class="st4" d="M7.6,640.1C4,644-0.9,648.2-3,647.3c-6.3-2.6,8.8-16,10.7-15.2C9.5,632.9,12.3,635.1,7.6,640.1z"/>
			<circle class="st5" cx="7.1" cy="634.9" r="4.9"/>
		</g>
		<g>
			<path class="st2" d="M-176.2,552.2c0,0-3.9,17.1-7.1,20.3"/>
			<path class="st3" d="M-183,571.7c0,0,0.6-18.1-3.5-14.7C-190.5,560.4-183,571.7-183,571.7z"/>
			<path class="st3" d="M-182,570.6c0,0,13-15,13.2-8.5S-182,570.6-182,570.6z"/>
			<path class="st4" d="M-171.4,550.1c5-1.5,11-4.1,11.1-6.4c0.4-6.8-18.2,0.9-18.3,2.9S-178,552-171.4,550.1z"/>
			<path class="st4" d="M-172.7,543.9c0-5.2-0.9-11.7-3-12.5c-6.4-2.3-4.2,17.8-2.3,18.4C-176.1,550.6-172.6,550.8-172.7,543.9z"/>
			<path class="st4" d="M-178.9,542.6c-5-1.5-11.5-2.5-12.8-0.7c-4.1,5.5,15.8,9.1,17,7.5S-172.3,544.5-178.9,542.6z"/>
			<path class="st4" d="M-181.5,548.3c-3.9,3.5-8.2,8.4-7.4,10.5c2.5,6.3,16.1-8.6,15.3-10.4C-174.3,546.5-176.4,543.7-181.5,548.3z
				"/>
			<path class="st4" d="M-177,553.3c3.6,3.9,8.5,8.1,10.6,7.2c6.3-2.6-8.8-16-10.7-15.2S-181.6,548.2-177,553.3z"/>
			<ellipse class="st5" cx="-176.3" cy="548" rx="4.9" ry="4.9"/>
		</g>
		<g>
			<path class="st2" d="M-126.8,386.8c0,0,3.9,17.1,7.1,20.3"/>
			<path class="st3" d="M-120,406.4c0,0-0.6-18.1,3.5-14.7C-112.4,395-120,406.4-120,406.4z"/>
			<path class="st3" d="M-121,405.3c0,0-13-14.9-13.2-8.5C-134.4,403.2-121,405.3-121,405.3z"/>
			<path class="st4" d="M-131.5,384.7c-5-1.5-11-4.1-11.1-6.4c-0.4-6.8,18.2,0.9,18.3,2.9C-124.3,383.2-125,386.6-131.5,384.7z"/>
			<path class="st4" d="M-130.3,378.5c0-5.2,0.9-11.7,3-12.5c6.4-2.3,4.2,17.8,2.3,18.4C-126.9,385.2-130.3,385.4-130.3,378.5z"/>
			<path class="st4" d="M-124.1,377.2c5-1.5,11.5-2.5,12.8-0.7c4.1,5.5-15.8,9.1-17,7.5C-129.4,382.4-130.7,379.1-124.1,377.2z"/>
			<path class="st4" d="M-121.5,382.9c3.9,3.5,8.2,8.4,7.4,10.5c-2.5,6.3-16.1-8.6-15.3-10.4C-128.7,381.1-126.6,378.3-121.5,382.9z
				"/>
			<path class="st4" d="M-126,387.9c-3.6,3.9-8.5,8.1-10.6,7.2c-6.3-2.6,8.8-16,10.7-15.2C-124.1,380.7-121.3,382.8-126,387.9z"/>
			<circle class="st5" cx="-126.6" cy="382.6" r="4.9"/>
		</g>
		<g>
			<path class="st2" d="M308.4,461.4c0,0,3.9,17.1,7.1,20.3"/>
			<path class="st3" d="M315.2,480.9c0,0-0.6-18.1,3.5-14.7C322.7,469.5,315.2,480.9,315.2,480.9z"/>
			<path class="st3" d="M314.2,479.8c0,0-13-15-13.2-8.5S314.2,479.8,314.2,479.8z"/>
			<path class="st4" d="M303.6,459.2c-5-1.5-11-4.1-11.1-6.4c-0.4-6.8,18.2,0.9,18.3,2.9S310.2,461.2,303.6,459.2z"/>
			<path class="st4" d="M304.9,453c0-5.2,0.9-11.7,3-12.5c6.4-2.3,4.2,17.8,2.3,18.4S304.8,459.9,304.9,453z"/>
			<path class="st4" d="M311.1,451.7c5-1.5,11.5-2.5,12.8-0.7c4.1,5.5-15.8,9.1-17,7.5C305.7,456.9,304.5,453.6,311.1,451.7z"/>
			<path class="st4" d="M313.7,457.4c3.9,3.5,8.2,8.4,7.4,10.5c-2.5,6.3-16.1-8.6-15.3-10.4C306.6,455.7,308.6,452.8,313.7,457.4z"
				/>
			<path class="st4" d="M309.2,462.4c-3.6,3.9-8.5,8.1-10.6,7.2c-6.3-2.6,8.8-16,10.7-15.2C311.1,455.2,313.8,457.3,309.2,462.4z"/>
			<circle class="st5" cx="308.6" cy="457.1" r="4.9"/>
		</g>
		<g>
			<path class="st2" d="M627.1,627.9c0,0,3.9,17.1,7.1,20.3"/>
			<path class="st3" d="M634,647.4c0,0-0.6-18.1,3.5-14.7C641.5,636.1,634,647.4,634,647.4z"/>
			<path class="st3" d="M633,646.3c0,0-13-15-13.2-8.5S633,646.3,633,646.3z"/>
			<path class="st4" d="M622.4,625.8c-5-1.5-11-4.1-11.1-6.4c-0.4-6.8,18.2,0.9,18.3,2.9S629,627.7,622.4,625.8z"/>
			<path class="st4" d="M623.6,619.6c0-5.2,0.9-11.7,3-12.5c6.4-2.3,4.2,17.8,2.3,18.4S623.6,626.5,623.6,619.6z"/>
			<path class="st4" d="M629.8,618.3c5-1.5,11.5-2.5,12.8-0.7c4.1,5.5-15.8,9.1-17,7.5S623.2,620.2,629.8,618.3z"/>
			<path class="st4" d="M632.5,624c3.9,3.5,8.2,8.4,7.4,10.5c-2.5,6.3-16.1-8.6-15.3-10.4C625.2,622.2,627.3,619.4,632.5,624z"/>
			<path class="st4" d="M627.9,628.9c-3.6,3.9-8.5,8.1-10.6,7.2c-6.3-2.6,8.8-16,10.7-15.2C629.8,621.7,632.6,623.9,627.9,628.9z"/>
			<circle class="st5" cx="627.3" cy="623.7" r="4.9"/>
		</g>
		<g>
			<path class="st2" d="M434.9,650.5c0,0-3.9,17.1-7.1,20.3"/>
			<path class="st3" d="M428.1,670.1c0,0,0.6-18.1-3.5-14.7C420.6,658.7,428.1,670.1,428.1,670.1z"/>
			<path class="st3" d="M429.1,669c0,0,13-15,13.2-8.5S429.1,669,429.1,669z"/>
			<path class="st4" d="M439.7,648.4c5-1.5,11-4.1,11.1-6.4c0.4-6.8-18.2,0.9-18.3,2.9S433.1,650.4,439.7,648.4z"/>
			<path class="st4" d="M438.4,642.3c0-5.2-0.9-11.7-3-12.5c-6.4-2.3-4.2,17.8-2.3,18.4S438.5,649.1,438.4,642.3z"/>
			<path class="st4" d="M432.2,640.9c-5-1.5-11.5-2.5-12.8-0.7c-4.1,5.5,15.8,9.1,17,7.5S438.8,642.8,432.2,640.9z"/>
			<path class="st4" d="M429.6,646.6c-3.9,3.5-8.2,8.4-7.4,10.5c2.5,6.3,16.1-8.6,15.3-10.4C436.8,644.8,434.7,642,429.6,646.6z"/>
			<path class="st4" d="M434.1,651.6c3.6,3.9,8.5,8.1,10.6,7.2c6.3-2.6-8.8-16-10.7-15.2C432.2,644.4,429.4,646.5,434.1,651.6z"/>
			<circle class="st5" cx="434.7" cy="646.3" r="4.9"/>
		</g>
		<g>
			<path class="st2" d="M595.2,417c0,0,3.9,17.1,7.1,20.3"/>
			<path class="st3" d="M602,436.5c0,0-0.6-18.1,3.5-14.7C609.6,425.1,602,436.5,602,436.5z"/>
			<path class="st3" d="M601,435.4c0,0-13-15-13.2-8.5S601,435.4,601,435.4z"/>
			<path class="st4" d="M590.4,414.8c-5-1.5-11-4.1-11.1-6.4c-0.4-6.8,18.2,0.9,18.3,2.9C597.7,413.4,597,416.8,590.4,414.8z"/>
			<path class="st4" d="M591.7,408.7c0-5.2,0.9-11.7,3-12.5c6.4-2.3,4.2,17.8,2.3,18.4C595.1,415.3,591.6,415.6,591.7,408.7z"/>
			<path class="st4" d="M597.9,407.3c5-1.5,11.5-2.5,12.8-0.7c4.1,5.5-15.8,9.1-17,7.5S591.3,409.2,597.9,407.3z"/>
			<path class="st4" d="M600.5,413c3.9,3.5,8.2,8.4,7.4,10.5c-2.5,6.3-16.1-8.6-15.3-10.4C593.4,411.3,595.4,408.5,600.5,413z"/>
			<path class="st4" d="M596,418c-3.6,3.9-8.5,8.1-10.6,7.2c-6.3-2.6,8.8-16,10.7-15.2C597.9,410.8,600.7,412.9,596,418z"/>
			<circle class="st5" cx="595.4" cy="412.7" r="4.9"/>
		</g>
		<g>
			<path class="st2" d="M1123.9,571.7c0,0,3.9,17.1,7.1,20.3"/>
			<path class="st3" d="M1130.7,591.2c0,0-0.6-18.1,3.5-14.7C1138.2,579.9,1130.7,591.2,1130.7,591.2z"/>
			<path class="st3" d="M1129.7,590.1c0,0-13-15-13.2-8.5S1129.7,590.1,1129.7,590.1z"/>
			<path class="st4" d="M1119.1,569.5c-5-1.5-11-4.1-11.1-6.4c-0.4-6.8,18.2,0.9,18.3,2.9C1126.4,568.1,1125.7,571.5,1119.1,569.5z"
				/>
			<path class="st4" d="M1120.4,563.4c0-5.2,0.9-11.7,3-12.5c6.4-2.3,4.2,17.8,2.3,18.4C1123.8,570,1120.3,570.3,1120.4,563.4z"/>
			<path class="st4" d="M1126.6,562c5-1.5,11.5-2.5,12.8-0.7c4.1,5.5-15.8,9.1-17,7.5C1121.2,567.2,1119.9,563.9,1126.6,562z"/>
			<path class="st4" d="M1129.2,567.8c3.9,3.5,8.2,8.4,7.4,10.5c-2.5,6.3-16.1-8.6-15.3-10.4C1122.1,566.1,1124,563.2,1129.2,567.8z
				"/>
			<path class="st4" d="M1124.7,572.7c-3.6,3.9-8.5,8.1-10.6,7.2c-6.3-2.6,8.8-16,10.7-15.2S1129.3,567.6,1124.7,572.7z"/>
			<circle class="st5" cx="1124.1" cy="567.4" r="4.9"/>
		</g>
		<g>
			<path class="st2" d="M772,464c0,0,3.9,17.1,7.1,20.3"/>
			<path class="st3" d="M778.8,483.5c0,0-0.6-18.1,3.5-14.7C786.3,472.2,778.8,483.5,778.8,483.5z"/>
			<path class="st3" d="M777.8,482.4c0,0-13-15-13.2-8.5S777.8,482.4,777.8,482.4z"/>
			<path class="st4" d="M767.2,461.8c-5-1.5-11-4.1-11.1-6.4c-0.4-6.8,18.2,0.9,18.3,2.9C774.5,460.4,773.8,463.8,767.2,461.8z"/>
			<path class="st4" d="M768.5,455.7c0-5.2,0.9-11.7,3-12.5c6.4-2.3,4.2,17.8,2.3,18.4S768.4,462.6,768.5,455.7z"/>
			<path class="st4" d="M774.7,454.3c5-1.5,11.5-2.5,12.8-0.7c4.1,5.5-15.8,9.1-17,7.5S768.1,456.2,774.7,454.3z"/>
			<path class="st4" d="M777.3,460.1c3.9,3.5,8.2,8.4,7.4,10.5c-2.5,6.3-16.1-8.6-15.3-10.4S772.2,455.5,777.3,460.1z"/>
			<path class="st4" d="M772.8,465c-3.6,3.9-8.5,8.1-10.6,7.2c-6.3-2.6,8.8-16,10.7-15.2C774.7,457.8,777.4,460,772.8,465z"/>
			<circle class="st5" cx="772.2" cy="459.7" r="4.9"/>
		</g>
		<g>
			<path class="st2" d="M908.9,628.2c0,0,3.9,17.1,7.1,20.3"/>
			<path class="st3" d="M915.7,647.7c0,0-0.6-18.1,3.5-14.7C923.3,636.4,915.7,647.7,915.7,647.7z"/>
			<path class="st3" d="M914.7,646.6c0,0-13-15-13.2-8.5S914.7,646.6,914.7,646.6z"/>
			<path class="st4" d="M904.1,626.1c-5-1.5-11-4.1-11.1-6.4c-0.4-6.8,18.2,0.9,18.3,2.9S910.7,628,904.1,626.1z"/>
			<path class="st4" d="M905.4,619.9c0-5.2,0.9-11.7,3-12.5c6.4-2.3,4.2,17.8,2.3,18.4C908.8,626.6,905.3,626.8,905.4,619.9z"/>
			<path class="st4" d="M911.6,618.6c5-1.5,11.5-2.5,12.8-0.7c4.1,5.5-15.8,9.1-17,7.5C906.2,623.7,905,620.5,911.6,618.6z"/>
			<path class="st4" d="M914.2,624.3c3.9,3.5,8.2,8.4,7.4,10.5c-2.5,6.3-16.1-8.6-15.3-10.4C907,622.5,909.1,619.7,914.2,624.3z"/>
			<path class="st4" d="M909.7,629.2c-3.6,3.9-8.5,8.1-10.6,7.2c-6.3-2.6,8.8-16,10.7-15.2C911.6,622,914.4,624.2,909.7,629.2z"/>
			<circle class="st5" cx="909.1" cy="624" r="4.9"/>
		</g>
		<g>
			<path class="st2" d="M1033.3,414.8c0,0,3.9,17.1,7.1,20.3"/>
			<path class="st3" d="M1040.1,434.3c0,0-0.6-18.1,3.5-14.7C1047.6,423,1040.1,434.3,1040.1,434.3z"/>
			<path class="st3" d="M1039.1,433.2c0,0-13-15-13.2-8.5C1025.7,431.2,1039.1,433.2,1039.1,433.2z"/>
			<path class="st4" d="M1028.5,412.6c-5-1.5-11-4.1-11.1-6.4c-0.4-6.8,18.2,0.9,18.3,2.9C1035.8,411.2,1035.1,414.6,1028.5,412.6z"
				/>
			<path class="st4" d="M1029.8,406.5c0-5.2,0.9-11.7,3-12.5c6.4-2.3,4.2,17.8,2.3,18.4C1033.2,413.2,1029.7,413.4,1029.8,406.5z"/>
			<path class="st4" d="M1035.9,405.2c5-1.5,11.5-2.5,12.8-0.7c4.1,5.5-15.8,9.1-17,7.5C1030.5,410.4,1029.3,407.1,1035.9,405.2z"/>
			<path class="st4" d="M1038.6,410.9c3.9,3.5,8.2,8.4,7.4,10.5c-2.5,6.3-16.1-8.6-15.3-10.4
				C1031.5,409.2,1033.5,406.3,1038.6,410.9z"/>
			<path class="st4" d="M1034,415.8c-3.6,3.9-8.5,8.1-10.6,7.2c-6.3-2.6,8.8-16,10.7-15.2C1035.9,408.6,1038.7,410.8,1034,415.8z"/>
			<circle class="st5" cx="1033.5" cy="410.6" r="4.9"/>
		</g>
		<g>
			<path class="st2" d="M192,572.8c0,0,3.9,17.1,7.1,20.3"/>
			<path class="st3" d="M198.8,592.4c0,0-0.6-18.1,3.5-14.7C206.3,581,198.8,592.4,198.8,592.4z"/>
			<path class="st3" d="M197.8,591.3c0,0-13-15-13.2-8.5S197.8,591.3,197.8,591.3z"/>
			<path class="st4" d="M187.2,570.7c-5-1.5-11-4.1-11.1-6.4c-0.4-6.8,18.2,0.9,18.3,2.9S193.8,572.7,187.2,570.7z"/>
			<path class="st4" d="M188.5,564.6c0-5.2,0.9-11.7,3-12.5c6.4-2.3,4.2,17.8,2.3,18.4C191.9,571.1,188.4,571.4,188.5,564.6z"/>
			<path class="st4" d="M194.6,563.2c5-1.5,11.5-2.5,12.8-0.7c4.1,5.5-15.8,9.1-17,7.5C189.3,568.4,188,565.1,194.6,563.2z"/>
			<path class="st4" d="M197.3,568.9c3.9,3.5,8.2,8.4,7.4,10.5c-2.5,6.3-16.1-8.6-15.3-10.4C190.1,567.1,192.2,564.3,197.3,568.9z"
				/>
			<path class="st4" d="M192.8,573.9c-3.6,3.9-8.5,8.1-10.6,7.2c-6.3-2.6,8.8-16,10.7-15.2C194.8,566.7,197.4,568.8,192.8,573.9z"/>
			<circle class="st5" cx="192.2" cy="568.6" r="4.9"/>
		</g>
		<g>
			<path class="st6" d="M-194.2,331.3c-20.3,0-39.6,0.2-56.9,0.6v13.8c17.3,0.4,36.5,0.6,56.9,0.6H1124v-15.1L-194.2,331.3
				L-194.2,331.3z"/>
			<path class="st6" d="M-194.2,372.9c-20.3,0-39.6,0.2-56.9,0.6v13.8c17.3,0.4,36.5,0.6,56.9,0.6H1124v-15.1L-194.2,372.9z"/>
			<path class="st7" d="M-166.1,312h-2.9c-6.2,0-11.1,4.2-11.1,9.2v91h25v-91C-155,316.2-160,312-166.1,312z"/>
			<path class="st7" d="M-95.1,312H-98c-6.2,0.1-11.1,4.2-11.1,9.2v91h25v-91C-84,316.1-88.9,312-95.1,312z"/>
			<path class="st7" d="M-24,312h-2.9c-6.2,0.1-11.1,4.2-11.1,9.2v91h25v-91C-12.9,316.1-17.9,312-24,312z"/>
			<path class="st7" d="M616.2,312h-2.9c-6.2,0.1-11.1,4.2-11.1,9.2v91h25v-91C627.3,316.1,622.3,312,616.2,312z"/>
			<path class="st7" d="M687.2,312h-2.9c-6.2,0.1-11.1,4.2-11.1,9.2v91h25v-91C698.3,316.1,693.4,312,687.2,312z"/>
			<path class="st7" d="M758.2,312h-2.9c-6.2,0.1-11.1,4.2-11.1,9.2v91h25v-91C769.3,316.1,764.4,312,758.2,312z"/>
			<path class="st7" d="M829.3,312h-2.9c-6.1,0.1-11.1,4.2-11,9.2v91h25v-91C840.4,316.1,835.4,312,829.3,312z"/>
			<path class="st7" d="M47.3,312h-2.9c-6.2,0.1-11.1,4.2-11.1,9.2v91h25v-91C58.4,316.2,53.5,312,47.3,312z"/>
			<path class="st7" d="M118.3,312h-2.9c-6.2,0.1-11.1,4.2-11.1,9.2v91h25v-91C129.4,316.2,124.5,312,118.3,312z"/>
			<path class="st7" d="M189.4,312h-2.9c-6.2,0.1-11.1,4.2-11.1,9.2v91h25v-91C200.5,316.1,195.5,312,189.4,312z"/>
			<path class="st7" d="M260.4,312h-2.9c-6.2,0.1-11.1,4.2-11.1,9.2v91h25v-91C271.5,316.1,266.5,312,260.4,312z"/>
			<path class="st7" d="M331.7,312h-2.9c-6.2,0.1-11.1,4.2-11.1,9.2v91h25v-91C342.8,316.1,337.9,312,331.7,312z"/>
			<path class="st7" d="M402.8,312h-2.9c-6.2,0.1-11.1,4.2-11.1,9.2v91h25v-91C413.9,316.1,408.9,312,402.8,312z"/>
			<path class="st7" d="M473.8,312h-2.9c-6.2,0.1-11.1,4.2-11.1,9.2v91h25v-91C484.9,316.1,479.9,312,473.8,312z"/>
			<path class="st7" d="M544.8,312h-2.9c-6.2,0.1-11.1,4.2-11.1,9.2v91h25v-91C555.9,316.1,551,312,544.8,312z"/>
			<path class="st7" d="M900.6,312h-2.9c-6.2,0.1-11.1,4.2-11.1,9.2v91h25v-91C911.7,316.2,906.8,312,900.6,312z"/>
			<path class="st7" d="M971.6,312h-2.9c-6.2,0.1-11.1,4.2-11.1,9.2v91h25v-91C982.7,316.2,977.8,312,971.6,312z"/>
			<path class="st7" d="M1042.7,312h-2.9c-6.2,0.1-11.1,4.2-11.1,9.2v91h25v-91C1053.8,316.1,1048.8,312,1042.7,312z"/>
			<path class="st7" d="M1113.7,312h-2.9c-6.2,0.1-11.1,4.2-11.1,9.2v91h25.1v-91C1124.8,316.1,1119.9,312,1113.7,312z"/>
			<path class="st7" d="M-237.1,312h-2.9c-6.2,0.1-11.1,4.2-11.1,9.2v91h25v-91C-226,316.1-231,312-237.1,312z"/>
			<path class="st7" d="M260.1,312h-2.9c-6.2,0-11.3,13.8-11.3,30.7v303.5h25.5V342.7C271.4,325.8,266.3,312,260.1,312z"/>
			<path class="st7" d="M687.5,312h-2.9c-6.2,0-11.3,13.8-11.3,30.7v303.5h25.5V342.7C698.8,325.8,693.7,312,687.5,312z"/>
		</g>
	</g>
	<g>
		<rect x="-238.1" y="-125.3" class="st1" width="1366" height="301.7"/>
		<g>
			<path class="st2" d="M1088-98.6c0,0,3.9,17.1,7.1,20.3"/>
			<path class="st3" d="M1094.8-79c0,0-0.6-18.1,3.5-14.7C1102.4-90.4,1094.8-79,1094.8-79z"/>
			<path class="st3" d="M1093.8-80.1c0,0-13-15-13.2-8.5C1080.4-82.1,1093.8-80.1,1093.8-80.1z"/>
			<path class="st4" d="M1083.2-100.7c-5-1.5-11-4.1-11.1-6.4c-0.4-6.8,18.2,0.9,18.3,2.9S1089.8-98.7,1083.2-100.7z"/>
			<path class="st4" d="M1084.5-106.8c0-5.2,0.9-11.7,3-12.5c6.4-2.3,4.2,17.8,2.3,18.4C1087.9-100.2,1084.5-100,1084.5-106.8z"/>
			<path class="st4" d="M1090.7-108.2c5-1.5,11.5-2.5,12.8-0.7c4.1,5.5-15.8,9.1-17,7.5C1085.4-103,1084.1-106.3,1090.7-108.2z"/>
			<path class="st4" d="M1093.3-102.5c3.9,3.5,8.2,8.4,7.4,10.5c-2.5,6.3-16.1-8.6-15.3-10.4
				C1086.2-104.2,1088.2-107.1,1093.3-102.5z"/>
			<path class="st4" d="M1088.8-97.5c-3.6,3.9-8.5,8.1-10.6,7.2c-6.3-2.6,8.8-16,10.7-15.2C1090.7-104.7,1093.5-102.6,1088.8-97.5z"
				/>
			<circle class="st5" cx="1088.2" cy="-102.8" r="4.9"/>
		</g>
		<g>
			<path class="st2" d="M752.6-99.2c0,0,3.9,17.1,7.1,20.3"/>
			<path class="st3" d="M759.5-79.6c0,0-0.6-18.1,3.5-14.7S759.5-79.6,759.5-79.6z"/>
			<path class="st3" d="M758.4-80.7c0,0-13-15-13.2-8.5S758.4-80.7,758.4-80.7z"/>
			<path class="st4" d="M747.9-101.3c-5-1.5-11-4.1-11.1-6.4c-0.4-6.8,18.2,0.9,18.3,2.9S754.5-99.3,747.9-101.3z"/>
			<path class="st4" d="M749.1-107.5c0-5.2,0.9-11.7,3-12.5c6.4-2.3,4.2,17.8,2.3,18.4C752.6-100.8,749.1-100.6,749.1-107.5z"/>
			<path class="st4" d="M755.3-108.8c5-1.5,11.5-2.5,12.8-0.7c4.1,5.5-15.8,9.1-17,7.5S748.7-106.9,755.3-108.8z"/>
			<path class="st4" d="M757.9-103.1c3.9,3.5,8.2,8.4,7.4,10.5c-2.5,6.3-16.1-8.6-15.3-10.4C750.8-104.8,752.8-107.6,757.9-103.1z"
				/>
			<path class="st4" d="M753.4-98.1c-3.6,3.9-8.5,8.1-10.6,7.2c-6.3-2.6,8.8-16,10.7-15.2S758.1-103.2,753.4-98.1z"/>
			<circle class="st5" cx="752.8" cy="-103.4" r="4.9"/>
		</g>
		<g>
			<path class="st2" d="M891.7,1.1c0,0,3.9,17.1,7.1,20.3"/>
			<path class="st3" d="M898.5,20.6c0,0-0.6-18.1,3.5-14.7C906,9.2,898.5,20.6,898.5,20.6z"/>
			<path class="st3" d="M897.5,19.5c0,0-13-15-13.2-8.5S897.5,19.5,897.5,19.5z"/>
			<path class="st4" d="M886.9-1.1c-5-1.5-11-4.1-11.1-6.4c-0.4-6.8,18.2,0.9,18.3,2.9S893.5,0.9,886.9-1.1z"/>
			<path class="st4" d="M888.2-7.2c0-5.2,0.9-11.7,3-12.5c6.4-2.3,4.2,17.8,2.3,18.4C891.6-0.6,888.1-0.3,888.2-7.2z"/>
			<path class="st4" d="M894.4-8.6c5-1.5,11.5-2.5,12.8-0.7c4.1,5.5-15.8,9.1-17,7.5S887.8-6.7,894.4-8.6z"/>
			<path class="st4" d="M897-2.8c3.9,3.5,8.2,8.4,7.4,10.5c-2.5,6.3-16.1-8.6-15.3-10.4S891.9-7.4,897-2.8z"/>
			<path class="st4" d="M892.5,2.1c-3.6,3.9-8.5,8.1-10.6,7.2c-6.3-2.6,8.8-16,10.7-15.2C894.4-5.1,897.1-2.9,892.5,2.1z"/>
			<circle class="st5" cx="891.9" cy="-3.2" r="4.9"/>
		</g>
		<g>
			<path class="st2" d="M627.1-32.8c0,0,3.9,17.1,7.1,20.3"/>
			<path class="st3" d="M634-13.3c0,0-0.6-18.1,3.5-14.7C641.5-24.6,634-13.3,634-13.3z"/>
			<path class="st3" d="M632.9-14.4c0,0-13-15-13.2-8.5S632.9-14.4,632.9-14.4z"/>
			<path class="st4" d="M622.4-35c-5-1.5-11-4.1-11.1-6.4c-0.4-6.8,18.2,0.9,18.3,2.9C629.7-36.4,629-33,622.4-35z"/>
			<path class="st4" d="M623.6-41.1c0-5.2,0.9-11.7,3-12.5c6.4-2.3,4.2,17.8,2.3,18.4S623.6-34.2,623.6-41.1z"/>
			<path class="st4" d="M629.8-42.5c5-1.5,11.5-2.5,12.8-0.7c4.1,5.5-15.8,9.1-17,7.5C624.5-37.3,623.2-40.6,629.8-42.5z"/>
			<path class="st4" d="M632.4-36.7c3.9,3.5,8.2,8.4,7.4,10.5c-2.5,6.3-16.1-8.6-15.3-10.4C625.2-38.5,627.3-41.3,632.4-36.7z"/>
			<path class="st4" d="M627.9-31.8c-3.6,3.9-8.5,8.1-10.6,7.2c-6.3-2.6,8.8-16,10.7-15.2C629.8-39,632.6-36.8,627.9-31.8z"/>
			<circle class="st5" cx="627.3" cy="-37" r="4.9"/>
		</g>
		<g>
			<path class="st2" d="M256.4-95.9c0,0,3.9,17.1,7.1,20.3"/>
			<path class="st3" d="M263.2-76.4c0,0-0.6-18.1,3.5-14.7C270.7-87.7,263.2-76.4,263.2-76.4z"/>
			<path class="st3" d="M262.2-77.5c0,0-13-15-13.2-8.5S262.2-77.5,262.2-77.5z"/>
			<path class="st4" d="M251.6-98.1c-5-1.5-11-4.1-11.1-6.4c-0.4-6.8,18.2,0.9,18.3,2.9C258.9-99.5,258.2-96.1,251.6-98.1z"/>
			<path class="st4" d="M252.8-104.2c0-5.2,0.9-11.7,3-12.5c6.4-2.3,4.2,17.8,2.3,18.4C256.3-97.6,252.8-97.3,252.8-104.2z"/>
			<path class="st4" d="M259-105.6c5-1.5,11.5-2.5,12.8-0.7c4.1,5.5-15.8,9.1-17,7.5C253.7-100.4,252.4-103.7,259-105.6z"/>
			<path class="st4" d="M261.7-99.8c3.9,3.5,8.2,8.4,7.4,10.5c-2.5,6.3-16.1-8.6-15.3-10.4C254.4-101.6,256.5-104.4,261.7-99.8z"/>
			<path class="st4" d="M257.1-94.9c-3.6,3.9-8.5,8.1-10.6,7.2c-6.3-2.6,8.8-16,10.7-15.2C259.1-102.1,261.8-99.9,257.1-94.9z"/>
			<circle class="st5" cx="256.5" cy="-100.2" r="4.9"/>
		</g>
		<g>
			<path class="st2" d="M489.5-99.2c0,0,3.9,17.1,7.1,20.3"/>
			<path class="st3" d="M496.3-79.7c0,0-0.6-18.1,3.5-14.7S496.3-79.7,496.3-79.7z"/>
			<path class="st3" d="M495.3-80.8c0,0-13-15-13.2-8.5S495.3-80.8,495.3-80.8z"/>
			<path class="st4" d="M484.8-101.4c-5-1.5-11-4.1-11.1-6.4c-0.4-6.8,18.2,0.9,18.3,2.9C492-102.8,491.3-99.4,484.8-101.4z"/>
			<path class="st4" d="M486-107.5c0-5.2,0.9-11.7,3-12.5c6.4-2.3,4.2,17.8,2.3,18.4C489.4-100.8,486-100.6,486-107.5z"/>
			<path class="st4" d="M492.2-108.9c5-1.5,11.5-2.5,12.8-0.7c4.1,5.5-15.8,9.1-17,7.5C486.9-103.7,485.6-106.9,492.2-108.9z"/>
			<path class="st4" d="M494.8-103.1c3.9,3.5,8.2,8.4,7.4,10.5c-2.5,6.3-16.1-8.6-15.3-10.4S489.7-107.7,494.8-103.1z"/>
			<path class="st4" d="M490.3-98.2c-3.6,3.9-8.5,8.1-10.6,7.2c-6.3-2.6,8.8-16,10.7-15.2S495-103.2,490.3-98.2z"/>
			<circle class="st5" cx="489.7" cy="-103.4" r="4.9"/>
		</g>
		<g>
			<path class="st2" d="M376.7,44.2c0,0,3.9,17.1,7.1,20.3"/>
			<path class="st3" d="M383.5,63.8c0,0-0.6-18.1,3.5-14.7C391,52.4,383.5,63.8,383.5,63.8z"/>
			<path class="st3" d="M382.5,62.7c0,0-13-15-13.2-8.5C369.1,60.7,382.5,62.7,382.5,62.7z"/>
			<path class="st4" d="M371.9,42.1c-5-1.5-11-4.1-11.1-6.4c-0.4-6.8,18.2,0.9,18.3,2.9S378.5,44.1,371.9,42.1z"/>
			<path class="st4" d="M373.2,36c0-5.2,0.9-11.7,3-12.5c6.4-2.3,4.2,17.8,2.3,18.4C376.6,42.7,373.1,42.8,373.2,36z"/>
			<path class="st4" d="M379.4,34.6c5-1.5,11.5-2.5,12.8-0.7c4.1,5.5-15.8,9.1-17,7.5C374,39.8,372.8,36.5,379.4,34.6z"/>
			<path class="st4" d="M382,40.3c3.9,3.5,8.2,8.4,7.4,10.5c-2.5,6.3-16.1-8.6-15.3-10.4C374.8,38.5,376.9,35.8,382,40.3z"/>
			<path class="st4" d="M377.5,45.3c-3.6,3.9-8.5,8.1-10.6,7.2c-6.3-2.6,8.8-16,10.7-15.2C379.4,38.1,382.1,40.2,377.5,45.3z"/>
			<circle class="st5" cx="376.9" cy="40" r="4.9"/>
		</g>
		<g>
			<path class="st2" d="M43.2,2.5c0,0,3.9,17.1,7.1,20.3"/>
			<path class="st3" d="M50,22.1c0,0-0.6-18.1,3.5-14.7C57.6,10.7,50,22.1,50,22.1z"/>
			<path class="st3" d="M49,21c0,0-13-15-13.2-8.5C35.6,18.9,49,21,49,21z"/>
			<path class="st4" d="M38.4,0.4c-5-1.5-11-4.1-11.1-6.4c-0.4-6.8,18.2,0.9,18.3,2.9S45,2.3,38.4,0.4z"/>
			<path class="st4" d="M39.7-5.8c0-5.2,0.9-11.7,3-12.5c6.4-2.3,4.2,17.8,2.3,18.4C43.1,0.9,39.6,1.1,39.7-5.8z"/>
			<path class="st4" d="M45.9-7.1c5-1.5,11.5-2.5,12.8-0.7c4.1,5.5-15.8,9.1-17,7.5S39.3-5.2,45.9-7.1z"/>
			<path class="st4" d="M48.5-1.4c3.9,3.5,8.2,8.4,7.4,10.5c-2.5,6.3-16.1-8.6-15.3-10.4C41.3-3.2,43.4-6,48.5-1.4z"/>
			<path class="st4" d="M44,3.6c-3.6,3.9-8.5,8.1-10.6,7.2c-6.3-2.6,8.8-16,10.7-15.2S48.7-1.5,44,3.6z"/>
			<circle class="st5" cx="43.4" cy="-1.7" r="4.9"/>
		</g>
		<g>
			<path class="st2" d="M-195.7-89.4c0,0-3.9,17.1-7.1,20.3"/>
			<path class="st3" d="M-202.5-69.8c0,0,0.6-18.1-3.5-14.7C-210.1-81.2-202.5-69.8-202.5-69.8z"/>
			<path class="st3" d="M-201.5-70.9c0,0,13-15,13.2-8.5S-201.5-70.9-201.5-70.9z"/>
			<path class="st4" d="M-191-91.5c5-1.5,11-4.1,11.1-6.4c0.4-6.8-18.2,0.9-18.3,2.9S-197.5-89.5-191-91.5z"/>
			<path class="st4" d="M-192.2-97.6c0-5.2-0.9-11.7-3-12.5c-6.4-2.3-4.2,17.8-2.3,18.4C-195.6-91.1-192.2-90.8-192.2-97.6z"/>
			<path class="st4" d="M-198.4-99c-5-1.5-11.5-2.5-12.8-0.7c-4.1,5.5,15.8,9.1,17,7.5C-193.1-93.8-191.8-97.1-198.4-99z"/>
			<path class="st4" d="M-201-93.3c-3.9,3.5-8.2,8.4-7.4,10.5c2.5,6.3,16.1-8.6,15.3-10.4C-193.9-95-195.9-97.8-201-93.3z"/>
			<path class="st4" d="M-196.5-88.3c3.6,3.9,8.5,8.1,10.6,7.2c6.3-2.6-8.8-16-10.7-15.2C-198.5-95.5-201.2-93.4-196.5-88.3z"/>
			<circle class="st5" cx="-195.9" cy="-93.6" r="4.9"/>
		</g>
		<g>
			<path class="st2" d="M141.7-105c0,0,3.9,17.1,7.1,20.3"/>
			<path class="st3" d="M148.5-85.5c0,0-0.6-18.1,3.5-14.7C156.1-96.8,148.5-85.5,148.5-85.5z"/>
			<path class="st3" d="M147.5-86.6c0,0-13-15-13.2-8.5S147.5-86.6,147.5-86.6z"/>
			<path class="st4" d="M137-107.2c-5-1.5-11-4.1-11.1-6.4c-0.4-6.8,18.2,0.9,18.3,2.9C144.2-108.7,143.5-105.2,137-107.2z"/>
			<path class="st4" d="M138.2-113.3c0-5.2,0.9-11.7,3-12.5c6.4-2.3,4.2,17.8,2.3,18.4C141.6-106.7,138.2-106.5,138.2-113.3z"/>
			<path class="st4" d="M144.4-114.7c5-1.5,11.5-2.5,12.8-0.7c4.1,5.5-15.8,9.1-17,7.5C139.1-109.5,137.8-112.8,144.4-114.7z"/>
			<path class="st4" d="M147-109c3.9,3.5,8.2,8.4,7.4,10.5c-2.5,6.3-16.1-8.6-15.3-10.4C139.8-110.7,141.9-113.5,147-109z"/>
			<path class="st4" d="M142.5-104c-3.6,3.9-8.5,8.1-10.6,7.2c-6.3-2.6,8.8-16,10.7-15.2C144.5-111.2,147.1-109.1,142.5-104z"/>
			<circle class="st5" cx="141.9" cy="-109.3" r="4.9"/>
		</g>
		<g>
			<path class="st2" d="M-135.7,54.7c0,0,3.9,17.1,7.1,20.3"/>
			<path class="st3" d="M-128.9,74.2c0,0-0.6-18.1,3.5-14.7C-121.4,62.9-128.9,74.2-128.9,74.2z"/>
			<path class="st3" d="M-130,73.1c0,0-13-15-13.2-8.5C-143.4,71.2-130,73.1-130,73.1z"/>
			<path class="st4" d="M-140.5,52.6c-5-1.5-11-4.1-11.1-6.4c-0.4-6.8,18.2,0.9,18.3,2.9S-133.9,54.5-140.5,52.6z"/>
			<path class="st4" d="M-139.3,46.4c0-5.2,0.9-11.7,3-12.5c6.4-2.3,4.2,17.8,2.3,18.4C-135.8,53.1-139.3,53.3-139.3,46.4z"/>
			<path class="st4" d="M-133.1,45.1c5-1.5,11.5-2.5,12.8-0.7c4.1,5.5-15.8,9.1-17,7.5C-138.5,50.3-139.7,47-133.1,45.1z"/>
			<path class="st4" d="M-130.4,50.8c3.9,3.5,8.2,8.4,7.4,10.5c-2.5,6.3-16.1-8.6-15.3-10.4C-137.5,49.1-135.6,46.2-130.4,50.8z"/>
			<path class="st4" d="M-135,55.8c-3.6,3.9-8.5,8.1-10.6,7.2c-6.3-2.6,8.8-16,10.7-15.2C-133.1,48.6-130.3,50.7-135,55.8z"/>
			<circle class="st5" cx="-135.6" cy="50.5" r="4.9"/>
		</g>
		<g>
			<path class="st7" d="M685.6,159.3h2.9c6.2,0,11.2-12,11.2-26.6v-262.6h-25.3v262.7C674.4,147.4,679.4,159.3,685.6,159.3z"/>
			<path class="st7" d="M187.7,158.3h2.9c6.2,0,11.2-11.9,11.2-26.5v-262.3h-25.4v262.2C176.4,146.3,181.5,158.3,187.7,158.3z"/>
			<g>
				<path class="st6" d="M-192.4,104.2c-20.3,0-39.6,0.2-56.8,0.6v13.3c17.3,0.4,36.5,0.6,56.8,0.6h1317.2v-14.6L-192.4,104.2
					L-192.4,104.2z"/>
				<path class="st6" d="M-192.4,144.4c-20.3,0-39.6,0.2-56.8,0.6v13.3c17.3,0.4,36.5,0.6,56.8,0.6h1317.2v-14.6L-192.4,144.4
					L-192.4,144.4z"/>
				<path class="st7" d="M-235.3,85.5h-2.9c-6.1,0-11.1,4-11.1,8.9v88h25v-88C-224.2,89.5-229.2,85.5-235.3,85.5z"/>
				<path class="st7" d="M-164.3,85.5h-2.9c-6.2,0-11.1,4-11.1,8.9v88h25v-88C-153.3,89.5-158.2,85.5-164.3,85.5z"/>
				<path class="st7" d="M-93.4,85.5h-2.9c-6.1,0-11.1,4-11.1,8.9v88h25v-88C-82.3,89.5-87.2,85.5-93.4,85.5z"/>
				<path class="st7" d="M-22.4,85.5h-2.9c-6.1,0-11.1,4-11.1,8.9v88h25v-88C-11.3,89.5-16.2,85.5-22.4,85.5z"/>
				<path class="st7" d="M617.3,85.5h-2.9c-6.1,0-11.1,4-11.1,8.9v88h25v-88C628.4,89.5,623.5,85.5,617.3,85.5z"/>
				<path class="st7" d="M688.3,85.5h-2.9c-6.1,0-11.1,4-11.1,8.9v88h25v-88C699.4,89.5,694.4,85.5,688.3,85.5z"/>
				<path class="st7" d="M759.3,85.5h-2.9c-6.1,0-11.1,4-11.1,8.9v88h25v-88C770.4,89.5,765.4,85.5,759.3,85.5z"/>
				<path class="st7" d="M830.2,85.5h-2.9c-6.1,0.1-11.1,4-11,8.9v88h25v-88C841.4,89.5,836.4,85.5,830.2,85.5z"/>
				<path class="st7" d="M48.9,85.5H46c-6.1,0-11.1,4-11.1,8.9v88h25v-88C60,89.5,55.1,85.5,48.9,85.5z"/>
				<path class="st7" d="M119.9,85.5H117c-6.1,0-11.1,4-11.1,8.9v88h25v-88C130.9,89.5,126,85.5,119.9,85.5z"/>
				<path class="st7" d="M190.9,85.5H188c-6.1,0-11.1,4-11.1,8.9v88h25v-88C201.9,89.5,197,85.5,190.9,85.5z"/>
				<path class="st7" d="M261.8,85.5h-2.9c-6.1,0-11.1,4-11.1,8.9v88h25v-88C272.9,89.5,268,85.5,261.8,85.5z"/>
				<path class="st7" d="M333.1,85.5h-2.9c-6.1,0-11.1,4-11.1,8.9v88h25v-88C344.2,89.5,339.3,85.5,333.1,85.5z"/>
				<path class="st7" d="M404.1,85.5h-2.9c-6.1,0-11.1,4-11.1,8.9v88h25v-88C415.2,89.5,410.2,85.5,404.1,85.5z"/>
				<path class="st7" d="M475.1,85.5h-2.9c-6.1,0-11.1,4-11.1,8.9v88h25v-88C486.1,89.5,481.2,85.5,475.1,85.5z"/>
				<path class="st7" d="M546,85.5h-2.9c-6.1,0-11.1,4-11.1,8.9v88h25v-88C557.1,89.5,552.2,85.5,546,85.5z"/>
				<path class="st7" d="M901.5,85.5h-2.9c-6.1,0-11.1,4-11.1,8.9v88h25v-88C912.6,89.5,907.7,85.5,901.5,85.5z"/>
				<path class="st7" d="M972.5,85.5h-2.9c-6.1,0-11.1,4-11.1,8.9v88h25v-88C983.6,89.5,978.6,85.5,972.5,85.5z"/>
				<path class="st7" d="M1043.5,85.5h-2.9c-6.1,0-11.1,4-11.1,8.9v88h25v-88C1054.6,89.5,1049.6,85.5,1043.5,85.5z"/>
				<path class="st7" d="M1114.4,85.5h-2.9c-6.1,0-11.1,4-11.1,8.9v88h25v-88C1125.6,89.5,1120.6,85.5,1114.4,85.5z"/>
			</g>
		</g>
	</g>
</g>
<text transform="matrix(1 0 0 1 2091.4868 84.5984)" class="st9 st13" style="font-size:40px;">EXIT</text>
<g id="Layer_2_1_">
	<g id="bg">
		<ellipse class="st1" cx="660.7" cy="288.2" rx="53.5" ry="16.7"/>
		<rect x="602.6" y="163.8" class="st10" width="116.5" height="18.5"/>
		<path class="st11" d="M651.3,212.4h17.8l0,0v69c0,5.1-4.2,9.3-9.3,9.3l0,0H656c-2.6,0-4.7-2.1-4.7-4.7V212.4L651.3,212.4z"/>
		<path class="st10" d="M649.4,212.4h17.8l0,0v71.3c0,3.9-3.1,7-7,7h-3.8c-3.9,0-7-3.1-7-7V212.4L649.4,212.4z"/>
		
			<rect x="649.3" y="163.3" transform="matrix(2.318185e-02 -0.9997 0.9997 2.318185e-02 421.7879 874.8031)" class="st11" width="18.5" height="116.5"/>
		
			<rect x="649.9" y="131.8" transform="matrix(5.824197e-02 -0.9983 0.9983 5.824197e-02 431.0474 837.0778)" class="st10" width="18.5" height="116.5"/>
		
			<rect x="654.1" y="154.1" transform="matrix(5.824197e-02 -0.9983 0.9983 5.824197e-02 412.6989 862.1967)" class="st10" width="18.5" height="116.5"/>
		
			<rect x="601.6" y="204.8" transform="matrix(0.9998 -1.988677e-02 1.988677e-02 0.9998 -4.1263 13.1646)" class="st10" width="116.5" height="18.5"/>
		
			<rect x="603" y="189.6" transform="matrix(0.9998 -1.988677e-02 1.988677e-02 0.9998 -3.8237 13.1894)" class="st11" width="116.5" height="18.5"/>
		
			<rect x="655.1" y="119.5" transform="matrix(5.824197e-02 -0.9983 0.9983 5.824197e-02 448.217 830.6835)" class="st11" width="18.5" height="116.5"/>
		
			<rect x="604.9" y="182.7" transform="matrix(0.9998 -1.988677e-02 1.988677e-02 0.9998 -3.6861 13.2259)" class="st10" width="116.5" height="18.5"/>
		<text transform="matrix(1 0 0 1 620.4064 212.9496)" class="st12 st13 st14">E</text>
		<text transform="matrix(1 0 0 1 642.9113 212.9496)" class="st12 st13 st14">X</text>
		<text transform="matrix(1 0 0 1 668.4142 212.9496)" class="st12 st13 st14">IT</text>
		<text transform="matrix(1 0 0 1 618.8264 212.9496)" class="st15 st13 st14">E</text>
		<text transform="matrix(1 0 0 1 641.3312 212.9496)" class="st15 st13 st14">X</text>
		<text transform="matrix(1 0 0 1 666.8351 212.9496)" class="st15 st13 st14">IT</text>
		<path class="st16" d="M638.2,277.8c0,0,0.4,1.5,0.6,1.8"/>
		<path class="st17" d="M638.8,279.6c0,0-0.1-1.6,0.3-1.3S638.8,279.6,638.8,279.6z"/>
		<path class="st17" d="M638.7,279.5c0,0-1.2-1.3-1.2-0.8C637.5,279.3,638.7,279.5,638.7,279.5z"/>
		<path class="st4" d="M637.7,277.6c-0.5-0.1-1-0.4-1-0.6c0-0.6,1.6,0.1,1.7,0.3C638.4,277.5,638.3,277.8,637.7,277.6z"/>
		<path class="st4" d="M637.8,277.1c0-0.5,0.1-1.1,0.3-1.1c0.6-0.2,0.4,1.6,0.2,1.7C638.1,277.7,637.8,277.7,637.8,277.1z"/>
		<path class="st4" d="M638.4,277c0.5-0.1,1-0.2,1.2-0.1c0.4,0.5-1.4,0.8-1.5,0.7C637.9,277.4,637.8,277.1,638.4,277z"/>
		<path class="st4" d="M638.6,277.5c0.4,0.3,0.7,0.8,0.7,0.9c-0.2,0.6-1.5-0.8-1.4-0.9C638,277.3,638.2,277.1,638.6,277.5z"/>
		<path class="st4" d="M638.2,277.9c-0.3,0.3-0.8,0.7-1,0.7c-0.6-0.2,0.8-1.4,1-1.4S638.6,277.5,638.2,277.9z"/>
		<circle class="st18" cx="638.2" cy="277.5" r="0.4"/>
		<path class="st16" d="M625.3,289.8c0,0,0.4,1.5,0.6,1.8"/>
		<path class="st17" d="M625.9,291.5c0,0-0.1-1.6,0.3-1.3C626.6,290.5,625.9,291.5,625.9,291.5z"/>
		<path class="st17" d="M625.8,291.4c0,0-1.2-1.3-1.2-0.8C624.6,291.2,625.8,291.4,625.8,291.4z"/>
		<path class="st4" d="M624.8,289.6c-0.5-0.1-1-0.4-1-0.6c0-0.6,1.6,0.1,1.7,0.3C625.5,289.4,625.4,289.7,624.8,289.6z"/>
		<path class="st4" d="M624.9,289c0-0.5,0.1-1.1,0.3-1.1c0.6-0.2,0.4,1.6,0.2,1.7C625.3,289.6,624.9,289.6,624.9,289z"/>
		<path class="st4" d="M625.5,288.9c0.5-0.1,1-0.2,1.2-0.1c0.4,0.5-1.4,0.8-1.5,0.7C625,289.3,624.9,289.1,625.5,288.9z"/>
		<path class="st4" d="M625.7,289.4c0.4,0.3,0.7,0.8,0.7,0.9c-0.2,0.6-1.5-0.8-1.4-0.9C625.1,289.2,625.3,289,625.7,289.4z"/>
		<path class="st4" d="M625.3,289.8c-0.3,0.3-0.8,0.7-1,0.7c-0.6-0.2,0.8-1.4,1-1.4C625.5,289.2,625.8,289.4,625.3,289.8z"/>
		<circle class="st18" cx="625.3" cy="289.4" r="0.4"/>
		<path class="st16" d="M671.3,290.4c0,0,0.4,1.5,0.6,1.8"/>
		<path class="st17" d="M671.9,292.2c0,0-0.1-1.6,0.3-1.3C672.6,291.2,671.9,292.2,671.9,292.2z"/>
		<path class="st17" d="M671.9,292.1c0,0-1.2-1.3-1.2-0.8C670.6,291.9,671.9,292.1,671.9,292.1z"/>
		<path class="st4" d="M670.9,290.2c-0.5-0.1-1-0.4-1-0.6c0-0.6,1.6,0.1,1.7,0.3C671.6,290.1,671.5,290.4,670.9,290.2z"/>
		<path class="st4" d="M671,289.7c0-0.5,0.1-1.1,0.3-1.1c0.6-0.2,0.4,1.6,0.2,1.7C671.3,290.3,671,290.3,671,289.7z"/>
		<path class="st4" d="M671.6,289.6c0.5-0.1,1-0.2,1.2-0.1c0.4,0.5-1.4,0.8-1.5,0.7C671.1,290,671,289.7,671.6,289.6z"/>
		<path class="st4" d="M671.8,290.1c0.4,0.3,0.7,0.8,0.7,0.9c-0.2,0.6-1.5-0.8-1.4-0.9C671.2,289.9,671.3,289.7,671.8,290.1z"/>
		<path class="st4" d="M671.4,290.5c-0.3,0.3-0.8,0.7-1,0.7c-0.6-0.2,0.8-1.4,1-1.4C671.6,289.9,671.8,290.1,671.4,290.5z"/>
		<circle class="st18" cx="671.3" cy="290.1" r="0.4"/>
		<path class="st16" d="M687.1,277.7c0,0,0.4,1.5,0.6,1.8"/>
		<path class="st17" d="M687.7,279.4c0,0-0.1-1.6,0.3-1.3C688.4,278.4,687.7,279.4,687.7,279.4z"/>
		<path class="st17" d="M687.7,279.3c0,0-1.2-1.3-1.2-0.8C686.4,279.2,687.7,279.3,687.7,279.3z"/>
		<path class="st4" d="M686.7,277.5c-0.5-0.1-1-0.4-1-0.6c0-0.6,1.6,0.1,1.7,0.3C687.4,277.4,687.3,277.7,686.7,277.5z"/>
		<path class="st4" d="M686.8,276.9c0-0.5,0.1-1.1,0.3-1.1c0.6-0.2,0.4,1.6,0.2,1.7C687.1,277.5,686.8,277.6,686.8,276.9z"/>
		<path class="st4" d="M687.4,276.8c0.5-0.1,1-0.2,1.2-0.1c0.4,0.5-1.4,0.8-1.5,0.7C686.9,277.3,686.8,277,687.4,276.8z"/>
		<path class="st4" d="M687.6,277.3c0.4,0.3,0.7,0.8,0.7,0.9c-0.2,0.6-1.5-0.8-1.4-0.9C687,277.2,687.1,276.9,687.6,277.3z"/>
		<path class="st4" d="M687.2,277.8c-0.3,0.3-0.8,0.7-1,0.7c-0.6-0.2,0.8-1.4,1-1.4S687.6,277.3,687.2,277.8z"/>
		<circle class="st18" cx="687.1" cy="277.3" r="0.4"/>
		<path class="st16" d="M693.3,298.6c0,0,0.4,1.5,0.6,1.8"/>
		<path class="st17" d="M693.9,300.3c0,0-0.1-1.6,0.3-1.3C694.6,299.3,693.9,300.3,693.9,300.3z"/>
		<path class="st17" d="M693.8,300.2c0,0-1.2-1.3-1.2-0.8C692.6,300.1,693.8,300.2,693.8,300.2z"/>
		<path class="st4" d="M692.9,298.4c-0.5-0.1-1-0.4-1-0.6c0-0.6,1.6,0.1,1.7,0.3C693.5,298.2,693.4,298.6,692.9,298.4z"/>
		<path class="st4" d="M693,297.8c0-0.5,0.1-1.1,0.3-1.1c0.6-0.2,0.4,1.6,0.2,1.7C693.3,298.4,693,298.4,693,297.8z"/>
		<path class="st4" d="M693.5,297.7c0.5-0.1,1-0.2,1.2-0.1c0.4,0.5-1.4,0.8-1.5,0.7C693,298.2,692.9,297.9,693.5,297.7z"/>
		<path class="st4" d="M693.8,298.2c0.4,0.3,0.7,0.8,0.7,0.9c-0.2,0.6-1.5-0.8-1.4-0.9C693.1,298.1,693.3,297.8,693.8,298.2z"/>
		<path class="st4" d="M693.4,298.7c-0.3,0.3-0.8,0.7-1,0.7c-0.6-0.2,0.8-1.4,1-1.4S693.8,298.2,693.4,298.7z"/>
		<circle class="st18" cx="693.3" cy="298.2" r="0.4"/>
		<path class="st16" d="M704.8,280.5c0,0,0.4,1.5,0.6,1.8"/>
		<path class="st17" d="M705.4,282.2c0,0-0.1-1.6,0.3-1.3C706.1,281.2,705.4,282.2,705.4,282.2z"/>
		<path class="st17" d="M705.3,282.1c0,0-1.2-1.3-1.2-0.8C704.1,281.9,705.3,282.1,705.3,282.1z"/>
		<path class="st4" d="M704.4,280.3c-0.5-0.1-1-0.4-1-0.6c0-0.6,1.6,0.1,1.7,0.3C705,280.1,705,280.4,704.4,280.3z"/>
		<path class="st4" d="M704.5,279.7c0-0.5,0.1-1.1,0.3-1.1c0.6-0.2,0.4,1.6,0.2,1.7S704.5,280.3,704.5,279.7z"/>
		<path class="st4" d="M705,279.6c0.5-0.1,1-0.2,1.2-0.1c0.4,0.5-1.4,0.8-1.5,0.7C704.5,280.1,704.4,279.8,705,279.6z"/>
		<path class="st4" d="M705.3,280.1c0.4,0.3,0.7,0.8,0.7,0.9c-0.2,0.6-1.5-0.8-1.4-0.9C704.6,279.9,704.8,279.7,705.3,280.1z"/>
		<path class="st4" d="M704.9,280.5c-0.3,0.3-0.8,0.7-1,0.7c-0.6-0.2,0.8-1.4,1-1.4S705.3,280.1,704.9,280.5z"/>
		<circle class="st18" cx="704.8" cy="280.1" r="0.4"/>
		<path class="st16" d="M653.9,299.2c0,0,0.4,1.5,0.6,1.8"/>
		<path class="st17" d="M654.6,300.9c0,0-0.1-1.6,0.3-1.3C655.2,299.9,654.6,300.9,654.6,300.9z"/>
		<path class="st17" d="M654.5,300.8c0,0-1.2-1.3-1.2-0.8C653.3,300.7,654.5,300.8,654.5,300.8z"/>
		<path class="st4" d="M653.5,299c-0.5-0.1-1-0.4-1-0.6c0-0.6,1.6,0.1,1.7,0.3C654.2,298.8,654.1,299.2,653.5,299z"/>
		<path class="st4" d="M653.6,298.4c0-0.5,0.1-1.1,0.3-1.1c0.6-0.2,0.4,1.6,0.2,1.7C653.9,299,653.6,299,653.6,298.4z"/>
		<path class="st4" d="M654.2,298.3c0.5-0.1,1-0.2,1.2-0.1c0.4,0.5-1.4,0.8-1.5,0.7C653.7,298.8,653.6,298.5,654.2,298.3z"/>
		<path class="st4" d="M654.4,298.8c0.4,0.3,0.7,0.8,0.7,0.9c-0.2,0.6-1.5-0.8-1.4-0.9C653.8,298.7,654,298.4,654.4,298.8z"/>
		<path class="st4" d="M654,299.3c-0.3,0.3-0.8,0.7-1,0.7c-0.6-0.2,0.8-1.4,1-1.4S654.4,298.8,654,299.3z"/>
		<circle class="st18" cx="654" cy="298.8" r="0.4"/>
		<path class="st1" d="M646.7,272.1c0,0,1-5.3,0.6-6.1c0,0,2.9,5.9,4.5,5.1c1.6-0.9,3.3-2.7,2.1-5.1c0,0,2.9,4.2,4,5.5
			c2.6-5,5.1-2.5,5.1-2.5s-4.1-1-1,3s6.8-3.8,4.6-5.6c1.3,1.5,2.1,3.3,2.4,5.3c0.5,3.2,6.4,2.9,8.3,5.4c1.9,2.5-12,19-19.1,17.2
			S640.2,289.6,646.7,272.1z"/>
	</g>
</g>
<g>
	<title>Penguin_Right2_3</title>
	<g id="Layer_2_2_">
		<g id="Layer_12">
			<path class="st19" d="M253.6,280.4L253.6,280.4c-3.3,1.5-4.6,6.7-3,12.1c1.7,5.7,6.1,9.4,9.7,8.3v0c0.2,0,0.5-0.1,0.7-0.1
				c0.3-0.1,0.7-0.1,1-0.2c4.6-1.1,8.7-3.8,11.4-7.7c3.7-4,3.5-10.2-0.5-13.9c-0.9-0.9-2-1.6-3.2-2
				C264.1,275.3,258,276.6,253.6,280.4z"/>
			<path class="st19" d="M204.6,286.7c-0.8-0.8-1.5-1.6-2.2-2.5c-5,3.1-8,8.5-8.2,14.4c0.3,5.4,5,9.6,10.4,9.2
				c1.3-0.1,2.5-0.4,3.7-1c5.1-1.7,9.2-5.3,11.5-10.2C214.2,294.5,209,291,204.6,286.7L204.6,286.7z"/>
			<path class="st20" d="M256.2,294.4c0.6-0.3,1.2-0.6,1.8-0.9C257.4,293.8,256.8,294.1,256.2,294.4z"/>
			<path class="st20" d="M240.2,204.6c0,0,1.3-0.9,2.9-2c-3.3-0.6-6.6-1-10-1c-27.5-0.3-50.1,21.6-50.4,49.1
				c0.4,27.5,22.9,49.5,50.4,49.1c7.2,0,14.4-1.5,21-4.5C275.2,263.5,240.2,204.6,240.2,204.6z"/>
			<path class="st21" d="M283.9,250.9c-0.3-23.8-17.3-44-40.7-48.4l-0.1,0.1c-1.6,1.2-2.9,2-2.9,2s35,58.9,13.9,90.8
				c0,0.1-0.1,0.1-0.1,0.2c0.8-0.3,1.5-0.8,2.3-1.2c0.6-0.3,1.2-0.6,1.8-0.9C273.7,285,283.7,268.7,283.9,250.9z"/>
			<path class="st4" d="M261.5,180.5c2.9-0.4,5.6,1.7,6,4.6c0,0.1,0,0.3,0,0.4c0.3,3.2-1.9,6-5,6.6c-2.9,0.4-5.6-1.7-6-4.6
				c0-0.1,0-0.3,0-0.4C256.2,183.9,258.4,181,261.5,180.5z"/>
			<path class="st19" d="M276.3,209.6c-6.6-0.1-11.9-3.3-11.9-7.2c0.3-2.4,1.8-4.4,4-5.3c2.5-1.3,5.4-1.9,8.2-1.9
				c1.9,0,3.7,0.2,5.5,0.7c-0.7,3.3-1.9,6.4-3.4,9.4C278.1,206.8,277.3,208.2,276.3,209.6z"/>
			<path class="st22" d="M265.2,182.3c-3.1,0.5-5.3,3.4-5,6.6c0.2,2.9,2.7,5.2,5.6,5c0.1,0,0.3,0,0.4,0c3.1-0.5,5.3-3.4,5-6.6
				c-0.2-2.9-2.7-5.2-5.6-5C265.4,182.3,265.3,182.3,265.2,182.3z M268.3,189.7c-1.1,0.1-2.1-0.6-2.3-1.8c0-0.1,0-0.1,0-0.2
				c-0.1-1.2,0.7-2.3,1.9-2.5c1.1-0.1,2.1,0.6,2.3,1.8c0,0.1,0,0.1,0,0.2C270.4,188.4,269.5,189.5,268.3,189.7z"/>
			<path class="st4" d="M268,185.2c-1.2,0.2-2,1.3-1.9,2.5c0.1,1.1,1,2,2.1,1.9c0.1,0,0.1,0,0.2,0c1.2-0.2,2-1.3,1.9-2.5
				c-0.1-1.1-1-2-2.1-1.9C268.1,185.2,268,185.2,268,185.2z"/>
			<ellipse class="st23" cx="235.2" cy="190.5" rx="47.5" ry="41"/>
			<path class="st24" d="M222.9,179.4c0.2-0.3,0.4-0.5,0.6-0.8C223.3,178.9,223.1,179.1,222.9,179.4z"/>
			<path class="st24" d="M237.3,169.5c-0.7,0.2-1.4,0.4-2.1,0.6C235.9,169.9,236.6,169.8,237.3,169.5L237.3,169.5z"/>
			<path class="st24" d="M276.5,195.5L276.5,195.5c0.2-2.5-0.1-5.1-0.7-7.6C276.4,190.4,276.6,192.9,276.5,195.5z"/>
			<path class="st24" d="M239.1,169l-0.4,0.1L239.1,169L239.1,169z"/>
			<path class="st24" d="M214.7,210.8l0-0.3c0-1.4,0.1-2.8,0.2-4.3l0-0.3c0-0.6,0.1-1.2,0.1-1.8c0.2-3.7,0.8-7.3,1.5-10.9
				c-2.4,11.7-2.6,23.8-0.4,35.6c-1-5.7-1.5-11.6-1.5-17.4C214.7,211.1,214.7,211,214.7,210.8z"/>
			<path class="st20" d="M282.6,179.9c-0.1-0.3-0.1-0.7-0.2-1c-0.2-0.9-0.4-1.8-0.6-2.7c-0.2-1-0.5-1.9-0.8-2.9
				c-0.2-0.6-0.4-1.1-0.6-1.7c-0.6-1.5-1.2-2.9-1.9-4.3c-0.1-0.2-0.2-0.4-0.3-0.6c-5-8.8-12.4-15.8-21.5-20.3l-0.3-0.1
				c-1.3-0.6-2.6-1.2-4-1.7c-5.8-2.2-12-3.4-18.2-3.4c-0.7,0-1.3,0-2,0c-3.3,0.1-6.6,0.5-9.8,1.2l-0.1,0l-0.2,0.1
				c-3.2,0.9-6.2,2-9.2,3.4c-0.2,0.1-0.4,0.2-0.6,0.3c-0.7,0.3-1.3,0.7-2,1c-15.6,7.9-25.1,24.3-24.1,41.8c0,0.2,0,0.4,0,0.6
				c0.4,4.1,1.2,8.2,2.6,12.1c0.2,0.5,0.4,1,0.6,1.4c0.4,1.1,0.9,2.1,1.4,3.2c0.7,1.3,1.4,2.6,2.2,3.8c0.1,0.2,0.2,0.4,0.4,0.6
				c0.9,1.4,1.9,2.8,3,4l0.3,0.3c1,1.1,2,2.2,3.1,3.3c4.7,4.3,10,7.8,15.9,10.3c0.3,0.1,0.5,0.3,0.7,0.4l0-0.1
				c-2.2-11.8-2-23.9,0.4-35.6c0.1-0.3,0.1-0.6,0.2-0.8l0-0.2c0.1-0.6,0.2-0.8,0.2-0.8c1.2-4.3,3.1-8.3,5.8-11.9
				c0.2-0.3,0.4-0.5,0.6-0.8c1.1-1.4,2.3-2.6,3.6-3.7l0.1-0.1c1.1-0.9,2.2-1.7,3.4-2.4c0.1-0.1,0.2-0.1,0.3-0.2
				c0.2-0.1,0.4-0.2,0.6-0.3c1-0.6,2.1-1,3.1-1.5c0.2-0.1,0.5-0.2,0.7-0.3c0.7-0.2,1.4-0.4,2.1-0.6l-0.1,0c0,0,0.5-0.2,1.5-0.4
				l0.4-0.1l0.1,0c8.1-2.1,16.7-1.2,24.2,2.5c0.2,0.1,0.3,0.2,0.5,0.3c0.4,0.2,0.8,0.4,1.2,0.7c0.2,0.1,0.3,0.2,0.4,0.3
				c1.1,0.8,2.2,1.7,3.2,2.7c1.1,1,2,2.1,2.9,3.3c0.1,0.2,0.2,0.3,0.4,0.4c0.2,0.2,0.3,0.4,0.4,0.6c0.1,0.2,0.2,0.3,0.3,0.5
				c1.5,2.3,2.6,4.8,3.1,7.5c0.6,2.5,0.9,5.1,0.7,7.6c1.8,0.1,3.6,0.3,5.4,0.7c0,0,0.2,0,0.2,0C283.3,190.9,283.4,185.3,282.6,179.9
				z"/>
			<path class="st19" d="M277.1,208.4c-5.7-0.2-10.2-3.1-10.2-6.7c0.2-2.2,1.6-4.1,3.6-5c2.3-1.2,4.8-1.8,7.3-1.7
				c1.5,0,3.1,0.2,4.6,0.7c-0.7,4.5-2.2,8.8-4.4,12.8L277.1,208.4z"/>
			<path d="M267.6,185.5c-0.2-3-2.7-5.2-5.7-5.1c-0.1,0-0.3,0-0.4,0c-3.2,0.5-5.4,3.4-5.1,6.6c0.2,3,2.7,5.2,5.7,5.1
				c0.1,0,0.3,0,0.4,0C265.6,191.6,267.9,188.7,267.6,185.5z M264.5,184.8c0.1,1.2-0.7,2.3-1.9,2.5c-1.1,0.1-2.1-0.7-2.3-1.8
				c0-0.1,0-0.1,0-0.2c-0.1-1.2,0.7-2.3,1.9-2.5c1.1-0.1,2.1,0.7,2.3,1.8C264.5,184.7,264.5,184.8,264.5,184.8L264.5,184.8z"/>
			<path class="st25" d="M194.8,264.3l-16.5,9.4l2.8,1l-4.3,3.2l5.3,0.2l-1,3l16.1-10.5C197.1,270.6,200.9,266.3,194.8,264.3z"/>
			<path class="st21" d="M241.1,236.6c-4-1.5-8.3-1.8-12.4-0.9c-10,2-16.2,10.1-14,18.1c3.6,8.6,13.1,13.2,22.1,10.7
				c1.1-0.2,2.2-0.6,3.3-1v0c2.7-0.8,12.2-5.1,12.3-13.5C252.5,241.7,241.1,236.6,241.1,236.6z"/>
		</g>
	</g>
</g>
</svg>
