<?xml version="1.0" encoding="utf-8"?>
<!-- Generator: Adobe Illustrator 22.1.0, SVG Export Plug-In . SVG Version: 6.00 Build 0)  -->
<svg version="1.1" id="Layer_1" xmlns="http://www.w3.org/2000/svg" xmlns:xlink="http://www.w3.org/1999/xlink" x="0px" y="0px"
	 viewBox="0 0 243.3 181.1" style="enable-background:new 0 0 243.3 181.1;" xml:space="preserve">
<style type="text/css">
	.st0{fill:#565556;}
	.st1{fill:#DBD5D7;}
	.st2{fill:#FFFFFF;}
	.st3{fill:#231F20;stroke:#000000;stroke-width:1.2737;stroke-miterlimit:10;}
	.st4{stroke:#000000;stroke-width:0.5;stroke-miterlimit:10;}
	.st5{fill:#FFCE55;}
	.st6{fill:#FFB3C9;}
</style>
<title>cow</title>
<g id="Cow">
	<g id="back_x5F_feet">
		<path id="right" class="st0" d="M170,159.4c2.7-2.9,2.6-7.5-0.4-10.2l-11.9-11.1c-2.9-2.7-7.5-2.6-10.2,0.4l0,0
			c-0.5,0.6-1,1.2-1.3,2c-3.8,6-19.7,32-12.3,39c7.7,7.4,31.3-15.4,34.9-19C169.2,160.1,169.7,159.7,170,159.4L170,159.4z"/>
		<path id="left" class="st1" d="M208.7,140.4c-2.4-3.2-6.8-3.9-10.1-1.6l-13.2,9.6c-3.2,2.4-3.9,6.8-1.6,10.1l0,0
			c0.5,0.6,1,1.2,1.7,1.7c5.2,4.9,27.7,25.4,36,19.4c8.8-6.1-9.2-33.6-12-37.9C209.3,141.3,209,140.8,208.7,140.4z"/>
	</g>
	<g id="body">
		<path class="st2" d="M116.8,59l45.8-0.3c33.8,0,62,25.2,62,50.8v37.1c0,6.1-6.6,11.1-14.6,11.1l0,0H62.8c-8.1,0-14.6-5-14.6-11.1
			l0,0l-3.3-73C44.8,67.4,108.7,59,116.8,59z"/>
		<path d="M157.8,58.2c0,0,12.4,53.3-35.8,54.3s-3.8-54.3-3.8-54.3H157.8z"/>
		<path d="M172,59.1c0,0,1.8,57.5,52.6,69.4v-16.8c0,0,1.7-17.5-10.4-31.5C202.1,66.2,182.4,59.1,172,59.1z"/>
	</g>
	<g id="front">
		<path id="right_x5F_foot" class="st0" d="M77.4,139c-1.7-3.6-5.9-5.2-9.6-3.6l-14.9,6.7c-3.6,1.7-5.2,5.9-3.6,9.6l0,0
			c0.3,0.8,0.8,1.4,1.4,2.1c4,5.8,21.8,30.5,31.2,26.4c9.8-4.2-2.1-34.9-4.1-39.6C77.7,140,77.6,139.5,77.4,139L77.4,139z"/>
		<path id="left_x5F_foot" class="st1" d="M109.9,160.1c2.8-2.8,2.9-7.3,0-10.2l-11.5-11.6c-2.8-2.8-7.3-2.9-10.2,0l0,0
			c-0.6,0.6-1,1.2-1.4,1.9c-4.1,5.8-20.9,31.1-13.9,38.4c7.4,7.7,31.9-14.1,35.7-17.6C109,160.8,109.4,160.5,109.9,160.1
			L109.9,160.1z"/>
	</g>
	<g id="tail">
		<path class="st3" d="M234.7,26.1c0,0-4.3,13.2,3.6,11.5S239.7,28.7,234.7,26.1z"/>
		<path class="st4" d="M207.6,74.9h-1c0-0.4,0.4-10.1,7.1-16.4c3.9-3.7,9.2-5.4,15.7-5.2c6.3,0.2,10.3-1,11.8-3.8
			c2.5-4.5-2.3-11.7-2.4-11.8l0.8-0.6c0.2,0.3,5.2,7.8,2.4,12.9c-1.7,3.1-6,4.6-12.7,4.3c-6.2-0.2-11.2,1.4-14.9,4.9
			C208,65.2,207.6,74.8,207.6,74.9z"/>
	</g>
	<g id="face">
		<path d="M45.5,24c0,0-28.3-13.5-41.9-5.2s15,28.8,25.6,29.3c2,0.1,4.1,0,6.1-0.3c3.5-8.5,8.1-16.5,14.1-22.5
			C48.2,24.6,46.8,24.2,45.5,24z"/>
		<path class="st5" d="M51.8,2.5c-1-9.2-16.8,9-0.8,21.3c3-2.8,6.4-5,10.1-6.7C57.6,14.1,52.5,8.7,51.8,2.5z"/>
		<path class="st2" d="M122.3,98.4l-4.7-44c-24-11.8-46.1-39.9-46.1-40.1c-3.6,0.4-7.2,1.3-10.5,2.8c-3.7,1.7-7.1,3.9-10.1,6.7
			c-0.5,0.5-1,1-1.6,1.5c-6,6.1-10.6,14.1-14.1,22.5c-6,14.7-5.9,34-7,49.8L122.3,98.4z M52.3,69.5c-2.6,0-4.6-4.1-4.6-9.3
			s2.1-9.3,4.6-9.3s4.6,4.1,4.6,9.3S54.9,69.5,52.3,69.5z M97.6,51c2.6,0,4.6,4.1,4.6,9.3s-2.1,9.3-4.6,9.3S93,65.3,93,60.2
			S95,51,97.6,51z"/>
		<g>
			<path d="M52.3,51c-2.6,0-4.6,4.1-4.6,9.3s2.1,9.3,4.6,9.3s4.6-4.1,4.6-9.3S54.9,51,52.3,51z M50.4,62.2c-0.5,0-0.9-0.7-0.9-1.6
				S50,59,50.4,59s0.9,0.7,0.9,1.6S50.9,62.2,50.4,62.2z"/>
			<ellipse class="st2" cx="50.4" cy="60.6" rx="0.9" ry="1.6"/>
		</g>
		<g>
			<path d="M97.6,69.5c2.6,0,4.6-4.1,4.6-9.3s-2.1-9.3-4.6-9.3S93,55.1,93,60.2S95,69.5,97.6,69.5z M94.8,60.6
				c0-0.9,0.4-1.6,0.9-1.6s0.9,0.7,0.9,1.6s-0.4,1.6-0.9,1.6S94.8,61.5,94.8,60.6z"/>
			<ellipse class="st2" cx="95.7" cy="60.6" rx="0.9" ry="1.6"/>
		</g>
		<ellipse transform="matrix(0.5 -0.866 0.866 0.5 -33.1415 144.3742)" class="st2" cx="108.5" cy="100.9" rx="5.1" ry="2.9"/>
		<ellipse transform="matrix(0.866 -0.5 0.5 0.866 -44.818 34.5084)" class="st2" cx="42" cy="100.9" rx="2.9" ry="5.1"/>
		<path d="M121.2,47.9c10.6-0.5,39.2-20.9,25.6-29.1S105,23.9,105,23.9c-1.4,0.2-2.7,0.7-3.9,1.3l0,0c0,0-0.2-0.2-0.6-0.6
			c-0.4-0.3-0.9-0.8-1.5-1.4c-2-1.7-4.2-3.3-6.5-4.6c-0.6-0.4-1.3-0.7-1.9-1c-0.1-0.1-0.3-0.1-0.4-0.2s-0.3-0.1-0.4-0.2
			c-3.6-1.5-7.4-2.5-11.3-2.9c-2.3-0.3-4.7-0.3-7,0l0,0c0,0.2,4.2,37.3,46.1,39.9l0,0v-0.1l-2.4-6.3l-0.1-0.2l0,0
			C117.2,47.9,119.2,48,121.2,47.9z"/>
		<path class="st5" d="M90.2,17.4c0.1,0.1,0.3,0.1,0.4,0.2c0.7,0.3,1.3,0.7,1.9,1c1.9,1.1,3.7,2.4,5.5,3.8
			c13.3-12.2-1.4-28.8-2.5-19.9c-0.6,5.6-4.9,10.6-8.3,13.7c0.9,0.3,1.7,0.6,2.6,1C89.9,17.3,90,17.4,90.2,17.4z"/>
		<g>
			<path class="st6" d="M122.8,101.2c0,17.5-14.7,34.2-47.8,34.2c-31.4,0-47.5-16.6-47.5-34.2s14.8-32.1,48.3-31.7
				C109.8,70,122.8,83.7,122.8,101.2z"/>
			
				<ellipse transform="matrix(0.7758 -0.6309 0.6309 0.7758 -52.2744 53.7456)" class="st2" cx="49.5" cy="100.4" rx="3.9" ry="6.4"/>
			
				<ellipse transform="matrix(0.6309 -0.7758 0.7758 0.6309 -41.2421 114.8843)" class="st2" cx="100.1" cy="100.8" rx="6.4" ry="3.9"/>
		</g>
	</g>
</g>
</svg>
