<?xml version="1.0" encoding="utf-8"?>
<!-- Generator: Adobe Illustrator 22.1.0, SVG Export Plug-In . SVG Version: 6.00 Build 0)  -->
<svg version="1.1" xmlns="http://www.w3.org/2000/svg" xmlns:xlink="http://www.w3.org/1999/xlink" x="0px" y="0px"
	 viewBox="0 0 32 32" style="enable-background:new 0 0 32 32;" xml:space="preserve">
<style type="text/css">
	.st0{fill:#0C0C0C;}
	.st1{fill:#DDDDDD;}
	.st2{fill:#FFFFFF;}
	.st3{fill:#F4F3F2;}
</style>
<g id="Layer_1">
	<g>
		<g id="Body">
			<g id="foot">
				<g>
					<path class="st0" d="M8.1,27.3c-0.1,0.2-0.3,0.3-0.4,0.5c-0.6,1-0.5,2.3,0.1,2.9c0.6,0.6,1.6,0.2,2.1-0.8
						c0.1-0.2,0.2-0.5,0.3-0.8C9.2,28.9,8.4,28.2,8.1,27.3z"/>
				</g>
				<g>
					<path class="st0" d="M21.2,29.2c0.1,0.3,0.2,0.5,0.3,0.8c0.6,1,1.5,1.4,2.1,0.8s0.6-1.9,0.1-2.9c-0.1-0.1-0.1-0.2-0.2-0.4
						C23.1,28.4,22.2,29,21.2,29.2z"/>
				</g>
			</g>
			<g>
				<path class="st1" d="M20.9,18.7c-3,1.8-6.8,1.9-9.9,0.1c-0.4,0-0.9,0-1.3-0.1c-0.4-0.1-1.1,0.3-1.8,0.8v6.8c0,0.3,0.1,0.7,0.2,1
					c0.3,0.9,1.1,1.7,2.1,1.9c0.2,0,0.4,0.1,0.6,0.1h10c0.1,0,0.3,0,0.4,0c1-0.1,1.9-0.8,2.3-1.7c0.2-0.4,0.2-0.7,0.2-1.1V20
					c-0.6-0.5-1.3-1-1.6-1.2C21.7,18.7,21.3,18.7,20.9,18.7z"/>
			</g>
			<g id="hands">
				<g>
					<path class="st0" d="M24.1,15.8c-0.1-0.1-0.1-0.1-0.2-0.1c-0.8,1.3-1.8,2.3-3.1,3.1c0.4,0,0.8,0,1.2,0.1c0.4,0.2,1,0.7,1.6,1.2
						c0.8,0.7,1.7,1.4,2.1,1.5C26.7,21.6,27.2,18.6,24.1,15.8z"/>
				</g>
				<g>
					<path class="st0" d="M9.7,18.7c0.4,0.1,0.8,0.1,1.3,0.1c-1.3-0.7-2.4-1.8-3.2-3.1l-0.2,0c0,0-3.1,0.9-3.2,4.3
						c-0.1,2.3,2,0.6,3.7-0.5C8.7,19,9.3,18.6,9.7,18.7z"/>
				</g>
			</g>
		</g>
		<g id="Head">
			<g id="ear">
				<g>
					<path class="st0" d="M24.4,8.4l0.7-0.7c1-1.1,1-2.8,0-3.9L25,3.6c-0.9-1-2.4-1.1-3.4-0.2c-0.1,0.1-0.1,0.1-0.2,0.2l-0.6,0.7
						C22.4,5.2,23.7,6.7,24.4,8.4z"/>
				</g>
				<g>
					<path class="st0" d="M10.6,4.4L9.9,3.6C9,2.6,7.5,2.5,6.5,3.4C6.4,3.4,6.3,3.5,6.3,3.6L6.1,3.7c-1,1.1-1,2.8,0,3.9l0.9,1
						C7.8,6.9,9,5.4,10.6,4.4z"/>
				</g>
			</g>
			<g>
				<ellipse class="st2" cx="11.7" cy="10.7" rx="2.1" ry="2.2"/>
			</g>
			<g>
				<ellipse class="st2" cx="20.4" cy="10.8" rx="2.1" ry="2.2"/>
			</g>
			<g>
				<path class="st3" d="M11,18.8c3.1,1.7,6.9,1.7,9.9-0.1c1.3-0.8,2.3-1.8,3.1-3.1c1.3-2.2,1.5-4.9,0.5-7.2c-0.7-1.7-2-3.2-3.7-4.1
					c-3.1-1.8-7-1.8-10.1,0.1C9,5.4,7.8,6.9,7.1,8.7c-0.9,2.3-0.6,4.9,0.7,7C8.6,17,9.7,18.1,11,18.8z M20.1,7.3c1.7,0,3,1.5,3,3.3
					s-1.4,3.3-3,3.3s-3-1.5-3-3.3S18.5,7.3,20.1,7.3z M14.7,10.6c0,1.8-1.4,3.3-3,3.3s-3-1.5-3-3.3s1.4-3.3,3-3.3
					S14.7,8.7,14.7,10.6z"/>
			</g>
			<g>
				<path class="st0" d="M8.7,10.6c0,1.8,1.4,3.3,3,3.3s3-1.5,3-3.3s-1.4-3.3-3-3.3S8.7,8.7,8.7,10.6z M11.5,12.4
					c-0.9,0-1.7-0.8-1.7-1.9c0-0.6,0.3-1.2,0.7-1.5l0.6,0.5c-0.2,0.3-0.4,0.6-0.4,1c0,0.7,0.5,1.3,1.2,1.3c0.4,0,0.8-0.2,1.1-0.6
					l0,0C12.9,12,12.3,12.4,11.5,12.4L11.5,12.4z"/>
			</g>
			<g>
				<path class="st0" d="M20.1,13.9c1.7,0,3-1.5,3-3.3s-1.4-3.3-3-3.3s-3,1.5-3,3.3S18.5,13.9,20.1,13.9z M22,10.6
					c0,1-0.8,1.9-1.7,1.9c-0.8,0-1.5-0.6-1.7-1.4l0,0c0.1,0.5,0.6,0.9,1.2,0.9c0.7,0,1.3-0.6,1.2-1.3c0-0.5-0.2-0.9-0.6-1.2
					c0.2-0.2,0.4-0.4,0.5-0.6C21.6,9.1,22,9.8,22,10.6z"/>
			</g>
			<g>
				<g>
					<path class="st0" d="M15.3,14c0.1,0.2,0.3,0.3,0.5,0.3c0.2,0,0.4-0.1,0.5-0.3C16.4,13.6,15.3,13.6,15.3,14z"/>
				</g>
				<g>
					<path class="st0" d="M13.3,16.9l-0.2-0.2c0.1-0.1,1.5-1.5,2.6-1.7v-1H16v1.2l-0.1,0C14.9,15.4,13.3,16.9,13.3,16.9z"/>
				</g>
				<g>
					<path class="st0" d="M18.3,16.9c-1.6-1.5-2.5-1.7-2.5-1.7l0.1-0.3c0,0,0.9,0.2,2.6,1.8L18.3,16.9z"/>
				</g>
			</g>
		</g>
	</g>
</g>
<g id="Layer_2">
</g>
<g id="Layer_3">
</g>
<g id="Layer_4">
</g>
<g id="Layer_5">
</g>
<g id="Layer_6">
</g>
<g id="Layer_7">
</g>
<g id="Layer_8">
</g>
<g id="Layer_9">
</g>
<g id="Layer_10">
</g>
<g id="Layer_11">
</g>
<g id="Layer_12">
</g>
</svg>
