<svg xmlns="http://www.w3.org/2000/svg" viewBox="0 0 423.6563 551.0799"><defs><style>.cls-1{fill:#fcd;}.cls-2{fill:#fff;}.cls-3{fill:#231f20;}.cls-4{fill:none;stroke:#231f20;stroke-linecap:round;stroke-linejoin:round;stroke-width:1.8076px;}.cls-5{fill:#e2afc2;}.cls-6{fill:#f9f3e4;}.cls-7{fill:#e0a9be;}.cls-8{fill:#bcbcbc;}.cls-9{fill:#e5acc2;}</style></defs><title>rabbit</title><g id="Layer_2" data-name="Layer 2"><g id="Rabbit"><path class="cls-1" d="M295.3917,530.1529s-8.44,3.887-9.84,9.0628,18.3259,12.0719,27.6259,3.6471,38.1756-34.3039,18.2252-35.7637S295.3917,530.1529,295.3917,530.1529Z"/><path class="cls-1" d="M86.41,357.0918C58.5133,408.5941,52.936,504.1685,102.71,536.0267s19.07-8.2215,24.93-18.4983c25.979,0,36.2341,3.083,45.726,1.0277s-15.515,26.4234-4.686,29.5486c5.7534,1.66,44.4708,12.0663,71.949-19.3374,7.4047-8.4625,34.6745,11.1863,52.538,8.261,6.6079-1.0821-3.0111.9869,3.294-.4856,25.618-5.9832,37.4807-11.0258,45.8612-25.18-25.6282,28.7751-31.3233,32.9644-8.5427,37.0359S502.4241,455.03,289.9471,336.5195C16.6018,184.0592,86.41,357.0918,86.41,357.0918Z"/><path class="cls-1" d="M193.0935,182.3106C207.7341,107.8593,262.6364-46.921,323.029,13.8156s-78.6933,215.5169-115.2949,207.68S193.0935,182.3106,193.0935,182.3106Z"/><path class="cls-2" d="M215.6347,193.2485l1.102-5.6083c5.2981-26.9348,17.5739-70.9814,35.2185-108.31,19.9489-42.201,36.4078-53.46,42.9866-53.46,3.9525,0,8.46,3.6984,11.5436,6.8007,3.0936,3.11,12.504,12.5757,3.7684,41.4431-15.8855,52.4815-73.1766,110.1469-95.4475,120.3189Z"/><path class="cls-1" d="M154.5243,188.6972C140.411,127.4558,87.486.1381,29.2685,50.0982S105.1277,227.376,140.411,220.93,154.5243,188.6972,154.5243,188.6972Z"/><path class="cls-2" d="M132.795,197.6945l-1.0623-4.6132c-5.1073-22.1557-16.941-58.3872-33.95-89.0929-19.23-34.7133-35.0966-43.975-41.4385-43.975-3.81,0-8.1549,3.0422-11.1279,5.594-2.9822,2.558-12.0537,10.3444-3.6327,34.09,15.3134,43.17,70.5412,90.6036,92.01,98.9707Z"/><path class="cls-1" d="M301.8423,284.9036c2.99,26.2687-2.8331,39.683-16.4007,61.9974-19.3387,31.8062-72.1976,45.2683-115.085,45.2683-40.3444,0-90.2348-9.9572-112.9748-36.8026-19.2555-22.7319-21.5544-42.0037-17.7192-70.4631,4.2372-31.4429,23.3678-63.8505,47.09-85.1028s47.8-32.3361,84-32.3361c37.5914,0,64.4664,16.36,88.37,39.0689C281.2554,227.5611,298.5407,255.9,301.8423,284.9036Z"/><circle class="cls-3" cx="109.912" cy="263.2767" r="23.1591"/><circle class="cls-3" cx="225.5915" cy="263.2767" r="23.1591"/><circle class="cls-2" cx="103.3166" cy="255.8995" r="6.9642"/><circle class="cls-2" cx="217.3818" cy="255.8995" r="6.9642"/><path class="cls-4" d="M128.6509,305.3878s19.0166,22.1159,40.1914,0"/><path class="cls-4" d="M210.4176,305.3878s-19.0166,22.1159-40.1914,0"/><ellipse class="cls-3" cx="169.5342" cy="295.1457" rx="14.483" ry="10.2421"/><path class="cls-5" d="M61.7749,90.0784s26.0635-3.7706,32.52,7.8266S71.2722,11.993,61.7749,90.0784Z"/><path class="cls-1" d="M29.2685,50.0982s-48.57,45.9465-20.574,116.0959S56.2494,39.4082,91.6639,56.7657C91.6639,56.7657,61.8408,18.7662,29.2685,50.0982Z"/><circle class="cls-6" cx="396.5785" cy="449.4601" r="27.0778"/><path class="cls-7" d="M117.3373,485.5406s6.9037,30.57,15.4578,31.9879c10.34,0,17.5366.3706,27.0389.9828C159.834,518.5113,130.5337,515.24,117.3373,485.5406Z"/><path class="cls-7" d="M86.7529,376.3588s144.8532,42.9191,202.565-35.9914C289.3179,340.3674,240.4787,429.7111,86.7529,376.3588Z"/><path class="cls-2" d="M148.64,316.0985s-3.0919,22.7728,4.8455,22.3948,20.381,9.958,16.049-32.5309C169.5342,305.9625,161.6,315.5666,148.64,316.0985Z"/><path class="cls-2" d="M190.403,316.0985s3.0919,22.7728-4.8455,22.3948-20.381,9.958-16.049-32.5309C169.5085,305.9625,177.4423,315.5666,190.403,316.0985Z"/><path class="cls-8" d="M168.617,311.1888s-3.8457,10.1733.2254,20.7825C168.8424,331.9713,167.3725,317.874,168.617,311.1888Z"/><path class="cls-2" d="M163.2208,287.7977s-5.2487,1.3894-5.2487,4.4769,2.9331-2.3156,5.2487-2.2384S165.9655,288.44,163.2208,287.7977Z"/><path class="cls-9" d="M351.1039,495.9915s-10.73,28.4341-55.5948,40.7751C295.5091,536.7667,349.7547,527.246,351.1039,495.9915Z"/><path class="cls-7" d="M194.0035,550.9926s40.5249-9.8305,44.0156-24.068C238.019,526.9245,217.0986,544.213,194.0035,550.9926Z"/><path class="cls-7" d="M325.4355,530.578s-8.8428,13.0325,3.4573,16.8351C328.8928,547.4131,310.432,545.81,325.4355,530.578Z"/></g></g></svg>