<?xml version="1.0" encoding="utf-8"?>
<!-- Generator: Adobe Illustrator 22.1.0, SVG Export Plug-In . SVG Version: 6.00 Build 0)  -->
<svg version="1.1" id="Layer_1" xmlns="http://www.w3.org/2000/svg" xmlns:xlink="http://www.w3.org/1999/xlink" x="0px" y="0px"
	 viewBox="0 0 119 162.3" style="enable-background:new 0 0 119 162.3;" xml:space="preserve">
<style type="text/css">
	.st0{fill:#FFFFFF;}
	.st1{fill:#4B4B4B;}
</style>
<g>
	<path class="st0" d="M100.1,119.8c0,19.8-12.4,26.1-24.6,26.1c-15,0-27.1-8.1-28.8-22.4l-4.4-1.8c-2.6-1.1-4.3-3.7-4.1-6.5v-10.4
		c0-2.8,1.5-5.4,4-6.7l2.5-1.4v11.5l3.5,2.4l2,1.4l0,0l0,0c0,0,0-46.7,0-54c0-4.3,2.5-6.7,4.9-6.7c2.3,0,4.5,2.1,4.5,6.7
		c0,7.2,0,30.2,0,37.7h5.7l0,0l0,0c0-4.2,2.3-6.3,4.6-6.3c2.3,0,4.6,2.1,4.6,6.3h4.2l0,0l0,0c0-4,2.3-6,4.5-6s4.4,2,4.4,6h4.1l0,0
		l0,0c0-3.4,2-5.2,4-5.2c2.1,0,4.3,2,4.3,6.2C100.1,102.5,100.1,111.6,100.1,119.8z"/>
	<path class="st1" d="M95.8,79.7c-1.9,0-3.8,0.4-5.5,1.1c-4.1-2.3-9.2-2.4-13.5-0.4c-2-1.1-4.3-1.7-6.5-1.8V58
		c0-11.5-7.7-17.4-15.2-17.4c-7.7,0-15.7,6.5-15.7,17.4v29.3L37,88.6c-5.9,3.2-9.6,9.4-9.6,16.2v10.1c-0.3,7,3.7,13.5,10,16.4
		c4.8,15.5,19.6,25.4,38.1,25.4c17.1,0,35.3-9.7,35.3-36.8V96.6C110.9,85.6,103.1,79.7,95.8,79.7z M100.1,119.8
		c0,19.8-12.4,26.1-24.6,26.1c-15,0-27.1-8.1-28.8-22.4l-4.4-1.8c-2.6-1.1-4.3-3.7-4.1-6.5v-10.4c0-2.8,1.5-5.4,4-6.7l2.5-1.4v11.5
		l3.5,2.4l2,1.4l0,0l0,0c0,0,0-46.7,0-54c0-4.3,2.5-6.7,4.9-6.7c2.3,0,4.5,2.1,4.5,6.7c0,7.2,0,30.2,0,37.7h5.7l0,0l0,0
		c0-4.2,2.3-6.3,4.6-6.3c2.3,0,4.6,2.1,4.6,6.3h4.2l0,0l0,0c0-4,2.3-6,4.5-6s4.4,2,4.4,6h4.1l0,0l0,0c0-3.4,2-5.2,4-5.2
		c2.1,0,4.3,2,4.3,6.2C100.1,102.5,100.1,111.6,100.1,119.8z"/>
	<path class="st1" d="M55.2,28.1c1.4,0,2.6-1.1,2.7-2.6L59,9.2c0.1-1.6-1.1-2.9-2.7-2.9h-2.1c-1.6,0-2.8,1.3-2.7,2.9l1.1,16.3
		C52.5,27,53.7,28.1,55.2,28.1z"/>
	<path class="st1" d="M28.6,35.5L17.8,23.2c-1-1.2-2.9-1.2-4-0.1l-1.5,1.5c-1.1,1.1-1.1,2.9,0.1,4l12.3,10.8
		c1.1,0.9,2.7,0.9,3.7-0.1C29.5,38.2,29.5,36.6,28.6,35.5z"/>
	<path class="st1" d="M85.6,39.3l12.3-10.8c1.2-1,1.2-2.9,0.1-4L96.5,23c-1.1-1.1-2.9-1.1-4,0.1L81.7,35.4c-1,1.1-0.9,2.7,0.1,3.7
		C82.9,40.2,84.5,40.3,85.6,39.3z"/>
</g>
</svg>
