<?xml version="1.0" encoding="utf-8"?>
<!-- Generator: Adobe Illustrator 22.1.0, SVG Export Plug-In . SVG Version: 6.00 Build 0)  -->
<svg version="1.1" id="Layer_1" xmlns="http://www.w3.org/2000/svg" xmlns:xlink="http://www.w3.org/1999/xlink" x="0px" y="0px"
	 viewBox="0 0 672.9 399.1" style="enable-background:new 0 0 672.9 399.1;" xml:space="preserve">
<style type="text/css">
	.st0{fill:#0C0C0C;}
	.st1{fill:#DDDDDD;}
	.st2{fill:#FFFFFF;}
	.st3{fill:#F4F3F2;}
	.st4{fill:none;stroke:#0C0C0C;stroke-width:1.26;stroke-miterlimit:10;}
	.st5{fill:#F2DF91;}
	.st6{fill:#B4F79F;}
	.st7{fill:none;stroke:#00B90D;stroke-linecap:round;stroke-linejoin:round;}
	.st8{fill:#57AF2E;stroke:#00B90D;stroke-linejoin:round;}
	.st9{fill:#F4E49F;}
	.st10{fill:#684A16;}
	.st11{fill:#9B7A37;}
	.st12{fill:#4B4B4B;}
	.st13{fill:#494848;}
</style>
<title>Farm</title>
<g id="Panda">
	<title>Panda_Front</title>
	<g id="Body">
		<g id="foot">
			<path class="st0" d="M-405.5,318.6c-0.8,0.9-1.4,1.8-2.1,2.8c-3.1,5.8-3,13,0.5,16.4c3.3,3.2,8.6,1.3,11.7-4.5
				c0.8-1.4,1.3-2.8,1.7-4.4C-399.1,327.8-403.5,323.9-405.5,318.6z"/>
			<path class="st0" d="M-332.5,329.2c0.4,1.4,0.9,2.8,1.7,4.1c3.1,5.8,8.4,7.7,11.7,4.5s3.6-10.6,0.5-16.4
				c-0.4-0.6-0.8-1.4-1.3-1.9C-322.2,324.7-327,328.3-332.5,329.2z"/>
		</g>
		<path class="st1" d="M-334.5,270.8c-16.9,10-37.9,10.3-55,0.8c-2.3,0-4.8-0.1-7.1-0.5c-2.2-0.5-5.8,1.7-9.9,4.4v37.8
			c0,1.8,0.3,3.6,0.9,5.4c1.9,5.3,6.3,9.1,11.9,10.4c1,0.3,2.2,0.4,3.3,0.4h55.5c0.8,0,1.5-0.1,2.2-0.1c5.5-0.8,10.3-4.5,12.6-9.7
			c0.9-1.9,1.3-4.1,1.3-6.3v-35.2c-3.6-3-7.1-5.8-9-6.7C-330,270.9-332.1,270.7-334.5,270.8z"/>
		<g id="hands">
			<path class="st0" d="M-316.4,254.6c-0.3-0.3-0.6-0.5-1-0.8c-4.1,7-10,12.9-17,17c2.2-0.1,4.5,0.1,6.7,0.6c1.9,0.9,5.4,3.7,9,6.7
				c4.5,3.7,9.4,7.6,12,8.1C-302.3,287-299,270.3-316.4,254.6z"/>
			<path class="st0" d="M-396.4,271.1c2.3,0.4,4.6,0.5,7.1,0.5c-7.3-4.1-13.5-10-18-17.3l-1.3,0.3c0,0-17,5.3-18,23.8
				c-0.6,12.9,10.8,3.5,20.4-3C-402.4,272.7-398.6,270.6-396.4,271.1z"/>
		</g>
	</g>
	<g id="Head">
		<g id="ear">
			<path class="st0" d="M-314.6,213.7l3.7-4.1c5.5-6.2,5.5-15.6,0-21.8l-0.8-0.9c-4.9-5.5-13.3-6.1-18.8-1.2
				c-0.4,0.4-0.8,0.8-1.2,1.2l-3.5,3.7C-326,196-318.7,204.1-314.6,213.7z"/>
			<path class="st0" d="M-391.4,191.6l-4.3-4.6c-4.9-5.5-13.3-6.1-18.8-1.2c-0.4,0.4-0.8,0.8-1.2,1.2l-0.8,0.9
				c-5.5,6.2-5.5,15.6,0,21.8l5.3,5.7C-407.4,205.5-400.4,197.1-391.4,191.6z"/>
		</g>
		<ellipse class="st2" cx="-385.4" cy="226.5" rx="11.9" ry="12.2"/>
		<ellipse class="st2" cx="-336.9" cy="226.9" rx="11.9" ry="12.2"/>
		<path class="st3" d="M-389.3,271.6c17.1,9.5,38.1,9.3,55-0.8c7-4.1,12.9-10,17-17c7.2-12.1,8.2-27.1,2.7-40.1
			c-4.1-9.7-11.3-17.8-20.5-23.1c-17.5-10-39.2-9.8-56.3,0.8c-9,5.5-16,13.9-19.7,23.8c-4.9,12.9-3.5,27.3,3.7,39
			C-403,261.5-396.7,267.5-389.3,271.6z M-338.6,207.4c9.3,0,16.9,8.2,16.9,18.3s-7.6,18.3-16.9,18.3s-16.9-8.2-16.9-18.3
			S-347.9,207.4-338.6,207.4z M-368.6,225.7c0,10.2-7.6,18.3-16.9,18.3s-16.9-8.2-16.9-18.3s7.6-18.3,16.9-18.3
			S-368.6,215.5-368.6,225.7z"/>
		<path class="st0" d="M-402.2,225.7c0,10.2,7.6,18.3,16.9,18.3s16.9-8.2,16.9-18.3s-7.5-18.3-16.9-18.3
			C-394.8,207.4-402.2,215.5-402.2,225.7z M-386.4,236c-5.3,0-9.5-4.6-9.5-10.3c0-3.3,1.5-6.4,4.1-8.4l3.3,3.1
			c-1.4,1.4-2.2,3.3-2.1,5.4c-0.1,4,2.8,7.2,6.8,7.5c2.4,0,4.6-1.3,5.8-3.5l0.1,0.1C-378.9,233.4-382.4,235.9-386.4,236L-386.4,236z
			"/>
		<path class="st0" d="M-338.6,244c9.3,0,16.9-8.2,16.9-18.3s-7.6-18.3-16.9-18.3s-16.9,8.2-16.9,18.3S-347.9,244-338.6,244z
			 M-328.1,225.7c0,5.7-4.3,10.3-9.5,10.3c-4.5-0.1-8.4-3.3-9.3-7.9l0,0c0.8,2.8,3.5,4.9,6.4,5c4-0.1,7-3.5,6.8-7.5
			c0-2.6-1.3-5-3.5-6.4c1.2-1.2,2.1-2.3,2.8-3.1C-330.5,217.9-328,221.6-328.1,225.7z"/>
		<g>
			<path class="st0" d="M-365.3,244.8c0.8,1,1.8,1.5,3.1,1.7c1.2-0.1,2.3-0.6,3-1.7C-359.6,242.3-365.3,242.5-365.3,244.8z"/>
			<path class="st4" d="M-377.1,260.4c0,0,8.8-8.5,14.9-9.5v-5.9"/>
			<path class="st4" d="M-362.2,250.7c0,0,4.8,1,14.2,9.5"/>
		</g>
	</g>
</g>
<g id="Layer_1-2">
	<rect x="-52.3" y="126" class="st5" width="1366" height="171.4"/>
	<g>
		<rect x="-52.3" y="286.5" class="st6" width="1365" height="309.2"/>
		<g>
			<path class="st7" d="M276.6,390.6c0,0,3.9,17.1,7.1,20.3"/>
			<path class="st8" d="M283.4,410.1c0,0-0.6-18.1,3.5-14.7C291,398.8,283.4,410.1,283.4,410.1z"/>
			<path class="st8" d="M282.4,409c0,0-13-15-13.2-8.5S282.4,409,282.4,409z"/>
			<path class="st2" d="M271.8,388.4c-5-1.5-11-4.1-11.1-6.4c-0.4-6.8,18.2,0.9,18.3,2.9C279.1,387,278.4,390.4,271.8,388.4z"/>
			<path class="st2" d="M273.1,382.3c0-5.2,0.9-11.7,3-12.5c6.4-2.3,4.2,17.8,2.3,18.4C276.5,389,273.1,389.2,273.1,382.3z"/>
			<path class="st2" d="M279.3,381c5-1.5,11.5-2.5,12.8-0.7c4.1,5.5-15.8,9.1-17,7.5S272.7,382.9,279.3,381z"/>
			<path class="st2" d="M281.9,386.7c3.9,3.5,8.2,8.4,7.4,10.5c-2.5,6.3-16.1-8.6-15.3-10.4C274.7,384.9,276.8,382.1,281.9,386.7z"
				/>
			<path class="st2" d="M277.4,391.6c-3.6,3.9-8.5,8.1-10.6,7.2c-6.3-2.6,8.8-16,10.7-15.2S282.1,386.6,277.4,391.6z"/>
			<circle class="st9" cx="276.8" cy="386.4" r="4.9"/>
		</g>
		<g>
			<path class="st7" d="M192.7,592.1c0,0,3.9,17.1,7.1,20.3"/>
			<path class="st8" d="M199.5,611.6c0,0-0.6-18.1,3.5-14.7C207,600.3,199.5,611.6,199.5,611.6z"/>
			<path class="st8" d="M198.5,610.5c0,0-13-15-13.2-8.5S198.5,610.5,198.5,610.5z"/>
			<path class="st2" d="M187.9,589.9c-5-1.5-11-4.1-11.1-6.4c-0.4-6.8,18.2,0.9,18.3,2.9C195.2,588.5,194.5,591.9,187.9,589.9z"/>
			<path class="st2" d="M189.2,583.8c0-5.2,0.9-11.7,3-12.5c6.4-2.3,4.2,17.8,2.3,18.4S189.1,590.7,189.2,583.8z"/>
			<path class="st2" d="M195.3,582.5c5-1.5,11.5-2.5,12.8-0.7c4.1,5.5-15.8,9.1-17,7.5S188.7,584.4,195.3,582.5z"/>
			<path class="st2" d="M198,588.2c3.9,3.5,8.2,8.4,7.4,10.5c-2.5,6.3-16.1-8.6-15.3-10.4C190.8,586.4,192.9,583.6,198,588.2z"/>
			<path class="st2" d="M193.4,593.1c-3.6,3.9-8.5,8.1-10.6,7.2c-6.3-2.6,8.8-16,10.7-15.2C195.3,585.9,198.1,588.1,193.4,593.1z"/>
			<circle class="st9" cx="192.9" cy="587.9" r="4.9"/>
		</g>
		<g>
			<path class="st7" d="M9.6,505.2c0,0-3.9,17.1-7.1,20.3"/>
			<path class="st8" d="M2.8,524.7c0,0,0.6-18.1-3.5-14.7C-4.7,513.4,2.8,524.7,2.8,524.7z"/>
			<path class="st8" d="M3.8,523.6c0,0,13-15,13.2-8.5C17.2,521.6,3.8,523.6,3.8,523.6z"/>
			<path class="st2" d="M14.4,503.1c5-1.5,11-4.1,11.1-6.4c0.4-6.8-18.2,0.9-18.3,2.9C7.1,501.6,7.8,505,14.4,503.1z"/>
			<path class="st2" d="M13.1,496.9c0-5.2-0.9-11.7-3-12.5c-6.4-2.3-4.2,17.8-2.3,18.4C9.7,503.6,13.2,503.8,13.1,496.9z"/>
			<path class="st2" d="M6.9,495.6c-5-1.5-11.5-2.5-12.8-0.7c-4.1,5.5,15.8,9.1,17,7.5C12.3,500.8,13.5,497.5,6.9,495.6z"/>
			<path class="st2" d="M4.3,501.3c-3.9,3.5-8.2,8.4-7.4,10.5c2.5,6.3,16.1-8.6,15.3-10.4C11.5,499.5,9.4,496.7,4.3,501.3z"/>
			<path class="st2" d="M8.8,506.3c3.6,3.9,8.5,8.1,10.6,7.2c6.3-2.6-8.8-16-10.7-15.2S4.2,501.2,8.8,506.3z"/>
			
				<ellipse transform="matrix(1.850905e-02 -0.9998 0.9998 1.850905e-02 -491.673 501.1578)" class="st9" cx="9.4" cy="501" rx="4.9" ry="4.9"/>
		</g>
		<g>
			<path class="st7" d="M59,339.8c0,0,3.9,17.1,7.1,20.3"/>
			<path class="st8" d="M65.8,359.4c0,0-0.6-18.1,3.5-14.7C73.4,348,65.8,359.4,65.8,359.4z"/>
			<path class="st8" d="M64.8,358.3c0,0-13-14.9-13.2-8.5C51.4,356.2,64.8,358.3,64.8,358.3z"/>
			<path class="st2" d="M54.3,337.7c-5-1.5-11-4.1-11.1-6.4c-0.4-6.8,18.2,0.9,18.3,2.9C61.5,336.2,60.8,339.6,54.3,337.7z"/>
			<path class="st2" d="M55.5,331.5c0-5.2,0.9-11.7,3-12.5c6.4-2.3,4.2,17.8,2.3,18.4C58.9,338.2,55.5,338.4,55.5,331.5z"/>
			<path class="st2" d="M61.7,330.2c5-1.5,11.5-2.5,12.8-0.7c4.1,5.5-15.8,9.1-17,7.5C56.4,335.4,55.1,332.1,61.7,330.2z"/>
			<path class="st2" d="M64.3,335.9c3.9,3.5,8.2,8.4,7.4,10.5c-2.5,6.3-16.1-8.6-15.3-10.4C57.1,334.1,59.2,331.3,64.3,335.9z"/>
			<path class="st2" d="M59.8,340.9c-3.6,3.9-8.5,8.1-10.6,7.2c-6.3-2.6,8.8-16,10.7-15.2C61.7,333.7,64.5,335.8,59.8,340.9z"/>
			<circle class="st9" cx="59.2" cy="335.6" r="4.9"/>
		</g>
		<g>
			<path class="st7" d="M494.2,414.4c0,0,3.9,17.1,7.1,20.3"/>
			<path class="st8" d="M501,433.9c0,0-0.6-18.1,3.5-14.7C508.5,422.5,501,433.9,501,433.9z"/>
			<path class="st8" d="M500,432.8c0,0-13-15-13.2-8.5C486.6,430.8,500,432.8,500,432.8z"/>
			<path class="st2" d="M489.4,412.2c-5-1.5-11-4.1-11.1-6.4c-0.4-6.8,18.2,0.9,18.3,2.9S496,414.2,489.4,412.2z"/>
			<path class="st2" d="M490.7,406c0-5.2,0.9-11.7,3-12.5c6.4-2.3,4.2,17.8,2.3,18.4S490.6,412.9,490.7,406z"/>
			<path class="st2" d="M496.9,404.7c5-1.5,11.5-2.5,12.8-0.7c4.1,5.5-15.8,9.1-17,7.5S490.3,406.6,496.9,404.7z"/>
			<path class="st2" d="M499.5,410.4c3.9,3.5,8.2,8.4,7.4,10.5c-2.5,6.3-16.1-8.6-15.3-10.4S494.4,405.8,499.5,410.4z"/>
			<path class="st2" d="M495,415.4c-3.6,3.9-8.5,8.1-10.6,7.2c-6.3-2.6,8.8-16,10.7-15.2C496.9,408.2,499.6,410.3,495,415.4z"/>
			<circle class="st9" cx="494.4" cy="410.1" r="4.9"/>
		</g>
		<g>
			<path class="st7" d="M812.9,580.9c0,0,3.9,17.1,7.1,20.3"/>
			<path class="st8" d="M819.8,600.4c0,0-0.6-18.1,3.5-14.7C827.3,589.1,819.8,600.4,819.8,600.4z"/>
			<path class="st8" d="M818.8,599.3c0,0-13-15-13.2-8.5C805.4,597.3,818.8,599.3,818.8,599.3z"/>
			<path class="st2" d="M808.2,578.8c-5-1.5-11-4.1-11.1-6.4c-0.4-6.8,18.2,0.9,18.3,2.9S814.8,580.7,808.2,578.8z"/>
			<path class="st2" d="M809.4,572.6c0-5.2,0.9-11.7,3-12.5c6.4-2.3,4.2,17.8,2.3,18.4S809.4,579.5,809.4,572.6z"/>
			<path class="st2" d="M815.6,571.3c5-1.5,11.5-2.5,12.8-0.7c4.1,5.5-15.8,9.1-17,7.5S809,573.2,815.6,571.3z"/>
			<path class="st2" d="M818.3,577c3.9,3.5,8.2,8.4,7.4,10.5c-2.5,6.3-16.1-8.6-15.3-10.4C811,575.2,813.1,572.4,818.3,577z"/>
			<path class="st2" d="M813.7,581.9c-3.6,3.9-8.5,8.1-10.6,7.2c-6.3-2.6,8.8-16,10.7-15.2C815.6,574.7,818.4,576.9,813.7,581.9z"/>
			<circle class="st9" cx="813.1" cy="576.7" r="4.9"/>
		</g>
		<g>
			<path class="st7" d="M620.7,603.5c0,0-3.9,17.1-7.1,20.3"/>
			<path class="st8" d="M613.9,623.1c0,0,0.6-18.1-3.5-14.7C606.4,611.7,613.9,623.1,613.9,623.1z"/>
			<path class="st8" d="M614.9,622c0,0,13-15,13.2-8.5S614.9,622,614.9,622z"/>
			<path class="st2" d="M625.5,601.4c5-1.5,11-4.1,11.1-6.4c0.4-6.8-18.2,0.9-18.3,2.9S618.9,603.4,625.5,601.4z"/>
			<path class="st2" d="M624.2,595.3c0-5.2-0.9-11.7-3-12.5c-6.4-2.3-4.2,17.8-2.3,18.4S624.3,602.1,624.2,595.3z"/>
			<path class="st2" d="M618,593.9c-5-1.5-11.5-2.5-12.8-0.7c-4.1,5.5,15.8,9.1,17,7.5S624.6,595.8,618,593.9z"/>
			<path class="st2" d="M615.4,599.6c-3.9,3.5-8.2,8.4-7.4,10.5c2.5,6.3,16.1-8.6,15.3-10.4C622.6,597.8,620.5,595,615.4,599.6z"/>
			<path class="st2" d="M619.9,604.6c3.6,3.9,8.5,8.1,10.6,7.2c6.3-2.6-8.8-16-10.7-15.2C618,597.4,615.2,599.5,619.9,604.6z"/>
			<circle class="st9" cx="620.5" cy="599.3" r="4.9"/>
		</g>
		<g>
			<path class="st7" d="M781,370c0,0,3.9,17.1,7.1,20.3"/>
			<path class="st8" d="M787.8,389.5c0,0-0.6-18.1,3.5-14.7C795.4,378.1,787.8,389.5,787.8,389.5z"/>
			<path class="st8" d="M786.8,388.4c0,0-13-15-13.2-8.5C773.4,386.4,786.8,388.4,786.8,388.4z"/>
			<path class="st2" d="M776.2,367.8c-5-1.5-11-4.1-11.1-6.4c-0.4-6.8,18.2,0.9,18.3,2.9C783.5,366.4,782.8,369.8,776.2,367.8z"/>
			<path class="st2" d="M777.5,361.7c0-5.2,0.9-11.7,3-12.5c6.4-2.3,4.2,17.8,2.3,18.4C780.9,368.3,777.4,368.6,777.5,361.7z"/>
			<path class="st2" d="M783.7,360.3c5-1.5,11.5-2.5,12.8-0.7c4.1,5.5-15.8,9.1-17,7.5S777.1,362.2,783.7,360.3z"/>
			<path class="st2" d="M786.3,366c3.9,3.5,8.2,8.4,7.4,10.5c-2.5,6.3-16.1-8.6-15.3-10.4S781.2,361.5,786.3,366z"/>
			<path class="st2" d="M781.8,371c-3.6,3.9-8.5,8.1-10.6,7.2c-6.3-2.6,8.8-16,10.7-15.2C783.7,363.8,786.5,365.9,781.8,371z"/>
			<circle class="st9" cx="781.2" cy="365.7" r="4.9"/>
		</g>
		<g>
			<path class="st7" d="M1309.7,524.7c0,0,3.9,17.1,7.1,20.3"/>
			<path class="st8" d="M1316.5,544.2c0,0-0.6-18.1,3.5-14.7C1324,532.9,1316.5,544.2,1316.5,544.2z"/>
			<path class="st8" d="M1315.5,543.1c0,0-13-15-13.2-8.5S1315.5,543.1,1315.5,543.1z"/>
			<path class="st2" d="M1304.9,522.5c-5-1.5-11-4.1-11.1-6.4c-0.4-6.8,18.2,0.9,18.3,2.9C1312.2,521.1,1311.5,524.5,1304.9,522.5z"
				/>
			<path class="st2" d="M1306.2,516.4c0-5.2,0.9-11.7,3-12.5c6.4-2.3,4.2,17.8,2.3,18.4C1309.6,523,1306.1,523.3,1306.2,516.4z"/>
			<path class="st2" d="M1312.4,515c5-1.5,11.5-2.5,12.8-0.7c4.1,5.5-15.8,9.1-17,7.5S1305.7,516.9,1312.4,515z"/>
			<path class="st2" d="M1315,520.8c3.9,3.5,8.2,8.4,7.4,10.5c-2.5,6.3-16.1-8.6-15.3-10.4S1309.8,516.2,1315,520.8z"/>
			<path class="st2" d="M1310.5,525.7c-3.6,3.9-8.5,8.1-10.6,7.2c-6.3-2.6,8.8-16,10.7-15.2S1315.1,520.6,1310.5,525.7z"/>
			<circle class="st9" cx="1309.9" cy="520.4" r="4.9"/>
		</g>
		<g>
			<path class="st7" d="M957.8,417c0,0,3.9,17.1,7.1,20.3"/>
			<path class="st8" d="M964.6,436.5c0,0-0.6-18.1,3.5-14.7C972.1,425.2,964.6,436.5,964.6,436.5z"/>
			<path class="st8" d="M963.6,435.4c0,0-13-15-13.2-8.5S963.6,435.4,963.6,435.4z"/>
			<path class="st2" d="M953,414.8c-5-1.5-11-4.1-11.1-6.4c-0.4-6.8,18.2,0.9,18.3,2.9C960.3,413.4,959.6,416.8,953,414.8z"/>
			<path class="st2" d="M954.3,408.7c0-5.2,0.9-11.7,3-12.5c6.4-2.3,4.2,17.8,2.3,18.4S954.2,415.6,954.3,408.7z"/>
			<path class="st2" d="M960.5,407.3c5-1.5,11.5-2.5,12.8-0.7c4.1,5.5-15.8,9.1-17,7.5S953.9,409.2,960.5,407.3z"/>
			<path class="st2" d="M963.1,413.1c3.9,3.5,8.2,8.4,7.4,10.5c-2.5,6.3-16.1-8.6-15.3-10.4S958,408.5,963.1,413.1z"/>
			<path class="st2" d="M958.6,418c-3.6,3.9-8.5,8.1-10.6,7.2c-6.3-2.6,8.8-16,10.7-15.2C960.5,410.8,963.2,413,958.6,418z"/>
			<circle class="st9" cx="958" cy="412.7" r="4.9"/>
		</g>
		<g>
			<path class="st7" d="M1094.7,581.2c0,0,3.9,17.1,7.1,20.3"/>
			<path class="st8" d="M1101.5,600.7c0,0-0.6-18.1,3.5-14.7C1109.1,589.4,1101.5,600.7,1101.5,600.7z"/>
			<path class="st8" d="M1100.5,599.6c0,0-13-15-13.2-8.5S1100.5,599.6,1100.5,599.6z"/>
			<path class="st2" d="M1089.9,579.1c-5-1.5-11-4.1-11.1-6.4c-0.4-6.8,18.2,0.9,18.3,2.9C1097.2,577.6,1096.5,581,1089.9,579.1z"/>
			<path class="st2" d="M1091.2,572.9c0-5.2,0.9-11.7,3-12.5c6.4-2.3,4.2,17.8,2.3,18.4C1094.6,579.6,1091.1,579.8,1091.2,572.9z"/>
			<path class="st2" d="M1097.4,571.6c5-1.5,11.5-2.5,12.8-0.7c4.1,5.5-15.8,9.1-17,7.5C1092,576.7,1090.8,573.5,1097.4,571.6z"/>
			<path class="st2" d="M1100,577.3c3.9,3.5,8.2,8.4,7.4,10.5c-2.5,6.3-16.1-8.6-15.3-10.4C1092.8,575.5,1094.9,572.7,1100,577.3z"
				/>
			<path class="st2" d="M1095.5,582.2c-3.6,3.9-8.5,8.1-10.6,7.2c-6.3-2.6,8.8-16,10.7-15.2C1097.4,575,1100.2,577.2,1095.5,582.2z"
				/>
			<circle class="st9" cx="1094.9" cy="577" r="4.9"/>
		</g>
		<g>
			<path class="st7" d="M1219.1,367.8c0,0,3.9,17.1,7.1,20.3"/>
			<path class="st8" d="M1225.9,387.3c0,0-0.6-18.1,3.5-14.7C1233.4,376,1225.9,387.3,1225.9,387.3z"/>
			<path class="st8" d="M1224.9,386.2c0,0-13-15-13.2-8.5S1224.9,386.2,1224.9,386.2z"/>
			<path class="st2" d="M1214.3,365.6c-5-1.5-11-4.1-11.1-6.4c-0.4-6.8,18.2,0.9,18.3,2.9C1221.6,364.2,1220.9,367.6,1214.3,365.6z"
				/>
			<path class="st2" d="M1215.6,359.5c0-5.2,0.9-11.7,3-12.5c6.4-2.3,4.2,17.8,2.3,18.4C1219,366.2,1215.5,366.4,1215.6,359.5z"/>
			<path class="st2" d="M1221.7,358.2c5-1.5,11.5-2.5,12.8-0.7c4.1,5.5-15.8,9.1-17,7.5S1215.1,360.1,1221.7,358.2z"/>
			<path class="st2" d="M1224.4,363.9c3.9,3.5,8.2,8.4,7.4,10.5c-2.5,6.3-16.1-8.6-15.3-10.4S1219.3,359.3,1224.4,363.9z"/>
			<path class="st2" d="M1219.8,368.8c-3.6,3.9-8.5,8.1-10.6,7.2c-6.3-2.6,8.8-16,10.7-15.2C1221.7,361.6,1224.5,363.8,1219.8,368.8
				z"/>
			<circle class="st9" cx="1219.3" cy="363.6" r="4.9"/>
		</g>
		<g>
			<path class="st7" d="M377.8,525.8c0,0,3.9,17.1,7.1,20.3"/>
			<path class="st8" d="M384.6,545.4c0,0-0.6-18.1,3.5-14.7C392.1,534,384.6,545.4,384.6,545.4z"/>
			<path class="st8" d="M383.6,544.3c0,0-13-15-13.2-8.5S383.6,544.3,383.6,544.3z"/>
			<path class="st2" d="M373,523.7c-5-1.5-11-4.1-11.1-6.4c-0.4-6.8,18.2,0.9,18.3,2.9C380.3,522.2,379.6,525.7,373,523.7z"/>
			<path class="st2" d="M374.3,517.6c0-5.2,0.9-11.7,3-12.5c6.4-2.3,4.2,17.8,2.3,18.4S374.2,524.4,374.3,517.6z"/>
			<path class="st2" d="M380.4,516.2c5-1.5,11.5-2.5,12.8-0.7c4.1,5.5-15.8,9.1-17,7.5C375.1,521.4,373.8,518.1,380.4,516.2z"/>
			<path class="st2" d="M383.1,521.9c3.9,3.5,8.2,8.4,7.4,10.5c-2.5,6.3-16.1-8.6-15.3-10.4C375.9,520.1,378,517.3,383.1,521.9z"/>
			<path class="st2" d="M378.6,526.9c-3.6,3.9-8.5,8.1-10.6,7.2c-6.3-2.6,8.8-16,10.7-15.2S383.2,521.8,378.6,526.9z"/>
			<circle class="st9" cx="378" cy="521.6" r="4.9"/>
		</g>
		<g>
			<path class="st10" d="M-8.4,284.3c-20.3,0-39.6,0.2-56.9,0.6v13.8c17.3,0.4,36.5,0.6,56.9,0.6h1318.2v-15.1H-8.4V284.3z"/>
			<path class="st10" d="M-8.4,325.9c-20.3,0-39.6,0.2-56.9,0.6v13.8c17.3,0.4,36.5,0.6,56.9,0.6h1318.2v-15.1L-8.4,325.9z"/>
			<path class="st11" d="M19.7,265h-2.9c-6.2,0-11.1,4.2-11.1,9.2v91h25v-91C30.8,269.2,25.8,265,19.7,265z"/>
			<path class="st11" d="M90.7,265h-2.9c-6.2,0.1-11.1,4.2-11.1,9.2v91h25v-91C101.8,269.1,96.9,265,90.7,265z"/>
			<path class="st11" d="M161.8,265h-2.9c-6.2,0.1-11.1,4.2-11.1,9.2v91h25v-91C172.9,269.1,167.9,265,161.8,265z"/>
			<path class="st11" d="M802,265h-2.9c-6.2,0.1-11.1,4.2-11.1,9.2v91h25v-91C813.1,269.1,808.1,265,802,265z"/>
			<path class="st11" d="M873,265h-2.9c-6.2,0.1-11.1,4.2-11.1,9.2v91h25v-91C884.1,269.1,879.2,265,873,265z"/>
			<path class="st11" d="M944,265h-2.9c-6.2,0.1-11.1,4.2-11.1,9.2v91h25v-91C955.1,269.1,950.2,265,944,265z"/>
			<path class="st11" d="M1015.1,265h-2.9c-6.1,0.1-11.1,4.2-11,9.2v91h25v-91C1026.2,269.1,1021.2,265,1015.1,265z"/>
			<path class="st11" d="M233.1,265h-2.9c-6.2,0.1-11.1,4.2-11.1,9.2v91h25v-91C244.2,269.2,239.3,265,233.1,265z"/>
			<path class="st11" d="M304.1,265h-2.9c-6.2,0.1-11.1,4.2-11.1,9.2v91h25v-91C315.2,269.2,310.3,265,304.1,265z"/>
			<path class="st11" d="M375.2,265h-2.9c-6.2,0.1-11.1,4.2-11.1,9.2v91h25v-91C386.3,269.1,381.3,265,375.2,265z"/>
			<path class="st11" d="M446.2,265h-2.9c-6.2,0.1-11.1,4.2-11.1,9.2v91h25v-91C457.3,269.1,452.3,265,446.2,265z"/>
			<path class="st11" d="M517.5,265h-2.9c-6.2,0.1-11.1,4.2-11.1,9.2v91h25v-91C528.6,269.1,523.7,265,517.5,265z"/>
			<path class="st11" d="M588.6,265h-2.9c-6.2,0.1-11.1,4.2-11.1,9.2v91h25v-91C599.7,269.1,594.7,265,588.6,265z"/>
			<path class="st11" d="M659.6,265h-2.9c-6.2,0.1-11.1,4.2-11.1,9.2v91h25v-91C670.7,269.1,665.7,265,659.6,265z"/>
			<path class="st11" d="M730.6,265h-2.9c-6.2,0.1-11.1,4.2-11.1,9.2v91h25v-91C741.7,269.1,736.8,265,730.6,265z"/>
			<path class="st11" d="M1086.4,265h-2.9c-6.2,0.1-11.1,4.2-11.1,9.2v91h25v-91C1097.5,269.2,1092.6,265,1086.4,265z"/>
			<path class="st11" d="M1157.4,265h-2.9c-6.2,0.1-11.1,4.2-11.1,9.2v91h25v-91C1168.5,269.2,1163.6,265,1157.4,265z"/>
			<path class="st11" d="M1228.5,265h-2.9c-6.2,0.1-11.1,4.2-11.1,9.2v91h25v-91C1239.6,269.1,1234.6,265,1228.5,265z"/>
			<path class="st11" d="M1299.5,265h-2.9c-6.2,0.1-11.1,4.2-11.1,9.2v91h25.1v-91C1310.6,269.1,1305.7,265,1299.5,265z"/>
			<path class="st11" d="M-51.3,265h-2.9c-6.2,0.1-11.1,4.2-11.1,9.2v91h25v-91C-40.2,269.1-45.2,265-51.3,265z"/>
			<path class="st11" d="M445.9,265H443c-6.2,0-11.3,13.8-11.3,30.7v303.5h25.5V295.7C457.2,278.8,452.1,265,445.9,265z"/>
			<path class="st11" d="M873.3,265h-2.9c-6.2,0-11.3,13.8-11.3,30.7v303.5h25.5V295.7C884.6,278.8,879.5,265,873.3,265z"/>
		</g>
	</g>
	<g>
		<rect x="-52.3" y="-172.3" class="st6" width="1366" height="301.7"/>
		<g>
			<path class="st7" d="M1273.8-145.6c0,0,3.9,17.1,7.1,20.3"/>
			<path class="st8" d="M1280.6-126c0,0-0.6-18.1,3.5-14.7C1288.2-137.4,1280.6-126,1280.6-126z"/>
			<path class="st8" d="M1279.6-127.1c0,0-13-15-13.2-8.5S1279.6-127.1,1279.6-127.1z"/>
			<path class="st2" d="M1269-147.7c-5-1.5-11-4.1-11.1-6.4c-0.4-6.8,18.2,0.9,18.3,2.9C1276.3-149.2,1275.6-145.7,1269-147.7z"/>
			<path class="st2" d="M1270.3-153.8c0-5.2,0.9-11.7,3-12.5c6.4-2.3,4.2,17.8,2.3,18.4C1273.7-147.2,1270.3-147,1270.3-153.8z"/>
			<path class="st2" d="M1276.5-155.2c5-1.5,11.5-2.5,12.8-0.7c4.1,5.5-15.8,9.1-17,7.5C1271.2-150,1269.9-153.3,1276.5-155.2z"/>
			<path class="st2" d="M1279.1-149.5c3.9,3.5,8.2,8.4,7.4,10.5c-2.5,6.3-16.1-8.6-15.3-10.4S1274-154.1,1279.1-149.5z"/>
			<path class="st2" d="M1274.6-144.5c-3.6,3.9-8.5,8.1-10.6,7.2c-6.3-2.6,8.8-16,10.7-15.2C1276.5-151.7,1279.3-149.6,1274.6-144.5
				z"/>
			<circle class="st9" cx="1274" cy="-149.8" r="4.9"/>
		</g>
		<g>
			<path class="st7" d="M938.4-146.2c0,0,3.9,17.1,7.1,20.3"/>
			<path class="st8" d="M945.3-126.6c0,0-0.6-18.1,3.5-14.7C952.9-137.9,945.3-126.6,945.3-126.6z"/>
			<path class="st8" d="M944.2-127.7c0,0-13-15-13.2-8.5S944.2-127.7,944.2-127.7z"/>
			<path class="st2" d="M933.7-148.3c-5-1.5-11-4.1-11.1-6.4c-0.4-6.8,18.2,0.9,18.3,2.9S940.3-146.3,933.7-148.3z"/>
			<path class="st2" d="M934.9-154.5c0-5.2,0.9-11.7,3-12.5c6.4-2.3,4.2,17.8,2.3,18.4C938.4-147.8,934.9-147.6,934.9-154.5z"/>
			<path class="st2" d="M941.1-155.8c5-1.5,11.5-2.5,12.8-0.7c4.1,5.5-15.8,9.1-17,7.5C935.7-150.6,934.5-153.9,941.1-155.8z"/>
			<path class="st2" d="M943.7-150.1c3.9,3.5,8.2,8.4,7.4,10.5c-2.5,6.3-16.1-8.6-15.3-10.4C936.6-151.8,938.6-154.6,943.7-150.1z"
				/>
			<path class="st2" d="M939.2-145.1c-3.6,3.9-8.5,8.1-10.6,7.2c-6.3-2.6,8.8-16,10.7-15.2S943.9-150.2,939.2-145.1z"/>
			<circle class="st9" cx="938.6" cy="-150.4" r="4.9"/>
		</g>
		<g>
			<path class="st7" d="M1077.5-45.9c0,0,3.9,17.1,7.1,20.3"/>
			<path class="st8" d="M1084.3-26.4c0,0-0.6-18.1,3.5-14.7C1091.8-37.8,1084.3-26.4,1084.3-26.4z"/>
			<path class="st8" d="M1083.3-27.5c0,0-13-15-13.2-8.5S1083.3-27.5,1083.3-27.5z"/>
			<path class="st2" d="M1072.7-48.1c-5-1.5-11-4.1-11.1-6.4c-0.4-6.8,18.2,0.9,18.3,2.9S1079.3-46.1,1072.7-48.1z"/>
			<path class="st2" d="M1074-54.2c0-5.2,0.9-11.7,3-12.5c6.4-2.3,4.2,17.8,2.3,18.4C1077.4-47.6,1073.9-47.3,1074-54.2z"/>
			<path class="st2" d="M1080.2-55.6c5-1.5,11.5-2.5,12.8-0.7c4.1,5.5-15.8,9.1-17,7.5S1073.6-53.7,1080.2-55.6z"/>
			<path class="st2" d="M1082.8-49.8c3.9,3.5,8.2,8.4,7.4,10.5c-2.5,6.3-16.1-8.6-15.3-10.4S1077.7-54.4,1082.8-49.8z"/>
			<path class="st2" d="M1078.3-44.9c-3.6,3.9-8.5,8.1-10.6,7.2c-6.3-2.6,8.8-16,10.7-15.2C1080.2-52.1,1082.9-49.9,1078.3-44.9z"/>
			<circle class="st9" cx="1077.7" cy="-50.2" r="4.9"/>
		</g>
		<g>
			<path class="st7" d="M812.9-79.8c0,0,3.9,17.1,7.1,20.3"/>
			<path class="st8" d="M819.8-60.3c0,0-0.6-18.1,3.5-14.7C827.3-71.6,819.8-60.3,819.8-60.3z"/>
			<path class="st8" d="M818.7-61.4c0,0-13-15-13.2-8.5S818.7-61.4,818.7-61.4z"/>
			<path class="st2" d="M808.2-82c-5-1.5-11-4.1-11.1-6.4c-0.4-6.8,18.2,0.9,18.3,2.9C815.5-83.4,814.8-80,808.2-82z"/>
			<path class="st2" d="M809.4-88.1c0-5.2,0.9-11.7,3-12.5c6.4-2.3,4.2,17.8,2.3,18.4S809.4-81.2,809.4-88.1z"/>
			<path class="st2" d="M815.6-89.5c5-1.5,11.5-2.5,12.8-0.7c4.1,5.5-15.8,9.1-17,7.5C810.3-84.3,809-87.6,815.6-89.5z"/>
			<path class="st2" d="M818.2-83.7c3.9,3.5,8.2,8.4,7.4,10.5c-2.5,6.3-16.1-8.6-15.3-10.4C811-85.5,813.1-88.3,818.2-83.7z"/>
			<path class="st2" d="M813.7-78.8c-3.6,3.9-8.5,8.1-10.6,7.2c-6.3-2.6,8.8-16,10.7-15.2C815.6-86,818.4-83.8,813.7-78.8z"/>
			<circle class="st9" cx="813.1" cy="-84" r="4.9"/>
		</g>
		<g>
			<path class="st7" d="M442.2-142.9c0,0,3.9,17.1,7.1,20.3"/>
			<path class="st8" d="M449-123.4c0,0-0.6-18.1,3.5-14.7C456.5-134.7,449-123.4,449-123.4z"/>
			<path class="st8" d="M448-124.5c0,0-13-15-13.2-8.5C434.6-126.5,448-124.5,448-124.5z"/>
			<path class="st2" d="M437.4-145.1c-5-1.5-11-4.1-11.1-6.4c-0.4-6.8,18.2,0.9,18.3,2.9C444.7-146.5,444-143.1,437.4-145.1z"/>
			<path class="st2" d="M438.6-151.2c0-5.2,0.9-11.7,3-12.5c6.4-2.3,4.2,17.8,2.3,18.4C442.1-144.6,438.6-144.3,438.6-151.2z"/>
			<path class="st2" d="M444.8-152.6c5-1.5,11.5-2.5,12.8-0.7c4.1,5.5-15.8,9.1-17,7.5C439.5-147.4,438.2-150.7,444.8-152.6z"/>
			<path class="st2" d="M447.5-146.8c3.9,3.5,8.2,8.4,7.4,10.5c-2.5,6.3-16.1-8.6-15.3-10.4C440.2-148.6,442.3-151.4,447.5-146.8z"
				/>
			<path class="st2" d="M442.9-141.9c-3.6,3.9-8.5,8.1-10.6,7.2c-6.3-2.6,8.8-16,10.7-15.2S447.6-146.9,442.9-141.9z"/>
			<circle class="st9" cx="442.3" cy="-147.2" r="4.9"/>
		</g>
		<g>
			<path class="st7" d="M675.3-146.2c0,0,3.9,17.1,7.1,20.3"/>
			<path class="st8" d="M682.1-126.7c0,0-0.6-18.1,3.5-14.7S682.1-126.7,682.1-126.7z"/>
			<path class="st8" d="M681.1-127.8c0,0-13-15-13.2-8.5S681.1-127.8,681.1-127.8z"/>
			<path class="st2" d="M670.6-148.4c-5-1.5-11-4.1-11.1-6.4c-0.4-6.8,18.2,0.9,18.3,2.9C677.8-149.8,677.1-146.4,670.6-148.4z"/>
			<path class="st2" d="M671.8-154.5c0-5.2,0.9-11.7,3-12.5c6.4-2.3,4.2,17.8,2.3,18.4C675.2-147.8,671.8-147.6,671.8-154.5z"/>
			<path class="st2" d="M678-155.9c5-1.5,11.5-2.5,12.8-0.7c4.1,5.5-15.8,9.1-17,7.5C672.7-150.7,671.4-153.9,678-155.9z"/>
			<path class="st2" d="M680.6-150.1c3.9,3.5,8.2,8.4,7.4,10.5c-2.5,6.3-16.1-8.6-15.3-10.4C673.5-151.8,675.5-154.7,680.6-150.1z"
				/>
			<path class="st2" d="M676.1-145.2c-3.6,3.9-8.5,8.1-10.6,7.2c-6.3-2.6,8.8-16,10.7-15.2S680.8-150.2,676.1-145.2z"/>
			<circle class="st9" cx="675.5" cy="-150.4" r="4.9"/>
		</g>
		<g>
			<path class="st7" d="M562.5-2.8c0,0,3.9,17.1,7.1,20.3"/>
			<path class="st8" d="M569.3,16.8c0,0-0.6-18.1,3.5-14.7C576.8,5.4,569.3,16.8,569.3,16.8z"/>
			<path class="st8" d="M568.3,15.7c0,0-13-15-13.2-8.5C554.9,13.7,568.3,15.7,568.3,15.7z"/>
			<path class="st2" d="M557.7-4.9c-5-1.5-11-4.1-11.1-6.4c-0.4-6.8,18.2,0.9,18.3,2.9S564.3-2.9,557.7-4.9z"/>
			<path class="st2" d="M559-11c0-5.2,0.9-11.7,3-12.5c6.4-2.3,4.2,17.8,2.3,18.4C562.4-4.3,558.9-4.2,559-11z"/>
			<path class="st2" d="M565.2-12.4c5-1.5,11.5-2.5,12.8-0.7c4.1,5.5-15.8,9.1-17,7.5S558.6-10.5,565.2-12.4z"/>
			<path class="st2" d="M567.8-6.7c3.9,3.5,8.2,8.4,7.4,10.5c-2.5,6.3-16.1-8.6-15.3-10.4C560.6-8.5,562.7-11.2,567.8-6.7z"/>
			<path class="st2" d="M563.3-1.7c-3.6,3.9-8.5,8.1-10.6,7.2c-6.3-2.6,8.8-16,10.7-15.2C565.2-8.9,567.9-6.8,563.3-1.7z"/>
			<circle class="st9" cx="562.7" cy="-7" r="4.9"/>
		</g>
		<g>
			<path class="st7" d="M229-44.5c0,0,3.9,17.1,7.1,20.3"/>
			<path class="st8" d="M235.8-24.9c0,0-0.6-18.1,3.5-14.7C243.4-36.3,235.8-24.9,235.8-24.9z"/>
			<path class="st8" d="M234.8-26c0,0-13-15-13.2-8.5C221.4-28.1,234.8-26,234.8-26z"/>
			<path class="st2" d="M224.2-46.6c-5-1.5-11-4.1-11.1-6.4c-0.4-6.8,18.2,0.9,18.3,2.9S230.8-44.7,224.2-46.6z"/>
			<path class="st2" d="M225.5-52.8c0-5.2,0.9-11.7,3-12.5c6.4-2.3,4.2,17.8,2.3,18.4C228.9-46.1,225.4-45.9,225.5-52.8z"/>
			<path class="st2" d="M231.7-54.1c5-1.5,11.5-2.5,12.8-0.7c4.1,5.5-15.8,9.1-17,7.5S225.1-52.2,231.7-54.1z"/>
			<path class="st2" d="M234.3-48.4c3.9,3.5,8.2,8.4,7.4,10.5c-2.5,6.3-16.1-8.6-15.3-10.4C227.1-50.2,229.2-53,234.3-48.4z"/>
			<path class="st2" d="M229.8-43.4c-3.6,3.9-8.5,8.1-10.6,7.2c-6.3-2.6,8.8-16,10.7-15.2S234.5-48.5,229.8-43.4z"/>
			<circle class="st9" cx="229.2" cy="-48.7" r="4.9"/>
		</g>
		<g>
			<path class="st7" d="M-9.9-136.4c0,0-3.9,17.1-7.1,20.3"/>
			<path class="st8" d="M-16.7-116.8c0,0,0.6-18.1-3.5-14.7C-24.3-128.2-16.7-116.8-16.7-116.8z"/>
			<path class="st8" d="M-15.7-117.9c0,0,13-15,13.2-8.5S-15.7-117.9-15.7-117.9z"/>
			<path class="st2" d="M-5.2-138.5c5-1.5,11-4.1,11.1-6.4c0.4-6.8-18.2,0.9-18.3,2.9S-11.7-136.5-5.2-138.5z"/>
			<path class="st2" d="M-6.4-144.6c0-5.2-0.9-11.7-3-12.5c-6.4-2.3-4.2,17.8-2.3,18.4C-9.8-138.1-6.4-137.8-6.4-144.6z"/>
			<path class="st2" d="M-12.6-146c-5-1.5-11.5-2.5-12.8-0.7c-4.1,5.5,15.8,9.1,17,7.5C-7.3-140.8-6-144.1-12.6-146z"/>
			<path class="st2" d="M-15.2-140.3c-3.9,3.5-8.2,8.4-7.4,10.5c2.5,6.3,16.1-8.6,15.3-10.4S-10.1-144.8-15.2-140.3z"/>
			<path class="st2" d="M-10.7-135.3c3.6,3.9,8.5,8.1,10.6,7.2c6.3-2.6-8.8-16-10.7-15.2C-12.7-142.5-15.4-140.4-10.7-135.3z"/>
			<circle class="st9" cx="-10.1" cy="-140.6" r="4.9"/>
		</g>
		<g>
			<path class="st7" d="M327.5-152c0,0,3.9,17.1,7.1,20.3"/>
			<path class="st8" d="M334.3-132.5c0,0-0.6-18.1,3.5-14.7C341.9-143.8,334.3-132.5,334.3-132.5z"/>
			<path class="st8" d="M333.3-133.6c0,0-13-15-13.2-8.5S333.3-133.6,333.3-133.6z"/>
			<path class="st2" d="M322.8-154.2c-5-1.5-11-4.1-11.1-6.4c-0.4-6.8,18.2,0.9,18.3,2.9C330-155.7,329.3-152.2,322.8-154.2z"/>
			<path class="st2" d="M324-160.3c0-5.2,0.9-11.7,3-12.5c6.4-2.3,4.2,17.8,2.3,18.4C327.4-153.7,324-153.5,324-160.3z"/>
			<path class="st2" d="M330.2-161.7c5-1.5,11.5-2.5,12.8-0.7c4.1,5.5-15.8,9.1-17,7.5C324.9-156.5,323.6-159.8,330.2-161.7z"/>
			<path class="st2" d="M332.8-156c3.9,3.5,8.2,8.4,7.4,10.5c-2.5,6.3-16.1-8.6-15.3-10.4C325.6-157.7,327.7-160.5,332.8-156z"/>
			<path class="st2" d="M328.3-151c-3.6,3.9-8.5,8.1-10.6,7.2c-6.3-2.6,8.8-16,10.7-15.2C330.3-158.2,332.9-156.1,328.3-151z"/>
			<circle class="st9" cx="327.7" cy="-156.3" r="4.9"/>
		</g>
		<g>
			<path class="st7" d="M50.1,7.7c0,0,3.9,17.1,7.1,20.3"/>
			<path class="st8" d="M56.9,27.2c0,0-0.6-18.1,3.5-14.7C64.4,15.9,56.9,27.2,56.9,27.2z"/>
			<path class="st8" d="M55.8,26.1c0,0-13-15-13.2-8.5C42.4,24.2,55.8,26.1,55.8,26.1z"/>
			<path class="st2" d="M45.3,5.6c-5-1.5-11-4.1-11.1-6.4c-0.4-6.8,18.2,0.9,18.3,2.9C52.6,4.1,51.9,7.5,45.3,5.6z"/>
			<path class="st2" d="M46.5-0.6c0-5.2,0.9-11.7,3-12.5c6.4-2.3,4.2,17.8,2.3,18.4C50,6.1,46.5,6.3,46.5-0.6z"/>
			<path class="st2" d="M52.7-1.9c5-1.5,11.5-2.5,12.8-0.7c4.1,5.5-15.8,9.1-17,7.5S46.1,0,52.7-1.9z"/>
			<path class="st2" d="M55.4,3.8c3.9,3.5,8.2,8.4,7.4,10.5c-2.5,6.3-16.1-8.6-15.3-10.4S50.2-0.8,55.4,3.8z"/>
			<path class="st2" d="M50.8,8.8c-3.6,3.9-8.5,8.1-10.6,7.2C33.9,13.4,49,0,50.9,0.8C52.7,1.6,55.5,3.7,50.8,8.8z"/>
			<circle class="st9" cx="50.2" cy="3.5" r="4.9"/>
		</g>
		<g>
			<path class="st11" d="M871.4,112.3h2.9c6.2,0,11.2-12,11.2-26.6v-262.6h-25.3V85.8C860.2,100.4,865.2,112.3,871.4,112.3z"/>
			<path class="st11" d="M373.5,111.3h2.9c6.2,0,11.2-11.9,11.2-26.5v-262.3h-25.4V84.7C362.2,99.3,367.3,111.3,373.5,111.3z"/>
			<g>
				<path class="st10" d="M-6.6,57.2c-20.3,0-39.6,0.2-56.8,0.6v13.3c17.3,0.4,36.5,0.6,56.8,0.6h1317.2V57.1L-6.6,57.2L-6.6,57.2z"
					/>
				<path class="st10" d="M-6.6,97.4c-20.3,0-39.6,0.2-56.8,0.6v13.3c17.3,0.4,36.5,0.6,56.8,0.6h1317.2V97.3H-6.6V97.4z"/>
				<path class="st11" d="M-49.5,38.5h-2.9c-6.1,0-11.1,4-11.1,8.9v88h25v-88C-38.4,42.5-43.4,38.5-49.5,38.5z"/>
				<path class="st11" d="M21.5,38.5h-2.9c-6.2,0-11.1,4-11.1,8.9v88h25v-88C32.5,42.5,27.6,38.5,21.5,38.5z"/>
				<path class="st11" d="M92.4,38.5h-2.9c-6.1,0-11.1,4-11.1,8.9v88h25v-88C103.5,42.5,98.6,38.5,92.4,38.5z"/>
				<path class="st11" d="M163.4,38.5h-2.9c-6.1,0-11.1,4-11.1,8.9v88h25v-88C174.5,42.5,169.6,38.5,163.4,38.5z"/>
				<path class="st11" d="M803.1,38.5h-2.9c-6.1,0-11.1,4-11.1,8.9v88h25v-88C814.2,42.5,809.3,38.5,803.1,38.5z"/>
				<path class="st11" d="M874.1,38.5h-2.9c-6.1,0-11.1,4-11.1,8.9v88h25v-88C885.2,42.5,880.2,38.5,874.1,38.5z"/>
				<path class="st11" d="M945.1,38.5h-2.9c-6.1,0-11.1,4-11.1,8.9v88h25v-88C956.2,42.5,951.2,38.5,945.1,38.5z"/>
				<path class="st11" d="M1016,38.5h-2.9c-6.1,0.1-11.1,4-11,8.9v88h25v-88C1027.2,42.5,1022.2,38.5,1016,38.5z"/>
				<path class="st11" d="M234.7,38.5h-2.9c-6.1,0-11.1,4-11.1,8.9v88h25v-88C245.8,42.5,240.9,38.5,234.7,38.5z"/>
				<path class="st11" d="M305.7,38.5h-2.9c-6.1,0-11.1,4-11.1,8.9v88h25v-88C316.7,42.5,311.8,38.5,305.7,38.5z"/>
				<path class="st11" d="M376.7,38.5h-2.9c-6.1,0-11.1,4-11.1,8.9v88h25v-88C387.7,42.5,382.8,38.5,376.7,38.5z"/>
				<path class="st11" d="M447.6,38.5h-2.9c-6.1,0-11.1,4-11.1,8.9v88h25v-88C458.7,42.5,453.8,38.5,447.6,38.5z"/>
				<path class="st11" d="M518.9,38.5H516c-6.1,0-11.1,4-11.1,8.9v88h25v-88C530,42.5,525.1,38.5,518.9,38.5z"/>
				<path class="st11" d="M589.9,38.5H587c-6.1,0-11.1,4-11.1,8.9v88h25v-88C601,42.5,596,38.5,589.9,38.5z"/>
				<path class="st11" d="M660.9,38.5H658c-6.1,0-11.1,4-11.1,8.9v88h25v-88C671.9,42.5,667,38.5,660.9,38.5z"/>
				<path class="st11" d="M731.8,38.5h-2.9c-6.1,0-11.1,4-11.1,8.9v88h25v-88C742.9,42.5,738,38.5,731.8,38.5z"/>
				<path class="st11" d="M1087.3,38.5h-2.9c-6.1,0-11.1,4-11.1,8.9v88h25v-88C1098.4,42.5,1093.5,38.5,1087.3,38.5z"/>
				<path class="st11" d="M1158.3,38.5h-2.9c-6.1,0-11.1,4-11.1,8.9v88h25v-88C1169.4,42.5,1164.4,38.5,1158.3,38.5z"/>
				<path class="st11" d="M1229.3,38.5h-2.9c-6.1,0-11.1,4-11.1,8.9v88h25v-88C1240.4,42.5,1235.4,38.5,1229.3,38.5z"/>
				<path class="st11" d="M1300.2,38.5h-2.9c-6.1,0-11.1,4-11.1,8.9v88h25v-88C1311.4,42.5,1306.4,38.5,1300.2,38.5z"/>
			</g>
		</g>
	</g>
</g>
<g id="Layer_11">
	<g id="Layer_1-2_5_">
		
			<ellipse transform="matrix(0.6227 -0.7824 0.7824 0.6227 -132.4281 188.5911)" class="st0" cx="129.3" cy="231.6" rx="12.9" ry="6.4"/>
		<circle class="st0" cx="50.9" cy="222.5" r="8.3"/>
		<path class="st0" d="M68.5,237.7c-3.7-1.9-6.4-5.5-7.6-9.7c-2.8,3.3-4.9,8.3-5.1,13.5c-0.4,7.5,3.3,12.3,8.3,10.5
			c3.9-1.4,7.4-6.2,8.9-11.9L68.5,237.7z"/>
		<path class="st1" d="M54.4,170.6c-1.7,2.8-2.6,6-2.6,9.3V224c0,8.9,6.4,16.1,14.3,16.1h49.4c7.9,0,14.3-7.2,14.3-16.1v-44.1
			c0-3.3-1-6.5-2.6-9.3H54.4z"/>
		<path class="st3" d="M54.4,107.9c-9.3,8.6-15.1,20.5-15.1,33.7c0,11,4,20.9,10.5,29c6,7.2,13.9,12.6,22.6,15.7l15.1,3.1
			c1.1,0,2.1,0.1,3.2,0.1c16.6,0,31.5-7.4,40.9-18.7c0.4-0.4,0.7-0.8,1.1-1.4l-0.6-0.3c-5.4-2.4-17.1-0.3-17.2-0.3l-0.3-1.7
			c0.4-0.1,11.5-2.1,17.6,0.1l2.8-4.3c-1.1-1-1.4-2.4-0.6-3.1c1.2-1,3.5,0.6,3.5,0.6c2.8-6,4.2-12.3,4.2-18.9c0-1,0-2.1-0.1-3.1
			c-1,9-8.2,16.1-16.8,16.1c-9.3,0-16.9-8.2-16.9-18.3c0-10.1,7.5-18.3,16.9-18.3c6,0,11.1,3.3,14.2,8.5
			C132.6,107.6,113.2,94,90.6,94c-2.9,0-5.8,0.3-8.6,0.7L54.4,107.9z"/>
		<path class="st3" d="M123.2,137.8c0-2.2,1-4.4,2.6-5.8c-1.9-2.1-3.6-3.9-4.7-5.1c-3.6,1.5-6.1,5.3-6.1,9.6
			c0,5.7,4.3,10.3,9.4,10.3c1.8,0,3.5-0.6,5-1.5C126,144.9,123.2,141.7,123.2,137.8z"/>
		<path class="st0" d="M84.9,102.3l-2.2-1.9l-3.7-4c-5.5-6-14.6-6-20,0l-0.8,0.8c-4.2,4.4-5.1,11-3.2,16.5c0.7,1.9,1.8,3.7,3.2,5.3
			l6,6.1L84.9,102.3z"/>
		<path class="st0" d="M142.2,138.7c0.1-0.7,0.1-1.5,0.1-2.2c0-3.5-1-6.9-2.8-10c-3.1-5-8.2-8.5-14.2-8.5c-9.3,0-16.9,8.2-16.9,18.3
			c0,10.1,7.5,18.3,16.9,18.3C134.2,154.8,141.2,147.7,142.2,138.7z M123.3,137.8c0,3.9,2.8,7.1,6.2,7.4c-1.5,1-3.2,1.5-5,1.5
			c-5.3,0-9.4-4.6-9.4-10.3c0-4.4,2.5-8,6.1-9.6c1.1,1.2,2.8,3.1,4.7,5.1C124.2,133.4,123.2,135.6,123.3,137.8z"/>
		<path class="st0" d="M132.2,169.1l0.6,0.3l0,0c1.4-1.8,2.6-3.6,3.6-5.5c0.7-1.1,1.2-2.2,1.7-3.3l0,0c0,0-2.4-1.4-3.5-0.6
			c-1,0.7-0.6,2.1,0.6,3.1l-2.8,4.3c-6-2.2-17.1-0.1-17.6-0.1l0.3,1.7C115.2,168.8,126.9,166.7,132.2,169.1z"/>
		<path d="M91.3,189c1.1-0.4,6.5,2.8,11.5,4.9c5,2.1,12.1,3.5,12.2,5.3c1,1.5,1,3.7-0.1,6.4c-3.1,7.2-9.7,6-17.5,2.6
			c-7.8-3.3-13.9-7.5-10.7-14.7C88,190.7,89.5,189.3,91.3,189z"/>
	</g>
</g>
<g>
	<path class="st2" d="M-326.4,442.7c0,19.8-12.4,26.1-24.6,26.1c-15,0-27.1-8.1-28.8-22.4l-4.4-1.8c-2.6-1.1-4.3-3.7-4.1-6.5v-10.4
		c0-2.8,1.5-5.4,4-6.7l2.5-1.4v11.5l3.5,2.4l2,1.4v0l0,0c0,0,0-46.7,0-54c0-4.3,2.5-6.7,4.9-6.7c2.3,0,4.5,2.1,4.5,6.7
		c0,7.2,0,30.2,0,37.7h5.7h0h0c0-4.2,2.3-6.3,4.6-6.3c2.3,0,4.6,2.1,4.6,6.3h4.2h0h0c0-4,2.3-6,4.5-6c2.2,0,4.4,2,4.4,6h4.1h0h0
		c0-3.4,2-5.2,4-5.2c2.1,0,4.3,2,4.3,6.2C-326.4,425.4-326.4,434.4-326.4,442.7z"/>
	<path class="st12" d="M-330.8,402.5c-1.9,0-3.8,0.4-5.5,1.1c-4.1-2.3-9.2-2.4-13.5-0.4c-2-1.1-4.3-1.7-6.5-1.8v-20.6
		c0-11.5-7.7-17.4-15.2-17.4c-7.7,0-15.7,6.5-15.7,17.4v29.3l-2.4,1.3c-5.9,3.2-9.6,9.4-9.6,16.2l0,10.1c-0.3,7,3.7,13.5,10,16.4
		c4.8,15.5,19.6,25.4,38.1,25.4c17.1,0,35.3-9.7,35.3-36.8v-23.2C-315.7,408.4-323.5,402.5-330.8,402.5z M-326.5,442.7
		c0,19.8-12.4,26.1-24.6,26.1c-15,0-27.1-8.1-28.8-22.4l-4.4-1.8c-2.6-1.1-4.3-3.7-4.1-6.5v-10.4c0-2.8,1.5-5.4,4-6.7l2.5-1.4v11.5
		l3.5,2.4l2,1.4v0l0,0c0,0,0-46.7,0-54c0-4.3,2.5-6.7,4.9-6.7c2.3,0,4.5,2.1,4.5,6.7c0,7.2,0,30.2,0,37.7h5.7h0h0
		c0-4.2,2.3-6.3,4.6-6.3c2.3,0,4.6,2.1,4.6,6.3h4.2h0h0c0-4,2.3-6,4.5-6c2.2,0,4.4,2,4.4,6h4.1h0h0c0-3.4,2-5.2,4-5.2
		c2.1,0,4.3,2,4.3,6.2C-326.5,425.4-326.5,434.4-326.5,442.7z"/>
	<path class="st12" d="M-371.4,351c1.4,0,2.6-1.1,2.7-2.6l1.1-16.3c0.1-1.6-1.1-2.9-2.7-2.9l-2.1,0c-1.6,0-2.8,1.3-2.7,2.9l1.1,16.3
		C-374,349.9-372.8,351-371.4,351z"/>
	<path class="st12" d="M-398,358.3l-10.8-12.3c-1-1.2-2.9-1.2-4-0.1l-1.5,1.5c-1.1,1.1-1.1,2.9,0.1,4l12.3,10.8
		c1.1,0.9,2.7,0.9,3.7-0.1C-397.1,361-397,359.4-398,358.3z"/>
	<path class="st12" d="M-340.9,362.2l12.3-10.8c1.2-1,1.2-2.9,0.1-4l-1.5-1.5c-1.1-1.1-2.9-1.1-4,0.1l-10.8,12.3
		c-1,1.1-0.9,2.7,0.1,3.7C-343.7,363.1-342,363.1-340.9,362.2z"/>
</g>
<image style="overflow:visible;" width="730" height="730" xlink:href="6c718719f916a0c1ca62d277bbc67d82.png"  transform="matrix(0.2209 0 0 0.2209 2058.991 -64.1769)">
</image>
<text transform="matrix(1 0 0 1 2091.4868 3.9736)" class="st13" style="font-family:'Quicksand-Bold'; font-size:40px;">EXIT</text>
</svg>
