<svg xmlns="http://www.w3.org/2000/svg" viewBox="0 0 658.9643 756.0248"><defs><style>.cls-1{fill:#b4f79f;}.cls-2{fill:#7b6227;}.cls-3{fill:#4f3c24;}.cls-4,.cls-6{font-size:203.4873px;font-family:Quicksand-Bold, Quicksand;font-weight:700;}.cls-4{fill:#fdbc1f;}.cls-5{letter-spacing:-0.05em;}.cls-6{fill:#f6d07b;}.cls-7{fill:none;stroke-linecap:round;}.cls-7,.cls-8{stroke:#21b14b;stroke-linejoin:round;stroke-width:0.3302px;}.cls-8{fill:#57ad46;}.cls-9{fill:#fff;}.cls-10{fill:#f3e39d;}</style></defs><title>exitsign</title><g id="Layer_2" data-name="Layer 2"><g id="bg"><ellipse class="cls-1" cx="324.6689" cy="666.6296" rx="287.0055" ry="89.3952"/><rect class="cls-2" x="13.0296" width="624.5661" height="98.9412"/><path class="cls-3" d="M274.2149,260.1543h95.2194a0,0,0,0,1,0,0V630.0459a49.9854,49.9854,0,0,1-49.9854,49.9854H299.2076a24.9927,24.9927,0,0,1-24.9927-24.9927V260.1543A0,0,0,0,1,274.2149,260.1543Z"/><path class="cls-2" d="M264.0405,260.1543H359.26a0,0,0,0,1,0,0v382.388a37.4891,37.4891,0,0,1-37.4891,37.4891H301.53a37.4891,37.4891,0,0,1-37.4891-37.4891V260.1543A0,0,0,0,1,264.0405,260.1543Z"/><rect class="cls-3" x="1.0629" y="260.1543" width="624.5661" height="98.9412" transform="translate(7.2617 -7.1806) rotate(1.3283)"/><rect class="cls-2" x="4.4543" y="91.2695" width="624.5661" height="98.9412" transform="translate(8.7346 -18.2084) rotate(3.3389)"/><rect class="cls-2" x="26.4988" y="210.6837" width="624.5661" height="98.9412" transform="translate(15.7269 -19.2896) rotate(3.3389)"/><rect class="cls-2" x="7.8458" y="219.6581" width="624.5661" height="98.9412" transform="translate(-5.2889 6.4197) rotate(-1.1395)"/><rect class="cls-3" x="15.0897" y="138.0845" width="624.5661" height="98.9412" transform="translate(-3.6652 6.5477) rotate(-1.1395)"/><rect class="cls-3" x="32.047" y="25.6068" width="624.5661" height="98.9412" transform="translate(4.9571 -19.9269) rotate(3.3389)"/><rect class="cls-2" x="25.2641" y="100.9797" width="624.5661" height="98.9412" transform="translate(-2.9253 6.7427) rotate(-1.1395)"/><text class="cls-4" transform="translate(108.5526 263.2974)">E<tspan class="cls-5" x="120.665" y="0">X</tspan><tspan x="257.4082" y="0">IT</tspan></text><text class="cls-6" transform="translate(100.0838 263.2974)">E<tspan class="cls-5" x="120.665" y="0">X</tspan><tspan x="257.4082" y="0">IT</tspan></text><path class="cls-7" d="M203.6986,611.1863s1.8795,8.2758,3.4174,9.8381"/><path class="cls-8" d="M206.9939,620.6338s-.27-8.7751,1.6845-7.1281S206.9939,620.6338,206.9939,620.6338Z"/><path class="cls-8" d="M206.5,620.1s-6.2925-7.2286-6.39-4.104S206.5,620.1,206.5,620.1Z"/><path class="cls-9" d="M201.3914,610.1495c-2.43-.7282-5.3127-1.98-5.3834-3.0777-.2114-3.2837,8.8108.4521,8.86,1.4144S204.5759,611.1038,201.3914,610.1495Z"/><path class="cls-9" d="M202,607.1847c.0211-2.5367.4182-5.6541,1.4529-6.0285,3.0942-1.1195,2.025,8.5869,1.1147,8.903S201.9725,610.509,202,607.1847Z"/><path class="cls-9" d="M204.9891,606.5272c2.4369-.7045,5.5379-1.2146,6.1923-.33,1.9568,2.6454-7.65,4.3938-8.2134,3.6119S201.7954,607.4505,204.9891,606.5272Z"/><path class="cls-9" d="M206.2623,609.2984c1.8887,1.6935,3.9643,4.0532,3.5608,5.0768-1.2068,3.0612-7.78-4.16-7.415-5.0521S203.7871,607.0791,206.2623,609.2984Z"/><path class="cls-9" d="M204.0747,611.69c-1.719,1.8655-4.1066,3.9089-5.1247,3.4915-3.0445-1.2482,4.2655-7.7227,5.1523-7.3457S206.3274,609.2457,204.0747,611.69Z"/><circle class="cls-10" cx="203.7883" cy="609.1471" r="2.3816"/><path class="cls-7" d="M134.5774,675.0848s1.8795,8.2758,3.4174,9.8381"/><path class="cls-8" d="M137.8728,684.5323s-.27-8.7751,1.6845-7.1281S137.8728,684.5323,137.8728,684.5323Z"/><path class="cls-8" d="M137.3789,683.9981s-6.2925-7.2286-6.39-4.104S137.3789,683.9981,137.3789,683.9981Z"/><path class="cls-9" d="M132.27,674.0479c-2.43-.7282-5.3127-1.98-5.3834-3.0777-.2114-3.2837,8.8108.4521,8.86,1.4144S135.4548,675.0022,132.27,674.0479Z"/><path class="cls-9" d="M132.879,671.0831c.0211-2.5367.4182-5.6541,1.4529-6.0285,3.0942-1.1195,2.025,8.5869,1.1147,8.903S132.8514,674.4074,132.879,671.0831Z"/><path class="cls-9" d="M135.8679,670.4257c2.4369-.7045,5.5379-1.2146,6.1923-.33,1.9568,2.6454-7.65,4.3938-8.2134,3.6119S132.6743,671.349,135.8679,670.4257Z"/><path class="cls-9" d="M137.1411,673.1968c1.8887,1.6935,3.9643,4.0532,3.5608,5.0768-1.2068,3.0612-7.78-4.16-7.415-5.0521S134.6659,670.9775,137.1411,673.1968Z"/><path class="cls-9" d="M134.9536,675.5889c-1.719,1.8655-4.1066,3.9089-5.1247,3.4915-3.0445-1.2482,4.2655-7.7227,5.1523-7.3457S137.2063,673.1441,134.9536,675.5889Z"/><circle class="cls-10" cx="134.6671" cy="673.0455" r="2.3816"/><path class="cls-7" d="M381.6069,678.7517s1.8795,8.2758,3.4174,9.8381"/><path class="cls-8" d="M384.9023,688.1993s-.27-8.7751,1.6845-7.1281S384.9023,688.1993,384.9023,688.1993Z"/><path class="cls-8" d="M384.4084,687.6651s-6.2925-7.2286-6.39-4.104S384.4084,687.6651,384.4084,687.6651Z"/><path class="cls-9" d="M379.3,677.7149c-2.43-.7282-5.3127-1.98-5.3834-3.0777-.2114-3.2837,8.8108.4521,8.86,1.4144S382.4843,678.6692,379.3,677.7149Z"/><path class="cls-9" d="M379.9085,674.75c.0211-2.5367.4182-5.6541,1.4529-6.0285,3.0942-1.1195,2.025,8.5869,1.1147,8.903S379.8809,678.0744,379.9085,674.75Z"/><path class="cls-9" d="M382.8974,674.0927c2.4369-.7045,5.5379-1.2146,6.1923-.33,1.9568,2.6454-7.65,4.3938-8.2134,3.6119S379.7038,675.016,382.8974,674.0927Z"/><path class="cls-9" d="M384.1706,676.8638c1.8887,1.6935,3.9643,4.0532,3.5608,5.0768-1.2068,3.0612-7.78-4.16-7.415-5.0521S381.6955,674.6445,384.1706,676.8638Z"/><path class="cls-9" d="M381.9831,679.2559c-1.719,1.8655-4.1066,3.9089-5.1247,3.4915-3.0445-1.2482,4.2655-7.7227,5.1523-7.3457S384.2358,676.8111,381.9831,679.2559Z"/><circle class="cls-10" cx="381.6966" cy="676.7125" r="2.3816"/><path class="cls-7" d="M466.3225,610.3521s1.8795,8.2758,3.4174,9.8381"/><path class="cls-8" d="M469.6179,619.8s-.27-8.7751,1.6845-7.1281S469.6179,619.8,469.6179,619.8Z"/><path class="cls-8" d="M469.124,619.2655s-6.2925-7.2286-6.39-4.104S469.124,619.2655,469.124,619.2655Z"/><path class="cls-9" d="M464.0154,609.3153c-2.43-.7282-5.3127-1.98-5.3834-3.0777-.2114-3.2837,8.8108.4521,8.86,1.4144S467.2,610.27,464.0154,609.3153Z"/><path class="cls-9" d="M464.6241,606.35c.0211-2.5367.4182-5.6541,1.4529-6.0285,3.0942-1.1195,2.025,8.5869,1.1147,8.903S464.5965,609.6748,464.6241,606.35Z"/><path class="cls-9" d="M467.613,605.6931c2.4369-.7045,5.5379-1.2146,6.1923-.33,1.9568,2.6454-7.65,4.3938-8.2134,3.6119S464.4194,606.6164,467.613,605.6931Z"/><path class="cls-9" d="M468.8862,608.4642c1.8887,1.6935,3.9643,4.0532,3.5608,5.0768-1.2068,3.0612-7.78-4.16-7.415-5.0521S466.4111,606.2449,468.8862,608.4642Z"/><path class="cls-9" d="M466.6987,610.8563c-1.719,1.8655-4.1066,3.9089-5.1247,3.4915-3.0445-1.2482,4.2655-7.7227,5.1523-7.3457S468.9514,608.4115,466.6987,610.8563Z"/><circle class="cls-10" cx="466.4122" cy="608.3129" r="2.3816"/><path class="cls-7" d="M499.3071,722.38s1.8795,8.2758,3.4174,9.8381"/><path class="cls-8" d="M502.6024,731.8272s-.27-8.7751,1.6845-7.1281S502.6024,731.8272,502.6024,731.8272Z"/><path class="cls-8" d="M502.1086,731.2931s-6.2925-7.2286-6.39-4.104S502.1086,731.2931,502.1086,731.2931Z"/><path class="cls-9" d="M497,721.3429c-2.43-.7282-5.3127-1.98-5.3834-3.0777-.2114-3.2837,8.8108.4521,8.86,1.4144S500.1844,722.2972,497,721.3429Z"/><path class="cls-9" d="M497.6086,718.3781c.0211-2.5367.4182-5.6541,1.4529-6.0285,3.0942-1.1195,2.025,8.5869,1.1147,8.903S497.581,721.7024,497.6086,718.3781Z"/><path class="cls-9" d="M500.5976,717.7206c2.4369-.7045,5.5379-1.2146,6.1923-.33,1.9568,2.6454-7.65,4.3938-8.2134,3.6119S497.4039,718.6439,500.5976,717.7206Z"/><path class="cls-9" d="M501.8708,720.4918c1.8887,1.6935,3.9643,4.0532,3.5608,5.0768-1.2068,3.0612-7.78-4.16-7.415-5.0521S499.3956,718.2725,501.8708,720.4918Z"/><path class="cls-9" d="M499.6832,722.8839c-1.719,1.8655-4.1066,3.9089-5.1247,3.4915-3.0445-1.2482,4.2655-7.7227,5.1523-7.3457S501.9359,720.4391,499.6832,722.8839Z"/><circle class="cls-10" cx="499.3968" cy="720.3405" r="2.3816"/><path class="cls-7" d="M560.9893,625.2467s1.8795,8.2758,3.4174,9.8381"/><path class="cls-8" d="M564.2846,634.6942s-.27-8.7751,1.6845-7.1281S564.2846,634.6942,564.2846,634.6942Z"/><path class="cls-8" d="M563.7907,634.16s-6.2925-7.2286-6.39-4.104S563.7907,634.16,563.7907,634.16Z"/><path class="cls-9" d="M558.6821,624.21c-2.43-.7282-5.3127-1.98-5.3834-3.0777-.2114-3.2837,8.8108.4521,8.86,1.4144S561.8666,625.1642,558.6821,624.21Z"/><path class="cls-9" d="M559.2908,621.2451c.0211-2.5367.4182-5.6541,1.4529-6.0285,3.0942-1.1195,2.025,8.5869,1.1147,8.903S559.2632,624.5694,559.2908,621.2451Z"/><path class="cls-9" d="M562.28,620.5876c2.4369-.7045,5.5379-1.2146,6.1923-.33,1.9568,2.6454-7.65,4.3938-8.2134,3.6119S559.0861,621.5109,562.28,620.5876Z"/><path class="cls-9" d="M563.5529,623.3588c1.8887,1.6935,3.9643,4.0532,3.5608,5.0768-1.2068,3.0612-7.78-4.16-7.415-5.0521S561.0778,621.1395,563.5529,623.3588Z"/><path class="cls-9" d="M561.3654,625.7509c-1.719,1.8655-4.1066,3.9089-5.1247,3.4915-3.0445-1.2482,4.2655-7.7227,5.1523-7.3457S563.6181,623.3061,561.3654,625.7509Z"/><circle class="cls-10" cx="561.0789" cy="623.2075" r="2.3816"/><path class="cls-7" d="M288.3425,725.6046s1.8795,8.2758,3.4174,9.8381"/><path class="cls-8" d="M291.6378,735.0521s-.27-8.7751,1.6845-7.1281S291.6378,735.0521,291.6378,735.0521Z"/><path class="cls-8" d="M291.1439,734.518s-6.2925-7.2286-6.39-4.104S291.1439,734.518,291.1439,734.518Z"/><path class="cls-9" d="M286.0353,724.5678c-2.43-.7282-5.3127-1.98-5.3834-3.0777-.2114-3.2837,8.8108.4521,8.86,1.4144S289.22,725.5221,286.0353,724.5678Z"/><path class="cls-9" d="M286.644,721.603c.0211-2.5367.4182-5.6541,1.4529-6.0285,3.0942-1.1195,2.025,8.5869,1.1147,8.903S286.6164,724.9273,286.644,721.603Z"/><path class="cls-9" d="M289.6329,720.9456c2.4369-.7045,5.5379-1.2146,6.1923-.33,1.9568,2.6454-7.65,4.3938-8.2134,3.6119S286.4393,721.8689,289.6329,720.9456Z"/><path class="cls-9" d="M290.9061,723.7167c1.8887,1.6935,3.9643,4.0532,3.5608,5.0768-1.2068,3.0612-7.78-4.16-7.415-5.0521S288.431,721.4974,290.9061,723.7167Z"/><path class="cls-9" d="M288.7186,726.1088c-1.719,1.8655-4.1066,3.9089-5.1247,3.4915-3.0445-1.2482,4.2655-7.7227,5.1523-7.3457S290.9713,723.664,288.7186,726.1088Z"/><circle class="cls-10" cx="288.4321" cy="723.5654" r="2.3816"/><path class="cls-1" d="M249.7786,580.3116s5.58-28.2662,3.3474-32.535c0,0,15.5822,31.7415,24.239,27.1246s17.5174-14.428,11.0672-27.1246c0,0,15.48,22.5571,21.2515,29.4578,14.0678-26.9723,27.1246-13.19,27.1246-13.19s-21.93-5.4467-5.1941,16.2675,36.3585-20.4155,24.8161-30.2265a55.91,55.91,0,0,1,13.0041,28.2322c2.5781,17.36,34.32,15.7037,44.7078,28.94S349.9753,709.37,311.65,699.5588,214.69,674.0211,249.7786,580.3116Z"/></g></g></svg>