<?xml version="1.0" encoding="utf-8"?>
<!-- Generator: Adobe Illustrator 22.1.0, SVG Export Plug-In . SVG Version: 6.00 Build 0)  -->
<svg version="1.1" id="Layer_1" xmlns="http://www.w3.org/2000/svg" xmlns:xlink="http://www.w3.org/1999/xlink" x="0px" y="0px"
	 viewBox="0 0 1334 750" style="enable-background:new 0 0 1334 750;" xml:space="preserve">
<style type="text/css">
	.st0{fill:#F2DF91;}
	.st1{fill:#B4F79F;}
	.st2{fill:none;stroke:#00B90D;stroke-linecap:round;stroke-linejoin:round;}
	.st3{fill:#57AF2E;stroke:#00B90D;stroke-linejoin:round;}
	.st4{fill:#FFFFFF;}
	.st5{fill:#F4E49F;}
	.st6{fill:#684A16;}
	.st7{fill:#9B7A37;}
</style>
<g id="Layer_1-2">
	<rect x="1.8" y="291.9" class="st0" width="1333.2" height="166.2"/>
	<g>
		<rect x="0" y="446.9" class="st1" width="1333" height="303.1"/>
		<g>
			<path class="st2" d="M329.7,547.8c0,0,3.8,16.6,6.9,19.7"/>
			<path class="st3" d="M336.3,566.7c0,0-0.5-17.6,3.4-14.3C343.6,555.7,336.3,566.7,336.3,566.7z"/>
			<path class="st3" d="M335.4,565.7c0,0-12.6-14.5-12.8-8.2S335.4,565.7,335.4,565.7z"/>
			<path class="st4" d="M325.1,545.7c-4.9-1.5-10.7-4-10.8-6.2c-0.4-6.6,17.7,0.9,17.8,2.8C332.2,544.3,331.5,547.6,325.1,545.7z"/>
			<path class="st4" d="M326.3,539.8c0-5.1,0.8-11.3,2.9-12.1c6.2-2.2,4.1,17.2,2.2,17.9C329.7,546.2,326.3,546.4,326.3,539.8z"/>
			<path class="st4" d="M332.3,538.4c4.9-1.4,11.1-2.4,12.4-0.7c3.9,5.3-15.3,8.8-16.5,7.2C327.2,543.5,325.9,540.3,332.3,538.4z"/>
			<path class="st4" d="M334.9,544c3.8,3.4,7.9,8.1,7.1,10.2c-2.4,6.1-15.6-8.3-14.9-10.1C327.9,542.3,329.9,539.6,334.9,544z"/>
			<path class="st4" d="M330.5,548.8c-3.5,3.7-8.2,7.8-10.3,7c-6.1-2.5,8.6-15.5,10.3-14.7C332.3,541.8,335,543.9,330.5,548.8z"/>
			<circle class="st5" cx="329.9" cy="543.7" r="4.8"/>
		</g>
		<g>
			<path class="st2" d="M248.3,743.2c0,0,3.8,16.6,6.9,19.7"/>
			<path class="st3" d="M255,762.1c0,0-0.5-17.6,3.4-14.3C262.3,751.1,255,762.1,255,762.1z"/>
			<path class="st3" d="M254,761c0,0-12.6-14.5-12.8-8.2C241,759.1,254,761,254,761z"/>
			<path class="st4" d="M243.7,741.1c-4.9-1.5-10.7-4-10.8-6.2c-0.4-6.6,17.7,0.9,17.8,2.8C250.8,739.7,250.1,743,243.7,741.1z"/>
			<path class="st4" d="M244.9,735.1c0-5.1,0.8-11.3,2.9-12.1c6.2-2.2,4.1,17.2,2.2,17.9C248.3,741.6,244.9,741.8,244.9,735.1z"/>
			<path class="st4" d="M250.9,733.8c4.9-1.4,11.1-2.4,12.4-0.7c3.9,5.3-15.3,8.8-16.5,7.2C245.8,738.8,244.5,735.7,250.9,733.8z"/>
			<path class="st4" d="M253.5,739.4c3.8,3.4,7.9,8.1,7.1,10.2c-2.4,6.1-15.6-8.3-14.9-10.1S248.5,734.9,253.5,739.4z"/>
			<path class="st4" d="M249.1,744.2c-3.5,3.7-8.2,7.8-10.3,7c-6.1-2.5,8.6-15.5,10.3-14.7C250.9,737.2,253.6,739.3,249.1,744.2z"/>
			<circle class="st5" cx="248.5" cy="739.1" r="4.8"/>
		</g>
		<g>
			<path class="st2" d="M70.9,658.9c0,0-3.8,16.6-6.9,19.7"/>
			<path class="st3" d="M64.2,677.9c0,0,0.5-17.6-3.4-14.3C56.9,666.9,64.2,677.9,64.2,677.9z"/>
			<path class="st3" d="M65.2,676.8c0,0,12.6-14.5,12.8-8.2C78.2,674.8,65.2,676.8,65.2,676.8z"/>
			<path class="st4" d="M75.5,656.8c4.9-1.5,10.7-4,10.8-6.2c0.4-6.6-17.7,0.9-17.8,2.8C68.4,655.4,69.1,658.8,75.5,656.8z"/>
			<path class="st4" d="M74.3,650.9c0-5.1-0.8-11.3-2.9-12.1c-6.2-2.2-4.1,17.2-2.2,17.9S74.3,657.6,74.3,650.9z"/>
			<path class="st4" d="M68.3,649.6c-4.9-1.4-11.1-2.4-12.4-0.7c-3.9,5.3,15.3,8.8,16.5,7.2C73.4,654.6,74.6,651.4,68.3,649.6z"/>
			<path class="st4" d="M65.7,655.1c-3.8,3.4-7.9,8.1-7.1,10.2c2.4,6.1,15.6-8.3,14.9-10.1C72.7,653.4,70.7,650.7,65.7,655.1z"/>
			<path class="st4" d="M70.1,659.9c3.5,3.7,8.2,7.8,10.3,7c6.1-2.5-8.6-15.5-10.3-14.7S65.6,655,70.1,659.9z"/>
			<circle class="st5" cx="70.7" cy="654.8" r="4.8"/>
		</g>
		<g>
			<path class="st2" d="M118.8,498.6c0,0,3.8,16.6,6.9,19.7"/>
			<path class="st3" d="M125.4,517.5c0,0-0.5-17.6,3.4-14.3C132.7,506.5,125.4,517.5,125.4,517.5z"/>
			<path class="st3" d="M124.4,516.4c0,0-12.6-14.5-12.8-8.2S124.4,516.4,124.4,516.4z"/>
			<path class="st4" d="M114.1,496.5c-4.9-1.5-10.7-4-10.8-6.2c-0.4-6.6,17.7,0.9,17.8,2.8C121.2,495.1,120.5,498.4,114.1,496.5z"/>
			<path class="st4" d="M115.4,490.5c0-5.1,0.8-11.3,2.9-12.1c6.2-2.2,4.1,17.2,2.2,17.9C118.7,497,115.3,497.2,115.4,490.5z"/>
			<path class="st4" d="M121.4,489.2c4.9-1.4,11.1-2.4,12.4-0.7c3.9,5.3-15.3,8.8-16.5,7.2C116.2,494.2,114.9,491.1,121.4,489.2z"/>
			<path class="st4" d="M123.9,494.8c3.8,3.4,7.9,8.1,7.1,10.2c-2.4,6.1-15.6-8.3-14.9-10.1C116.9,493,118.9,490.3,123.9,494.8z"/>
			<path class="st4" d="M119.5,499.6c-3.5,3.7-8.2,7.8-10.3,7c-6.1-2.5,8.6-15.5,10.3-14.7S124,494.7,119.5,499.6z"/>
			<circle class="st5" cx="118.9" cy="494.5" r="4.8"/>
		</g>
		<g>
			<path class="st2" d="M540.7,570.8c0,0,3.8,16.6,6.9,19.7"/>
			<path class="st3" d="M547.3,589.7c0,0-0.5-17.6,3.4-14.3C554.6,578.7,547.3,589.7,547.3,589.7z"/>
			<path class="st3" d="M546.3,588.7c0,0-12.6-14.5-12.8-8.2C533.3,586.7,546.3,588.7,546.3,588.7z"/>
			<path class="st4" d="M536.1,568.7c-4.9-1.5-10.7-4-10.8-6.2c-0.4-6.6,17.7,0.9,17.8,2.8C543.2,567.3,542.5,570.6,536.1,568.7z"/>
			<path class="st4" d="M537.3,562.8c0-5.1,0.8-11.3,2.9-12.1c6.2-2.2,4.1,17.2,2.2,17.9C540.6,569.2,537.3,569.4,537.3,562.8z"/>
			<path class="st4" d="M543.3,561.5c4.9-1.4,11.1-2.4,12.4-0.7c3.9,5.3-15.3,8.8-16.5,7.2C538.1,566.5,536.9,563.3,543.3,561.5z"/>
			<path class="st4" d="M545.9,567c3.8,3.4,7.9,8.1,7.1,10.2c-2.4,6.1-15.6-8.3-14.9-10.1S540.9,562.6,545.9,567z"/>
			<path class="st4" d="M541.5,571.8c-3.5,3.7-8.2,7.8-10.3,7c-6.1-2.5,8.6-15.5,10.3-14.7S546,566.9,541.5,571.8z"/>
			<circle class="st5" cx="540.9" cy="566.7" r="4.8"/>
		</g>
		<g>
			<path class="st2" d="M849.8,732.3c0,0,3.8,16.6,6.9,19.7"/>
			<path class="st3" d="M856.4,751.3c0,0-0.5-17.6,3.4-14.3C863.7,740.3,856.4,751.3,856.4,751.3z"/>
			<path class="st3" d="M855.4,750.2c0,0-12.6-14.5-12.8-8.2C842.4,748.2,855.4,750.2,855.4,750.2z"/>
			<path class="st4" d="M845.1,730.2c-4.9-1.5-10.7-4-10.8-6.2c-0.4-6.6,17.7,0.9,17.8,2.8C852.2,728.8,851.5,732.1,845.1,730.2z"/>
			<path class="st4" d="M846.4,724.3c0-5.1,0.8-11.3,2.9-12.1c6.2-2.2,4.1,17.2,2.2,17.9C849.7,730.7,846.3,731,846.4,724.3z"/>
			<path class="st4" d="M852.4,723c4.9-1.4,11.1-2.4,12.4-0.7c3.9,5.3-15.3,8.8-16.5,7.2C847.2,728,846,724.8,852.4,723z"/>
			<path class="st4" d="M854.9,728.5c3.8,3.4,7.9,8.1,7.1,10.2c-2.4,6.1-15.6-8.3-14.9-10.1C847.9,726.8,849.9,724.1,854.9,728.5z"
				/>
			<path class="st4" d="M850.5,733.3c-3.5,3.7-8.2,7.8-10.3,7c-6.1-2.5,8.6-15.5,10.3-14.7S855,728.4,850.5,733.3z"/>
			<circle class="st5" cx="850" cy="728.2" r="4.8"/>
		</g>
		<g>
			<path class="st2" d="M663.4,754.3c0,0-3.8,16.6-6.9,19.7"/>
			<path class="st3" d="M656.7,773.2c0,0,0.5-17.6-3.4-14.3C649.5,762.2,656.7,773.2,656.7,773.2z"/>
			<path class="st3" d="M657.7,772.1c0,0,12.6-14.5,12.8-8.2S657.7,772.1,657.7,772.1z"/>
			<path class="st4" d="M668,752.2c4.9-1.5,10.7-4,10.8-6.2c0.4-6.6-17.7,0.9-17.8,2.8S661.6,754.1,668,752.2z"/>
			<path class="st4" d="M666.8,746.2c0-5.1-0.8-11.3-2.9-12.1c-6.2-2.2-4.1,17.2-2.2,17.9C663.4,752.7,666.8,752.9,666.8,746.2z"/>
			<path class="st4" d="M660.8,744.9c-4.9-1.4-11.1-2.4-12.4-0.7c-3.9,5.3,15.3,8.8,16.5,7.2S667.2,746.8,660.8,744.9z"/>
			<path class="st4" d="M658.2,750.5c-3.8,3.4-7.9,8.1-7.1,10.2c2.4,6.1,15.6-8.3,14.9-10.1C665.2,748.7,663.2,746,658.2,750.5z"/>
			<path class="st4" d="M662.6,755.3c3.5,3.7,8.2,7.8,10.3,7c6.1-2.5-8.6-15.5-10.3-14.7S658.1,750.4,662.6,755.3z"/>
			<circle class="st5" cx="663.2" cy="750.2" r="4.8"/>
		</g>
		<g>
			<path class="st2" d="M818.8,527.8c0,0,3.8,16.6,6.9,19.7"/>
			<path class="st3" d="M825.4,546.7c0,0-0.5-17.6,3.4-14.3C832.7,535.7,825.4,546.7,825.4,546.7z"/>
			<path class="st3" d="M824.4,545.7c0,0-12.6-14.5-12.8-8.2C811.4,543.7,824.4,545.7,824.4,545.7z"/>
			<path class="st4" d="M814.2,525.7c-4.9-1.5-10.7-4-10.8-6.2c-0.4-6.6,17.7,0.9,17.8,2.8C821.3,524.3,820.6,527.6,814.2,525.7z"/>
			<path class="st4" d="M815.4,519.8c0-5.1,0.8-11.3,2.9-12.1c6.2-2.2,4.1,17.2,2.2,17.9S815.3,526.4,815.4,519.8z"/>
			<path class="st4" d="M821.4,518.4c4.9-1.4,11.1-2.4,12.4-0.7c3.9,5.3-15.3,8.8-16.5,7.2C816.2,523.4,815,520.3,821.4,518.4z"/>
			<path class="st4" d="M823.9,524c3.8,3.4,7.9,8.1,7.1,10.2c-2.4,6.1-15.6-8.3-14.9-10.1C817,522.2,819,519.5,823.9,524z"/>
			<path class="st4" d="M819.6,528.8c-3.5,3.7-8.2,7.8-10.3,7c-6.1-2.5,8.6-15.5,10.3-14.7C821.4,521.8,824.1,523.9,819.6,528.8z"/>
			<circle class="st5" cx="819" cy="523.7" r="4.8"/>
		</g>
		<g>
			<path class="st2" d="M1331.4,677.8c0,0,3.8,16.6,6.9,19.7"/>
			<path class="st3" d="M1338,696.7c0,0-0.5-17.6,3.4-14.3C1345.3,685.7,1338,696.7,1338,696.7z"/>
			<path class="st3" d="M1337,695.7c0,0-12.6-14.5-12.8-8.2C1324,693.7,1337,695.7,1337,695.7z"/>
			<path class="st4" d="M1326.8,675.7c-4.9-1.5-10.7-4-10.8-6.2c-0.4-6.6,17.7,0.9,17.8,2.8C1333.9,674.3,1333.2,677.6,1326.8,675.7
				z"/>
			<path class="st4" d="M1328,669.8c0-5.1,0.8-11.3,2.9-12.1c6.2-2.2,4.1,17.2,2.2,17.9S1327.9,676.4,1328,669.8z"/>
			<path class="st4" d="M1334,668.4c4.9-1.4,11.1-2.4,12.4-0.7c3.9,5.3-15.3,8.8-16.5,7.2S1327.6,670.3,1334,668.4z"/>
			<path class="st4" d="M1336.5,674c3.8,3.4,7.9,8.1,7.1,10.2c-2.4,6.1-15.6-8.3-14.9-10.1C1329.6,672.3,1331.6,669.5,1336.5,674z"
				/>
			<path class="st4" d="M1332.2,678.8c-3.5,3.7-8.2,7.8-10.3,7c-6.1-2.5,8.6-15.5,10.3-14.7C1334,671.8,1336.7,673.9,1332.2,678.8z"
				/>
			<circle class="st5" cx="1331.6" cy="673.7" r="4.8"/>
		</g>
		<g>
			<path class="st2" d="M990.2,573.4c0,0,3.8,16.6,6.9,19.7"/>
			<path class="st3" d="M996.8,592.3c0,0-0.5-17.6,3.4-14.3C1004.1,581.3,996.8,592.3,996.8,592.3z"/>
			<path class="st3" d="M995.8,591.2c0,0-12.6-14.5-12.8-8.2C982.8,589.3,995.8,591.2,995.8,591.2z"/>
			<path class="st4" d="M985.6,571.3c-4.9-1.5-10.7-4-10.8-6.2c-0.4-6.6,17.7,0.9,17.8,2.8C992.7,569.9,992,573.2,985.6,571.3z"/>
			<path class="st4" d="M986.8,565.3c0-5.1,0.8-11.3,2.9-12.1c6.2-2.2,4.1,17.2,2.2,17.9S986.8,572,986.8,565.3z"/>
			<path class="st4" d="M992.8,564c4.9-1.4,11.1-2.4,12.4-0.7c3.9,5.3-15.3,8.8-16.5,7.2C987.6,569,986.4,565.9,992.8,564z"/>
			<path class="st4" d="M995.4,569.6c3.8,3.4,7.9,8.1,7.1,10.2c-2.4,6.1-15.6-8.3-14.9-10.1C988.4,567.8,990.4,565.1,995.4,569.6z"
				/>
			<path class="st4" d="M991,574.4c-3.5,3.7-8.2,7.8-10.3,7c-6.1-2.5,8.6-15.5,10.3-14.7S995.5,569.5,991,574.4z"/>
			<circle class="st5" cx="990.4" cy="569.3" r="4.8"/>
		</g>
		<g>
			<path class="st2" d="M1123,732.6c0,0,3.8,16.6,6.9,19.7"/>
			<path class="st3" d="M1129.6,751.5c0,0-0.5-17.6,3.4-14.3C1136.9,740.5,1129.6,751.5,1129.6,751.5z"/>
			<path class="st3" d="M1128.6,750.5c0,0-12.6-14.5-12.8-8.2C1115.6,748.5,1128.6,750.5,1128.6,750.5z"/>
			<path class="st4" d="M1118.3,730.5c-4.9-1.5-10.7-4-10.8-6.2c-0.4-6.6,17.7,0.9,17.8,2.8C1125.4,729.1,1124.7,732.4,1118.3,730.5
				z"/>
			<path class="st4" d="M1119.5,724.6c0-5.1,0.8-11.3,2.9-12.1c6.2-2.2,4.1,17.2,2.2,17.9C1122.9,731,1119.5,731.2,1119.5,724.6z"/>
			<path class="st4" d="M1125.5,723.3c4.9-1.4,11.1-2.4,12.4-0.7c3.9,5.3-15.3,8.8-16.5,7.2C1120.4,728.3,1119.1,725.1,1125.5,723.3
				z"/>
			<path class="st4" d="M1128.1,728.8c3.8,3.4,7.9,8.1,7.1,10.2c-2.4,6.1-15.6-8.3-14.9-10.1
				C1121.1,727.1,1123.1,724.4,1128.1,728.8z"/>
			<path class="st4" d="M1123.7,733.6c-3.5,3.7-8.2,7.8-10.3,7c-6.1-2.5,8.6-15.5,10.3-14.7S1128.3,728.7,1123.7,733.6z"/>
			<circle class="st5" cx="1123.1" cy="728.5" r="4.8"/>
		</g>
		<g>
			<path class="st2" d="M1243.6,525.7c0,0,3.8,16.6,6.9,19.7"/>
			<path class="st3" d="M1250.2,544.6c0,0-0.5-17.6,3.4-14.3C1257.5,533.6,1250.2,544.6,1250.2,544.6z"/>
			<path class="st3" d="M1249.2,543.6c0,0-12.6-14.5-12.8-8.2C1236.2,541.6,1249.2,543.6,1249.2,543.6z"/>
			<path class="st4" d="M1238.9,523.6c-4.9-1.5-10.7-4-10.8-6.2c-0.4-6.6,17.7,0.9,17.8,2.8C1246,522.2,1245.3,525.5,1238.9,523.6z"
				/>
			<path class="st4" d="M1240.2,517.7c0-5.1,0.8-11.3,2.9-12.1c6.2-2.2,4.1,17.2,2.2,17.9S1240.1,524.3,1240.2,517.7z"/>
			<path class="st4" d="M1246.1,516.3c4.9-1.4,11.1-2.4,12.4-0.7c3.9,5.3-15.3,8.8-16.5,7.2C1241,521.3,1239.7,518.2,1246.1,516.3z"
				/>
			<path class="st4" d="M1248.7,521.9c3.8,3.4,7.9,8.1,7.1,10.2c-2.4,6.1-15.6-8.3-14.9-10.1
				C1241.7,520.1,1243.7,517.4,1248.7,521.9z"/>
			<path class="st4" d="M1244.3,526.7c-3.5,3.7-8.2,7.8-10.3,7c-6.1-2.5,8.6-15.5,10.3-14.7S1248.8,521.8,1244.3,526.7z"/>
			<circle class="st5" cx="1243.7" cy="521.6" r="4.8"/>
		</g>
		<g>
			<path class="st2" d="M427.8,678.9c0,0,3.8,16.6,6.9,19.7"/>
			<path class="st3" d="M434.4,697.9c0,0-0.5-17.6,3.4-14.3C441.7,686.9,434.4,697.9,434.4,697.9z"/>
			<path class="st3" d="M433.4,696.8c0,0-12.6-14.5-12.8-8.2C420.4,694.8,433.4,696.8,433.4,696.8z"/>
			<path class="st4" d="M423.2,676.9c-4.9-1.5-10.7-4-10.8-6.2c-0.4-6.6,17.7,0.9,17.8,2.8S429.6,678.8,423.2,676.9z"/>
			<path class="st4" d="M424.4,670.9c0-5.1,0.8-11.3,2.9-12.1c6.2-2.2,4.1,17.2,2.2,17.9C427.7,677.4,424.4,677.6,424.4,670.9z"/>
			<path class="st4" d="M430.4,669.6c4.9-1.4,11.1-2.4,12.4-0.7c3.9,5.3-15.3,8.8-16.5,7.2S424,671.4,430.4,669.6z"/>
			<path class="st4" d="M433,675.1c3.8,3.4,7.9,8.1,7.1,10.2c-2.4,6.1-15.6-8.3-14.9-10.1C426,673.4,428,670.7,433,675.1z"/>
			<path class="st4" d="M428.6,679.9c-3.5,3.7-8.2,7.8-10.3,7c-6.1-2.5,8.6-15.5,10.3-14.7C430.4,673,433.1,675,428.6,679.9z"/>
			<circle class="st5" cx="428" cy="674.8" r="4.8"/>
		</g>
		<g>
			<path class="st6" d="M53.4,444.7c-19.7,0-38.4,0.2-55.1,0.6v13.4c16.8,0.4,35.4,0.6,55.1,0.6h1278.1v-14.6H53.4z"/>
			<path class="st6" d="M53.4,485c-19.7,0-38.4,0.2-55.1,0.6V499c16.8,0.4,35.4,0.6,55.1,0.6h1278.1V485L53.4,485z"/>
			<path class="st7" d="M80.6,426h-2.8c-6,0-10.8,4-10.8,8.9v88.2h24.3v-88.2C91.4,430,86.6,426.1,80.6,426z"/>
			<path class="st7" d="M149.5,426h-2.8c-6,0-10.8,4-10.7,8.9v88.2h24.3v-88.2C160.3,430,155.5,426,149.5,426z"/>
			<path class="st7" d="M218.4,426h-2.8c-6,0-10.8,4-10.7,8.9v88.2h24.3v-88.2C229.2,430,224.4,426,218.4,426z"/>
			<path class="st7" d="M839.1,426h-2.8c-6,0-10.8,4-10.7,8.9v88.2h24.3v-88.2C849.9,430,845.1,426,839.1,426z"/>
			<path class="st7" d="M908,426h-2.8c-6,0-10.8,4-10.7,8.9v88.2h24.3v-88.2C918.8,430,914,426,908,426z"/>
			<path class="st7" d="M976.9,426h-2.8c-6,0-10.8,4-10.7,8.9v88.2h24.3v-88.2C987.6,430,982.8,426,976.9,426z"/>
			<path class="st7" d="M1045.7,426h-2.8c-6,0.1-10.7,4-10.7,8.9v88.2h24.3v-88.2C1056.5,430,1051.7,426,1045.7,426z"/>
			<path class="st7" d="M287.6,426h-2.8c-6,0-10.8,4-10.7,8.9v88.2h24.3v-88.2C298.3,430,293.5,426.1,287.6,426z"/>
			<path class="st7" d="M356.4,426h-2.8c-6,0-10.8,4-10.7,8.9v88.2h24.3v-88.2C367.2,430,362.4,426.1,356.4,426z"/>
			<path class="st7" d="M425.3,426h-2.8c-6,0-10.8,4-10.7,8.9v88.2H436v-88.2C436.1,430,431.3,426,425.3,426z"/>
			<path class="st7" d="M494.2,426h-2.8c-6,0-10.8,4-10.7,8.9v88.2h24.3v-88.2C504.9,430,500.1,426,494.2,426z"/>
			<path class="st7" d="M563.3,426h-2.8c-6,0-10.8,4-10.7,8.9v88.2h24.3v-88.2C574.1,430,569.3,426,563.3,426z"/>
			<path class="st7" d="M632.2,426h-2.8c-6,0-10.8,4-10.7,8.9v88.2h24.3v-88.2C643,430,638.2,426,632.2,426z"/>
			<path class="st7" d="M701.1,426h-2.8c-6,0-10.8,4-10.7,8.9v88.2h24.3v-88.2C711.8,430,707,426,701.1,426z"/>
			<path class="st7" d="M770,426h-2.8c-6,0-10.8,4-10.7,8.9v88.2h24.3v-88.2C780.7,430,775.9,426,770,426z"/>
			<path class="st7" d="M1114.9,426h-2.8c-6,0-10.8,4-10.7,8.9v88.2h24.3v-88.2C1125.7,430,1120.9,426.1,1114.9,426z"/>
			<path class="st7" d="M1183.8,426h-2.8c-6,0-10.8,4-10.7,8.9v88.2h24.3v-88.2C1194.5,430,1189.7,426.1,1183.8,426z"/>
			<path class="st7" d="M1252.7,426h-2.8c-6,0-10.8,4-10.7,8.9v88.2h24.3v-88.2C1263.4,430,1258.6,426,1252.7,426z"/>
			<path class="st7" d="M1321.5,426h-2.8c-6,0-10.8,4-10.7,8.9v88.2h24.3v-88.2C1332.3,430,1327.5,426,1321.5,426z"/>
			<path class="st7" d="M11.8,426H9c-6,0-10.8,4-10.7,8.9v88.2h24.3v-88.2C22.5,430,17.7,426,11.8,426z"/>
			<path class="st7" d="M493.9,426H491c-6,0-10.9,13.4-10.9,29.8V750h24.7V455.8C504.8,439.4,499.9,426,493.9,426z"/>
			<path class="st7" d="M908.3,426h-2.9c-6,0-10.9,13.4-10.9,29.8V750h24.7V455.8C919.2,439.4,914.3,426,908.3,426z"/>
		</g>
	</g>
	<g>
		<rect x="0" y="-1" class="st1" width="1333" height="295.6"/>
		<g>
			<path class="st2" d="M1296.6,27.9c0,0,3.8,16.6,6.9,19.7"/>
			<path class="st3" d="M1303.2,46.9c0,0-0.5-17.6,3.4-14.3C1310.5,35.9,1303.2,46.9,1303.2,46.9z"/>
			<path class="st3" d="M1302.3,45.8c0,0-12.6-14.5-12.8-8.2C1289.2,43.8,1302.3,45.8,1302.3,45.8z"/>
			<path class="st4" d="M1292,25.9c-4.9-1.5-10.7-4-10.8-6.2c-0.4-6.6,17.7,0.9,17.8,2.8S1298.4,27.8,1292,25.9z"/>
			<path class="st4" d="M1293.2,19.9c0-5.1,0.8-11.3,2.9-12.1c6.2-2.2,4.1,17.2,2.2,17.9S1293.2,26.6,1293.2,19.9z"/>
			<path class="st4" d="M1299.2,18.6c4.9-1.4,11.1-2.4,12.4-0.7c3.9,5.3-15.3,8.8-16.5,7.2C1294,23.6,1292.8,20.4,1299.2,18.6z"/>
			<path class="st4" d="M1301.8,24.1c3.8,3.4,7.9,8.1,7.1,10.2c-2.4,6.1-15.6-8.3-14.9-10.1C1294.8,22.4,1296.8,19.7,1301.8,24.1z"
				/>
			<path class="st4" d="M1297.4,28.9c-3.5,3.7-8.2,7.8-10.3,7c-6.1-2.5,8.6-15.5,10.3-14.7C1299.2,22,1301.9,24,1297.4,28.9z"/>
			<circle class="st5" cx="1296.8" cy="23.8" r="4.8"/>
		</g>
		<g>
			<path class="st2" d="M971.4,27.3c0,0,3.8,16.6,6.9,19.7"/>
			<path class="st3" d="M978.1,46.3c0,0-0.5-17.6,3.4-14.3S978.1,46.3,978.1,46.3z"/>
			<path class="st3" d="M977.1,45.2c0,0-12.6-14.5-12.8-8.2C964,43.3,977.1,45.2,977.1,45.2z"/>
			<path class="st4" d="M966.8,25.3c-4.9-1.5-10.7-4-10.8-6.2c-0.4-6.6,17.7,0.9,17.8,2.8S973.2,27.2,966.8,25.3z"/>
			<path class="st4" d="M968,19.3c0-5.1,0.8-11.3,2.9-12.1c6.2-2.2,4.1,17.2,2.2,17.9C971.4,25.8,968,26,968,19.3z"/>
			<path class="st4" d="M974,18c4.9-1.4,11.1-2.4,12.4-0.7c3.9,5.3-15.3,8.8-16.5,7.2S967.6,19.8,974,18z"/>
			<path class="st4" d="M976.6,23.5c3.8,3.4,7.9,8.1,7.1,10.2c-2.4,6.1-15.6-8.3-14.9-10.1C969.6,21.8,971.6,19.1,976.6,23.5z"/>
			<path class="st4" d="M972.2,28.4c-3.5,3.7-8.2,7.8-10.3,7c-6.1-2.5,8.6-15.5,10.3-14.7C974,21.4,976.7,23.4,972.2,28.4z"/>
			<circle class="st5" cx="971.6" cy="23.2" r="4.8"/>
		</g>
		<g>
			<path class="st2" d="M1106.3,124.5c0,0,3.8,16.6,6.9,19.7"/>
			<path class="st3" d="M1112.9,143.5c0,0-0.5-17.6,3.4-14.3C1120.2,132.5,1112.9,143.5,1112.9,143.5z"/>
			<path class="st3" d="M1111.9,142.4c0,0-12.6-14.5-12.8-8.2C1098.9,140.4,1111.9,142.4,1111.9,142.4z"/>
			<path class="st4" d="M1101.7,122.4c-4.9-1.5-10.7-4-10.8-6.2c-0.4-6.6,17.7,0.9,17.8,2.8C1108.7,121,1108,124.4,1101.7,122.4z"/>
			<path class="st4" d="M1102.9,116.5c0-5.1,0.8-11.3,2.9-12.1c6.2-2.2,4.1,17.2,2.2,17.9C1106.2,122.9,1102.8,123.2,1102.9,116.5z"
				/>
			<path class="st4" d="M1108.9,115.2c4.9-1.4,11.1-2.4,12.4-0.7c3.9,5.3-15.3,8.8-16.5,7.2C1103.7,120.2,1102.5,117,1108.9,115.2z"
				/>
			<path class="st4" d="M1111.4,120.7c3.8,3.4,7.9,8.1,7.1,10.2c-2.4,6.1-15.6-8.3-14.9-10.1C1104.4,119,1106.5,116.3,1111.4,120.7z
				"/>
			<path class="st4" d="M1107,125.5c-3.5,3.7-8.2,7.8-10.3,7c-6.1-2.5,8.6-15.5,10.3-14.7C1108.9,118.6,1111.5,120.7,1107,125.5z"/>
			<circle class="st5" cx="1106.5" cy="120.4" r="4.8"/>
		</g>
		<g>
			<path class="st2" d="M849.8,91.7c0,0,3.8,16.6,6.9,19.7"/>
			<path class="st3" d="M856.4,110.6c0,0-0.5-17.6,3.4-14.3C863.7,99.6,856.4,110.6,856.4,110.6z"/>
			<path class="st3" d="M855.4,109.5c0,0-12.6-14.5-12.8-8.2C842.4,107.6,855.4,109.5,855.4,109.5z"/>
			<path class="st4" d="M845.1,89.6c-4.9-1.5-10.7-4-10.8-6.2c-0.4-6.6,17.7,0.9,17.8,2.8C852.2,88.2,851.5,91.5,845.1,89.6z"/>
			<path class="st4" d="M846.4,83.6c0-5.1,0.8-11.3,2.9-12.1c6.2-2.2,4.1,17.2,2.2,17.9C849.7,90.1,846.3,90.3,846.4,83.6z"/>
			<path class="st4" d="M852.4,82.3c4.9-1.4,11.1-2.4,12.4-0.7c3.9,5.3-15.3,8.8-16.5,7.2C847.2,87.3,845.9,84.2,852.4,82.3z"/>
			<path class="st4" d="M854.9,87.9c3.8,3.4,7.9,8.1,7.1,10.2c-2.4,6.1-15.6-8.3-14.9-10.1C847.9,86.1,849.9,83.4,854.9,87.9z"/>
			<path class="st4" d="M850.5,92.7c-3.5,3.7-8.2,7.8-10.3,7c-6.1-2.5,8.6-15.5,10.3-14.7S855,87.8,850.5,92.7z"/>
			<circle class="st5" cx="849.9" cy="87.6" r="4.8"/>
		</g>
		<g>
			<path class="st2" d="M490.3,30.5c0,0,3.8,16.6,6.9,19.7"/>
			<path class="st3" d="M496.9,49.4c0,0-0.5-17.6,3.4-14.3S496.9,49.4,496.9,49.4z"/>
			<path class="st3" d="M495.9,48.4c0,0-12.6-14.5-12.8-8.2C482.9,46.4,495.9,48.4,495.9,48.4z"/>
			<path class="st4" d="M485.6,28.4c-4.9-1.5-10.7-4-10.8-6.2c-0.4-6.6,17.7,0.9,17.8,2.8C492.7,27,492,30.3,485.6,28.4z"/>
			<path class="st4" d="M486.8,22.5c0-5.1,0.8-11.3,2.9-12.1c6.2-2.2,4.1,17.2,2.2,17.9C490.2,28.9,486.8,29.1,486.8,22.5z"/>
			<path class="st4" d="M492.8,21.1c4.9-1.4,11.1-2.4,12.4-0.7c3.9,5.3-15.3,8.8-16.5,7.2C487.7,26.2,486.4,23,492.8,21.1z"/>
			<path class="st4" d="M495.4,26.7c3.8,3.4,7.9,8.1,7.1,10.2c-2.4,6.1-15.6-8.3-14.9-10.1C488.4,25,490.4,22.2,495.4,26.7z"/>
			<path class="st4" d="M491,31.5c-3.5,3.7-8.2,7.8-10.3,7c-6.1-2.5,8.6-15.5,10.3-14.7C492.8,24.5,495.5,26.6,491,31.5z"/>
			<circle class="st5" cx="490.4" cy="26.4" r="4.8"/>
		</g>
		<g>
			<path class="st2" d="M716.3,27.3c0,0,3.8,16.6,6.9,19.7"/>
			<path class="st3" d="M722.9,46.2c0,0-0.5-17.6,3.4-14.3S722.9,46.2,722.9,46.2z"/>
			<path class="st3" d="M721.9,45.2c0,0-12.6-14.5-12.8-8.2C708.9,43.2,721.9,45.2,721.9,45.2z"/>
			<path class="st4" d="M711.7,25.2c-4.9-1.5-10.7-4-10.8-6.2c-0.4-6.6,17.7,0.9,17.8,2.8C718.8,23.8,718.1,27.1,711.7,25.2z"/>
			<path class="st4" d="M712.9,19.3c0-5.1,0.8-11.3,2.9-12.1c6.2-2.2,4.1,17.2,2.2,17.9C716.3,25.7,712.9,25.9,712.9,19.3z"/>
			<path class="st4" d="M718.9,18c4.9-1.4,11.1-2.4,12.4-0.7c3.9,5.3-15.3,8.8-16.5,7.2S712.5,19.8,718.9,18z"/>
			<path class="st4" d="M721.5,23.5c3.8,3.4,7.9,8.1,7.1,10.2c-2.4,6.1-15.6-8.3-14.9-10.1C714.5,21.8,716.5,19.1,721.5,23.5z"/>
			<path class="st4" d="M717.1,28.3c-3.5,3.7-8.2,7.8-10.3,7c-6.1-2.5,8.6-15.5,10.3-14.7C718.9,21.3,721.6,23.4,717.1,28.3z"/>
			<circle class="st5" cx="716.5" cy="23.2" r="4.8"/>
		</g>
		<g>
			<path class="st2" d="M606.9,166.4c0,0,3.8,16.6,6.9,19.7"/>
			<path class="st3" d="M613.5,185.3c0,0-0.5-17.6,3.4-14.3S613.5,185.3,613.5,185.3z"/>
			<path class="st3" d="M612.6,184.3c0,0-12.6-14.5-12.8-8.2C599.6,182.3,612.6,184.3,612.6,184.3z"/>
			<path class="st4" d="M602.3,164.3c-4.9-1.5-10.7-4-10.8-6.2c-0.4-6.6,17.7,0.9,17.8,2.8C609.4,162.9,608.7,166.2,602.3,164.3z"/>
			<path class="st4" d="M603.5,158.4c0-5.1,0.8-11.3,2.9-12.1c6.2-2.2,4.1,17.2,2.2,17.9C606.9,164.9,603.5,165,603.5,158.4z"/>
			<path class="st4" d="M609.5,157.1c4.9-1.4,11.1-2.4,12.4-0.7c3.9,5.3-15.3,8.8-16.5,7.2S603.1,158.9,609.5,157.1z"/>
			<path class="st4" d="M612.1,162.6c3.8,3.4,7.9,8.1,7.1,10.2c-2.4,6.1-15.6-8.3-14.9-10.1S607.1,158.2,612.1,162.6z"/>
			<path class="st4" d="M607.7,167.4c-3.5,3.7-8.2,7.8-10.3,7c-6.1-2.5,8.6-15.5,10.3-14.7C609.5,160.4,612.2,162.5,607.7,167.4z"/>
			<circle class="st5" cx="607.1" cy="162.3" r="4.8"/>
		</g>
		<g>
			<path class="st2" d="M283.6,126c0,0,3.8,16.6,6.9,19.7"/>
			<path class="st3" d="M290.2,144.9c0,0-0.5-17.6,3.4-14.3S290.2,144.9,290.2,144.9z"/>
			<path class="st3" d="M289.2,143.8c0,0-12.6-14.5-12.8-8.3S289.2,143.8,289.2,143.8z"/>
			<path class="st4" d="M279,123.9c-4.9-1.5-10.7-4-10.8-6.2c-0.4-6.6,17.7,0.9,17.8,2.8C286,122.4,285.4,125.8,279,123.9z"/>
			<path class="st4" d="M280.2,117.9c0-5.1,0.8-11.3,2.9-12.1c6.2-2.2,4.1,17.2,2.2,17.9C283.5,124.4,280.1,124.6,280.2,117.9z"/>
			<path class="st4" d="M286.2,116.6c4.9-1.4,11.1-2.4,12.4-0.7c3.9,5.3-15.3,8.8-16.5,7.2C281,121.6,279.8,118.4,286.2,116.6z"/>
			<path class="st4" d="M288.7,122.1c3.8,3.4,7.9,8.1,7.1,10.2c-2.4,6.1-15.6-8.3-14.9-10.1C281.7,120.4,283.8,117.7,288.7,122.1z"
				/>
			<path class="st4" d="M284.3,126.9c-3.5,3.7-8.2,7.8-10.3,7c-6.1-2.5,8.6-15.5,10.3-14.7C286.2,120,288.9,122,284.3,126.9z"/>
			<circle class="st5" cx="283.8" cy="121.8" r="4.8"/>
		</g>
		<g>
			<path class="st2" d="M51.9,36.9c0,0-3.8,16.6-6.9,19.7"/>
			<path class="st3" d="M45.3,55.8c0,0,0.5-17.6-3.4-14.3S45.3,55.8,45.3,55.8z"/>
			<path class="st3" d="M46.3,54.7c0,0,12.6-14.5,12.8-8.2S46.3,54.7,46.3,54.7z"/>
			<path class="st4" d="M56.5,34.8c4.9-1.5,10.7-4,10.8-6.2c0.4-6.6-17.7,0.9-17.8,2.8S50.1,36.7,56.5,34.8z"/>
			<path class="st4" d="M55.3,28.8c0-5.1-0.8-11.3-2.9-12.1c-6.2-2.2-4.1,17.2-2.2,17.9C52,35.3,55.4,35.5,55.3,28.8z"/>
			<path class="st4" d="M49.3,27.5c-4.9-1.4-11.1-2.4-12.4-0.7c-3.9,5.3,15.3,8.8,16.5,7.2C54.5,32.5,55.7,29.4,49.3,27.5z"/>
			<path class="st4" d="M46.8,33.1c-3.8,3.4-7.9,8.1-7.1,10.2c2.4,6.1,15.6-8.3,14.9-10.1C53.8,31.3,51.7,28.6,46.8,33.1z"/>
			<path class="st4" d="M51.2,37.9c3.5,3.7,8.2,7.8,10.3,7c6.1-2.5-8.6-15.5-10.3-14.7C49.3,30.9,46.6,33,51.2,37.9z"/>
			<circle class="st5" cx="51.7" cy="32.8" r="4.8"/>
		</g>
		<g>
			<path class="st2" d="M379.1,21.7c0,0,3.8,16.6,6.9,19.7"/>
			<path class="st3" d="M385.7,40.6c0,0-0.5-17.6,3.4-14.3S385.7,40.6,385.7,40.6z"/>
			<path class="st3" d="M384.7,39.5c0,0-12.6-14.5-12.8-8.2C371.7,37.5,384.7,39.5,384.7,39.5z"/>
			<path class="st4" d="M374.5,19.6c-4.9-1.5-10.7-4-10.8-6.2c-0.4-6.6,17.7,0.9,17.8,2.8C381.5,18.1,380.9,21.5,374.5,19.6z"/>
			<path class="st4" d="M375.7,13.6c0-5.1,0.8-11.3,2.9-12.1c6.2-2.2,4.1,17.2,2.2,17.9C379,20.1,375.6,20.3,375.7,13.6z"/>
			<path class="st4" d="M381.7,12.3c4.9-1.4,11.1-2.4,12.4-0.7c3.9,5.3-15.3,8.8-16.5,7.2C376.5,17.3,375.3,14.1,381.7,12.3z"/>
			<path class="st4" d="M384.2,17.9c3.8,3.4,7.9,8.1,7.1,10.2c-2.4,6.1-15.6-8.4-14.9-10.1C377.2,16.1,379.3,13.4,384.2,17.9z"/>
			<path class="st4" d="M379.9,22.6c-3.5,3.7-8.2,7.8-10.3,7c-6.1-2.5,8.6-15.5,10.3-14.7C381.7,15.7,384.3,17.7,379.9,22.6z"/>
			<circle class="st5" cx="379.3" cy="17.5" r="4.8"/>
		</g>
		<g>
			<path class="st2" d="M110.1,176.5c0,0,3.8,16.6,6.9,19.7"/>
			<path class="st3" d="M116.7,195.5c0,0-0.5-17.6,3.4-14.3C124,184.5,116.7,195.5,116.7,195.5z"/>
			<path class="st3" d="M115.7,194.4c0,0-12.6-14.5-12.8-8.2C102.7,192.5,115.7,194.4,115.7,194.4z"/>
			<path class="st4" d="M105.4,174.5c-4.9-1.5-10.7-4-10.8-6.2c-0.4-6.6,17.7,0.9,17.8,2.8C112.5,173.1,111.8,176.4,105.4,174.5z"/>
			<path class="st4" d="M106.7,168.5c0-5.1,0.8-11.3,2.9-12.1c6.2-2.2,4.1,17.2,2.2,17.9S106.6,175.2,106.7,168.5z"/>
			<path class="st4" d="M112.7,167.2c4.9-1.4,11.1-2.4,12.4-0.7c3.9,5.3-15.3,8.8-16.5,7.2C107.5,172.2,106.3,169.1,112.7,167.2z"/>
			<path class="st4" d="M115.2,172.8c3.8,3.4,7.9,8.1,7.1,10.2c-2.4,6.1-15.6-8.3-14.9-10.1S110.2,168.3,115.2,172.8z"/>
			<path class="st4" d="M110.8,177.6c-3.5,3.7-8.2,7.8-10.3,7c-6.1-2.5,8.6-15.5,10.3-14.7C112.6,170.6,115.3,172.7,110.8,177.6z"/>
			<circle class="st5" cx="110.2" cy="172.5" r="4.8"/>
		</g>
		<g>
			<path class="st7" d="M906.4,278h2.8c6,0,10.8-11.6,10.8-25.8V-2.5h-24.5v254.7C895.6,266.4,900.4,278,906.4,278z"/>
			<path class="st7" d="M423.6,276.9h2.9c6,0,10.9-11.6,10.9-25.7V-3h-24.6v254.2C412.7,265.4,417.6,276.9,423.6,276.9z"/>
			<g>
				<path class="st6" d="M55.1,224.5c-19.7,0-38.4,0.2-55.1,0.6V238c16.7,0.4,35.4,0.6,55.1,0.6h1277.1v-14.1H55.1z"/>
				<path class="st6" d="M55.1,263.5c-19.7,0-38.4,0.2-55.1,0.6V277c16.7,0.4,35.4,0.6,55.1,0.6h1277.1v-14.1H55.1z"/>
				<path class="st7" d="M13.5,206.4h-2.8c-6,0-10.8,3.9-10.7,8.6v85.3h24.3V215C24.3,210.3,19.5,206.4,13.5,206.4z"/>
				<path class="st7" d="M82.3,206.4h-2.8c-6,0-10.8,3.9-10.7,8.6v85.3h24.3V215C93.1,210.3,88.3,206.4,82.3,206.4z"/>
				<path class="st7" d="M151.2,206.4h-2.8c-6,0-10.8,3.9-10.7,8.6v85.3h24.3V215C161.9,210.3,157.1,206.4,151.2,206.4z"/>
				<path class="st7" d="M220,206.4h-2.8c-6,0-10.8,3.9-10.7,8.6v85.3h24.3V215C230.8,210.3,226,206.4,220,206.4z"/>
				<path class="st7" d="M840.2,206.4h-2.8c-6,0-10.8,3.9-10.7,8.6v85.3H851V215C851,210.3,846.2,206.4,840.2,206.4z"/>
				<path class="st7" d="M909.1,206.4h-2.8c-6,0-10.8,3.9-10.7,8.6v85.3h24.3V215C919.8,210.3,915,206.4,909.1,206.4z"/>
				<path class="st7" d="M977.9,206.4h-2.8c-6,0-10.8,3.9-10.7,8.6v85.3h24.3V215C988.6,210.3,983.8,206.4,977.9,206.4z"/>
				<path class="st7" d="M1046.7,206.4h-2.8c-6,0.1-10.7,3.9-10.7,8.6v85.3h24.3V215C1057.5,210.3,1052.7,206.4,1046.7,206.4z"/>
				<path class="st7" d="M289.1,206.4h-2.8c-6,0-10.8,3.9-10.7,8.6v85.3h24.3V215C299.9,210.3,295.1,206.4,289.1,206.4z"/>
				<path class="st7" d="M357.9,206.4h-2.8c-6,0-10.8,3.9-10.7,8.6v85.3h24.2V215C368.6,210.3,363.9,206.4,357.9,206.4z"/>
				<path class="st7" d="M426.7,206.4h-2.8c-6,0-10.8,3.9-10.7,8.6v85.3h24.3V215C437.5,210.3,432.7,206.4,426.7,206.4z"/>
				<path class="st7" d="M495.6,206.4h-2.8c-6,0-10.8,3.9-10.7,8.6v85.3h24.3V215C506.3,210.3,501.5,206.4,495.6,206.4z"/>
				<path class="st7" d="M564.7,206.4h-2.8c-6,0-10.8,3.9-10.7,8.6v85.3h24.3V215C575.4,210.3,570.6,206.4,564.7,206.4z"/>
				<path class="st7" d="M633.5,206.4h-2.8c-6,0-10.8,3.9-10.7,8.6v85.3h24.3V215C644.2,210.3,639.4,206.4,633.5,206.4z"/>
				<path class="st7" d="M702.3,206.4h-2.8c-6,0-10.8,3.9-10.7,8.6v85.3H713V215C713.1,210.3,708.3,206.4,702.3,206.4z"/>
				<path class="st7" d="M771.1,206.4h-2.8c-6,0-10.8,3.9-10.7,8.6v85.3h24.3V215C781.9,210.3,777.1,206.4,771.1,206.4z"/>
				<path class="st7" d="M1115.8,206.4h-2.8c-6,0-10.8,3.9-10.7,8.6v85.3h24.3V215C1126.6,210.3,1121.8,206.4,1115.8,206.4z"/>
				<path class="st7" d="M1184.6,206.4h-2.8c-6,0-10.8,3.9-10.7,8.6v85.3h24.3V215C1195.4,210.3,1190.6,206.4,1184.6,206.4z"/>
				<path class="st7" d="M1253.4,206.4h-2.8c-6,0-10.8,3.9-10.7,8.6v85.3h24.3V215C1264.2,210.3,1259.4,206.4,1253.4,206.4z"/>
				<path class="st7" d="M1322.3,206.4h-2.8c-6,0-10.8,3.9-10.7,8.6v85.3h24.3V215C1333,210.3,1328.2,206.4,1322.3,206.4z"/>
			</g>
		</g>
	</g>
</g>
</svg>
