<?xml version="1.0" encoding="utf-8"?>
<!-- Generator: Adobe Illustrator 22.1.0, SVG Export Plug-In . SVG Version: 6.00 Build 0)  -->
<svg version="1.1" id="Layer_1" xmlns="http://www.w3.org/2000/svg" xmlns:xlink="http://www.w3.org/1999/xlink" x="0px" y="0px"
	 viewBox="0 0 1366 768" style="enable-background:new 0 0 1366 768;" xml:space="preserve">
<style type="text/css">
	.st0{fill:#F2DF91;}
	.st1{fill:#B4F79F;}
	.st2{fill:none;stroke:#00B90D;stroke-linecap:round;stroke-linejoin:round;}
	.st3{fill:#57AF2E;stroke:#00B90D;stroke-linejoin:round;}
	.st4{fill:#FFFFFF;}
	.st5{fill:#F4E49F;}
	.st6{fill:#684A16;}
	.st7{fill:#9B7A37;}
</style>
<g id="Layer_1-2">
	<rect y="298.3" class="st0" width="1366" height="171.4"/>
	<g>
		<rect y="458.8" class="st1" width="1365" height="309.2"/>
		<g>
			<path class="st2" d="M328.9,562.9c0,0,3.9,17.1,7.1,20.3"/>
			<path class="st3" d="M335.7,582.4c0,0-0.6-18.1,3.5-14.7C343.3,571.1,335.7,582.4,335.7,582.4z"/>
			<path class="st3" d="M334.7,581.3c0,0-13-15-13.2-8.5C321.3,579.3,334.7,581.3,334.7,581.3z"/>
			<path class="st4" d="M324.1,560.7c-5-1.5-11-4.1-11.1-6.4c-0.4-6.8,18.2,0.9,18.3,2.9C331.4,559.3,330.7,562.7,324.1,560.7z"/>
			<path class="st4" d="M325.4,554.6c0-5.2,0.9-11.7,3-12.5c6.4-2.3,4.2,17.8,2.3,18.4C328.8,561.3,325.4,561.5,325.4,554.6z"/>
			<path class="st4" d="M331.6,553.3c5-1.5,11.5-2.5,12.8-0.7c4.1,5.5-15.8,9.1-17,7.5S325,555.2,331.6,553.3z"/>
			<path class="st4" d="M334.2,559c3.9,3.5,8.2,8.4,7.4,10.5c-2.5,6.3-16.1-8.6-15.3-10.4C327,557.2,329.1,554.4,334.2,559z"/>
			<path class="st4" d="M329.7,563.9c-3.6,3.9-8.5,8.1-10.6,7.2c-6.3-2.6,8.8-16,10.7-15.2S334.4,558.9,329.7,563.9z"/>
			<circle class="st5" cx="329.1" cy="558.7" r="4.9"/>
		</g>
		<g>
			<path class="st2" d="M245,764.4c0,0,3.9,17.1,7.1,20.3"/>
			<path class="st3" d="M251.8,783.9c0,0-0.6-18.1,3.5-14.7C259.3,772.6,251.8,783.9,251.8,783.9z"/>
			<path class="st3" d="M250.8,782.8c0,0-13-15-13.2-8.5S250.8,782.8,250.8,782.8z"/>
			<path class="st4" d="M240.2,762.2c-5-1.5-11-4.1-11.1-6.4c-0.4-6.8,18.2,0.9,18.3,2.9C247.5,760.8,246.8,764.2,240.2,762.2z"/>
			<path class="st4" d="M241.5,756.1c0-5.2,0.9-11.7,3-12.5c6.4-2.3,4.2,17.8,2.3,18.4S241.4,763,241.5,756.1z"/>
			<path class="st4" d="M247.6,754.8c5-1.5,11.5-2.5,12.8-0.7c4.1,5.5-15.8,9.1-17,7.5S241,756.7,247.6,754.8z"/>
			<path class="st4" d="M250.3,760.5c3.9,3.5,8.2,8.4,7.4,10.5c-2.5,6.3-16.1-8.6-15.3-10.4C243.1,758.7,245.2,755.9,250.3,760.5z"
				/>
			<path class="st4" d="M245.7,765.4c-3.6,3.9-8.5,8.1-10.6,7.2c-6.3-2.6,8.8-16,10.7-15.2C247.6,758.2,250.4,760.4,245.7,765.4z"/>
			<circle class="st5" cx="245.2" cy="760.2" r="4.9"/>
		</g>
		<g>
			<path class="st2" d="M61.9,677.5c0,0-3.9,17.1-7.1,20.3"/>
			<path class="st3" d="M55.1,697c0,0,0.6-18.1-3.5-14.7C47.6,685.7,55.1,697,55.1,697z"/>
			<path class="st3" d="M56.1,695.9c0,0,13-15,13.2-8.5C69.5,693.9,56.1,695.9,56.1,695.9z"/>
			<path class="st4" d="M66.7,675.4c5-1.5,11-4.1,11.1-6.4c0.4-6.8-18.2,0.9-18.3,2.9C59.4,673.9,60.1,677.3,66.7,675.4z"/>
			<path class="st4" d="M65.4,669.2c0-5.2-0.9-11.7-3-12.5c-6.4-2.3-4.2,17.8-2.3,18.4C62,675.9,65.5,676.1,65.4,669.2z"/>
			<path class="st4" d="M59.2,667.9c-5-1.5-11.5-2.5-12.8-0.7c-4.1,5.5,15.8,9.1,17,7.5S65.8,669.8,59.2,667.9z"/>
			<path class="st4" d="M56.6,673.6c-3.9,3.5-8.2,8.4-7.4,10.5c2.5,6.3,16.1-8.6,15.3-10.4C63.8,671.8,61.7,669,56.6,673.6z"/>
			<path class="st4" d="M61.1,678.6c3.6,3.9,8.5,8.1,10.6,7.2c6.3-2.6-8.8-16-10.7-15.2S56.5,673.5,61.1,678.6z"/>
			<circle class="st5" cx="61.7" cy="673.3" r="4.9"/>
		</g>
		<g>
			<path class="st2" d="M111.3,512.1c0,0,3.9,17.1,7.1,20.3"/>
			<path class="st3" d="M118.1,531.7c0,0-0.6-18.1,3.5-14.7C125.7,520.3,118.1,531.7,118.1,531.7z"/>
			<path class="st3" d="M117.1,530.6c0,0-13-14.9-13.2-8.5C103.7,528.5,117.1,530.6,117.1,530.6z"/>
			<path class="st4" d="M106.6,510c-5-1.5-11-4.1-11.1-6.4c-0.4-6.8,18.2,0.9,18.3,2.9C113.8,508.5,113.1,511.9,106.6,510z"/>
			<path class="st4" d="M107.8,503.8c0-5.2,0.9-11.7,3-12.5c6.4-2.3,4.2,17.8,2.3,18.4C111.2,510.5,107.8,510.7,107.8,503.8z"/>
			<path class="st4" d="M114,502.5c5-1.5,11.5-2.5,12.8-0.7c4.1,5.5-15.8,9.1-17,7.5C108.7,507.7,107.4,504.4,114,502.5z"/>
			<path class="st4" d="M116.6,508.2c3.9,3.5,8.2,8.4,7.4,10.5c-2.5,6.3-16.1-8.6-15.3-10.4C109.4,506.4,111.5,503.6,116.6,508.2z"
				/>
			<path class="st4" d="M112.1,513.2c-3.6,3.9-8.5,8.1-10.6,7.2c-6.3-2.6,8.8-16,10.7-15.2C114,506,116.8,508.1,112.1,513.2z"/>
			<circle class="st5" cx="111.5" cy="507.9" r="4.9"/>
		</g>
		<g>
			<path class="st2" d="M546.5,586.7c0,0,3.9,17.1,7.1,20.3"/>
			<path class="st3" d="M553.3,606.2c0,0-0.6-18.1,3.5-14.7C560.8,594.8,553.3,606.2,553.3,606.2z"/>
			<path class="st3" d="M552.3,605.1c0,0-13-15-13.2-8.5C538.9,603.1,552.3,605.1,552.3,605.1z"/>
			<path class="st4" d="M541.7,584.5c-5-1.5-11-4.1-11.1-6.4c-0.4-6.8,18.2,0.9,18.3,2.9C549,583,548.3,586.5,541.7,584.5z"/>
			<path class="st4" d="M543,578.3c0-5.2,0.9-11.7,3-12.5c6.4-2.3,4.2,17.8,2.3,18.4S542.9,585.2,543,578.3z"/>
			<path class="st4" d="M549.2,577c5-1.5,11.5-2.5,12.8-0.7c4.1,5.5-15.8,9.1-17,7.5C543.8,582.2,542.6,578.9,549.2,577z"/>
			<path class="st4" d="M551.8,582.7c3.9,3.5,8.2,8.4,7.4,10.5c-2.5,6.3-16.1-8.6-15.3-10.4S546.7,578.1,551.8,582.7z"/>
			<path class="st4" d="M547.3,587.7c-3.6,3.9-8.5,8.1-10.6,7.2c-6.3-2.6,8.8-16,10.7-15.2C549.2,580.5,551.9,582.6,547.3,587.7z"/>
			<circle class="st5" cx="546.7" cy="582.4" r="4.9"/>
		</g>
		<g>
			<path class="st2" d="M865.2,753.2c0,0,3.9,17.1,7.1,20.3"/>
			<path class="st3" d="M872.1,772.7c0,0-0.6-18.1,3.5-14.7C879.6,761.4,872.1,772.7,872.1,772.7z"/>
			<path class="st3" d="M871.1,771.6c0,0-13-15-13.2-8.5C857.7,769.6,871.1,771.6,871.1,771.6z"/>
			<path class="st4" d="M860.5,751.1c-5-1.5-11-4.1-11.1-6.4c-0.4-6.8,18.2,0.9,18.3,2.9C867.8,749.6,867.1,753,860.5,751.1z"/>
			<path class="st4" d="M861.7,744.9c0-5.2,0.9-11.7,3-12.5c6.4-2.3,4.2,17.8,2.3,18.4S861.7,751.8,861.7,744.9z"/>
			<path class="st4" d="M867.9,743.6c5-1.5,11.5-2.5,12.8-0.7c4.1,5.5-15.8,9.1-17,7.5S861.3,745.5,867.9,743.6z"/>
			<path class="st4" d="M870.6,749.3c3.9,3.5,8.2,8.4,7.4,10.5c-2.5,6.3-16.1-8.6-15.3-10.4C863.3,747.5,865.4,744.7,870.6,749.3z"
				/>
			<path class="st4" d="M866,754.2c-3.6,3.9-8.5,8.1-10.6,7.2c-6.3-2.6,8.8-16,10.7-15.2C867.9,747,870.7,749.2,866,754.2z"/>
			<circle class="st5" cx="865.4" cy="749" r="4.9"/>
		</g>
		<g>
			<path class="st2" d="M673,775.8c0,0-3.9,17.1-7.1,20.3"/>
			<path class="st3" d="M666.2,795.4c0,0,0.6-18.1-3.5-14.7C658.7,784,666.2,795.4,666.2,795.4z"/>
			<path class="st3" d="M667.2,794.3c0,0,13-15,13.2-8.5S667.2,794.3,667.2,794.3z"/>
			<path class="st4" d="M677.8,773.7c5-1.5,11-4.1,11.1-6.4c0.4-6.8-18.2,0.9-18.3,2.9C670.5,772.2,671.2,775.7,677.8,773.7z"/>
			<path class="st4" d="M676.5,767.6c0-5.2-0.9-11.7-3-12.5c-6.4-2.3-4.2,17.8-2.3,18.4S676.6,774.4,676.5,767.6z"/>
			<path class="st4" d="M670.3,766.2c-5-1.5-11.5-2.5-12.8-0.7c-4.1,5.5,15.8,9.1,17,7.5C675.7,771.4,676.9,768.1,670.3,766.2z"/>
			<path class="st4" d="M667.7,771.9c-3.9,3.5-8.2,8.4-7.4,10.5c2.5,6.3,16.1-8.6,15.3-10.4C674.9,770.1,672.8,767.3,667.7,771.9z"
				/>
			<path class="st4" d="M672.2,776.9c3.6,3.9,8.5,8.1,10.6,7.2c6.3-2.6-8.8-16-10.7-15.2C670.3,769.7,667.5,771.8,672.2,776.9z"/>
			<circle class="st5" cx="672.8" cy="771.6" r="4.9"/>
		</g>
		<g>
			<path class="st2" d="M833.3,542.3c0,0,3.9,17.1,7.1,20.3"/>
			<path class="st3" d="M840.1,561.8c0,0-0.6-18.1,3.5-14.7C847.7,550.4,840.1,561.8,840.1,561.8z"/>
			<path class="st3" d="M839.1,560.7c0,0-13-15-13.2-8.5C825.7,558.7,839.1,560.7,839.1,560.7z"/>
			<path class="st4" d="M828.5,540.1c-5-1.5-11-4.1-11.1-6.4c-0.4-6.8,18.2,0.9,18.3,2.9C835.8,538.7,835.1,542.1,828.5,540.1z"/>
			<path class="st4" d="M829.8,534c0-5.2,0.9-11.7,3-12.5c6.4-2.3,4.2,17.8,2.3,18.4C833.2,540.6,829.7,540.9,829.8,534z"/>
			<path class="st4" d="M836,532.6c5-1.5,11.5-2.5,12.8-0.7c4.1,5.5-15.8,9.1-17,7.5C830.6,537.8,829.4,534.5,836,532.6z"/>
			<path class="st4" d="M838.6,538.3c3.9,3.5,8.2,8.4,7.4,10.5c-2.5,6.3-16.1-8.6-15.3-10.4S833.5,533.8,838.6,538.3z"/>
			<path class="st4" d="M834.1,543.3c-3.6,3.9-8.5,8.1-10.6,7.2c-6.3-2.6,8.8-16,10.7-15.2C836,536.1,838.8,538.2,834.1,543.3z"/>
			<circle class="st5" cx="833.5" cy="538" r="4.9"/>
		</g>
		<g>
			<path class="st2" d="M1362,697c0,0,3.9,17.1,7.1,20.3"/>
			<path class="st3" d="M1368.8,716.5c0,0-0.6-18.1,3.5-14.7C1376.3,705.2,1368.8,716.5,1368.8,716.5z"/>
			<path class="st3" d="M1367.8,715.4c0,0-13-15-13.2-8.5S1367.8,715.4,1367.8,715.4z"/>
			<path class="st4" d="M1357.2,694.8c-5-1.5-11-4.1-11.1-6.4c-0.4-6.8,18.2,0.9,18.3,2.9C1364.5,693.4,1363.8,696.8,1357.2,694.8z"
				/>
			<path class="st4" d="M1358.5,688.7c0-5.2,0.9-11.7,3-12.5c6.4-2.3,4.2,17.8,2.3,18.4C1361.9,695.3,1358.4,695.6,1358.5,688.7z"/>
			<path class="st4" d="M1364.7,687.3c5-1.5,11.5-2.5,12.8-0.7c4.1,5.5-15.8,9.1-17,7.5C1359.3,692.5,1358,689.2,1364.7,687.3z"/>
			<path class="st4" d="M1367.3,693.1c3.9,3.5,8.2,8.4,7.4,10.5c-2.5,6.3-16.1-8.6-15.3-10.4S1362.1,688.5,1367.3,693.1z"/>
			<path class="st4" d="M1362.8,698c-3.6,3.9-8.5,8.1-10.6,7.2c-6.3-2.6,8.8-16,10.7-15.2S1367.4,692.9,1362.8,698z"/>
			<circle class="st5" cx="1362.2" cy="692.7" r="4.9"/>
		</g>
		<g>
			<path class="st2" d="M1010.1,589.3c0,0,3.9,17.1,7.1,20.3"/>
			<path class="st3" d="M1016.9,608.8c0,0-0.6-18.1,3.5-14.7C1024.4,597.5,1016.9,608.8,1016.9,608.8z"/>
			<path class="st3" d="M1015.9,607.7c0,0-13-15-13.2-8.5C1002.5,605.7,1015.9,607.7,1015.9,607.7z"/>
			<path class="st4" d="M1005.3,587.1c-5-1.5-11-4.1-11.1-6.4c-0.4-6.8,18.2,0.9,18.3,2.9C1012.6,585.7,1011.9,589.1,1005.3,587.1z"
				/>
			<path class="st4" d="M1006.6,581c0-5.2,0.9-11.7,3-12.5c6.4-2.3,4.2,17.8,2.3,18.4S1006.5,587.9,1006.6,581z"/>
			<path class="st4" d="M1012.8,579.6c5-1.5,11.5-2.5,12.8-0.7c4.1,5.5-15.8,9.1-17,7.5S1006.2,581.5,1012.8,579.6z"/>
			<path class="st4" d="M1015.4,585.4c3.9,3.5,8.2,8.4,7.4,10.5c-2.5,6.3-16.1-8.6-15.3-10.4S1010.3,580.8,1015.4,585.4z"/>
			<path class="st4" d="M1010.9,590.3c-3.6,3.9-8.5,8.1-10.6,7.2c-6.3-2.6,8.8-16,10.7-15.2C1012.8,583.1,1015.5,585.3,1010.9,590.3
				z"/>
			<circle class="st5" cx="1010.3" cy="585" r="4.9"/>
		</g>
		<g>
			<path class="st2" d="M1147,753.5c0,0,3.9,17.1,7.1,20.3"/>
			<path class="st3" d="M1153.8,773c0,0-0.6-18.1,3.5-14.7C1161.4,761.7,1153.8,773,1153.8,773z"/>
			<path class="st3" d="M1152.8,771.9c0,0-13-15-13.2-8.5S1152.8,771.9,1152.8,771.9z"/>
			<path class="st4" d="M1142.2,751.4c-5-1.5-11-4.1-11.1-6.4c-0.4-6.8,18.2,0.9,18.3,2.9C1149.5,749.9,1148.8,753.3,1142.2,751.4z"
				/>
			<path class="st4" d="M1143.5,745.2c0-5.2,0.9-11.7,3-12.5c6.4-2.3,4.2,17.8,2.3,18.4C1146.9,751.9,1143.4,752.1,1143.5,745.2z"/>
			<path class="st4" d="M1149.7,743.9c5-1.5,11.5-2.5,12.8-0.7c4.1,5.5-15.8,9.1-17,7.5C1144.3,749,1143.1,745.8,1149.7,743.9z"/>
			<path class="st4" d="M1152.3,749.6c3.9,3.5,8.2,8.4,7.4,10.5c-2.5,6.3-16.1-8.6-15.3-10.4C1145.1,747.8,1147.2,745,1152.3,749.6z
				"/>
			<path class="st4" d="M1147.8,754.5c-3.6,3.9-8.5,8.1-10.6,7.2c-6.3-2.6,8.8-16,10.7-15.2C1149.7,747.3,1152.5,749.5,1147.8,754.5
				z"/>
			<circle class="st5" cx="1147.2" cy="749.3" r="4.9"/>
		</g>
		<g>
			<path class="st2" d="M1271.4,540.1c0,0,3.9,17.1,7.1,20.3"/>
			<path class="st3" d="M1278.2,559.6c0,0-0.6-18.1,3.5-14.7C1285.7,548.3,1278.2,559.6,1278.2,559.6z"/>
			<path class="st3" d="M1277.2,558.5c0,0-13-15-13.2-8.5S1277.2,558.5,1277.2,558.5z"/>
			<path class="st4" d="M1266.6,537.9c-5-1.5-11-4.1-11.1-6.4c-0.4-6.8,18.2,0.9,18.3,2.9C1273.9,536.5,1273.2,539.9,1266.6,537.9z"
				/>
			<path class="st4" d="M1267.9,531.8c0-5.2,0.9-11.7,3-12.5c6.4-2.3,4.2,17.8,2.3,18.4C1271.3,538.5,1267.8,538.7,1267.9,531.8z"/>
			<path class="st4" d="M1274,530.5c5-1.5,11.5-2.5,12.8-0.7c4.1,5.5-15.8,9.1-17,7.5S1267.4,532.4,1274,530.5z"/>
			<path class="st4" d="M1276.7,536.2c3.9,3.5,8.2,8.4,7.4,10.5c-2.5,6.3-16.1-8.6-15.3-10.4S1271.6,531.6,1276.7,536.2z"/>
			<path class="st4" d="M1272.1,541.1c-3.6,3.9-8.5,8.1-10.6,7.2c-6.3-2.6,8.8-16,10.7-15.2C1274,533.9,1276.8,536.1,1272.1,541.1z"
				/>
			<circle class="st5" cx="1271.6" cy="535.9" r="4.9"/>
		</g>
		<g>
			<path class="st2" d="M430.1,698.1c0,0,3.9,17.1,7.1,20.3"/>
			<path class="st3" d="M436.9,717.7c0,0-0.6-18.1,3.5-14.7C444.4,706.3,436.9,717.7,436.9,717.7z"/>
			<path class="st3" d="M435.9,716.6c0,0-13-15-13.2-8.5S435.9,716.6,435.9,716.6z"/>
			<path class="st4" d="M425.3,696c-5-1.5-11-4.1-11.1-6.4c-0.4-6.8,18.2,0.9,18.3,2.9C432.6,694.5,431.9,698,425.3,696z"/>
			<path class="st4" d="M426.6,689.9c0-5.2,0.9-11.7,3-12.5c6.4-2.3,4.2,17.8,2.3,18.4S426.5,696.7,426.6,689.9z"/>
			<path class="st4" d="M432.7,688.5c5-1.5,11.5-2.5,12.8-0.7c4.1,5.5-15.8,9.1-17,7.5C427.4,693.7,426.1,690.4,432.7,688.5z"/>
			<path class="st4" d="M435.4,694.2c3.9,3.5,8.2,8.4,7.4,10.5c-2.5,6.3-16.1-8.6-15.3-10.4C428.2,692.4,430.3,689.6,435.4,694.2z"
				/>
			<path class="st4" d="M430.9,699.2c-3.6,3.9-8.5,8.1-10.6,7.2c-6.3-2.6,8.8-16,10.7-15.2S435.5,694.1,430.9,699.2z"/>
			<circle class="st5" cx="430.3" cy="693.9" r="4.9"/>
		</g>
		<g>
			<path class="st6" d="M43.9,456.6c-20.3,0-39.6,0.2-56.9,0.6V471c17.3,0.4,36.5,0.6,56.9,0.6h1318.2v-15.1H43.9z"/>
			<path class="st6" d="M43.9,498.2c-20.3,0-39.6,0.2-56.9,0.6v13.8c17.3,0.4,36.5,0.6,56.9,0.6h1318.2v-15.1L43.9,498.2z"/>
			<path class="st7" d="M72,437.3h-2.9c-6.2,0-11.1,4.2-11.1,9.2v91h25v-91C83.1,441.5,78.1,437.3,72,437.3z"/>
			<path class="st7" d="M143,437.3h-2.9c-6.2,0.1-11.1,4.2-11.1,9.2v91h25v-91C154.1,441.4,149.2,437.3,143,437.3z"/>
			<path class="st7" d="M214.1,437.3h-2.9c-6.2,0.1-11.1,4.2-11.1,9.2v91h25v-91C225.2,441.4,220.2,437.3,214.1,437.3z"/>
			<path class="st7" d="M854.3,437.3h-2.9c-6.2,0.1-11.1,4.2-11.1,9.2v91h25v-91C865.4,441.4,860.4,437.3,854.3,437.3z"/>
			<path class="st7" d="M925.3,437.3h-2.9c-6.2,0.1-11.1,4.2-11.1,9.2v91h25v-91C936.4,441.4,931.5,437.3,925.3,437.3z"/>
			<path class="st7" d="M996.3,437.3h-2.9c-6.2,0.1-11.1,4.2-11.1,9.2v91h25v-91C1007.4,441.4,1002.5,437.3,996.3,437.3z"/>
			<path class="st7" d="M1067.4,437.3h-2.9c-6.1,0.1-11.1,4.2-11,9.2v91h25v-91C1078.5,441.4,1073.5,437.3,1067.4,437.3z"/>
			<path class="st7" d="M285.4,437.3h-2.9c-6.2,0.1-11.1,4.2-11.1,9.2v91h25v-91C296.5,441.5,291.6,437.3,285.4,437.3z"/>
			<path class="st7" d="M356.4,437.3h-2.9c-6.2,0.1-11.1,4.2-11.1,9.2v91h25v-91C367.5,441.5,362.6,437.3,356.4,437.3z"/>
			<path class="st7" d="M427.5,437.3h-2.9c-6.2,0.1-11.1,4.2-11.1,9.2v91h25v-91C438.6,441.4,433.6,437.3,427.5,437.3z"/>
			<path class="st7" d="M498.5,437.3h-2.9c-6.2,0.1-11.1,4.2-11.1,9.2v91h25v-91C509.6,441.4,504.6,437.3,498.5,437.3z"/>
			<path class="st7" d="M569.8,437.3h-2.9c-6.2,0.1-11.1,4.2-11.1,9.2v91h25v-91C580.9,441.4,576,437.3,569.8,437.3z"/>
			<path class="st7" d="M640.9,437.3H638c-6.2,0.1-11.1,4.2-11.1,9.2v91h25v-91C652,441.4,647,437.3,640.9,437.3z"/>
			<path class="st7" d="M711.9,437.3H709c-6.2,0.1-11.1,4.2-11.1,9.2v91h25v-91C723,441.4,718,437.3,711.9,437.3z"/>
			<path class="st7" d="M782.9,437.3H780c-6.2,0.1-11.1,4.2-11.1,9.2v91h25v-91C794,441.4,789.1,437.3,782.9,437.3z"/>
			<path class="st7" d="M1138.7,437.3h-2.9c-6.2,0.1-11.1,4.2-11.1,9.2v91h25v-91C1149.8,441.5,1144.9,437.3,1138.7,437.3z"/>
			<path class="st7" d="M1209.7,437.3h-2.9c-6.2,0.1-11.1,4.2-11.1,9.2v91h25v-91C1220.8,441.5,1215.9,437.3,1209.7,437.3z"/>
			<path class="st7" d="M1280.8,437.3h-2.9c-6.2,0.1-11.1,4.2-11.1,9.2v91h25v-91C1291.9,441.4,1286.9,437.3,1280.8,437.3z"/>
			<path class="st7" d="M1351.8,437.3h-2.9c-6.2,0.1-11.1,4.2-11.1,9.2v91h25.1v-91C1362.9,441.4,1358,437.3,1351.8,437.3z"/>
			<path class="st7" d="M1,437.3h-2.9c-6.2,0.1-11.1,4.2-11.1,9.2v91h25v-91C12.1,441.4,7.1,437.3,1,437.3z"/>
			<path class="st7" d="M498.2,437.3h-2.9c-6.2,0-11.3,13.8-11.3,30.7v303.5h25.5V468C509.5,451.1,504.4,437.3,498.2,437.3z"/>
			<path class="st7" d="M925.6,437.3h-2.9c-6.2,0-11.3,13.8-11.3,30.7v303.5h25.5V468C936.9,451.1,931.8,437.3,925.6,437.3z"/>
		</g>
	</g>
	<g>
		<rect x="0" y="0" class="st1" width="1366" height="301.7"/>
		<g>
			<path class="st2" d="M1326.1,26.7c0,0,3.9,17.1,7.1,20.3"/>
			<path class="st3" d="M1332.9,46.3c0,0-0.6-18.1,3.5-14.7C1340.5,34.9,1332.9,46.3,1332.9,46.3z"/>
			<path class="st3" d="M1331.9,45.2c0,0-13-15-13.2-8.5S1331.9,45.2,1331.9,45.2z"/>
			<path class="st4" d="M1321.3,24.6c-5-1.5-11-4.1-11.1-6.4c-0.4-6.8,18.2,0.9,18.3,2.9C1328.6,23.1,1327.9,26.6,1321.3,24.6z"/>
			<path class="st4" d="M1322.6,18.5c0-5.2,0.9-11.7,3-12.5c6.4-2.3,4.2,17.8,2.3,18.4C1326,25.1,1322.6,25.3,1322.6,18.5z"/>
			<path class="st4" d="M1328.8,17.1c5-1.5,11.5-2.5,12.8-0.7c4.1,5.5-15.8,9.1-17,7.5C1323.5,22.3,1322.2,19,1328.8,17.1z"/>
			<path class="st4" d="M1331.4,22.8c3.9,3.5,8.2,8.4,7.4,10.5c-2.5,6.3-16.1-8.6-15.3-10.4S1326.3,18.2,1331.4,22.8z"/>
			<path class="st4" d="M1326.9,27.8c-3.6,3.9-8.5,8.1-10.6,7.2c-6.3-2.6,8.8-16,10.7-15.2C1328.8,20.6,1331.6,22.7,1326.9,27.8z"/>
			<circle class="st5" cx="1326.3" cy="22.5" r="4.9"/>
		</g>
		<g>
			<path class="st2" d="M990.7,26.1c0,0,3.9,17.1,7.1,20.3"/>
			<path class="st3" d="M997.6,45.7c0,0-0.6-18.1,3.5-14.7S997.6,45.7,997.6,45.7z"/>
			<path class="st3" d="M996.5,44.6c0,0-13-15-13.2-8.5C983.1,42.6,996.5,44.6,996.5,44.6z"/>
			<path class="st4" d="M986,24c-5-1.5-11-4.1-11.1-6.4c-0.4-6.8,18.2,0.9,18.3,2.9C993.3,22.5,992.6,26,986,24z"/>
			<path class="st4" d="M987.2,17.8c0-5.2,0.9-11.7,3-12.5c6.4-2.3,4.2,17.8,2.3,18.4C990.7,24.5,987.2,24.7,987.2,17.8z"/>
			<path class="st4" d="M993.4,16.5c5-1.5,11.5-2.5,12.8-0.7c4.1,5.5-15.8,9.1-17,7.5S986.8,18.4,993.4,16.5z"/>
			<path class="st4" d="M996,22.2c3.9,3.5,8.2,8.4,7.4,10.5c-2.5,6.3-16.1-8.6-15.3-10.4S990.9,17.7,996,22.2z"/>
			<path class="st4" d="M991.5,27.2c-3.6,3.9-8.5,8.1-10.6,7.2c-6.3-2.6,8.8-16,10.7-15.2S996.2,22.1,991.5,27.2z"/>
			<circle class="st5" cx="990.9" cy="21.9" r="4.9"/>
		</g>
		<g>
			<path class="st2" d="M1129.8,126.4c0,0,3.9,17.1,7.1,20.3"/>
			<path class="st3" d="M1136.6,145.9c0,0-0.6-18.1,3.5-14.7C1144.1,134.5,1136.6,145.9,1136.6,145.9z"/>
			<path class="st3" d="M1135.6,144.8c0,0-13-15-13.2-8.5S1135.6,144.8,1135.6,144.8z"/>
			<path class="st4" d="M1125,124.2c-5-1.5-11-4.1-11.1-6.4c-0.4-6.8,18.2,0.9,18.3,2.9S1131.6,126.2,1125,124.2z"/>
			<path class="st4" d="M1126.3,118.1c0-5.2,0.9-11.7,3-12.5c6.4-2.3,4.2,17.8,2.3,18.4C1129.7,124.7,1126.2,125,1126.3,118.1z"/>
			<path class="st4" d="M1132.5,116.7c5-1.5,11.5-2.5,12.8-0.7c4.1,5.5-15.8,9.1-17,7.5S1125.9,118.6,1132.5,116.7z"/>
			<path class="st4" d="M1135.1,122.5c3.9,3.5,8.2,8.4,7.4,10.5c-2.5,6.3-16.1-8.6-15.3-10.4S1130,117.9,1135.1,122.5z"/>
			<path class="st4" d="M1130.6,127.4c-3.6,3.9-8.5,8.1-10.6,7.2c-6.3-2.6,8.8-16,10.7-15.2C1132.5,120.2,1135.2,122.4,1130.6,127.4
				z"/>
			<circle class="st5" cx="1130" cy="122.1" r="4.9"/>
		</g>
		<g>
			<path class="st2" d="M865.2,92.5c0,0,3.9,17.1,7.1,20.3"/>
			<path class="st3" d="M872.1,112c0,0-0.6-18.1,3.5-14.7C879.6,100.7,872.1,112,872.1,112z"/>
			<path class="st3" d="M871,110.9c0,0-13-15-13.2-8.5C857.6,108.9,871,110.9,871,110.9z"/>
			<path class="st4" d="M860.5,90.3c-5-1.5-11-4.1-11.1-6.4c-0.4-6.8,18.2,0.9,18.3,2.9C867.8,88.9,867.1,92.3,860.5,90.3z"/>
			<path class="st4" d="M861.7,84.2c0-5.2,0.9-11.7,3-12.5c6.4-2.3,4.2,17.8,2.3,18.4S861.7,91.1,861.7,84.2z"/>
			<path class="st4" d="M867.9,82.8c5-1.5,11.5-2.5,12.8-0.7c4.1,5.5-15.8,9.1-17,7.5C862.6,88,861.3,84.7,867.9,82.8z"/>
			<path class="st4" d="M870.5,88.6c3.9,3.5,8.2,8.4,7.4,10.5c-2.5,6.3-16.1-8.6-15.3-10.4C863.3,86.8,865.4,84,870.5,88.6z"/>
			<path class="st4" d="M866,93.5c-3.6,3.9-8.5,8.1-10.6,7.2c-6.3-2.6,8.8-16,10.7-15.2C867.9,86.3,870.7,88.5,866,93.5z"/>
			<circle class="st5" cx="865.4" cy="88.3" r="4.9"/>
		</g>
		<g>
			<path class="st2" d="M494.5,29.4c0,0,3.9,17.1,7.1,20.3"/>
			<path class="st3" d="M501.3,48.9c0,0-0.6-18.1,3.5-14.7C508.8,37.6,501.3,48.9,501.3,48.9z"/>
			<path class="st3" d="M500.3,47.8c0,0-13-15-13.2-8.5S500.3,47.8,500.3,47.8z"/>
			<path class="st4" d="M489.7,27.2c-5-1.5-11-4.1-11.1-6.4c-0.4-6.8,18.2,0.9,18.3,2.9C497,25.8,496.3,29.2,489.7,27.2z"/>
			<path class="st4" d="M490.9,21.1c0-5.2,0.9-11.7,3-12.5c6.4-2.3,4.2,17.8,2.3,18.4C494.4,27.7,490.9,28,490.9,21.1z"/>
			<path class="st4" d="M497.1,19.7c5-1.5,11.5-2.5,12.8-0.7c4.1,5.5-15.8,9.1-17,7.5C491.8,24.9,490.5,21.6,497.1,19.7z"/>
			<path class="st4" d="M499.8,25.5c3.9,3.5,8.2,8.4,7.4,10.5c-2.5,6.3-16.1-8.6-15.3-10.4C492.5,23.7,494.6,20.9,499.8,25.5z"/>
			<path class="st4" d="M495.2,30.4c-3.6,3.9-8.5,8.1-10.6,7.2c-6.3-2.6,8.8-16,10.7-15.2S499.9,25.4,495.2,30.4z"/>
			<circle class="st5" cx="494.6" cy="25.1" r="4.9"/>
		</g>
		<g>
			<path class="st2" d="M727.6,26.1c0,0,3.9,17.1,7.1,20.3"/>
			<path class="st3" d="M734.4,45.6c0,0-0.6-18.1,3.5-14.7C742,34.3,734.4,45.6,734.4,45.6z"/>
			<path class="st3" d="M733.4,44.5c0,0-13-15-13.2-8.5C720,42.5,733.4,44.5,733.4,44.5z"/>
			<path class="st4" d="M722.9,23.9c-5-1.5-11-4.1-11.1-6.4c-0.4-6.8,18.2,0.9,18.3,2.9C730.1,22.5,729.4,25.9,722.9,23.9z"/>
			<path class="st4" d="M724.1,17.8c0-5.2,0.9-11.7,3-12.5c6.4-2.3,4.2,17.8,2.3,18.4C727.5,24.5,724.1,24.7,724.1,17.8z"/>
			<path class="st4" d="M730.3,16.4c5-1.5,11.5-2.5,12.8-0.7c4.1,5.5-15.8,9.1-17,7.5C725,21.6,723.7,18.4,730.3,16.4z"/>
			<path class="st4" d="M732.9,22.2c3.9,3.5,8.2,8.4,7.4,10.5c-2.5,6.3-16.1-8.6-15.3-10.4S727.8,17.6,732.9,22.2z"/>
			<path class="st4" d="M728.4,27.1c-3.6,3.9-8.5,8.1-10.6,7.2c-6.3-2.6,8.8-16,10.7-15.2S733.1,22.1,728.4,27.1z"/>
			<circle class="st5" cx="727.8" cy="21.9" r="4.9"/>
		</g>
		<g>
			<path class="st2" d="M614.8,169.5c0,0,3.9,17.1,7.1,20.3"/>
			<path class="st3" d="M621.6,189.1c0,0-0.6-18.1,3.5-14.7C629.1,177.7,621.6,189.1,621.6,189.1z"/>
			<path class="st3" d="M620.6,188c0,0-13-15-13.2-8.5C607.2,186,620.6,188,620.6,188z"/>
			<path class="st4" d="M610,167.4c-5-1.5-11-4.1-11.1-6.4c-0.4-6.8,18.2,0.9,18.3,2.9S616.6,169.4,610,167.4z"/>
			<path class="st4" d="M611.3,161.3c0-5.2,0.9-11.7,3-12.5c6.4-2.3,4.2,17.8,2.3,18.4C614.7,168,611.2,168.1,611.3,161.3z"/>
			<path class="st4" d="M617.5,159.9c5-1.5,11.5-2.5,12.8-0.7c4.1,5.5-15.8,9.1-17,7.5S610.9,161.8,617.5,159.9z"/>
			<path class="st4" d="M620.1,165.6c3.9,3.5,8.2,8.4,7.4,10.5c-2.5,6.3-16.1-8.6-15.3-10.4C612.9,163.8,615,161.1,620.1,165.6z"/>
			<path class="st4" d="M615.6,170.6c-3.6,3.9-8.5,8.1-10.6,7.2c-6.3-2.6,8.8-16,10.7-15.2C617.5,163.4,620.2,165.5,615.6,170.6z"/>
			<circle class="st5" cx="615" cy="165.3" r="4.9"/>
		</g>
		<g>
			<path class="st2" d="M281.3,127.8c0,0,3.9,17.1,7.1,20.3"/>
			<path class="st3" d="M288.1,147.4c0,0-0.6-18.1,3.5-14.7C295.7,136,288.1,147.4,288.1,147.4z"/>
			<path class="st3" d="M287.1,146.3c0,0-13-15-13.2-8.5C273.7,144.2,287.1,146.3,287.1,146.3z"/>
			<path class="st4" d="M276.5,125.7c-5-1.5-11-4.1-11.1-6.4c-0.4-6.8,18.2,0.9,18.3,2.9S283.1,127.6,276.5,125.7z"/>
			<path class="st4" d="M277.8,119.5c0-5.2,0.9-11.7,3-12.5c6.4-2.3,4.2,17.8,2.3,18.4C281.2,126.2,277.7,126.4,277.8,119.5z"/>
			<path class="st4" d="M284,118.2c5-1.5,11.5-2.5,12.8-0.7c4.1,5.5-15.8,9.1-17,7.5S277.4,120.1,284,118.2z"/>
			<path class="st4" d="M286.6,123.9c3.9,3.5,8.2,8.4,7.4,10.5c-2.5,6.3-16.1-8.6-15.3-10.4C279.4,122.1,281.5,119.3,286.6,123.9z"
				/>
			<path class="st4" d="M282.1,128.9c-3.6,3.9-8.5,8.1-10.6,7.2c-6.3-2.6,8.8-16,10.7-15.2S286.8,123.8,282.1,128.9z"/>
			<circle class="st5" cx="281.5" cy="123.6" r="4.9"/>
		</g>
		<g>
			<path class="st2" d="M42.4,35.9c0,0-3.9,17.1-7.1,20.3"/>
			<path class="st3" d="M35.6,55.5c0,0,0.6-18.1-3.5-14.7C28,44.1,35.6,55.5,35.6,55.5z"/>
			<path class="st3" d="M36.6,54.4c0,0,13-15,13.2-8.5C50,52.4,36.6,54.4,36.6,54.4z"/>
			<path class="st4" d="M47.1,33.8c5-1.5,11-4.1,11.1-6.4c0.4-6.8-18.2,0.9-18.3,2.9S40.6,35.8,47.1,33.8z"/>
			<path class="st4" d="M45.9,27.7c0-5.2-0.9-11.7-3-12.5c-6.4-2.3-4.2,17.8-2.3,18.4S45.9,34.5,45.9,27.7z"/>
			<path class="st4" d="M39.7,26.3c-5-1.5-11.5-2.5-12.8-0.7c-4.1,5.5,15.8,9.1,17,7.5C45,31.5,46.3,28.2,39.7,26.3z"/>
			<path class="st4" d="M37.1,32c-3.9,3.5-8.2,8.4-7.4,10.5c2.5,6.3,16.1-8.6,15.3-10.4S42.2,27.5,37.1,32z"/>
			<path class="st4" d="M41.6,37c3.6,3.9,8.5,8.1,10.6,7.2c6.3-2.6-8.8-16-10.7-15.2S36.9,31.9,41.6,37z"/>
			<circle class="st5" cx="42.2" cy="31.7" r="4.9"/>
		</g>
		<g>
			<path class="st2" d="M379.8,20.3c0,0,3.9,17.1,7.1,20.3"/>
			<path class="st3" d="M386.6,39.8c0,0-0.6-18.1,3.5-14.7C394.2,28.5,386.6,39.8,386.6,39.8z"/>
			<path class="st3" d="M385.6,38.7c0,0-13-15-13.2-8.5S385.6,38.7,385.6,38.7z"/>
			<path class="st4" d="M375.1,18.1c-5-1.5-11-4.1-11.1-6.4c-0.4-6.8,18.2,0.9,18.3,2.9C382.3,16.6,381.6,20.1,375.1,18.1z"/>
			<path class="st4" d="M376.3,12c0-5.2,0.9-11.7,3-12.5c6.4-2.3,4.2,17.8,2.3,18.4C379.7,18.6,376.3,18.8,376.3,12z"/>
			<path class="st4" d="M382.5,10.6c5-1.5,11.5-2.5,12.8-0.7c4.1,5.5-15.8,9.1-17,7.5C377.2,15.8,375.9,12.5,382.5,10.6z"/>
			<path class="st4" d="M385.1,16.3c3.9,3.5,8.2,8.4,7.4,10.5c-2.5,6.3-16.1-8.6-15.3-10.4C377.9,14.6,380,11.8,385.1,16.3z"/>
			<path class="st4" d="M380.6,21.3c-3.6,3.9-8.5,8.1-10.6,7.2c-6.3-2.6,8.8-16,10.7-15.2S385.2,16.2,380.6,21.3z"/>
			<circle class="st5" cx="380" cy="16" r="4.9"/>
		</g>
		<g>
			<path class="st2" d="M102.4,180c0,0,3.9,17.1,7.1,20.3"/>
			<path class="st3" d="M109.2,199.5c0,0-0.6-18.1,3.5-14.7C116.7,188.2,109.2,199.5,109.2,199.5z"/>
			<path class="st3" d="M108.1,198.4c0,0-13-15-13.2-8.5C94.7,196.5,108.1,198.4,108.1,198.4z"/>
			<path class="st4" d="M97.6,177.9c-5-1.5-11-4.1-11.1-6.4c-0.4-6.8,18.2,0.9,18.3,2.9C104.9,176.4,104.2,179.8,97.6,177.9z"/>
			<path class="st4" d="M98.8,171.7c0-5.2,0.9-11.7,3-12.5c6.4-2.3,4.2,17.8,2.3,18.4C102.3,178.4,98.8,178.6,98.8,171.7z"/>
			<path class="st4" d="M105,170.4c5-1.5,11.5-2.5,12.8-0.7c4.1,5.5-15.8,9.1-17,7.5S98.4,172.3,105,170.4z"/>
			<path class="st4" d="M107.7,176.1c3.9,3.5,8.2,8.4,7.4,10.5c-2.5,6.3-16.1-8.6-15.3-10.4S102.5,171.5,107.7,176.1z"/>
			<path class="st4" d="M103.1,181.1c-3.6,3.9-8.5,8.1-10.6,7.2c-6.3-2.6,8.8-16,10.7-15.2C105,173.9,107.8,176,103.1,181.1z"/>
			<circle class="st5" cx="102.5" cy="175.8" r="4.9"/>
		</g>
		<g>
			<path class="st7" d="M923.7,284.6h2.9c6.2,0,11.2-12,11.2-26.6V-4.6h-25.3v262.7C912.5,272.7,917.5,284.6,923.7,284.6z"/>
			<path class="st7" d="M425.8,283.6h2.9c6.2,0,11.2-11.9,11.2-26.5V-5.2h-25.4V257C414.5,271.6,419.6,283.6,425.8,283.6z"/>
			<g>
				<path class="st6" d="M45.7,229.5c-20.3,0-39.6,0.2-56.8,0.6v13.3c17.3,0.4,36.5,0.6,56.8,0.6h1317.2v-14.6H45.7z"/>
				<path class="st6" d="M45.7,269.7c-20.3,0-39.6,0.2-56.8,0.6v13.3c17.3,0.4,36.5,0.6,56.8,0.6h1317.2v-14.6H45.7z"/>
				<path class="st7" d="M2.8,210.8h-2.9c-6.1,0-11.1,4-11.1,8.9v88h25v-88C13.9,214.8,8.9,210.8,2.8,210.8z"/>
				<path class="st7" d="M73.8,210.8h-2.9c-6.2,0-11.1,4-11.1,8.9v88h25v-88C84.8,214.8,79.9,210.8,73.8,210.8z"/>
				<path class="st7" d="M144.7,210.8h-2.9c-6.1,0-11.1,4-11.1,8.9v88h25v-88C155.8,214.8,150.9,210.8,144.7,210.8z"/>
				<path class="st7" d="M215.7,210.8h-2.9c-6.1,0-11.1,4-11.1,8.9v88h25v-88C226.8,214.8,221.9,210.8,215.7,210.8z"/>
				<path class="st7" d="M855.4,210.8h-2.9c-6.1,0-11.1,4-11.1,8.9v88h25v-88C866.5,214.8,861.6,210.8,855.4,210.8z"/>
				<path class="st7" d="M926.4,210.8h-2.9c-6.1,0-11.1,4-11.1,8.9v88h25v-88C937.5,214.8,932.5,210.8,926.4,210.8z"/>
				<path class="st7" d="M997.4,210.8h-2.9c-6.1,0-11.1,4-11.1,8.9v88h25v-88C1008.5,214.8,1003.5,210.8,997.4,210.8z"/>
				<path class="st7" d="M1068.3,210.8h-2.9c-6.1,0.1-11.1,4-11,8.9v88h25v-88C1079.5,214.8,1074.5,210.8,1068.3,210.8z"/>
				<path class="st7" d="M287,210.8h-2.9c-6.1,0-11.1,4-11.1,8.9v88h25v-88C298.1,214.8,293.2,210.8,287,210.8z"/>
				<path class="st7" d="M358,210.8h-2.9c-6.1,0-11.1,4-11.1,8.9v88h25v-88C369,214.8,364.1,210.8,358,210.8z"/>
				<path class="st7" d="M429,210.8h-2.9c-6.1,0-11.1,4-11.1,8.9v88h25v-88C440,214.8,435.1,210.8,429,210.8z"/>
				<path class="st7" d="M499.9,210.8H497c-6.1,0-11.1,4-11.1,8.9v88h25v-88C511,214.8,506.1,210.8,499.9,210.8z"/>
				<path class="st7" d="M571.2,210.8h-2.9c-6.1,0-11.1,4-11.1,8.9v88h25v-88C582.3,214.8,577.4,210.8,571.2,210.8z"/>
				<path class="st7" d="M642.2,210.8h-2.9c-6.1,0-11.1,4-11.1,8.9v88h25v-88C653.3,214.8,648.3,210.8,642.2,210.8z"/>
				<path class="st7" d="M713.2,210.8h-2.9c-6.1,0-11.1,4-11.1,8.9v88h25v-88C724.2,214.8,719.3,210.8,713.2,210.8z"/>
				<path class="st7" d="M784.1,210.8h-2.9c-6.1,0-11.1,4-11.1,8.9v88h25v-88C795.2,214.8,790.3,210.8,784.1,210.8z"/>
				<path class="st7" d="M1139.6,210.8h-2.9c-6.1,0-11.1,4-11.1,8.9v88h25v-88C1150.7,214.8,1145.8,210.8,1139.6,210.8z"/>
				<path class="st7" d="M1210.6,210.8h-2.9c-6.1,0-11.1,4-11.1,8.9v88h25v-88C1221.7,214.8,1216.7,210.8,1210.6,210.8z"/>
				<path class="st7" d="M1281.6,210.8h-2.9c-6.1,0-11.1,4-11.1,8.9v88h25v-88C1292.7,214.8,1287.7,210.8,1281.6,210.8z"/>
				<path class="st7" d="M1352.5,210.8h-2.9c-6.1,0-11.1,4-11.1,8.9v88h25v-88C1363.7,214.8,1358.7,210.8,1352.5,210.8z"/>
			</g>
		</g>
	</g>
</g>
</svg>
