<?xml version="1.0" encoding="utf-8"?>
<!-- Generator: Adobe Illustrator 22.1.0, SVG Export Plug-In . SVG Version: 6.00 Build 0)  -->
<svg version="1.1" id="Layer_1" xmlns="http://www.w3.org/2000/svg" xmlns:xlink="http://www.w3.org/1999/xlink" x="0px" y="0px"
	 viewBox="0 0 672.9 399.1" style="enable-background:new 0 0 672.9 399.1;" xml:space="preserve">
<style type="text/css">
	.st0{enable-background:new    ;}
	.st1{fill:#494848;}
	.st2{fill:#A0D9F3;}
	.st3{fill:#B2F187;}
	.st4{fill:none;stroke:#68645F;stroke-width:5.67;stroke-miterlimit:10;}
	.st5{fill:#DD8C54;}
	.st6{fill:#68645F;}
	.st7{fill:#FFFBB6;}
	.st8{fill:#B6976F;}
	.st9{fill:#FFFFFF;stroke:#000000;stroke-width:3.2;stroke-miterlimit:10;}
	.st10{fill:#FFFFFF;}
	.st11{fill:#FCE694;}
	.st12{fill:none;stroke:#513E29;stroke-width:19.08;stroke-miterlimit:10;}
	.st13{fill:none;stroke:#452200;stroke-width:2.68;stroke-miterlimit:10;}
	.st14{fill:#D8C5B2;}
	.st15{fill:#513E29;}
	.st16{fill:none;}
	.st17{fill:#F9BBCC;}
	.st18{fill:#997233;}
	.st19{fill:#F9F9E4;}
	.st20{fill:#F9D87A;}
	.st21{fill:#2586FD;}
	.st22{fill:#3A4DE2;}
	.st23{fill:#DEDEE0;}
	.st24{fill:#D6D5D8;}
	.st25{fill:#797680;}
	.st26{fill:#56565C;}
	.st27{fill:#AAA9AF;}
</style>
<title>Farm</title>
<text transform="matrix(1 0 0 1 2091.4868 3.9736)" class="st1" style="font-family:'Quicksand-Bold'; font-size:40px;">EXIT</text>
<g id="Layer_2_1_">
	<g id="Layer_1-2">
		<rect x="-653.3" y="-4.8" class="st2" width="1337.8" height="1030.9"/>
		<rect x="-653.3" y="573.4" class="st3" width="1337.5" height="457.3"/>
		<line class="st4" x1="-80" y1="476.9" x2="-55.9" y2="453.7"/>
		<rect x="-10.8" y="459.7" class="st5" width="45.3" height="33.9"/>
		<path class="st5" d="M-61.9,475.3h-18.2c-0.8-10-9.6-17.9-20.2-17.9h-67.4c-11.1,0-20.2,8.8-20.2,19.5v27.6
			c0,10.8,9.1,19.5,20.2,19.5h105.8c9.5,0,17.3-7.5,17.3-16.7V492C-44.5,482.8-52.4,475.3-61.9,475.3z"/>
		<ellipse class="st6" cx="-7.9" cy="522.5" rx="57.5" ry="55.5"/>
		<path class="st7" d="M-7.9,551.8c-16.7,0-30.4-13.1-30.4-29.3c0-16.2,13.7-29.3,30.4-29.3s30.4,13.1,30.4,29.3
			C22.5,538.7,8.9,551.8-7.9,551.8z"/>
		<ellipse class="st6" cx="-7.9" cy="522.5" rx="8.7" ry="8.4"/>
		<path class="st6" d="M-4.7,499.5v9.4c0,0,8.7,1,13,10.4h9.8C18.1,519.4,11.6,502.7-4.7,499.5z"/>
		<path class="st6" d="M-11.2,499.5v9.4c0,0-8.7,1-13,10.4H-34C-33.9,519.4-27.4,502.7-11.2,499.5z"/>
		<path class="st6" d="M-4.7,546.6v-9.5c0,0,8.7-1,13-10.4h9.8C18.1,526.7,11.6,543.5-4.7,546.6z"/>
		<path class="st6" d="M-11.2,546.6v-9.5c0,0-8.7-1-13-10.4H-34C-33.9,526.7-27.4,543.5-11.2,546.6z"/>
		<ellipse class="st6" cx="-174.8" cy="541.7" rx="37.1" ry="35.7"/>
		<path class="st7" d="M-174.8,560.5c-10.8,0-19.6-8.5-19.6-18.9c0-10.4,8.8-18.9,19.6-18.9s19.6,8.5,19.6,18.9
			C-155.2,552.1-164,560.5-174.8,560.5z"/>
		<ellipse class="st6" cx="-174.8" cy="541.7" rx="5.6" ry="5.4"/>
		<path class="st6" d="M-172.7,526.8v6.1c3.7,0.7,6.9,3.2,8.4,6.8h6.3C-158,539.7-162.2,528.8-172.7,526.8z"/>
		<path class="st6" d="M-176.9,526.8v6.1c-3.7,0.7-6.9,3.2-8.4,6.8h-6.3C-191.6,539.7-187.4,528.8-176.9,526.8z"/>
		<path class="st6" d="M-172.7,557.2v-6.1c3.7-0.7,6.9-3.2,8.4-6.8h6.3C-158,544.4-162.2,555.2-172.7,557.2z"/>
		<path class="st6" d="M-176.9,557.2v-6.1c-3.7-0.7-6.9-3.2-8.4-6.8h-6.3C-191.6,544.4-187.4,555.2-176.9,557.2z"/>
		<path class="st6" d="M-50.2,450.6c4.4,6.8,6.6,13.2,4.8,14.2c-1.7,1-6.8-3.6-11.2-10.4c-4.4-6.8-6.6-13.2-4.8-14.2
			C-59.6,439.1-54.6,443.8-50.2,450.6z"/>
		<rect x="-653.3" y="572.8" class="st8" width="1337.8" height="66.6"/>
		<path class="st9" d="M640.2,748.4"/>
		<path class="st10" d="M704.1,148.8c0-21.3-17.3-38.5-38.5-38.5c-6.2,0-12.3,1.5-17.8,4.4C645.6,93.5,625.4,77,600.6,77
			c-19.1,0-35.6,9.8-43,24c-4.4-1.2-9-1.7-13.5-1.7c-24.9,0-45.2,17.3-45.7,38.8c0,0.1,0,0.3,0,0.5v41.2c0,4.3,3.5,7.9,7.9,7.9
			h165.9c1.8,0,3.5-0.6,4.9-1.7C693,180.6,704.1,165.7,704.1,148.8z"/>
		<path class="st10" d="M471.5,377.5c0-21.3-17.3-38.5-38.5-38.5c-6.2,0-12.3,1.5-17.8,4.4c-2.1-21.1-22.4-37.7-47.1-37.7
			c-19.1,0-35.6,9.8-43,24c-4.4-1.2-9-1.7-13.5-1.7c-24.9,0-45.2,17.3-45.7,38.8c0,0.1,0,0.3,0,0.5v41.2c0,4.3,3.5,7.9,7.9,7.9
			h165.9c1.8,0,3.5-0.6,4.9-1.7C460.5,409.3,471.5,394.3,471.5,377.5z"/>
		<path class="st10" d="M-109.2,52.1c0-21.3-17.3-38.5-38.5-38.5c-6.2,0-12.3,1.5-17.8,4.4c-2.1-21.1-22.4-37.7-47.2-37.7
			c-19.1,0-35.6,9.8-43,24c-4.4-1.2-9-1.7-13.5-1.7c-24.9,0-45.2,17.3-45.7,38.8c0,0.1,0,0.3,0,0.5v41.2c0,4.3,3.5,7.9,7.9,7.9
			h165.9c1.8,0,3.5-0.6,4.9-1.7C-120.2,83.9-109.2,69-109.2,52.1z"/>
		<path class="st10" d="M265.7,357.8c0-21.3-17.3-38.5-38.5-38.5c-6.2,0-12.3,1.5-17.8,4.4c-2.1-21.1-22.4-37.7-47.1-37.7
			c-19.1,0-35.6,9.8-43,24c-4.4-1.2-9-1.7-13.5-1.7c-24.9,0-45.2,17.3-45.7,38.8c0,0.1,0,0.3,0,0.5v41.2c0,4.3,3.5,7.9,7.9,7.9
			h165.9c1.8,0,3.5-0.6,4.9-1.7C254.7,389.6,265.7,374.8,265.7,357.8z"/>
		<rect x="227.5" y="341.1" class="st11" width="386.1" height="231.6"/>
		<polygon class="st11" points="420.8,141 227.8,341.1 613.8,341.1 		"/>
		<line class="st12" x1="420.6" y1="141" x2="626.4" y2="353.4"/>
		<line class="st12" x1="419.4" y1="141.9" x2="213.7" y2="354.2"/>
		<line class="st13" x1="261.8" y1="312.3" x2="261.8" y2="572.8"/>
		<line class="st13" x1="297.7" y1="287.8" x2="297.7" y2="572.8"/>
		<line class="st13" x1="335.2" y1="259" x2="335.2" y2="572.8"/>
		<line class="st13" x1="372.9" y1="236.2" x2="372.9" y2="572.8"/>
		<line class="st13" x1="468.1" y1="572.8" x2="468.1" y2="236.2"/>
		<line class="st13" x1="503.9" y1="572.8" x2="503.9" y2="260.7"/>
		<line class="st13" x1="541.6" y1="572.8" x2="541.6" y2="289.6"/>
		<line class="st13" x1="579.1" y1="572.8" x2="579.1" y2="312.3"/>
		<line class="st13" x1="420.9" y1="572.8" x2="420.9" y2="206.5"/>
		<rect x="370.7" y="447.7" class="st14" width="100.6" height="125"/>
		<rect x="375.2" y="452.1" class="st15" width="91.5" height="116.3"/>
		<rect x="396.1" y="254.7" class="st14" width="49.9" height="62"/>
		<rect x="398.4" y="256.9" class="st15" width="45.3" height="57.6"/>
		<path class="st10" d="M-415.6,281.4c0-21.3-17.3-38.5-38.5-38.5c-6.2,0-12.3,1.5-17.8,4.4c-2-21.1-22.4-37.7-47.1-37.7
			c-19.1,0-35.6,9.8-43,24c-4.4-1.2-9-1.7-13.5-1.7c-24.9,0-45.2,17.3-45.7,38.8c0,0.1,0,0.3,0,0.5v41.2c0,4.3,3.5,7.9,7.9,7.9
			h165.9c1.8,0,3.5-0.6,4.9-1.7C-426.6,313.3-415.5,298.3-415.6,281.4z"/>
		<path class="st16" d="M-478,308.6c1-1,2.4-1.5,3.9-1.5c-0.1-0.1-0.2-0.3-0.3-0.5l-11.9-12.4c0,1.5-0.6,2.9-1.7,3.9l-1.1,1
			l9.9,10.4L-478,308.6z"/>
		<path class="st16" d="M-505.7,315.1l-1.5,1.5c-0.8,0.8-2,1.3-3.2,1.4l1.6,1.7c1.9-0.7,3.8-1.4,5.7-1.9L-505.7,315.1z"/>
		<path class="st16" d="M-499.9,309.6l6.3,6.6c1.5-0.1,3-0.2,4.5-0.2c1.1,0,2.2,0.1,3.3,0.1l1-1l-10-10.4L-499.9,309.6z"/>
		<path class="st17" d="M-536.6,369.9c1.1-1,1.1-2.8,0.1-3.8l-6.8-7.1c-0.5,2.2-0.9,4.4-1.2,6.6l4.1,4.3
			C-539.3,371-537.7,371-536.6,369.9z"/>
		<polygon class="st17" points="-549.3,392 -589.3,572.8 -390.1,572.8 -425.2,409.2 -493.2,339 		"/>
		<path class="st17" d="M-428.1,395.8l-0.3-1.5C-428.5,394.7-428.4,395.3-428.1,395.8z"/>
		<path class="st17" d="M-497.1,327.2l1.5-1.5l-7.5-7.9c-1.9,0.5-3.9,1.1-5.7,1.9l10,10.4c0.1,0.1,0.1,0.1,0.1,0.1
			C-498.5,329-498,327.9-497.1,327.2z"/>
		<path class="st17" d="M-493.5,316.2l3.7,3.9l4.1-4c-1.1-0.1-2.2-0.1-3.3-0.1C-490.5,316-492.1,316.1-493.5,316.2z"/>
		<path class="st17" d="M-516,350.3c1.1-1,1.1-2.8,0.1-3.8l-12.9-13.6c-1.3,1.3-2.4,2.6-3.6,4.1l12.7,13.2
			C-518.8,351.3-517.1,351.3-516,350.3z"/>
		<path class="st17" d="M-527.3,360.1c1.1-1,1.1-2.8,0.1-3.8l-10.8-11.2c-0.9,1.7-1.8,3.4-2.5,5.2l9.3,9.8
			C-530.1,361.1-528.3,361.1-527.3,360.1z"/>
		<path class="st17" d="M-457.1,364.5c1,1.1,2.8,1.1,3.8,0.1l15.6-14.9c-0.8-1.7-1.6-3.4-2.5-5.1l-16.7,16
			C-458.1,361.8-458.2,363.4-457.1,364.5z"/>
		<path class="st17" d="M-448.3,374.8c1,1.1,2.8,1.1,3.8,0.1l10.8-10.3c-0.3-2.1-0.7-4.3-1.2-6.3l-13.3,12.7
			C-449.3,372-449.4,373.7-448.3,374.8z"/>
		<path class="st17" d="M-438,385.5c1,1.1,2.8,1.1,3.8,0.1l3.2-3.1l-1.3-6.2l-5.6,5.4C-439,382.8-439,384.4-438,385.5z"/>
		<path class="st17" d="M-478.3,343.5c1,1.1,2.8,1.1,3.8,0.1l17.9-17.1c-1.5-1.1-3.1-2.1-4.7-3l-16.9,16.2
			C-479.2,340.7-479.3,342.4-478.3,343.5z"/>
		<path class="st17" d="M-468,354.2c1,1.1,2.8,1.1,3.8,0.1l18.4-17.6c-1.2-1.4-2.3-2.8-3.6-4.1l-18.6,17.7
			C-468.9,351.4-469,353.1-468,354.2L-468,354.2z"/>
		<path class="st17" d="M-478.9,320.7l-5.7,5.5c0.8,2.1,0.3,4.4-1.2,5.9l-1.6,1.5c1,0.6,2.4,0.5,3.3-0.3l14.5-13.8
			c-0.7-0.3-1.4-0.5-2.1-0.7l-1,1C-474.5,321.2-476.9,321.6-478.9,320.7z"/>
		<path class="st17" d="M-505.3,340c1.1-1,1.1-2.8,0.1-3.8l-12-12.5c-1.6,0.9-3.2,1.9-4.6,3l12.6,13.2C-508,341-506.4,341-505.3,340
			z"/>
		<path class="st18" d="M-393.7,388.1l-19.4,18.6c-1,1.1-2.8,1.1-3.9,0c-1.1-1-1.1-2.8,0-3.9c0.1-0.1,0.1-0.1,0.1-0.1l19.4-18.6
			l-6.6-6.8l-19.8,18.9c-1.1,1-2.8,1-3.8-0.1c-0.2-0.2-0.3-0.4-0.4-0.6c-0.6-1.1-0.4-2.4,0.5-3.3l19.8-18.9l-6.7-6.8l-16.6,15.8
			l-3.2,3.1c-1.1,1-2.8,0.9-3.8-0.2c-1-1.1-0.9-2.7,0.1-3.7l5.6-5.4l14.2-13.5l-6.6-6.8l-9,8.6l-10.8,10.3c-1,1.1-2.8,1.1-3.9,0
			c-1.1-1-1.1-2.8,0-3.9c0.1-0.1,0.1-0.1,0.1-0.1l13.3-12.7l6.4-6.1l-5.7-5.9l-3.7,3.5l-15.5,14.9c-1.1,1-2.8,0.9-3.8-0.2
			c-1-1.1-0.9-2.7,0.1-3.7l16.7-16l2.4-2.3l-6.6-6.8l-1.2,1.2l-18.4,17.6c-1.1,1-2.8,0.9-3.8-0.2c-1-1.1-0.9-2.7,0.1-3.7l18.6-17.7
			l1.1-1l-6.6-6.8l-1.7,1.7l-17.8,17.1c-1,1.1-2.8,1.1-3.9,0c-1.1-1-1.1-2.8,0-3.9c0.1-0.1,0.1-0.1,0.1-0.1l16.9-16.2l2.6-2.5
			l-6.1-6.3l-5.1,4.8l-14.5,13.8c-0.9,0.8-2.3,1-3.3,0.3l1.6-1.5c1.6-1.5,2.1-3.9,1.2-5.9l5.7-5.5c2,0.9,4.4,0.5,5.9-1l1-1l82.8-80
			c5.3-5.2,5.4-13.5,0.3-18.9l-7.4-7.7c-5.2-5.3-13.5-5.4-18.9-0.3l-4.4,4.3l18.6,19.5c1.1,1,1.1,2.8,0,3.9c-1,1.1-2.8,1.1-3.9,0
			c-0.1-0.1-0.1-0.1-0.1-0.1l-18.4-19.5l-6.8,6.6l19,19.8c1,1.1,0.9,2.8-0.2,3.8s-2.7,0.9-3.7-0.1l-18.9-19.8l-6.8,6.6l18.9,19.8
			c1,1.1,0.9,2.8-0.2,3.8c-1.1,1-2.7,0.9-3.7-0.1l-18.9-19.8l-6.8,6.6l18.9,19.7c1,1.1,0.9,2.8-0.2,3.8c-1.1,1-2.7,0.9-3.7-0.1
			l-18.9-19.7l-5.8,5.7l18.4,19.2c1,1.1,0.9,2.8-0.2,3.8c-1.1,1-2.7,0.9-3.7-0.1l-18.3-19l-6.8,6.6l18.8,19.6c1,1.1,0.9,2.8-0.2,3.8
			c-1.1,1-2.7,0.9-3.7-0.1l-18.7-19.6l-6.8,6.6l18.7,19.6c1,1.1,0.9,2.8-0.2,3.8c-1.1,1-2.7,0.9-3.7-0.1l-18.7-19.6l-6.3,6.1
			l2.4,2.6l-3.9,3.7l-2.4-2.5l-1.9,1.9c-1.6,1.5-2.1,3.9-1.2,5.9l-5.5,5.3c-2-1-4.4-0.6-6,0.9l-1.7,1.7c-0.5-1-0.3-2.3,0.5-3.2
			l19.5-18.7l-6.1-6.4l-19.6,18.7c-1.1,1-2.8,0.9-3.8-0.2c-1-1.1-0.9-2.7,0.1-3.7l19.6-18.7l-6.5-6.9l-19.6,18.7
			c-1.1,1-2.8,0.9-3.8-0.2s-0.9-2.7,0.1-3.7l19.6-18.8l-6.5-6.9l-19.2,18.4c-1.1,1-2.8,0.9-3.8-0.2c-1-1.1-0.9-2.7,0.1-3.7
			l19.2-18.4l-5.6-5.9l-19.7,18.8c-1,1.1-2.8,1.1-3.9,0c-1.1-1-1.1-2.8,0-3.9c0.1-0.1,0.1-0.1,0.1-0.1l19.7-18.9l-6.6-6.9
			l-19.8,18.9c-1.1,1-2.8,0.9-3.8-0.2c-1-1.1-0.9-2.7,0.1-3.7l19.8-18.9l-6.6-6.8l-19.8,18.9c-1.1,1-2.8,0.9-3.8-0.2
			c-1-1.1-0.9-2.7,0.1-3.7l19.9-18.9l-6.5-6.9l-19.5,18.6c-1.1,1-2.8,0.9-3.8-0.2c-1-1.1-0.9-2.7,0.1-3.7l19.5-18.6l-4.2-4.4
			c-5.1-5.3-13.5-5.5-18.9-0.5l-7.7,7.3c-5.3,5.1-5.5,13.5-0.5,18.9L-519,312l-4.9,4.6l6.8,7.1l12,12.5c1,1.1,0.9,2.8-0.2,3.8
			c-1.1,1-2.7,0.9-3.7-0.1l-12.6-13.2l-6.1-6.4l-6.9,6.5l5.8,6.1l12.9,13.6c1,1.1,0.9,2.8-0.2,3.8c-1.1,1-2.7,0.9-3.7-0.1
			l-12.7-13.3l-6.1-6.4l-6.9,6.5l7.6,8l10.8,11.2c1,1.1,0.9,2.8-0.2,3.8c-1.1,1-2.7,0.9-3.7-0.1l-9.3-9.8l-9.1-9.4l-5.9,5.6l12,12.6
			l6.8,7.1c1,1.1,0.9,2.8-0.2,3.8c-1.1,1-2.7,0.9-3.7-0.1l-4.1-4.3l-14.8-15.5l-6.9,6.5l18.9,19.8c1,1.1,0.9,2.8-0.2,3.8
			c-1.1,1-2.7,0.9-3.7-0.1l-18.9-19.8l-6.9,6.5l18.9,19.8c1,1.1,0.9,2.8-0.2,3.8c-1.1,1-2.7,0.9-3.7-0.1l-19-19.8l-6.9,6.5
			l18.6,19.4c1,1.1,0.9,2.8-0.2,3.8c-1.1,1-2.7,0.9-3.7-0.1l-18.6-19.5l-4.4,4.2c-5.3,5.1-5.5,13.5-0.5,18.9l7.3,7.7
			c5.1,5.3,13.5,5.5,18.9,0.5l21.3-20.1l56.1-53.1l68,70.3l9,9.2c5.2,5.3,13.5,5.4,18.9,0.3l7.7-7.4c5.3-5.2,5.4-13.5,0.3-18.9
			L-393.7,388.1z M-485.7,316.2l-4.1,4l-3.7-3.9l-6.3-6.6l5.1-4.8l10,10.4L-485.7,316.2z M-487.9,298.2c1.1-1,1.7-2.4,1.7-3.9
			l11.9,12.4c0.1,0.1,0.3,0.3,0.3,0.5c-1.5-0.1-2.9,0.5-3.9,1.5l-1.1,1l-9.9-10.4L-487.9,298.2z M-508.7,319.7l-1.6-1.7
			c1.2-0.1,2.3-0.6,3.2-1.4l1.5-1.5l2.6,2.8l7.5,7.9l-1.5,1.5c-0.8,0.8-1.4,1.9-1.5,3c-0.1-0.1-0.1-0.1-0.1-0.1L-508.7,319.7z"/>
	</g>
</g>
<g>
	
		<image style="overflow:visible;opacity:0.7;" width="885" height="610" xlink:href="B91A21A0D85E3C0A.png"  transform="matrix(1 0 0 1 -420.7822 230.7534)">
	</image>
	<g>
		<path class="st19" d="M391.5,818.6h-754c-27.6,0-50-22.4-50-50V288.8c0-27.6,22.4-50,50-50h754c27.6,0,50,22.4,50,50v479.8
			C441.5,796.3,419.1,818.6,391.5,818.6z"/>
	</g>
</g>
<g>
	
		<image style="overflow:visible;opacity:0.7;" width="205" height="205" xlink:href="B91A21A0D85E3C0E.png"  transform="matrix(1 0 0 1 432.2178 26.7534)">
	</image>
	<g>
		<circle class="st20" cx="527.6" cy="122.4" r="87.3"/>
	</g>
</g>
<path class="st21" d="M562.5,94.5h-68.7c-2.1,0-3.8-1.7-3.8-3.8v-18c0-2.1,1.7-3.8,3.8-3.8h68.7c2.1,0,3.8,1.7,3.8,3.8v18
	C566.3,92.8,564.6,94.5,562.5,94.5z"/>
<path class="st22" d="M562.5,68.9h-34.3v25.7h34.3c2.1,0,3.8-1.7,3.8-3.8v-18C566.3,70.6,564.6,68.9,562.5,68.9z"/>
<path class="st23" d="M562.5,174h-68.7c-2.1,0-3.8-1.7-3.8-3.8V86.8h76.4v83.3C566.3,172.2,564.6,174,562.5,174z"/>
<path class="st24" d="M528.1,86.8V174h34.3c2.1,0,3.8-1.7,3.8-3.8V86.8H528.1z"/>
<g>
	<path class="st25" d="M546.9,105.1h-37.5c-2.1,0-3.8-1.7-3.8-3.8s1.7-3.8,3.8-3.8h37.5c2.1,0,3.8,1.7,3.8,3.8
		C550.7,103.3,549,105.1,546.9,105.1z"/>
	<path class="st25" d="M546.9,118.9h-37.5c-2.1,0-3.8-1.7-3.8-3.8s1.7-3.8,3.8-3.8h37.5c2.1,0,3.8,1.7,3.8,3.8
		S549,118.9,546.9,118.9z"/>
	<path class="st25" d="M546.9,132.7h-37.5c-2.1,0-3.8-1.7-3.8-3.8s1.7-3.8,3.8-3.8h37.5c2.1,0,3.8,1.7,3.8,3.8
		S549,132.7,546.9,132.7z"/>
</g>
<g>
	<path class="st26" d="M546.9,97.4h-18.7v7.7h18.7c2.1,0,3.8-1.7,3.8-3.8C550.7,99.1,549,97.4,546.9,97.4z"/>
	<path class="st26" d="M546.9,111.2h-18.7v7.7h18.7c2.1,0,3.8-1.7,3.8-3.8S549,111.2,546.9,111.2z"/>
	<path class="st26" d="M546.9,125h-18.7v7.7h18.7c2.1,0,3.8-1.7,3.8-3.8C550.7,126.7,549,125,546.9,125z"/>
</g>
<path class="st27" d="M566.3,147v-3.7c-5.9,0-20.9,0-26.9,0c-2.1,0-3.8,1.7-3.8,3.8c0,3,0,23.7,0,26.9h3.8c1,0,2-0.4,2.7-1.1l23-23
	C566,149,566.3,148,566.3,147z"/>
</svg>
