<?xml version="1.0" encoding="utf-8"?>
<!-- Generator: Adobe Illustrator 22.1.0, SVG Export Plug-In . SVG Version: 6.00 Build 0)  -->
<svg version="1.1" id="Layer_1" xmlns="http://www.w3.org/2000/svg" xmlns:xlink="http://www.w3.org/1999/xlink" x="0px" y="0px"
	 viewBox="0 0 1045.4 448.5" style="enable-background:new 0 0 1045.4 448.5;" xml:space="preserve">
<style type="text/css">
	.st0{fill:#565556;}
	.st1{fill:#FFFFFF;stroke:#000000;stroke-width:1.2744;stroke-miterlimit:10;}
	.st2{fill:#FFFFFF;}
	.st3{fill:#DBD5D7;}
	.st4{stroke:#000000;stroke-width:0.6372;stroke-miterlimit:10;}
	.st5{fill:#FFCE55;}
	.st6{fill:#FFB3C9;}
	.st7{fill:none;stroke:#000000;stroke-width:2.5694;stroke-linecap:round;stroke-linejoin:round;}
	.st8{stroke:#000000;stroke-miterlimit:10;}
	.st9{fill:#F9EBD2;}
	.st10{fill:#DDDDDD;}
	.st11{fill:#A58C6B;}
	.st12{fill:#896F40;}
	.st13{opacity:0.82;fill:#F2C5DC;enable-background:new    ;}
	.st14{fill:#56432B;}
	.st15{fill:none;stroke:#231F20;stroke-linecap:round;stroke-linejoin:round;}
	.st16{opacity:0.82;fill:#68160D;enable-background:new    ;}
	.st17{fill:#F3A3AC;}
	.st18{fill:#9BD9E7;}
	.st19{fill:#F7C5C3;}
	.st20{fill:#F1909B;}
	.st21{fill:#FADCE0;}
	.st22{fill:#D24D64;}
	.st23{fill:none;stroke:#F79086;stroke-width:1.9532;stroke-linecap:round;stroke-linejoin:round;}
	.st24{fill:#231F20;}
	.st25{fill:#D8BC7D;}
	.st26{fill:#A88B43;}
	.st27{fill:#F9E8B2;}
	.st28{fill:#F9F0DC;}
	.st29{fill:#C6AC63;}
	.st30{fill:none;stroke:#A88B42;stroke-linecap:round;stroke-linejoin:round;}
	.st31{fill:#158FCF;}
	.st32{fill:#F27A5A;}
	.st33{fill:none;stroke:#B78B29;stroke-width:0.4968;stroke-linecap:round;stroke-linejoin:round;}
	.st34{fill:none;stroke:#B78B29;stroke-width:0.4127;stroke-linecap:round;stroke-linejoin:round;}
	.st35{fill:#5E3918;}
	.st36{fill:#A54426;}
	.st37{fill:#F9EAC2;}
	.st38{fill:#F9F8E2;}
	.st39{fill:#F7C743;}
	.st40{fill:#EBBD54;}
	.st41{fill:#D65C2E;}
	.st42{fill:#DB6F4D;}
	.st43{fill:#ED7D5F;}
	.st44{fill:#F28E70;}
	.st45{fill:#E5E2BD;}
	.st46{fill:#F7DA76;}
	.st47{fill:#F9DC9B;}
	.st48{fill:none;stroke:#231F20;stroke-width:0.8506;stroke-linecap:round;stroke-linejoin:round;}
	.st49{fill:#8BD6C1;}
	.st50{fill:#F99BAD;}
	.st51{fill:#FCDEE7;}
	.st52{fill:#D15D78;}
	.st53{fill:#81CEC7;}
	.st54{fill:none;stroke:#231F20;stroke-width:0.8305;stroke-linecap:round;stroke-linejoin:round;}
	.st55{fill:none;stroke:#231F20;stroke-width:0.6201;stroke-miterlimit:10;}
	.st56{fill:#0C0C0C;}
	.st57{fill:#F4F3F2;}
	.st58{fill:none;}
	.st59{fill:#57C4C6;}
</style>
<g id="Layer_2_2_">
	<g id="Alpaca">
		<path class="st0" d="M989.3,252c0-5.1-4.1-9.2-9.2-9.2h-20.8c-5.1,0-9.2,4.1-9.2,9.2l0,0c0,1.1,0.2,2.1,0.5,3.1
			c1.6,8.9,9.4,46.8,22.4,47.1c13.6,0.2,15.8-41.6,16.1-48.1C989.2,253.4,989.3,252.7,989.3,252L989.3,252z"/>
		<path class="st1" d="M1004,236.6"/>
		<path class="st2" d="M853.3,166.5h97.2c32.6,0,59,26.4,59,59v47.2c0,7.8-6.3,14.2-14.2,14.2l0,0H853.3c-7.8,0-14.2-6.3-14.2-14.2
			v-92.1C839.2,172.8,845.5,166.5,853.3,166.5L853.3,166.5z"/>
		<path class="st0" d="M857.8,271c1.1-5-2.1-9.9-7.1-10.9l-20.3-4.4c-5-1.1-9.9,2.1-10.9,7.1l0,0c-0.2,1-0.3,2.1-0.1,3.1
			c-0.3,9.1-0.6,47.8,12.1,50.7c13.3,3.1,24.2-37.3,25.8-43.7C857.4,272.3,857.6,271.7,857.8,271z"/>
		<path class="st3" d="M925.3,272.6c1.4-4.9-1.4-10-6.3-11.4l-20-5.7c-4.9-1.4-10,1.4-11.4,6.3l0,0c-0.3,1-0.4,2.1-0.3,3.1
			c-0.9,9-3.9,47.6,8.6,51.4c13,4,26.6-35.6,28.7-41.8C924.8,273.9,925.1,273.3,925.3,272.6L925.3,272.6z"/>
		<path class="st3" d="M1011.2,266.4c0-5.1-4.1-9.2-9.2-9.2h-20.8c-5.1,0-9.2,4.1-9.2,9.2l0,0c0,1.1,0.2,2.1,0.5,3.1
			c1.6,8.9,9.4,46.8,22.4,47.1c13.6,0.2,15.8-41.6,16.1-48.1C1011.1,267.8,1011.2,267.1,1011.2,266.4L1011.2,266.4z"/>
		<path d="M924.4,166.5c0,0,15.7,67.9-45.6,69.1s-4.8-69.1-4.8-69.1H924.4z"/>
		<path d="M950.6,166.3c0,0-5.7,68.3,59,83.4v-21.4c0,0,2.2-22.4-13.2-40.2C980.9,170.3,963.8,166.3,950.6,166.3z"/>
		<path class="st4" d="M988,181.4l-1.3,0c0-0.5,0.5-12.9,9.1-20.9c5-4.7,11.7-6.9,20-6.6c8,0.3,13.1-1.3,15.1-4.9
			c3.2-5.8-2.9-15-3-15.1l1.1-0.7c0.3,0.4,6.7,9.9,3.1,16.4c-2.2,4-7.7,5.8-16.2,5.5c-7.9-0.3-14.3,1.8-19,6.2
			C988.4,169,988,181.2,988,181.4z"/>
		<path class="st5" d="M838.2,108.2c0.2,0.1,0.3,0.2,0.5,0.2c0.8,0.4,1.7,0.9,2.4,1.3c2.4,1.5,4.8,3.1,7,4.8
			c16.9-15.6-1.8-36.8-3.1-25.3c-0.8,7.1-6.2,13.5-10.5,17.5c1.1,0.4,2.2,0.8,3.3,1.3C837.9,108,838.1,108.1,838.2,108.2z"/>
		<path d="M781.3,116.5c0,0-36.1-17.2-53.4-6.6s19.1,36.7,32.6,37.3c2.6,0.1,5.2,0,7.8-0.4c4.5-10.8,10.3-21,17.9-28.7
			C784.7,117.4,783,116.8,781.3,116.5z"/>
		<path d="M877.8,147c13.5-0.6,49.9-26.6,32.6-37.1c-17.3-10.5-53.4,6.6-53.4,6.6c-1.7,0.3-3.4,0.8-5,1.6l0,0c0,0-0.3-0.3-0.8-0.7
			c-0.5-0.4-1.1-1-1.9-1.8c-2.6-2.2-5.3-4.2-8.2-5.9c-0.8-0.5-1.6-0.9-2.4-1.3c-0.2-0.1-0.3-0.2-0.5-0.2c-0.2-0.1-0.3-0.1-0.5-0.2
			c-4.6-2-9.4-3.2-14.3-3.7c-3-0.4-6-0.3-8.9,0l0,0c0,0.3,5.3,47.5,58.7,50.8h0l0-0.1l-3.1-8.1l-0.1-0.2l0,0
			C872.6,147,875.2,147.2,877.8,147z"/>
		<path class="st5" d="M789.4,89.2c-1.3-11.8-21.4,11.4-1.1,27c3.8-3.5,8.1-6.4,12.8-8.5C796.7,103.9,790.2,97,789.4,89.2z"/>
		<path class="st6" d="M850.4,188.1H788c-15.4,0.1-28.8,10.4-32.9,25.2c-0.8,2.9-1.2,5.9-1.2,8.8v4.5c0.1,18.8,15.3,34,34.1,34.1
			h62.4c18.8-0.1,34-15.3,34.1-34.1v-4.5c0-3-0.4-6-1.2-8.9C879.2,198.5,865.8,188.1,850.4,188.1z M858.4,212.7
			c1.8-3.1,4.7-4.8,6.5-3.8c1.8,1,1.8,4.4-0.1,7.5c-1.8,3.1-4.7,4.8-6.5,3.8S856.6,215.9,858.4,212.7L858.4,212.7z M773.6,208.9
			c1.8-1,4.7,0.7,6.5,3.8s1.8,6.5,0.1,7.5c-1.8,1-4.7-0.7-6.5-3.8S771.8,210,773.6,208.9L773.6,208.9z"/>
		<ellipse transform="matrix(0.5 -0.866 0.866 0.5 244.9453 853.4366)" class="st2" cx="861.6" cy="214.6" rx="6.5" ry="3.7"/>
		<ellipse transform="matrix(0.866 -0.5 0.5 0.866 -3.2218 417.1562)" class="st2" cx="776.8" cy="214.6" rx="3.7" ry="6.5"/>
		<path class="st2" d="M873.2,155.3c-6-0.3-12-1.4-17.7-3.1c-1.1-0.5-2.2-0.9-3.4-1.1c-33.8-12.4-37.6-46.6-37.7-46.8
			c-4.6,0.5-9.1,1.6-13.4,3.5c-4.7,2.1-9,5-12.8,8.5c-0.7,0.6-1.3,1.3-2,1.9c-7.7,7.7-13.5,17.9-17.9,28.7
			c-7.6,18.7-12.2,38.6-13.5,58.7c0.1,1.8,0,7.4,0.3,7.7c4-14.8,17.5-25.2,32.9-25.2h62.4c15.4,0.1,28.8,10.4,32.9,25.2L873.2,155.3
			z"/>
		<path d="M848.5,176c3.3,0,5.9-5.3,5.9-11.9c0-6.6-2.7-11.9-5.9-11.9s-5.9,5.3-5.9,11.9S845.2,176,848.5,176z M844.9,164.7
			c0-1.1,0.5-2,1.1-2c0.6,0,1.1,0.9,1.1,2c0,1.1-0.5,2-1.1,2C845.4,166.7,844.9,165.8,844.9,164.7L844.9,164.7z"/>
		<path class="st7" d="M844.2,149.9c0,0,2.5,3.9,13.6,6"/>
		<path d="M799.7,164.1c0-6.6-2.7-11.9-5.9-11.9s-5.9,5.3-5.9,11.9s2.7,11.9,5.9,11.9S799.7,170.7,799.7,164.1z M796.2,166.7
			c-0.6,0-1.1-0.9-1.1-2c0-1.1,0.5-2,1.1-2s1.1,0.9,1.1,2C797.3,165.8,796.8,166.7,796.2,166.7L796.2,166.7z"/>
		<path class="st7" d="M798,149.9c0,0-2.5,3.9-13.6,6"/>
		<path class="st8" d="M1023.8,121.7c0,0-5.4,16.9,4.5,14.7C1038.3,134.2,1030.2,124.9,1023.8,121.7z"/>
	</g>
</g>
<g id="Layer_2_4_">
	<g id="Alpaca_1_">
		<path class="st9" d="M157.8,35.9c-7.2-2.2-9.9-11.2-10.9-18.1s19.9,0.4,22.9,4.2C178.6,32.9,165.1,38.2,157.8,35.9z"/>
		<path class="st9" d="M262.6,35.9c7.2-2.2,9.9-11.2,10.9-18.1s-19.9,0.4-22.9,4.2C241.8,32.9,255.4,38.2,262.6,35.9z"/>
		<circle class="st10" cx="199.1" cy="23.4" r="14.7"/>
		<path class="st11" d="M6,223.5c-0.2,0.2-0.3,0.5-0.5,0.7c-4.2,6.9-2,15.9,4.9,20.1c-2.3,7.2,1.2,14.9,8.1,17.9
			c-3.2,6.9-0.6,15.1,6,18.9c2.5,4.1,6.9,6.7,11.7,7c0.7,5.3,4.2,9.9,9.1,11.8c-2.3,3.2-2.7,7.4-1,11c0,0.3,0,0.6,0,0.9
			c0,3.7,1.8,7.1,4.8,9.2c-0.3,1.4-0.3,2.9,0,4.3c1.2,6.1,7.2,10.1,13.3,8.9c6.1-1.2,10.1-7.2,8.9-13.3c3.9-2.8,5.6-7.9,4.2-12.5
			c3.3-2.4,5.1-6.4,4.6-10.5c1.4,0.6,2.8,1.1,4.3,1.2c0.3,2.4,1.3,4.6,2.7,6.6c-1.2,3.3-0.8,7,1.1,9.9c-1.6,4-0.8,8.6,2.1,11.8
			c1,5.2,5.5,9,10.8,9.1c6.3,0.2,11.5-4.8,11.6-11c3.5-3.6,4.2-9,1.8-13.4c1.8-1.1,3.2-2.7,4.1-4.6c3.4-0.7,6.4-2.7,8.5-5.4
			c0.6,0.1,1.2,0.1,1.8,0.1c2.7,0,5.4-0.8,7.7-2.2c5.8,3.1,12.9,2,17.5-2.7c2.3,2.4,5.4,4,8.8,4.4c-2.4,4-2.2,9,0.6,12.8
			c-2.3,4.2-1.7,9.5,1.6,13.1c-0.3,1.4-0.3,2.9-0.1,4.4c1.1,6.2,7,10.3,13.1,9.2c6.2-1.1,10.3-7,9.2-13.1c4.1-4,4.5-10.5,1-15
			c5.3-1.1,9-5.7,9-11.1c0-0.3,0-0.7-0.1-1c4.1,1.6,8.8,1.3,12.6-1c0,0.1,0.1,0.1,0.1,0.2c-3.6,4-3.9,10.1-0.6,14.4
			c-2.3,4.2-1.7,9.5,1.6,13.1c-0.3,1.5-0.3,3.1,0,4.6c1.2,6.1,7.2,10.2,13.3,9c6.1-1.2,10.2-7.2,9-13.3c2.5-2.6,3.6-6.2,3-9.8
			c3.4-1.1,6-3.8,7.2-7.2c4.3-1.1,7.8-4.1,9.7-8.1c5.1-0.3,9.7-3.3,12-7.9c7.1-1,12.5-7.1,12.6-14.3c0,0,0,0,0,0
			c7.8-2.1,12.4-10.2,10.2-18c4.9-4.4,6.2-11.6,3.2-17.5c3.3-6.5,1.4-14.5-4.6-18.7c0.8-1.3,1.4-2.7,1.8-4.2
			c2-7.8-2.7-15.8-10.5-17.8c1.4-4.9,0.2-10.2-3.2-14c1.4-4.9,0.2-10.2-3.2-13.9c4.7-5.2,5.1-13,0.9-18.6c3.8-5,3.9-11.9,0.3-17.1
			c3.6-5.2,3.4-12.1-0.4-17.1c3.8-5,4-11.9,0.4-17.1c3.8-5.6,3.3-13.1-1.3-18.1c0,0,0,0,0.1-0.1c5.4-6,4.9-15.3-1.1-20.7
			c0.2-0.2,0.3-0.3,0.5-0.5c5.4-6,5-15.3-1-20.7c-6-5.4-15.3-5-20.7,1s-5,15.3,1,20.7c-5.5,5.5-5.7,14.4-0.5,20.2
			c-0.4,0.4-0.7,0.8-1,1.2h-77.2c-0.3-0.4-0.6-0.8-1-1.2c5.3-5.8,5-14.7-0.5-20.2c2.9-3.2,4.3-7.5,3.8-11.8c5.6-2.8,8.8-8.8,8-15
			c-1-8-8.4-13.7-16.4-12.7c-8,1-13.7,8.4-12.7,16.4c-1.4,0.7-2.7,1.6-3.8,2.7c-5.7,5.7-5.8,15,0,20.8c-5.2,5.6-5.2,14.2-0.1,19.8
			c-4.6,5-5.1,12.5-1.3,18.1c-3.5,5.2-3.4,12.1,0.4,17.1c-3.8,5-4,11.9-0.4,17.1c-3.6,5.2-3.4,12,0.3,17.1
			c-4.2,5.6-3.8,13.4,0.9,18.6c-0.3,0.3-0.5,0.6-0.8,0.9c-5.4-5.1-13.7-5.4-19.4-0.7c-5.4-4.4-13.1-4.5-18.5-0.1
			c-5.2-4.2-12.6-4.3-18-0.3c-4.9-1.8-10.5-0.8-14.4,2.6c-5.2-4.4-12.7-4.7-18.2-0.6c-4.5-3.4-10.6-3.8-15.6-1.2
			c-7-3.7-15.6-1.2-19.6,5.6c0,0-0.1,0-0.1,0c-1.8,0-3.5,0.3-5.1,0.9c-7.6,2.8-11.4,11.3-8.6,18.8c-4.4,2.6-7.1,7.4-7.1,12.6
			C3.4,218.2,4.3,221.1,6,223.5z"/>
		<path class="st12" d="M167,173.7c48.7,47.5,87.5,1.9,87.5,1.9C209.3,210.8,167,173.7,167,173.7z"/>
		<circle class="st9" cx="211.8" cy="65.8" r="53.4"/>
		<ellipse class="st13" cx="178.4" cy="79.5" rx="11.1" ry="1.7"/>
		<ellipse class="st13" cx="243.7" cy="79.5" rx="11.1" ry="1.7"/>
		<path class="st14" d="M211,88.1c-2.7,0.4-10.4-3.9-7.4-7.5c3-3.7,14.4-2.1,14.8,0C219.3,85.6,213.7,87.7,211,88.1z"/>
		<ellipse class="st11" cx="177.2" cy="29.5" rx="14.8" ry="15"/>
		<ellipse class="st11" cx="196.2" cy="19.9" rx="14.8" ry="15"/>
		<ellipse class="st11" cx="221.1" cy="15.5" rx="14.8" ry="15"/>
		<ellipse class="st11" cx="236.3" cy="25.1" rx="14.8" ry="15"/>
		<path class="st11" d="M163.9,30.7c17.6-11.4,32-19.2,34.8-14.5c2.9,4.6-9.1,17.6-26.7,29s-5.3,51.7-8.2,47.1
			S146.3,42.1,163.9,30.7z"/>
		<path class="st11" d="M259.5,30c-17.6-11.4-32-19.2-34.8-14.5c-2.9,4.6,9.1,17.6,26.7,29s5.3,51.7,8.2,47.1
			C262.5,87,277.2,41.4,259.5,30z"/>
		<ellipse class="st11" cx="210.9" cy="25.7" rx="14.8" ry="15"/>
		<path class="st15" d="M179.8,66.3c5.8-9.1,20-3.1,20-3.1c0.8-2.8-10.7-8.4-20-2.5"/>
		<path class="st15" d="M242.8,66.3c-5.8-9.1-20-3.1-20-3.1c-0.8-2.8,10.7-8.4,20-2.5"/>
		<path class="st16" d="M199.2,94.1c-16,15.7,17.4,16.4,20.8,14.4s1.1-11.3-0.4-13.3C219.6,95.1,205.2,88.1,199.2,94.1z"/>
		<path class="st17" d="M207.8,108.9c-2.8-0.3-5.6-0.9-8.3-2c-8.2-3.6-3.8-9.2-1.7-11.5c2.2-2.7,3.4-2.8,3.4-2.8
			C208.8,91.9,212.8,109.5,207.8,108.9z"/>
		<path class="st18" d="M256.8,72.7c2.6-1.8-7.3-3.9-11.4-3.7C245.4,69,254.2,74.5,256.8,72.7z"/>
		<path class="st18" d="M265.1,63.1c1.5-2.8-8.3,0-11.8,2C253.3,65.2,263.6,65.9,265.1,63.1z"/>
		<path class="st18" d="M163.8,72.7c-2.6-1.8,7.3-3.9,11.4-3.7C175.2,69,166.4,74.5,163.8,72.7z"/>
		<path class="st18" d="M155.6,63.1c-1.5-2.8,8.3,0,11.8,2C167.4,65.2,157.1,65.9,155.6,63.1z"/>
	</g>
</g>
<g id="Layer_2_5_">
	<g id="Pig">
		<path class="st19" d="M719.8,308.6c-3,6.9,6.4,30.1,6.4,30.1h12c0,0,6.9-24.8,4.9-30.1C740.7,302.4,724.3,298.1,719.8,308.6z"/>
		<path class="st19" d="M743.5,324.8l-86.1,5.5c-21.2-0.1-38.3-17.2-38.4-38.4v-34.7c0-11.9,9.6-21.4,21.5-21.5h82.6
			c31.5,0.1,57,25.6,57.1,57.1l0,0C780.2,313.4,764.1,324.8,743.5,324.8z"/>
		<path class="st17" d="M722.4,235.8c0,0-11.9,58.1-102.6,22.2c0,0,87.4,62.7,113.1-21.5C733,236.6,723.6,235.1,722.4,235.8z"/>
		<path class="st19" d="M756.5,308.6c-3,6.9,6.4,30.1,6.4,30.1h12c0,0,6.9-24.8,4.9-30.1C777.4,302.4,761,298.1,756.5,308.6z"/>
		<path class="st19" d="M619.4,305c-4.9,5.7-2.7,30.7-2.7,30.7l11.5,3.5c0,0,13.9-21.7,13.5-27.3C641.2,305.2,626.8,296.2,619.4,305
			z"/>
		<path class="st19" d="M654.5,308.6c-3,6.9,6.4,30.1,6.4,30.1h12c0,0,6.9-24.8,4.9-30.1C675.5,302.4,659.1,298.1,654.5,308.6z"/>
		<path class="st19" d="M617.4,166.1c15.1-29.4,89.9-23.9,101.8,16.7s13.3,104.8-87.5,76.4C567.5,241,617.4,166.1,617.4,166.1z"/>
		<path class="st20" d="M625.8,151.1c-11.7-1.9-53.9,17.3-36.7,37c29.3,33.6,29.4-16.3,36.3-20.6C637,160.4,641.2,153.5,625.8,151.1
			z"/>
		<path class="st20" d="M717.7,167.5c12,2.1,46.3,34.8,23,48.1c-39.6,22.6-22.9-25.6-28.2-32.1C703.7,172.7,701.9,164.7,717.7,167.5
			z"/>
		<path class="st2" d="M640.4,200.8c-0.8,1.9-2.8,3.1-4.5,2.6s-2.4-2.3-1.6-4.2c0.8-1.9,2.8-3.1,4.5-2.6
			C640.5,197,641.2,198.9,640.4,200.8z"/>
		<path class="st21" d="M619.4,222.3c-6.8,28,26.1,29.4,34.2,19.9c4-4.7,4.3,4.3,10,7.8c2.2,1.3,27.4,17.3,32.4-13.2
			S627.1,190.8,619.4,222.3z"/>
		<path class="st22" d="M668,227.2c-6,3.7-5.4,13,3.7,13C680.8,240.2,675.3,222.7,668,227.2z"/>
		<path class="st22" d="M648.2,223.3c5.4,4.6,3.3,13.7-5.7,12.2C633.5,234.1,641.7,217.7,648.2,223.3z"/>
		<path class="st23" d="M646.3,255.3c1.8-2.9,8.5-7,14.6,1.2"/>
		<path class="st17" d="M619.4,235.6c0,0,15.8,18.2,35.1,3.8c4.3-2.7,8.6,5.1,10.8,7.5c2.2,2.4,14.2,9,27,1c0,0-3.8,10.4-18.9,6.5
			c-15.6-4.1-12.4-10.9-16.9-11.1c-5.8-0.2-16.4,10-31.3,0.2C618.5,238.2,619.4,235.6,619.4,235.6z"/>
		<path class="st17" d="M627.8,301.4c0,0,20.4,2.8,9.9,21.8C637.7,323.2,654,301.4,627.8,301.4z"/>
		<path class="st17" d="M768.6,302.2c0,0-14.6-2-9.9,24.4C758.7,326.7,744.9,294.8,768.6,302.2z"/>
		<path class="st17" d="M665.5,302.2c-8,0.6-14.6,1.6-7.8,27.3c0,0-11.3-24.8-3.7-27.3C661.5,299.7,665.5,302.2,665.5,302.2z"/>
		<polygon class="st17" points="721.8,326.2 725.4,325.9 726.2,333.7 724.3,333.7 		"/>
		<path class="st22" d="M592.4,191.7c1.7-5.8,18.5-23.1,32.7-23.9c-5.7,9.3-7.8,36.9-22.8,31.1C596.8,196.6,592.4,191.7,592.4,191.7
			z"/>
		<path class="st22" d="M712.5,183.5c0.2,0.1,0.3,0.2,0.5,0.3c5.3,3.6,27.2,27.6,22.5,34.5c-5.3,2.1-24.5,13.3-22.1-20.7
			L712.5,183.5z"/>
		<path class="st24" d="M644.3,188.1c-3.8,4.4-8.9,7.5-14.5,8.9c0.2,5.5,4.3,9.9,9.3,9.9c5.1,0,9.3-4.6,9.3-10.3
			C648.4,193.3,646.9,190.1,644.3,188.1z"/>
		<path class="st15" d="M627.2,197.9c0,0,12.9-3.2,19-11.7"/>
		<path class="st2" d="M640.4,200.8c-0.8,1.9-2.8,3.1-4.5,2.6s-2.4-2.3-1.6-4.2c0.8-1.9,2.8-3.1,4.5-2.6
			C640.5,197,641.2,198.9,640.4,200.8z"/>
		<path class="st24" d="M678.2,194.6c3.8,4.4,8.9,7.5,14.5,8.9c-0.2,5.5-4.3,9.9-9.3,9.9c-5.1,0-9.3-4.6-9.3-10.3
			C674.1,199.8,675.6,196.7,678.2,194.6z"/>
		<path class="st15" d="M695.2,204.4c0,0-12.9-3.2-19-11.7"/>
		<path class="st2" d="M683.5,206.8c-0.8,1.9-2.8,3.1-4.5,2.6c-1.7-0.4-2.4-2.3-1.6-4.2c0.8-1.9,2.8-3.1,4.5-2.6
			C683.5,203,684.3,204.9,683.5,206.8z"/>
	</g>
</g>
<g id="Layer_2_7_">
	<g id="sheep">
		<polygon class="st25" points="350.2,296.5 354.1,325.6 365.1,325.6 370.6,296.1 		"/>
		<polygon class="st26" points="362.7,334.2 361.5,331.2 359.8,334.2 358.1,331.2 356.4,334.2 354.1,325.6 365.1,325.6 		"/>
		<polygon class="st25" points="299.9,296.8 303.7,325.9 314.8,325.9 320.2,296.4 		"/>
		<polygon class="st26" points="312.3,334.5 311.1,331.5 309.4,334.5 307.7,331.5 306,334.5 303.7,325.9 314.8,325.9 		"/>
		<polygon class="st25" points="272.5,299.5 276.4,328.6 287.4,328.6 292.9,299.1 		"/>
		<polygon class="st26" points="285,337.2 283.8,334.2 282.1,337.2 280.4,334.2 278.7,337.2 276.4,328.6 287.4,328.6 		"/>
		<polygon class="st25" points="375.8,296.8 379.7,325.8 390.7,325.8 396.2,296.4 		"/>
		<polygon class="st26" points="388.3,334.4 387,331.5 385.3,334.4 383.7,331.5 382,334.4 379.7,325.8 390.7,325.8 		"/>
		<circle class="st27" cx="391.1" cy="287.3" r="21.1"/>
		<circle class="st27" cx="399.7" cy="275.3" r="21.1"/>
		<path class="st27" d="M405.9,216.3v75.6c0,4-3.2,7.2-7.2,7.2H273.9c-4,0-7.2-3.2-7.2-7.2v-75.6c0-4,3.2-7.2,7.2-7.2h124.8
			C402.7,209.2,405.9,212.4,405.9,216.3z"/>
		<circle class="st27" cx="417.5" cy="205.7" r="21.1"/>
		
			<ellipse transform="matrix(0.9078 -0.4193 0.4193 0.9078 -60.2735 179.6671)" class="st28" cx="378.6" cy="227" rx="39.2" ry="42.7"/>
		<circle class="st27" cx="405.9" cy="188.1" r="21.1"/>
		<ellipse class="st27" cx="378.6" cy="171.5" rx="24.2" ry="21.1"/>
		<circle class="st27" cx="345.1" cy="192.6" r="21.1"/>
		<circle class="st27" cx="339.8" cy="184.5" r="21.1"/>
		<circle class="st27" cx="368.9" cy="184.5" r="21.1"/>
		<circle class="st27" cx="360.9" cy="291.1" r="21.1"/>
		<circle class="st27" cx="331.2" cy="291.1" r="21.1"/>
		<circle class="st27" cx="300.1" cy="291.1" r="21.1"/>
		<circle class="st27" cx="278.9" cy="291.1" r="21.1"/>
		<circle class="st27" cx="261.6" cy="275.3" r="21.1"/>
		<circle class="st27" cx="266.5" cy="222.8" r="21.1"/>
		<circle class="st27" cx="295.2" cy="213.4" r="21.1"/>
		<circle class="st27" cx="327.4" cy="213.4" r="21.1"/>
		<circle class="st27" cx="257.8" cy="252.1" r="21.1"/>
		<path class="st26" d="M344,214.1c1.5,5.5-10.9,47.6-26.7,31.5s22.9-32.1,22.9-32.1S343.3,211.6,344,214.1z"/>
		<path class="st26" d="M416.7,207.5c-1.5,5.5,10.9,47.6,26.7,31.5s-22.9-32.1-22.9-32.1S417.4,205,416.7,207.5z"/>
		<path class="st29" d="M326.4,184.5c-10,9.2,3,30.7,23.3,24.2C317.7,207.4,326.4,184.5,326.4,184.5z"/>
		<path class="st29" d="M358.9,169c-10,9.2,3,30.7,23.3,24.2C350.2,191.9,358.9,169,358.9,169z"/>
		<path class="st29" d="M397.3,203.4c6.9,11.7,30.6,3.5,28.6-17.7C417.9,216.7,397.3,203.4,397.3,203.4z"/>
		<path class="st29" d="M277.5,208.9c-10,9.2,3,30.7,23.3,24.2C268.8,231.8,277.5,208.9,277.5,208.9z"/>
		<path class="st29" d="M310.1,201.1c-13.5,1.2-16.3,26.1,3.7,33.4C289.3,214,310.1,201.1,310.1,201.1z"/>
		<path class="st29" d="M249.8,234c-1.5,13.5,22.4,21.2,33.5,3C258.2,257,249.8,234,249.8,234z"/>
		<path class="st29" d="M245.6,267.1c7.7,11.2,32.9,4.8,29.5-16.3C269.1,282.3,245.6,267.1,245.6,267.1z"/>
		<path class="st29" d="M290.6,304.2c10-9.2-0.9-29.6-21.2-23.2C301.4,282.4,290.6,304.2,290.6,304.2z"/>
		<path class="st29" d="M344.3,273.3c-13.5,1.1-17.6,23.8,2.4,31.3C322.4,283.8,344.3,273.3,344.3,273.3z"/>
		<path class="st29" d="M394.7,289.6c9.3,9.9,29.6-1.1,23-21.4C416.6,300.2,394.7,289.6,394.7,289.6z"/>
		<path class="st29" d="M377.8,282.8c-9.7,9.5,1.8,29.6,21.9,22.5C367.7,304.9,377.8,282.8,377.8,282.8z"/>
		<path class="st29" d="M318.4,246.3c-13.3,2.5-14.9,25.6,5.8,30.9C297.8,259.1,318.4,246.3,318.4,246.3z"/>
		<path class="st29" d="M312.4,305.1c12.3-5.7,8.2-28.5-13.1-28.6C329.2,287.6,312.4,305.1,312.4,305.1z"/>
		<path class="st30" d="M354,232c9.6-4.8,15.1-0.4,15.1-0.4c-4.2-4.3-10.9-5.2-16-2.1"/>
		<path class="st30" d="M405.4,220.4c-8.4-0.7-12.9,8.5-12.9,8.5c0.8-6,5.7-10.6,11.7-11.2"/>
		<path class="st31" d="M410.3,239c9.1,1.4,5-9.6,1-9.1c-4,0.6-8.9-1.7-10.8-3.8C400.5,226.2,401.2,237.7,410.3,239z"/>
		<path class="st31" d="M353.1,246.3c-9.1,1.4-5-9.6-1-9.1c4,0.6,8.9-1.7,10.8-3.8C362.8,233.5,362.1,244.9,353.1,246.3z"/>
		<path class="st32" d="M391.5,254.1c-2.2-0.7-5.5-5.2-5.5-5.2c-0.3,5.3-2.6,6.6-2.8,6.8c-0.1,0.1,3.7,3.2,5.1,2.1
			C389.5,256.6,390.6,255.3,391.5,254.1z"/>
		<path class="st33" d="M381.4,256.4c4.2-0.8,4.6-7.6,4.6-7.6"/>
		<path class="st34" d="M392.5,254.1c-2.6,0.5-7-6.1-7-6.1"/>
		<path class="st26" d="M378.7,245.6c0.7,2,2.5,2.7,5.6,3.6c3.1,0.9,7.2-5,5.8-6.4C387.1,239.9,378,243.5,378.7,245.6z"/>
	</g>
</g>
<g id="Layer_2_3_">
	<g id="Chicken_1_">
		<path class="st35" d="M839.6,401.7c-0.7-0.2-3.3,0.3-3,0.6c0.4,0.2,1.5-0.1,1.9,0s-3,1.1-3.1,1.7c0,0.6,3.2-0.9,3.6-1.1
			c0.4-0.2-0.7,1.7-0.7,2.1c-0.1,0.4,0.6-0.1,1.8-2.4c0.4-0.3,0.9,0.2,1,0.2C841.1,402.6,841,402.1,839.6,401.7z"/>
		<path class="st35" d="M851.2,402c-0.7-0.2-3.3,0.3-3,0.6c0.4,0.2,1.5-0.1,1.9,0c0.4,0.1-3,1.1-3.1,1.7c0,0.6,3.2-0.9,3.6-1.1
			c0.4-0.2-0.7,1.7-0.7,2.1c-0.1,0.4,0.6-0.1,1.8-2.4c0.4-0.3,0.9,0.2,1,0.2C852.7,402.9,852.6,402.4,851.2,402z"/>
		<path class="st35" d="M891.8,402.1c-0.7-0.2-3.3,0.3-3,0.6c0.4,0.2,1.5-0.1,1.9,0c0.4,0.1-3,1.1-3.1,1.7s3.2-0.9,3.6-1.1
			c0.4-0.2-0.7,1.7-0.7,2.1c-0.1,0.4,0.6-0.1,1.8-2.4c0.4-0.3,0.9,0.2,1,0.2C893.3,403,893.2,402.4,891.8,402.1z"/>
		<path class="st35" d="M903.5,402.1c-0.7-0.2-3.3,0.3-3,0.6c0.4,0.2,1.5-0.1,1.9,0c0.4,0.1-3,1.1-3.1,1.7s3.2-0.9,3.6-1.1
			c0.4-0.2-0.7,1.7-0.7,2.1c-0.1,0.4,0.6-0.1,1.8-2.4c0.4-0.3,0.9,0.2,1,0.2C905,403,904.9,402.4,903.5,402.1z"/>
		<polygon class="st35" points="779.1,386.3 775.2,396.7 776.3,396.7 780,386.3 		"/>
		<path class="st35" d="M775.7,395.9c-1.7-0.4-8.4,0.7-7.8,1.5c1,0.4,3.9-0.2,4.9,0s-7.8,2.9-7.8,4.3c-0.1,1.4,8.2-2.3,9.1-2.9
			s-1.8,4.5-1.9,5.3c-0.1,1.1,1.5-0.3,4.5-6.2c0.9-0.7,2.2,0.5,2.5,0.4C779.4,398.2,779.2,396.8,775.7,395.9z"/>
		<polygon class="st35" points="746.4,386.3 742.6,396.7 743.7,396.7 747.4,386.3 		"/>
		<path class="st35" d="M743.1,395.9c-1.7-0.4-8.4,0.7-7.8,1.5c1,0.4,3.9-0.2,4.9,0s-7.8,2.9-7.8,4.3c-0.1,1.4,8.2-2.3,9.1-2.9
			s-1.8,4.5-1.9,5.3c-0.1,1.1,1.5-0.3,4.5-6.2c0.9-0.7,2.2,0.5,2.5,0.4C746.8,398.2,746.6,396.8,743.1,395.9z"/>
		<path class="st36" d="M707.7,323.1c0.9,2.8-0.3,10.7,1.9,13c2.2,2.3,10.9-2.8,3.7-12.7S707.7,323.1,707.7,323.1z"/>
		<path class="st37" d="M805.2,328c1.3,3.4-1.2,22-18.4,12.8c-10.8-5.8-20.5-7-26.2-7.1l0,0c-4.5-1.6-20.2-31.1-20.2-31.1l0,0
			c-2-8.7-9.4-15.2-18.2-15.2c-10.3,0-18.7,8.8-18.7,19.7c0,5,1.8,9.9,5.2,13.6c0,0,6.6,4.7,6.6,4.8c5.5,6.2,2.7,19.9,2.5,31.2
			c-0.7,2.2-1.1,4.5-1.1,6.7c0,16.3,18.2,29.5,40.6,29.5c10,0,19.2-2.6,26.3-7l0,0C824.6,381,805.2,328,805.2,328z"/>
		<path class="st38" d="M756,352c10.5,9.6,23.9,11.9,31,8.6S770,390.1,750,370C730.1,349.9,752.1,348.4,756,352z"/>
		<path class="st39" d="M705.6,310.7l-9.8,8.6c0,0,12.1,1.6,13.4-1.1S708.3,310.7,705.6,310.7z"/>
		<path class="st40" d="M701.1,319.8c0,0,7.8-2,8.4-3.2C709.5,316.6,710.6,320.7,701.1,319.8z"/>
		<path class="st41" d="M722.1,287.5c0.5-2.9-0.5-18.6,6.9-14c7.4,4.6-5.2,12.6-5.6,13.9C722.4,287.5,722.1,287.5,722.1,287.5z"/>
		<path class="st42" d="M727.5,288.2c1.7-1.9,8.1-13.8,11.4-6.9s-8.5,6.8-9.5,7.6C728.8,288.7,728.1,288.4,727.5,288.2z"/>
		<path class="st43" d="M732.7,290.8c1.9-0.6,11.3-6,10.7-0.1s-8.2,1.2-9.2,1.3C732.9,291,732.7,290.8,732.7,290.8z"/>
		<path class="st44" d="M737.5,295.9c1.5-0.2,8.9-2.8,7.7,1.4s-6.4-0.5-7.2-0.5C737.7,296.3,737.5,295.9,737.5,295.9z"/>
		<path class="st41" d="M706,322.1c-0.7,2.9-5.5,8.4-4.8,11.8c0.7,3.5,10.2,5.6,9.2-7.6S706,322.1,706,322.1z"/>
		<path class="st41" d="M805.4,328.9c-7.7-1.1-30-23.4-16.6-25.2C802.1,301.8,806.4,329,805.4,328.9z"/>
		<path class="st41" d="M805.3,328.9c3.3-2.5,2.7-30.2,15.1-22.8C832.8,313.4,805.3,328.9,805.3,328.9z"/>
		<path class="st45" d="M742.2,354.3c1.9,4,10.5,22.3,31.9,19.9c-12.2,5.9-21.2,1-29.6-10.7C740.2,357.6,742.2,354.3,742.2,354.3z"
			/>
		<polygon class="st35" points="842,395.4 839.5,402.2 840.2,402.2 842.6,395.4 		"/>
		<polygon class="st35" points="853.6,395.4 851.1,402.2 851.8,402.2 854.2,395.4 		"/>
		<circle class="st46" cx="836.6" cy="364" r="10.7"/>
		<ellipse class="st46" cx="845.8" cy="385" rx="16.5" ry="14.5"/>
		<path class="st46" d="M844.9,366c0,0,0.3,3.9,1.5,4.1c1.2,0.2,10.3,4.6,11.3,5.9s8.6,0,7.8-4.3c0,0,7.3,13.4-6.1,18
			S834.3,373.9,844.9,366z"/>
		<path class="st39" d="M829,366.5c0.4,0.4,1.4,2,1.3,2.6c-0.1,0.6-5.3,2.9-5.3,2.9l2-2.8l-3.1-2L829,366.5z"/>
		<path class="st40" d="M826.9,371c0,0,3.4-2.5,2.9-3.4c0,0,0.6,1,0.5,1.4C830.2,369.5,826.9,371,826.9,371z"/>
		<path class="st40" d="M833.9,374.7c0,0,7.4,2.3,12-4.5l2.1,0.8C848,371,842.4,378.1,833.9,374.7z"/>
		<polygon class="st35" points="894.1,395.4 891.6,402.2 892.3,402.2 894.7,395.4 		"/>
		<polygon class="st35" points="905.7,395.4 903.2,402.2 903.8,402.2 906.3,395.4 		"/>
		<circle class="st46" cx="888.7" cy="364" r="10.7"/>
		<ellipse class="st46" cx="898.3" cy="385" rx="16.2" ry="14.5"/>
		<path class="st46" d="M897,366c0,0,0.3,3.9,1.5,4.1c1.2,0.2,10.3,4.6,11.3,5.9s8.6,0,7.8-4.3c0,0,7.3,13.4-6.1,18
			C898.2,394.3,886.4,373.9,897,366z"/>
		<path class="st39" d="M881,367c0.1,0.5,0.3,2.3-0.1,2.7s-6.9-0.6-6.9-0.6l3.2-1.1l-1.3-3.4L881,367z"/>
		<path class="st40" d="M876.1,369.4c0,0,4.9-0.2,5.1-1.2c0,0,0.1,1.3-0.2,1.5C880.6,370.1,876.1,369.4,876.1,369.4z"/>
		<path class="st40" d="M886,374.7c0,0,7.4,2.3,12-4.5l2.1,0.8C900.1,371,894.5,378.1,886,374.7z"/>
		<path class="st47" d="M739.5,305.7c1.3-5,1.6,16.6-17.5,19.3C722.1,325.1,736.2,318.9,739.5,305.7z"/>
		<path class="st47" d="M717.7,356.8c1.1-3.8,8.1,31.3,59.9,32C755.8,401.6,708.9,386.3,717.7,356.8z"/>
		<path class="st38" d="M844.4,382.5c-3.1,0-3.2,4.5-0.9,5.8c2.7,1.8,9.7,2.6,9.7,2.6l-1.6-1.1l1.8,0.3l-1.4-1.2l1.5,0.2l-1-0.8
			l1.4,0.2l-1.3-0.9l1.7-0.1C854.2,387.4,846.1,382.5,844.4,382.5z"/>
		<path class="st45" d="M841.9,385.4c0.7,0.7,4,3.5,9.6,5.3C846.5,389.8,841.7,389,841.9,385.4z"/>
		<path class="st38" d="M897.7,382.5c-3.1,0-3.2,4.5-0.9,5.8c2.7,1.8,9.7,2.6,9.7,2.6l-1.6-1.1l1.8,0.3l-1.4-1.2l1.5,0.2l-1-0.8
			l1.4,0.2l-1.3-0.9l1.7-0.1C907.5,387.4,899.4,382.5,897.7,382.5z"/>
		<path class="st45" d="M895.2,385.4c0.7,0.7,4,3.5,9.6,5.3C899.8,389.8,895,389,895.2,385.4z"/>
		<path class="st46" d="M886,354.3c-0.2-1.6-1.2-1.9-1.9-1.9s0.6-1.1,2.5-0.2c0.8-1.8,1.9-0.7,2.4-0.3c-1,0.5-1.4,0.7-0.3,1.4
			C889.7,354.1,886,354.3,886,354.3z"/>
		<path class="st46" d="M835,354.2c-0.2-1.4-1.3-2.3-2-1.9c0.8-2,3.2-0.3,3.2-0.3s0.6-2.1,2-1.4c0,1-0.7,1,0.2,3.3
			C839.2,356.2,835,354.2,835,354.2z"/>
		<path class="st24" d="M710.2,299.5c-0.1,0-0.2,0-0.3,0c-1.7,0-3.1,1.4-3.1,3.1s1.4,3.1,3.1,3.1s3.1-1.4,3.1-3.1c0-0.1,0-0.1,0-0.2
			C711.7,301.9,710.7,300.8,710.2,299.5z"/>
		<path class="st48" d="M709.8,298.2c0,0.3,0.1,4.3,5.4,4.3"/>
		<circle class="st2" cx="709.8" cy="304.1" r="1.3"/>
		<path class="st49" d="M712.9,306.6c-0.4,0.8-1.1,3.4,1.4,3.3C716.8,309.8,712.9,306.6,712.9,306.6z"/>
		<path class="st49" d="M718.2,308.3c-0.4,0.8-1.1,3.4,1.4,3.3C722.1,311.4,718.2,308.3,718.2,308.3z"/>
		<path class="st24" d="M829.4,362.6C829.4,362.6,829.3,362.6,829.4,362.6c-0.9,0-1.6,0.7-1.6,1.6c0,0.9,0.7,1.6,1.6,1.6
			s1.6-0.7,1.6-1.6c0-0.1,0-0.1,0-0.2C830.2,363.7,829.7,363.2,829.4,362.6z"/>
		<circle class="st2" cx="828.6" cy="364.2" r="0.7"/>
		<path class="st24" d="M881.2,361.4C881.2,361.4,881.2,361.4,881.2,361.4c-0.9,0-1.6,0.7-1.6,1.6c0,0.9,0.7,1.6,1.6,1.6
			s1.6-0.7,1.6-1.6c0-0.1,0-0.1,0-0.2C882.1,362.5,881.5,362.1,881.2,361.4z"/>
		<circle class="st2" cx="880.5" cy="363" r="0.7"/>
		<path class="st49" d="M831.4,366.8c-0.2,0.4-0.6,1.7,0.7,1.6S831.4,366.8,831.4,366.8z"/>
		<path class="st49" d="M883,365.5c-0.2,0.4-0.6,1.7,0.7,1.6S883,365.5,883,365.5z"/>
	</g>
</g>
<g id="Layer_2_6_">
	<g id="Rabbit">
		<path class="st50" d="M226.1,413.9c-6.1,0.4,2.7,8.3,5.5,10.9c2.8,2.6,8.8,0.5,8.4-1.1c-0.4-1.6-3-2.7-3-2.7
			S232.1,413.5,226.1,413.9z"/>
		<path class="st50" d="M238.7,362.2c-64.5,36-20.2,65.5-13.3,64.3c6.9-1.2,5.2-2.5-2.6-11.2c2.5,4.3,6.1,5.8,13.9,7.6
			c1.9,0.4-1-0.2,1,0.1c5.4,0.9,13.7-5.1,15.9-2.5c8.3,9.5,20.1,6.4,21.8,5.9c3.3-0.9-4.3-9.6-1.4-9c2.9,0.6,6-0.3,13.9-0.3
			c1.8,3.1-7.5,15.3,7.6,5.6c15.1-9.7,13.4-38.7,4.9-54.3C300.4,368.4,321.6,315.9,238.7,362.2z"/>
		<path class="st50" d="M263.6,327.3c-11.1,2.4-53.3-44.6-35-63s35,28.5,39.4,51.1C268,315.4,274.7,324.9,263.6,327.3z"/>
		<path class="st51" d="M261.4,319.1c-6.8-3.1-24.1-20.6-29-36.5c-2.7-8.8,0.2-11.6,1.1-12.6c0.9-0.9,2.3-2.1,3.5-2.1
			c2,0,7,3.4,13,16.2c5.4,11.3,9.1,24.7,10.7,32.9l0.3,1.7L261.4,319.1z"/>
		<path class="st50" d="M284,327.1c10.7,2,51.4-36.7,33.7-51.8s-33.7,23.5-38,42C279.7,317.3,273.3,325.2,284,327.1z"/>
		<path class="st51" d="M286.1,320.4c6.5-2.5,23.3-16.9,27.9-30c2.6-7.2-0.2-9.6-1.1-10.3c-0.9-0.8-2.2-1.7-3.4-1.7
			c-1.9,0-6.7,2.8-12.6,13.3c-5.2,9.3-8.8,20.3-10.3,27l-0.3,1.4L286.1,320.4z"/>
		<path class="st50" d="M248,322.7c7.3-6.9,15.4-11.9,26.8-11.9c11,0,18.3,3.4,25.5,9.8s13,16.3,14.3,25.8
			c1.2,8.6,0.5,14.5-5.4,21.4c-6.9,8.1-22,11.2-34.3,11.2c-13,0-29-4.1-34.9-13.7c-4.1-6.8-5.9-10.8-5-18.8
			C236,337.7,241.3,329.1,248,322.7z"/>
		<ellipse class="st24" cx="275.2" cy="349.6" rx="4.4" ry="3.1"/>
		<path class="st52" d="M298,289.8c2-3.5,9.9-2.4,9.9-2.4C305,263.7,296.1,293.3,298,289.8z"/>
		<path class="st50" d="M298.8,277.3c10.7-5.3,16.7,54.5,25.2,33.2c8.5-21.3-6.2-35.2-6.2-35.2C307.9,265.8,298.8,277.3,298.8,277.3
			z"/>
		<circle class="st51" cx="206.3" cy="396.4" r="8.2"/>
		<path class="st52" d="M278.1,417.4c2.9-0.2,5.1-0.3,8.2-0.3c2.6-0.4,4.7-9.7,4.7-9.7C288.7,412.7,283.8,416.4,278.1,417.4z"/>
		<path class="st52" d="M238.8,363.3c17.5,23.9,61.5,10.9,61.5,10.9C253.7,390.5,238.8,363.3,238.8,363.3z"/>
		<path class="st2" d="M277.1,348.1c0.7,0,1.6,1.6,1.6,0.7c0-0.9-1.6-1.4-1.6-1.4C276.3,347.6,276.4,348.1,277.1,348.1z"/>
		<path class="st52" d="M237,422.9c-13.6-3.7-16.9-12.4-16.9-12.4C220.5,420,237,422.9,237,422.9z"/>
		<path class="st52" d="M254.4,419.9c1.1,4.3,13.4,7.3,13.4,7.3C260.8,425.2,254.4,419.9,254.4,419.9z"/>
		<path class="st52" d="M226.8,426.2c3.7-1.2,1-5.1,1-5.1C232.4,425.7,226.8,426.2,226.8,426.2z"/>
		<path class="st53" d="M295.8,349.6c3.1,0.9,2.2-4.9,0-6.5C295.8,343.1,292.8,348.8,295.8,349.6z"/>
		<path class="st53" d="M287.7,354.8c3.1,0.9,2.2-4.9,0-6.5C287.7,348.3,284.7,353.9,287.7,354.8z"/>
		<path class="st53" d="M261.6,349.6c3.1,0.9,2.2-4.9,0-6.5C261.6,343.1,258.6,348.8,261.6,349.6z"/>
		<path class="st53" d="M250.7,351.3c1.8,2.6,4.8-2.3,4.1-5C254.9,346.3,248.9,348.7,250.7,351.3z"/>
		<path class="st54" d="M266.5,361.7c6.6-9.5,16-3.1,16.8,0"/>
		<path class="st24" d="M288.4,331c-2.6,1.7-3.7,5-2.8,8c1.2,3.7,5.1,5.7,8.8,4.5c3.7-1.2,5.7-5.1,4.5-8.8
			C295.2,334.6,291.5,333.3,288.4,331L288.4,331z"/>
		<circle class="st2" cx="294" cy="336.8" r="2.1"/>
		<path class="st54" d="M302,335c-13-0.3-14.8-5.7-14.8-5.7"/>
		<path class="st24" d="M263.8,339c-1.2,3.7-5.1,5.7-8.8,4.5c-3.7-1.2-5.7-5.1-4.5-8.8c3.8-0.1,7.5-1.4,10.6-3.7
			C263.6,332.8,264.8,336,263.8,339z"/>
		<circle class="st2" cx="259.5" cy="336.3" r="2.1"/>
		<path class="st54" d="M247.4,335c13-0.3,14.8-5.7,14.8-5.7"/>
		<line class="st55" x1="274.9" y1="356.7" x2="275.2" y2="351.6"/>
	</g>
</g>
<g id="Layer_2_1_">
	<g id="Chicken">
		<path class="st10" d="M565.7,350.3c-24.8,14.8-55.6,15.2-80.8,1.1c-3.5,0.1-6.9-0.2-10.4-0.7c-3.1-0.8-8.6,2.4-14.6,6.4v55.4
			c0,2.7,0.5,5.4,1.4,7.9c2.8,7.8,9.4,13.5,17.4,15.2c1.6,0.3,3.2,0.5,4.8,0.5h81.5c1.1,0,2.2-0.1,3.3-0.3
			c8.2-1.2,15.2-6.5,18.4-14.1c1.3-2.9,1.9-6.1,1.9-9.2V361c-5.3-4.3-10.3-8.4-13.2-9.8C572.2,350.5,568.9,350.2,565.7,350.3z"/>
		<g id="ear">
			<path class="st56" d="M594.7,266.4l5.5-6c8.1-9.1,8.1-22.8,0-32l-1.2-1.3c-7.2-8.1-19.6-8.9-27.7-1.7c-0.6,0.5-1.2,1.1-1.7,1.7
				l-5,5.5C578,240.4,588.6,252.2,594.7,266.4z"/>
			<path class="st56" d="M481.9,233.9l-6.2-6.7c-7.2-8.1-19.6-8.9-27.7-1.7c-0.6,0.5-1.2,1.1-1.7,1.7l-1.2,1.3
				c-8.1,9.1-8.1,22.9,0,32l7.7,8.4C458.5,254.3,468.7,242,481.9,233.9z"/>
		</g>
		<ellipse class="st2" cx="490.9" cy="285.3" rx="17.5" ry="17.9"/>
		<ellipse class="st2" cx="562" cy="285.7" rx="17.5" ry="17.9"/>
		<path class="st57" d="M594.7,266.4c-6.1-14.2-16.6-26.1-30-33.8c-25.7-14.8-57.4-14.4-82.7,1.2c-13.2,8.2-23.4,20.4-29,34.9
			c-7.1,18.9-5.1,40.1,5.5,57.3c6.5,10.6,15.6,19.3,26.5,25.3c25.2,14.1,56,13.7,80.8-1.1c10.3-6.1,18.8-14.7,25-25
			C601.3,307.5,602.8,285.6,594.7,266.4z M466.8,277.5c0.1-0.4,0.2-0.8,0.3-1.2C467,276.7,466.9,277.1,466.8,277.5z M467.1,276.3
			c0.2-0.7,0.4-1.3,0.6-2C467.5,275,467.3,275.6,467.1,276.3L467.1,276.3z"/>
		<path class="st56" d="M520.4,311.9c1,1.4,2.7,2.3,4.4,2.5c1.8-0.1,3.4-1,4.4-2.5C528.8,308.3,520.4,308.5,520.4,311.9z"/>
		<path class="st56" d="M506.6,338.2l-1.5-1.9c0.5-0.6,10.8-13.3,18.8-15.8v-8.7h2.1v10.9l-0.9,0.2
			C517.7,324.5,506.7,338.1,506.6,338.2z"/>
		<path class="st56" d="M543.4,337.2C531,324.5,524.9,323,524.8,323l0.2-2.7c0.3,0.1,6.6,1.5,19.5,14.8L543.4,337.2z"/>
		<path class="st58" d="M550.8,264.1c-4.6,3.4-7.2,8.8-7.1,14.5c0,2.1,0.4,4.2,1.1,6.2c1.1-4.5,5.1-7.7,9.7-7.8
			c5.7,0.1,10.2,4.8,10.1,10.5c0,2.9-1.2,5.7-3.2,7.7c5.8-1.3,10.4-6.7,11.6-13.4C566.6,278.3,555.9,269.3,550.8,264.1z"/>
		<path class="st56" d="M558.5,256.4c-13.7,0-24.7,12.1-24.7,26.9s11.1,26.9,24.7,26.9c13.7,0,24.7-12.1,24.7-26.9
			C583.3,268.4,572.2,256.4,558.5,256.4z M550.3,293.1c-1.2,0-2.2-1-2.2-2.2c0-1.2,1-2.2,2.2-2.2c1.2,0,2.2,1,2.2,2.2
			C552.6,292.1,551.6,293.1,550.3,293.1L550.3,293.1z M561.4,299.9c2.1-2,3.2-4.8,3.2-7.7c0.1-5.7-4.4-10.4-10.1-10.5
			c-4.6,0.1-8.6,3.3-9.7,7.8c-0.7-2-1.1-4.1-1.1-6.2c-0.1-5.7,2.5-11.1,7.1-14.5c5.1,5.2,15.8,14.2,22.1,17.7
			C571.9,293.2,567.3,298.5,561.4,299.9L561.4,299.9z"/>
		<path class="st2" d="M550.3,288.6c-1.2,0-2.4-3.7-2.4-2.5c0,1.2,1,2.3,2.2,2.3c1.2,0,2.3-1,2.3-2.2c0,0,0-0.1,0-0.1
			C552.5,284.9,551.6,288.6,550.3,288.6z"/>
		<path class="st58" d="M501,264.1c4.6,3.4,7.2,8.8,7.1,14.5c0,2.1-0.4,4.2-1.1,6.2c-1.1-4.5-5.1-7.7-9.7-7.8
			c-5.7,0.1-10.2,4.8-10.1,10.5c0,2.9,1.2,5.7,3.2,7.7c-5.8-1.3-10.4-6.7-11.6-13.4C485.2,278.3,495.9,269.3,501,264.1z"/>
		<path class="st56" d="M468.8,283.3c0,14.9,11.1,26.9,24.7,26.9s24.7-12.1,24.7-26.9s-11.1-26.9-24.7-26.9S468.8,268.4,468.8,283.3
			z M499.5,290.9c0-1.2,1-2.2,2.2-2.2s2.2,1,2.2,2.2s-1,2.2-2.2,2.2C500.5,293.1,499.5,292.1,499.5,290.9L499.5,290.9z M479.1,286.5
			c6.3-3.5,17-12.5,22.1-17.7c4.6,3.4,7.2,8.8,7.1,14.5c0,2.1-0.4,4.2-1.1,6.2c-1.1-4.5-5.1-7.7-9.7-7.8
			c-5.7,0.1-10.2,4.8-10.1,10.5c0,2.9,1.2,5.7,3.2,7.7C484.8,298.5,480.2,293.2,479.1,286.5z"/>
		<path class="st2" d="M501.6,283.9c1.2,0,2.2,1,2.2,2.2l0,0c0,1.2-0.9,7-2.1,7c-1.2,0-2.4-5.7-2.4-7
			C499.3,284.9,500.3,283.9,501.6,283.9z"/>
		<path class="st59" d="M564.6,313.9c-2.9,5.5-5.6,16.5,0,16.8C570.2,331.1,564.6,313.9,564.6,313.9z"/>
		<path class="st56" d="M453.1,393.3c12.3-1.7,36.3,7.8,36.3,21.7s-6.1,31.5-24.8,29.8C446,443.1,430.3,396.3,453.1,393.3z"/>
		<path class="st56" d="M594.1,393.3c-12.3-1.7-36.3,7.8-36.3,21.7s6.1,31.5,24.8,29.8C601.3,443.1,616.9,396.3,594.1,393.3z"/>
		<path class="st56" d="M466.6,336.9c-16,10.1-33.9,52.4,30.7,59.8c36.3,7,27.4-18.9,18.2-21.3c-9.2-2.3-30.2-17.8-24.6-21
			C479.1,349.6,466.6,336.9,466.6,336.9z"/>
		<path class="st56" d="M583.1,335.7c16,10.1,34.4,52.9-30.2,60.4c-36.3,7-27.4-18.9-18.2-21.3s30.2-17.8,24.6-21
			C571.9,347.9,583.1,335.7,583.1,335.7z"/>
		<ellipse class="st56" cx="551.4" cy="289.5" rx="5" ry="5.6"/>
		<ellipse class="st56" cx="501" cy="288.6" rx="4.1" ry="5.3"/>
	</g>
</g>
</svg>
