<svg xmlns="http://www.w3.org/2000/svg" viewBox="0 0 203.2842 253.0467"><defs><style>.cls-1{fill:#efa818;}.cls-2{fill:#ba6a00;}.cls-3{fill:#4f3e2c;}.cls-4{fill:#fcc575;}.cls-5{fill:#0c0c0c;}.cls-6{fill:#fff;}.cls-7{fill:#de1f26;}.cls-8{fill:#f37244;}</style></defs><title>happylion</title><g id="Layer_2" data-name="Layer 2"><g id="Chicken"><path class="cls-1" d="M161.7237,64.0306c.4666-4.3836.8167-13.73-3.93-17.9782-4.6666-4.1759-12.0177-2.1835-15.5511-.8566a71.3228,71.3228,0,0,0-73.4233-.16c-3.6734-1.3149-10.5978-2.9978-15.0836,1.0163-4.455,3.9869-4.4112,12.3893-4.0043,17.0412a54.6346,54.6346,0,0,0-9.7772,30.9725c0,32.6538,29.3067,59.1247,65.4584,59.1247s65.4584-26.4709,65.4584-59.1247A54.5335,54.5335,0,0,0,161.7237,64.0306Z"/><path class="cls-2" d="M23.0845,208.5957a19.5173,19.5173,0,0,0,15.9178,2.4691c9.8234-2.3759,18.257,1.03,23.9577,4.6826a55.5482,55.5482,0,0,1-5.0324-9.8894,35.0091,35.0091,0,0,0-20.4711-1.1887,13.19,13.19,0,0,1-10.7477-1.5631c-5.9614-3.928-8.8745-12.4145-10.0172-16.7206a15.0174,15.0174,0,0,1-6.5856.8714C11.3114,192.2255,14.8,203.1313,23.0845,208.5957Z"/><path class="cls-3" d="M21.5019,179.4706c-1.8045-9.1044-13.6378-8.3022-7.42-21.5388,0,0-16.2451,9.7847-13.8384,21.5388,1.0248,5.0062,5.3618,7.392,9.8627,7.7864a15.0174,15.0174,0,0,0,6.5856-.8714C19.9215,185.1424,22.1466,182.7209,21.5019,179.4706ZM6.57,181.3479l-.5462.6164c-5.1633-4.5732-.29-12.9151-.08-13.2681l.7059.4205C6.6021,169.1973,1.9158,177.2267,6.57,181.3479Zm3.9589,1.7454C4.7609,177.7969,9.322,171.2626,9.37,171.1972l.6682.4776c-.1728.2435-4.18,6.0132,1.0473,10.8126Zm4.8423,1.3364c-4.9984-5.0717-2.35-9.3291-2.3225-9.3715l.6923.4446c-.0969.1519-2.301,3.7651,2.2172,8.35Z"/><path class="cls-4" d="M5.9439,168.6962c-.2105.3529-5.0837,8.6949.08,13.2681l.5462-.6164c-4.6538-4.1212.0325-12.1506.08-12.2312Z"/><path class="cls-4" d="M10.0379,171.6748l-.6682-.4776c-.0477.0655-4.6088,6.6,1.1589,11.8961l.5567-.6059C5.8575,177.688,9.8651,171.9183,10.0379,171.6748Z"/><path class="cls-4" d="M13.7407,175.5028l-.6923-.4446c-.0272.0424-2.6759,4.3,2.3225,9.3715l.587-.5771C11.44,179.2679,13.6438,175.6546,13.7407,175.5028Z"/><path class="cls-1" d="M52.9577,188.2788a44.5738,44.5738,0,0,0,44.4434,44.443h18.5146a44.443,44.443,0,0,0,0-88.8859H97.4011A44.5738,44.5738,0,0,0,52.9577,188.2788Zm15.319-.0023a29.1589,29.1589,0,0,1,29.1244-29.1244h18.5113a29.1244,29.1244,0,1,1,0,58.2488H97.4011A29.1589,29.1589,0,0,1,68.2767,188.2765Z"/><path class="cls-4" d="M97.4011,159.1521h18.5113a29.1244,29.1244,0,1,1,0,58.2488H97.4011a29.1244,29.1244,0,1,1,0-58.2488Z"/><path class="cls-1" d="M190.7113,188.0021c.1212,3.9777-3.0439,7.3817-7.5936,8.7409-1.8294,3.2077-5.9771,5.4553-10.882,5.4829a15.7843,15.7843,0,0,1-3.2614-.3281c-1.0147,2.4005-2.603,4.0635-4.6019,4.4714-4.3833.8953-9.0481-4.5445-10.418-12.1509-.9185-5.1-.1168-9.871,1.83-12.7354l-.5185-16.9906-1.026-24.0812c13.5684-7.4553,21.0762.6623,21.0762.6623l1.1528,37.8084a15.822,15.822,0,0,1,1.7874-.1221c5.373-.03,9.8728,2.6518,11.5991,6.3379a7.7379,7.7379,0,0,1,.3062,1.0392A7.2092,7.2092,0,0,1,190.7113,188.0021Z"/><path class="cls-1" d="M21.3084,187.6734c-.1212,3.9777,3.0439,7.3817,7.5936,8.7409,1.8294,3.2077,5.9771,5.4553,10.882,5.4829a15.7843,15.7843,0,0,0,3.2614-.3281c1.0147,2.4005,2.603,4.0635,4.6019,4.4714,4.3833.8953,9.0481-4.5445,10.418-12.1509.9185-5.1.1168-9.871-1.83-12.7354l.5185-16.9906,1.026-24.0812c-13.5684-7.4553-21.0762.6623-21.0762.6623l-1.1528,37.8084a15.822,15.822,0,0,0-1.7874-.1221c-5.373-.03-9.8728,2.6518-11.5991,6.3379a7.7379,7.7379,0,0,0-.3062,1.0392A7.2092,7.2092,0,0,0,21.3084,187.6734Z"/><path class="cls-1" d="M93.4392,229.6293v12.9151a4.4683,4.4683,0,0,1,1.89,5.195c-.97,3.1085-4.8018,5.34-8.56,4.9846a6.2974,6.2974,0,0,1-4.0366-1.8152,27.439,27.439,0,0,1-2.7705.1414c-4.1788,0-7.771-.9082-9.413-2.2135-3.9111-.5438-6.696-1.9267-6.696-3.5511,0-2.1,4.6435-3.8017,10.37-3.8017.52,0,1.0266.019,1.5257.046V227.0152Z"/><path class="cls-1" d="M119.7208,229.9148V242.83a4.4683,4.4683,0,0,0-1.89,5.195c.97,3.1085,4.8018,5.34,8.56,4.9846a6.2974,6.2974,0,0,0,4.0366-1.8152,27.439,27.439,0,0,0,2.7705.1414c4.1788,0,7.771-.9082,9.413-2.2135,3.9111-.5438,6.696-1.9267,6.696-3.5511,0-2.1-4.6435-3.8017-10.37-3.8017-.52,0-1.0266.019-1.5257.046V227.3007Z"/><path class="cls-2" d="M54.7447,146.6818s-6.06-3.6363,0,23.03c1.4207,6.25,2.32,10.3827,2.8728,13.078.4812-5.786,2.37-21.8866,8.5965-25.04a5.1583,5.1583,0,0,1,4.2883-.1592c7.1967,2.6513,5.7331,8.9971,9.5694,13.9415,2.34,3.4373,8.2173,11.3054,12.3192,10.1774,5.222-1.4359,13.5933,9.316,13.5933,9.316.22-5.7928,14.1547-6.8658,16.9442-8.2357,2.2224-1.0918,7.2412-8.5713,9.1935-11.5719,3.5452-4.8957,2.2984-11.031,9.3448-13.6273,3.1043-1.1437,5.4791.3179,7.2957,3.053,3.8646,5.8179,5.1963,17.4218,5.5891,22.1463.5525-2.6948,1.4521-6.8281,2.8728-13.078,6.06-26.6666,0-23.03,0-23.03,7.2727-9.09,21.2116,13.4294,21.2116,13.4294a31.8147,31.8147,0,0,0,1.9491-3.4426c8.08-16.6724-6.6029-26.9179,5.3236-26.35,12.7271.6059,17.5758,12.7266,17.5758,12.7266-1.8182-24.242-26.06-35.151-21.2121-38.1809s21.2121,9.6967,21.2121,9.6967c0-23.6361-28.4847-24.242-22.4244-30.991s16.3635,0,16.3635,0c-.6059-9.173-19.9993-10.8268-19.9993-20.5235s10.9085-8.4844,10.9085-8.4844c0-14.5453-19.3934-9.0913-19.3934-9.0913-.6059-17.5752,14.5453-13.7038,14.5453-13.7038-7.2727-13.7043-35.151-6.296-35.151-6.296-3.03-4.2422,8.4844-7.8785,8.4844-7.8785-15.1512-7.8785-26.06,0-26.06,0C122.0733,7.29,132.9823,2.4416,132.9823,2.4416c-12.2553-7.7984-25.0134,5.3854-26.998,7.57C104,7.8269,91.242-5.3568,78.9872,2.4416c0,0,10.9085,4.8486,2.424,15.1512,0,0-10.909-7.8785-26.06,0,0,0,11.5149,3.6363,8.4844,7.8785,0,0-27.8783-7.4083-35.151,6.296,0,0,15.1517-3.8715,14.5453,13.7038,0,0-19.3934-5.454-19.3934,9.0913,0,0,10.909-1.2123,10.909,8.4844s-19.3939,11.35-20,20.5235c0,0,10.3026-6.749,16.3635,0S8.6853,90.9252,8.6853,114.5613c0,0,16.3629-12.7271,21.2116-9.6967S10.5034,118.8035,8.6853,143.0455c0,0,4.8481-12.1207,17.5752-12.7266s-4.8486,11.1012,7.2727,29.7923c0,0,.3954-.6363,1.0761-1.6391C38.0079,153.4649,48.6864,139.1086,54.7447,146.6818Zm102.6236-100.57c6.1379,5.0612,3.5075,18.2141,3.5075,18.2141s-9.2071-15.822-20.6057-18.2141C140.27,46.1121,151.23,41.0508,157.3683,46.1121Zm-103.4772,0c6.1379-5.0612,17.0982,0,17.0982,0C59.5907,48.5042,50.3836,64.3262,50.3836,64.3262S47.7532,51.1733,53.8911,46.1121Zm52.0931,0c31.6089,0,57.2323,22.1175,57.2323,49.4009s-25.6234,49.4-57.2323,49.4-57.2318-22.1175-57.2318-49.4S74.3758,46.1121,105.9842,46.1121Z"/><path class="cls-5" d="M102.4843,106.7591a5.7123,5.7123,0,0,0,3.8725,1.8292,5.45,5.45,0,0,0,3.8746-1.8292c0-1.095-1.3243-1.7443-2.8775-1.925a7.8511,7.8511,0,0,0-1.9637.0236C103.9343,105.06,102.6665,105.68,102.4843,106.7591Z"/><ellipse class="cls-6" cx="81.6573" cy="90.073" rx="12.1532" ry="20.2896"/><ellipse cx="77.5047" cy="93.9088" rx="7.8357" ry="17.9733" transform="translate(-12.4806 11.8815) rotate(-8.1153)"/><path class="cls-3" d="M69.3863,92.7343l.0044-.0011c3.1419-4.1057,6.8982-9.0675,11.4153-11.1919a22.8229,22.8229,0,0,1,11.6116-1.73l.0027-.0032c-.0049-.0144-.01-.0262-.0154-.0406A23.3887,23.3887,0,0,0,89.19,73.2719c-.12-.1629-.2438-.3028-.3657-.4561-.2229-.2756-.4491-.5426-.683-.7931-.2174-.2355-.436-.4593-.6583-.6665-.1285-.12-.2608-.2259-.392-.3381a9.5847,9.5847,0,0,0-2.5784-1.6065c-.2372-.0993-.4744-.1976-.7171-.274-.1686-.0513-.336-.0892-.5051-.1282a7.5554,7.5554,0,0,0-.946-.1688c-.1208-.0128-.2416-.0235-.3624-.03a7.638,7.638,0,0,0-1.1058.0134c-.0829.0069-.1653.0107-.2482.0208a7.6271,7.6271,0,0,0-1.12.2206c-.0928.0246-.1861.0433-.2789.071a8.2937,8.2937,0,0,0-.78.3,11.9994,11.9994,0,0,0-6.0056,5.9853c-.0445.0828-.08.1672-.123.25q-.3212.6016-.6122,1.2433l-.0527.1175q-.3138.7-.5913,1.442c-.017.0454-.0329.0908-.0494.1357-.1263.3434-.2366.6847-.347,1.0259-.1345.4166-.2564.8289-.3684,1.24-.06.2184-.1268.4385-.18.6548q-.2018.8115-.3514,1.5979c-.0154.0817-.0269.1661-.0417.2478-.1054.5784-.19,1.1392-.26,1.686l-.0214.17a33.2342,33.2342,0,0,0-.1878,6.15C69.3139,92.2312,69.3863,92.7343,69.3863,92.7343Z"/><path class="cls-6" d="M145.064,92.0555c0-11.2059-5.4412-20.29-12.1534-20.29-4.2791,0-8.0244,3.7107-10.19,9.2912.9232-1.6534,2.09-2.7575,3.4924-2.9576,4.2884-.6119,8.9008,6.859,10.3018,16.6859,1.1,7.714-.1276,14.5248-2.7711,17.42C140.06,111.4765,145.064,102.7841,145.064,92.0555Z"/><path d="M136.5152,94.785c-1.401-9.8269-6.0134-17.2978-10.3018-16.6859-1.4028.2-2.5691,1.3042-3.4924,2.9576-1.8988,3.4-2.6781,9.33-1.7352,15.9426,1.401,9.8273,6.0134,17.2978,10.3018,16.6863a4.2182,4.2182,0,0,0,2.4565-1.4809C136.3876,109.31,137.6151,102.499,136.5152,94.785Z"/><path class="cls-3" d="M145.1414,94.9031l-.0071-.0016c-3.2944-6.2618-4.6091-8.8869-12.4767-13.42-5.0235-2.8946-10.4685.6353-10.4849.6158l-.0027-.0032c.0049-.0143.01-.0259.0153-.04a23.1192,23.1192,0,0,1,3.2065-6.4364c.1194-.1614.2431-.3.3647-.452.2223-.2731.4479-.5377.6812-.7859.2168-.2334.4348-.4551.6565-.66.1281-.1185.26-.2239.391-.335a9.5687,9.5687,0,0,1,2.5714-1.5919c.2365-.0984.4731-.1958.7151-.2715.1681-.0508.3351-.0884.5038-.127a7.5786,7.5786,0,0,1,.9435-.1672c.12-.0127.2409-.0233.3614-.03a7.6659,7.6659,0,0,1,1.1028.0132c.0827.0069.1648.0106.2475.0206a7.65,7.65,0,0,1,1.117.2186c.0925.0243.1856.0429.2782.07a8.3038,8.3038,0,0,1,.7781.2969,11.9308,11.9308,0,0,1,5.9893,5.931c.0444.082.0794.1656.1227.2477q.32.5962.6105,1.232l.0526.1164q.3129.6938.59,1.4289c.017.045.0329.09.0493.1344.1259.34.236.6785.3461,1.0166.1342.4128.2557.8214.3674,1.2289.06.2165.1265.4345.18.6488q.2012.8042.35,1.5834c.0153.081.0268.1646.0416.2456.1051.5731.1895,1.1288.259,1.6708l.0214.1683a32.7246,32.7246,0,0,1,.1873,6.0945C145.2136,94.4046,145.1414,94.9031,145.1414,94.9031Z"/><path class="cls-7" d="M88.1426,124.6771c-2,.5456,20.5316,37.2422,37.6456,0C138.0175,98.0646,88.1426,124.6771,88.1426,124.6771Z"/><path class="cls-2" d="M80.3259,107.7221c-9.6307,12.23.2089,28.213,26.0319,13.5891,25.7486,14.5825,35.6076-1.2683,26.1152-13.4849a21.6378,21.6378,0,0,0-1.7857-2.0355c-.3278-.3283-.6556-.6321-.9829-.9264a18.27,18.27,0,0,0-6.0075-3.71c-7.4675-2.6885-13.8965,1.6553-16.343,3.68,1.5532.1807,2.8775.83,2.8775,1.925a5.45,5.45,0,0,1-3.8746,1.8292,5.7123,5.7123,0,0,1-3.8725-1.8292c.1822-1.0787,1.45-1.6993,2.9058-1.9014-2.2638-1.88-8.0335-5.8315-14.8894-4.1553a18.0853,18.0853,0,0,0-8.4729,5.0884A21.6515,21.6515,0,0,0,80.3259,107.7221Z"/><path class="cls-8" d="M98.8425,138.2306c-5.2173-3.5934,23.4732-7.0831,23.4732-7.0831S113.3528,148.2245,98.8425,138.2306Z"/></g></g></svg>