<svg xmlns="http://www.w3.org/2000/svg" viewBox="0 0 203.849 229.6341"><defs><style>.cls-1{fill:#0c0c0c;}.cls-2{fill:#ddd;}.cls-3{fill:#fff;}.cls-4{fill:#f4f3f2;}.cls-5{fill:#da3326;}.cls-6,.cls-7{fill:none;stroke:#0d0d0d;stroke-width:2px;}.cls-6{stroke-miterlimit:10;}.cls-7{stroke-linecap:round;stroke-linejoin:round;}.cls-8{fill:#f58768;}</style></defs><title>happypanda</title><g id="Layer_2" data-name="Layer 2"><g id="Chicken"><path class="cls-1" d="M45.7325,108.13c-9.2632-1.1956-15.9358-5.71-23.0306-23.62s-32.3126-.6828-18.77,30.2821,80.79,35.6027,80.79,35.6027S73.99,111.7772,45.7325,108.13Z"/><path class="cls-1" d="M158.1165,106.907c9.2632-1.1956,15.9358-5.71,23.0306-23.62s32.3126-.6828,18.77,30.2821-80.79,35.6027-80.79,35.6027S129.8591,110.5544,158.1165,106.907Z"/><g id="Body"><g id="foot"><path class="cls-1" d="M38.0994,189.0263a30.7926,30.7926,0,0,0-5.0006,5.6633c-7.7079,11.226-7.1982,25.4725,1.1148,31.8657s21.34,2.517,29.0478-8.7341a31.7687,31.7687,0,0,0,4.1406-8.5076C53.849,207.0159,42.7643,199.3415,38.0994,189.0263Z"/><path class="cls-1" d="M136.8567,211.3693a32.8324,32.8324,0,0,0,5.0179,7.7408c9.03,10.4141,22.4207,13.01,29.94,5.8727s6.2525-21.3962-2.7745-31.7852a32.8647,32.8647,0,0,0-3.6385-3.5452C161.1835,200.2415,150.3687,208.4694,136.8567,211.3693Z"/></g><path class="cls-2" d="M142.9935,129.7474a80.7323,80.7323,0,0,1-80.789,1.1352c-2.46-1.4847-3.345-4.13-6.7739-4.6682-3.1407-.7757-10.7915,10.8933-16.7892,14.9422l-1.3737,50.8759a23.3665,23.3665,0,0,0,1.3812,7.89,23.7826,23.7826,0,0,0,17.4065,15.25,23.4983,23.4983,0,0,0,4.8436.5108H142.388a23.46,23.46,0,0,0,3.2921-.2649,23.7448,23.7448,0,0,0,18.4471-14.1334,23.4042,23.4042,0,0,0,1.892-9.233L164.8966,139.58c-5.2976-4.3138-13.3038-12.1979-16.2176-13.56C145.4749,125.2723,146.2672,127.7142,142.9935,129.7474Z"/></g><g id="ear"><path class="cls-1" d="M172.017,45.8933l5.5247-6.0166a24.0475,24.0475,0,0,0,0-31.9561L176.35,6.6151a19.6013,19.6013,0,0,0-29.3641,0l-5.0138,5.5058A71.6506,71.6506,0,0,1,172.017,45.8933Z"/><path class="cls-1" d="M59.2718,13.3317l-6.168-6.7167a19.6013,19.6013,0,0,0-29.3641,0l-1.192,1.2866a24.0475,24.0475,0,0,0,0,31.9751l7.7194,8.4005A71.083,71.083,0,0,1,59.2718,13.3317Z"/></g><ellipse class="cls-3" cx="68.2591" cy="64.7909" rx="17.476" ry="17.9023"/><ellipse class="cls-3" cx="139.3148" cy="65.1893" rx="17.476" ry="17.9023"/><path class="cls-4" d="M172.017,45.8933a71.6507,71.6507,0,0,0-30.0452-33.7725,80.6757,80.6757,0,0,0-82.6811,1.2109A71.0832,71.0832,0,0,0,30.2672,48.2772a65.2177,65.2177,0,0,0,5.5247,57.2713A73.0321,73.0321,0,0,0,62.28,130.8826a80.7324,80.7324,0,0,0,80.7891-1.1352,72.6919,72.6919,0,0,0,24.9746-24.9746A65.2558,65.2558,0,0,0,172.017,45.8933Z"/><path class="cls-1" d="M112.6528,60.8967c0,14.8712,11.0683,26.9233,24.7286,26.9233S162.11,75.7679,162.11,60.8967s-11.0683-26.9234-24.7286-26.9234S112.6528,46.0254,112.6528,60.8967Zm10,0c0-9.3311,6.6074-16.9229,14.7285-16.9229S152.11,51.5652,152.11,60.8963,145.5025,77.82,137.3814,77.82,122.6529,70.2283,122.6529,60.8963Z"/><path class="cls-1" d="M43.5305,60.8967c0,14.8712,11.0683,26.9233,24.7286,26.9233S92.9878,75.7679,92.9878,60.8967,81.9195,33.9733,68.2591,33.9733,43.5305,46.0254,43.5305,60.8967Zm10,0c0-9.3311,6.6074-16.9229,14.7285-16.9229s14.7285,7.5918,14.7285,16.9229S76.38,77.82,68.2591,77.82,53.5306,70.2283,53.5306,60.8963Z"/><path class="cls-1" d="M97.17,80.8306a6.0355,6.0355,0,0,0,4.4462,2.46,6.149,6.149,0,0,0,4.4462-2.46C105.5327,77.179,97.17,77.3683,97.17,80.8306Z"/><path class="cls-5" d="M84.9067,103.6215c-2.3659.2968,18.5608,25.4664,33.7124,0,0,0-14.3266-4.3522-16.8562-12.448C101.7629,91.1735,94.5659,102.41,84.9067,103.6215Z"/><path class="cls-6" d="M101.6162,89.7251c2.0032,4.1118,7.591,18.134,25.6195,11.7027"/><path class="cls-6" d="M76.0513,101.4278c18.0285,6.4312,23.6163-7.591,25.6195-11.7027V81.5376"/><polyline class="cls-7" points="68.189 54.382 82.406 62.769 83.914 63.658 68.189 71.155"/><polyline class="cls-7" points="135.914 54.382 121.697 62.769 120.189 63.658 135.914 71.155"/><path class="cls-8" d="M95.42,113.3831c-3.457-1.6664,5.8391-11.2144,21.5169-7.1726C116.9369,106.2105,108.805,119.835,95.42,113.3831Z"/></g></g></svg>