<svg xmlns="http://www.w3.org/2000/svg" viewBox="0 0 187.1092 233.9242"><defs><style>.cls-1{fill:#f4d3e9;}.cls-2{fill:#898785;}.cls-3{fill:#e5e5e5;}.cls-4{fill:#fff;}.cls-5{fill:#f4f3f2;}.cls-6,.cls-7{fill:none;stroke:#0d0d0d;stroke-linecap:round;stroke-linejoin:round;}.cls-6{stroke-width:2px;}</style></defs><title>happypenguin</title><g id="Layer_2" data-name="Layer 2"><g id="Chicken"><path class="cls-1" d="M41.4038,201.8694a43.48,43.48,0,0,1-3.3719-3.7645c-7.6717,5.1928-12.8955,13.8872-12.5127,22.062.4958,10.5863,10.1882,16.2656,21.6485,12.6851a29.978,29.978,0,0,0,17.6913-15.5642,68.4984,68.4984,0,0,1-23.4551-15.4819Z"/><path class="cls-1" d="M146.2863,201.8694a43.48,43.48,0,0,0,3.3719-3.7645c7.6717,5.1928,12.8955,13.8872,12.5127,22.062-.4958,10.5863-10.1882,16.2656-21.6485,12.6851a29.978,29.978,0,0,1-17.6913-15.5642,68.4984,68.4984,0,0,0,23.4551-15.4819Z"/><path class="cls-2" d="M166.8315,98.0726a24.1174,24.1174,0,0,0-8.9352-3.2969,65.1794,65.1794,0,0,1-6.7807,10.4935v96.636a38.992,38.992,0,0,0,2.6076-3.011c.7358-.9244,1.601-2.0838,2.53-3.422A79.107,79.107,0,0,0,165.42,177.688a84.101,84.101,0,0,0,4.9347-23.1707l.0015-.0264c.0653-.9351.1134-1.8855.1494-2.8458.0416-1.113.0662-2.24.0658-3.3863,0-1.12-.0239-2.2226-.0645-3.3106a86.0691,86.0691,0,0,0-1.7024-14.1365,11.945,11.945,0,0,0,9.8569-7.2943C181.9682,115.3979,176.672,104.0059,166.8315,98.0726Z"/><path class="cls-3" d="M151.1287,201.779V105.2334a70.294,70.294,0,0,1-55.2843,26.2395,70.3488,70.3488,0,0,1-54.4407-25.22v95.5527a68.4984,68.4984,0,0,0,23.4551,15.4819,85.7338,85.7338,0,0,0,32.0918,5.8417,81.9824,81.9824,0,0,0,32.2985-6.1262A63.6565,63.6565,0,0,0,151.1287,201.779Z"/><path class="cls-2" d="M41.4038,201.8694V106.2531a65.8491,65.8491,0,0,1-4.63-6.317c-.2083.2728-.4109.5324-.6277.8255A24.39,24.39,0,0,0,24.333,94.101C13.5588,91.5106,3.6541,96.6172,2.21,105.507s6.12,18.1966,16.894,20.7871a24.03,24.03,0,0,0,4.5125.6327l.0353.001c-.5133,1.9122-.9823,3.8869-1.3717,5.9565-.1061.5641-.1927,1.1485-.2882,1.7242-.09.5417-.1765,1.0866-.2565,1.6384-.121.8335-.2273,1.679-.3244,2.5355-.0228.2007-.0408.4056-.0622.6077-.0869.8207-.19,1.6273-.253,2.4688-.0078.1032-.0127.2091-.02.3128q-.0937,1.3051-.1481,2.6422c-.0443,1.1076-.0708,2.2291-.0713,3.37-.0006,1.1681.0274,2.3155.0729,3.4489.0275.6852.0689,1.3593.1124,2.0315.0219.34.0394.6827.0652,1.0191a79.114,79.114,0,0,0,16.3946,42.7648c.1842.2329.3556.4416.53.6565A43.48,43.48,0,0,0,41.4038,201.8694Z"/><path class="cls-4" d="M59.5637,62.7171a2.9091,2.9091,0,0,0,3.2528-2.7829,3.3543,3.3543,0,0,0-2.71-3.6435,2.9091,2.9091,0,0,0-3.2528,2.7828A3.3546,3.3546,0,0,0,59.5637,62.7171Z"/><path class="cls-2" d="M58.7157,39.759C82.9391,38.83,84.18,66.9236,84.18,66.9236h0A24.7989,24.7989,0,0,1,95.844,64.22a26.2107,26.2107,0,0,1,9.6487,1.7516c.492-4.87,3.96-27.04,26.326-26.2124,24.3187.8994,32.5327,28.1774,33.0307,29.912l.0248.0878c.0095-.1858.0037-.3607.0118-.5456.0567-1.2871.0872-2.5552.0821-3.7988-.0022-.5409-.0286-1.0656-.0426-1.5984-.0163-.6262-.0423-1.2461-.0746-1.8614a56.9086,56.9086,0,0,0-6.92-25.05c-5.0577-9.1493-12.7134-16.9832-22.5913-24.3118a62.59,62.59,0,0,0-15.9682-8.5539A66.3856,66.3856,0,0,0,94.6048.0475,61.891,61.891,0,0,0,55.32,12.5926c-.0516.04-.0991.0805-.1506.12A86.018,86.018,0,0,0,38.1961,29.5618,57.5905,57.5905,0,0,0,26.8793,61.4378a77.6842,77.6842,0,0,0-.0457,8.1579c.0026.0554.0007.1076.0034.1631l.0075-.0275C27.001,69.1459,34.7411,40.6783,58.7157,39.759Z"/><path class="cls-1" d="M84.18,66.9236c-3.529,1.9131-5.76,4.672-5.76,7.75,0,5.7737,7.8008,10.4543,17.4237,10.4543s17.4236-4.6806,17.4236-10.4543c0-3.632-3.09-6.8289-7.7749-8.7027A26.2107,26.2107,0,0,0,95.844,64.22,24.7989,24.7989,0,0,0,84.18,66.9236Z"/><path class="cls-4" d="M133.243,62.7171a2.9092,2.9092,0,0,0,3.2528-2.7829,3.3544,3.3544,0,0,0-2.71-3.6435,2.909,2.909,0,0,0-3.2528,2.7828A3.3545,3.3545,0,0,0,133.243,62.7171Z"/><path class="cls-3" d="M17.9549,92.3639A28.531,28.531,0,0,1,33.5609,94.71c11.7733,5.3216,17.31,17.0525,12.3664,26.2017s-18.4954,12.2522-30.2687,6.9307a27.8675,27.8675,0,0,1-3.8219-2.129l-.0033.0181c-3.0754-1.78-13.7269-9.7021-11.54-20.0461S17.9549,92.3639,17.9549,92.3639Z"/><path class="cls-3" d="M175.7,127.9815a25.9453,25.9453,0,0,1-14.5557,4.3881c-12.1311-.0988-20.8243-9.0025-19.4167-19.8871s12.3831-19.6285,24.5143-19.53a23.0867,23.0867,0,0,1,4.0681.4173l-.0029-.0188c3.2951.4,15.2766,3.472,16.6927,14.3307S175.7,127.9815,175.7,127.9815Z"/><path class="cls-5" d="M131.8188,39.759c-22.3663-.8272-25.834,21.342-26.326,26.2124,4.6852,1.8738,7.7749,5.0707,7.7749,8.7027,0,5.7736-7.8008,10.4542-17.4236,10.4542S78.42,80.4477,78.42,74.6741c0-3.0785,2.2311-5.8373,5.76-7.75h0S82.9391,38.83,58.7157,39.759c-23.9746.9194-31.7147,29.387-31.8713,29.9723a63.0009,63.0009,0,0,0,9.93,30.2048,65.8469,65.8469,0,0,0,4.63,6.317,70.3489,70.3489,0,0,0,54.4407,25.22,70.294,70.294,0,0,0,55.2842-26.2394A65.1746,65.1746,0,0,0,157.9095,94.74a62.725,62.725,0,0,0,6.94-25.069C164.3515,67.9363,156.1375,40.6583,131.8188,39.759Z"/><path class="cls-6" d="M119.66,64.6315c0-12.7192,21.49-14.9638,21.49,0"/><path class="cls-7" d="M136.5083,55.6293s3-1.8634,2.5963-4.2848"/><path class="cls-7" d="M139.8334,58.4041s3-1.8634,2.5963-4.2848"/><path class="cls-7" d="M131.7065,54.2334s3-1.8634,2.5963-4.2848"/><path class="cls-6" d="M71.4671,64.6315c0-12.7192-21.49-14.9638-21.49,0"/><path class="cls-7" d="M54.6188,55.6293s-3-1.8634-2.5963-4.2848"/><path class="cls-7" d="M51.2937,58.4041s-3-1.8634-2.5963-4.2848"/><path class="cls-7" d="M59.4206,54.2334s-3-1.8634-2.5963-4.2848"/></g></g></svg>