<svg xmlns="http://www.w3.org/2000/svg" viewBox="0 0 26.5425 33.04"><defs><style>.cls-1{fill:#efa818;}.cls-2{fill:#ba6a00;}.cls-3{fill:#4f3e2c;}.cls-4{fill:#fcc575;}.cls-5{fill:#0c0c0c;}.cls-6{fill:#fff;}</style></defs><title>LionFront</title><g id="Layer_2" data-name="Layer 2"><g id="Layer_12" data-name="Layer 12"><path class="cls-1" d="M21.116,8.36a2.9988,2.9988,0,0,0-.5132-2.3474,2.0684,2.0684,0,0,0-2.03-.1118A9.3125,9.3125,0,0,0,8.9856,5.88a2.0135,2.0135,0,0,0-1.9694.1327A2.8487,2.8487,0,0,0,6.4933,8.238a7.1336,7.1336,0,0,0-1.2766,4.044c0,4.2636,3.8265,7.72,8.5468,7.72s8.5468-3.4563,8.5468-7.72A7.12,7.12,0,0,0,21.116,8.36Z"/><path class="cls-2" d="M3.0141,27.2361a2.5483,2.5483,0,0,0,2.0784.3224,4.0026,4.0026,0,0,1,3.1281.6114,7.2529,7.2529,0,0,1-.6571-1.2912,4.5711,4.5711,0,0,0-2.6729-.1552,1.7222,1.7222,0,0,1-1.4033-.2041,3.9017,3.9017,0,0,1-1.3079-2.1832,1.9608,1.9608,0,0,1-.86.1138A4.7631,4.7631,0,0,0,3.0141,27.2361Z"/><path class="cls-3" d="M2.8075,23.4332c-.2356-1.1888-1.7807-1.084-.9689-2.8123,0,0-2.1211,1.2776-1.8069,2.8123A1.3316,1.3316,0,0,0,1.32,24.45a1.9608,1.9608,0,0,0,.86-.1138A.8183.8183,0,0,0,2.8075,23.4332Zm-1.95.2451-.0713.08c-.6742-.5971-.0379-1.6863-.01-1.7324l.0922.0549C.862,22.0919.25,23.14.8578,23.6783Zm.5169.2279a1.1865,1.1865,0,0,1-.1513-1.5533l.0872.0624a1.0638,1.0638,0,0,0,.1367,1.4118Zm.6323.1745a.994.994,0,0,1-.3032-1.2236l.09.058c-.0126.02-.3.4916.2895,1.09Z"/><path class="cls-4" d="M.7761,22.0264c-.0275.0461-.6638,1.1353.01,1.7324l.0713-.08c-.6076-.5381.0042-1.5865.01-1.597Z"/><path class="cls-4" d="M1.3106,22.4153l-.0872-.0624a1.1865,1.1865,0,0,0,.1513,1.5533l.0727-.0791A1.0638,1.0638,0,0,1,1.3106,22.4153Z"/><path class="cls-4" d="M1.7941,22.9152l-.09-.058a.994.994,0,0,0,.3032,1.2236l.0766-.0753C1.4937,23.4068,1.7815,22.935,1.7941,22.9152Z"/><path class="cls-1" d="M6.9146,24.5833a5.82,5.82,0,0,0,5.8029,5.8029H15.135a5.8029,5.8029,0,0,0,0-11.6057H12.7175A5.82,5.82,0,0,0,6.9146,24.5833Zm2,0A3.8072,3.8072,0,0,1,12.7175,20.78h2.417a3.8027,3.8027,0,1,1,0,7.6055h-2.417A3.8072,3.8072,0,0,1,8.9148,24.583Z"/><path class="cls-4" d="M12.7175,20.78h2.417a3.8027,3.8027,0,1,1,0,7.6055h-2.417a3.8027,3.8027,0,1,1,0-7.6055Z"/><path class="cls-1" d="M24.9009,24.5472a1.2368,1.2368,0,0,1-.9915,1.1413,1.6246,1.6246,0,0,1-1.4209.7159,2.0609,2.0609,0,0,1-.4258-.0428.8943.8943,0,0,1-.6009.5838c-.5723.1169-1.1814-.5934-1.36-1.5865a2.3378,2.3378,0,0,1,.2389-1.6628l-.0677-2.2184-.134-3.1442a2.1966,2.1966,0,0,1,2.7519.0865l.1505,4.9366a2.0659,2.0659,0,0,1,.2334-.0159,1.6321,1.6321,0,0,1,1.5145.8275,1.01,1.01,0,0,1,.04.1357A.9413.9413,0,0,1,24.9009,24.5472Z"/><path class="cls-1" d="M2.7822,24.5043a1.2368,1.2368,0,0,0,.9915,1.1413,1.6246,1.6246,0,0,0,1.4209.7159,2.0609,2.0609,0,0,0,.4258-.0428.8943.8943,0,0,0,.6009.5838c.5723.1169,1.1814-.5934,1.36-1.5865a2.3378,2.3378,0,0,0-.2389-1.6628L7.41,21.4346l.134-3.1442a2.1966,2.1966,0,0,0-2.7519.0865l-.1505,4.9366a2.0659,2.0659,0,0,0-.2334-.0159,1.6321,1.6321,0,0,0-1.5145.8275,1.01,1.01,0,0,0-.04.1357A.9413.9413,0,0,0,2.7822,24.5043Z"/><path class="cls-1" d="M12.2,29.9824v1.6863a.5834.5834,0,0,1,.2467.6783,1.077,1.077,0,0,1-1.1176.6508.8222.8222,0,0,1-.5271-.237,3.5827,3.5827,0,0,1-.3617.0185,2.1837,2.1837,0,0,1-1.229-.289c-.5107-.071-.8743-.2516-.8743-.4637,0-.2742.6063-.4964,1.3541-.4964.0679,0,.134.0025.1992.006V29.6411Z"/><path class="cls-1" d="M15.6318,30.02V31.706a.5834.5834,0,0,0-.2467.6783,1.077,1.077,0,0,0,1.1176.6508.8222.8222,0,0,0,.5271-.237,3.5827,3.5827,0,0,0,.3617.0185,2.1837,2.1837,0,0,0,1.229-.289c.5107-.071.8743-.2516.8743-.4637,0-.2742-.6063-.4964-1.3541-.4964-.0679,0-.134.0025-.1992.006V29.6783Z"/><path class="cls-2" d="M7.1479,19.152s-.7913-.4748,0,3.007c.1855.816.303,1.3557.3751,1.7076.0628-.7555.3095-2.8577,1.1224-3.2694a.6735.6735,0,0,1,.56-.0208c.94.3462.7486,1.1747,1.2495,1.82.3056.4488,1.0729,1.4761,1.6085,1.3289.6818-.1875,1.7749,1.2164,1.7749,1.2164.0288-.7564,1.8482-.8965,2.2124-1.0753a6.8,6.8,0,0,0,1.2-1.5109c.4629-.6392.3-1.44,1.22-1.7793a.7673.7673,0,0,1,.9526.3986,7.3749,7.3749,0,0,1,.73,2.8916c.0721-.3519.19-.8915.3751-1.7076.7913-3.4818,0-3.007,0-3.007.95-1.1869,2.77,1.7535,2.77,1.7535a4.154,4.154,0,0,0,.2545-.4495c1.0549-2.1769-.8621-3.5146.6951-3.44a2.76,2.76,0,0,1,2.2948,1.6617c-.2374-3.1652-3.4026-4.59-2.77-4.9852s2.77,1.2661,2.77,1.2661c0-3.0861-3.7192-3.1652-2.9279-4.0465s2.1366,0,2.1366,0C25.6721,9.7139,23.14,9.498,23.14,8.2319s1.4243-1.1078,1.4243-1.1078c0-1.8992-2.5322-1.187-2.5322-1.187-.0791-2.2948,1.8992-1.7893,1.8992-1.7893-.95-1.7894-4.59-.8221-4.59-.8221-.3957-.5539,1.1078-1.0287,1.1078-1.0287a3.3153,3.3153,0,0,0-3.4026,0A1.1617,1.1617,0,0,1,17.3633.3188c-1.6-1.0182-3.266.7032-3.5251.9884-.2591-.2853-1.9249-2.0066-3.525-.9884A1.1617,1.1617,0,0,1,10.63,2.2971a3.3153,3.3153,0,0,0-3.4026,0s1.5035.4748,1.1078,1.0287c0,0-3.64-.9673-4.59.8221,0,0,1.9783-.5055,1.8992,1.7893,0,0-2.5322-.7121-2.5322,1.187,0,0,1.4244-.1583,1.4244,1.1078s-2.5322,1.482-2.6113,2.68c0,0,1.3452-.8812,2.1366,0s-2.9278.96-2.9278,4.0465c0,0,2.1365-1.6618,2.77-1.2661s-2.5322,1.82-2.77,4.9852a2.76,2.76,0,0,1,2.2948-1.6617c1.6618-.0792-.6331,1.4495.95,3.89,0,0,.0516-.0831.1405-.214C4.9626,20.0377,6.3569,18.1632,7.1479,19.152ZM20.5474,6.0208c.8014.6608.458,2.3782.458,2.3782s-1.2022-2.0659-2.69-2.3782C18.3149,6.0208,19.7459,5.36,20.5474,6.0208Zm-13.5109,0c.8014-.6608,2.2325,0,2.2325,0-1.4883.3123-2.69,2.3782-2.69,2.3782S6.2351,6.6816,7.0365,6.0208Zm6.8017,0c4.1271,0,7.4727,2.8879,7.4727,6.45s-3.3456,6.45-7.4727,6.45-7.4727-2.8879-7.4727-6.45S9.7111,6.0208,13.8382,6.0208Z"/><path class="cls-5" d="M13.3812,13.9394a.7458.7458,0,0,0,.5056.2388.7115.7115,0,0,0,.5059-.2388c0-.143-.1729-.2278-.3757-.2513a1.0251,1.0251,0,0,0-.2564.0031C13.5706,13.7175,13.405,13.7985,13.3812,13.9394Z"/><ellipse class="cls-6" cx="10.6619" cy="11.7607" rx="1.5868" ry="2.6492"/><ellipse cx="10.1197" cy="12.2615" rx="1.0231" ry="2.3468" transform="translate(-1.6296 1.5513) rotate(-8.1153)"/><path class="cls-3" d="M9.06,12.1082H9.06a5.0505,5.0505,0,0,0,2.0185-.8332,5.3417,5.3417,0,0,0,.9881-.8541l0,0-.002-.0053a3.0538,3.0538,0,0,0-.42-.8481c-.0156-.0213-.0318-.04-.0477-.06-.0291-.036-.0586-.0708-.0892-.1036-.0284-.0308-.0569-.06-.086-.087-.0168-.0156-.0341-.0295-.0512-.0441a1.2515,1.2515,0,0,0-.3367-.21c-.031-.013-.0619-.0258-.0936-.0358-.022-.0067-.0439-.0116-.066-.0167a.9865.9865,0,0,0-.1235-.022l-.0473-.004a.9973.9973,0,0,0-.1444.0017l-.0324.0027a.9959.9959,0,0,0-.1462.0288l-.0364.0093a1.0829,1.0829,0,0,0-.1019.0391,1.5667,1.5667,0,0,0-.7841.7815L9.4427,9.88q-.0419.0786-.08.1623l-.0069.0153q-.041.0914-.0772.1883l-.0065.0177c-.0165.0448-.0309.0894-.0453.134-.0176.0544-.0335.1082-.0481.1619-.0078.0285-.0166.0573-.0235.0855q-.0263.106-.0459.2086l-.0054.0324c-.0138.0755-.0248.1487-.0339.22l-.0028.0222a4.3393,4.3393,0,0,0-.0245.803C9.05,12.0425,9.06,12.1082,9.06,12.1082Z"/><path class="cls-6" d="M18.9408,12.02c0-1.4631-.71-2.6492-1.5869-2.6492-.5587,0-1.0477.4845-1.33,1.2131a.672.672,0,0,1,.456-.3862c.56-.08,1.1622.8956,1.3451,2.1786a3.06,3.06,0,0,1-.3618,2.2745C18.2874,14.5553,18.9408,13.42,18.9408,12.02Z"/><path d="M17.8246,12.3759c-.1829-1.2831-.7852-2.2585-1.3451-2.1786a.672.672,0,0,0-.456.3862,3.5444,3.5444,0,0,0-.2266,2.0816c.1829,1.2831.7852,2.2585,1.3451,2.1787a.5508.5508,0,0,0,.3207-.1934A3.06,3.06,0,0,0,17.8246,12.3759Z"/><path class="cls-3" d="M18.9509,12.3914l-.0009,0a5.0536,5.0536,0,0,1-2.0127-.8255,5.3159,5.3159,0,0,1-.9854-.8463l0,0,.002-.0053a3.0186,3.0186,0,0,1,.4187-.84c.0156-.0211.0317-.0392.0476-.059.029-.0357.0585-.07.0889-.1026.0283-.03.0568-.0594.0857-.0862.0167-.0155.034-.0292.051-.0437a1.2494,1.2494,0,0,1,.3357-.2079c.0309-.0129.0618-.0256.0934-.0354.0219-.0066.0438-.0115.0658-.0166A.99.99,0,0,1,17.2636,9.3l.0472-.0039a1.0009,1.0009,0,0,1,.144.0017l.0323.0027a.9988.9988,0,0,1,.1458.0285l.0363.0092a1.0842,1.0842,0,0,1,.1016.0388,1.5578,1.5578,0,0,1,.782.7744l.016.0323q.0418.0778.08.1609l.0069.0152q.0409.0906.077.1866l.0064.0176c.0164.0444.0308.0886.0452.1327.0175.0539.0334.1072.048.16.0078.0283.0165.0567.0235.0847q.0263.105.0458.2067l.0054.0321c.0137.0748.0247.1474.0338.2181l.0028.022a4.2728,4.2728,0,0,1,.0245.7958C18.96,12.3263,18.9509,12.3914,18.9509,12.3914Z"/><path class="cls-2" d="M10.488,14.0651c-1.2575,1.5969.0273,3.6837,3.3989,1.7743,3.362,1.904,4.6492-.1656,3.41-1.7607a2.8252,2.8252,0,0,0-.2332-.2658c-.0428-.0429-.0856-.0825-.1283-.121a2.3856,2.3856,0,0,0-.7844-.4844,2.2261,2.2261,0,0,0-2.1339.48c.2028.0236.3757.1084.3757.2513a.7115.7115,0,0,1-.5059.2388.7458.7458,0,0,1-.5056-.2388c.0238-.1409.1893-.2219.3794-.2483a2.2892,2.2892,0,0,0-1.9441-.5425,2.3614,2.3614,0,0,0-1.1063.6644A2.827,2.827,0,0,0,10.488,14.0651Z"/></g></g></svg>
