<svg xmlns="http://www.w3.org/2000/svg" viewBox="0 0 65.608 36.367"><defs><style>.cls-1{fill:#efa818;}.cls-2{fill:#ba6a00;}.cls-3{fill:#4f3e2c;}.cls-4{fill:#fcc575;}.cls-5{fill:#0c0c0c;}.cls-6{fill:#fff;}.cls-7{fill:#f4d3e9;}.cls-8{fill:#898785;}.cls-9{fill:#e5e5e5;}.cls-10{fill:#f4f3f2;}.cls-11{fill:#232323;}.cls-12{fill:#ddd;}</style></defs><title>3Asset 1</title><g id="Layer_2" data-name="Layer 2"><g id="Layer_1-2" data-name="Layer 1"><g id="Layer_2-2" data-name="Layer 2"><g id="Layer_1-2-2" data-name="Layer 1-2"><g id="Layer_2-3" data-name="Layer 2"><g id="Layer_12" data-name="Layer 12"><path class="cls-1" d="M61.15,12.218a3.144,3.144,0,0,0,.329-2.557,2.333,2.333,0,0,0-2.061-.877A10.5,10.5,0,0,0,49.5,5.152a2.271,2.271,0,0,0-2.088-.608,2.992,2.992,0,0,0-1.357,2.044,7.5,7.5,0,0,0-2.8,3.592c-1.562,4.294,1.133,9.217,6.019,11s10.115-.262,11.678-4.557A7.485,7.485,0,0,0,61.15,12.218Z"/><path class="cls-2" d="M35.493,24.412a2.875,2.875,0,0,0,2.034,1.108,4.509,4.509,0,0,1,3.014,1.794,7.653,7.653,0,0,1-.207-1.548,5.171,5.171,0,0,0-2.71-1.163,1.946,1.946,0,0,1-1.379-.734,4.173,4.173,0,0,1-.554-2.692,2.213,2.213,0,0,1-.932-.209A5.088,5.088,0,0,0,35.493,24.412Z"/><path class="cls-3" d="M36.673,20.5c.191-1.286-1.447-1.762.027-3.2,0,0-2.664.488-2.9,2.152a1.459,1.459,0,0,0,.961,1.509,2.213,2.213,0,0,0,.932.209A.879.879,0,0,0,36.673,20.5Zm-2.109-.487-.1.053c-.479-.855.578-1.712.624-1.748l.076.09c-.011.009-1.029.834-.6,1.605Zm.452.424a1.247,1.247,0,0,1,.412-1.622l.067.1a1.119,1.119,0,0,0-.375,1.474Zm.59.414a1.048,1.048,0,0,1,.135-1.347l.072.093c-.021.015-.491.382-.1,1.206Z"/><path class="cls-4" d="M35.085,18.322c-.045.036-1.1.894-.624,1.749l.1-.054c-.432-.771.585-1.6.595-1.605Z"/><path class="cls-4" d="M35.5,18.915l-.068-.095a1.246,1.246,0,0,0-.412,1.621l.1-.052A1.118,1.118,0,0,1,35.5,18.915Z"/><path class="cls-4" d="M35.813,19.6l-.072-.092a1.046,1.046,0,0,0-.134,1.346l.107-.047C35.322,19.983,35.793,19.616,35.813,19.6Z"/><path class="cls-1" d="M40.5,23.21a6.327,6.327,0,0,0,3.881,8.03l2.5.91A6.221,6.221,0,1,0,51.14,20.461l-2.5-.91A6.326,6.326,0,0,0,40.5,23.21Zm2.071.753a4.138,4.138,0,0,1,5.33-2.4l2.5.911a4.077,4.077,0,1,1-2.787,7.66l-2.5-.91a4.138,4.138,0,0,1-2.544-5.262Z"/><path class="cls-4" d="M47.9,21.564l2.5.911a4.077,4.077,0,1,1-2.787,7.66l-2.5-.91A4.077,4.077,0,1,1,47.9,21.564Z"/><path class="cls-1" d="M59.137,29.948a1.338,1.338,0,0,1-1.444.776,1.808,1.808,0,0,1-1.734.185,2.3,2.3,0,0,1-.425-.2.976.976,0,0,1-.836.362c-.635-.1-1.006-1.043-.827-2.11a2.448,2.448,0,0,1,.857-1.585l.743-2.26L56.484,21.9A2.47,2.47,0,0,1,59.3,23.019l-1.653,5.029a2.131,2.131,0,0,1,.248.072,1.811,1.811,0,0,1,1.265,1.4,1.107,1.107,0,0,1-.009.152A.956.956,0,0,1,59.137,29.948Z"/><path class="cls-1" d="M36.254,21.574a1.338,1.338,0,0,0,.608,1.522,1.806,1.806,0,0,0,1.209,1.257,2.4,2.4,0,0,0,.456.117.972.972,0,0,0,.409.814c.549.334,1.44-.152,1.989-1.085a2.454,2.454,0,0,0,.362-1.765l.883-2.209,1.291-3.117a2.474,2.474,0,0,0-2.881-.949l-1.965,4.915a2.37,2.37,0,0,0-.236-.1,1.809,1.809,0,0,0-1.871.263,1.2,1.2,0,0,0-.091.121A1,1,0,0,0,36.254,21.574Z"/><path class="cls-1" d="M44,30.638l-.618,1.7a.617.617,0,0,1,.007.776,1.192,1.192,0,0,1-1.4.234.917.917,0,0,1-.459-.437,3.9,3.9,0,0,1-.381-.118,2.452,2.452,0,0,1-1.166-.754c-.5-.263-.813-.582-.736-.8.1-.276.81-.272,1.584.01q.1.039.2.081l.7-1.909Z"/><path class="cls-1" d="M47.536,31.969l-.618,1.7a.616.616,0,0,0-.5.59,1.191,1.191,0,0,0,.919,1.076.916.916,0,0,0,.632-.04,3.82,3.82,0,0,0,.368.155,2.461,2.461,0,0,0,1.378.172c.555.121,1,.076,1.075-.138.1-.276-.446-.728-1.22-1.01-.07-.025-.139-.048-.208-.069l.694-1.909Z"/><path class="cls-2" d="M42.735,17.827s-.645-.776-1.1,3.029c-.107.891-.183,1.479-.237,1.861.341-.737,1.367-2.762,2.36-2.87a.757.757,0,0,1,.587.19c.846.7.345,1.465.627,2.3.152.567.57,1.891,1.178,1.945.775.068,1.392,1.893,1.392,1.893.307-.751,2.242-.207,2.684-.25a7.32,7.32,0,0,0,1.8-1.069c.714-.47.838-1.338,1.915-1.333a.853.853,0,0,1,.84.76,7.739,7.739,0,0,1-.3,3.188c.2-.328.523-.827,1.014-1.579,2.1-3.209,1.1-3.029,1.1-3.029,1.419-.837,2.226,2.81,2.226,2.81a4.424,4.424,0,0,0,.428-.357c1.89-1.795.4-3.865,1.98-3.2a3.036,3.036,0,0,1,1.767,2.538c.914-3.277-1.841-5.905-1.041-6.064s2.4,2.318,2.4,2.318c1.13-3.108-2.691-4.589-1.549-5.178s2.212.8,2.212.8c.357-1.236-2.185-2.407-1.721-3.682s1.88-.58,1.88-.58c.7-1.913-2.187-2.149-2.187-2.149a1.643,1.643,0,0,1,2.622-1.087c-.328-2.16-4.45-2.557-4.45-2.557-.207-.707,1.523-.618,1.523-.618a3.739,3.739,0,0,0-3.522-1.282A1.221,1.221,0,0,1,59.6,2.873a1.269,1.269,0,0,1,.616-.167c-1.284-1.628-3.639-.522-4.012-.332C56.036,1.989,54.942-.372,52.913.05a1.23,1.23,0,0,1-.4,2.112A3.74,3.74,0,0,0,48.993.881s1.383,1.044.77,1.453c0,0-3.414-2.345-5.053-.9a1.643,1.643,0,0,1,1.31,2.518s-2.36-1.671-3.056.242c0,0,1.533.377,1.069,1.652s-3.165.539-3.686,1.716c0,0,1.716-.381,2.212.8s-3.383-.135-4.514,2.973c0,0,2.821-.869,3.332-.232s-3.288.88-4.694,3.978a3.034,3.034,0,0,1,2.984-.809c1.75.546-1.186,1.221-.442,4.276,0,0,.084-.065.224-.163C40.148,17.9,42.278,16.533,42.735,17.827ZM61.419,9.648c.587.968-.4,2.568-.4,2.568s-.487-2.534-1.913-3.409C59.107,8.807,60.831,8.681,61.419,9.648ZM47.431,4.559C48.5,4.2,49.742,5.4,49.742,5.4c-1.655-.246-3.656,1.382-3.656,1.382S46.359,4.923,47.431,4.559Zm7.042,2.562c4.272,1.555,6.678,5.723,5.373,9.311s-5.827,5.236-10.1,3.682-6.678-5.723-5.373-9.311S50.2,5.567,54.473,7.121Z"/><path class="cls-5" d="M51.1,14.925a.835.835,0,0,0,.436.431.8.8,0,0,0,.611-.05c.053-.144-.1-.295-.3-.395a1.135,1.135,0,0,0-.266-.093C51.375,14.772,51.174,14.792,51.1,14.925Z"/><ellipse class="cls-6" cx="49.081" cy="11.706" rx="2.839" ry="1.748" transform="translate(21.3 53.828) rotate(-70.008)"/><ellipse cx="48.336" cy="12.006" rx="2.517" ry="1.126" transform="translate(26.901 56.962) rotate(-78.457)"/><path class="cls-3" d="M47.3,11.453h0a5.654,5.654,0,0,0,2.395-.079,5.825,5.825,0,0,0,1.336-.488h0V10.88A3.219,3.219,0,0,0,50.9,9.867c-.008-.027-.018-.052-.027-.078-.017-.047-.035-.094-.055-.138s-.037-.082-.057-.12c-.011-.022-.024-.043-.037-.064a1.358,1.358,0,0,0-.271-.338c-.028-.025-.055-.049-.084-.072s-.041-.028-.062-.041a1.2,1.2,0,0,0-.12-.069l-.048-.022a1.062,1.062,0,0,0-.15-.052l-.034-.01a1.3,1.3,0,0,0-.162-.026l-.041,0a.961.961,0,0,0-.12,0,1.7,1.7,0,0,0-1.1.492l-.028.027c-.048.042-.1.086-.142.133l-.013.013c-.051.051-.1.1-.149.16l-.013.016c-.034.039-.065.078-.1.118s-.074.1-.109.145c-.019.025-.038.051-.056.077-.044.064-.085.129-.124.193l-.017.03c-.042.071-.08.141-.116.209l-.011.021a4.528,4.528,0,0,0-.32.8C47.309,11.383,47.3,11.453,47.3,11.453Z"/><path class="cls-6" d="M57.557,15.085c.536-1.473.236-2.935-.672-3.266a1.759,1.759,0,0,0-1.821.721.733.733,0,0,1,.613-.217c.609.13.875,1.34.594,2.7a3.2,3.2,0,0,1-1.208,2.155C55.952,17.393,57.044,16.5,57.557,15.085Z"/><path d="M56.271,15.023c.281-1.361.015-2.57-.594-2.7a.733.733,0,0,0-.614.217,3.7,3.7,0,0,0-1,2.011c-.281,1.361-.015,2.57.594,2.7a.612.612,0,0,0,.4-.074A3.2,3.2,0,0,0,56.271,15.023Z"/><path class="cls-3" d="M57.431,15.463h0a5.639,5.639,0,0,1-1.782-1.59,5.8,5.8,0,0,1-.71-1.223h0l0-.005a3.238,3.238,0,0,1,.742-.688c.023-.015.047-.028.07-.042.044-.025.087-.048.13-.069s.081-.039.12-.055l.069-.025a1.425,1.425,0,0,1,.424-.083c.037,0,.073,0,.11,0s.049.005.074.008a1.227,1.227,0,0,1,.135.023l.051.014a1.152,1.152,0,0,1,.148.056l.033.015a1.171,1.171,0,0,1,.14.083l.034.023a1.133,1.133,0,0,1,.091.078,1.694,1.694,0,0,1,.526,1.074l0,.039c.01.062.018.127.024.192v.018c.006.071.01.143.012.217v.02c0,.051,0,.1,0,.151s-.005.12-.009.179c0,.031,0,.063-.007.094-.007.077-.017.152-.028.225l-.006.035c-.013.08-.029.158-.045.232l0,.023a4.5,4.5,0,0,1-.266.811C57.465,15.4,57.431,15.463,57.431,15.463Z"/><path class="cls-2" d="M48.057,13.962c-1.887,1.134-1.322,3.72,2.868,3.067,2.783,3.184,4.874,1.584,4.176-.489a3.312,3.312,0,0,0-.144-.356c-.029-.059-.059-.115-.089-.17a2.632,2.632,0,0,0-.634-.783,2.5,2.5,0,0,0-2.385-.321c.2.1.349.251.3.395a.793.793,0,0,1-.612.05.831.831,0,0,1-.436-.431c.077-.133.278-.152.484-.107a2.572,2.572,0,0,0-1.814-1.279,2.622,2.622,0,0,0-1.389.253A2.835,2.835,0,0,0,48.057,13.962Z"/></g></g><g id="Layer_12-2" data-name="Layer 12"><g id="legs"><path id="right" class="cls-7" d="M8.2,31.893a3.47,3.47,0,0,0-.717,3.2,1.957,1.957,0,0,0,3.16.755,3.88,3.88,0,0,0,1.6-2.6Z"/><path id="left" class="cls-7" d="M20.218,30.791a3.2,3.2,0,0,0,2.99.977,2.271,2.271,0,0,0,1.861-2.616,2.39,2.39,0,0,0-.12-.436,3.08,3.08,0,0,0-2.118-1.853Z"/></g><g id="body"><path id="left_hand" data-name="left hand" class="cls-8" d="M20.316,14.661a3.1,3.1,0,0,0-1.232-.071,8.467,8.467,0,0,1-.443,1.555l3.644,11.96h0v.011a4.964,4.964,0,0,0,.21-.471c.056-.143.119-.319.184-.52a10.219,10.219,0,0,0,.464-2.548,10.95,10.95,0,0,0-.263-3.057h0c-.028-.118-.057-.238-.089-.358-.037-.14-.077-.28-.12-.422s-.087-.275-.133-.408a11.2,11.2,0,0,0-.737-1.689,1.547,1.547,0,0,0,.945-1.276A2.939,2.939,0,0,0,20.316,14.661Z"/><path id="belly" class="cls-9" d="M5.128,20.3,8.734,32.134h0a8.859,8.859,0,0,0,3.49,1.032,11.085,11.085,0,0,0,4.2-.487,10.628,10.628,0,0,0,3.77-1.978,8.253,8.253,0,0,0,2.136-2.713h0L18.681,16.029Z"/><path id="right_hand" data-name="right hand" class="cls-8" d="M8.878,32.2V32.19h0L5.269,20.352a8.126,8.126,0,0,1-.812-.607c-.016.041-.031.081-.047.126a3.169,3.169,0,0,0-1.714-.38A2.189,2.189,0,0,0,.388,21.553v.187a2.616,2.616,0,0,0,2.877,1.937,2.95,2.95,0,0,0,.583-.092h0c.008.256.025.519.055.79.008.074.019.149.029.224s.019.141.03.213c.016.108.035.216.055.326l.016.078c.02.1.038.209.062.315l.009.04q.037.165.081.333c.036.138.075.278.119.42s.09.285.139.424c.029.084.06.166.09.248.016.041.031.083.047.123A10.239,10.239,0,0,0,8.226,31.8l.09.062A5.606,5.606,0,0,0,8.878,32.2Z"/><path id="righthand" class="cls-9" d="M1.559,19.7a3.226,3.226,0,0,1,1.813-.319A2.248,2.248,0,0,1,5.59,21.656a2.556,2.556,0,0,1-.023.29A2.838,2.838,0,0,1,2.408,23.9a2.951,2.951,0,0,1-.493-.1h0c-.4-.088-1.834-.6-1.912-1.881S1.559,19.7,1.559,19.7Z"/><path id="lefthand" class="cls-9" d="M19.832,18.925a3.167,3.167,0,0,1-1.4-1.135,2.208,2.208,0,0,1,.239-3.114h0a2.147,2.147,0,0,1,.208-.158A2.754,2.754,0,0,1,22.331,15.6a3.257,3.257,0,0,1,.244.43h0a2.356,2.356,0,0,1-.137,2.625C21.56,19.533,19.832,18.925,19.832,18.925Z"/></g><g id="face"><path id="face-2" class="cls-10" d="M4.79,11.5c-2.935,1.019-2.819,4.838-2.816,4.916a8.136,8.136,0,0,0,2.37,3.37,8.28,8.28,0,0,0,.811.608,9.107,9.107,0,0,0,7.7,1.069,9.1,9.1,0,0,0,5.858-5.337,8.48,8.48,0,0,0,.444-1.556,8.148,8.148,0,0,0-.086-3.367C18.943,11,16.9,7.935,13.85,8.741Z"/><g id="left_eye" data-name="left eye"><circle id="hightlight" class="cls-6" cx="14.872" cy="11.185" r="0.618"/><path id="left_eye-2" data-name="left eye-2" class="cls-11" d="M15.169,12.367a.99.99,0,0,0,.808-1.143c-.005-.027-.01-.054-.017-.081a1.144,1.144,0,0,0-1.25-.91.991.991,0,0,0-.808,1.144c.005.027.011.054.018.08A1.14,1.14,0,0,0,15.169,12.367Zm-.456-1.655a.435.435,0,0,1,.473.349.377.377,0,0,1-.267.461l-.031.006a.433.433,0,0,1-.473-.349.376.376,0,0,1,.268-.461h0Z"/></g><g id="right_eye" data-name="right eye"><circle class="cls-6" cx="5.694" cy="13.947" r="0.618"/><path id="right_eye-2" data-name="right eye-2" class="cls-11" d="M6.042,15.148a.989.989,0,0,0,.808-1.141v0c0-.027-.01-.054-.017-.081a1.142,1.142,0,0,0-1.25-.909.989.989,0,0,0-.807,1.143h0a.71.71,0,0,0,.017.08A1.14,1.14,0,0,0,6.042,15.148Zm-.456-1.655a.435.435,0,0,1,.473.349.377.377,0,0,1-.267.461l-.031.007a.435.435,0,0,1-.473-.35.375.375,0,0,1,.267-.459h0Z"/></g><path id="hair-2" class="cls-8" d="M4.79,11.5c2.965-1.029,4.18,2.4,4.18,2.4h0a3.21,3.21,0,0,1,1.342-.775,3.39,3.39,0,0,1,1.262-.147c-.123-.622-.53-3.5,2.272-4.241,3.046-.807,5.093,2.262,5.22,2.459l.007.01c-.006-.024-.014-.045-.019-.068-.042-.162-.086-.32-.134-.474-.02-.067-.043-.131-.065-.2s-.053-.152-.08-.227a7.376,7.376,0,0,0-1.8-2.842,10.051,10.051,0,0,0-3.716-2.159,8.148,8.148,0,0,0-2.3-.457,8.616,8.616,0,0,0-3.218.44,8.024,8.024,0,0,0-4.4,3.044l-.014.023a11.09,11.09,0,0,0-1.468,2.728,7.456,7.456,0,0,0-.2,4.375,9.891,9.891,0,0,0,.3,1.013l.006.02h0C1.971,16.335,1.855,12.516,4.79,11.5Z"/><path id="mouth-2" class="cls-7" d="M8.97,13.9a1.219,1.219,0,0,0-.421,1.182c.218.715,1.361,1,2.553.637s1.981-1.237,1.763-1.953a1.36,1.36,0,0,0-1.291-.784,3.39,3.39,0,0,0-1.262.147A3.212,3.212,0,0,0,8.97,13.9Z"/></g></g><g id="Layer_1-3" data-name="Layer 1-3"><g id="panda"><g id="Body-2"><g id="hands"><path id="right_hand-2" data-name="right hand-2" class="cls-5" d="M23.936,19.947a7.046,7.046,0,0,0,1.5.1,10.134,10.134,0,0,1-3.9-3.8h-.2a5.626,5.626,0,0,0-3.9,5.2c-.1,2.8,2.4.7,4.5-.6C22.736,20.347,23.436,19.847,23.936,19.947Z"/><path id="left_hand-2" data-name="left hand-2" class="cls-5" d="M43.836,14.947a11.034,11.034,0,0,0-2.7,1.5,9.63,9.63,0,0,1-2.1,1.2c-.5.1-3.6.8-4.1.8a12.131,12.131,0,0,1,3.7,4.4c.1,0,2.2-1.2,2.4-1.3C45.036,18.547,45.036,15.047,43.836,14.947Z"/></g><g id="legs-2"><path id="left_leg" data-name="left leg" class="cls-5" d="M37.7,32.383a4.125,4.125,0,0,0,.4,1c.7,1.2,1.8,1.7,2.5,1s.7-2.3.1-3.5c-.1-.1-.1-.2-.2-.5C40.5,30.383,37.647,32.425,37.7,32.383Z"/></g><path id="body-3" class="cls-12" d="M23.836,19.947c-.5-.1-1.3.4-2.2,1v8.2a4.979,4.979,0,0,0,.2,1.2,3.419,3.419,0,0,0,2.5,2.3c.2,0,.5.1.7.1h12.6a3.575,3.575,0,0,0,2.8-2.1,2.958,2.958,0,0,0,.2-1.3v-7.9c-.7-.6-1.6-1.2-1.9-1.5"/><ellipse id="right_leg" data-name="right leg" class="cls-5" cx="22.543" cy="30.957" rx="2.4" ry="3.3" transform="translate(-13.063 16.86) rotate(-32.339)"/></g><g id="Head"><g id="ear"><path id="left_ear" data-name="left ear" class="cls-5" d="M25.036,2.647l-.8-1a2.871,2.871,0,0,0-4.053-.242l-.047.042a.215.215,0,0,0-.2.2l-.2.1a3.518,3.518,0,0,0,0,4.7l1.1,1.2A10.186,10.186,0,0,1,25.036,2.647Z"/><path id="right_ear" data-name="right ear" class="cls-5" d="M41.736,7.547l.8-.8a3.518,3.518,0,0,0,0-4.7l-.1-.4a2.871,2.871,0,0,0-4.053-.242l-.047.042-.2.2-.7.8A11.941,11.941,0,0,1,41.736,7.547Z"/></g><g id="face-3"><path id="face-4" class="cls-10" d="M25.436,20.047a11.965,11.965,0,0,0,12-.1,11.5,11.5,0,0,0,3.8-3.8,9.579,9.579,0,0,0,.6-8.7,9.536,9.536,0,0,0-4.5-5,11.869,11.869,0,0,0-12.2.1,10.2,10.2,0,0,0-4.4,5.2,9.8,9.8,0,0,0,.8,8.5A10.106,10.106,0,0,0,25.436,20.047Zm11.1-13.9a3.75,3.75,0,0,1,3.606,3.887l-.006.113a3.882,3.882,0,0,1-3.6,4,3.881,3.881,0,0,1-3.6-4A3.814,3.814,0,0,1,36.536,6.147Zm-6.6,4a3.882,3.882,0,0,1-3.6,4,3.881,3.881,0,0,1-3.6-4,3.882,3.882,0,0,1,3.6-4A3.817,3.817,0,0,1,29.936,10.147Z"/></g><g id="right_eye-3" data-name="right eye-3"><g id="white"><ellipse class="cls-6" cx="26.336" cy="10.247" rx="2.5" ry="2.7"/></g><path id="right_eye-4" data-name="right eye-4" class="cls-5" d="M22.736,10.147a3.881,3.881,0,0,0,3.6,4,3.882,3.882,0,0,0,3.6-4,3.883,3.883,0,0,0-3.6-4A3.816,3.816,0,0,0,22.736,10.147Zm3.4,2.2a2.226,2.226,0,0,1-2.1-2.3,2.533,2.533,0,0,1,.8-1.8l.7.6a2.57,2.57,0,0,0-.5,1.2,1.557,1.557,0,0,0,1.5,1.6,1.457,1.457,0,0,0,1.3-.7h0A1.568,1.568,0,0,1,26.136,12.347Z"/></g><g id="left_eye-3" data-name="left eye-3"><g id="white-2"><ellipse class="cls-6" cx="36.836" cy="10.447" rx="2.5" ry="2.7"/></g><path id="left_eye-4" data-name="left eye-4" class="cls-5" d="M36.536,14.147a3.748,3.748,0,0,0,3.606-3.886l-.006-.114a3.883,3.883,0,0,0-3.6-4,3.882,3.882,0,0,0-3.6,4A3.813,3.813,0,0,0,36.536,14.147Zm2.3-4a2.3,2.3,0,0,1-2.1,2.3,2.224,2.224,0,0,1-2.1-1.7h0a1.444,1.444,0,0,0,1.5,1.1,1.5,1.5,0,0,0,1.5-1.5c0-.035,0-.069,0-.1a1.8,1.8,0,0,0-.7-1.5,3.72,3.72,0,0,0,.6-.7A2.228,2.228,0,0,1,38.836,10.147Z"/></g><g id="mouth-3"><path class="cls-5" d="M30.736,14.247a.817.817,0,0,0,.6.4.623.623,0,0,0,.6-.4C32.036,13.847,30.736,13.847,30.736,14.247Z"/><path class="cls-5" d="M28.236,17.747l-.2-.2a8.885,8.885,0,0,1,3.1-2.1v-1.2h.4v1.5h-.1C30.236,15.947,28.236,17.747,28.236,17.747Z"/><path class="cls-5" d="M34.336,17.747a8.479,8.479,0,0,0-3-2.1l.1-.4s1.1.2,3.1,2.2Z"/></g></g></g></g></g></g></g></g></svg>