<svg xmlns="http://www.w3.org/2000/svg" viewBox="0 0 346.053 205.2584"><defs><style>.cls-1{fill:#5e3918;}.cls-2{fill:#a54426;}.cls-3{fill:#f9eac2;}.cls-4{fill:#231f20;}.cls-5{fill:#fff;}.cls-6{fill:#f9f8e2;}.cls-7{fill:#f7c743;}.cls-8{fill:#ebbd54;}.cls-9{fill:#d65c2e;}.cls-10{fill:#db6f4d;}.cls-11{fill:#ed7d5f;}.cls-12{fill:#f28e70;}.cls-13{fill:#e5e2bd;}.cls-14{fill:#f7da76;}.cls-15{fill:#f9dc9b;}</style></defs><title>chicken_1</title><g id="Layer_2" data-name="Layer 2"><g id="Chicken"><polygon class="cls-1" points="128.755 175.727 122.861 191.777 124.475 191.777 130.178 175.727 128.755 175.727"/><path class="cls-1" d="M123.5792,190.4779c-2.6318-.6814-12.9751,1.1121-11.9865,2.3479,1.6064.6179,6.055-.2471,7.5379,0s-11.9865,4.4486-12.11,6.6729,12.6043-3.5836,14.0872-4.51-2.8052,6.8963-2.9657,8.2175c-.2029,1.67,2.2867-.4365,7.0254-9.6588,1.41-1.061,3.47.8324,3.8569.6887C129.3472,194.1159,129.016,191.8855,123.5792,190.4779Z"/><polygon class="cls-1" points="78.321 175.727 72.427 191.777 74.041 191.777 79.744 175.727 78.321 175.727"/><path class="cls-1" d="M73.145,190.4779c-2.6318-.6814-12.9751,1.1121-11.9865,2.3479,1.6064.6179,6.055-.2471,7.5379,0s-11.9865,4.4486-12.11,6.6729,12.6043-3.5836,14.0872-4.51-2.8052,6.8963-2.9657,8.2175c-.2029,1.67,2.2867-.4365,7.0254-9.6588,1.41-1.061,3.47.8324,3.8569.6887C78.9129,194.1159,78.5817,191.8855,73.145,190.4779Z"/><path class="cls-2" d="M18.4008,78.03c1.3243,4.2967-.498,16.4993,2.966,20.0922s16.9086-4.3029,5.658-19.6371S18.4008,78.03,18.4008,78.03Z"/><path class="cls-3" d="M169.1148,85.5586c2.05,5.278-1.9191,33.984-28.4026,19.7827a89.3947,89.3947,0,0,0-40.57-10.9335l-.002-.0012C93.2567,91.9055,68.9,46.2748,68.9,46.2748h0c-3.021-13.44-14.4776-23.4427-28.1592-23.4427-15.9861,0-28.9455,13.6518-28.9455,30.4921a31.2526,31.2526,0,0,0,8.0608,21.1c.008.0195,10.2046,7.33,10.2187,7.3456,8.4357,9.528,4.22,30.8027,3.8666,48.2337a33.9527,33.9527,0,0,0-1.6651,10.4273c0,25.2169,28.1193,45.6593,62.8062,45.6593,15.4874,0,29.6558-4.0833,40.6064-10.8393l.0191-.0019C199.25,167.5435,169.1148,85.5586,169.1148,85.5586Z"/><circle class="cls-4" cx="21.8315" cy="46.2748" r="4.8636"/><circle class="cls-5" cx="23.8819" cy="46.2748" r="2.05" transform="translate(-17.5179 14.6874) rotate(-25.3592)"/><path class="cls-6" d="M93.1166,122.5789c16.1724,14.8148,37.0294,18.4083,47.8767,13.259s-26.1993,45.7538-57.098,14.6715S87.0709,117.0407,93.1166,122.5789Z"/><path class="cls-7" d="M15.1167,58.8669,0,72.2118s18.644,2.5195,20.66-1.7636S19.4,58.8752,15.1167,58.8669Z"/><path class="cls-8" d="M8.2228,72.8969s12.06-3.12,13.0354-5.0106C21.2582,67.8862,22.9625,74.2986,8.2228,72.8969Z"/><path class="cls-9" d="M40.6211,22.9043c.6988-4.46-.7295-28.74,10.6965-21.5989S43.325,20.7215,42.6081,22.8322C41.1214,22.8591,40.6211,22.9043,40.6211,22.9043Z"/><path class="cls-10" d="M48.9673,24.0821C51.578,21.0705,61.4372,2.776,66.648,13.47s-13.1758,10.4889-14.7,11.7334A21.3918,21.3918,0,0,0,48.9673,24.0821Z"/><path class="cls-11" d="M57.0284,28.0824c2.9584-.9523,17.4432-9.3538,16.5932-.1164S60.9026,29.7466,59.3828,29.96C57.366,28.3645,57.0284,28.0824,57.0284,28.0824Z"/><path class="cls-12" d="M64.4406,35.8612c2.26-.2831,13.8368-4.3621,11.9669,2.1753s-9.941-.7168-11.0646-.77C64.8554,36.4666,64.4406,35.8612,64.4406,35.8612Z"/><path class="cls-9" d="M15.7568,76.3673c-1.0346,4.4121-8.4684,12.927-7.4359,18.3114S24.04,103.3746,22.4783,82.9361,15.7568,76.3673,15.7568,76.3673Z"/><path class="cls-9" d="M169.4334,86.8653c-11.9806-1.6484-46.3292-36.2264-25.6874-38.9955S171.0325,87.0853,169.4334,86.8653Z"/><path class="cls-9" d="M169.3437,86.8661c5.0268-3.9222,4.1629-46.6844,23.3124-35.31S169.3437,86.8661,169.3437,86.8661Z"/><path class="cls-13" d="M71.81,126.1567c2.8867,6.1336,16.1937,34.448,49.3472,30.8074-18.9323,9.1736-32.8289,1.5794-45.7988-16.5328C68.71,131.27,71.81,126.1567,71.81,126.1567Z"/><polygon class="cls-1" points="226.115 189.797 222.272 200.263 223.325 200.263 227.044 189.797 226.115 189.797"/><path class="cls-1" d="M223.0746,199.5208c-1.0288-.2664-5.0721.4348-4.6857.9178.628.2415,2.367-.0966,2.9467,0s-4.6857,1.739-4.734,2.6085,4.9272-1.4009,5.5069-1.7632-1.0966,2.6959-1.1593,3.2123c-.0793.6529.8939-.1706,2.7463-3.7757.551-.4148,1.3565.3254,1.5077.2692C225.3294,200.9429,225.2,200.0711,223.0746,199.5208Z"/><path class="cls-1" d="M241.0907,199.9727c-1.0288-.2664-5.0721.4348-4.6857.9178.628.2415,2.367-.0966,2.9467,0s-4.6857,1.739-4.734,2.6085,4.9272-1.4009,5.5069-1.7632-1.0966,2.6959-1.1593,3.2123c-.0793.6529.8939-.1706,2.7463-3.7757.551-.4148,1.3565.3254,1.5077.2692C243.3454,201.3948,243.216,200.5229,241.0907,199.9727Z"/><path class="cls-1" d="M303.827,200.0787c-1.0288-.2664-5.0721.4348-4.6857.9178.628.2415,2.367-.0966,2.9467,0s-4.6857,1.739-4.734,2.6085,4.9272-1.4009,5.5069-1.7632-1.0966,2.6959-1.1593,3.2123c-.0793.6529.8939-.1706,2.7463-3.7757.551-.4148,1.3565.3254,1.5077.2692C306.0818,201.5009,305.9523,200.629,303.827,200.0787Z"/><path class="cls-1" d="M321.8886,200.0787c-1.0288-.2664-5.0721.4348-4.6857.9178.628.2415,2.367-.0966,2.9467,0s-4.6857,1.739-4.734,2.6085,4.9272-1.4009,5.5069-1.7632-1.0966,2.6959-1.1593,3.2123c-.0793.6529.8939-.1706,2.7463-3.7757.551-.4148,1.3565.3254,1.5077.2692C324.1433,201.5009,324.0139,200.629,321.8886,200.0787Z"/><polygon class="cls-1" points="243.954 189.797 240.111 200.263 241.163 200.263 244.882 189.797 243.954 189.797"/><circle class="cls-14" cx="217.6839" cy="141.2081" r="16.528"/><ellipse class="cls-14" cx="232.0162" cy="173.6164" rx="25.555" ry="22.3425"/><path class="cls-14" d="M230.6178,144.3171s.4777,5.954,2.3324,6.325,15.95,7.0478,17.434,9.0879,13.3537,0,12.0554-6.6769c0,0,11.2807,20.6486-9.3825,27.851S214.19,156.539,230.6178,144.3171Z"/><circle class="cls-4" cx="207.4864" cy="138.7384" r="2.4318"/><circle class="cls-5" cx="206.4612" cy="138.4559" r="1.025" transform="translate(-39.405 101.767) rotate(-25.3592)"/><path class="cls-7" d="M206.0216,145.0052c.629.5661,2.1132,3.0658,1.9874,3.9463s-8.2689,4.5117-8.2689,4.5117l3.082-4.3084-4.78-3.1134Z"/><path class="cls-8" d="M202.74,152.0685s5.2384-3.8273,4.5593-5.2066c0,0,.8855,1.4981.71,2.09C207.9,149.72,202.74,152.0685,202.74,152.0685Z"/><path class="cls-8" d="M213.5455,157.7361s11.4863,3.5779,18.61-6.9289l3.2055,1.2613S226.6884,162.9351,213.5455,157.7361Z"/><polygon class="cls-1" points="306.656 189.797 302.812 200.263 303.865 200.263 307.584 189.797 306.656 189.797"/><polygon class="cls-1" points="324.494 189.797 320.651 200.263 321.703 200.263 325.422 189.797 324.494 189.797"/><circle class="cls-14" cx="298.224" cy="141.2081" r="16.528"/><ellipse class="cls-14" cx="313.0689" cy="173.6164" rx="25.0424" ry="22.3425"/><path class="cls-14" d="M311.1579,144.3171s.4777,5.954,2.3324,6.325,15.95,7.0478,17.434,9.0879,13.3537,0,12.0554-6.6769c0,0,11.2807,20.6486-9.3825,27.851S294.73,156.539,311.1579,144.3171Z"/><circle class="cls-4" cx="288.0265" cy="138.7384" r="2.4318"/><circle class="cls-5" cx="287.0013" cy="138.4559" r="1.025" transform="translate(-31.6442 136.2616) rotate(-25.3592)"/><path class="cls-7" d="M286.4345,145.8994c.1809.8266.4526,3.4955-.1631,4.1375s-10.656-.9627-10.656-.9627l5.0161-1.703-2.0679-5.3167Z"/><path class="cls-8" d="M278.7769,149.5414s7.6122-.3087,7.8648-1.8253c0,0,.1172,1.9425-.37,2.3207C285.7348,150.5971,278.7769,149.5414,278.7769,149.5414Z"/><path class="cls-8" d="M294.0856,157.7361s11.4863,3.5779,18.61-6.9289l3.2055,1.2613S307.2285,162.9351,294.0856,157.7361Z"/><path class="cls-15" d="M67.631,51.1384c1.95-7.7493,2.3983,25.593-27.01,29.853C40.6211,80.9913,62.5208,71.4482,67.631,51.1384Z"/><path class="cls-15" d="M33.9411,130.0039c1.768-5.8956,12.4775,48.4264,92.5785,49.434C92.7241,199.3057,20.2294,175.7268,33.9411,130.0039Z"/><path class="cls-6" d="M229.7881,169.8365c-4.8257-.012-4.9324,6.9019-1.4381,8.9752,4.1022,2.7578,15.0176,3.9461,15.0176,3.9461l-2.5364-1.6567,2.7318.4377-2.1111-1.9049,2.3558.3775-1.6235-1.2436,2.1076.3377-1.9612-1.4676,2.6533-.185S232.4673,169.8431,229.7881,169.8365Z"/><path class="cls-13" d="M225.922,174.242c1.1217,1.1049,6.2467,5.387,14.8794,8.17C233.0812,181.07,225.6229,179.84,225.922,174.242Z"/><path class="cls-6" d="M312.19,169.8365c-4.8257-.012-4.9324,6.9019-1.4381,8.9752,4.1022,2.7578,15.0176,3.9461,15.0176,3.9461l-2.5364-1.6567,2.7318.4377-2.1111-1.9049,2.3558.3775-1.6235-1.2436,2.1076.3377-1.9612-1.4676,2.6533-.185S314.8687,169.8431,312.19,169.8365Z"/><path class="cls-13" d="M308.3234,174.242c1.1217,1.1049,6.2467,5.387,14.8794,8.17C315.4826,181.07,308.0243,179.84,308.3234,174.242Z"/><path class="cls-14" d="M294.0856,126.2214c-.2718-2.4713-1.808-2.9159-2.9128-2.9159s.9348-1.7,3.8242-.34c1.19-2.8044,2.8894-1.0545,3.7392-.5272-1.6147.6972-2.1293,1.067-.5123,2.2419S294.0856,126.2214,294.0856,126.2214Z"/><path class="cls-14" d="M215.3009,126.0547c-.3242-2.1611-1.999-3.5117-3.1335-2.9174,1.2426-3.0795,4.97-.4862,4.97-.4862s.9184-3.1875,3.0795-2.1611c0,1.5127-1.0265,1.5127.27,5.0785S215.3009,126.0547,215.3009,126.0547Z"/></g></g></svg>