<?xml version="1.0" encoding="utf-8"?>
<!-- Generator: Adobe Illustrator 22.1.0, SVG Export Plug-In . SVG Version: 6.00 Build 0)  -->
<svg version="1.1" id="Layer_1" xmlns="http://www.w3.org/2000/svg" xmlns:xlink="http://www.w3.org/1999/xlink" x="0px" y="0px"
	 viewBox="0 0 243.3 181.1" style="enable-background:new 0 0 243.3 181.1;" xml:space="preserve">
<style type="text/css">
	.st0{fill:#565556;}
	.st1{fill:#DBD5D7;}
	.st2{fill:#FFFFFF;}
	.st3{fill:#231F20;stroke:#000000;stroke-width:1.2737;stroke-miterlimit:10;}
	.st4{stroke:#000000;stroke-width:0.5;stroke-miterlimit:10;}
	.st5{fill:#FFCE55;}
	.st6{fill:#FFB3C9;}
</style>
<title>cow</title>
<g id="Cow">
	<g id="feet">
		<path class="st0" d="M208.7,130.3c0-4-3.2-7.2-7.2-7.2h-16.3c-4,0-7.2,3.2-7.2,7.2l0,0c0,0.8,0.1,1.6,0.4,2.4
			c1.3,7,7.4,36.8,17.6,36.9c10.7,0.2,12.4-32.6,12.6-37.7C208.6,131.4,208.7,130.8,208.7,130.3L208.7,130.3z"/>
		<path class="st1" d="M225.9,141.6c0-4-3.2-7.2-7.2-7.2h-16.3c-4,0-7.2,3.2-7.2,7.2l0,0c0,0.8,0.1,1.6,0.4,2.4
			c1.3,7,7.4,36.8,17.6,36.9c10.7,0.2,12.4-32.6,12.6-37.7C225.8,142.7,225.9,142.1,225.9,141.6z"/>
	</g>
	<g id="body">
		<path class="st2" d="M102,63.2h76.3c25.6,0,46.3,20.7,46.3,46.3v37.1c0,6.1-5,11.1-11.1,11.1h0H102c-6.1,0-11.1-5-11.1-11.1
			c0,0,0,0,0,0V74.3C90.9,68.1,95.9,63.2,102,63.2z"/>
		<path d="M157.8,63.2c0,0,12.4,53.3-35.8,54.3s-3.8-54.3-3.8-54.3L157.8,63.2z"/>
		<path d="M178.3,63c0,0-4.5,53.6,46.3,65.5v-16.8c0,0,1.7-17.5-10.4-31.5C202.1,66.2,188.7,63,178.3,63z"/>
	</g>
	<g id="right_x5F_feet">
		<path class="st1" d="M158.5,146.5c1.1-3.8-1.1-7.8-5-8.9l-15.7-4.5c-3.8-1.1-7.8,1.1-8.9,5l0,0c-0.2,0.8-0.3,1.6-0.3,2.4
			c-0.7,7.1-3,37.4,6.7,40.3c10.2,3.1,20.9-27.9,22.5-32.8C158.1,147.5,158.3,147,158.5,146.5L158.5,146.5z"/>
		<path id="right_x5F_foot" class="st0" d="M105.5,145.2c0.8-3.9-1.7-7.7-5.6-8.6l-16-3.4c-3.9-0.8-7.7,1.7-8.6,5.6l0,0
			c-0.2,0.8-0.2,1.6-0.1,2.5c-0.2,7.1-0.5,37.5,9.5,39.8c10.4,2.4,19-29.3,20.2-34.3C105.2,146.2,105.4,145.7,105.5,145.2
			L105.5,145.2z"/>
	</g>
	<g id="tail">
		<path class="st3" d="M234.7,26.1c0,0-4.3,13.2,3.6,11.5S239.7,28.7,234.7,26.1z"/>
		<path class="st4" d="M207.6,74.9l-1,0c0-0.4,0.4-10.1,7.1-16.4c3.9-3.7,9.2-5.4,15.7-5.2c6.3,0.2,10.3-1,11.8-3.8
			c2.5-4.5-2.3-11.7-2.4-11.8l0.8-0.6c0.2,0.3,5.2,7.8,2.4,12.9c-1.7,3.1-6,4.6-12.7,4.3c-6.2-0.2-11.2,1.4-14.9,4.9
			C208,65.2,207.6,74.8,207.6,74.9z"/>
	</g>
	<g id="face">
		<path d="M45.5,24c0,0-28.3-13.5-41.9-5.2s15,28.8,25.6,29.3c2,0.1,4.1,0,6.1-0.3c3.5-8.5,8.1-16.5,14.1-22.5
			C48.2,24.6,46.8,24.2,45.5,24z"/>
		<path d="M121.2,47.9c10.6-0.5,39.2-20.9,25.6-29.1S105,23.9,105,23.9c-1.4,0.2-2.7,0.7-3.9,1.3l0,0c0,0-0.2-0.2-0.6-0.6
			c-0.4-0.3-0.9-0.8-1.5-1.4c-2-1.7-4.2-3.3-6.5-4.6c-0.6-0.4-1.3-0.7-1.9-1c-0.1-0.1-0.3-0.1-0.4-0.2c-0.1-0.1-0.3-0.1-0.4-0.2
			c-3.6-1.5-7.4-2.5-11.3-2.9c-2.3-0.3-4.7-0.3-7,0l0,0c0,0.2,4.2,37.3,46.1,39.9h0l0-0.1l-2.4-6.3l-0.1-0.2l0,0
			C117.2,47.9,119.2,48,121.2,47.9z"/>
		<path class="st5" d="M51.8,2.5C50.8-6.7,35,11.5,51,23.8c3-2.8,6.4-5,10.1-6.7C57.6,14.1,52.5,8.7,51.8,2.5z"/>
		<path class="st2" d="M117.6,54.4c-41.9-2.6-46.1-39.9-46.1-40.1c-3.6,0.4-7.2,1.3-10.5,2.8c-3.7,1.7-7.1,3.9-10.1,6.7
			c-0.5,0.5-1,1-1.6,1.5c-6,6.1-10.6,14.1-14.1,22.5c-6,14.7-9.5,30.3-10.6,46.1c0.1,1.4,0,5.8,0.2,6c3.2-11.7,13.7-19.8,25.8-19.8
			h49c12.1,0,22.6,8.1,25.8,19.8 M52.3,69.5c-2.6,0-4.6-4.1-4.6-9.3s2.1-9.3,4.6-9.3s4.6,4.1,4.6,9.3S54.9,69.5,52.3,69.5z M97.6,51
			c2.6,0,4.6,4.1,4.6,9.3s-2.1,9.3-4.6,9.3S93,65.3,93,60.2S95,51,97.6,51z"/>
		<g>
			<path d="M52.3,51c-2.6,0-4.6,4.1-4.6,9.3s2.1,9.3,4.6,9.3s4.6-4.1,4.6-9.3S54.9,51,52.3,51z M50.4,62.2c-0.5,0-0.9-0.7-0.9-1.6
				S50,59,50.4,59s0.9,0.7,0.9,1.6S50.9,62.2,50.4,62.2z"/>
			<ellipse class="st2" cx="50.4" cy="60.6" rx="0.9" ry="1.6"/>
		</g>
		<g>
			<path d="M97.6,69.5c2.6,0,4.6-4.1,4.6-9.3s-2.1-9.3-4.6-9.3S93,55.1,93,60.2S95,69.5,97.6,69.5z M94.8,60.6
				c0-0.9,0.4-1.6,0.9-1.6s0.9,0.7,0.9,1.6s-0.4,1.6-0.9,1.6S94.8,61.5,94.8,60.6z"/>
			<ellipse class="st2" cx="95.7" cy="60.6" rx="0.9" ry="1.6"/>
		</g>
		<path class="st6" d="M99.7,80.1h-49c-12.1,0-22.6,8.1-25.8,19.8c-0.6,2.3-0.9,4.6-1,6.9v3.6c0,14.8,12,26.7,26.7,26.7h49
			c14.8,0,26.7-12,26.7-26.7v-3.6c0-2.4-0.3-4.7-1-7C122.3,88.3,111.8,80.2,99.7,80.1z M105.9,99.5c1.4-2.5,3.7-3.8,5.1-3
			s1.4,3.4,0,5.9s-3.7,3.8-5.1,3S104.5,101.9,105.9,99.5z M39.4,96.5c1.4-0.8,3.7,0.5,5.1,3s1.4,5.1,0,5.9s-3.7-0.5-5.1-3
			S38,97.3,39.4,96.5z"/>
		<ellipse transform="matrix(0.5 -0.866 0.866 0.5 -33.1666 144.3999)" class="st2" cx="108.5" cy="100.9" rx="5.1" ry="2.9"/>
		<ellipse transform="matrix(0.866 -0.5 0.5 0.866 -44.8391 34.5041)" class="st2" cx="42" cy="100.9" rx="2.9" ry="5.1"/>
		<path class="st5" d="M90.2,17.4c0.1,0.1,0.3,0.1,0.4,0.2c0.7,0.3,1.3,0.7,1.9,1c1.9,1.1,3.7,2.4,5.5,3.8
			c13.3-12.2-1.4-28.8-2.5-19.9c-0.6,5.6-4.9,10.6-8.3,13.7c0.9,0.3,1.7,0.6,2.6,1C89.9,17.3,90,17.4,90.2,17.4z"/>
	</g>
</g>
</svg>
