<?xml version="1.0" encoding="utf-8"?>
<!-- Generator: Adobe Illustrator 22.1.0, SVG Export Plug-In . SVG Version: 6.00 Build 0)  -->
<svg version="1.1" id="Layer_1" xmlns="http://www.w3.org/2000/svg" xmlns:xlink="http://www.w3.org/1999/xlink" x="0px" y="0px"
	 viewBox="0 0 431.8 445.1" style="enable-background:new 0 0 431.8 445.1;" xml:space="preserve">
<style type="text/css">
	.st0{fill:#F9EBD2;}
	.st1{fill:#DDDDDD;}
	.st2{fill:#A58C6B;}
	.st3{fill:#896F40;}
	.st4{fill:#232323;}
	.st5{opacity:0.82;fill:#F2C5DC;enable-background:new    ;}
	.st6{fill:#FFFFFF;}
	.st7{fill:#B5988F;}
	.st8{fill:#F4B3B3;}
	.st9{fill:none;stroke:#422D12;stroke-width:0.971;stroke-linecap:round;stroke-linejoin:round;}
	.st10{fill:#56432B;}
	.st11{fill:#D8BC7D;}
	.st12{fill:#A88B43;}
	.st13{fill:#F9E8B2;}
	.st14{fill:#F9F0DC;}
	.st15{fill:#231F20;}
	.st16{fill:#C6AC63;}
	.st17{fill:#F47B45;}
	.st18{fill:none;stroke:#B78B29;stroke-width:0.4326;stroke-linecap:round;stroke-linejoin:round;}
	.st19{fill:#F99BAD;}
	.st20{fill:#FCDEE7;}
	.st21{fill:none;stroke:#231F20;stroke-width:1.0382;stroke-linecap:round;stroke-linejoin:round;}
	.st22{fill:#D15D78;}
	.st23{fill:#BCBCBC;}
</style>
<g id="Layer_2_3_">
	<g id="Alpaca">
		<path class="st0" d="M216.1,330c-12.3,0-14.7-0.9-14.2-14.2c0.5-13.3,14.2-12.8,14.2,0V330z"/>
		<path class="st0" d="M173.6,330c-12.3,0-14.7-0.9-14.2-14.2c0.5-13.3,14.2-12.8,14.2,0V330z"/>
		<path class="st0" d="M103.1,326.9c-12.3,0-14.7-0.9-14.2-14.2c0.5-13.3,14.2-12.8,14.2,0V326.9z"/>
		<path class="st0" d="M64.3,326.9c-12.3,0-14.7-0.9-14.2-14.2c0.5-13.3,14.2-12.8,14.2,0V326.9z"/>
		<path class="st0" d="M149.1,35.1c-6.8-2.1-9.3-10.6-10.3-17s18.7,0.4,21.6,4C168.7,32.3,155.9,37.2,149.1,35.1z"/>
		<path class="st0" d="M247.8,35.1c6.8-2.1,9.3-10.6,10.3-17s-18.7,0.4-21.6,4C228.2,32.3,240.9,37.2,247.8,35.1z"/>
		<circle class="st1" cx="188" cy="23.3" r="13.8"/>
		<path class="st2" d="M6.1,211.8c-0.2,0.2-0.3,0.4-0.4,0.7c-3.9,6.5-1.9,15,4.7,19c-2.2,6.8,1.1,14,7.6,16.9
			c-3,6.5-0.6,14.2,5.6,17.8c2.4,3.9,6.5,6.3,11,6.6c0.6,5,3.9,9.3,8.6,11.1c-2.1,3.1-2.5,7-1,10.4c0,0.3,0,0.5,0,0.8
			c0,3.5,1.7,6.7,4.5,8.7c-0.3,1.3-0.3,2.7,0,4.1c1.1,5.8,6.8,9.6,12.5,8.4s9.6-6.8,8.4-12.5c3.7-2.7,5.3-7.4,4-11.8
			c3.1-2.3,4.8-6.1,4.3-9.9c1.3,0.6,2.7,1,4.1,1.2c0.3,2.2,1.2,4.4,2.5,6.2c-1.1,3.1-0.8,6.6,1,9.4c-1.5,3.8-0.8,8.1,2,11.1
			c1,4.9,5.2,8.4,10.2,8.6c5.9,0.2,10.8-4.5,10.9-10.4c3.3-3.4,4-8.5,1.7-12.6c1.7-1,3-2.5,3.9-4.3c3.2-0.7,6.1-2.5,8-5.1
			c0.6,0.1,1.1,0.1,1.7,0.1c2.6,0,5.1-0.7,7.3-2.1c5.5,2.9,12.2,1.9,16.5-2.6c2.2,2.3,5.1,3.7,8.2,4.1c-2.3,3.7-2.1,8.5,0.6,12
			c-2.2,4-1.6,8.9,1.5,12.3c-0.3,1.4-0.3,2.8-0.1,4.1c1,5.8,6.6,9.7,12.4,8.6c5.8-1,9.7-6.6,8.6-12.4c3.9-3.8,4.2-9.9,0.9-14.1
			c5-1,8.5-5.4,8.5-10.5c0-0.3,0-0.6,0-0.9c3.9,1.5,8.3,1.2,11.9-0.9c0,0.1,0.1,0.1,0.1,0.2c-3.4,3.8-3.7,9.5-0.6,13.6
			c-2.2,4-1.6,8.9,1.5,12.3c-0.3,1.4-0.3,2.9,0,4.3c1.1,5.8,6.7,9.6,12.5,8.4s9.6-6.7,8.4-12.5c2.4-2.4,3.4-5.9,2.8-9.2
			c3.2-1.1,5.7-3.6,6.7-6.8c4-1,7.4-3.8,9.1-7.6c4.8-0.3,9.1-3.1,11.3-7.4c6.7-1,11.7-6.7,11.9-13.5c0,0,0,0,0,0
			c7.3-2,11.6-9.6,9.6-16.9c4.6-4.2,5.9-11,3-16.5c3.1-6.1,1.3-13.6-4.3-17.6c0.8-1.2,1.3-2.5,1.7-3.9c1.9-7.4-2.5-14.9-9.9-16.8
			c1.4-4.6,0.2-9.6-3-13.2c1.4-4.6,0.2-9.6-3-13.1c4.4-4.9,4.8-12.2,0.8-17.5c3.5-4.7,3.7-11.2,0.3-16.1c3.4-4.9,3.2-11.4-0.4-16.1
			c3.6-4.7,3.7-11.2,0.4-16.1c3.6-5.3,3.1-12.3-1.2-17c0,0,0,0,0.1-0.1c5.1-5.7,4.6-14.4-1-19.5c0.2-0.2,0.3-0.3,0.5-0.5
			c5.1-5.7,4.7-14.4-1-19.5c-5.7-5.1-14.4-4.7-19.5,1s-4.7,14.4,1,19.5c-5.2,5.2-5.4,13.6-0.4,19c-0.3,0.4-0.6,0.7-0.9,1.1h-72.7
			c-0.3-0.4-0.6-0.8-0.9-1.1c4.9-5.4,4.8-13.8-0.4-19c2.8-3,4.1-7.1,3.5-11.1c5.2-2.6,8.2-8.3,7.5-14.1c-1-7.6-7.9-12.9-15.5-12
			c-7.6,1-12.9,7.9-12,15.5c-1.3,0.7-2.5,1.5-3.5,2.6c-5.4,5.4-5.4,14.1,0,19.5c-4.9,5.2-4.9,13.3-0.1,18.6
			c-4.3,4.7-4.8,11.8-1.2,17c-3.3,4.9-3.2,11.4,0.4,16.1c-3.6,4.7-3.7,11.2-0.4,16.1c-3.4,4.9-3.2,11.3,0.3,16.1
			c-4,5.3-3.6,12.6,0.8,17.5c-0.2,0.3-0.5,0.6-0.7,0.9c-5.1-4.8-12.9-5.1-18.3-0.7c-5.1-4.2-12.3-4.2-17.4-0.1
			c-4.9-4-11.9-4.1-16.9-0.3c-4.6-1.7-9.8-0.8-13.6,2.5c-4.9-4.1-12-4.4-17.1-0.6c-4.3-3.2-10-3.6-14.7-1.1
			c-6.6-3.5-14.7-1.1-18.4,5.3c0,0,0,0-0.1,0c-1.7,0-3.3,0.3-4.8,0.9c-7.1,2.7-10.8,10.6-8.1,17.7c-4.2,2.5-6.7,7-6.7,11.8
			C3.7,206.7,4.6,209.5,6.1,211.8z"/>
		<path class="st3" d="M157.7,164.9c45.9,44.7,82.4,1.8,82.4,1.8C197.5,199.7,157.7,164.9,157.7,164.9z"/>
		<circle class="st0" cx="199.9" cy="63.2" r="50.3"/>
		<path class="st4" d="M186.1,58.1c0-0.2,0-0.4,0-0.6c-0.5-3.8-3.9-6.5-7.7-6c-4.1,0.7-6.9,4.5-6.5,8.6c0,0.2,0,0.4,0,0.6
			c0.5,3.8,3.9,6.5,7.7,6C183.6,66,186.5,62.3,186.1,58.1z M179.2,54.8c0.1,0,0.1,0,0.2,0c1.5-0.1,2.7,1.1,2.7,2.5
			c0.2,1.6-0.9,3-2.5,3.3c-0.1,0-0.1,0-0.2,0c-1.5,0.1-2.7-1.1-2.7-2.5C176.6,56.5,177.7,55.1,179.2,54.8L179.2,54.8z"/>
		<path class="st4" d="M229.7,58.1c0-0.2,0-0.4,0-0.6c-0.5-3.8-3.9-6.5-7.7-6c-4.1,0.7-6.9,4.5-6.5,8.6c0,0.2,0,0.4,0,0.6
			c0.5,3.8,3.9,6.5,7.7,6C227.3,66,230.1,62.3,229.7,58.1z M223.1,54.8c1.5-0.1,2.7,1.1,2.7,2.5c0.2,1.6-0.9,3-2.5,3.3
			c-0.1,0-0.1,0-0.2,0c-1.5,0.1-2.7-1.1-2.7-2.5c-0.2-1.6,0.9-3,2.5-3.3C222.9,54.8,223,54.8,223.1,54.8z"/>
		<ellipse class="st5" cx="168.5" cy="76.1" rx="10.4" ry="1.6"/>
		<ellipse class="st5" cx="230" cy="76.1" rx="10.4" ry="1.6"/>
		<circle class="st6" cx="179.5" cy="58" r="3.4"/>
		<circle class="st6" cx="223.2" cy="58" r="3.4"/>
		<ellipse class="st2" cx="167.3" cy="29.1" rx="13.9" ry="14.1"/>
		<ellipse class="st2" cx="185.2" cy="20" rx="13.9" ry="14.1"/>
		<ellipse class="st2" cx="208.7" cy="15.9" rx="13.9" ry="14.1"/>
		<ellipse class="st2" cx="223" cy="24.9" rx="13.9" ry="14.1"/>
		<path class="st2" d="M154.8,30.2c16.6-10.7,30.1-18,32.8-13.7s-8.5,16.6-25.1,27.3s-5,48.7-7.7,44.4
			C152,83.8,138.2,40.9,154.8,30.2z"/>
		<path class="st2" d="M244.9,29.5c-16.6-10.7-30.1-18-32.8-13.7s8.5,16.6,25.1,27.3s5,48.7,7.7,44.4
			C247.6,83.2,261.5,40.3,244.9,29.5z"/>
		<ellipse class="st2" cx="199.1" cy="25.5" rx="13.9" ry="14.1"/>
		<path class="st7" d="M52.2,317.7c0.5,6.4,5,6.9,5,6.9C49.6,324.5,52.2,317.7,52.2,317.7z"/>
		<path class="st7" d="M91,318.4c0.5,6.4,5,6.9,5,6.9C88.4,325.2,91,318.4,91,318.4z"/>
		<path class="st7" d="M161.5,321.8c0.5,6.4,5,6.9,5,6.9C158.9,328.6,161.5,321.8,161.5,321.8z"/>
		<path class="st7" d="M203.9,321.8c0.5,6.4,5,6.9,5,6.9C201.3,328.6,203.9,321.8,203.9,321.8z"/>
		<path class="st8" d="M199.2,82c-1.3,9-7.5,6.9-7.5,6.9c6.9,11.9,15.9-0.4,14.7,0C199.2,91.3,199.2,82,199.2,82z"/>
		<path class="st9" d="M186.5,84.8c9.6,10.8,12.6-1.2,12.6-1.2"/>
		<path class="st9" d="M211.5,84.8c-9.6,10.8-12.6-1.2-12.6-1.2"/>
		<path class="st10" d="M199.2,84.3c-2.5,0.4-9.8-3.6-7-7.1c2.8-3.5,13.6-2,13.9,0C207,81.9,201.7,83.9,199.2,84.3z"/>
	</g>
</g>
<g id="Layer_2_7_">
	<g id="sheep">
		<polygon class="st11" points="331,301.1 334.9,330.9 346.2,330.9 351.8,300.7 		"/>
		<polygon class="st12" points="343.7,339.7 342.4,336.7 340.7,339.7 339,336.7 337.3,339.7 334.9,330.9 346.2,330.9 		"/>
		<polygon class="st11" points="279.3,301.4 283.3,331.2 294.6,331.2 300.2,301 		"/>
		<polygon class="st12" points="292.1,340 290.8,337 289.1,340 287.4,337 285.6,340 283.3,331.2 294.6,331.2 		"/>
		<polygon class="st11" points="251.3,304.1 255.3,333.9 266.6,333.9 272.2,303.7 		"/>
		<polygon class="st12" points="264.1,342.8 262.8,339.7 261.1,342.8 259.4,339.7 257.6,342.8 255.3,333.9 266.6,333.9 		"/>
		<polygon class="st11" points="357.2,301.4 361.1,331.2 372.4,331.2 378,301 		"/>
		<polygon class="st12" points="369.9,340 368.7,336.9 366.9,340 365.2,336.9 363.5,340 361.1,331.2 372.4,331.2 		"/>
		<circle class="st13" cx="372.8" cy="291.7" r="21.7"/>
		<circle class="st13" cx="381.7" cy="279.3" r="21.7"/>
		<path class="st13" d="M388,218.9v77.5c0,4-3.3,7.3-7.3,7.3H252.7c-4,0-7.3-3.3-7.3-7.3v-77.5c0-4,3.3-7.3,7.3-7.3h127.9
			C384.7,211.6,388,214.9,388,218.9z"/>
		<circle class="st13" cx="399.9" cy="208" r="21.7"/>
		
			<ellipse transform="matrix(0.9078 -0.4193 0.4193 0.9078 -63.1908 172.1353)" class="st14" cx="360" cy="229.8" rx="40.2" ry="43.7"/>
		<circle class="st13" cx="388" cy="190" r="21.7"/>
		<ellipse class="st13" cx="360" cy="173" rx="24.8" ry="21.7"/>
		<circle class="st13" cx="325.7" cy="194.7" r="21.7"/>
		<circle class="st13" cx="320.2" cy="186.4" r="21.7"/>
		<circle class="st13" cx="350" cy="186.4" r="21.7"/>
		<circle class="st13" cx="341.9" cy="295.6" r="21.7"/>
		<circle class="st13" cx="311.4" cy="295.6" r="21.7"/>
		<circle class="st13" cx="279.5" cy="295.6" r="21.7"/>
		<circle class="st13" cx="257.9" cy="295.6" r="21.7"/>
		<circle class="st13" cx="240.1" cy="279.3" r="21.7"/>
		<circle class="st13" cx="245.1" cy="225.6" r="21.7"/>
		<circle class="st13" cx="274.5" cy="216" r="21.7"/>
		<circle class="st13" cx="307.6" cy="216" r="21.7"/>
		<circle class="st13" cx="236.2" cy="255.6" r="21.7"/>
		<circle class="st15" cx="381.7" cy="222.9" r="8.1"/>
		<circle class="st15" cx="341.9" cy="232.5" r="8.1"/>
		<circle class="st6" cx="383.6" cy="221.5" r="2.8"/>
		<circle class="st6" cx="344.5" cy="231.1" r="2.8"/>
		<path class="st12" d="M324.5,216.6c1.5,5.6-11.2,48.8-27.4,32.3c-16.2-16.5,23.5-32.9,23.5-32.9S323.8,214.1,324.5,216.6z"/>
		<path class="st12" d="M399.1,209.9c-1.5,5.6,11.2,48.8,27.4,32.3c16.2-16.5-23.5-32.9-23.5-32.9S399.8,207.4,399.1,209.9z"/>
		<path class="st16" d="M306.5,186.4c-10.2,9.4,3,31.4,23.8,24.8C297.6,209.8,306.5,186.4,306.5,186.4z"/>
		<path class="st16" d="M339.9,170.5c-10.2,9.4,3,31.4,23.8,24.8C331,193.9,339.9,170.5,339.9,170.5z"/>
		<path class="st16" d="M379.2,205.7c7.1,12,31.4,3.6,29.3-18.1C400.3,219.3,379.2,205.7,379.2,205.7z"/>
		<path class="st16" d="M256.4,211.3c-10.2,9.4,3,31.4,23.8,24.8C247.5,234.8,256.4,211.3,256.4,211.3z"/>
		<path class="st16" d="M289.8,203.3c-13.9,1.3-16.7,26.8,3.8,34.2C268.5,216.5,289.8,203.3,289.8,203.3z"/>
		<path class="st16" d="M228,237.1c-1.5,13.8,22.9,21.7,34.3,3.1C236.6,260.6,228,237.1,228,237.1z"/>
		<path class="st16" d="M223.7,271c7.9,11.5,33.7,4.9,30.2-16.7C247.8,286.5,223.7,271,223.7,271z"/>
		<path class="st16" d="M269.9,309c10.2-9.4-0.9-30.3-21.7-23.8C280.9,286.7,269.9,309,269.9,309z"/>
		<path class="st16" d="M324.9,277.3c-13.9,1.1-18,24.4,2.4,32.1C302.4,288,324.9,277.3,324.9,277.3z"/>
		<path class="st16" d="M376.5,294c9.5,10.2,30.3-1.2,23.6-21.9C398.9,304.9,376.5,294,376.5,294z"/>
		<path class="st16" d="M359.2,287c-9.9,9.7,1.9,30.3,22.5,23.1C348.9,309.7,359.2,287,359.2,287z"/>
		<path class="st16" d="M298.3,249.6c-13.7,2.6-15.2,26.2,5.9,31.7C277.2,262.8,298.3,249.6,298.3,249.6z"/>
		<path class="st16" d="M292.1,309.9c12.6-5.9,8.4-29.2-13.4-29.3C309.4,291.9,292.1,309.9,292.1,309.9z"/>
		<path class="st17" d="M366.9,252c-0.8,4.6-3.8,4.2-3.8,4.2s2.2,6.3,4.6,6.3c2.4,0,4.4-7.1,3.6-7C367.1,256,366.9,252,366.9,252z"
			/>
		<path class="st18" d="M358.9,254.6c7.3,4.8,8-2.3,8-3"/>
		<path class="st18" d="M374.8,253.8c-7.3,4.8-8-2.3-8-3"/>
		<path class="st12" d="M360.1,248.9c0.7,2.1,2.6,2.8,5.7,3.7s7.4-5.1,5.9-6.6C368.7,243,359.3,246.8,360.1,248.9z"/>
	</g>
</g>
<g id="Layer_2_6_">
	<g id="Rabbit">
		<path class="st19" d="M197.7,427.5c-6.4,0.5,2.8,8.7,5.8,11.4c3,2.7,9.2,0.5,8.8-1.2c-0.4-1.6-3.1-2.9-3.1-2.9
			S204.1,427,197.7,427.5z"/>
		<path class="st19" d="M210.9,373.2c-67.7,37.7-21.2,68.8-14,67.5c7.3-1.3,5.4-2.6-2.7-11.8c2.7,4.5,6.4,6.1,14.6,8
			c2,0.5-1.1-0.2,1,0.2c5.7,0.9,14.4-5.3,16.7-2.6c8.8,10,21.1,6.7,22.9,6.2c3.4-1-4.5-10.1-1.5-9.4c3,0.7,6.3-0.3,14.6-0.3
			c1.9,3.3-7.9,16,7.9,5.9c15.9-10.1,14.1-40.6,5.2-57C275.7,379.7,298,324.6,210.9,373.2z"/>
		<path class="st19" d="M237.1,336.5c-11.7,2.5-55.9-46.8-36.7-66.1c19.2-19.3,36.7,29.9,41.4,53.7
			C241.8,324.1,248.8,334,237.1,336.5z"/>
		<path class="st20" d="M234.8,327.9c-7.1-3.2-25.3-21.6-30.4-38.3c-2.8-9.2,0.2-12.2,1.2-13.2c1-1,2.4-2.2,3.7-2.2
			c2.1,0,7.3,3.6,13.7,17c5.6,11.9,9.5,25.9,11.2,34.5l0.4,1.8L234.8,327.9z"/>
		<path class="st19" d="M258.5,336.3c11.2,2.1,53.9-38.5,35.4-54.4s-35.4,24.6-39.9,44.1C254,326.1,247.3,334.3,258.5,336.3z"/>
		<path class="st20" d="M260.7,329.3c6.8-2.7,24.4-17.8,29.3-31.5c2.7-7.6-0.2-10-1.2-10.9c-0.9-0.8-2.3-1.8-3.5-1.8
			c-2,0-7.1,2.9-13.2,14c-5.4,9.8-9.2,21.3-10.8,28.4l-0.3,1.5L260.7,329.3z"/>
		<path class="st19" d="M220.7,331.8c7.6-7.2,16.2-12.4,28.1-12.4c11.5,0,19.2,3.5,26.8,10.3c7.6,6.8,13.6,17.1,15,27.1
			c1.2,9.1,0.5,15.2-5.6,22.4c-7.2,8.5-23.1,11.7-36,11.7c-13.7,0-30.5-4.3-36.7-14.4c-4.3-7.1-6.2-11.4-5.2-19.7
			C208.2,347.5,213.7,338.5,220.7,331.8z"/>
		<circle class="st15" cx="268.2" cy="349.8" r="7.4"/>
		<circle class="st15" cx="231.4" cy="349.8" r="7.4"/>
		<circle class="st6" cx="270.3" cy="347.5" r="2.2"/>
		<circle class="st6" cx="234" cy="347.5" r="2.2"/>
		<path class="st21" d="M249.5,363.2c6.7,7,12.8,0,12.8,0"/>
		<path class="st21" d="M249,363.2c-6.7,7-12.8,0-12.8,0"/>
		<ellipse class="st15" cx="249.3" cy="360" rx="4.6" ry="3.3"/>
		<path class="st22" d="M273.2,297.2c2.1-3.7,10.4-2.5,10.4-2.5C280.6,269.8,271.2,300.9,273.2,297.2z"/>
		<path class="st19" d="M274.1,284.1c11.3-5.5,17.5,57.2,26.4,34.8c8.9-22.3-6.6-37-6.6-37C283.6,272,274.1,284.1,274.1,284.1z"/>
		<circle class="st20" cx="177" cy="409.1" r="8.6"/>
		<path class="st22" d="M252.3,431.1c3-0.2,5.3-0.3,8.6-0.3c2.7-0.5,4.9-10.2,4.9-10.2C263.4,426.2,258.3,430.1,252.3,431.1z"/>
		<path class="st22" d="M211.1,374.4c18.4,25.1,64.5,11.5,64.5,11.5C226.7,402.8,211.1,374.4,211.1,374.4z"/>
		<path class="st6" d="M249.3,363.4c-1.4,13.5,2.6,10.2,5.1,10.4c2.5,0.1,1.5-7.1,1.5-7.1C253.4,366.5,251,365.3,249.3,363.4z"/>
		<path class="st6" d="M249.3,363.4c1.4,13.5-2.6,10.2-5.1,10.4c-2.5,0.1-1.5-7.1-1.5-7.1C245.2,366.5,247.6,365.3,249.3,363.4z"/>
		<path class="st23" d="M249.5,371.7c0.8-2.1,0.8-4.5,0.1-6.6C249.9,367.2,249.5,371.7,249.5,371.7z"/>
		<path class="st6" d="M251.3,358.4c0.7,0,1.7,1.7,1.7,0.7s-1.7-1.4-1.7-1.4C250.4,357.8,250.5,358.4,251.3,358.4z"/>
		<path class="st22" d="M209.1,436.9c-14.3-3.9-17.7-13-17.7-13C191.9,433.9,209.1,436.9,209.1,436.9z"/>
		<path class="st22" d="M211.4,422.7c1.1,4.5,14,7.7,14,7.7C218.1,428.2,211.4,422.7,211.4,422.7z"/>
		<path class="st22" d="M182.5,429.3c3.9-1.2,1.1-5.4,1.1-5.4C188.4,428.7,182.5,429.3,182.5,429.3z"/>
	</g>
</g>
</svg>
