<?xml version="1.0" encoding="utf-8"?>
<!-- Generator: Adobe Illustrator 22.1.0, SVG Export Plug-In . SVG Version: 6.00 Build 0)  -->
<svg version="1.1" id="Layer_1" xmlns="http://www.w3.org/2000/svg" xmlns:xlink="http://www.w3.org/1999/xlink" x="0px" y="0px"
	 viewBox="0 0 435.2 342.5" style="enable-background:new 0 0 435.2 342.5;" xml:space="preserve">
<style type="text/css">
	.st0{fill:#565556;}
	.st1{fill:#FFFFFF;stroke:#000000;stroke-width:1.2744;stroke-miterlimit:10;}
	.st2{fill:#231F20;stroke:#000000;stroke-width:1.6232;stroke-miterlimit:10;}
	.st3{fill:#FFFFFF;}
	.st4{fill:#DBD5D7;}
	.st5{stroke:#000000;stroke-width:0.6372;stroke-miterlimit:10;}
	.st6{fill:#FFCE55;}
	.st7{fill:#FFB3C9;}
	.st8{fill:none;stroke:#231F20;stroke-linecap:round;stroke-linejoin:round;}
	.st9{fill:#F7C5C3;}
	.st10{fill:#D24D64;}
	.st11{fill:none;stroke:#F7C5C3;stroke-width:2.9832;stroke-linecap:round;stroke-linejoin:round;}
	.st12{fill:#F3A3AC;}
	.st13{fill:#F1909B;}
	.st14{fill:#231F20;}
	.st15{fill:#FADCE0;}
	.st16{fill:#F59087;stroke:#F79086;stroke-width:1.9888;stroke-linecap:round;stroke-linejoin:round;}
	.st17{fill:none;stroke:#F79086;stroke-linecap:round;stroke-linejoin:round;}
	.st18{fill:#AF354F;}
	.st19{fill:#F4B3B3;}
	.st20{fill:#5E3918;}
	.st21{fill:#A54426;}
	.st22{fill:#F9EAC2;}
	.st23{fill:#F9F8E2;}
	.st24{fill:#F7C743;}
	.st25{fill:#EBBD54;}
	.st26{fill:#D65C2E;}
	.st27{fill:#DB6F4D;}
	.st28{fill:#ED7D5F;}
	.st29{fill:#F28E70;}
	.st30{fill:#E5E2BD;}
	.st31{fill:#F7DA76;}
	.st32{fill:#F9DC9B;}
	.st33{fill:none;stroke:#231F20;stroke-width:0.4761;stroke-linecap:round;stroke-linejoin:round;}
	.st34{fill:none;stroke:#231F20;stroke-width:0.5;stroke-linecap:round;stroke-linejoin:round;}
</style>
<g id="Layer_2_5_">
	<g id="Alpaca_1_">
		<path class="st0" d="M389.2,168.2c0-5.1-4.1-9.2-9.2-9.2h-20.8c-5.1,0-9.2,4.1-9.2,9.2l0,0c0,1.1,0.2,2.1,0.5,3.1
			c1.6,8.9,9.4,46.8,22.4,47.1c13.6,0.2,15.8-41.6,16.1-48.1C389.2,169.6,389.2,168.9,389.2,168.2L389.2,168.2z"/>
		<path class="st1" d="M404,152.8"/>
		<path class="st2" d="M422.4,35.5c0,0-5.4,16.9,4.5,14.7S428.7,38.7,422.4,35.5z"/>
		<path class="st3" d="M253.3,82.7h97.2c32.6,0,59,26.4,59,59v47.2c0,7.8-6.3,14.2-14.2,14.2l0,0H253.3c-7.8,0-14.2-6.3-14.2-14.2
			V96.8C239.1,89,245.5,82.7,253.3,82.7C253.3,82.7,253.3,82.7,253.3,82.7z"/>
		<path class="st0" d="M257.7,187.2c1.1-5-2.1-9.9-7.1-10.9l-20.3-4.4c-5-1.1-9.9,2.1-10.9,7.1l0,0c-0.2,1-0.3,2.1-0.1,3.1
			c-0.3,9.1-0.6,47.8,12.1,50.7c13.3,3.1,24.2-37.3,25.8-43.7C257.3,188.5,257.6,187.9,257.7,187.2z"/>
		<path class="st4" d="M325.2,188.8c1.4-4.9-1.4-10-6.3-11.4l-20-5.7c-4.9-1.4-10,1.4-11.4,6.3l0,0c-0.3,1-0.4,2.1-0.3,3.1
			c-0.9,9-3.9,47.6,8.6,51.4c13,4,26.6-35.6,28.7-41.8C324.8,190.2,325,189.5,325.2,188.8L325.2,188.8z"/>
		<path class="st4" d="M411.2,182.6c0-5.1-4.1-9.2-9.2-9.2h-20.8c-5.1,0-9.2,4.1-9.2,9.2l0,0c0,1.1,0.2,2.1,0.5,3.1
			c1.6,8.9,9.4,46.8,22.4,47.1c13.6,0.2,15.8-41.6,16.1-48.1C411.1,184,411.2,183.3,411.2,182.6L411.2,182.6z"/>
		<path d="M324.3,82.7c0,0,15.7,67.9-45.6,69.1s-4.8-69.1-4.8-69.1L324.3,82.7z"/>
		<path d="M350.5,82.5c0,0-5.7,68.3,59,83.4v-21.4c0,0,2.2-22.4-13.2-40.2C380.9,86.5,363.7,82.5,350.5,82.5z"/>
		<path class="st5" d="M387.9,97.6l-1.3,0c0-0.5,0.5-12.9,9.1-20.9c5-4.7,11.7-6.9,20-6.6c8,0.3,13.1-1.3,15.1-4.9
			c3.2-5.8-2.9-15-3-15.1l1.1-0.7c0.3,0.4,6.6,9.9,3.1,16.4c-2.2,4-7.7,5.8-16.2,5.5c-7.9-0.3-14.3,1.8-19,6.2
			C388.4,85.3,387.9,97.5,387.9,97.6z"/>
		<path class="st6" d="M238.2,24.4c0.2,0.1,0.3,0.2,0.5,0.2c0.8,0.4,1.7,0.9,2.4,1.3c2.4,1.5,4.8,3.1,7,4.8
			C265,15.2,246.3-6,245,5.4c-0.8,7.1-6.2,13.5-10.5,17.5c1.1,0.4,2.2,0.8,3.3,1.3C237.9,24.2,238,24.3,238.2,24.4z"/>
		<path d="M181.2,32.7c0,0-36.1-17.2-53.4-6.6s19.1,36.7,32.6,37.3c2.6,0.1,5.2,0,7.8-0.4c4.5-10.8,10.3-21,17.9-28.7
			C184.7,33.6,183,33,181.2,32.7z"/>
		<path d="M277.8,63.3c13.5-0.7,49.9-26.6,32.6-37.1S257,32.7,257,32.7c-1.7,0.3-3.4,0.8-5,1.6l0,0c0,0-0.3-0.3-0.8-0.7
			c-0.5-0.4-1.1-1-1.9-1.8c-2.6-2.2-5.3-4.2-8.2-5.9c-0.8-0.5-1.6-0.9-2.4-1.3c-0.2-0.1-0.3-0.2-0.5-0.2c-0.2-0.1-0.3-0.1-0.5-0.2
			c-4.6-2-9.4-3.2-14.3-3.7c-3-0.4-6-0.3-8.9,0l0,0c0,0.3,5.3,47.5,58.7,50.8h0l0-0.1l-3.1-8.1l-0.1-0.2l0,0
			C272.6,63.3,275.2,63.4,277.8,63.3z"/>
		<path class="st6" d="M189.3,5.4c-1.3-11.8-21.4,11.4-1.1,27c3.8-3.5,8.1-6.4,12.8-8.5C196.6,20.1,190.2,13.3,189.3,5.4z"/>
		<path class="st7" d="M250.3,104.3h-62.4c-15.4,0.1-28.8,10.4-32.9,25.2c-0.8,2.9-1.2,5.9-1.2,8.8v4.5c0.1,18.8,15.3,34,34.1,34.1
			h62.4c18.8-0.1,34-15.3,34.1-34.1v-4.5c0-3-0.4-6-1.2-8.9C279.2,114.7,265.7,104.4,250.3,104.3z M258.3,129
			c1.8-3.1,4.7-4.8,6.5-3.8c1.8,1,1.8,4.4-0.1,7.5c-1.8,3.1-4.7,4.8-6.5,3.8C256.5,135.4,256.5,132.1,258.3,129L258.3,129z
			 M173.5,125.2c1.8-1,4.7,0.7,6.5,3.8c1.8,3.1,1.8,6.5,0.1,7.5c-1.8,1-4.7-0.7-6.5-3.8S171.7,126.2,173.5,125.2L173.5,125.2z"/>
		<ellipse transform="matrix(0.5 -0.866 0.866 0.5 17.4724 291.8819)" class="st3" cx="261.5" cy="130.8" rx="6.5" ry="3.7"/>
		<ellipse transform="matrix(0.866 -0.5 0.5 0.866 -41.7234 105.9047)" class="st3" cx="176.8" cy="130.8" rx="3.7" ry="6.5"/>
		<path class="st0" d="M166.7,233"/>
		<path class="st3" d="M273.2,71.5c-6-0.3-12-1.4-17.7-3.1c-1.1-0.5-2.2-0.9-3.4-1.1c-33.8-12.4-37.6-46.6-37.7-46.8
			c-4.6,0.5-9.1,1.6-13.4,3.5c-4.7,2.1-9,5-12.8,8.5c-0.7,0.6-1.3,1.3-2,1.9c-7.7,7.7-13.5,17.9-17.9,28.7
			c-7.6,18.7-12.2,38.6-13.5,58.7c0.1,1.8,0,7.4,0.3,7.7c4-14.8,17.5-25.2,32.9-25.2h62.4c15.4,0.1,28.8,10.4,32.9,25.2L273.2,71.5z
			"/>
		<path class="st8" d="M237.3,82.5c0.7-4,10.6-11.2,17.8,2.2"/>
		<path class="st8" d="M199.1,82.5c-0.7-4-10.6-11.2-17.8,2.2"/>
	</g>
</g>
<g id="Layer_2_2_">
	<g id="Pig">
		<path class="st9" d="M134.2,237.8c-2.9,6.8,6.3,29.5,6.3,29.5h11.8c0,0,6.8-24.3,4.8-29.5C154.7,231.7,138.6,227.5,134.2,237.8z"
			/>
		<path class="st10" d="M138.6,262.3h14.9c0,0-2.4,11-4.7,10.8c-2.3-0.1-2.7-3.6-2.7-3.6s-0.5,3.5-2.2,3.6
			C142.2,273.3,138.6,262.3,138.6,262.3z"/>
		<path class="st11" d="M191.7,224.3c0.6-6.8,1.6-10.4,11.8-15.5s6.4-16.4,0-15.8c-6.4,0.5,0.5,14.6,13.5,6.1c13-8.4,1-13.2,1-13.2"
			/>
		<path class="st9" d="M157.4,253.6L73.1,259c-20.7-0.1-37.5-16.8-37.6-37.6v-34c0-11.6,9.4-21,21-21h80.9
			c30.8,0.1,55.8,25.1,55.9,55.9l0,0C193.4,242.5,177.6,253.6,157.4,253.6z"/>
		<path class="st12" d="M136.8,166.5c0,0-11.7,56.9-100.5,21.8c0,0,85.6,61.4,110.8-21C147.1,167.3,138,165.8,136.8,166.5z"/>
		<path class="st9" d="M170.2,237.8c-2.9,6.8,6.3,29.5,6.3,29.5h11.8c0,0,6.8-24.3,4.8-29.5C190.7,231.7,174.6,227.5,170.2,237.8z"
			/>
		<path class="st10" d="M174.6,262.3h14.9c0,0-2.4,11-4.7,10.8c-2.3-0.1-2.7-3.6-2.7-3.6s-0.5,3.5-2.2,3.6
			C178.1,273.3,174.6,262.3,174.6,262.3z"/>
		<path class="st9" d="M35.9,234.2c-4.8,5.6-2.7,30-2.7,30l11.3,3.5c0,0,13.6-21.3,13.2-26.8C57.3,234.5,43.2,225.7,35.9,234.2z"/>
		<path class="st10" d="M33,259l14.3,4.4c0,0-5.5,9.8-7.7,8.9c-2.2-0.8-1.6-4.3-1.6-4.3s-1.5,3.2-3.2,2.8S33,259,33,259z"/>
		<path class="st9" d="M70.4,237.8c-2.9,6.8,6.3,29.5,6.3,29.5h11.8c0,0,6.8-24.3,4.8-29.5C90.8,231.7,74.8,227.5,70.4,237.8z"/>
		<path class="st10" d="M74.8,262.3h14.9c0,0-2.4,11-4.7,10.8c-2.3-0.1-2.7-3.6-2.7-3.6s-0.5,3.5-2.2,3.6
			C78.3,273.3,74.8,262.3,74.8,262.3z"/>
		<path class="st9" d="M33.9,98.2c14.8-28.8,88-23.4,99.7,16.4s13.1,102.6-85.7,74.8C-14.9,171.6,33.9,98.2,33.9,98.2z"/>
		<path class="st13" d="M42.2,83.5c-11.5-1.8-52.8,16.9-35.9,36.3c28.7,32.9,28.8-16,35.6-20.2C53.2,92.6,57.3,85.9,42.2,83.5z"/>
		<path class="st13" d="M132.2,99.6c11.7,2.1,45.3,34.1,22.5,47.1c-38.8,22.2-22.4-25.1-27.6-31.4
			C118.5,104.7,116.8,96.9,132.2,99.6z"/>
		<ellipse class="st14" cx="55.2" cy="128.1" rx="9.1" ry="10.1"/>
		<path class="st3" d="M55,125.3c-0.8,1.8-2.8,3-4.4,2.6c-1.7-0.4-2.4-2.2-1.6-4.1c0.8-1.8,2.8-3,4.4-2.6S55.8,123.4,55,125.3z"/>
		<ellipse class="st14" cx="100.9" cy="136.9" rx="9.1" ry="10.1"/>
		<path class="st3" d="M100.7,134.1c-0.8,1.8-2.8,3-4.4,2.6c-1.7-0.4-2.4-2.2-1.6-4.1c0.8-1.8,2.8-3,4.4-2.6
			C100.8,130.5,101.5,132.3,100.7,134.1z"/>
		<path class="st15" d="M35.9,153.3c-6.7,27.4,25.5,28.8,33.5,19.5c3.9-4.6,4.2,4.2,9.8,7.6c2.2,1.3,26.9,16.9,31.7-12.9
			C115.7,137.7,43.4,122.4,35.9,153.3z"/>
		<path class="st10" d="M83.5,158.1c-5.9,3.6-5.3,12.8,3.6,12.7S90.7,153.7,83.5,158.1z"/>
		<path class="st10" d="M64.2,154.3c5.3,4.5,3.2,13.4-5.6,12C49.8,164.8,57.7,148.8,64.2,154.3z"/>
		<path class="st12" d="M35.9,166.3c0,0,15.5,17.8,34.3,3.8c4.2-2.7,8.4,5,10.6,7.3c2.2,2.3,13.9,8.8,26.4,1c0,0-3.8,10.2-18.5,6.3
			c-15.2-4-12.2-10.7-16.5-10.9c-5.7-0.2-16,9.8-30.7,0.2C35,168.8,35.9,166.3,35.9,166.3z"/>
		<path class="st16" d="M56.2,183.3c-0.5-1.1,23.4,2.2,24.5,3.6C81.8,188.3,64,200,56.2,183.3z"/>
		<path class="st17" d="M81.5,184.3c-0.3,0.5-1.4,4.1,2.4,4.9"/>
		<path class="st17" d="M55.6,180.6c0.3,0.5,1.4,4.1-2.4,4.9"/>
		<path class="st12" d="M44.2,230.7c0,0,20,2.8,9.7,21.4C53.8,252.1,69.8,230.7,44.2,230.7z"/>
		<path class="st12" d="M182.1,231.5c0,0-14.3-1.9-9.7,23.9C172.4,255.5,158.9,224.3,182.1,231.5z"/>
		<path class="st12" d="M81.1,231.5c-7.9,0.6-14.3,1.6-7.7,26.8c0,0-11-24.3-3.6-26.8S81.1,231.5,81.1,231.5z"/>
		<polygon class="st12" points="136.2,255 139.7,254.8 140.5,262.3 138.6,262.3 		"/>
		<path class="st18" d="M140.5,262.3l2.2,9.9c-1.8-3.1-3.2-6.4-4.1-9.9H140.5z"/>
		<path class="st10" d="M9.5,123.3c1.6-5.7,18.1-22.7,32-23.4c-5.6,9.2-7.7,36.1-22.4,30.4C13.8,128.1,9.5,123.3,9.5,123.3z"/>
		<path class="st10" d="M127.1,115.3c0.2,0.1,0.3,0.2,0.4,0.3c5.2,3.5,26.7,27,22.1,33.8c-5.2,2-24,13-21.6-20.3L127.1,115.3z"/>
		<path class="st19" d="M60.2,189.9c-1.8-1.6,14.1-1.9,18.4,0.3C78.5,190.2,67.8,196.6,60.2,189.9z"/>
	</g>
</g>
<g id="Layer_2_4_">
	<g id="Chicken_1_">
		<path class="st20" d="M262.1,335.3c-0.6-0.2-3,0.3-2.7,0.5c0.4,0.1,1.4-0.1,1.7,0c0.3,0.1-2.7,1-2.8,1.5s2.9-0.8,3.2-1
			c0.3-0.2-0.6,1.6-0.7,1.9c0,0.4,0.5-0.1,1.6-2.2c0.3-0.2,0.8,0.2,0.9,0.2C263.4,336.1,263.3,335.6,262.1,335.3z"/>
		<path class="st20" d="M272.6,335.6c-0.6-0.2-3,0.3-2.7,0.5c0.4,0.1,1.4-0.1,1.7,0c0.3,0.1-2.7,1-2.8,1.5s2.9-0.8,3.2-1
			c0.3-0.2-0.6,1.6-0.7,1.9c0,0.4,0.5-0.1,1.6-2.2c0.3-0.2,0.8,0.2,0.9,0.2C274,336.4,273.9,335.9,272.6,335.6z"/>
		<path class="st20" d="M309.4,335.6c-0.6-0.2-3,0.3-2.7,0.5c0.4,0.1,1.4-0.1,1.7,0c0.3,0.1-2.7,1-2.8,1.5c0,0.5,2.9-0.8,3.2-1
			s-0.6,1.6-0.7,1.9c0,0.4,0.5-0.1,1.6-2.2c0.3-0.2,0.8,0.2,0.9,0.2C310.8,336.5,310.7,336,309.4,335.6z"/>
		<path class="st20" d="M320,335.6c-0.6-0.2-3,0.3-2.7,0.5c0.4,0.1,1.4-0.1,1.7,0c0.3,0.1-2.7,1-2.8,1.5c0,0.5,2.9-0.8,3.2-1
			s-0.6,1.6-0.7,1.9c0,0.4,0.5-0.1,1.6-2.2c0.3-0.2,0.8,0.2,0.9,0.2C321.4,336.5,321.3,336,320,335.6z"/>
		<polygon class="st20" points="207.2,321.3 203.7,330.8 204.6,330.8 208,321.3 		"/>
		<path class="st20" d="M204.1,330c-1.5-0.4-7.6,0.7-7,1.4c0.9,0.4,3.6-0.1,4.4,0c0.9,0.1-7,2.6-7.1,3.9c-0.1,1.3,7.4-2.1,8.3-2.6
			c0.9-0.5-1.6,4-1.7,4.8c-0.1,1,1.3-0.3,4.1-5.7c0.8-0.6,2,0.5,2.3,0.4C207.5,332.1,207.3,330.8,204.1,330z"/>
		<polygon class="st20" points="177.6,321.3 174.1,330.8 175.1,330.8 178.4,321.3 		"/>
		<path class="st20" d="M174.5,330c-1.5-0.4-7.6,0.7-7,1.4c0.9,0.4,3.6-0.1,4.4,0c0.9,0.1-7,2.6-7.1,3.9s7.4-2.1,8.3-2.6
			s-1.6,4-1.7,4.8c-0.1,1,1.3-0.3,4.1-5.7c0.8-0.6,2,0.5,2.3,0.4C177.9,332.1,177.7,330.8,174.5,330z"/>
		<path class="st21" d="M142.4,264c0.8,2.5-0.3,9.7,1.7,11.8c2,2.1,9.9-2.5,3.3-11.5C140.9,255.3,142.4,264,142.4,264z"/>
		<path class="st22" d="M230.8,268.5c1.2,3.1-1.1,19.9-16.7,11.6c-9.8-5.3-18.6-6.3-23.8-6.4l0,0c-4-1.5-18.3-28.2-18.3-28.2l0,0
			c-1.8-7.9-8.5-13.8-16.5-13.8c-9.4,0-17,8-17,17.9c0,4.6,1.7,9,4.7,12.4c0,0,6,4.3,6,4.3c4.9,5.6,2.5,18.1,2.3,28.3
			c-0.6,2-1,4-1,6.1c0,14.8,16.5,26.8,36.8,26.8c9.1,0,17.4-2.4,23.8-6.4l0,0C248.5,316.5,230.8,268.5,230.8,268.5z"/>
		<path class="st23" d="M186.3,290.2c9.5,8.7,21.7,10.8,28.1,7.8s-15.4,26.8-33.5,8.6C162.7,288.3,182.7,286.9,186.3,290.2z"/>
		<path class="st24" d="M140.5,252.8l-8.9,7.8c0,0,10.9,1.5,12.1-1S143,252.8,140.5,252.8z"/>
		<path class="st25" d="M136.5,261c0,0,7.1-1.8,7.6-2.9C144.1,258.1,145.1,261.8,136.5,261z"/>
		<path class="st26" d="M155.5,231.7c0.4-2.6-0.4-16.9,6.3-12.7s-4.7,11.4-5.1,12.6C155.8,231.7,155.5,231.7,155.5,231.7z"/>
		<path class="st27" d="M160.4,232.4c1.5-1.8,7.3-12.5,10.4-6.2c3.1,6.3-7.7,6.2-8.6,6.9C161.5,232.8,161,232.6,160.4,232.4z"/>
		<path class="st28" d="M165.1,234.7c1.7-0.6,10.2-5.5,9.7-0.1c-0.5,5.4-7.5,1-8.4,1.2C165.3,234.9,165.1,234.7,165.1,234.7z"/>
		<path class="st29" d="M169.4,239.3c1.3-0.2,8.1-2.6,7,1.3c-1.1,3.8-5.8-0.4-6.5-0.5C169.7,239.7,169.4,239.3,169.4,239.3z"/>
		<path class="st26" d="M140.9,263.1c-0.6,2.6-5,7.6-4.4,10.7s9.2,5.1,8.3-6.9C143.9,254.9,140.9,263.1,140.9,263.1z"/>
		<path class="st26" d="M231,269.2c-7-1-27.2-21.3-15.1-22.9C228.1,244.7,232,269.3,231,269.2z"/>
		<path class="st26" d="M231,269.2c2.9-2.3,2.4-27.4,13.7-20.7C255.9,255.2,231,269.2,231,269.2z"/>
		<path class="st30" d="M173.8,292.3c1.7,3.6,9.5,20.2,28.9,18.1c-11.1,5.4-19.3,0.9-26.9-9.7C171.9,295.3,173.8,292.3,173.8,292.3z
			"/>
		<polygon class="st20" points="264.3,329.6 262,335.7 262.6,335.7 264.8,329.6 		"/>
		<polygon class="st20" points="274.7,329.6 272.5,335.7 273.1,335.7 275.3,329.6 		"/>
		<circle class="st31" cx="259.3" cy="301.1" r="9.7"/>
		<ellipse class="st31" cx="267.7" cy="320.1" rx="15" ry="13.1"/>
		<path class="st31" d="M266.9,302.9c0,0,0.3,3.5,1.4,3.7c1.1,0.2,9.4,4.1,10.2,5.3s7.8,0,7.1-3.9c0,0,6.6,12.1-5.5,16.3
			C268,328.6,257.3,310.1,266.9,302.9z"/>
		<path class="st24" d="M252.5,303.3c0.4,0.3,1.2,1.8,1.2,2.3c-0.1,0.5-4.9,2.6-4.9,2.6l1.8-2.5l-2.8-1.8L252.5,303.3z"/>
		<path class="st25" d="M250.6,307.5c0,0,3.1-2.2,2.7-3.1c0,0,0.5,0.9,0.4,1.2C253.6,306.1,250.6,307.5,250.6,307.5z"/>
		<path class="st25" d="M256.9,310.8c0,0,6.7,2.1,10.9-4.1l1.9,0.7C269.7,307.5,264.6,313.8,256.9,310.8z"/>
		<polygon class="st20" points="311.5,329.6 309.3,335.7 309.9,335.7 312.1,329.6 		"/>
		<polygon class="st20" points="322,329.6 319.7,335.7 320.3,335.7 322.5,329.6 		"/>
		<circle class="st31" cx="306.6" cy="301.1" r="9.7"/>
		<ellipse class="st31" cx="315.3" cy="320.1" rx="14.7" ry="13.1"/>
		<path class="st31" d="M314.2,302.9c0,0,0.3,3.5,1.4,3.7c1.1,0.2,9.4,4.1,10.2,5.3c0.9,1.2,7.8,0,7.1-3.9c0,0,6.6,12.1-5.5,16.3
			C315.2,328.6,304.5,310.1,314.2,302.9z"/>
		<path class="st24" d="M299.7,303.8c0.1,0.5,0.3,2.1-0.1,2.4c-0.4,0.4-6.3-0.6-6.3-0.6l2.9-1l-1.2-3.1L299.7,303.8z"/>
		<path class="st25" d="M295.2,306c0,0,4.5-0.2,4.6-1.1c0,0,0.1,1.1-0.2,1.4C299.2,306.6,295.2,306,295.2,306z"/>
		<path class="st25" d="M304.1,310.8c0,0,6.7,2.1,10.9-4.1l1.9,0.7C316.9,307.5,311.9,313.8,304.1,310.8z"/>
		<path class="st32" d="M171.3,248.3c1.1-4.5,1.4,15-15.8,17.5C155.5,265.8,168.3,260.2,171.3,248.3z"/>
		<path class="st32" d="M151.5,294.5c1-3.5,7.3,28.4,54.3,29C186,335.2,143.5,321.3,151.5,294.5z"/>
		<path class="st23" d="M266.4,317.9c-2.8,0-2.9,4-0.8,5.3c2.4,1.6,8.8,2.3,8.8,2.3l-1.5-1l1.6,0.3l-1.2-1.1l1.4,0.2l-1-0.7l1.2,0.2
			l-1.2-0.9l1.6-0.1C275.3,322.4,268,317.9,266.4,317.9z"/>
		<path class="st30" d="M264.2,320.5c0.7,0.6,3.7,3.2,8.7,4.8C268.4,324.5,264,323.8,264.2,320.5z"/>
		<path class="st23" d="M314.8,317.9c-2.8,0-2.9,4-0.8,5.3c2.4,1.6,8.8,2.3,8.8,2.3l-1.5-1l1.6,0.3l-1.2-1.1l1.4,0.2l-1-0.7l1.2,0.2
			l-1.2-0.9l1.6-0.1C323.7,322.4,316.3,317.9,314.8,317.9z"/>
		<path class="st30" d="M312.5,320.5c0.7,0.6,3.7,3.2,8.7,4.8C316.7,324.5,312.3,323.8,312.5,320.5z"/>
		<path class="st31" d="M304.1,292.3c-0.2-1.4-1.1-1.7-1.7-1.7c-0.6,0,0.5-1,2.2-0.2c0.7-1.6,1.7-0.6,2.2-0.3
			c-0.9,0.4-1.2,0.6-0.3,1.3C307.5,292.1,304.1,292.3,304.1,292.3z"/>
		<path class="st31" d="M257.9,292.2c-0.2-1.3-1.2-2.1-1.8-1.7c0.7-1.8,2.9-0.3,2.9-0.3s0.5-1.9,1.8-1.3c0,0.9-0.6,0.9,0.2,3
			S257.9,292.2,257.9,292.2z"/>
		<path class="st8" d="M141.6,249c0-0.8,0.3-6,5-2"/>
		<path class="st33" d="M251.8,301.1c0-0.4,0.1-2.9,2.4-0.9"/>
		<path class="st34" d="M299.3,301.3c0.2-0.3,1.8-2.4,2.6,0.6"/>
	</g>
</g>
</svg>
