<svg xmlns="http://www.w3.org/2000/svg" viewBox="0 0 295.4712 257.0064"><defs><style>.cls-1{fill:#f7c5c3;}.cls-2{fill:#d24d64;}.cls-3,.cls-9{fill:none;stroke-linecap:round;stroke-linejoin:round;}.cls-3{stroke:#f7c5c3;stroke-width:3px;}.cls-4{fill:#f3a3ac;}.cls-5{fill:#f1909b;}.cls-6{fill:#231f20;}.cls-7{fill:#fff;}.cls-8{fill:#fadce0;}.cls-9{stroke:#f79086;stroke-width:2px;}.cls-10{fill:#af354f;}</style></defs><title>pig</title><g id="Layer_2" data-name="Layer 2"><g id="Pig"><path class="cls-1" d="M175.5979,209.9445c-3.8632,9.0142,8.3361,39.2286,8.3361,39.2286h15.6914S208.67,216.7982,206,209.9445C202.8526,201.8643,181.4822,196.2144,175.5979,209.9445Z"/><path class="cls-2" d="M181.48,242.6161h19.8711s-3.1836,14.58-6.2819,14.3865-3.6536-4.8412-3.6536-4.8412-.6066,4.6513-2.93,4.8431S181.48,242.6161,181.48,242.6161Z"/><path class="cls-3" d="M252.1273,192.0257c.7676-9.095,2.1283-13.8574,15.7351-20.6608s8.5043-21.7709,0-21.0906.68,19.39,18.029,8.1641,1.3607-17.5727,1.3607-17.5727"/><path class="cls-1" d="M206.493,231.0256,94.3068,238.2079a50.147,50.147,0,0,1-50-50V142.9623a28.0823,28.0823,0,0,1,28-28H180.0182a74.5856,74.5856,0,0,1,74.367,74.367h0C254.3852,216.2126,233.3762,231.0256,206.493,231.0256Z"/><path class="cls-4" d="M179.0971,115.0964s-15.56,75.6754-133.7539,28.9515c0,0,113.9669,81.6966,147.4622-27.9772C192.8054,116.0706,180.6515,114.1728,179.0971,115.0964Z"/><path class="cls-1" d="M223.49,209.9445c-3.8632,9.0142,8.3361,39.2286,8.3361,39.2286h15.6914s9.0444-32.3749,6.3746-39.2286C250.7447,201.8643,229.3743,196.2144,223.49,209.9445Z"/><path class="cls-2" d="M229.3718,242.6161h19.8711s-3.1836,14.58-6.2819,14.3865-3.6536-4.8412-3.6536-4.8412-.6066,4.6513-2.93,4.8431S229.3718,242.6161,229.3718,242.6161Z"/><path class="cls-1" d="M44.8259,205.2249c-6.3419,7.4807-3.5614,39.9461-3.5614,39.9461l14.9984,4.6117s18.16-28.2869,17.6224-35.6226C73.2517,205.5117,54.4856,193.8306,44.8259,205.2249Z"/><path class="cls-2" d="M40.8457,238.1823l18.9935,5.84s-7.3281,13.0006-10.2327,11.9049-2.0694-5.7012-2.0694-5.7012-1.9469,4.2676-4.2243,3.768S40.8457,238.1823,40.8457,238.1823Z"/><path class="cls-1" d="M90.6141,209.9445c-3.8632,9.0142,8.3361,39.2286,8.3361,39.2286h15.6914s9.0444-32.3749,6.3746-39.2286C117.8688,201.8643,96.4984,196.2144,90.6141,209.9445Z"/><path class="cls-2" d="M96.4959,242.6161H116.367s-3.1836,14.58-6.2819,14.3865-3.6536-4.8412-3.6536-4.8412-.6066,4.6513-2.93,4.8431S96.4959,242.6161,96.4959,242.6161Z"/><path class="cls-1" d="M42.1564,24.1885c19.6947-38.3529,117.1318-31.0969,132.68,21.7678s17.3915,136.57-114.0221,99.51C-22.8056,121.8852,42.1564,24.1885,42.1564,24.1885Z"/><path class="cls-5" d="M53.1,4.6556C37.82,2.229-17.14,27.1424,5.3209,52.9105c38.2183,43.8461,38.2951-21.2438,47.3354-26.82C67.774,16.766,73.2267,7.8521,53.1,4.6556Z"/><path class="cls-5" d="M172.8921,26.11c15.5783,2.7957,60.2941,45.3531,29.9263,62.692-51.6728,29.5033-29.8506-33.4062-36.7087-41.8345C154.6412,32.8732,152.372,22.4272,172.8921,26.11Z"/><ellipse class="cls-6" cx="70.4116" cy="63.9339" rx="12.0881" ry="13.3874"/><path class="cls-7" d="M70.1852,60.1884c-1.0362,2.446-3.6667,3.9828-5.8753,3.4324s-3.1591-2.9794-2.1229-5.4255,3.6667-3.9828,5.8753-3.4324S71.2214,57.7424,70.1852,60.1884Z"/><ellipse class="cls-6" cx="131.2629" cy="75.7402" rx="12.0881" ry="13.3874"/><path class="cls-7" d="M131.0364,71.9947c-1.0362,2.446-3.6667,3.9828-5.8753,3.4324s-3.1591-2.9794-2.1229-5.4255,3.6667-3.9828,5.8753-3.4324S132.0726,69.5487,131.0364,71.9947Z"/><path class="cls-8" d="M44.7747,97.5211c-8.889,36.4922,33.9607,38.3021,44.5232,25.921,5.181-6.073,5.64,5.619,13.0418,10.1284,2.8694,1.748,35.7343,22.4912,42.1764-17.184S54.7857,56.4226,44.7747,97.5211Z"/><path class="cls-2" d="M108.1234,103.8837c-7.8472,4.8327-7.0123,16.9781,4.8427,16.922S117.7228,97.9719,108.1234,103.8837Z"/><path class="cls-2" d="M82.3649,98.7992c6.9961,5.9989,4.2748,17.8649-7.426,15.9581S73.8066,91.4608,82.3649,98.7992Z"/><path class="cls-9" d="M80.4778,135.9042c1.2689,4.23,8.4028,11.7056,18.7606,3.3836"/><path class="cls-4" d="M44.78,114.8429s20.6056,23.6861,45.69,5.007c5.5754-3.5283,11.1792,6.6415,14.0848,9.7547s18.5063,11.7264,35.1964,1.2972c0,0-5.0173,13.5411-24.6042,8.4321C94.8567,134.0413,98.96,125.08,93.14,124.831c-7.52-.3211-21.3248,13.0231-40.8094.3054C43.57,118.19,44.78,114.8429,44.78,114.8429Z"/><path class="cls-4" d="M55.7879,200.5115s26.5828,3.71,12.8592,28.4372C68.6471,228.9486,89.8581,200.5115,55.7879,200.5115Z"/><path class="cls-4" d="M239.3074,201.6327s-19.0878-2.5452-12.9309,31.8608C226.3765,233.4935,208.3841,191.974,239.3074,201.6327Z"/><path class="cls-4" d="M104.8593,201.6327c-10.4782.7671-18.9742,2.0718-10.1821,35.6341,0,0-14.6881-32.3382-4.8191-35.6341S104.8593,201.6327,104.8593,201.6327Z"/><polygon class="cls-4" points="178.286 232.831 182.956 232.533 183.985 242.616 181.48 242.616 178.286 232.831"/><path class="cls-10" d="M183.9847,242.6161l2.9867,13.1256a57.3088,57.3088,0,0,1-5.4917-13.1256Z"/><path class="cls-2" d="M9.6281,57.56c2.1831-7.52,24.1011-30.1454,42.56-31.1213C44.7044,38.62,41.9773,74.5338,22.4258,66.9415,15.3263,63.9339,9.6281,57.56,9.6281,57.56Z"/><path class="cls-2" d="M166.11,46.9674a6.7121,6.7121,0,0,1,.5941.36c6.945,4.6423,35.5133,35.98,29.352,45.0154-6.854,2.6928-31.8787,17.2767-28.7612-26.9735Z"/></g></g></svg>