<svg xmlns="http://www.w3.org/2000/svg" viewBox="0 0 24.651 32.092"><defs><style>.cls-1{fill:#ba6a00;}.cls-2{fill:#4f3e2c;}.cls-3{fill:#fcc575;}.cls-4{fill:#efa818;}.cls-5{fill:#fff;}.cls-6{fill:#0c0c0c;}</style></defs><title>lion</title><g id="Layer_2" data-name="Layer 2"><g id="LIon"><g id="Lion-2" data-name="Lion"><g id="tail"><path class="cls-1" d="M3.014,25.286a2.551,2.551,0,0,0,2.079.322,4,4,0,0,1,3.128.611,7.193,7.193,0,0,1-.657-1.291,4.576,4.576,0,0,0-2.673-.155,1.724,1.724,0,0,1-1.4-.2,3.908,3.908,0,0,1-1.308-2.183,1.965,1.965,0,0,1-.86.113A4.768,4.768,0,0,0,3.014,25.286Z"/><path class="cls-2" d="M2.808,21.483c-.236-1.189-1.781-1.084-.969-2.813,0,0-2.121,1.278-1.807,2.813A1.33,1.33,0,0,0,1.32,22.5a1.966,1.966,0,0,0,.86-.113A.82.82,0,0,0,2.808,21.483Zm-1.95.245-.072.08c-.674-.6-.038-1.687-.01-1.733l.092.055c-.006.011-.618,1.059-.01,1.6Zm.516.228A1.188,1.188,0,0,1,1.223,20.4l.087.063a1.065,1.065,0,0,0,.137,1.412Zm.633.174a.992.992,0,0,1-.3-1.223l.09.058c-.013.02-.3.491.289,1.09Z"/><path class="cls-3" d="M.776,20.076c-.027.046-.664,1.135.01,1.732l.071-.08c-.607-.538.005-1.586.01-1.6Z"/><path class="cls-3" d="M1.311,20.465,1.223,20.4a1.187,1.187,0,0,0,.152,1.554l.072-.079A1.064,1.064,0,0,1,1.311,20.465Z"/><path class="cls-3" d="M1.794,20.965l-.09-.058a1,1,0,0,0,.3,1.223l.077-.075C1.494,21.456,1.782,20.984,1.794,20.965Z"/></g><path id="Bpdy" class="cls-4" d="M22.621,19.812a.665.665,0,0,0-.173-.1.718.718,0,0,0-.1-.056,1.482,1.482,0,0,0-1.427.4,2,2,0,0,0-.145.146l-2.666-2.8c-.028,0-.059.009-.088.012a7.462,7.462,0,0,0,3.285-6.075A7.116,7.116,0,0,0,20.116,7.41,3,3,0,0,0,19.6,5.062a2.069,2.069,0,0,0-2.03-.112,9.314,9.314,0,0,0-9.587-.02,2.014,2.014,0,0,0-1.97.132,2.849,2.849,0,0,0-.523,2.225,7.142,7.142,0,0,0-1.276,4.045,7.464,7.464,0,0,0,3.309,6.091l-2.584,2.72c-.046-.051-.095-.1-.145-.146a1.483,1.483,0,0,0-1.427-.4.718.718,0,0,0-.1.056.671.671,0,0,0-.174.1A1.014,1.014,0,0,0,3.158,21a1.491,1.491,0,0,0,.563,1.249,2.053,2.053,0,0,0,.3.224.756.756,0,0,0,.092.693c.316.4,1.086.342,1.72-.136a1.659,1.659,0,0,0,.707-1.114l.913-.961a8.829,8.829,0,0,0-.38,2.676c.006,2.218.223,4.076,1.815,5.058v1.895c-.065,0-.131-.006-.2-.006-.748,0-1.354.222-1.354.5,0,.212.364.393.874.464a2.186,2.186,0,0,0,1.229.289A3.363,3.363,0,0,0,9.8,31.81a.821.821,0,0,0,.527.237,1.077,1.077,0,0,0,1.118-.65.585.585,0,0,0-.247-.679V29.386c.227.023.463.041.716.05h2.017c.247-.008.476-.026.7-.048v1.368a.583.583,0,0,0-.247.678,1.079,1.079,0,0,0,1.118.651.826.826,0,0,0,.527-.237c.12.012.241.018.362.018a2.186,2.186,0,0,0,1.229-.289c.51-.071.874-.251.874-.464,0-.274-.606-.5-1.354-.5-.068,0-.134,0-.2.006V28.728l-.031,0c1.669-.974,1.85-2.865,1.842-5.123a8.285,8.285,0,0,0-.367-2.468l.792.834a1.658,1.658,0,0,0,.708,1.114c.634.478,1.4.538,1.719.136a.75.75,0,0,0,.092-.693,2.061,2.061,0,0,0,.3-.224,1.49,1.49,0,0,0,.562-1.249A1.011,1.011,0,0,0,22.621,19.812Z"/><path id="stmach" class="cls-3" d="M11.9,19.829h2.05a3.551,3.551,0,0,1,3.227,3.8,3.551,3.551,0,0,1-3.227,3.8H11.9a3.551,3.551,0,0,1-3.227-3.8A3.552,3.552,0,0,1,11.9,19.829Z"/><path id="hair" class="cls-1" d="M6.618,17.692s-.736-.438,0,2.778c.172.754.282,1.252.349,1.578.058-.7.287-2.64,1.043-3.021a.632.632,0,0,1,.521-.019c.874.32.7,1.085,1.162,1.681.284.415,1,1.364,1.5,1.228.634-.173,1.65,1.124,1.65,1.124.027-.7,1.719-.828,2.057-.994a6.281,6.281,0,0,0,1.116-1.395c.43-.591.279-1.331,1.134-1.644a.715.715,0,0,1,.886.368,6.779,6.779,0,0,1,.679,2.671c.067-.325.177-.823.349-1.577.735-3.217,0-2.778,0-2.778.883-1.1,2.575,1.62,2.575,1.62a3.7,3.7,0,0,0,.237-.415c.981-2.011-.8-3.247.646-3.178a2.566,2.566,0,0,1,2.134,1.535c-.221-2.924-3.164-4.24-2.576-4.605s2.576,1.169,2.576,1.169c0-2.851-3.458-2.924-2.723-3.738s1.987,0,1.987,0c-.074-1.106-2.428-1.306-2.428-2.476s1.324-1.023,1.324-1.023c0-1.754-2.354-1.1-2.354-1.1-.074-2.12,1.766-1.653,1.766-1.653-.884-1.653-4.268-.76-4.268-.76-.368-.511,1.03-.95,1.03-.95a3.1,3.1,0,0,0-3.164,0A1.068,1.068,0,0,1,15.676.611a1.081,1.081,0,0,1,.44-.317c-1.488-.94-3.037.65-3.278.914C12.6.944,11.049-.646,9.561.294a1.07,1.07,0,0,1,.294,1.828,3.1,3.1,0,0,0-3.163,0s1.4.439,1.03.95c0,0-3.385-.893-4.268.76,0,0,1.839-.467,1.766,1.653,0,0-2.354-.658-2.354,1.1,0,0,1.324-.146,1.324,1.024S1.836,8.974,1.762,10.08c0,0,1.251-.814,1.987,0s-2.723.887-2.723,3.738c0,0,1.987-1.535,2.576-1.169S1.247,14.33,1.026,17.254A2.566,2.566,0,0,1,3.16,15.719c1.545-.073-.589,1.339.883,3.594,0,0,.048-.077.131-.2C4.586,18.51,5.882,16.779,6.618,17.692ZM19.076,5.562c.745.61.426,2.2.426,2.2S18.384,5.85,17,5.562C17,5.562,18.331,4.951,19.076,5.562Zm-12.562,0c.745-.611,2.076,0,2.076,0-1.384.288-2.5,2.2-2.5,2.2S5.769,6.172,6.514,5.562Zm6.324,0c3.838,0,6.948,2.668,6.948,5.958s-3.11,5.959-6.948,5.959S5.89,14.811,5.89,11.52,9,5.562,12.838,5.562Z"/><g id="left-eyes"><ellipse class="cls-5" cx="9.662" cy="10.81" rx="1.587" ry="2.649"/><ellipse cx="9.12" cy="11.311" rx="1.023" ry="2.347" transform="translate(-1.505 1.401) rotate(-8.115)"/><path class="cls-2" d="M8.06,11.158h0a5.057,5.057,0,0,0,2.019-.834,5.363,5.363,0,0,0,.988-.854h0l0-.005a3.052,3.052,0,0,0-.42-.848c-.016-.021-.032-.04-.048-.06-.029-.036-.059-.071-.089-.1s-.057-.06-.086-.087l-.051-.044a1.279,1.279,0,0,0-.337-.21C10,8.1,9.972,8.086,9.94,8.076L9.874,8.06a1.022,1.022,0,0,0-.123-.022l-.048,0a.989.989,0,0,0-.144,0l-.032,0a1.033,1.033,0,0,0-.147.029l-.036.009q-.053.018-.1.039a1.572,1.572,0,0,0-.784.782l-.015.032c-.028.053-.055.107-.08.163l-.007.015c-.027.061-.053.124-.077.188l-.007.018c-.016.045-.031.089-.045.134s-.034.108-.048.162c-.008.028-.017.057-.024.085-.017.071-.033.141-.046.209L8.1,9.935c-.014.076-.025.149-.034.22l0,.023a4.309,4.309,0,0,0-.024.8C8.05,11.092,8.06,11.158,8.06,11.158Z"/></g><g id="right-eyes"><path class="cls-5" d="M17.941,11.069c0-1.463-.71-2.649-1.587-2.649-.559,0-1.048.485-1.33,1.213a.673.673,0,0,1,.456-.386c.56-.08,1.162.9,1.345,2.179a3.061,3.061,0,0,1-.362,2.274C17.287,13.605,17.941,12.469,17.941,11.069Z"/><path d="M16.825,11.425c-.183-1.283-.786-2.258-1.345-2.178a.67.67,0,0,0-.456.386,3.54,3.54,0,0,0-.227,2.082c.183,1.283.785,2.258,1.345,2.178a.551.551,0,0,0,.321-.193A3.063,3.063,0,0,0,16.825,11.425Z"/><path class="cls-2" d="M17.951,11.441h0a5.058,5.058,0,0,1-2.013-.826,5.334,5.334,0,0,1-.985-.846h0l0-.005a3,3,0,0,1,.419-.84c.015-.021.031-.039.047-.059.029-.036.059-.07.089-.1s.057-.059.086-.086.034-.029.051-.044a1.251,1.251,0,0,1,.336-.208.938.938,0,0,1,.093-.035c.022-.007.044-.012.066-.017a1.215,1.215,0,0,1,.123-.023l.047,0a.989.989,0,0,1,.144,0l.032,0a1.044,1.044,0,0,1,.146.028l.036.01c.035.011.069.024.1.038a1.562,1.562,0,0,1,.782.775l.016.032c.028.052.054.106.08.161l.007.015c.027.061.053.123.077.187l.006.017c.017.045.031.089.045.133s.034.107.048.16c.008.028.017.057.024.085.017.07.033.139.046.207l0,.032c.014.074.025.147.034.218l0,.022a4.234,4.234,0,0,1,.024.8C17.96,11.376,17.951,11.441,17.951,11.441Z"/></g><g id="mouth"><path id="moth" class="cls-1" d="M9.488,13.115c-1.257,1.6.027,3.683,3.4,1.774,3.362,1.9,4.649-.166,3.41-1.761a2.937,2.937,0,0,0-.233-.266c-.043-.043-.086-.082-.129-.121a2.373,2.373,0,0,0-.784-.484,2.224,2.224,0,0,0-2.134.48c.2.024.376.108.376.251a.709.709,0,0,1-.506.239.749.749,0,0,1-.506-.239c.024-.141.19-.222.38-.248a2.29,2.29,0,0,0-1.944-.543,2.365,2.365,0,0,0-1.107.665A2.81,2.81,0,0,0,9.488,13.115Z"/><path id="nose" class="cls-6" d="M12.381,12.989a.747.747,0,0,0,.506.239.713.713,0,0,0,.506-.239c0-.143-.173-.228-.376-.251a1,1,0,0,0-.256,0C12.571,12.767,12.405,12.848,12.381,12.989Z"/></g></g></g></g></svg>