<?xml version="1.0" encoding="utf-8"?>
<!-- Generator: Adobe Illustrator 22.1.0, SVG Export Plug-In . SVG Version: 6.00 Build 0)  -->
<svg version="1.1" id="Layer_1" xmlns="http://www.w3.org/2000/svg" xmlns:xlink="http://www.w3.org/1999/xlink" x="0px" y="0px"
	 viewBox="0 0 66.5 38.8" style="enable-background:new 0 0 66.5 38.8;" xml:space="preserve">
<style type="text/css">
	.st0{fill:#BA6A00;}
	.st1{fill:#4F3E2C;}
	.st2{fill:#FCC575;}
	.st3{fill:#EFA818;}
	.st4{fill:#FFFFFF;}
	.st5{fill:#0C0C0C;}
	.st6{fill:#F4D3E9;}
	.st7{fill:#898785;}
	.st8{fill:#E5E5E5;}
	.st9{fill:#F4F3F2;}
	.st10{fill:#232323;}
	.st11{fill:#DDDDDD;}
</style>
<g id="Layer_2_2_">
	<g id="LIon">
		<g id="Lion-2">
			<g id="tail">
				<path class="st0" d="M37.7,25.5c0.5,0.7,1.3,1.1,2.1,1.1c1.2,0.2,2.4,0.8,3.1,1.9c-0.1-0.5-0.2-1.1-0.2-1.6
					c-0.8-0.7-1.7-1.1-2.8-1.2c-0.6,0-1.1-0.3-1.4-0.8C38,24,37.8,23,37.9,22c-0.3,0-0.7-0.1-1-0.2C36.8,23.1,37,24.4,37.7,25.5z"/>
				<path class="st1" d="M38.9,21.3c0.2-1.4-1.5-1.9,0.1-3.4c0,0-2.7,0.6-3,2.3c-0.1,0.7,0.3,1.4,1,1.6c0.3,0.1,0.6,0.2,1,0.2
					C38.4,22.1,38.8,21.8,38.9,21.3z M36.8,20.8l-0.1,0.1C36.2,20,37.3,19,37.3,19l0.1,0.1C37.4,19.1,36.3,20,36.8,20.8L36.8,20.8z
					 M37.2,21.3c-0.3-0.6-0.1-1.3,0.4-1.7l0.1,0.1c-0.5,0.3-0.7,1-0.4,1.6L37.2,21.3z M37.8,21.7c-0.3-0.5-0.2-1.1,0.2-1.4l0.1,0.1
					c0,0-0.5,0.4-0.1,1.3L37.8,21.7z"/>
				<path class="st2" d="M37.3,19c0,0-1.1,1-0.7,1.9l0.1-0.1C36.3,20,37.4,19.1,37.3,19L37.3,19z"/>
				<path class="st2" d="M37.7,19.6l-0.1-0.1c-0.6,0.4-0.7,1.1-0.4,1.7l0.1-0.1C37,20.7,37.2,20,37.7,19.6z"/>
				<path class="st2" d="M38,20.4L38,20.4c-0.5,0.3-0.5,0.9-0.2,1.3l0.1-0.1C37.5,20.8,38,20.4,38,20.4z"/>
			</g>
			<path id="Bpdy" class="st3" d="M60.6,27.1c0-0.1-0.1-0.1-0.1-0.2c0,0-0.1-0.1-0.1-0.1c-0.5-0.3-1.1-0.4-1.7-0.1
				c-0.1,0-0.1,0.1-0.2,0.1l-1.7-4c0,0-0.1,0-0.1,0c2.7-0.7,4.9-2.7,5.9-5.3c0.5-1.5,0.6-3.1,0.3-4.7c0.5-0.8,0.6-1.8,0.4-2.7
				c-0.5-0.7-1.3-1-2.1-0.9c-2.4-3-6.3-4.5-10.2-3.7c-0.6-0.6-1.4-0.8-2.1-0.6c-0.8,0.5-1.3,1.3-1.4,2.2c-1.3,1-2.4,2.3-2.9,3.9
				c-0.9,2.7-0.5,5.6,1.1,7.8l-3.8,1.9c0-0.1-0.1-0.1-0.1-0.2c-0.2-0.5-0.8-0.9-1.4-1c0,0-0.1,0-0.1,0c-0.1,0-0.2,0-0.2,0
				c-0.4,0.3-0.6,0.9-0.4,1.4c-0.2,0.5-0.2,1.1,0.1,1.6c0.1,0.1,0.1,0.2,0.2,0.4c-0.2,0.2-0.2,0.5-0.2,0.8c0.2,0.6,1,0.8,1.9,0.5
				c0.5-0.1,0.9-0.5,1.2-0.9l1.3-0.7c-0.6,0.8-1.1,1.8-1.4,2.7c-0.9,2.4-1.4,4.5,0,6.1l-0.7,2c-0.1,0-0.1-0.1-0.2-0.1
				c-0.8-0.3-1.5-0.3-1.6,0c-0.1,0.2,0.2,0.6,0.7,0.8c0.3,0.4,0.7,0.6,1.2,0.8c0.1,0,0.3,0.1,0.4,0.1c0.1,0.2,0.3,0.4,0.5,0.5
				c0.5,0.2,1.1,0.1,1.4-0.3c0.2-0.2,0.2-0.6,0-0.8l0.5-1.4c0.2,0.1,0.5,0.2,0.7,0.3l2.1,0.8c0.3,0.1,0.5,0.2,0.8,0.2l-0.5,1.5
				c-0.3,0.1-0.5,0.3-0.5,0.6c0,0.5,0.4,1,0.9,1.1c0.2,0.1,0.4,0,0.7-0.1c0.1,0.1,0.2,0.1,0.4,0.2c0.4,0.2,0.9,0.2,1.4,0.2
				c0.6,0.1,1,0.1,1.1-0.2c0.1-0.3-0.4-0.8-1.2-1.1c-0.1,0-0.1-0.1-0.2-0.1l0.7-2l0,0c2.1-0.4,3.1-2.4,3.9-4.8
				c0.3-0.9,0.5-1.8,0.6-2.8l0.5,1.2c-0.1,0.5,0,1,0.3,1.5c0.5,0.8,1.3,1.1,1.8,0.8c0.2-0.2,0.4-0.4,0.4-0.7c0.1,0,0.3-0.1,0.4-0.1
				c0.5-0.2,0.9-0.6,1.1-1.1C60.5,28.2,60.7,27.6,60.6,27.1z"/>
			<path id="stmach" class="st2" d="M49.2,23l2.2,0.8c2,0.9,2.8,3.3,1.9,5.3c-0.6,2.1-2.8,3.4-4.9,2.9l-2.2-0.8
				c-2-0.9-2.8-3.3-1.9-5.3C44.9,23.7,47.1,22.5,49.2,23z"/>
			<path id="hair" class="st0" d="M44.4,18.7c0,0-0.6-0.8-1.1,3c-0.1,0.9-0.2,1.5-0.2,1.8c0.3-0.7,1.3-2.7,2.3-2.9
				c0.2,0,0.4,0,0.6,0.2c0.8,0.7,0.3,1.4,0.6,2.3c0.1,0.6,0.5,1.9,1.1,1.9c0.7,0.1,1.3,1.8,1.3,1.8c0.3-0.7,2.1-0.2,2.6-0.3
				c0.6-0.3,1.2-0.6,1.7-1.1c0.7-0.5,0.8-1.3,1.8-1.3c0.4,0,0.8,0.3,0.8,0.7c0.1,1.1,0,2.1-0.3,3.1c0.2-0.3,0.5-0.8,1-1.6
				c2-3.2,1.1-3,1.1-3c1.4-0.8,2.1,2.7,2.1,2.7c0.1-0.1,0.3-0.2,0.4-0.4c1.8-1.8,0.4-3.8,1.9-3.2c1,0.4,1.6,1.4,1.7,2.5
				c0.9-3.2-1.7-5.8-0.9-5.9c0.8-0.2,2.3,2.2,2.3,2.2c1.1-3.1-2.5-4.5-1.4-5.1c1.1-0.6,2.1,0.8,2.1,0.8c0.4-1.2-2.1-2.3-1.6-3.6
				c0.5-1.3,1.8-0.6,1.8-0.6c0.7-1.9-2.1-2.1-2.1-2.1c0.7-2.3,2.5-1.1,2.5-1.1c-0.3-2.1-4.2-2.5-4.2-2.5c-0.2-0.7,1.5-0.6,1.5-0.6
				c-0.8-1-2.1-1.5-3.4-1.2c-0.3-0.6-0.2-1.3,0.4-1.7c0,0,0,0,0,0c0.2-0.1,0.4-0.2,0.6-0.2c-1.2-1.6-3.5-0.5-3.8-0.3
				c-0.1-0.4-1.2-2.7-3.1-2.2c0.5,0.4,0.6,1.2,0.1,1.7c-0.1,0.2-0.3,0.3-0.5,0.4c-0.8-1-2.1-1.5-3.4-1.2c0,0,1.3,1,0.7,1.4
				c0,0-3.2-2.3-4.8-0.8c0,0,2.1,0.2,1.2,2.5c0,0-2.2-1.6-2.9,0.3c0,0,1.5,0.4,1,1.6s-3,0.6-3.5,1.7c0,0,1.6-0.4,2.1,0.8
				c0.5,1.2-3.2-0.1-4.3,3c0,0,2.7-0.9,3.2-0.3c0.5,0.6-3.2,0.9-4.5,4c0.7-0.8,1.8-1.1,2.9-0.8c1.7,0.5-1.1,1.2-0.5,4.2
				c0,0,0.1-0.1,0.2-0.2C42,18.8,44,17.4,44.4,18.7z M62.4,10.4c0.6,0.9-0.4,2.5-0.4,2.5s-0.4-2.5-1.8-3.3
				C60.2,9.6,61.8,9.5,62.4,10.4z M49.1,5.6c1-0.4,2.2,0.8,2.2,0.8c-1.6-0.2-3.5,1.4-3.5,1.4S48,6,49.1,5.6z M55.8,8
				c4.1,1.5,6.3,5.5,5,9.1s-5.6,5.2-9.7,3.7c-4.1-1.5-6.3-5.5-5-9.1C47.4,8.2,51.7,6.5,55.8,8z"/>
			<g id="left-eyes">
				<ellipse transform="matrix(0.3405 -0.9402 0.9402 0.3405 21.4994 55.546)" class="st4" cx="50.3" cy="12.4" rx="3" ry="1.8"/>
				<ellipse transform="matrix(0.2073 -0.9783 0.9783 0.2073 26.7976 58.6287)" cx="49.6" cy="12.8" rx="2.7" ry="1.2"/>
				<path class="st1" d="M48.5,12.2L48.5,12.2c0.8,0.1,1.7,0.1,2.5-0.1c0.5-0.1,0.9-0.3,1.4-0.5l0,0l0,0c0-0.4,0-0.7-0.1-1.1
					c0,0,0-0.1,0-0.1c0,0,0-0.1-0.1-0.1c0,0,0-0.1-0.1-0.1l0-0.1c-0.1-0.1-0.2-0.3-0.3-0.4c0,0-0.1-0.1-0.1-0.1l-0.1,0
					c0,0-0.1,0-0.1-0.1l-0.1,0c0,0-0.1,0-0.2-0.1l0,0c-0.1,0-0.1,0-0.2,0l0,0c0,0-0.1,0-0.1,0c-0.4,0-0.8,0.2-1.1,0.5l0,0
					c-0.1,0-0.1,0.1-0.1,0.1l0,0c-0.1,0.1-0.1,0.1-0.2,0.2l0,0c0,0-0.1,0.1-0.1,0.1c0,0-0.1,0.1-0.1,0.2c0,0,0,0.1-0.1,0.1
					c0,0.1-0.1,0.1-0.1,0.2l0,0c0,0.1-0.1,0.2-0.1,0.2l0,0c-0.1,0.3-0.3,0.6-0.3,0.9C48.5,12.1,48.5,12.2,48.5,12.2z"/>
			</g>
			<g id="right-eyes">
				<path class="st4" d="M59,15.9c0.6-1.6,0.3-3.1-0.7-3.5c-0.6-0.2-1.3,0.1-1.9,0.8c0.2-0.2,0.4-0.3,0.6-0.2
					c0.6,0.1,0.9,1.4,0.6,2.9c-0.1,0.9-0.6,1.7-1.3,2.3C57.3,18.4,58.5,17.4,59,15.9z"/>
				<path d="M57.7,15.9c0.3-1.5,0-2.7-0.6-2.9c-0.2,0-0.5,0.1-0.6,0.2c-0.6,0.6-0.9,1.3-1.1,2.2c-0.3,1.5,0,2.7,0.6,2.9
					c0.1,0,0.3,0,0.4-0.1C57.1,17.6,57.6,16.8,57.7,15.9z"/>
				<path class="st1" d="M58.9,16.3L58.9,16.3c-0.7-0.4-1.3-1-1.8-1.7c-0.3-0.4-0.5-0.8-0.7-1.3l0,0l0,0c0.2-0.3,0.5-0.5,0.8-0.7
					c0,0,0,0,0.1,0c0,0,0.1-0.1,0.1-0.1s0.1,0,0.1-0.1c0,0,0,0,0.1,0c0.1-0.1,0.3-0.1,0.4-0.1c0,0,0.1,0,0.1,0c0,0,0.1,0,0.1,0
					c0,0,0.1,0,0.1,0l0,0c0.1,0,0.1,0,0.2,0.1l0,0c0,0,0.1,0.1,0.1,0.1l0,0c0,0,0.1,0.1,0.1,0.1c0.3,0.3,0.5,0.7,0.5,1.1l0,0
					c0,0.1,0,0.1,0,0.2l0,0c0,0.1,0,0.2,0,0.2l0,0c0,0.1,0,0.1,0,0.2s0,0.1,0,0.2c0,0,0,0.1,0,0.1c0,0.1,0,0.2,0,0.2l0,0
					c0,0.1,0,0.2,0,0.2l0,0c-0.1,0.3-0.2,0.6-0.3,0.9C58.9,16.2,58.9,16.3,58.9,16.3z"/>
			</g>
			<g id="mouth_2_">
				<path id="moth" class="st0" d="M49.3,14.9c-2,1.2-1.4,4,2.9,3.2c2.8,3.3,5,1.6,4.3-0.6c0-0.1-0.1-0.3-0.1-0.4
					c0-0.1-0.1-0.1-0.1-0.2c-0.2-0.3-0.4-0.6-0.6-0.8c-0.7-0.5-1.6-0.6-2.4-0.3c0.2,0.1,0.4,0.3,0.3,0.4c-0.2,0.1-0.4,0.1-0.6,0.1
					c-0.2-0.1-0.4-0.2-0.4-0.5c0.1-0.1,0.3-0.2,0.5-0.1c-0.4-0.7-1.1-1.2-1.8-1.3c-0.5,0-1,0.1-1.4,0.3
					C49.5,14.7,49.4,14.8,49.3,14.9z"/>
				<path id="nose" class="st5" d="M52.4,15.8c0.1,0.2,0.2,0.4,0.4,0.5c0.2,0.1,0.4,0,0.6-0.1c0.1-0.2-0.1-0.3-0.3-0.4
					c-0.1,0-0.2-0.1-0.3-0.1C52.7,15.7,52.5,15.7,52.4,15.8z"/>
			</g>
		</g>
	</g>
</g>
<g id="Layer_12">
	<g id="legs_1_">
		<path id="right_2_" class="st6" d="M8.8,33.8c-0.8,0.9-1,2.1-0.7,3.2c0.4,1,1.5,1.5,2.5,1.1c0.2-0.1,0.5-0.2,0.6-0.4
			c0.9-0.6,1.4-1.5,1.6-2.6L8.8,33.8z"/>
		<path id="left_2_" class="st6" d="M20.8,32.7c0.8,0.8,1.9,1.2,3,1c1.2-0.2,2.1-1.4,1.9-2.6c0-0.1-0.1-0.3-0.1-0.4
			c-0.4-0.9-1.2-1.6-2.1-1.9L20.8,32.7z"/>
	</g>
	<g id="body">
		<path id="left_hand_2_" class="st7" d="M20.9,16.6c-0.4-0.1-0.8-0.1-1.2-0.1c-0.1,0.5-0.2,1.1-0.4,1.6l3.6,12l0,0l0,0
			c0.1-0.2,0.1-0.3,0.2-0.5c0.1-0.1,0.1-0.3,0.2-0.5c0.3-0.8,0.4-1.7,0.5-2.5c0.1-1,0-2.1-0.3-3.1l0,0c0-0.1-0.1-0.2-0.1-0.4
			c0-0.1-0.1-0.3-0.1-0.4c0-0.1-0.1-0.3-0.1-0.4c-0.2-0.6-0.5-1.1-0.7-1.7c0.5-0.2,0.9-0.7,0.9-1.3C23.2,18,22.2,16.8,20.9,16.6z"/>
		<path id="belly_1_" class="st8" d="M5.7,22.3l3.6,11.8l0,0c1.1,0.6,2.3,0.9,3.5,1c1.4,0.1,2.8-0.1,4.2-0.5c1.4-0.4,2.7-1.1,3.8-2
			c0.9-0.7,1.6-1.7,2.1-2.7l0,0l-3.6-12L5.7,22.3z"/>
		<path id="right_hand_1_" class="st7" d="M9.4,34.2L9.4,34.2L9.4,34.2L5.8,22.3c-0.3-0.2-0.6-0.4-0.8-0.6c0,0,0,0.1,0,0.1
			c-0.5-0.3-1.1-0.4-1.7-0.4C2.1,21.4,1,22.3,1,23.5c0,0.1,0,0.1,0,0.2c0.3,1.3,1.6,2.1,2.9,1.9c0.2,0,0.4,0,0.6-0.1l0,0
			c0,0.3,0,0.5,0.1,0.8c0,0.1,0,0.1,0,0.2c0,0.1,0,0.1,0,0.2c0,0.1,0,0.2,0.1,0.3l0,0.1c0,0.1,0,0.2,0.1,0.3l0,0
			c0,0.1,0.1,0.2,0.1,0.3c0,0.1,0.1,0.3,0.1,0.4c0,0.1,0.1,0.3,0.1,0.4c0,0.1,0.1,0.2,0.1,0.2c0,0,0,0.1,0,0.1
			c0.7,1.9,2,3.5,3.6,4.7c0,0,0.1,0,0.1,0.1C9.1,33.9,9.2,34,9.4,34.2z"/>
		<path id="righthand" class="st8" d="M2.1,21.7c0.6-0.3,1.2-0.4,1.8-0.3c1.2,0,2.2,1,2.2,2.3c0,0.1,0,0.2,0,0.3
			c-0.4,1.3-1.8,2.2-3.2,2c-0.2,0-0.3-0.1-0.5-0.1l0,0c-0.4-0.1-1.8-0.6-1.9-1.9C0.5,22.6,2.1,21.7,2.1,21.7z"/>
		<path id="lefthand" class="st8" d="M20.4,20.9c-0.6-0.2-1.1-0.6-1.4-1.1c-0.8-0.9-0.7-2.3,0.2-3.1c0.1-0.1,0.1-0.1,0.2-0.2
			c1.3-0.6,2.7-0.1,3.5,1.1c0.1,0.1,0.2,0.3,0.2,0.4l0,0c0.5,0.8,0.4,1.9-0.1,2.6C22.1,21.5,20.4,20.9,20.4,20.9z"/>
	</g>
	<g id="face_3_">
		<path id="face_4_" class="st9" d="M5.4,13.5c-2.9,1-2.8,4.8-2.8,4.9c0.5,1.3,1.3,2.5,2.4,3.4c0.3,0.2,0.5,0.4,0.8,0.6
			c2.3,1.5,5.1,1.9,7.7,1.1c2.7-0.8,4.8-2.8,5.9-5.3c0.2-0.5,0.3-1,0.4-1.6c0.2-1.1,0.2-2.3-0.1-3.4c-0.1-0.2-2.2-3.3-5.2-2.5
			L5.4,13.5z"/>
		<g id="left_eye_3_">
			<circle id="hightlight" class="st4" cx="15.4" cy="13.1" r="0.6"/>
			<path id="left_eye_4_" class="st10" d="M15.7,14.3c0.5-0.1,0.9-0.6,0.8-1.1c0,0,0-0.1,0-0.1c-0.1-0.6-0.7-1-1.2-0.9
				c-0.5,0.1-0.9,0.6-0.8,1.1c0,0,0,0.1,0,0.1C14.6,14,15.1,14.4,15.7,14.3z M15.3,12.7c0.2,0,0.4,0.1,0.5,0.3
				c0.1,0.2-0.1,0.4-0.3,0.5c0,0,0,0,0,0c-0.2,0-0.4-0.1-0.5-0.3C14.9,12.9,15,12.7,15.3,12.7C15.3,12.7,15.3,12.7,15.3,12.7
				L15.3,12.7z"/>
		</g>
		<g id="right_eye_3_">
			<circle class="st4" cx="6.3" cy="15.9" r="0.6"/>
			<path id="right_eye_4_" class="st10" d="M6.6,17.1C7.1,17,7.5,16.5,7.4,16c0,0,0-0.1,0-0.1c-0.1-0.6-0.7-1-1.2-0.9
				c-0.5,0.1-0.9,0.6-0.8,1.1c0,0,0,0.1,0,0.1C5.5,16.8,6,17.2,6.6,17.1z M6.2,15.4c0.2,0,0.4,0.1,0.5,0.3c0.1,0.2-0.1,0.4-0.3,0.5
				c0,0,0,0,0,0c-0.2,0-0.4-0.1-0.5-0.3C5.8,15.7,5.9,15.5,6.2,15.4C6.1,15.5,6.1,15.4,6.2,15.4L6.2,15.4z"/>
		</g>
		<path id="hair_2_" class="st7" d="M5.4,13.5c3-1,4.2,2.4,4.2,2.4l0,0c0.4-0.4,0.8-0.6,1.3-0.8c0.4-0.1,0.8-0.2,1.3-0.1
			c-0.1-0.6-0.5-3.5,2.3-4.2c3-0.8,5.1,2.3,5.2,2.5l0,0c0,0,0,0,0-0.1c0-0.2-0.1-0.3-0.1-0.5c0-0.1,0-0.1-0.1-0.2
			c0-0.1-0.1-0.2-0.1-0.2c-0.4-1.1-1-2-1.8-2.8c-1.1-1-2.3-1.7-3.7-2.2c-0.7-0.3-1.5-0.4-2.3-0.5c-1.1-0.1-2.2,0.1-3.2,0.4
			c-1.8,0.5-3.3,1.6-4.4,3l0,0C3.3,11.1,2.8,12,2.4,13c-0.5,1.4-0.6,2.9-0.2,4.4c0.1,0.3,0.2,0.7,0.3,1l0,0l0,0
			C2.5,18.3,2.4,14.5,5.4,13.5z"/>
		<path id="mouth_3_" class="st6" d="M9.5,15.9C9.2,16.1,9,16.6,9.1,17c0.2,0.7,1.4,1,2.6,0.6s2-1.2,1.8-2c-0.1-0.4-0.6-0.7-1.3-0.8
			c-0.4,0-0.9,0-1.3,0.1C10.4,15.2,9.9,15.5,9.5,15.9z"/>
	</g>
</g>
<g id="Layer_1_1_">
	<g id="panda">
		<g id="Body">
			<g id="hands">
				<path id="right_hand" class="st5" d="M24.5,21.9C25,22,25.4,22,26,22c-1.6-0.8-2.9-2.2-3.9-3.8h-0.2c0,0-3.8,1.1-3.9,5.2
					c-0.1,2.8,2.4,0.7,4.5-0.6C23.3,22.3,24,21.8,24.5,21.9z"/>
				<path id="left_hand" class="st5" d="M44.4,16.9c-0.5,0.1-1.7,0.8-2.7,1.5c-0.8,0.5-1.6,1.1-2.1,1.2s-3.6,0.8-4.1,0.8
					c1.5,1.1,2.9,2.7,3.7,4.4c0.1,0,2.2-1.2,2.4-1.3C45.6,20.5,45.6,17,44.4,16.9z"/>
			</g>
			<g id="legs">
				<path id="left_leg" class="st5" d="M38.3,34.3c0.1,0.4,0.2,0.6,0.4,1c0.7,1.2,1.8,1.7,2.5,1s0.7-2.3,0.1-3.5
					c-0.1-0.1-0.1-0.2-0.2-0.5C41.1,32.3,38.2,34.4,38.3,34.3z"/>
			</g>
			<path id="body_2_" class="st11" d="M24.4,21.9c-0.5-0.1-1.3,0.4-2.2,1v8.2c0,0.4,0.1,0.8,0.2,1.2c0.4,1.1,1.3,2.1,2.5,2.3
				c0.2,0,0.5,0.1,0.7,0.1h12.1c0.1,0,0.4,0,0.5,0c1.2-0.1,2.3-1,2.8-2.1c0.2-0.5,0.2-0.8,0.2-1.3v-7.9c-0.7-0.6-1.6-1.2-1.9-1.5"/>
			
				<ellipse id="right_leg" transform="matrix(0.8446 -0.5353 0.5353 0.8446 -14.0174 17.481)" class="st5" cx="23.1" cy="32.9" rx="2.4" ry="3.3"/>
		</g>
		<g id="Head">
			<g id="ear">
				<path id="left_ear" class="st5" d="M25.6,4.6l-0.8-1c-1.1-1.2-2.9-1.3-4.1-0.2c-0.1,0-0.2,0.1-0.2,0.2l-0.2,0.1
					c-1.2,1.3-1.2,3.4,0,4.7l1.1,1.2C22.2,7.6,23.6,5.8,25.6,4.6z"/>
				<path id="right_ear" class="st5" d="M42.3,9.5l0.8-0.8c1.2-1.3,1.2-3.4,0-4.7L43,3.6c-1.1-1.2-2.9-1.3-4.1-0.2
					c-0.1,0.1-0.1,0.1-0.2,0.2L38,4.4C39.8,5.6,41.4,7.4,42.3,9.5z"/>
			</g>
			<g id="face">
				<path id="face_1_" class="st9" d="M26,22c3.8,2.1,8.4,2.1,12-0.1c1.6-1,2.8-2.2,3.8-3.8c1.6-2.7,1.8-5.9,0.6-8.7
					c-0.8-2.1-2.4-3.9-4.5-5c-3.8-2.2-8.5-2.2-12.2,0.1c-2.1,1.2-3.5,3-4.4,5.2c-1.1,2.8-0.7,5.9,0.8,8.5C23.1,19.9,24.5,21.2,26,22
					z M37.1,8.1c2.1,0,3.6,1.8,3.6,4s-1.7,4-3.6,4s-3.6-1.8-3.6-4S35.1,8.1,37.1,8.1z M30.5,12.1c0,2.2-1.7,4-3.6,4s-3.6-1.8-3.6-4
					s1.7-4,3.6-4S30.5,9.8,30.5,12.1z"/>
			</g>
			<g id="right_eye">
				<g id="white_1_">
					<ellipse class="st4" cx="26.9" cy="12.2" rx="2.5" ry="2.7"/>
				</g>
				<path id="right_eye_1_" class="st5" d="M23.3,12.1c0,2.2,1.7,4,3.6,4s3.6-1.8,3.6-4s-1.7-4-3.6-4S23.3,9.8,23.3,12.1z
					 M26.7,14.3c-1.1,0-2.1-1-2.1-2.3c0-0.7,0.4-1.5,0.8-1.8l0.7,0.6c-0.2,0.4-0.5,0.7-0.5,1.2c0,0.8,0.6,1.6,1.5,1.6
					c0.5,0,1-0.2,1.3-0.7l0,0C28.3,13.8,27.6,14.3,26.7,14.3L26.7,14.3z"/>
			</g>
			<g id="left_eye">
				<g id="white">
					<ellipse class="st4" cx="37.4" cy="12.4" rx="2.5" ry="2.7"/>
				</g>
				<path id="left_eye_1_" class="st5" d="M37.1,16.1c2.1,0,3.6-1.8,3.6-4s-1.7-4-3.6-4s-3.6,1.8-3.6,4S35.1,16.1,37.1,16.1z
					 M39.4,12.1c0,1.2-1,2.3-2.1,2.3c-1,0-1.8-0.7-2.1-1.7l0,0c0.1,0.6,0.7,1.1,1.5,1.1s1.6-0.7,1.5-1.6c0-0.6-0.2-1.1-0.7-1.5
					c0.2-0.2,0.5-0.5,0.6-0.7C38.9,10.3,39.4,11.2,39.4,12.1z"/>
			</g>
			<g id="mouth">
				<g>
					<path class="st5" d="M31.3,16.2c0.1,0.2,0.4,0.4,0.6,0.4c0.2,0,0.5-0.1,0.6-0.4C32.6,15.8,31.3,15.8,31.3,16.2z"/>
				</g>
				<g>
					<path class="st5" d="M28.8,19.7l-0.2-0.2c0.1-0.1,1.8-1.8,3.1-2.1v-1.2h0.4v1.5H32C30.8,17.9,28.8,19.7,28.8,19.7z"/>
				</g>
				<g>
					<path class="st5" d="M34.9,19.7c-1.9-1.8-3-2.1-3-2.1l0.1-0.4c0,0,1.1,0.2,3.1,2.2L34.9,19.7z"/>
				</g>
			</g>
		</g>
	</g>
</g>
<title>Penguin_Front1</title>
<title>Penguin_Front1</title>
</svg>
