<svg xmlns="http://www.w3.org/2000/svg" viewBox="0 0 262.6309 222.2069"><defs><style>.cls-1{fill:#d8bc7d;}.cls-2{fill:#f9e8b2;}.cls-3{fill:#f9f0dc;}.cls-4{fill:#a88b43;}.cls-5{fill:#c6ac63;}.cls-10,.cls-6,.cls-9{fill:none;stroke-linecap:round;stroke-linejoin:round;}.cls-6{stroke:#a88b42;}.cls-7{fill:#158fcf;}.cls-8{fill:#f27a5a;}.cls-10,.cls-9{stroke:#b78b29;}.cls-9{stroke-width:0.4968px;}.cls-10{stroke-width:0.4127px;}</style></defs><title>sheepCry_1</title><g id="Layer_2" data-name="Layer 2"><g id="sheep"><polygon class="cls-1" points="95.573 181.776 102.375 218.524 116.167 218.524 120.958 182.259 95.573 181.776"/><polygon class="cls-1" points="158.413 182.115 165.215 218.863 179.006 218.863 183.798 182.598 158.413 182.115"/><polygon class="cls-1" points="192.479 185.459 199.281 222.207 213.072 222.207 217.864 185.942 192.479 185.459"/><polygon class="cls-1" points="63.67 182.067 70.472 218.814 84.264 218.814 89.056 182.55 63.67 182.067"/><circle class="cls-2" cx="69.9915" cy="170.7925" r="26.3571"/><circle class="cls-2" cx="59.2486" cy="155.7583" r="26.3571"/><rect class="cls-2" x="51.5681" y="73.3428" width="173.5245" height="112.1166" rx="8.923" ry="8.923"/><circle class="cls-2" cx="37.1039" cy="68.9548" r="26.3571"/><ellipse class="cls-3" cx="85.6057" cy="95.4979" rx="53.209" ry="48.9157" transform="translate(-36.987 133.1705) rotate(-65.2086)"/><circle class="cls-2" cx="51.5681" cy="46.9857" r="26.3571"/><ellipse class="cls-2" cx="85.6057" cy="26.3571" rx="30.2273" ry="26.3571"/><circle class="cls-2" cx="127.3934" cy="52.7142" r="26.3571"/><circle class="cls-2" cx="134.005" cy="42.5977" r="26.3571"/><circle class="cls-2" cx="97.7524" cy="42.5977" r="26.3571"/><circle class="cls-2" cx="107.6479" cy="175.4907" r="26.3571"/><circle class="cls-2" cx="144.748" cy="175.4907" r="26.3571"/><circle class="cls-2" cx="183.5595" cy="175.4907" r="26.3571"/><circle class="cls-2" cx="209.9166" cy="175.4907" r="26.3571"/><circle class="cls-2" cx="231.5283" cy="155.7583" r="26.3571"/><circle class="cls-2" cx="225.4532" cy="90.3433" r="26.3571"/><circle class="cls-2" cx="189.6346" cy="78.6324" r="26.3571"/><circle class="cls-2" cx="149.4275" cy="78.6324" r="26.3571"/><circle class="cls-2" cx="236.2737" cy="126.8973" r="26.3571"/><path class="cls-4" d="M133.4922,78.6884s48.3192,19.8482,28.6211,39.9874-35.18-32.3768-33.3218-39.2492C129.6261,76.34,133.4922,78.6884,133.4922,78.6884Z"/><path class="cls-4" d="M33.3416,70.509S-14.9775,90.3573,4.7206,110.4964,39.9,78.12,38.0423,71.2472C37.2077,68.16,33.3416,70.509,33.3416,70.509Z"/><path class="cls-5" d="M121.6831,72.8148c25.3179,8.0268,41.4414-18.73,29.0093-30.2172C150.6924,42.5977,161.5386,71.1367,121.6831,72.8148Z"/><path class="cls-5" d="M81.1052,53.4729c25.3179,8.0268,41.4414-18.73,29.0093-30.2172C110.1145,23.2557,120.9607,51.7948,81.1052,53.4729Z"/><path class="cls-5" d="M26.64,44.0868C24.0795,70.523,53.614,80.7011,62.2508,66.1436,62.2508,66.1436,36.6073,82.7124,26.64,44.0868Z"/><path class="cls-5" d="M182.6334,103.1991c25.3179,8.0268,41.4414-18.73,29.0093-30.2172C211.6427,72.9819,222.4889,101.521,182.6334,103.1991Z"/><path class="cls-5" d="M166.3944,104.9024c24.9675-9.0583,21.4535-40.0991,4.5965-41.6352C170.9909,63.2672,196.9781,79.2916,166.3944,104.9024Z"/><path class="cls-5" d="M204.5528,108.0654c13.8337,22.6728,43.5595,13.0677,41.7192-3.7588C246.272,104.3066,235.7244,132.9574,204.5528,108.0654Z"/><path class="cls-5" d="M214.7081,125.32c-4.3019,26.2092,27.1617,34.2306,36.7416,20.2756C251.45,145.5959,222.1011,164.52,214.7081,125.32Z"/><path class="cls-5" d="M221.7457,162.9639c-25.3268-7.9989-38.9023,17.4359-26.4576,28.91C195.2881,191.8735,181.8921,164.6859,221.7457,162.9639Z"/><path class="cls-5" d="M125.4413,192.3331c24.8555-9.3612,19.8119-37.7477,2.9375-39.0787C128.3789,153.2544,155.7114,166.3523,125.4413,192.3331Z"/><path class="cls-5" d="M36.83,146.9745c-8.1942,25.2643,17.1351,39.0357,28.7046,26.68C65.5344,173.6545,38.2441,186.84,36.83,146.9745Z"/><path class="cls-5" d="M59.2486,193.1648c25.0677,8.7771,39.4221-16.2264,27.3376-28.0789C86.5862,165.0859,99.1364,192.6742,59.2486,193.1648Z"/><path class="cls-5" d="M153.5109,158.1075c25.7272-6.5985,23.8053-35.3653,7.1763-38.5262C160.6872,119.5813,186.4306,135.5781,153.5109,158.1075Z"/><path class="cls-5" d="M184.5785,157.2878c-26.56.12-31.7169,28.4857-16.3622,35.61C168.2163,192.8975,147.1557,171.1013,184.5785,157.2878Z"/><path class="cls-6" d="M117.3426,98.7706A16.2321,16.2321,0,0,0,97.36,101.3411s6.9481-5.4523,18.8874.5069"/><path class="cls-6" d="M53.7078,84.0113A16.2321,16.2321,0,0,1,68.2653,97.9394S62.5872,86.5192,52.16,87.3823"/><path class="cls-7" d="M58.3036,94.5731c-2.343,2.5943-8.52,5.4293-13.45,4.713S34.8033,112.31,46.1,110.5794,58.3036,94.5731,58.3036,94.5731Z"/><path class="cls-7" d="M105.255,103.6345c2.343,2.5943,8.52,5.4293,13.45,4.713s10.0508,13.0234-1.2463,11.2933S105.255,103.6345,105.255,103.6345Z"/><path class="cls-8" d="M73.4463,133.8314c1.7789,1.2942,6.5568-2.4858,6.3762-2.6359s-3.048-1.7681-3.46-8.4324c0,0-4.1649,5.7117-6.8892,6.53A37.5074,37.5074,0,0,0,73.4463,133.8314Z"/><path class="cls-9" d="M76.363,122.7631s.5129,8.4987,5.6941,9.5011"/><path class="cls-10" d="M76.99,121.8363s-5.5322,8.2224-8.7513,7.5774"/><path class="cls-4" d="M71.3748,115.1981c-1.8279,1.79,3.3645,9.073,7.1808,7.9716s6.0509-1.9334,6.951-4.4672S75.0618,111.5883,71.3748,115.1981Z"/></g></g></svg>