<svg xmlns="http://www.w3.org/2000/svg" viewBox="0 0 4094.61 346.41"><defs><style>.cls-1{fill:#ffe98f;}.cls-2,.cls-4{fill:none;stroke:#000;stroke-miterlimit:10;}.cls-2{stroke-width:1.48px;}.cls-3{fill:#ff8d8d;}.cls-4{stroke-width:0.97px;}.cls-5{fill:#ff8ffc;}.cls-6{fill:#8fb7ff;}.cls-7{fill:#8fffac;}</style></defs><title>balloonMove</title><g id="Layer_2" data-name="Layer 2"><g id="balloons"><path class="cls-1" d="M29.32,233.83c0-19.75-12.8-36-29.32-38.41V272.5H12.74l-4.59-2.64h0C20.53,264.19,29.32,250.21,29.32,233.83Z"/><path class="cls-2" d="M255.22,232.89s18,31,.54,53.37-8.71,50.83,11.43,59.47"/><path class="cls-3" d="M313.87,202.24c0-32.69-22.92-59.18-51.19-59.18s-51.19,26.5-51.19,59.18c0,25,13.43,46.39,32.41,55.05h0l-7,4h22.9c1,.06,2,.1,2.94.1s2,0,2.94-.1h22.9l-7-4h0C300.44,248.63,313.87,227.25,313.87,202.24Z"/><path class="cls-4" d="M1212,83.71s11.75,20.29.36,34.93-5.7,33.26,7.48,38.92"/><path class="cls-5" d="M1250.42,63.65c0-21.39-15-38.73-33.5-38.73s-33.5,17.34-33.5,38.73c0,16.37,8.79,30.36,21.21,36h0l-4.59,2.63h15c.64,0,1.28.07,1.92.07s1.29,0,1.92-.07h15l-4.59-2.63h0C1241.63,94,1250.42,80,1250.42,63.65Z"/><path class="cls-4" d="M2893,178.82s11.75,20.29.36,34.93-5.7,33.26,7.48,38.92"/><path class="cls-1" d="M2931.39,158.77c0-21.39-15-38.73-33.5-38.73s-33.5,17.34-33.5,38.73c0,16.37,8.79,30.36,21.21,36h0l-4.59,2.63h15c.64,0,1.28.07,1.92.07s1.29,0,1.92-.07h15l-4.59-2.63h0C2922.6,189.12,2931.39,175.14,2931.39,158.77Z"/><path class="cls-4" d="M4056.23,100s11.75,20.29.36,34.93-5.7,33.26,7.48,38.92"/><path class="cls-6" d="M4094.61,80c0-21.39-15-38.73-33.5-38.73s-33.5,17.34-33.5,38.73c0,16.37,8.79,30.36,21.21,36h0l-4.59,2.63h15c.64,0,1.28.07,1.92.07s1.29,0,1.92-.07h15l-4.59-2.63h0C4085.82,110.34,4094.61,96.35,4094.61,80Z"/><path class="cls-4" d="M3857,252.71s11.75,20.29.36,34.93-5.7,33.26,7.48,38.92"/><path class="cls-7" d="M3895.42,232.65c0-21.39-15-38.73-33.5-38.73s-33.5,17.34-33.5,38.73c0,16.37,8.79,30.36,21.21,36h0l-4.59,2.63h15c.64,0,1.28.07,1.92.07s1.29,0,1.92-.07h15l-4.59-2.63h0C3886.63,263,3895.42,249,3895.42,232.65Z"/><path class="cls-4" d="M3281.72,58.79s11.75,20.29.36,34.93-5.7,33.26,7.48,38.92"/><path class="cls-3" d="M3320.1,38.73c0-21.39-15-38.73-33.5-38.73s-33.5,17.34-33.5,38.73c0,16.37,8.79,30.36,21.21,36h0l-4.59,2.63h15c.64,0,1.28.07,1.92.07s1.29,0,1.92-.07h15l-4.59-2.63h0C3311.31,69.09,3320.1,55.1,3320.1,38.73Z"/></g></g></svg>