<svg xmlns="http://www.w3.org/2000/svg" viewBox="0 0 463.67 572.99"><defs><style>.cls-1{fill:#f7cbb4;}.cls-2{fill:#23b537;}.cls-3{fill:#08380d;}.cls-4{fill:#f6cb47;}.cls-5{fill:#1b440a;}.cls-6{fill:#14661b;}.cls-7{fill:#052106;}.cls-8{fill:#d2fcd3;}.cls-9{fill:#041906;}.cls-10{fill:#cc6100;}.cls-11{fill:#c6876b;}.cls-12{fill:#7c5525;}.cls-13{fill:none;stroke:#ba4a3e;stroke-miterlimit:10;stroke-width:1.72px;}</style></defs><title>Leprechaun</title><g id="Layer_2" data-name="Layer 2"><g id="Leprechaun"><path class="cls-1" d="M430.6,221.16s37-10.72,32.73-4.48-17.73,8.86-17.73,8.86-2,9.19-6.57,10.18A84,84,0,0,0,430.6,238Z"/><polygon class="cls-2" points="195.56 232.06 430.54 217.89 430.94 239.74 179.59 284.33 195.56 232.06"/><path class="cls-2" d="M126.87,232H248.38s-.67,196.86,33.9,201.69H93C127.53,428.91,126.87,232,126.87,232Z"/><path class="cls-2" d="M118,98c-8.25-24.94-19-65.54-7.36-80.47,17.24-22.17,135.47-24.63,157.64,0C283,34,270.39,73.48,260.34,97.92c27.27,5.63,44.83,14.43,44.83,24.32,0,17-51.83,30.79-115.77,30.79S73.64,139.25,73.64,122.25C73.64,112.42,91,103.67,118,98Z"/><path class="cls-3" d="M271.32,65.43s-58.17-18.63-162.4,0l4.84,19.06s72.63-16.82,151.73,0Z"/><path class="cls-4" d="M212.62,82.48H168.29V49.58h44.34ZM175.44,58.16V76.76h30V71h-8.58V65.31h8.58V58.16Z"/><ellipse class="cls-5" cx="189.41" cy="122.3" rx="115.85" ry="30.73"/><path class="cls-1" d="M117.88,163.7s-5.07-7.38-9.43,0,4.35,29.14,11.06,24.34Z"/><path class="cls-1" d="M256.69,163.7s5.07-7.38,9.43,0-4.35,29.14-11.06,24.34Z"/><polygon class="cls-6" points="246.6 433.74 228.07 539.2 203.59 539.2 194.22 433.74 246.6 433.74"/><polygon class="cls-6" points="130.18 433.74 148.71 539.2 173.19 539.2 182.56 433.74 130.18 433.74"/><path class="cls-7" d="M228.07,539.19s55.26,16.53,64.32,28.89-86.51-1.65-91.46-9.06,2.65-19.82,2.65-19.82Z"/><path class="cls-7" d="M148.42,539.19S93.16,555.72,84.1,568.08s86.51-1.65,91.46-9.06-2.65-19.82-2.65-19.82Z"/><path class="cls-8" d="M223.94,234.82l10,198.91H142.32l10.19-198.91a65.94,65.94,0,0,0,35.11,9.53C207.12,243.88,223.94,234.82,223.94,234.82Z"/><circle class="cls-9" cx="187.14" cy="312.71" r="7.08"/><circle class="cls-9" cx="187.14" cy="338.85" r="7.08"/><circle class="cls-9" cx="187.14" cy="364.99" r="7.08"/><path class="cls-2" d="M132,229.5s-26,11.1-39.36,31.24C78.19,282.5,18.45,376.86,18.45,376.86l18.87,12.22L132,287Z"/><path class="cls-1" d="M24.08,380.32S3,375.1,3,380.32s-6.71,5.22,0,14.61,26.83,5.87,30-8.47Z"/><path class="cls-1" d="M242.73,119.42l-.22-.25.22.27Z"/><path class="cls-1" d="M159.63,125.18c-3.11-6.95-16.86,1.76-27.94,11.88-2.51,13.83-9,52.52-4.17,59.1,5.88,8,50.11,27.84,60.78,26.91s52.34-18.24,56.45-31.7c3.37-11-2.69-39.59-5.78-52.59C218.77,137.82,164.14,135.29,159.63,125.18Z"/><path class="cls-1" d="M116.85,155.77a104.89,104.89,0,0,0-.66,15.64,165.24,165.24,0,0,1,1.37-17.85A6.76,6.76,0,0,0,116.85,155.77Z"/><path class="cls-10" d="M242.74,119.4h0v0l-.22-.27c-7.79-9.8-24.55-19.58-57.73-19.85-40.13-.32-56.58,17.92-63.31,33.75h-.13c-.05.22-.09.43-.14.65a57,57,0,0,0-4.34,22.05h0a6.76,6.76,0,0,1,.72-2.21,165.24,165.24,0,0,0-1.37,17.85c-1.87,88.25,75.54,106.71,75.54,106.71,3.9-13,50.09-7.7,62.21-66.5C267.87,144.07,242.74,119.4,242.74,119.4Zm2,72c-4.11,13.46-45.78,30.77-56.45,31.7s-54.9-18.87-60.78-26.91c-4.81-6.58,1.66-45.27,4.17-59.1,11.09-10.12,24.84-18.82,27.94-11.88,4.52,10.11,59.14,12.64,79.34,13.59C242.05,151.78,248.11,180.33,244.74,191.37Z"/><path class="cls-10" d="M200.88,149.38s23.44-9.22,36.39,10C237.27,159.43,233.34,128.25,200.88,149.38Z"/><path class="cls-10" d="M174.75,149.38s-23.44-9.22-36.39,10C138.37,159.43,142.3,128.25,174.75,149.38Z"/><path class="cls-11" d="M193.38,199c4.95-2.21,6.74-9.21,6.82-9.52l.61-2.45-2.31,1a4.85,4.85,0,0,1-4.37.08c-3.43-1.72-5.43-7.71-5.92-9.88l-2.4.54c.08.36,2.05,9,7.21,11.54a6.83,6.83,0,0,0,4,.69c-.85,2-2.47,4.94-5.06,5.88-2.07.74-4.54.08-7.32-2l-1.46,2c3.49,2.58,6.73,3.35,9.63,2.31Z"/><ellipse class="cls-12" cx="219.95" cy="171.28" rx="5.51" ry="5.92"/><ellipse class="cls-12" cx="161.27" cy="171.28" rx="5.51" ry="5.92"/><path class="cls-13" d="M177.52,199.3s10.54,14.71,21.79,0"/></g></g></svg>