<svg xmlns="http://www.w3.org/2000/svg" viewBox="0 0 235.68 331.82"><defs><style>.cls-1{fill:#add880;}.cls-2{fill:#f9f56b;}.cls-3{fill:#9e982b;}.cls-4{fill:none;stroke:#917e20;stroke-width:1.45px;}.cls-4,.cls-6{stroke-miterlimit:10;}.cls-5{fill:#fff;}.cls-6{fill:#efe8a8;stroke:#fff;stroke-width:1.13px;}.cls-7{fill:#21470b;}.cls-8{fill:#0a0f07;}.cls-9{fill:#ffce94;}.cls-10{fill:#efa459;}.cls-11{fill:#060f00;}.cls-12{fill:#3f6d26;}.cls-13{fill:#fca38b;}.cls-14{fill:#ff6700;}</style></defs><title>cheers3</title><g id="Layer_2" data-name="Layer 2"><g id="balloons"><g id="Parade_Background" data-name="Parade Background"><path class="cls-1" d="M59,69.33"/><path class="cls-2" d="M27.41,70.16A43.67,43.67,0,0,0,56.2,82.71L51.13,94.36s9.3-.17,12,5.78-11.39,38.22-16.26,37.32A23.71,23.71,0,0,1,36,132.73l-4.66,10.7S19.95,145,1.21,130.3C1.21,130.3-8.06,99.48,27.41,70.16Zm10.68,58.51s4.06,4.21,8.32,3.62,12.25-25.7,12.51-28.71-9.38-4.09-9.38-4.09Z"/><path class="cls-3" d="M27.41,70.16S39,69.46,56.2,82.71A42.63,42.63,0,0,1,27.41,70.16Z"/><path class="cls-4" d="M32.22,93.53s-13.79,13.23-13.75,31.56"/><path class="cls-4" d="M23.83,89.69S10,102.93,10.08,121.25"/><path class="cls-4" d="M40.53,97.15s-13.79,13.23-13.75,31.56"/><path class="cls-5" d="M.11,122.44S20.22,139.66,34,137.23l-2.7,6.2S20.72,145.62,1.21,130.3A27,27,0,0,1,.11,122.44Z"/><path class="cls-5" d="M51.13,94.36l-1.58,5.14s9.34.75,9.38,4.09S52,124,51.2,125.65s-3.15,6.49-4.79,6.64-4-.21-8.32-3.62L36,132.73a20.39,20.39,0,0,0,11.31,4.73s1.9-.19,4.85-5.25c3.49-4.94,8.76-17.9,9.22-20s2.86-8.52,2-11.58S58.54,95,53.19,94.44Z"/><path class="cls-5" d="M26.08,73.22l-.82-1.65S-3.57,95.1.37,125.56l1.65.72S-.35,96.4,26.08,73.22Z"/><polygon class="cls-5" points="50.16 93.35 30.7 138.02 33.63 138.17 36 132.73 38.09 128.67 41.06 121.17 45.33 110.22 49.54 99.49 51.39 93.66 50.16 93.35"/><path class="cls-6" d="M28.25,75.3C21.74,84.37,16.54,75.47,20,73c-2.52-4.74.66-7.32,4.91-6.85-1.48-7,8.35-7.26,8.46-1.43,6-5.46,12.3,3.31,8.72,6.81,8.47-6.43,13.49-.27,11.2,5,8.11-2.85,11.54,9.2,5.82,9.87,8.35,7.4-.19,15.37-6.56,9-2.21,7.84-16.45-5.12-7-7.64-8.47,2.46-14-3.07-10.11-7.78C28.85,87.34,28.25,75.3,28.25,75.3Z"/><polygon class="cls-7" points="120.93 199.56 149.43 319.61 164.87 319.61 164.87 199.56 120.93 199.56"/><polygon class="cls-7" points="147.68 217.1 209.51 315.47 223.53 310.76 187.6 203.7 147.68 217.1"/><path class="cls-8" d="M213.31,304.38s-34.58,18.4-30.65,23.66,45.75-5.72,49.22-13.59S221.46,291.13,213.31,304.38Z"/><path class="cls-8" d="M153.05,312.77s-38.62,6.56-36.55,12.79,45.22,9,51,2.63S165,302.77,153.05,312.77Z"/><ellipse class="cls-9" cx="200.84" cy="45.74" rx="36.49" ry="34.47" transform="translate(87.76 217.91) rotate(-69.53)"/><path class="cls-10" d="M223.27,52.86l-6.45,14.43s6.91,1.5,9.32-3.91S231.83,51.05,223.27,52.86Z"/><path class="cls-7" d="M137.29,203.25s6.27,8,11.32,2.93,54-104.38,52.81-114.29-26-18.72-27.75-7.17S144.57,169.87,137.29,203.25Z"/><circle class="cls-11" cx="173.31" cy="44.55" r="3.08"/><path class="cls-12" d="M131.28,132.62s-38.65,64.15-33.14,76,106.46,38.2,115,28.58,22.31-129.88,0-148S157.37,83.63,131.28,132.62Z"/><path class="cls-7" d="M51.23,118.28s-4.84,11.22,2.53,14.64,128.35,11.62,137.51,5.32,6-39.55-6.19-35.87S87.5,110.34,51.23,118.28Z"/><path class="cls-9" d="M52.44,119.12c-10.59-9.78-15.11-.82-15.08,3.81S36,138.32,41,137.33s12-5,12-5Z"/><path class="cls-13" d="M179.64,61.25l-9.41.49s2.51,5.75,4.71,8.33S180.4,63.9,179.64,61.25Z"/><path class="cls-14" d="M175.22,22.52S164,14.89,171.4,0c0,0,6.5,9.59,13.11,9.41,0,0,7.3.3,14.18.25S221.93,8.27,232.43,29c7.33,14,0,31.07,0,31.07s-7.31-6.3-8.19-15.5-30.07-16.06-36.34-16.65S175.22,22.52,175.22,22.52Z"/></g></g></g></svg>