<svg xmlns="http://www.w3.org/2000/svg" viewBox="0 0 340.19 94.8"><title>cheers</title><g id="Layer_2" data-name="Layer 2"><g id="Parade_Background" data-name="Parade Background"><path d="M8,89.75q-8-5-8-15.45,0-5.5,1.9-8.4A6.26,6.26,0,0,1,7.5,63a6.7,6.7,0,0,1,4.4,1.4A4.46,4.46,0,0,1,13.6,68a18,18,0,0,1-.3,3.5,11.07,11.07,0,0,1-.15,1.4A14.21,14.21,0,0,0,13,75q0,4.5,4.55,6.7T30.3,83.9q8.5,0,13.3-3.05a9.6,9.6,0,0,0,4.8-8.55,8.47,8.47,0,0,0-2.2-5.85,18.29,18.29,0,0,0-5.5-4.1q-3.3-1.65-9.3-4a103.79,103.79,0,0,1-12.55-5.7,26,26,0,0,1-8.3-7.35A18.85,18.85,0,0,1,7.1,33.7,22,22,0,0,1,11,20.9a24.93,24.93,0,0,1,11.1-8.7,43.15,43.15,0,0,1,17-3.1,40.09,40.09,0,0,1,13.4,2.15,21.74,21.74,0,0,1,9.75,6.55A16.36,16.36,0,0,1,65.9,28.6q0,6.3-1.9,9.5a6.12,6.12,0,0,1-5.6,3.2,6.2,6.2,0,0,1-4.35-1.6,5,5,0,0,1-1.75-3.8,19,19,0,0,1,.3-3.5q.3-3,.3-3.8a6.94,6.94,0,0,0-4.1-6.4A21.4,21.4,0,0,0,38.6,20Q30,20,25.45,23.15A10.15,10.15,0,0,0,20.9,32a9.56,9.56,0,0,0,2.35,6.5A19.4,19.4,0,0,0,29.1,43q3.5,1.8,9.8,4.3a126.59,126.59,0,0,1,12.2,5.6A24.34,24.34,0,0,1,59,59.7,17.08,17.08,0,0,1,62.2,70.3q0,11.8-9,18.15T29.3,94.8Q16,94.8,8,89.75Z"/><path d="M110.65,72.9a6.2,6.2,0,0,1,.75,3.3,9.2,9.2,0,0,1-1.9,6.2,43.07,43.07,0,0,1-9.35,8.7A20,20,0,0,1,88.7,94.5q-8.8,0-13-8T71.4,65.8A142.18,142.18,0,0,1,74.55,38a94.32,94.32,0,0,1,9.3-26.8Q90,0,98.5,0A8.49,8.49,0,0,1,106,4.45Q108.8,8.9,108.8,17.2q0,11.9-6.6,27.6A152.82,152.82,0,0,1,84.3,75.9q.7,4.1,2.3,5.85a5.42,5.42,0,0,0,4.2,1.75A11.59,11.59,0,0,0,98,81.15a54.9,54.9,0,0,0,7.9-8.05,3.51,3.51,0,0,1,2.7-1.4A2.31,2.31,0,0,1,110.65,72.9ZM91.1,18.2A136.11,136.11,0,0,0,86,38.8a149,149,0,0,0-2.4,23.6A128.93,128.93,0,0,0,94.9,39,64.29,64.29,0,0,0,99.1,17.5q0-7.6-2.8-7.6Q94,9.9,91.1,18.2Z"/><path d="M104.7,90Q101,85.5,101,78.2A32.51,32.51,0,0,1,104.7,63a31.59,31.59,0,0,1,9.85-11.5A22.22,22.22,0,0,1,127.6,47.2a3.9,3.9,0,0,1,2.95.85,7.21,7.21,0,0,1,1.25,3,23.56,23.56,0,0,1,4.4-.4q4.9,0,4.9,3.5a75,75,0,0,1-1.5,10q-2.3,11.5-2.3,16a3.63,3.63,0,0,0,.75,2.4,2.42,2.42,0,0,0,2,.9q1.9,0,4.6-2.45a85.37,85.37,0,0,0,7.3-8,3.51,3.51,0,0,1,2.7-1.4,2.31,2.31,0,0,1,2,1.2,6.2,6.2,0,0,1,.75,3.3,9.2,9.2,0,0,1-1.9,6.2,50.45,50.45,0,0,1-8.7,8.6q-4.6,3.5-8.9,3.5a9.34,9.34,0,0,1-6-2.25,13.69,13.69,0,0,1-4.15-6.15q-5.2,8.4-13.1,8.4A12.16,12.16,0,0,1,104.7,90Zm17.7-8.2a16.85,16.85,0,0,0,2.9-6.9L129,56.5a12.12,12.12,0,0,0-7.75,3.15,21.22,21.22,0,0,0-5.65,8,27.1,27.1,0,0,0-2.1,10.6,7.08,7.08,0,0,0,1.25,4.6,4.25,4.25,0,0,0,3.45,1.5Q120.4,84.4,122.4,81.8Zm3.65-42a3.47,3.47,0,0,1-1-2.55,5.31,5.31,0,0,1,.5-1.9l9.3-20.8a6.68,6.68,0,0,1,2.35-3,5.8,5.8,0,0,1,3.25-1,6.38,6.38,0,0,1,4.45,1.8,5.87,5.87,0,0,1,1.95,4.5,9.06,9.06,0,0,1-2.2,5.6L131.7,39.1a3.9,3.9,0,0,1-3.2,1.7A3.36,3.36,0,0,1,126,39.75Z"/><path d="M152.15,89.9q-3-4.6-2.95-12.2a74.61,74.61,0,0,1,1.15-11.55A107.73,107.73,0,0,1,153.3,53a8.48,8.48,0,0,1,2.4-4.4,7.69,7.69,0,0,1,4.8-1.2q5.1,0,5.1,3.4,0,2.5-1.9,11.6-2.4,11-2.4,14.9a10.53,10.53,0,0,0,.8,4.6,2.78,2.78,0,0,0,2.7,1.6q1.8,0,4.5-2.5a89.29,89.29,0,0,0,7.2-7.9,3.51,3.51,0,0,1,2.7-1.4,2.31,2.31,0,0,1,2,1.2,6.2,6.2,0,0,1,.75,3.3,9.2,9.2,0,0,1-1.9,6.2q-9.9,12.1-18.5,12.1Q155.1,94.5,152.15,89.9Zm4-51.05A7.07,7.07,0,0,1,154,33.4a7.39,7.39,0,0,1,2.75-5.85,10.18,10.18,0,0,1,6.85-2.35,9.46,9.46,0,0,1,6,1.8,6.1,6.1,0,0,1,2.3,5.1,8.13,8.13,0,0,1-2.6,6.35,9.9,9.9,0,0,1-6.9,2.35Q158.2,40.8,156.1,38.85Z"/><path d="M175.65,90.5q-1.55-4-1.55-12.8A81.42,81.42,0,0,1,177.8,53a7.52,7.52,0,0,1,2.95-4.25,10.4,10.4,0,0,1,5.75-1.35,5.64,5.64,0,0,1,2.8.5,2.07,2.07,0,0,1,.8,1.9,38.1,38.1,0,0,1-1.5,7.2q-1,4-1.6,7a71.48,71.48,0,0,0-1,7.4,56.82,56.82,0,0,1,7.4-14,29,29,0,0,1,8.05-7.7,14.64,14.64,0,0,1,7.25-2.3q6.5,0,6.5,6.5,0,3.9-2.2,14.1-1.9,8.7-1.9,11.5,0,4,2.9,4,2,0,4.75-2.45a80.18,80.18,0,0,0,7.35-8,3.51,3.51,0,0,1,2.7-1.4,2.31,2.31,0,0,1,2,1.2,6.2,6.2,0,0,1,.75,3.3,9.2,9.2,0,0,1-1.9,6.2,44.22,44.22,0,0,1-9.25,8.7,19.39,19.39,0,0,1-11.25,3.4q-5.1,0-7.7-3T198.9,83a62.32,62.32,0,0,1,1.4-10,51.9,51.9,0,0,0,1.3-8.7q0-1.6-1.1-1.6-1.3,0-3.65,3.35A53.69,53.69,0,0,0,192,74.9a68.76,68.76,0,0,0-4,11.6q-1.1,4.7-2.55,6.35A5.75,5.75,0,0,1,181,94.5Q177.19,94.5,175.65,90.5Z"/><path d="M270.15,72.9a6.2,6.2,0,0,1,.75,3.3,9.2,9.2,0,0,1-1.9,6.2,42.5,42.5,0,0,1-9.4,8.7,20.6,20.6,0,0,1-11.7,3.4q-20.4,0-20.4-28.7,0-4.4.3-8.9h-3.9q-3,0-4.05-1.1a4.94,4.94,0,0,1-1-3.5q0-5.6,4.5-5.6H229a97.24,97.24,0,0,1,5.2-20.1,45.36,45.36,0,0,1,8.45-14.5q4.95-5.4,10.65-5.4a7.48,7.48,0,0,1,6.6,3.7,16.77,16.77,0,0,1,2.4,9.3q0,15.5-13,27h11.2a3.17,3.17,0,0,1,2.3.7,3.69,3.69,0,0,1,.7,2.6q0,6.9-11.3,6.9H240q-.2,5-.2,7.8,0,10.4,2.45,14.6A8.32,8.32,0,0,0,250,83.5a11.93,11.93,0,0,0,7.6-2.6,60.61,60.61,0,0,0,7.8-7.8,3.51,3.51,0,0,1,2.7-1.4A2.31,2.31,0,0,1,270.15,72.9ZM247.24,20a53.31,53.31,0,0,0-3.5,10.4A139.44,139.44,0,0,0,241,45.2a34.16,34.16,0,0,0,8.85-11.45,27.78,27.78,0,0,0,3-11.55q0-5.9-2.2-5.9Q249.09,16.3,247.24,20Z"/><path d="M300.64,75.9a6.2,6.2,0,0,1,.75,3.3,11.08,11.08,0,0,1-1.7,6.2,19.47,19.47,0,0,1-7.35,6.7,23,23,0,0,1-10.85,2.4q-9.6,0-14.9-5.75t-5.3-15.55a28.92,28.92,0,0,1,2.9-12.85,23.74,23.74,0,0,1,8-9.45,20.24,20.24,0,0,1,11.65-3.5,12.68,12.68,0,0,1,9.3,3.45q3.5,3.45,3.5,9.35a16.17,16.17,0,0,1-5,11.85Q286.79,77,274.89,79.9q2.4,4.6,8.1,4.6a11.3,11.3,0,0,0,6.75-1.9,32.68,32.68,0,0,0,6.15-6.4,3.44,3.44,0,0,1,2.7-1.5A2.31,2.31,0,0,1,300.64,75.9Zm-24.7-14.4a20,20,0,0,0-2.55,10.4v.2a22.72,22.72,0,0,0,9.3-4.2,8.26,8.26,0,0,0,3.4-6.5A4.35,4.35,0,0,0,285,58.35a3.67,3.67,0,0,0-2.85-1.15Q278.49,57.2,275.94,61.5Z"/><path d="M309.14,92.1a8.84,8.84,0,0,1-2.25-6.3,10.06,10.06,0,0,1,2.55-7.2,9.36,9.36,0,0,1,7.15-2.7q4.4,0,6.65,2.15t2.25,6.35a10.26,10.26,0,0,1-2.6,7.35,9.3,9.3,0,0,1-7.1,2.75Q311.39,94.5,309.14,92.1Zm7.15-22.4a3.17,3.17,0,0,1-1.3-2.8l.1-.8q1.7-11.2,4.6-25.5t5.4-24.7q1.6-6.4,8.7-6.4,6.4,0,6.4,4.1a7.65,7.65,0,0,1-.3,2q-2.6,10.6-6.9,25.65t-8.2,26.15q-1.1,3.2-5.2,3.2A5.66,5.66,0,0,1,316.29,69.7Z"/></g></g></svg>