<svg xmlns="http://www.w3.org/2000/svg" viewBox="0 0 270.95 322.37"><defs><style>.cls-1{fill:#ffce94;}.cls-2{fill:#add880;}.cls-3{fill:#f9f56b;}.cls-4{fill:#9e982b;}.cls-5{fill:none;stroke:#917e20;stroke-width:1.45px;}.cls-5,.cls-7{stroke-miterlimit:10;}.cls-6{fill:#fff;}.cls-7{fill:#efe8a8;stroke:#fff;stroke-width:1.13px;}.cls-8{fill:#21470b;}.cls-9{fill:#0a0f07;}.cls-10{fill:#efa459;}.cls-11{fill:#060f00;}.cls-12{fill:#3f6d26;}.cls-13{fill:#fca38b;}.cls-14{fill:#3d3d07;}</style></defs><title>cheers2</title><g id="Layer_2" data-name="Layer 2"><g id="Parade_Background" data-name="Parade Background"><path class="cls-1" d="M49.18,67.87s1.55,6.6,0,9.32S68,86.4,71.32,77.2s-5.76-20.7-5.76-20.7Z"/><path class="cls-2" d="M211.93,68.17"/><path class="cls-3" d="M269.74,129.14c-18.74,14.71-30.13,13.13-30.13,13.13l-4.66-10.7a23.71,23.71,0,0,1-10.84,4.72c-4.87.91-18.94-31.37-16.26-37.32s12-5.78,12-5.78l-5.08-11.65A43.67,43.67,0,0,0,243.53,69C279,98.32,269.74,129.14,269.74,129.14ZM221.41,98.33s-9.64,1.08-9.38,4.09,8.26,28.13,12.51,28.71,8.32-3.62,8.32-3.62Z"/><path class="cls-4" d="M243.53,69s-11.63-.7-28.79,12.54A42.63,42.63,0,0,0,243.53,69Z"/><path class="cls-5" d="M238.73,92.37s13.79,13.23,13.75,31.56"/><path class="cls-5" d="M247.12,88.54s13.79,13.23,13.75,31.56"/><path class="cls-5" d="M230.42,96s13.79,13.23,13.75,31.56"/><path class="cls-6" d="M270.84,121.28s-20.11,17.22-33.93,14.79l2.7,6.2s10.62,2.19,30.13-13.13A27,27,0,0,0,270.84,121.28Z"/><path class="cls-6" d="M219.82,93.2l1.58,5.14s-9.34.75-9.38,4.09,6.88,20.44,7.72,22.07,3.15,6.49,4.79,6.64,4-.21,8.32-3.62l2.09,4.06a20.39,20.39,0,0,1-11.31,4.73s-1.9-.19-4.85-5.25c-3.49-4.94-8.76-17.9-9.22-20s-2.86-8.52-2-11.58,4.78-5.55,10.14-6.13Z"/><path class="cls-6" d="M244.87,72.06l.82-1.65s28.83,23.53,24.89,54l-1.65.72S271.3,95.24,244.87,72.06Z"/><polygon class="cls-6" points="220.78 92.19 240.25 136.86 237.32 137.01 234.95 131.57 232.86 127.51 229.89 120.01 225.62 109.06 221.41 98.33 219.55 92.5 220.78 92.19"/><path class="cls-7" d="M242.69,74.14c6.51,9.07,11.71.18,8.23-2.28,2.52-4.74-.66-7.32-4.91-6.85,1.48-7-8.35-7.26-8.46-1.43-6-5.46-12.3,3.31-8.72,6.81-8.47-6.43-13.49-.27-11.2,5-8.11-2.85-11.54,9.2-5.82,9.87-8.35,7.4.19,15.37,6.56,9,2.21,7.84,16.45-5.12,7-7.64,8.47,2.46,14-3.07,10.11-7.78C242.1,86.18,242.69,74.14,242.69,74.14Z"/><polygon class="cls-8" points="136.72 190.11 108.22 310.17 92.79 310.17 92.79 190.11 136.72 190.11"/><polygon class="cls-8" points="109.97 207.65 48.15 306.02 34.12 301.32 70.05 194.25 109.97 207.65"/><path class="cls-9" d="M44.34,294.93S78.92,313.33,75,318.6,29.24,312.88,25.77,305,36.2,281.68,44.34,294.93Z"/><path class="cls-9" d="M104.6,303.33s38.62,6.56,36.55,12.79-45.22,9-51,2.63S92.69,293.32,104.6,303.33Z"/><ellipse class="cls-1" cx="56.81" cy="36.29" rx="34.47" ry="36.49" transform="translate(-9.1 22.16) rotate(-20.47)"/><path class="cls-10" d="M34.38,43.41l6.45,14.43s-6.91,1.5-9.32-3.91S25.82,41.61,34.38,43.41Z"/><path class="cls-8" d="M120.36,193.8s-6.27,8-11.32,2.93S55,92.35,56.23,82.43s26-18.72,27.75-7.17S113.09,160.42,120.36,193.8Z"/><circle class="cls-11" cx="84.34" cy="35.1" r="3.08"/><path class="cls-12" d="M126.37,123.17s38.65,64.15,33.14,76-106.46,38.2-115,28.58-22.31-129.88,0-148S100.28,74.18,126.37,123.17Z"/><path class="cls-8" d="M206.42,108.83s4.84,11.22-2.53,14.64S75.55,135.09,66.39,128.79s-6-39.55,6.19-35.87S170.15,100.89,206.42,108.83Z"/><path class="cls-1" d="M205.22,109.67c10.59-9.78,15.11-.82,15.08,3.81s1.4,15.39-3.64,14.4-12-5-12-5Z"/><path class="cls-13" d="M78,51.8l9.41.49s-2.51,5.75-4.71,8.33S77.25,54.46,78,51.8Z"/><path class="cls-14" d="M82.66,13.1S71.16-1.65,52.75.15c-17.17,1.08-29,15.5-30.62,33.22S8.84,111.87,1,123.54s31.6,24.18,31.6,24.18-.51-17.72.06-22.19l.64-10.37a134.61,134.61,0,0,1,2.83-18.57c2-7.72,4-11.94,5.78-14a28.14,28.14,0,0,1,7.59-6.23,13,13,0,0,0,.22-4.84S25.42,52.62,30.48,43.33c0,0-.23.37,3.9.08S66.9,25.31,75.06,22.34s6.21-5,6.21-5S85.51,26,90.21,27.69C90.21,27.69,87.66,18,82.66,13.1Z"/></g></g></svg>