<svg xmlns="http://www.w3.org/2000/svg" viewBox="0 0 146.44 169.05"><defs><style>.cls-1{fill:#e2d0c0;}.cls-2{fill:#ba731c;}.cls-3{fill:#f9974e;}.cls-4{fill:#a26000;stroke:#a26000;stroke-width:1.77px;}.cls-4,.cls-9{stroke-miterlimit:10;}.cls-5{fill:#a3491c;}.cls-6{fill:#f9f1b7;}.cls-7{fill:#ad7a50;}.cls-8{fill:#3f2712;}.cls-9{fill:#8e7b62;stroke:#261807;stroke-width:0.27px;}</style></defs><title>church1</title><g id="Layer_2" data-name="Layer 2"><g id="Parade_Background" data-name="Parade Background"><rect class="cls-1" y="70.63" width="41.36" height="98.09"/><polygon class="cls-2" points="21.02 31.34 0.34 70.63 41.7 70.63 21.02 31.34"/><rect class="cls-1" x="56.53" y="101.28" width="45.62" height="67.78"/><polygon class="cls-2" points="81.7 58.58 57.05 101.28 106.35 101.28 81.7 58.58"/><polygon class="cls-3" points="121.8 19.77 97.15 62.46 146.44 62.46 121.8 19.77"/><rect class="cls-4" x="121.56" y="0.88" width="0.48" height="18.89"/><rect class="cls-4" x="115.91" y="5.78" width="12.26" height="0.81"/><rect class="cls-5" x="96.74" y="62.46" width="49.3" height="3.42"/><rect class="cls-5" x="30.58" y="86.27" width="40.68" height="2.65"/><rect class="cls-5" x="59" y="101.28" width="40.68" height="2.65"/><rect class="cls-5" x="0.03" y="70.63" width="43.24" height="2.65"/><polygon class="cls-3" points="51.25 53.12 30.91 86.27 71.59 86.27 51.25 53.12"/><rect class="cls-6" x="30.58" y="88.93" width="40.68" height="80.13"/><rect class="cls-6" x="96.74" y="65.88" width="49.3" height="103.17"/><path class="cls-7" d="M120,117.47h2.39a13.67,13.67,0,0,1,13.67,13.67v37.91a0,0,0,0,1,0,0H106.35a0,0,0,0,1,0,0V131.14A13.67,13.67,0,0,1,120,117.47Z"/><path class="cls-8" d="M109.09,130.45H145a0,0,0,0,1,0,0v25.63a0,0,0,0,1,0,0H109.09a11.62,11.62,0,0,1-11.62-11.62v-2.39A11.62,11.62,0,0,1,109.09,130.45Z" transform="translate(264.47 22.05) rotate(90)"/><rect class="cls-9" x="113.25" y="141.91" width="7.87" height="11.69"/><rect class="cls-9" x="113.25" y="154.59" width="7.87" height="11.69"/><rect class="cls-9" x="122.24" y="154.59" width="7.87" height="11.69"/><rect class="cls-9" x="122.24" y="141.91" width="7.87" height="11.69"/></g></g></svg>