<svg xmlns="http://www.w3.org/2000/svg" viewBox="0 0 3958.87 628.3"><defs><style>.cls-1,.cls-2,.cls-3,.cls-4,.cls-5{fill:#fff;}.cls-2,.cls-3,.cls-4,.cls-5{stroke:#fff;stroke-miterlimit:10;}.cls-2{stroke-width:0.56px;}.cls-3{stroke-width:0.59px;}.cls-4{stroke-width:1.08px;}.cls-5{stroke-width:1.12px;}</style></defs><title>bgbgclouds</title><g id="Layer_2" data-name="Layer 2"><g id="balloons"><path class="cls-1" d="M1158.57,103.21c11.08-15.23,52.64-26.51,96.69,7.45s53.42-3.93,79.88-.56,36.63,30.08,57.74,28.86,31.12,54.78-55.64,47.62c-26.76,26.88-66.3,38.44-122.71-6.86C1214.53,179.72,1106.52,174.74,1158.57,103.21Z"/><path class="cls-1" d="M126.16,75.19c14.1-26.06,76.55-52.32,152.34-8.57S361,49.33,402.93,49.07,466.32,88.33,499,82s60,78.92-76.82,85.87c-36.11,47.5-95.36,73.79-192.78,14.92C229.4,182.82,59.93,197.6,126.16,75.19Z"/><path class="cls-1" d="M720.42,245.45c25.19-34.61,119.66-60.25,219.8,16.94s121.44-8.94,181.57-1.27,83.26,68.37,131.26,65.61S1323.8,451.25,1126.58,435c-60.82,61.09-150.72,87.38-278.94-15.6C847.64,419.38,602.1,408,720.42,245.45Z"/><path class="cls-1" d="M621.45,174c7.66-14.15,41.56-28.41,82.71-4.65S749,160,771.74,159.83s34.42,21.31,52.16,17.89,32.56,42.85-41.71,46.63c-19.61,25.79-51.78,40.07-104.68,8.1C677.52,232.45,585.49,240.47,621.45,174Z"/><path class="cls-1" d="M1457.93,238.44c6.19-11.44,33.6-23,66.86-3.76s36.2-7.59,54.62-7.7,27.82,17.23,42.17,14.46,26.32,34.64-33.72,37.69C1572,300,1546,311.52,1503.25,285.68,1503.25,285.68,1428.86,292.17,1457.93,238.44Z"/><path class="cls-1" d="M12.75,304.21c10-13.7,47.34-23.84,87,6.7s48.05-3.54,71.84-.5,32.94,27.05,51.94,26,28,49.27-50,42.83c-24.07,24.17-59.63,34.57-110.37-6.17C63.09,373-34.06,368.54,12.75,304.21Z"/><path class="cls-2" d="M1850.29,300.43c8-10.75,38.38-18.61,70.68,5.56s39-2.63,58.36-.16,26.86,21.4,42.29,20.6,22.92,38.87-40.5,33.54c-19.46,18.95-48.32,27-89.69-5.22C1891.44,354.76,1812.5,350.91,1850.29,300.43Z"/><path class="cls-3" d="M1895.75,264.86c6.76-9.29,32.13-16.18,59,4.55s32.61-2.4,48.75-.34,22.36,18.36,35.25,17.62,19,33.44-34,29.07c-16.33,16.4-40.47,23.46-74.9-4.19C1929.91,311.56,1864,308.52,1895.75,264.86Z"/><path class="cls-1" d="M1691.86,121.61c9-12.34,42.65-21.47,78.34,6s43.28-3.19,64.72-.45,29.67,24.37,46.78,23.38,25.22,44.38-45.08,38.58c-21.68,21.78-53.72,31.15-99.42-5.56C1737.2,183.6,1649.69,179.56,1691.86,121.61Z"/><path class="cls-1" d="M2091.49,218.68c6.15-8.46,29.23-14.72,53.7,4.14s29.67-2.18,44.36-.31,20.34,16.7,32.07,16,17.28,30.42-30.9,26.45c-14.86,14.93-36.82,21.35-68.15-3.81C2122.57,261.18,2062.59,258.41,2091.49,218.68Z"/><path class="cls-1" d="M3484.2,112c11.08-15.23,52.64-26.51,96.69,7.45s53.42-3.93,79.88-.56,36.63,30.08,57.74,28.86,31.12,54.78-55.64,47.62c-26.76,26.88-66.3,38.44-122.71-6.86C3540.16,188.54,3432.15,183.55,3484.2,112Z"/><path class="cls-1" d="M2321.9,46.61c10.24-18.92,55.58-38,110.62-6.22s59.9-12.55,90.36-12.74,46,28.5,69.76,23.93,43.55,57.31-55.78,62.35c-26.22,34.49-69.25,53.58-140,10.84C2396.87,124.76,2273.81,135.5,2321.9,46.61Z"/><path class="cls-1" d="M3267.48,384.07c25.28-34.74,120.1-60.48,220.62,17s121.89-9,182.25-1.27,83.57,68.62,131.75,65.85,71,125-126.94,108.65c-61.05,61.32-151.28,87.71-280-15.65C3395.17,558.65,3148.72,547.27,3267.48,384.07Z"/><path class="cls-1" d="M3783.56,247.25c6.19-11.44,33.6-23,66.86-3.76s36.2-7.59,54.62-7.7,27.82,17.23,42.17,14.46,26.32,34.64-33.72,37.69c-15.85,20.85-41.86,32.39-84.62,6.55C3828.88,294.49,3754.49,301,3783.56,247.25Z"/><path class="cls-1" d="M2218.29,164.37C2241.85,132,2330.2,108,2423.86,180.21s113.58-8.36,169.82-1.19,77.87,63.94,122.77,61.36,66.17,116.46-118.29,101.24c-56.89,57.14-141,81.73-260.89-14.59C2337.28,327,2107.63,316.43,2218.29,164.37Z"/><path class="cls-4" d="M2922.75,73.75c15.32-20.47,73.09-35.44,134.61,10.59s74.32-5,111.15-.3,51.16,40.76,80.54,39.24,43.66,74-77.13,63.88c-37.07,36.08-92,51.45-170.81-9.94C3001.12,177.21,2850.77,169.88,2922.75,73.75Z"/><path class="cls-5" d="M3009.33,17.7c12.88-17.7,61.19-30.81,112.4,8.66s62.1-4.57,92.85-.65,42.58,35,67.13,33.55,36.18,63.68-64.68,55.36c-31.11,31.24-77.08,44.69-142.65-8C3074.39,106.65,2948.83,100.85,3009.33,17.7Z"/></g></g></svg>