<svg xmlns="http://www.w3.org/2000/svg" viewBox="0 0 385.32 590.42"><defs><style>.cls-1{fill:#ffce94;}.cls-2{fill:#21470b;}.cls-3{fill:#0a0f07;}.cls-4{fill:#060f00;}.cls-5{fill:none;stroke:#6d6920;stroke-miterlimit:10;stroke-width:5px;}.cls-6{fill:#fca38b;}.cls-7{fill:#efa459;}.cls-8{fill:#fff;}.cls-9{fill:#ffb000;}.cls-10{fill:#329309;}.cls-11{fill:#3f6d26;}.cls-12{fill:#6d4213;}</style></defs><title>drumguy3</title><g id="Layer_2" data-name="Layer 2"><g id="Parade_Background" data-name="Parade Background"><path class="cls-1" d="M80.84,339.07s1.55,7.53,0,10.63,18.82,10.5,22.14,0-5.76-23.6-5.76-23.6Z"/><polygon class="cls-2" points="127.18 454.56 176.28 567.76 163.92 577.01 92 480.88 127.18 454.56"/><polygon class="cls-2" points="129.66 469.6 72.49 570.74 58.26 566.7 89.16 458.07 129.66 469.6"/><path class="cls-3" d="M73.41,565.38S108,583.78,104.06,589s-45.75-5.72-49.22-13.59S65.27,552.13,73.41,565.38Z"/><path class="cls-3" d="M170.72,561.81s34.85-17.88,36.93-11.65-30.82,34.3-39.25,32.65S155.19,560.93,170.72,561.81Z"/><path class="cls-1" d="M53.28,310.85c8.1,21.7,29.12,33.89,47,27.24s25.72-29.64,17.63-51.34l-7.94-16L51.13,289.33Z"/><circle class="cls-4" cx="115.01" cy="298.71" r="3.08"/><line class="cls-5" x1="189.28" y1="210.67" x2="253.09" y2="419.69"/><path class="cls-1" d="M235.88,382.28c10.59-9.78,15.11-.82,15.08,3.81s1.4,15.39-3.64,14.4-12-5-12-5Z"/><path class="cls-6" d="M110.36,316.35l9.41.49s-2.51,5.75-4.71,8.33S109.6,319,110.36,316.35Z"/><path class="cls-7" d="M61,311l6.45,14.43s-6.91,1.5-9.32-3.91S52.49,309.21,61,311Z"/><path class="cls-8" d="M133.21,91.42s22-34.57,99-27.65S318.16,0,318.16,0l67.16,128.95s-76,83.95-157,60.25c-40.49-14.81-37.53,35.55-37.53,35.55Z"/><path class="cls-9" d="M275.74,57.83S311,44.19,318.16,0l67.16,128.95s-25.16,27-55.44,43.33Z"/><path class="cls-10" d="M133.21,91.42S147,65.67,201.84,63.16L259.26,193.4s-16.08.77-31-4.21c-13.3-4.44-37.53-7.71-37.53,35.55Z"/><path class="cls-1" d="M210.38,311.08c2.41-14.21,11.46-9.89,14.26-6.19s10.51,11.33,5.92,13.62S218,321.85,218,321.85Z"/><path class="cls-2" d="M212.36,311.2s8.29,6.45,3.6,11.91-100.27,59.43-110.19,58.36-20.18-27.12-8.82-29.19S179.68,319.62,212.36,311.2Z"/><path class="cls-11" d="M153.54,398.16s37.22,65.61,31.91,77.74S83,515,74.77,505.14s-21.48-132.84,0-151.37S128.42,348.06,153.54,398.16Z"/><path class="cls-2" d="M237.09,381.44s4.84,11.22-2.53,14.64S106.21,407.69,97.05,401.4s-6-39.55,6.19-35.87S200.82,373.5,237.09,381.44Z"/><path class="cls-11" d="M25.66,238.32a5.68,5.68,0,0,0-2.88-3.1,6.29,6.29,0,0,0-8.2,3.4,6.9,6.9,0,0,0-.52,4.34h0c.12,2,4.79,9.19,4.79,9.19l.45,1.24,0,.06c-.35-.44-3.84-4.83-5.39-7.17a6.61,6.61,0,0,0-4.09-2.85v0a6.44,6.44,0,0,0-7.93,3.65,6.17,6.17,0,0,0,1.34,6.32,5.68,5.68,0,0,0-2.87,3.11,6.29,6.29,0,0,0,4,7.91,6.9,6.9,0,0,0,4.37.18h0c1.94-.27,8.79-5.5,8.79-5.5l1.14-.52h0s-4.5,4.06-6.86,5.85a6.61,6.61,0,0,0-2.6,4.25h0a6.44,6.44,0,0,0,4.13,7.7,6.17,6.17,0,0,0,6.22-1.72,5.68,5.68,0,0,0,3.28,2.67,6.29,6.29,0,0,0,7.65-4.5,6.9,6.9,0,0,0-.09-4.37h0c-.39-1.92-6-8.44-6-8.44l-.6-1.12.15-.48a3.3,3.3,0,0,1,1.48.15s1.21,1.18,6.74,2.16a21.59,21.59,0,0,0,11.17-1c.69-.38,1.57-3.22.14-5.21s-1.5-.84-8,.81a16,16,0,0,1-11.13-1c.32-.22,5.09-3.44,7.59-4.83a6.61,6.61,0,0,0,3.17-3.85h0a6.44,6.44,0,0,0-3-8.2A6.17,6.17,0,0,0,25.66,238.32Z"/><path class="cls-11" d="M119.74,237.72a5.68,5.68,0,0,0,4.16.75,6.29,6.29,0,0,0,4.51-7.64,6.9,6.9,0,0,0-2.19-3.79h0c-1.27-1.5-9.35-4.47-9.35-4.47l-1.1-.72,0-.06c.55.14,6,1.55,8.61,2.49a6.61,6.61,0,0,0,5-.17v0a6.44,6.44,0,0,0,4.15-7.69,6.17,6.17,0,0,0-4.86-4.25,5.68,5.68,0,0,0,.42-4.21,6.29,6.29,0,0,0-8-3.9,6.9,6.9,0,0,0-3.6,2.48h0c-1.39,1.39-3.72,9.68-3.72,9.68l-.6,1.1h0s1.16-6,2-8.8a6.61,6.61,0,0,0-.48-5l0,0a6.44,6.44,0,0,0-7.93-3.67,6.17,6.17,0,0,0-3.94,5.11,5.68,5.68,0,0,0-4.23-.17A6.29,6.29,0,0,0,95.1,213a6.9,6.9,0,0,0,2.7,3.45h0c1.47,1.3,9.89,3.13,9.89,3.13l1.15.54.17.47a3.3,3.3,0,0,1-1.27.77s-1.68-.22-6.69,2.32a21.59,21.59,0,0,0-8.34,7.5c-.32.71.68,3.52,3,4.25s1.7-.24,5.92-5.47a16,16,0,0,1,9.5-5.88c-.13.37-2,5.81-3.17,8.42a6.61,6.61,0,0,0-.22,5h0a6.44,6.44,0,0,0,7.34,4.74A6.17,6.17,0,0,0,119.74,237.72Z"/><path class="cls-12" d="M52.7,305s-.1,7.26,5.48,16.56c0,0-7.37-13.06,2.87-10.52s10.24-4.32,10.24-4.32,8.15,4.1,13.82-1.71,5.26-12.21,11.22-13,19.54-6.87,19.39-9.58-7.23-8.21-7.23-8.21Z"/><path class="cls-11" d="M31.66,223.52S64.82,235,89.82,204.38c0,0,6.47,37.31,20.43,44.68s22.6-9.83,22-14.75,16.66,13.38,11.29,24.3-43.06,42.9-115.15,49.85C7,308.62,5.57,277.61,16.22,278.19c0,0,3.12,6.94,8.52,8.39,6.41,1.72,15.44-2.69,17.75-13.13C45.59,259.44,31.66,223.52,31.66,223.52Z"/></g></g></svg>