<svg xmlns="http://www.w3.org/2000/svg" viewBox="0 0 284.75 387.69"><defs><style>.cls-1{fill:#21470b;}.cls-2{fill:#0a0f07;}.cls-3{fill:#ffce94;}.cls-4{fill:#efa459;}.cls-5{fill:#060f00;}.cls-6{fill:#3f6d26;}.cls-7{fill:#6d5d0c;}.cls-8{fill:#fffac7;}.cls-10,.cls-9{fill:none;stroke-miterlimit:10;}.cls-9{stroke:#fff;}.cls-10{stroke:#58684e;stroke-width:4px;}.cls-11{fill:#88997e;}.cls-12{fill:#fca38b;}</style></defs><title>drumguy1</title><g id="Layer_2" data-name="Layer 2"><g id="Parade_Background" data-name="Parade Background"><polygon class="cls-1" points="110.4 258.62 177.95 361.88 167.33 373.09 80.18 290.52 110.4 258.62"/><polygon class="cls-1" points="111.23 275.37 49.41 373.74 35.38 369.03 71.31 261.97 111.23 275.37"/><path class="cls-2" d="M45.6,362.65s34.58,18.4,30.65,23.66S30.5,380.59,27,372.73,37.46,349.4,45.6,362.65Z"/><path class="cls-2" d="M170.49,359.81s31.32-23.52,34.42-17.73-24.57,39-33.16,38.82S155,361.57,170.49,359.81Z"/><ellipse class="cls-3" cx="56.17" cy="98.9" rx="34.47" ry="41.94" transform="translate(-31.04 25.88) rotate(-20.47)"/><path class="cls-4" d="M35.64,111.13l6.45,14.43s-6.91,1.5-9.32-3.91S27.08,109.32,35.64,111.13Z"/><path class="cls-3" d="M50.44,135.59s1.55,6.6,0,9.32,18.82,9.21,22.14,0-5.76-20.7-5.76-20.7Z"/><path class="cls-1" d="M191.27,134.43s6.14,8.06,0,11.7S76.7,172.33,67.4,168.67s-11.62-29.88,0-28.67S157.14,133.13,191.27,134.43Z"/><circle class="cls-5" cx="85.61" cy="102.82" r="3.08"/><path class="cls-6" d="M127.63,190.88s38.65,64.15,33.14,76-106.46,38.2-115,28.58-22.31-129.88,0-148S101.54,141.9,127.63,190.88Z"/><ellipse class="cls-7" cx="205.5" cy="166.14" rx="77.16" ry="77.73"/><ellipse class="cls-7" cx="205.5" cy="149.46" rx="78.73" ry="79.31"/><ellipse class="cls-8" cx="205.56" cy="162.38" rx="77.16" ry="77.73"/><polyline class="cls-9" points="127.16 141.53 131.54 140.36 129.35 127.79 138.38 124.1 136.56 111.14 148.81 109.7 148.81 94.42 164.38 96.63 166.29 80.66 183.3 87.93 188.4 72.03 203.02 84.64 215.83 70.83 223.24 86.7 238.46 77.41 242.52 94.13 258.2 90.54 260.98 108.31 273.8 109.99 274.75 127.94 281.7 129.47 279.91 141.53 284.23 147.39 282.72 157.92"/><path class="cls-1" d="M207.68,176.55s4.84,11.22-2.53,14.64S76.81,202.8,67.65,196.51s-6-39.55,6.19-35.87S171.41,168.61,207.68,176.55Z"/><line class="cls-10" x1="205.16" y1="147" x2="222.53" y2="203.9"/><path class="cls-3" d="M206.48,177.39c10.59-9.78,15.11-.82,15.08,3.81s1.4,15.39-3.64,14.4-12-5-12-5Z"/><circle class="cls-11" cx="207.37" cy="153.57" r="8.9" transform="translate(-1 1.36) rotate(-0.38)"/><path class="cls-12" d="M79.27,119.52l9.41.49s-2.51,5.75-4.71,8.33S78.51,122.17,79.27,119.52Z"/><path class="cls-2" d="M22.23,105.67s4.43,19,12.48,18.49c0,0-5.88-5.28-4.62-12.33a9.74,9.74,0,0,1,5.55-.71c2.89.58,17.82-11.39,17.82-11.39L86.31,81.6,31.56,89Z"/><path class="cls-6" d="M74.4,59.84a12.29,12.29,0,0,0,9.74-10.63A12.08,12.08,0,0,0,78.34,38a11.13,11.13,0,0,0,3.81-7.35c.59-6.45-4.65-12.21-11.7-12.85a13.5,13.5,0,0,0-8.35,1.92h0c-3.53,1.52-13.75,14.93-13.75,14.93l-2,1.65h-.12c.58-.95,6.35-10.27,9.63-14.68a13,13,0,0,0,2.55-9.42h0C57.91,5.44,52.75.08,46.37,0A12.08,12.08,0,0,0,35.62,6.65,11.13,11.13,0,0,0,28,3.44C21.51,3.36,16.18,9,16.1,16.11a13.5,13.5,0,0,0,2.57,8.17h0c1.79,3.4,16,12.54,16,12.54l1.7,1.75h0S25.84,33,21,29.82a13,13,0,0,0-9.56-2l0,0C4.74,28.77-.29,34.25,0,40.62a12.08,12.08,0,0,0,7.3,10.32,11.13,11.13,0,0,0-2.75,7.81c.31,6.47,6.3,11.44,13.37,11.1a13.78,13.78,0,0,0,5-1.19c-3.78,14.9-8.09,36.42-1.55,37,10,.84,66.83-11.8,70.17-20.31C93.33,80.73,83.66,69.34,74.4,59.84Z"/></g></g></svg>