<svg xmlns="http://www.w3.org/2000/svg" viewBox="0 0 291.51 381.16"><defs><style>.cls-1{fill:#ffce94;}.cls-2{fill:#21470b;}.cls-3{fill:#0a0f07;}.cls-4{fill:#060f00;}.cls-5{fill:#fca38b;}.cls-6{fill:#f97c00;}.cls-7{fill:#3f6d26;}.cls-8{fill:#efa459;}.cls-9{fill:#6d5d0c;}.cls-10{fill:#fffac7;}.cls-11,.cls-12{fill:none;stroke-miterlimit:10;}.cls-11{stroke:#fff;}.cls-12{stroke:#58684e;stroke-width:4px;}.cls-13{fill:#88997e;}</style></defs><title>drumguy2</title><g id="Layer_2" data-name="Layer 2"><g id="Parade_Background" data-name="Parade Background"><path class="cls-1" d="M57.2,132.45s1.55,6.6,0,9.32,18.82,9.21,22.14,0-5.76-20.7-5.76-20.7Z"/><polygon class="cls-2" points="100.85 249.03 156.46 359.18 144.66 369.13 67.26 277.36 100.85 249.03"/><polygon class="cls-2" points="120.86 263.54 59.03 361.91 45.01 357.2 80.94 250.14 120.86 263.54"/><path class="cls-3" d="M59.6,356.12s34.58,18.4,30.65,23.66S44.5,374.06,41,366.2,51.46,342.87,59.6,356.12Z"/><path class="cls-3" d="M150.57,353.56s33.75-19.88,36.18-13.78-28.77,36-37.28,34.88S135,353.59,150.57,353.56Z"/><path class="cls-1" d="M30.64,103.82c8.1,21.7,29.12,33.89,47,27.24s25.72-29.64,17.63-51.34l-7.94-16L28.49,82.3Z"/><circle class="cls-4" cx="92.37" cy="91.68" r="3.08"/><path class="cls-5" d="M87.72,109.32l9.22-.92s-2.16,7.33-4.36,9.9S87,112,87.72,109.32Z"/><path class="cls-6" d="M41,226.29s-4.22,22.39-19,26.51c0,0,6.19-10.9,0-22.1s-23-26.47-16.8-39S19.12,161,15,155.32s-5.6-27.69.29-36.71,5.6-31.68,12.08-33.91S51.5,66.58,57.12,67l30.38,2.34,5.9,6.1S66.62,85.87,66.3,91.24s-30,7.14-29.44,14.8,6.35,18.17,12,21.11a90.42,90.42,0,0,0,8.84,4.14l.43,11.24S37,144,41,226.29Z"/><path class="cls-7" d="M13.75,11.59A79.7,79.7,0,0,1,70.18,1.48c30.45,6,6.19,63.44,6.19,63.44s26.47-5.59,34.59,0c6.12,4.21-56.33,25.51-86.65,30.77C14.42,97.4,8,97.41,8.4,94.56c1.79-11.57,25-15.7,25-15.7S-26.12,34.8,13.75,11.59Z"/><path class="cls-8" d="M38.4,104l6.45,14.43s-6.91,1.5-9.32-3.91S29.85,102.19,38.4,104Z"/><path class="cls-2" d="M198,132.29s6.14,8.06,0,11.7S83.46,170.19,74.17,166.53s-11.62-29.88,0-28.67S163.9,131,198,132.29Z"/><ellipse class="cls-9" cx="212.26" cy="164" rx="77.16" ry="77.73"/><ellipse class="cls-9" cx="212.26" cy="147.32" rx="78.73" ry="79.31"/><ellipse class="cls-10" cx="212.32" cy="160.24" rx="77.16" ry="77.73"/><polyline class="cls-11" points="133.92 139.4 138.3 138.22 136.11 125.65 145.15 121.96 143.32 109 155.58 107.56 155.58 92.28 171.14 94.49 173.06 78.53 190.06 85.79 195.16 69.89 209.78 82.51 222.59 68.69 230 84.56 245.22 75.28 249.29 91.99 264.96 88.4 267.75 106.17 280.56 107.85 281.51 125.8 288.47 127.33 286.67 139.4 290.99 145.25 289.48 155.78"/><path class="cls-7" d="M130.9,189.91s37.22,65.61,31.91,77.74S60.31,306.72,52.13,296.89,30.64,164,52.13,145.51,105.78,139.81,130.9,189.91Z"/><path class="cls-2" d="M214.45,174.41s4.84,11.22-2.53,14.64S83.57,200.67,74.41,194.37s-6-39.55,6.19-35.87S178.18,166.47,214.45,174.41Z"/><line class="cls-12" x1="211.92" y1="144.86" x2="229.29" y2="201.76"/><path class="cls-1" d="M213.24,175.25c10.59-9.78,15.11-.82,15.08,3.81s1.4,15.39-3.64,14.4-12-5-12-5Z"/><circle class="cls-13" cx="214.13" cy="151.43" r="8.9" transform="translate(-0.99 1.41) rotate(-0.38)"/></g></g></svg>