<svg xmlns="http://www.w3.org/2000/svg" viewBox="0 0 65.7 72.77"><defs><style>.cls-1{fill:#3f6d26;stroke:#fbff64;stroke-miterlimit:10;}</style></defs><title>fourleaf2</title><g id="Layer_2" data-name="Layer 2"><g id="balloons"><g id="Layer_2-2" data-name="Layer 2"><g id="Shamrock"><path class="cls-1" d="M37.85,22.88s4-7.11,6-8.66,7.74-6,11.61-4.87S62.85,19.27,58,21.63c0,0,6-.91,7.19,9.3,0,0,.56,4-7.84,5.75s-11-.09-11-.09a21.32,21.32,0,0,1,9.48,11.33c2.54,7.74-4.46,9-4.46,9s-5,2.44-7.57-1.46c0,0,.13,6.1-6,6.55s-6.5-.09-9-6.5,1.11-13,1.11-13L30.68,40s-9.39,29.35-23,32.14c0,0-6.6.91-7.11-1.74s2-5.47,2.94-5.5,4.71,2.5,9.15-.4,9.65-8.4,13.93-18.1c0,0-5.93,7.17-12.61,6.39-5.3-2.18-7.66-9.3-3.22-12.27,0,0-6.26,0-7.16-7.73s9.76-9.66,19-7.08c0,0-7.35-4.13-8.91-10.8s-1.37-8,3.88-10.09,7.75,1.77,7.75,1.77a6.6,6.6,0,0,1,6.44-6c6.17-.54,6.65,2.12,7.69,5.05s1.81,7.06.69,10.7S37.85,22.88,37.85,22.88Z"/></g></g></g></g></svg>