<svg xmlns="http://www.w3.org/2000/svg" viewBox="0 0 65.18 72.37"><defs><style>.cls-1{fill:#3f6d26;stroke:#9bff61;stroke-miterlimit:10;stroke-width:0.6px;}</style></defs><title>fourleaf</title><g id="Layer_2" data-name="Layer 2"><g id="Shamrock"><path class="cls-1" d="M37.53,22.7s4-7.11,6-8.66S51.27,8,55.14,9.17s7.39,9.92,2.54,12.28c0,0,5.95-.91,7.19,9.3,0,0,.56,4.05-7.84,5.75s-11-.09-11-.09a21.32,21.32,0,0,1,9.48,11.33c2.54,7.74-4.46,9-4.46,9s-5,2.44-7.57-1.46c0,0,.13,6.1-6,6.55s-6.5-.09-9-6.5,1.11-13,1.11-13l.77-2.53s-9.39,29.35-23,32.14c0,0-6.6.91-7.11-1.74s2-5.47,2.94-5.5,4.71,2.5,9.15-.4,9.65-8.4,13.93-18.1c0,0-5.93,7.17-12.61,6.39C8.36,50.41,6,43.29,10.44,40.32c0,0-6.26,0-7.16-7.73s9.76-9.66,19-7.08c0,0-7.35-4.13-8.91-10.8S12,6.68,17.25,4.62,25,6.39,25,6.39a6.6,6.6,0,0,1,6.44-6c6.17-.54,6.65,2.12,7.69,5.05s1.81,7.06.69,10.7S37.53,22.7,37.53,22.7Z"/></g></g></svg>