<svg xmlns="http://www.w3.org/2000/svg" viewBox="0 0 61.5 49.6"><defs><style>.cls-1{fill:#c2662d;}.cls-2{fill:#f5c245;}.cls-3{fill:#f49e3f;}.cls-4{fill:#db6d33;}.cls-5{fill:#f9c647;}</style></defs><title>gold_1</title><g id="Layer_2" data-name="Layer 2"><g id="gold"><path class="cls-1" d="M59,8c6.25,7.71.33,21.74-14.3,32S12.78,52.68,6,45.28A39.3,39.3,0,0,1,3,41.9c-4.31-7.76,3.89-19.18,17.36-28.65C31.5,5.4,50.18,11.45,52.63,4.38,53.27,2.52,53.89,1.7,59,8Z"/><path class="cls-2" d="M55.67,4.33c6.74,7.41.35,21.76-14.28,32S9.43,49,2.69,41.58,2.34,19.83,17,9.54,48.92-3.08,55.67,4.33Z"/><path class="cls-3" d="M48.36,9.4C52.59,14.05,47.52,23.8,37,31.16s-22.4,9.57-26.63,4.92.83-14.39,11.31-21.76S44.12,4.76,48.36,9.4Z"/><path class="cls-4" d="M22.24,14s6.82-4.71,13.69-6.3,11-.56,13.24,2.9-1.43,10.11-3.3,12.33-4.88,5.5-6.8,6.76c0,0,8-12.46,3.62-15.12S26.64,11.89,22.24,14Z"/><polygon class="cls-5" points="16.09 19 35.88 31.95 36.45 31.57 16.5 18.58 16.09 19"/><polygon class="cls-5" points="17.27 17.8 37.34 30.84 38.5 29.98 18.23 16.96 17.27 17.8"/></g></g></svg>