<svg xmlns="http://www.w3.org/2000/svg" viewBox="0 0 1557.59 891.45"><defs><style>.cls-1{fill:#a5efeb;}.cls-2{fill:#fca9a9;}.cls-3{fill:#fff;}.cls-4{fill:#f7d097;}.cls-5{fill:#f9eaa5;}.cls-6{fill:#c5ffc8;}.cls-7{fill:#c0fcf9;}.cls-8{fill:#bebefc;}.cls-9{fill:#e1c7f9;}.cls-10{fill:#e9ff8a;}.cls-11{fill:#c8ef5b;}.cls-12{fill:#ddcb99;}</style></defs><title>rainbowPage</title><g id="Layer_2" data-name="Layer 2"><g id="Rainbow_Background" data-name="Rainbow Background"><rect class="cls-1" x="13.17" y="65.17" width="1474.7" height="823.48"/><path class="cls-2" d="M329.1,641.33a562.78,562.78,0,0,1,29.18-166,555.79,555.79,0,0,1,71.88-141.81A541.83,541.83,0,0,1,537.94,219.5,522.12,522.12,0,0,1,839.3,107.74a515.54,515.54,0,0,1,167.58,20.75,523.83,523.83,0,0,1,143.85,68.06,540.47,540.47,0,0,1,114.35,103.82,548.89,548.89,0,0,1,82,135.56,565,565,0,0,1,41.54,163.24q2.12,21.14,2.65,42.4"/><path class="cls-3" d="M1390.14,641.62c-.35-14.09-1.24-28.33-2.64-42.31A562.15,562.15,0,0,0,1346,436.4a546.4,546.4,0,0,0-81.8-135.28,538.25,538.25,0,0,0-114.11-103.61,521.36,521.36,0,0,0-143.56-67.92,516.17,516.17,0,0,0-329.42,12.47,522.85,522.85,0,0,0-138.54,78.35A539.51,539.51,0,0,0,431.06,334.23a553.24,553.24,0,0,0-71.73,141.52,559.72,559.72,0,0,0-29.12,165.61l-2.21-.06A562.14,562.14,0,0,1,357.24,475a555.68,555.68,0,0,1,72-142.11,541.81,541.81,0,0,1,108-114.3,523.21,523.21,0,0,1,302-112,514.52,514.52,0,0,1,167.92,20.8,523.49,523.49,0,0,1,144.15,68.21,540.46,540.46,0,0,1,114.59,104,548.69,548.69,0,0,1,82.14,135.84,564.36,564.36,0,0,1,41.63,163.58c1.41,14,2.3,28.34,2.66,42.49Z"/><path class="cls-4" d="M373.2,641.24a509.48,509.48,0,0,1,94.1-282.86,497.63,497.63,0,0,1,99.13-104.12A478.75,478.75,0,0,1,841.2,153.2a470.1,470.1,0,0,1,151.49,18.38,480.88,480.88,0,0,1,130.52,60.88,496.24,496.24,0,0,1,183.21,221.07,521,521,0,0,1,38,148.19q2.06,19.58,2.64,39.29"/><path class="cls-3" d="M374.3,641.27l-2.21-.06a510.66,510.66,0,0,1,94.31-283.51,497.61,497.61,0,0,1,99.35-104.35,479.84,479.84,0,0,1,275.4-101.29A469.27,469.27,0,0,1,993,170.49a480.69,480.69,0,0,1,130.82,61,497.36,497.36,0,0,1,183.62,221.58,520.58,520.58,0,0,1,38.12,148.52c1.37,13,2.26,26.28,2.65,39.38L1346,641c-.39-13-1.27-26.23-2.64-39.2A518.32,518.32,0,0,0,1305.41,454a495.12,495.12,0,0,0-182.79-220.57,478.55,478.55,0,0,0-130.23-60.74,467.26,467.26,0,0,0-151.14-18.34A477.7,477.7,0,0,0,567.09,255.17a495.44,495.44,0,0,0-98.9,103.88A508.35,508.35,0,0,0,374.3,641.27Z"/><path class="cls-5" d="M417.39,641.58A466.86,466.86,0,0,1,503.23,384.9c51.47-72.38,123.19-128.21,205-158.84,86.9-32.52,183.19-36.63,272.21-10.66,83.5,24.35,159.53,74.66,216.1,142.49,57.92,69.44,94.05,156.58,103.83,247.55q1.88,17.52,2.47,35.15"/><path class="cls-3" d="M418.5,641.61l-2.21-.06c2.48-91.41,33-182.8,86-257.33C554.52,310.85,625.59,255.79,707.89,225c87.43-32.72,184.34-36.51,272.89-10.69,83.09,24.24,160,75,216.64,142.84,57.3,68.7,94.27,156.84,104.1,248.17,1.26,11.69,2.09,23.54,2.48,35.24l-2.21.08c-.38-11.64-1.21-23.44-2.46-35.06-9.78-90.88-46.56-178.57-103.57-246.93-56.33-67.54-132.89-118-215.57-142.14-88.11-25.7-184.54-21.92-271.53,10.64C626.76,257.77,556,312.56,504.12,385.57,451.38,459.73,421,550.66,418.5,641.61Z"/><path class="cls-6" d="M461.61,641.61a422.32,422.32,0,0,1,78.7-231.81c45.38-63,108.49-112.22,179.81-139.67,79.7-30.68,169-34.55,250.72-10.15,74.08,22.11,141.55,67,191.89,127.23,52,62.19,84.67,140.76,93.66,222.28q1.76,15.95,2.31,32"/><path class="cls-3" d="M462.71,641.65l-2.21-.07c2.59-82.83,30.62-165.38,78.92-232.46,45.39-63,109.43-112.77,180.3-140.06,80.4-31,169.69-34.57,251.41-10.18,73.69,22,142,67.3,192.42,127.58,51.51,61.61,84.86,140.77,93.92,222.89,1.17,10.6,1.95,21.39,2.32,32.09l-2.21.08c-.37-10.64-1.14-21.38-2.31-31.91-9-81.68-42.17-160.4-93.4-221.66-50.12-59.95-118.08-105-191.36-126.88-81.27-24.26-170.07-20.66-250,10.12C650,298.32,586.34,347.79,541.2,410.47,493.16,477.18,465.29,559.28,462.71,641.65Z"/><path class="cls-7" d="M505.87,642.59a375.38,375.38,0,0,1,71-204.9c40.5-55.65,96.62-99,159.91-123.14,70.64-26.93,149.62-30.18,222-8.56,65.48,19.56,125.15,59.19,169.8,112.28,46.06,54.77,75.22,123.94,83.66,195.85q1.68,14.27,2.26,28.66"/><path class="cls-3" d="M1213.35,642.83c-.39-9.5-1.15-19.11-2.25-28.57-8.45-72-38.07-141.35-83.4-195.24-44.44-52.85-104.56-92.6-169.27-111.93-71.92-21.49-150.51-18.45-221.3,8.53C674.59,339.46,618,383.05,577.71,438.37A375.11,375.11,0,0,0,507,642.63l-2.21-.09A377.47,377.47,0,0,1,575.94,437c40.51-55.66,97.48-99.53,160.41-123.52,71.24-27.15,150.32-30.21,222.68-8.59,65.12,19.46,125.61,59.45,170.33,112.63,45.61,54.24,75.42,124,83.92,196.46,1.12,9.52,1.88,19.19,2.27,28.74Z"/><path class="cls-8" d="M550,643.64A328.81,328.81,0,0,1,612.21,465c35.28-48.46,84.12-86.27,139.21-107.42,61.66-23.68,130.64-26.72,193.93-8.08,57.31,16.88,109.59,51.31,148.83,97.54,40.5,47.71,66.27,108.06,74,170.92q1.52,12.4,2.09,24.89"/><path class="cls-3" d="M551.15,643.69l-2.21-.1a331,331,0,0,1,62.39-179.32c35.29-48.47,84.91-86.76,139.7-107.8,62.18-23.88,131.3-26.76,194.62-8.11,57,16.78,110,51.54,149.36,97.88,40.11,47.26,66.47,108.18,74.22,171.52,1,8.23,1.71,16.64,2.1,25l-2.2.11c-.39-8.28-1.09-16.63-2.09-24.81-7.69-62.9-33.86-123.39-73.69-170.31-39.05-46-91.72-80.53-148.3-97.19C882.18,332,813.54,334.9,751.8,358.61c-54.41,20.89-103.67,58.91-138.71,107A328.61,328.61,0,0,0,551.15,643.69Z"/><path class="cls-9" d="M594.27,643.72a281.92,281.92,0,0,1,53.65-151.93c30.15-41.19,71.73-73.31,118.6-91.41a261.07,261.07,0,0,1,166-7.28c49,14.27,93.7,43.48,127.4,82.77,34.9,40.69,57.25,92.24,64.14,146q1.35,10.56,1.91,21.21"/><path class="cls-3" d="M595.37,643.78l-2.2-.11A284.07,284.07,0,0,1,647,491.1c30.13-41.17,72.43-73.77,119.1-91.79A261.93,261.93,0,0,1,932.85,392c48.69,14.18,94.12,43.7,127.93,83.11,34.58,40.31,57.46,92.39,64.41,146.65.9,7,1.54,14.19,1.92,21.3l-2.2.12c-.37-7.05-1-14.16-1.9-21.13-6.9-53.81-29.58-105.47-63.87-145.44-33.53-39.09-78.59-68.36-126.88-82.43a259.79,259.79,0,0,0-165.33,7.25c-46.29,17.88-88.23,50.21-118.11,91A281.71,281.71,0,0,0,595.37,643.78Z"/><path class="cls-1" d="M1081.77,645.86q-.52-8.58-1.67-17.1c-6-44.72-24.79-87.45-54-121.15-27.93-32.26-64.81-56.3-105.16-68.14A217.76,217.76,0,0,0,783.26,445a223,223,0,0,0-98.94,75.11,235,235,0,0,0-45.75,125.23"/><path class="cls-3" d="M469.65,499.63c21.87-30.82,104.32-53.36,192.14,15.95s106.08-7.53,158.66-.45,73,61.37,115,59.09,62.31,111.47-110.09,96.2c-52.91,54.34-131.36,77.48-243.81-15C581.51,655.44,366.9,644.4,469.65,499.63Z"/><path class="cls-3" d="M348.18,456.71c15.77-22.86,74.92-39.8,137.63,11.19s76-5.9,113.69-.84,52.13,45.16,82.19,43.34,44.3,82.25-79.19,71.5c-38.08,40.36-94.37,57.72-174.66-10.3C427.83,571.6,274.09,564.11,348.18,456.71Z"/><path class="cls-10" d="M1487.88,551.89S1172.73,406.2,732.09,602.54C484.68,716.59,325.67,891.45,325.67,891.45l1162.2-2.15Z"/><path class="cls-3" d="M584.61,131.61c7.5-10.3,35.62-17.93,65.42,5s36.15-2.66,54-.38,24.78,20.35,39.07,19.53S764.2,192.87,705.5,188c-18.1,18.18-44.86,26-83-4.64C622.48,183.38,549.39,180,584.61,131.61Z"/><path class="cls-3" d="M18.43,187.9c14.4-19.79,68.41-34.45,125.67,9.68s69.43-5.11,103.81-.72,47.6,39.09,75,37.51,40.45,71.19-72.31,61.89c-34.78,34.93-86.17,50-159.48-8.92C91.16,287.34-49.22,280.86,18.43,187.9Z"/><path class="cls-3" d="M1238.76,18.89c14.2-19.51,67.44-34,123.87,9.54s68.44-5,102.33-.71,46.92,38.53,74,37,39.87,70.18-71.28,61c-34.28,34.43-84.94,49.25-157.2-8.79C1310.46,116.91,1172.08,110.52,1238.76,18.89Z"/><path class="cls-11" d="M1168.27,889.88S1010.74,736,764,633C324.5,455.8,10.17,633,10.17,633V890.8l251.88-.2.08.7,58.54.15.85-.9Z"/><g id="Layer_4" data-name="Layer 4"><polygon class="cls-12" points="218.84 636.17 73.69 723.2 97.68 788.94 15.17 890.8 267.13 891.3 257.69 810.76 202.89 740.08 291.16 636.17 218.84 636.17"/></g></g></g></svg>