<svg xmlns="http://www.w3.org/2000/svg" viewBox="0 0 69.58 70.87"><defs><style>.cls-1{fill:#3f6d26;stroke:#ffda64;stroke-miterlimit:10;}</style></defs><title>shamrockglow</title><g id="Layer_2" data-name="Layer 2"><g id="Shamrock"><path class="cls-1" d="M64.55,32.3a9.1,9.1,0,0,0,3.28-5.92c.64-5.26-3.51-10.09-9.25-10.78A11,11,0,0,0,51.72,17h0C48.8,18.13,40.13,28.84,40.13,28.84l-1.66,1.3h-.1c.5-.76,5.43-8.24,8.22-11.76a10.58,10.58,0,0,0,2.31-7.64h0c-.21-5.53-4.3-10-9.51-10.25A9.87,9.87,0,0,0,30.4,5.69a9.1,9.1,0,0,0-6.16-2.81c-5.29-.22-9.78,4.28-10,10.07a11,11,0,0,0,1.9,6.74h0c1.38,2.82,12.74,10.63,12.74,10.63l1.35,1.47h0S21.79,27,17.9,24.26a10.58,10.58,0,0,0-7.76-1.84v0C4.65,23,.4,27.37.5,32.58a9.87,9.87,0,0,0,5.71,8.61A9.1,9.1,0,0,0,3.78,47.5c.1,5.3,4.87,9.5,10.66,9.39a11,11,0,0,0,6.61-2.31h0c2.73-1.55,9.83-13.36,9.83-13.36l1.41-1.46h.81a5.29,5.29,0,0,1,.51,2.33s-1.19,2.43.07,11.33,6.15,15.64,7.07,16.5,5.69.78,8-2.39.52-2.7-5.22-11.79a25.57,25.57,0,0,1-4-17.43c.49.38,7.76,6,11.12,9.14a10.58,10.58,0,0,0,7.43,2.9v0c5.52.23,10.33-3.5,11-8.67A9.87,9.87,0,0,0,64.55,32.3Z"/></g></g></svg>