<svg xmlns="http://www.w3.org/2000/svg" viewBox="0 0 59.14 72.78"><defs><style>.cls-1{fill:#f7cbb4;}.cls-2{fill:#23b537;}.cls-3{fill:#08380d;}.cls-4{fill:#f6cb47;}.cls-5{fill:#1b440a;}.cls-6{fill:#14661b;}.cls-7{fill:#052106;}.cls-8{fill:#d2fcd3;}.cls-9{fill:#041906;}.cls-10{fill:#cc6100;}.cls-11{fill:#c6876b;}.cls-12{fill:#7c5525;}.cls-13{fill:none;stroke:#ba4a3e;stroke-miterlimit:10;stroke-width:0.22px;}</style></defs><title>smallleprechaun</title><g id="Layer_2" data-name="Layer 2"><g id="Parade_Background" data-name="Parade Background"><path class="cls-1" d="M54.68,27.66s5.23.27,4.37.67a18,18,0,0,1-2.46.8s-.4,1.6-1.2,1.51-2.14-1.77-2.14-1.77Z"/><polygon class="cls-2" points="24.84 29.48 54.69 27.68 54.74 30.45 22.81 36.12 24.84 29.48"/><path class="cls-2" d="M16.11,29.47H31.55s-.08,25,4.31,25.62h-24C16.2,54.48,16.11,29.47,16.11,29.47Z"/><path class="cls-2" d="M15,12.45c-1-3.17-2.41-8.32-.94-10.22,2.19-2.82,17.21-3.13,20,0,1.88,2.09.27,7.1-1,10.21,3.46.72,5.69,1.83,5.69,3.09,0,2.16-6.58,3.91-14.71,3.91S9.35,17.69,9.35,15.53C9.35,14.28,11.56,13.17,15,12.45Z"/><path class="cls-3" d="M34.46,8.31s-7.39-2.37-20.63,0l.61,2.42a49.65,49.65,0,0,1,19.27,0Z"/><path class="cls-4" d="M27,10.48H21.38V6.3H27ZM22.28,7.39V9.75H26.1V9H25V8.3H26.1V7.39Z"/><ellipse class="cls-5" cx="24.06" cy="15.54" rx="14.72" ry="3.9"/><path class="cls-1" d="M15,20.79s-.64-.94-1.2,0,.55,3.7,1.41,3.09Z"/><path class="cls-1" d="M32.61,20.79s.64-.94,1.2,0-.55,3.7-1.41,3.09Z"/><polygon class="cls-6" points="31.32 55.09 28.97 68.49 25.86 68.49 24.67 55.09 31.32 55.09"/><polygon class="cls-6" points="16.54 55.09 18.89 68.49 22 68.49 23.19 55.09 16.54 55.09"/><path class="cls-7" d="M29,68.49s7,2.1,8.17,3.67S26.15,72,25.52,71s.34-2.52.34-2.52Z"/><path class="cls-7" d="M18.85,68.49s-7,2.1-8.17,3.67S21.67,72,22.3,71,22,68.49,22,68.49Z"/><path class="cls-8" d="M28.45,29.83l1.27,25.27H18.08l1.29-25.27A8.38,8.38,0,0,0,23.83,31,11.51,11.51,0,0,0,28.45,29.83Z"/><circle class="cls-9" cx="23.77" cy="39.72" r="0.9"/><circle class="cls-9" cx="23.77" cy="43.04" r="0.9"/><circle class="cls-9" cx="23.77" cy="46.36" r="0.9"/><path class="cls-2" d="M16.77,29.15a12.89,12.89,0,0,0-5,4C9.93,35.88,2.34,47.87,2.34,47.87l2.4,1.55,12-13Z"/><path class="cls-1" d="M3.06,48.31s-2.68-.66-2.68,0-.85.66,0,1.86,3.41.75,3.81-1.08Z"/><path class="cls-1" d="M30.83,15.17l0,0,0,0Z"/><path class="cls-1" d="M20.28,15.9c-.39-.88-2.14.22-3.55,1.51-.32,1.76-1.14,6.67-.53,7.51.75,1,6.36,3.54,7.72,3.42s6.65-2.32,7.17-4c.43-1.4-.34-5-.73-6.68C27.79,17.51,20.85,17.18,20.28,15.9Z"/><path class="cls-1" d="M14.84,19.79a13.32,13.32,0,0,0-.08,2,21,21,0,0,1,.17-2.27A.86.86,0,0,0,14.84,19.79Z"/><path class="cls-10" d="M30.83,15.17h0l0,0c-1-1.25-3.12-2.49-7.33-2.52-5.1,0-7.19,2.28-8,4.29h0l0,.08a7.25,7.25,0,0,0-.55,2.8h0a.86.86,0,0,1,.09-.28,21,21,0,0,0-.17,2.27,13.19,13.19,0,0,0,9.6,13.55c.5-1.65,6.36-1,7.9-8.45C34,18.3,30.83,15.17,30.83,15.17Zm.25,9.14c-.52,1.71-5.81,3.91-7.17,4s-7-2.4-7.72-3.42c-.61-.84.21-5.75.53-7.51,1.41-1.29,3.15-2.39,3.55-1.51.57,1.28,7.51,1.61,10.08,1.73C30.75,19.28,31.52,22.91,31.09,24.31Z"/><path class="cls-10" d="M25.52,19s3-1.17,4.62,1.28C30.14,20.25,29.64,16.29,25.52,19Z"/><path class="cls-10" d="M22.2,19s-3-1.17-4.62,1.28C17.58,20.25,18.08,16.29,22.2,19Z"/><path class="cls-11" d="M24.56,25.28a2,2,0,0,0,.87-1.21l.08-.31-.29.13a.62.62,0,0,1-.56,0,2.09,2.09,0,0,1-.75-1.25l-.31.07s.26,1.14.92,1.47a.87.87,0,0,0,.51.09,1.3,1.3,0,0,1-.64.75,1,1,0,0,1-.93-.25l-.19.25a1.3,1.3,0,0,0,1.22.29Z"/><ellipse class="cls-12" cx="27.94" cy="21.76" rx="0.7" ry="0.75"/><ellipse class="cls-12" cx="19.34" cy="21.63" rx="0.7" ry="0.75"/><path class="cls-13" d="M22.55,25.32a1.6,1.6,0,0,0,2.77,0"/></g></g></svg>