<svg xmlns="http://www.w3.org/2000/svg" viewBox="0 0 226.07 383.58"><defs><style>.cls-1{fill:#afafaf;}.cls-2{fill:#ffcf8b;stroke-width:1.59px;opacity:0.3;}.cls-2,.cls-3,.cls-4,.cls-5{stroke:#000;stroke-miterlimit:10;}.cls-3{fill:#fff;}.cls-3,.cls-5{stroke-width:0.53px;opacity:0.29;}.cls-4{fill:#ffaa73;stroke-width:0.8px;opacity:0.24;}.cls-5{fill:red;}</style></defs><title>stainedglass1</title><g id="Layer_2" data-name="Layer 2"><g id="St.Patrick"><path class="cls-1" d="M95.46,0h35.15a95.46,95.46,0,0,1,95.46,95.46V383.58a0,0,0,0,1,0,0H0a0,0,0,0,1,0,0V95.46A95.46,95.46,0,0,1,95.46,0Z"/><path class="cls-2" d="M15.16,96.37H290.45a0,0,0,0,1,0,0V287.21a0,0,0,0,1,0,0H15.16a79.55,79.55,0,0,1-79.55-79.55V175.92A79.55,79.55,0,0,1,15.16,96.37Z" transform="translate(304.82 78.76) rotate(90)"/><path class="cls-3" d="M83.42,16.17,98.75,368.68h29.4L138,16.17S119.7,10.45,83.42,16.17Z"/><path class="cls-4" d="M36.32,41.5l47.1,327.18H98.75L83.42,16.17S57.92,20.3,36.32,41.5Z"/><path class="cls-4" d="M187.14,39.41,143.26,368.15H127.92L138,15.64S165.55,18.22,187.14,39.41Z"/><path class="cls-5" d="M17.62,196.67l49,172.95,16.82-.41L35.94,43.12S17.62,57.58,17.62,89.93Z"/><path class="cls-5" d="M208.49,189,159.3,369.19l-16,0L187.14,40.48s21.35,16,21.35,48.39Z"/></g></g></svg>