<svg xmlns="http://www.w3.org/2000/svg" viewBox="0 0 425.52 722"><defs><style>.cls-1{fill:#afafaf;}.cls-2{fill:#0dff00;stroke-width:2.99px;opacity:0.3;}.cls-12,.cls-2,.cls-20,.cls-21,.cls-22,.cls-3,.cls-4,.cls-5,.cls-6{stroke:#000;}.cls-12,.cls-14,.cls-16,.cls-17,.cls-18,.cls-2,.cls-20,.cls-21,.cls-22,.cls-3,.cls-4,.cls-5,.cls-6,.cls-7{stroke-miterlimit:10;}.cls-3{fill:#fff;}.cls-3,.cls-5{opacity:0.29;}.cls-4{fill:#57aa00;opacity:0.24;}.cls-4,.cls-6{stroke-width:1.5px;}.cls-5{fill:#005cff;}.cls-12,.cls-14,.cls-17,.cls-20,.cls-21,.cls-22,.cls-6{fill:none;}.cls-7{fill:#ffec5f;stroke:#fff;}.cls-12,.cls-17,.cls-7{stroke-width:0.67px;}.cls-8{fill:#3b5607;}.cls-9{fill:#1b3307;}.cls-10{fill:#ffce94;}.cls-11{fill:#4c4c4b;}.cls-13{fill:#cbbb78;}.cls-14,.cls-17{stroke:#1b3307;}.cls-14{stroke-width:2px;}.cls-15{fill:#72390e;}.cls-16{fill:#897800;stroke:#ddb800;}.cls-18{fill:#3f6d26;stroke:#bbf995;}.cls-19{fill:red;}.cls-21{stroke-width:0.94px;}.cls-22{stroke-width:0.99px;}</style></defs><title>stpatty</title><g id="Layer_2" data-name="Layer 2"><g id="St.Patrick"><path class="cls-1" d="M179.68,0h66.16A179.68,179.68,0,0,1,425.52,179.68V722a0,0,0,0,1,0,0H0a0,0,0,0,1,0,0V179.68A179.68,179.68,0,0,1,179.68,0Z"/><path class="cls-2" d="M28.54,181.4H546.71a0,0,0,0,1,0,0V540.6a0,0,0,0,1,0,0H28.54A149.73,149.73,0,0,1-121.2,390.87V331.13A149.73,149.73,0,0,1,28.54,181.4Z" transform="translate(573.76 148.24) rotate(90)"/><path class="cls-3" d="M157,30.43,185.87,694H241.2L259.69,30.43S225.31,19.68,157,30.43Z"/><path class="cls-4" d="M68.36,78.11,157,694h28.86L157,30.43S109,38.21,68.36,78.11Z"/><path class="cls-4" d="M352.25,74.19,269.65,693H240.79l18.9-663.52S311.61,34.29,352.25,74.19Z"/><path class="cls-5" d="M33.16,370.19l92.19,325.54L157,695,67.65,81.17s-34.49,27.22-34.49,88.1Z"/><path class="cls-5" d="M392.44,355.72l-92.58,339.2-30.21,0L352.25,76.19s40.19,30.2,40.19,91.09Z"/><line class="cls-6" x1="316.63" y1="339.91" x2="251.67" y2="339.91"/><line class="cls-6" x1="95.09" y1="256.18" x2="166.9" y2="256.18"/><line class="cls-6" x1="33.16" y1="200.58" x2="86.62" y2="200.58"/><circle class="cls-7" cx="209.66" cy="239.45" r="110.28"/><path class="cls-8" d="M163.05,335.42S68.49,369.12,32.92,523.59c0,0,0,34.21,42.77,171.33H391.48S356.84,438.4,339.06,392.53,254.8,325,254.8,325Z"/><path class="cls-9" d="M64,543s-10.09,63.24-4.86,91.15,16.57,60.81,16.57,60.81h39.48s14.17-74.77,14.17-92.21.48-39.32.48-39.32-3.77,37-16.56,43-37.4,18.26-45-10.21A151.64,151.64,0,0,1,64,543Z"/><ellipse class="cls-10" cx="209.66" cy="258.42" rx="55.3" ry="69.62"/><path class="cls-11" d="M186.67,223.84s15.94,7.57,43.24,3.29,34.71,23.51,34.71,23.51,5.71-32-6.51-44.65-26.79-31.49-71.44-25.38-32.31,71.91-32.31,71.91S163.17,215.85,186.67,223.84Z"/><circle cx="235.79" cy="257.49" r="4.99"/><circle cx="186.64" cy="257.49" r="4.99"/><path class="cls-12" d="M210.57,252.51S209.4,285,206.47,286.2s4.18,3.51,7.06,5.85"/><path class="cls-11" d="M261.64,282.24S251.35,376.68,225.69,405c-11.75,12.8-37.2,1-46.14-36.32s-21.87-86.49-21.87-86.49,17.54,24.92,22.16,25.61c0,0,35.77,20.83,58.91.18s22.89-25.8,22.89-25.8"/><path class="cls-11" d="M204.44,307.57c1.56,1.14,10.89,1.33,12,0"/><path d="M210.91,308.87c-2.85,0-5.82-.37-6.68-1l.44-.61c1.53,1.12,10.58,1.16,11.53.06l.57.49C216.13,308.55,213.57,308.87,210.91,308.87Z"/><path class="cls-10" d="M156,253.41,159.54,283s-13.31-1.17-14.61-12.27S141.58,245.37,156,253.41Z"/><path class="cls-10" d="M261.73,254.86l-3.54,29.63s13.31-1.17,14.61-12.27S276.14,246.81,261.73,254.86Z"/><path class="cls-11" d="M224.86,240.51s18.08-8.75,28.67,5C253.54,245.49,242.13,238.64,224.86,240.51Z"/><path class="cls-11" d="M197.43,240.51s-18.08-8.75-28.67,5C168.75,245.49,180.16,238.64,197.43,240.51Z"/><path class="cls-13" d="M270.65,331.34S134.3,593.53,115.17,694.92h82.26S318.83,378.08,333.8,381.8C333.8,381.8,307.33,342.61,270.65,331.34Z"/><path class="cls-10" d="M135.44,437.13s12.8-29.86,0-52.89-20.1-31.61-21.87-31.61-2.21,9.3,2.21,15.95,8.86,15.5,4.43,15.5-17.72-19.93-17.72-19.93,7.53-1.77,7.09-5.76-11.07.44-11.07.44-2.21.44,0-6.2,8.86-8.86,5.76-14.18-9.3,9.3-9.3,9.3-3.1-14.32-6.64-14.91-1.77,11.81-1.77,20.23-3.1,15.06-2.21,23.48,10.19,18.61,8.42,18.61-9.49-3.79-11.12-12.22-6.26-16.32-8.43-15.51.27,19.32,3.54,23.67,31.19,29.93,30,38.63-3.08,8.71-3.08,8.71S128.85,445.36,135.44,437.13Z"/><path class="cls-14" d="M127.67,523.6s14.21,28.91,14.21,43.93S138.46,592,138.46,592"/><path class="cls-15" d="M65.51,534.61S55.28,614.81,87.7,614s43.51-20.48,42.66-73.37S147,427.21,136.76,422.94s-24.32-6.06-31.15-.09S65.51,534.61,65.51,534.61Z"/><path class="cls-14" d="M76.47,501.09S60.72,499,43.93,571.72"/><polygon class="cls-16" points="306.68 421.39 284.16 410.74 304.93 366.81 285.66 357.69 264.88 401.62 243.89 391.69 235.36 409.74 256.35 419.66 188.31 563.53 207.59 572.65 275.63 428.77 298.15 439.43 306.68 421.39"/><path class="cls-17" d="M339.66,656.3s-14.95-51.09-14.49-58.39"/><path class="cls-17" d="M322.53,667S363.1,640.19,367,639.63"/><path class="cls-10" d="M339.66,694.92H287.81S311.1,669.68,322.55,667,341.74,693.12,339.66,694.92Z"/><path class="cls-18" d="M145.33,347.45a9,9,0,0,0,6-2.85c3.54-3.85,3-10.11-1.21-14a10.9,10.9,0,0,0-6.3-2.86h0c-3-.76-16.14,2.84-16.14,2.84l-2.08.09-.08-.05c.84-.32,9.11-3.48,13.37-4.7a10.45,10.45,0,0,0,6.25-4.8h0c3-4.55,2.33-10.52-1.72-13.7a9.75,9.75,0,0,0-10.16-1,9,9,0,0,0-3.32-5.8c-4.12-3.23-10.31-2.2-13.84,2.3a10.9,10.9,0,0,0-2.36,6.5h0c-.52,3.06,4.09,15.87,4.09,15.87l.24,2h0s-4-8.72-5.54-13.13a10.45,10.45,0,0,0-5.17-5.95v0c-4.73-2.74-10.64-1.69-13.57,2.55a9.75,9.75,0,0,0-.38,10.2,9,9,0,0,0-5.59,3.66c-3,4.31-1.57,10.43,3.14,13.67a10.9,10.9,0,0,0,6.63,2h0c3.08.33,15.59-5.05,15.59-5.05l2-.36.66.45a5.22,5.22,0,0,1-.93,2.16s-2.35,1.26-6.47,9.13-4.08,16.09-3.84,17.31,4.11,3.9,7.79,2.69,2-1.87,2.61-12.47a25.25,25.25,0,0,1,6.83-16.29c.17.59,2.75,9.31,3.65,13.74a10.45,10.45,0,0,0,4.29,6.61l0,0c4.3,3.37,10.3,3.15,13.79-.64A9.75,9.75,0,0,0,145.33,347.45Z"/><path class="cls-19" d="M256.66,152.9"/><line class="cls-20" x1="160.3" y1="105.98" x2="256.66" y2="105.98"/><line class="cls-6" x1="33.16" y1="314.2" x2="104.27" y2="338.45"/><line class="cls-20" x1="256.66" y1="135.78" x2="352.25" y2="76.19"/><line class="cls-20" x1="323.87" y1="288.76" x2="392.44" y2="362.19"/><line class="cls-20" x1="159.11" y1="78.74" x2="80.87" y2="165"/><line class="cls-20" x1="157.37" y1="38.55" x2="258.21" y2="81.17"/><line class="cls-21" x1="320.7" y1="235.58" x2="336.02" y2="195.77"/><line class="cls-22" x1="338.87" y1="176.42" x2="392.36" y2="176.42"/></g></g></svg>